<?xml version="1.0" encoding="UTF-8"?>
<!DOCTYPE svg PUBLIC "-//W3C//DTD SVG 1.1//EN" "http://www.w3.org/Graphics/SVG/1.1/DTD/svg11.dtd">
<svg version="1.2" width="30.11mm" height="30.11mm" viewBox="9089 13402 3011 3011" preserveAspectRatio="xMidYMid" fill-rule="evenodd" stroke-width="28.222" stroke-linejoin="round" xmlns="http://www.w3.org/2000/svg" xmlns:ooo="http://xml.openoffice.org/svg/export" xmlns:xlink="http://www.w3.org/1999/xlink" xmlns:presentation="http://sun.com/xmlns/staroffice/presentation" xmlns:smil="http://www.w3.org/2001/SMIL20/" xmlns:anim="urn:oasis:names:tc:opendocument:xmlns:animation:1.0" xml:space="preserve">
 <defs class="ClipPathGroup">
  <clipPath id="presentation_clip_path" clipPathUnits="userSpaceOnUse">
   <rect x="9089" y="13402" width="3011" height="3011"/>
  </clipPath>
  <clipPath id="presentation_clip_path_shrink" clipPathUnits="userSpaceOnUse">
   <rect x="9092" y="13405" width="3005" height="3005"/>
  </clipPath>
 </defs>
 <defs class="TextShapeIndex">
  <g ooo:slide="id1" ooo:id-list="id3"/>
 </defs>
 <defs class="EmbeddedBulletChars">
  <g id="bullet-char-template-57356" transform="scale(0.00048828125,-0.00048828125)">
   <path d="M 580,1141 L 1163,571 580,0 -4,571 580,1141 Z"/>
  </g>
  <g id="bullet-char-template-57354" transform="scale(0.00048828125,-0.00048828125)">
   <path d="M 8,1128 L 1137,1128 1137,0 8,0 8,1128 Z"/>
  </g>
  <g id="bullet-char-template-10146" transform="scale(0.00048828125,-0.00048828125)">
   <path d="M 174,0 L 602,739 174,1481 1456,739 174,0 Z M 1358,739 L 309,1346 659,739 1358,739 Z"/>
  </g>
  <g id="bullet-char-template-10132" transform="scale(0.00048828125,-0.00048828125)">
   <path d="M 2015,739 L 1276,0 717,0 1260,543 174,543 174,936 1260,936 717,1481 1274,1481 2015,739 Z"/>
  </g>
  <g id="bullet-char-template-10007" transform="scale(0.00048828125,-0.00048828125)">
   <path d="M 0,-2 C -7,14 -16,27 -25,37 L 356,567 C 262,823 215,952 215,954 215,979 228,992 255,992 264,992 276,990 289,987 310,991 331,999 354,1012 L 381,999 492,748 772,1049 836,1024 860,1049 C 881,1039 901,1025 922,1006 886,937 835,863 770,784 769,783 710,716 594,584 L 774,223 C 774,196 753,168 711,139 L 727,119 C 717,90 699,76 672,76 641,76 570,178 457,381 L 164,-76 C 142,-110 111,-127 72,-127 30,-127 9,-110 8,-76 1,-67 -2,-52 -2,-32 -2,-23 -1,-13 0,-2 Z"/>
  </g>
  <g id="bullet-char-template-10004" transform="scale(0.00048828125,-0.00048828125)">
   <path d="M 285,-33 C 182,-33 111,30 74,156 52,228 41,333 41,471 41,549 55,616 82,672 116,743 169,778 240,778 293,778 328,747 346,684 L 369,508 C 377,444 397,411 428,410 L 1163,1116 C 1174,1127 1196,1133 1229,1133 1271,1133 1292,1118 1292,1087 L 1292,965 C 1292,929 1282,901 1262,881 L 442,47 C 390,-6 338,-33 285,-33 Z"/>
  </g>
  <g id="bullet-char-template-9679" transform="scale(0.00048828125,-0.00048828125)">
   <path d="M 813,0 C 632,0 489,54 383,161 276,268 223,411 223,592 223,773 276,916 383,1023 489,1130 632,1184 813,1184 992,1184 1136,1130 1245,1023 1353,916 1407,772 1407,592 1407,412 1353,268 1245,161 1136,54 992,0 813,0 Z"/>
  </g>
  <g id="bullet-char-template-8226" transform="scale(0.00048828125,-0.00048828125)">
   <path d="M 346,457 C 273,457 209,483 155,535 101,586 74,649 74,723 74,796 101,859 155,911 209,963 273,989 346,989 419,989 480,963 531,910 582,859 608,796 608,723 608,648 583,586 532,535 482,483 420,457 346,457 Z"/>
  </g>
  <g id="bullet-char-template-8211" transform="scale(0.00048828125,-0.00048828125)">
   <path d="M -4,459 L 1135,459 1135,606 -4,606 -4,459 Z"/>
  </g>
  <g id="bullet-char-template-61548" transform="scale(0.00048828125,-0.00048828125)">
   <path d="M 173,740 C 173,903 231,1043 346,1159 462,1274 601,1332 765,1332 928,1332 1067,1274 1183,1159 1299,1043 1357,903 1357,740 1357,577 1299,437 1183,322 1067,206 928,148 765,148 601,148 462,206 346,322 231,437 173,577 173,740 Z"/>
  </g>
 </defs>
 <defs class="TextEmbeddedBitmaps"/>
 <g class="SlideGroup">
  <g>
   <g id="container-id1">
    <g id="id1" class="Slide" clip-path="url(#presentation_clip_path)">
     <g class="Page">
      <g class="Graphic">
       <g id="id3">
        <rect class="BoundingBox" stroke="none" fill="none" x="9089" y="13402" width="3012" height="3012"/>
        <path fill="rgb(255,255,255)" stroke="none" d="M 9973,16409 L 11217,16409 12096,15530 12096,14286 11217,13407 9973,13407 9094,14286 9094,15530 9973,16409 Z"/>
        <path fill="none" stroke="rgb(26,28,26)" stroke-width="10" stroke-linejoin="round" stroke-linecap="round" d="M 9973,16409 L 11217,16409 12096,15530 12096,14286 11217,13407 9973,13407 9094,14286 9094,15530 9973,16409 Z"/>
        <path fill="rgb(218,68,53)" stroke="none" d="M 10022,16292 L 11168,16292 11979,15481 11979,14335 11168,13524 10022,13524 9211,14335 9211,15481 10022,16292 Z"/>
        <path fill="rgb(255,255,255)" stroke="none" d="M 9515,15319 L 9519,15321 9524,15323 9528,15326 9533,15328 9537,15330 9542,15332 9546,15333 9552,15335 9562,15339 9572,15342 9583,15345 9595,15348 9601,15349 9607,15350 9613,15351 9619,15352 9632,15353 9645,15354 9658,15355 9671,15356 9685,15356 9700,15356 9707,15356 9715,15356 9722,15356 9729,15355 9736,15355 9744,15354 9751,15353 9757,15352 9764,15351 9771,15350 9777,15349 9784,15347 9790,15345 9796,15343 9803,15342 9809,15339 9815,15337 9821,15335 9827,15333 9832,15330 9838,15327 9843,15324 9849,15322 9854,15318 9859,15315 9864,15312 9869,15308 9874,15305 9879,15301 9884,15297 9888,15293 9893,15289 9897,15285 9901,15280 9905,15276 9909,15271 9913,15266 9917,15262 9920,15257 9923,15252 9927,15246 9930,15241 9933,15236 9935,15231 9938,15225 9941,15219 9943,15214 9945,15208 9947,15202 9949,15196 9951,15190 9953,15184 9954,15177 9956,15171 9957,15164 9958,15158 9959,15151 9960,15144 9961,15137 9962,15130 9962,15123 9962,15115 9962,15108 9963,15101 9963,15094 9962,15087 9962,15080 9962,15073 9961,15067 9961,15060 9960,15054 9959,15048 9958,15042 9957,15036 9955,15031 9954,15025 9952,15020 9951,15014 9949,15009 9947,15004 9945,14999 9943,14994 9940,14990 9938,14985 9935,14980 9933,14976 9930,14971 9927,14967 9924,14962 9921,14958 9918,14954 9915,14950 9912,14945 9909,14942 9906,14938 9902,14934 9895,14926 9888,14919 9880,14912 9872,14905 9864,14898 9856,14891 9847,14885 9837,14879 9828,14873 9818,14866 9808,14860 9798,14854 9788,14848 9778,14842 9768,14836 9758,14830 9750,14825 9743,14820 9736,14816 9729,14812 9722,14807 9716,14803 9710,14799 9705,14794 9699,14790 9693,14786 9688,14782 9684,14778 9679,14774 9675,14770 9672,14766 9668,14762 9665,14758 9662,14754 9659,14750 9656,14746 9653,14742 9651,14737 9649,14733 9648,14728 9647,14724 9645,14719 9644,14714 9644,14709 9643,14704 9642,14699 9642,14694 9642,14688 9642,14682 9642,14676 9643,14669 9644,14663 9645,14658 9646,14652 9648,14647 9650,14641 9652,14636 9655,14631 9657,14626 9660,14621 9663,14617 9667,14612 9671,14608 9674,14604 9679,14600 9683,14596 9687,14593 9692,14590 9697,14587 9703,14584 9708,14582 9713,14580 9719,14578 9725,14576 9731,14575 9738,14573 9745,14572 9752,14572 9759,14571 9766,14571 9777,14571 9788,14572 9799,14573 9810,14574 9821,14576 9831,14578 9836,14579 9841,14580 9846,14581 9850,14583 9860,14586 9869,14589 9877,14592 9886,14596 9894,14599 9902,14603 9909,14606 9917,14610 9921,14490 9914,14487 9907,14485 9900,14482 9892,14480 9883,14477 9874,14475 9864,14472 9854,14470 9843,14467 9832,14465 9820,14464 9808,14462 9796,14461 9783,14460 9770,14460 9756,14460 9750,14460 9744,14460 9738,14460 9731,14461 9725,14461 9719,14462 9713,14462 9707,14463 9702,14464 9696,14465 9690,14466 9684,14467 9673,14470 9661,14473 9656,14475 9650,14477 9645,14480 9639,14482 9634,14484 9629,14487 9624,14489 9619,14492 9614,14495 9609,14498 9604,14501 9600,14504 9595,14507 9590,14510 9586,14514 9582,14517 9577,14521 9573,14525 9569,14529 9565,14533 9562,14537 9558,14542 9554,14546 9551,14550 9547,14555 9544,14560 9541,14564 9538,14569 9535,14574 9533,14580 9530,14585 9527,14590 9525,14596 9523,14601 9520,14607 9519,14612 9517,14618 9515,14624 9514,14630 9512,14636 9511,14643 9510,14649 9509,14655 9508,14662 9508,14669 9507,14675 9507,14682 9507,14689 9507,14696 9507,14703 9507,14710 9508,14717 9508,14724 9509,14730 9510,14736 9511,14742 9512,14748 9513,14754 9514,14759 9515,14765 9517,14770 9519,14776 9520,14781 9523,14786 9525,14791 9527,14796 9529,14800 9531,14805 9534,14810 9536,14814 9539,14819 9542,14823 9544,14827 9547,14832 9550,14836 9553,14840 9556,14844 9559,14848 9562,14851 9566,14855 9573,14862 9580,14869 9584,14873 9587,14876 9591,14880 9595,14883 9599,14886 9603,14890 9607,14893 9612,14896 9616,14899 9621,14902 9625,14905 9630,14907 9639,14914 9648,14920 9658,14926 9668,14932 9678,14938 9688,14945 9698,14951 9708,14958 9717,14963 9725,14968 9732,14973 9740,14978 9747,14983 9754,14988 9760,14992 9766,14996 9772,15001 9777,15006 9782,15011 9787,15015 9792,15020 9796,15024 9800,15029 9803,15033 9806,15037 9809,15042 9812,15046 9815,15051 9817,15055 9819,15060 9821,15065 9823,15069 9824,15074 9825,15080 9826,15085 9827,15090 9827,15096 9827,15101 9828,15107 9828,15113 9827,15121 9827,15128 9826,15135 9825,15142 9824,15148 9822,15155 9820,15161 9818,15167 9815,15173 9812,15179 9809,15184 9806,15189 9802,15194 9798,15199 9794,15204 9789,15209 9784,15213 9779,15217 9774,15221 9768,15224 9763,15227 9757,15230 9751,15233 9745,15236 9738,15238 9732,15240 9725,15241 9718,15243 9711,15244 9704,15244 9696,15245 9689,15245 9683,15245 9676,15245 9670,15244 9664,15244 9658,15243 9652,15242 9646,15241 9640,15240 9634,15239 9628,15238 9622,15236 9616,15234 9611,15233 9605,15230 9599,15228 9594,15226 9583,15222 9572,15217 9562,15213 9553,15208 9544,15204 9536,15199 9528,15195 9520,15190 9515,15319 Z"/>
        <path fill="rgb(255,255,255)" stroke="none" d="M 10171,15346 L 10301,15346 10301,14583 10491,14583 10491,14471 9981,14471 9981,14583 10171,14583 10171,15346 Z"/>
        <path fill="rgb(255,255,255)" stroke="none" d="M 10563,15244 L 10568,15251 10574,15257 10580,15264 10585,15270 10591,15276 10597,15282 10604,15287 10610,15293 10616,15298 10623,15303 10630,15307 10637,15312 10644,15316 10651,15320 10658,15324 10665,15328 10673,15331 10680,15335 10687,15338 10695,15341 10702,15343 10710,15345 10718,15348 10726,15349 10734,15351 10741,15352 10750,15354 10758,15355 10766,15355 10774,15356 10782,15356 10791,15356 10799,15356 10808,15356 10817,15355 10825,15355 10834,15354 10842,15353 10850,15351 10859,15350 10867,15348 10875,15346 10882,15344 10890,15341 10898,15338 10906,15336 10913,15332 10921,15329 10928,15325 10936,15321 10943,15317 10950,15313 10956,15309 10963,15304 10970,15299 10976,15294 10982,15289 10989,15283 10995,15277 11001,15271 11007,15265 11012,15259 11018,15252 11023,15245 11029,15238 11034,15231 11039,15223 11044,15216 11049,15208 11053,15199 11058,15191 11062,15182 11066,15173 11071,15164 11074,15155 11078,15145 11082,15135 11085,15125 11089,15115 11092,15104 11095,15094 11098,15083 11100,15071 11103,15060 11105,15048 11107,15036 11108,15024 11110,15012 11111,14999 11113,14986 11114,14973 11115,14959 11115,14946 11116,14932 11116,14918 11116,14904 11116,14890 11116,14876 11115,14863 11115,14850 11114,14837 11113,14825 11111,14812 11110,14800 11108,14788 11107,14776 11105,14765 11103,14754 11100,14743 11098,14732 11095,14721 11092,14711 11089,14700 11085,14690 11082,14680 11078,14671 11074,14661 11071,14652 11066,14643 11062,14634 11058,14626 11053,14617 11049,14609 11044,14601 11039,14593 11034,14586 11029,14578 11023,14571 11018,14564 11012,14558 11007,14552 11001,14545 10995,14539 10989,14534 10983,14528 10976,14523 10970,14518 10963,14512 10957,14508 10950,14503 10943,14499 10936,14495 10929,14491 10922,14487 10915,14484 10907,14481 10899,14478 10892,14475 10884,14473 10876,14470 10869,14468 10861,14466 10853,14465 10845,14463 10837,14462 10828,14461 10820,14461 10812,14460 10804,14460 10795,14460 10787,14460 10778,14460 10770,14461 10761,14461 10753,14462 10744,14463 10736,14465 10728,14466 10720,14468 10712,14470 10705,14473 10697,14475 10689,14478 10681,14481 10674,14484 10666,14487 10659,14491 10652,14495 10645,14499 10638,14503 10631,14507 10624,14512 10617,14517 10611,14522 10604,14527 10598,14533 10592,14538 10586,14544 10580,14551 10574,14557 10568,14563 10563,14570 10558,14577 10552,14585 10547,14592 10542,14600 10538,14608 10533,14617 10529,14625 10524,14634 10520,14643 10516,14652 10512,14662 10509,14671 10505,14681 10502,14691 10498,14701 10495,14712 10492,14723 10489,14733 10487,14745 10484,14756 10482,14768 10480,14780 10478,14792 10476,14805 10475,14817 10474,14830 10472,14843 10472,14857 10471,14870 10471,14884 10470,14898 10470,14913 10470,14926 10471,14940 10471,14953 10472,14966 10472,14979 10474,14992 10475,15004 10476,15016 10478,15028 10480,15040 10482,15051 10484,15063 10487,15074 10489,15085 10492,15095 10495,15106 10498,15116 10502,15126 10505,15136 10509,15145 10512,15155 10516,15164 10520,15173 10524,15182 10529,15190 10533,15199 10538,15207 10542,15214 10547,15222 10552,15230 10558,15237 10563,15244 Z"/>
        <path fill="rgb(255,255,255)" stroke="none" d="M 11206,15346 L 11336,15346 11336,14991 11414,14991 11422,14991 11430,14991 11438,14991 11446,14990 11454,14990 11462,14989 11469,14988 11476,14987 11484,14986 11491,14985 11498,14983 11504,14982 11511,14980 11518,14978 11524,14977 11531,14974 11537,14972 11543,14970 11549,14967 11555,14965 11561,14962 11566,14959 11572,14956 11577,14953 11582,14950 11587,14946 11593,14942 11597,14939 11602,14935 11607,14931 11611,14927 11616,14922 11620,14918 11624,14914 11627,14909 11631,14905 11635,14900 11638,14895 11642,14890 11645,14885 11648,14880 11651,14874 11654,14869 11657,14863 11659,14858 11661,14852 11664,14846 11666,14840 11668,14834 11670,14828 11672,14821 11673,14815 11675,14808 11676,14801 11678,14794 11679,14788 11680,14781 11681,14773 11681,14766 11682,14759 11683,14751 11683,14744 11683,14736 11683,14728 11683,14720 11683,14713 11683,14705 11682,14698 11681,14690 11681,14683 11680,14676 11679,14669 11678,14662 11676,14655 11675,14649 11673,14642 11672,14636 11670,14629 11668,14623 11666,14617 11664,14611 11661,14605 11659,14600 11656,14594 11654,14589 11651,14583 11648,14578 11644,14573 11641,14568 11638,14563 11634,14558 11630,14554 11627,14549 11623,14545 11619,14540 11614,14536 11610,14532 11606,14528 11601,14525 11596,14521 11592,14517 11587,14514 11582,14511 11577,14507 11572,14505 11566,14502 11561,14499 11556,14496 11550,14494 11545,14491 11539,14489 11533,14487 11527,14485 11521,14483 11515,14482 11509,14480 11503,14479 11496,14477 11490,14476 11483,14475 11477,14474 11470,14473 11463,14473 11456,14472 11449,14472 11442,14471 11435,14471 11427,14471 11206,14471 11206,15346 Z"/>
        <path fill="rgb(221,63,50)" stroke="none" d="M 10653,15160 L 10650,15154 10647,15148 10645,15142 10642,15136 10639,15130 10637,15123 10634,15117 10632,15110 10630,15104 10628,15097 10625,15090 10624,15083 10622,15075 10620,15068 10619,15060 10617,15053 10616,15045 10614,15037 10613,15029 10612,15021 10611,15012 10610,15004 10609,14995 10608,14987 10607,14978 10607,14969 10606,14960 10606,14951 10605,14932 10605,14913 10605,14901 10605,14889 10606,14878 10606,14866 10606,14855 10607,14845 10608,14834 10609,14824 10610,14814 10611,14804 10612,14795 10614,14785 10615,14776 10617,14768 10619,14759 10621,14751 10622,14743 10624,14735 10626,14727 10629,14719 10631,14712 10633,14705 10635,14698 10638,14691 10641,14684 10643,14677 10646,14671 10649,14665 10652,14659 10655,14653 10658,14648 10662,14643 10665,14638 10668,14633 10671,14629 10675,14624 10678,14620 10682,14616 10686,14612 10690,14608 10693,14605 10697,14601 10701,14598 10705,14595 10709,14592 10713,14589 10718,14586 10722,14584 10726,14582 10731,14580 10735,14578 10740,14576 10744,14575 10749,14573 10753,14572 10758,14571 10762,14570 10767,14569 10772,14568 10776,14567 10781,14567 10786,14567 10791,14566 10795,14566 10801,14566 10807,14567 10812,14567 10817,14568 10823,14569 10828,14570 10833,14571 10838,14572 10843,14573 10848,14575 10853,14577 10857,14579 10862,14581 10866,14584 10871,14586 10875,14589 10879,14592 10884,14595 10888,14598 10892,14602 10896,14605 10900,14609 10903,14613 10907,14617 10911,14621 10914,14626 10918,14631 10921,14635 10925,14640 10928,14646 10931,14651 10934,14657 10937,14662 10940,14668 10943,14674 10945,14680 10948,14686 10950,14693 10952,14699 10955,14706 10957,14713 10959,14720 10961,14727 10963,14734 10965,14741 10966,14749 10968,14756 10969,14764 10971,14772 10972,14779 10973,14788 10975,14796 10975,14804 10977,14812 10977,14821 10978,14830 10979,14847 10980,14866 10981,14884 10981,14904 10981,14916 10981,14927 10981,14939 10980,14950 10980,14961 10979,14971 10978,14982 10978,14992 10977,15002 10975,15012 10974,15021 10973,15031 10972,15040 10970,15049 10968,15057 10967,15065 10965,15074 10962,15082 10960,15089 10958,15097 10956,15104 10953,15112 10951,15119 10949,15125 10946,15132 10943,15138 10940,15145 10938,15150 10935,15156 10932,15162 10929,15167 10926,15172 10922,15177 10919,15182 10915,15187 10912,15191 10908,15196 10904,15200 10901,15204 10897,15208 10893,15211 10889,15215 10885,15218 10881,15221 10877,15224 10873,15227 10869,15229 10864,15231 10860,15233 10856,15236 10851,15237 10847,15239 10842,15241 10837,15243 10833,15244 10828,15245 10824,15246 10819,15247 10814,15248 10810,15249 10805,15249 10800,15249 10795,15250 10791,15250 10785,15250 10779,15249 10774,15249 10769,15248 10763,15248 10758,15247 10753,15246 10748,15244 10743,15243 10738,15241 10734,15239 10729,15237 10724,15235 10720,15233 10715,15230 10711,15227 10707,15224 10703,15221 10699,15218 10695,15215 10691,15211 10687,15207 10683,15203 10680,15199 10676,15195 10672,15190 10669,15186 10666,15181 10662,15176 10659,15171 10656,15165 10653,15160 Z"/>
        <path fill="rgb(221,63,50)" stroke="none" d="M 11336,14885 L 11336,14578 11395,14578 11404,14578 11414,14578 11423,14579 11431,14580 11440,14581 11448,14583 11455,14585 11463,14587 11470,14589 11477,14592 11483,14595 11490,14598 11496,14602 11501,14605 11507,14610 11512,14614 11514,14616 11516,14619 11519,14621 11521,14624 11523,14627 11525,14630 11527,14633 11529,14636 11530,14639 11532,14642 11534,14645 11535,14648 11538,14655 11541,14663 11543,14670 11545,14678 11547,14687 11548,14695 11549,14704 11550,14714 11550,14723 11550,14733 11550,14742 11550,14751 11549,14759 11548,14768 11547,14775 11545,14783 11544,14790 11541,14797 11539,14804 11536,14811 11533,14817 11530,14823 11527,14829 11523,14834 11519,14840 11514,14845 11512,14847 11510,14849 11507,14852 11505,14854 11502,14856 11499,14858 11496,14860 11493,14862 11490,14864 11487,14866 11484,14867 11481,14869 11477,14871 11474,14872 11470,14873 11466,14875 11462,14876 11459,14877 11455,14878 11450,14879 11442,14881 11433,14882 11424,14884 11414,14884 11404,14885 11394,14885 11336,14885 Z"/>
       </g>
      </g>
     </g>
    </g>
   </g>
  </g>
 </g>
</svg>