<?xml version="1.0" encoding="UTF-8"?>
<!DOCTYPE svg PUBLIC "-//W3C//DTD SVG 1.1//EN" "http://www.w3.org/Graphics/SVG/1.1/DTD/svg11.dtd">
<svg version="1.2" width="25.09mm" height="25.09mm" viewBox="9340 13653 2509 2509" preserveAspectRatio="xMidYMid" fill-rule="evenodd" stroke-width="28.222" stroke-linejoin="round" xmlns="http://www.w3.org/2000/svg" xmlns:ooo="http://xml.openoffice.org/svg/export" xmlns:xlink="http://www.w3.org/1999/xlink" xmlns:presentation="http://sun.com/xmlns/staroffice/presentation" xmlns:smil="http://www.w3.org/2001/SMIL20/" xmlns:anim="urn:oasis:names:tc:opendocument:xmlns:animation:1.0" xml:space="preserve">
 <defs class="ClipPathGroup">
  <clipPath id="presentation_clip_path" clipPathUnits="userSpaceOnUse">
   <rect x="9340" y="13653" width="2509" height="2509"/>
  </clipPath>
  <clipPath id="presentation_clip_path_shrink" clipPathUnits="userSpaceOnUse">
   <rect x="9342" y="13655" width="2504" height="2504"/>
  </clipPath>
 </defs>
 <defs class="TextShapeIndex">
  <g ooo:slide="id1" ooo:id-list="id3"/>
 </defs>
 <defs class="EmbeddedBulletChars">
  <g id="bullet-char-template-57356" transform="scale(0.00048828125,-0.00048828125)">
   <path d="M 580,1141 L 1163,571 580,0 -4,571 580,1141 Z"/>
  </g>
  <g id="bullet-char-template-57354" transform="scale(0.00048828125,-0.00048828125)">
   <path d="M 8,1128 L 1137,1128 1137,0 8,0 8,1128 Z"/>
  </g>
  <g id="bullet-char-template-10146" transform="scale(0.00048828125,-0.00048828125)">
   <path d="M 174,0 L 602,739 174,1481 1456,739 174,0 Z M 1358,739 L 309,1346 659,739 1358,739 Z"/>
  </g>
  <g id="bullet-char-template-10132" transform="scale(0.00048828125,-0.00048828125)">
   <path d="M 2015,739 L 1276,0 717,0 1260,543 174,543 174,936 1260,936 717,1481 1274,1481 2015,739 Z"/>
  </g>
  <g id="bullet-char-template-10007" transform="scale(0.00048828125,-0.00048828125)">
   <path d="M 0,-2 C -7,14 -16,27 -25,37 L 356,567 C 262,823 215,952 215,954 215,979 228,992 255,992 264,992 276,990 289,987 310,991 331,999 354,1012 L 381,999 492,748 772,1049 836,1024 860,1049 C 881,1039 901,1025 922,1006 886,937 835,863 770,784 769,783 710,716 594,584 L 774,223 C 774,196 753,168 711,139 L 727,119 C 717,90 699,76 672,76 641,76 570,178 457,381 L 164,-76 C 142,-110 111,-127 72,-127 30,-127 9,-110 8,-76 1,-67 -2,-52 -2,-32 -2,-23 -1,-13 0,-2 Z"/>
  </g>
  <g id="bullet-char-template-10004" transform="scale(0.00048828125,-0.00048828125)">
   <path d="M 285,-33 C 182,-33 111,30 74,156 52,228 41,333 41,471 41,549 55,616 82,672 116,743 169,778 240,778 293,778 328,747 346,684 L 369,508 C 377,444 397,411 428,410 L 1163,1116 C 1174,1127 1196,1133 1229,1133 1271,1133 1292,1118 1292,1087 L 1292,965 C 1292,929 1282,901 1262,881 L 442,47 C 390,-6 338,-33 285,-33 Z"/>
  </g>
  <g id="bullet-char-template-9679" transform="scale(0.00048828125,-0.00048828125)">
   <path d="M 813,0 C 632,0 489,54 383,161 276,268 223,411 223,592 223,773 276,916 383,1023 489,1130 632,1184 813,1184 992,1184 1136,1130 1245,1023 1353,916 1407,772 1407,592 1407,412 1353,268 1245,161 1136,54 992,0 813,0 Z"/>
  </g>
  <g id="bullet-char-template-8226" transform="scale(0.00048828125,-0.00048828125)">
   <path d="M 346,457 C 273,457 209,483 155,535 101,586 74,649 74,723 74,796 101,859 155,911 209,963 273,989 346,989 419,989 480,963 531,910 582,859 608,796 608,723 608,648 583,586 532,535 482,483 420,457 346,457 Z"/>
  </g>
  <g id="bullet-char-template-8211" transform="scale(0.00048828125,-0.00048828125)">
   <path d="M -4,459 L 1135,459 1135,606 -4,606 -4,459 Z"/>
  </g>
  <g id="bullet-char-template-61548" transform="scale(0.00048828125,-0.00048828125)">
   <path d="M 173,740 C 173,903 231,1043 346,1159 462,1274 601,1332 765,1332 928,1332 1067,1274 1183,1159 1299,1043 1357,903 1357,740 1357,577 1299,437 1183,322 1067,206 928,148 765,148 601,148 462,206 346,322 231,437 173,577 173,740 Z"/>
  </g>
 </defs>
 <defs class="TextEmbeddedBitmaps"/>
 <g class="SlideGroup">
  <g>
   <g id="container-id1">
    <g id="id1" class="Slide" clip-path="url(#presentation_clip_path)">
     <g class="Page">
      <g class="Graphic">
       <g id="id3">
        <rect class="BoundingBox" stroke="none" fill="none" x="9340" y="13653" width="2510" height="2510"/>
        <path fill="rgb(255,255,255)" stroke="none" d="M 9345,16158 L 11845,16158 11845,13658 9345,13658 9345,16158 Z"/>
        <path fill="none" stroke="rgb(26,28,26)" stroke-width="10" stroke-linejoin="round" stroke-linecap="round" d="M 9345,16158 L 11845,16158 11845,13658 9345,13658 9345,16158 Z"/>
        <path fill="rgb(4,82,159)" stroke="none" d="M 9395,16108 L 11795,16108 11795,13708 9395,13708 9395,16108 Z"/>
        <path fill="rgb(255,255,255)" stroke="none" d="M 10154,15263 L 10220,14007 9870,14007 9939,15263 9701,15209 9699,15209 9698,15209 9696,15209 9694,15209 9692,15209 9691,15209 9689,15210 9687,15210 9686,15211 9684,15212 9683,15212 9682,15213 9680,15214 9679,15215 9678,15217 9676,15218 9675,15220 9674,15221 9673,15223 9672,15225 9671,15227 9671,15229 9671,15231 9670,15233 9670,15235 9670,15237 9671,15239 9671,15241 9672,15243 9673,15245 9674,15247 9675,15248 10016,15766 10017,15768 10019,15769 10020,15771 10022,15773 10023,15774 10025,15775 10027,15777 10029,15778 10031,15779 10033,15780 10035,15780 10037,15781 10039,15782 10041,15782 10043,15782 10045,15782 10048,15782 10050,15782 10052,15782 10055,15781 10057,15781 10059,15780 10061,15779 10063,15778 10065,15777 10067,15776 10069,15774 10071,15773 10072,15771 10074,15770 10075,15768 10077,15766 10416,15247 10417,15245 10418,15243 10419,15242 10420,15240 10420,15238 10420,15236 10420,15234 10420,15232 10420,15230 10420,15228 10420,15227 10419,15225 10419,15223 10418,15221 10417,15220 10416,15218 10415,15217 10413,15215 10412,15214 10411,15212 10409,15211 10408,15210 10406,15210 10404,15209 10403,15208 10401,15208 10399,15207 10397,15207 10395,15207 10394,15207 10392,15207 10390,15207 10154,15263 Z"/>
        <path fill="rgb(255,255,255)" stroke="none" d="M 11254,14552 L 11320,15808 10969,15808 11038,14552 10801,14606 10799,14606 10797,14606 10795,14606 10794,14606 10792,14606 10790,14606 10789,14606 10787,14605 10785,14604 10784,14604 10782,14603 10781,14602 10780,14601 10778,14600 10777,14599 10776,14597 10775,14596 10774,14594 10772,14592 10772,14590 10771,14589 10770,14587 10770,14585 10770,14583 10770,14581 10770,14579 10770,14577 10771,14575 10771,14573 10772,14571 10773,14569 10774,14567 11116,14049 11117,14048 11118,14046 11120,14044 11121,14043 11123,14041 11124,14040 11126,14039 11128,14038 11130,14037 11132,14036 11134,14035 11136,14034 11138,14034 11140,14033 11143,14033 11145,14033 11147,14033 11150,14033 11152,14033 11154,14034 11156,14035 11159,14035 11161,14036 11163,14037 11165,14038 11167,14039 11169,14041 11170,14042 11172,14044 11174,14046 11175,14048 11176,14049 11516,14569 11517,14570 11518,14572 11519,14574 11519,14576 11519,14577 11520,14579 11520,14581 11520,14583 11520,14585 11520,14587 11519,14589 11519,14590 11518,14592 11517,14594 11516,14596 11515,14597 11514,14599 11513,14600 11511,14602 11510,14603 11509,14604 11507,14605 11505,14606 11504,14606 11502,14607 11500,14607 11498,14608 11497,14608 11495,14608 11493,14608 11491,14608 11490,14608 11254,14552 Z"/>
        <path fill="rgb(218,68,53)" stroke="none" d="M 10128,15295 L 10194,14032 9896,14032 9965,15295 9696,15234 9696,15234 9695,15234 9696,15235 10037,15752 10038,15753 10039,15754 10040,15755 10041,15756 10042,15757 10043,15757 10044,15757 10045,15757 10047,15757 10049,15757 10050,15757 10052,15756 10053,15755 10054,15754 10055,15753 10056,15752 10395,15233 10395,15233 10395,15232 10395,15232 10128,15295 Z"/>
       </g>
      </g>
     </g>
    </g>
   </g>
  </g>
 </g>
</svg>