<?xml version="1.0" encoding="UTF-8"?>
<!DOCTYPE svg PUBLIC "-//W3C//DTD SVG 1.1//EN" "http://www.w3.org/Graphics/SVG/1.1/DTD/svg11.dtd">
<svg version="1.2" width="50.64mm" height="25.35mm" viewBox="9221 13500 5064 2535" preserveAspectRatio="xMidYMid" fill-rule="evenodd" stroke-width="28.222" stroke-linejoin="round" xmlns="http://www.w3.org/2000/svg" xmlns:ooo="http://xml.openoffice.org/svg/export" xmlns:xlink="http://www.w3.org/1999/xlink" xmlns:presentation="http://sun.com/xmlns/staroffice/presentation" xmlns:smil="http://www.w3.org/2001/SMIL20/" xmlns:anim="urn:oasis:names:tc:opendocument:xmlns:animation:1.0" xml:space="preserve">
 <defs class="EmbeddedBulletChars">
  <g id="bullet-char-template-57356" transform="scale(0.00048828125,-0.00048828125)">
   <path d="M 580,1141 L 1163,571 580,0 -4,571 580,1141 Z"/>
  </g>
  <g id="bullet-char-template-57354" transform="scale(0.00048828125,-0.00048828125)">
   <path d="M 8,1128 L 1137,1128 1137,0 8,0 8,1128 Z"/>
  </g>
  <g id="bullet-char-template-10146" transform="scale(0.00048828125,-0.00048828125)">
   <path d="M 174,0 L 602,739 174,1481 1456,739 174,0 Z M 1358,739 L 309,1346 659,739 1358,739 Z"/>
  </g>
  <g id="bullet-char-template-10132" transform="scale(0.00048828125,-0.00048828125)">
   <path d="M 2015,739 L 1276,0 717,0 1260,543 174,543 174,936 1260,936 717,1481 1274,1481 2015,739 Z"/>
  </g>
  <g id="bullet-char-template-10007" transform="scale(0.00048828125,-0.00048828125)">
   <path d="M 0,-2 C -7,14 -16,27 -25,37 L 356,567 C 262,823 215,952 215,954 215,979 228,992 255,992 264,992 276,990 289,987 310,991 331,999 354,1012 L 381,999 492,748 772,1049 836,1024 860,1049 C 881,1039 901,1025 922,1006 886,937 835,863 770,784 769,783 710,716 594,584 L 774,223 C 774,196 753,168 711,139 L 727,119 C 717,90 699,76 672,76 641,76 570,178 457,381 L 164,-76 C 142,-110 111,-127 72,-127 30,-127 9,-110 8,-76 1,-67 -2,-52 -2,-32 -2,-23 -1,-13 0,-2 Z"/>
  </g>
  <g id="bullet-char-template-10004" transform="scale(0.00048828125,-0.00048828125)">
   <path d="M 285,-33 C 182,-33 111,30 74,156 52,228 41,333 41,471 41,549 55,616 82,672 116,743 169,778 240,778 293,778 328,747 346,684 L 369,508 C 377,444 397,411 428,410 L 1163,1116 C 1174,1127 1196,1133 1229,1133 1271,1133 1292,1118 1292,1087 L 1292,965 C 1292,929 1282,901 1262,881 L 442,47 C 390,-6 338,-33 285,-33 Z"/>
  </g>
  <g id="bullet-char-template-9679" transform="scale(0.00048828125,-0.00048828125)">
   <path d="M 813,0 C 632,0 489,54 383,161 276,268 223,411 223,592 223,773 276,916 383,1023 489,1130 632,1184 813,1184 992,1184 1136,1130 1245,1023 1353,916 1407,772 1407,592 1407,412 1353,268 1245,161 1136,54 992,0 813,0 Z"/>
  </g>
  <g id="bullet-char-template-8226" transform="scale(0.00048828125,-0.00048828125)">
   <path d="M 346,457 C 273,457 209,483 155,535 101,586 74,649 74,723 74,796 101,859 155,911 209,963 273,989 346,989 419,989 480,963 531,910 582,859 608,796 608,723 608,648 583,586 532,535 482,483 420,457 346,457 Z"/>
  </g>
  <g id="bullet-char-template-8211" transform="scale(0.00048828125,-0.00048828125)">
   <path d="M -4,459 L 1135,459 1135,606 -4,606 -4,459 Z"/>
  </g>
  <g id="bullet-char-template-61548" transform="scale(0.00048828125,-0.00048828125)">
   <path d="M 173,740 C 173,903 231,1043 346,1159 462,1274 601,1332 765,1332 928,1332 1067,1274 1183,1159 1299,1043 1357,903 1357,740 1357,577 1299,437 1183,322 1067,206 928,148 765,148 601,148 462,206 346,322 231,437 173,577 173,740 Z"/>
  </g>
 </defs>
 <g class="Page">
  <g class="Graphic">
   <g id="id3">
    <rect class="BoundingBox" stroke="none" fill="none" x="11750" y="13500" width="2535" height="2535"/>
    <defs>
     <clipPath id="clip_path_1" clipPathUnits="userSpaceOnUse">
      <path d="M 11763,13513 L 14271,13513 14271,16021 11763,16021 11763,13513 Z"/>
     </clipPath>
    </defs>
    <g clip-path="url(#clip_path_1)">
     <path fill="rgb(255,255,255)" stroke="none" d="M 11768,16017 L 14267,16017 14267,13518 11768,13518 11768,16017 11768,16017 Z"/>
     <path fill="none" stroke="rgb(26,28,26)" stroke-width="10" stroke-linejoin="round" stroke-linecap="round" d="M 11768,16017 L 14267,16017 14267,13518 11768,13518 11768,16017 11768,16017 Z"/>
     <path fill="rgb(4,82,159)" stroke="none" d="M 11818,15967 L 14217,15967 14217,13568 11818,13568 11818,15967 11818,15967 Z"/>
     <path fill="rgb(255,255,255)" stroke="none" d="M 12577,15122 L 12643,13867 12293,13867 12362,15122 12124,15068 12122,15068 12121,15068 12119,15068 12117,15068 12115,15068 12114,15068 12112,15069 12110,15069 12109,15070 12107,15071 12106,15071 12105,15072 12103,15073 12102,15074 12101,15076 12099,15077 12098,15079 12097,15080 12096,15082 12095,15084 12094,15086 12094,15088 12094,15090 12093,15092 12093,15094 12093,15096 12094,15098 12094,15100 12095,15102 12096,15104 12097,15106 12098,15107 12439,15625 12440,15627 12442,15628 12443,15630 12445,15632 12446,15633 12448,15634 12450,15636 12452,15637 12454,15638 12456,15639 12458,15639 12460,15640 12462,15641 12464,15641 12466,15641 12468,15641 12471,15641 12473,15641 12475,15641 12478,15640 12480,15640 12482,15639 12484,15638 12486,15637 12488,15636 12490,15635 12492,15633 12494,15632 12495,15630 12497,15629 12498,15627 12500,15625 12839,15106 12840,15104 12841,15102 12842,15101 12843,15099 12843,15097 12843,15095 12843,15093 12843,15091 12843,15089 12843,15087 12843,15086 12842,15084 12842,15082 12841,15080 12840,15079 12839,15077 12838,15076 12836,15074 12835,15073 12834,15071 12832,15070 12831,15069 12829,15069 12827,15068 12826,15067 12824,15067 12822,15066 12820,15066 12818,15066 12817,15066 12815,15066 12813,15066 12577,15122 12577,15122 Z"/>
     <path fill="rgb(255,255,255)" stroke="none" d="M 13676,14412 L 13742,15667 13391,15667 13460,14412 13223,14466 13221,14466 13219,14466 13217,14466 13216,14466 13214,14466 13212,14466 13211,14466 13209,14465 13207,14464 13206,14464 13204,14463 13203,14462 13202,14461 13200,14460 13199,14459 13198,14457 13197,14456 13196,14454 13194,14452 13194,14450 13193,14449 13192,14447 13192,14445 13192,14443 13192,14441 13192,14439 13192,14437 13193,14435 13193,14433 13194,14431 13195,14429 13196,14427 13538,13909 13539,13908 13540,13906 13542,13904 13543,13903 13545,13901 13546,13900 13548,13899 13550,13898 13552,13897 13554,13896 13556,13895 13558,13894 13560,13894 13562,13893 13565,13893 13567,13893 13569,13893 13572,13893 13574,13893 13576,13894 13578,13895 13581,13895 13583,13896 13585,13897 13587,13898 13589,13899 13591,13901 13592,13902 13594,13904 13596,13906 13597,13908 13598,13909 13938,14429 13939,14430 13940,14432 13941,14434 13941,14436 13941,14437 13942,14439 13942,14441 13942,14443 13942,14445 13942,14447 13941,14449 13941,14450 13940,14452 13939,14454 13938,14456 13937,14457 13936,14459 13935,14460 13933,14462 13932,14463 13931,14464 13929,14465 13927,14466 13926,14466 13924,14467 13922,14467 13920,14468 13919,14468 13917,14468 13915,14468 13913,14468 13912,14468 13676,14412 13676,14412 Z"/>
     <path fill="rgb(218,68,53)" stroke="none" d="M 12551,15154 L 12617,13892 12319,13892 12388,15154 12119,15093 12119,15093 12118,15093 12119,15094 12460,15611 12461,15612 12462,15613 12463,15614 12464,15615 12465,15616 12466,15616 12467,15616 12468,15616 12470,15616 12472,15616 12473,15616 12475,15615 12476,15614 12477,15613 12478,15612 12479,15611 12818,15092 12818,15092 12818,15091 12818,15091 12551,15154 12551,15154 Z"/>
    </g>
   </g>
  </g>
  <g class="Graphic">
   <g id="id4">
    <rect class="BoundingBox" stroke="none" fill="none" x="9221" y="13500" width="2531" height="2531"/>
    <defs>
     <clipPath id="clip_path_2" clipPathUnits="userSpaceOnUse">
      <path d="M 9232,13511 L 11740,13511 11740,16019 9232,16019 9232,13511 Z"/>
     </clipPath>
    </defs>
    <g clip-path="url(#clip_path_2)">
     <path fill="rgb(218,68,53)" stroke="none" d="M 10486,13511 L 10551,13513 10614,13518 10677,13525 10739,13537 10800,13550 10859,13568 10918,13587 10975,13610 11030,13635 11084,13662 11137,13693 11188,13725 11237,13760 11284,13798 11329,13837 11374,13879 11415,13922 11454,13968 11492,14015 11527,14065 11559,14115 11589,14168 11617,14222 11642,14277 11665,14334 11685,14392 11701,14452 11715,14513 11727,14575 11734,14637 11739,14701 11741,14765 11739,14830 11734,14893 11727,14956 11715,15018 11701,15079 11685,15138 11665,15197 11642,15254 11617,15309 11589,15363 11559,15416 11527,15467 11492,15516 11454,15563 11415,15608 11374,15653 11329,15694 11284,15733 11237,15771 11188,15806 11137,15838 11084,15868 11030,15896 10975,15921 10918,15944 10859,15964 10800,15980 10739,15994 10677,16006 10614,16013 10551,16018 10486,16020 10422,16018 10358,16013 10296,16006 10234,15994 10173,15980 10113,15964 10055,15944 9998,15921 9943,15896 9889,15868 9836,15838 9786,15806 9736,15771 9689,15733 9643,15694 9600,15653 9558,15608 9519,15563 9481,15516 9446,15467 9414,15416 9383,15363 9356,15309 9331,15254 9308,15197 9289,15138 9271,15079 9258,15018 9246,14956 9239,14893 9234,14830 9232,14765 9234,14701 9239,14637 9246,14575 9258,14513 9271,14452 9289,14392 9308,14334 9331,14277 9356,14222 9383,14168 9414,14115 9446,14065 9481,14015 9519,13968 9558,13922 9600,13879 9643,13837 9689,13798 9736,13760 9786,13725 9836,13693 9889,13662 9943,13635 9998,13610 10055,13587 10113,13568 10173,13550 10234,13537 10296,13525 10358,13518 10422,13513 10486,13511 10486,13511 Z"/>
     <path fill="rgb(255,255,255)" stroke="none" d="M 9364,15016 L 11609,15016 11612,15001 11615,14985 11619,14970 11621,14954 11624,14939 11625,14923 11628,14908 11630,14893 11631,14877 11632,14861 11634,14845 11635,14829 11635,14813 11636,14797 11636,14781 11636,14765 11636,14750 11636,14734 11635,14718 11635,14702 11634,14686 11632,14670 11631,14654 11630,14638 11628,14622 11625,14607 11624,14591 11621,14576 11619,14561 11615,14545 11612,14530 11609,14515 9364,14515 9361,14530 9357,14545 9355,14561 9352,14576 9350,14591 9347,14607 9346,14622 9343,14638 9342,14654 9341,14670 9339,14686 9338,14702 9337,14718 9337,14734 9337,14750 9337,14765 9337,14781 9337,14797 9337,14813 9338,14829 9339,14845 9341,14861 9342,14877 9343,14893 9346,14908 9347,14923 9350,14939 9352,14954 9355,14970 9357,14985 9361,15001 9364,15016 9364,15016 Z"/>
    </g>
   </g>
  </g>
 </g>
</svg>