<?xml version="1.0" encoding="UTF-8"?>
<!DOCTYPE svg PUBLIC "-//W3C//DTD SVG 1.1//EN" "http://www.w3.org/Graphics/SVG/1.1/DTD/svg11.dtd">
<svg version="1.2" width="48.9mm" height="60.29mm" viewBox="2460 1978 4890 6029" preserveAspectRatio="xMidYMid" fill-rule="evenodd" stroke-width="28.222" stroke-linejoin="round" xmlns="http://www.w3.org/2000/svg" xmlns:ooo="http://xml.openoffice.org/svg/export" xmlns:xlink="http://www.w3.org/1999/xlink" xmlns:presentation="http://sun.com/xmlns/staroffice/presentation" xmlns:smil="http://www.w3.org/2001/SMIL20/" xmlns:anim="urn:oasis:names:tc:opendocument:xmlns:animation:1.0" xml:space="preserve">
 <defs class="ClipPathGroup">
  <clipPath id="presentation_clip_path" clipPathUnits="userSpaceOnUse">
   <rect x="2460" y="1978" width="4890" height="6029"/>
  </clipPath>
  <clipPath id="presentation_clip_path_shrink" clipPathUnits="userSpaceOnUse">
   <rect x="2464" y="1984" width="4881" height="6017"/>
  </clipPath>
 </defs>
 <defs class="TextShapeIndex">
  <g ooo:slide="id1" ooo:id-list="id3 id4"/>
 </defs>
 <defs class="EmbeddedBulletChars">
  <g id="bullet-char-template-57356" transform="scale(0.00048828125,-0.00048828125)">
   <path d="M 580,1141 L 1163,571 580,0 -4,571 580,1141 Z"/>
  </g>
  <g id="bullet-char-template-57354" transform="scale(0.00048828125,-0.00048828125)">
   <path d="M 8,1128 L 1137,1128 1137,0 8,0 8,1128 Z"/>
  </g>
  <g id="bullet-char-template-10146" transform="scale(0.00048828125,-0.00048828125)">
   <path d="M 174,0 L 602,739 174,1481 1456,739 174,0 Z M 1358,739 L 309,1346 659,739 1358,739 Z"/>
  </g>
  <g id="bullet-char-template-10132" transform="scale(0.00048828125,-0.00048828125)">
   <path d="M 2015,739 L 1276,0 717,0 1260,543 174,543 174,936 1260,936 717,1481 1274,1481 2015,739 Z"/>
  </g>
  <g id="bullet-char-template-10007" transform="scale(0.00048828125,-0.00048828125)">
   <path d="M 0,-2 C -7,14 -16,27 -25,37 L 356,567 C 262,823 215,952 215,954 215,979 228,992 255,992 264,992 276,990 289,987 310,991 331,999 354,1012 L 381,999 492,748 772,1049 836,1024 860,1049 C 881,1039 901,1025 922,1006 886,937 835,863 770,784 769,783 710,716 594,584 L 774,223 C 774,196 753,168 711,139 L 727,119 C 717,90 699,76 672,76 641,76 570,178 457,381 L 164,-76 C 142,-110 111,-127 72,-127 30,-127 9,-110 8,-76 1,-67 -2,-52 -2,-32 -2,-23 -1,-13 0,-2 Z"/>
  </g>
  <g id="bullet-char-template-10004" transform="scale(0.00048828125,-0.00048828125)">
   <path d="M 285,-33 C 182,-33 111,30 74,156 52,228 41,333 41,471 41,549 55,616 82,672 116,743 169,778 240,778 293,778 328,747 346,684 L 369,508 C 377,444 397,411 428,410 L 1163,1116 C 1174,1127 1196,1133 1229,1133 1271,1133 1292,1118 1292,1087 L 1292,965 C 1292,929 1282,901 1262,881 L 442,47 C 390,-6 338,-33 285,-33 Z"/>
  </g>
  <g id="bullet-char-template-9679" transform="scale(0.00048828125,-0.00048828125)">
   <path d="M 813,0 C 632,0 489,54 383,161 276,268 223,411 223,592 223,773 276,916 383,1023 489,1130 632,1184 813,1184 992,1184 1136,1130 1245,1023 1353,916 1407,772 1407,592 1407,412 1353,268 1245,161 1136,54 992,0 813,0 Z"/>
  </g>
  <g id="bullet-char-template-8226" transform="scale(0.00048828125,-0.00048828125)">
   <path d="M 346,457 C 273,457 209,483 155,535 101,586 74,649 74,723 74,796 101,859 155,911 209,963 273,989 346,989 419,989 480,963 531,910 582,859 608,796 608,723 608,648 583,586 532,535 482,483 420,457 346,457 Z"/>
  </g>
  <g id="bullet-char-template-8211" transform="scale(0.00048828125,-0.00048828125)">
   <path d="M -4,459 L 1135,459 1135,606 -4,606 -4,459 Z"/>
  </g>
  <g id="bullet-char-template-61548" transform="scale(0.00048828125,-0.00048828125)">
   <path d="M 173,740 C 173,903 231,1043 346,1159 462,1274 601,1332 765,1332 928,1332 1067,1274 1183,1159 1299,1043 1357,903 1357,740 1357,577 1299,437 1183,322 1067,206 928,148 765,148 601,148 462,206 346,322 231,437 173,577 173,740 Z"/>
  </g>
 </defs>
 <defs class="TextEmbeddedBitmaps"/>
 <g class="SlideGroup">
  <g>
   <g id="container-id1">
    <g id="id1" class="Slide" clip-path="url(#presentation_clip_path)">
     <g class="Page">
      <g class="com.sun.star.drawing.CustomShape">
       <g id="id3">
        <rect class="BoundingBox" stroke="none" fill="none" x="2459" y="1977" width="4892" height="6031"/>
        <path fill="rgb(245,130,32)" stroke="none" d="M 4905,7980 L 2486,7980 2486,2004 7323,2004 7323,7980 4905,7980 Z"/>
        <path fill="none" stroke="rgb(0,0,0)" stroke-width="53" stroke-linejoin="round" d="M 4905,7980 L 2486,7980 2486,2004 7323,2004 7323,7980 4905,7980 Z"/>
       </g>
      </g>
      <g class="Graphic">
       <g id="id4">
        <rect class="BoundingBox" stroke="none" fill="none" x="3453" y="2341" width="3119" height="2738"/>
        <defs>
         <clipPath id="clip_path_1" clipPathUnits="userSpaceOnUse">
          <path d="M 3463,2351 L 6561,2351 6561,5068 3463,5068 3463,2351 Z"/>
         </clipPath>
        </defs>
        <g clip-path="url(#clip_path_1)">
         <path fill="rgb(218,68,53)" stroke="none" d="M 3591,5069 L 6434,5069 6443,5068 6452,5068 6461,5066 6469,5065 6477,5062 6485,5059 6493,5055 6500,5051 6507,5046 6513,5042 6520,5036 6526,5031 6531,5025 6536,5019 6541,5012 6545,5005 6548,4998 6552,4991 6555,4984 6557,4976 6559,4968 6561,4959 6561,4951 6562,4943 6562,4935 6561,4927 6560,4919 6558,4910 6555,4902 6553,4894 6549,4886 6545,4877 5123,2415 5118,2407 5113,2400 5107,2393 5102,2386 5095,2381 5088,2376 5082,2371 5074,2367 5067,2363 5060,2359 5052,2357 5045,2355 5036,2353 5028,2351 5020,2351 5012,2351 5004,2351 4996,2351 4988,2353 4980,2355 4973,2357 4965,2359 4958,2363 4950,2367 4943,2371 4936,2376 4930,2381 4923,2386 4917,2393 4912,2400 4906,2407 4902,2415 3480,4877 3476,4886 3472,4894 3469,4902 3466,4910 3465,4919 3463,4927 3463,4935 3463,4943 3463,4951 3464,4959 3466,4968 3468,4976 3470,4984 3473,4991 3477,4998 3480,5005 3484,5012 3489,5019 3494,5025 3499,5031 3505,5036 3512,5042 3518,5046 3525,5051 3532,5055 3540,5059 3547,5062 3555,5065 3564,5066 3573,5068 3582,5068 3591,5069 3591,5069 Z"/>
         <path fill="rgb(255,255,255)" stroke="none" d="M 3812,4813 L 6213,4813 5012,2734 3812,4813 3812,4813 Z"/>
         <path fill="rgb(26,28,26)" stroke="none" d="M 5158,3419 L 5085,4249 5085,4253 5083,4257 5082,4260 5080,4263 5078,4267 5076,4270 5074,4273 5071,4276 5069,4279 5066,4282 5063,4285 5060,4287 5056,4290 5053,4292 5050,4294 5047,4296 5042,4298 5037,4299 5032,4301 5026,4301 5021,4302 5016,4302 5010,4302 5005,4301 4999,4301 4994,4299 4992,4299 4989,4298 4987,4297 4985,4296 4982,4295 4979,4294 4977,4292 4975,4291 4973,4290 4971,4288 4969,4287 4967,4284 4965,4281 4962,4277 4960,4273 4958,4270 4955,4266 4954,4262 4952,4258 4951,4254 4950,4249 4948,4246 4947,4241 4947,4237 4945,4228 4944,4219 4943,4210 4942,4200 4941,4192 4941,4182 4941,4173 4940,4163 4939,4154 4938,4145 4866,3410 4867,3405 4867,3400 4868,3395 4869,3390 4871,3385 4872,3381 4874,3376 4875,3371 4877,3367 4879,3362 4882,3357 4884,3353 4887,3349 4889,3344 4892,3341 4895,3336 4898,3333 4901,3328 4905,3324 4909,3321 4912,3318 4916,3314 4920,3311 4924,3308 4928,3305 4932,3303 4936,3300 4941,3297 4945,3295 4950,3293 4955,3291 4960,3289 4969,3287 4977,3284 4987,3281 4996,3280 5004,3279 5014,3279 5023,3279 5032,3280 5040,3281 5049,3284 5058,3286 5066,3289 5074,3292 5082,3295 5090,3300 5097,3304 5104,3309 5111,3314 5118,3320 5123,3326 5129,3332 5134,3339 5139,3346 5143,3353 5148,3360 5150,3368 5153,3376 5156,3384 5157,3393 5158,3402 5158,3411 5158,3419 5158,3419 Z"/>
         <path fill="rgb(26,28,26)" stroke="none" d="M 5012,4375 L 5020,4376 5027,4376 5034,4376 5042,4378 5049,4379 5055,4382 5063,4384 5069,4387 5076,4390 5082,4393 5088,4396 5094,4400 5100,4404 5105,4409 5110,4413 5115,4418 5121,4423 5125,4428 5129,4434 5134,4439 5137,4446 5141,4452 5144,4458 5147,4464 5150,4471 5152,4478 5154,4485 5156,4492 5157,4499 5158,4507 5158,4514 5158,4521 5158,4528 5158,4536 5157,4544 5156,4550 5154,4558 5152,4565 5150,4572 5147,4578 5144,4585 5141,4591 5137,4597 5134,4603 5129,4609 5125,4614 5121,4619 5115,4625 5110,4629 5105,4634 5100,4638 5094,4642 5088,4646 5082,4650 5076,4653 5069,4656 5063,4658 5055,4661 5049,4663 5042,4664 5034,4666 5027,4667 5020,4667 5012,4667 5005,4667 4998,4667 4990,4666 4983,4664 4976,4663 4969,4661 4962,4658 4955,4656 4949,4653 4943,4650 4936,4646 4931,4642 4925,4638 4920,4634 4914,4629 4909,4625 4904,4619 4900,4614 4895,4609 4891,4603 4887,4597 4884,4591 4881,4585 4878,4578 4875,4572 4873,4565 4871,4558 4869,4550 4868,4544 4867,4536 4866,4528 4866,4521 4866,4514 4867,4507 4868,4499 4869,4492 4871,4485 4873,4478 4875,4471 4878,4464 4881,4458 4884,4452 4887,4446 4891,4439 4895,4434 4900,4428 4904,4423 4909,4418 4914,4413 4920,4409 4925,4404 4931,4400 4936,4396 4943,4393 4949,4390 4955,4387 4962,4384 4969,4382 4976,4379 4983,4378 4990,4376 4998,4376 5005,4376 5012,4375 5012,4375 Z"/>
        </g>
       </g>
      </g>
     </g>
    </g>
   </g>
  </g>
 </g>
</svg>