<?xml version="1.0" encoding="UTF-8"?>
<!DOCTYPE svg PUBLIC "-//W3C//DTD SVG 1.1//EN" "http://www.w3.org/Graphics/SVG/1.1/DTD/svg11.dtd">
<svg version="1.2" width="27.98mm" height="19.98mm" viewBox="9196 13909 2798 1998" preserveAspectRatio="xMidYMid" fill-rule="evenodd" stroke-width="28.222" stroke-linejoin="round" xmlns="http://www.w3.org/2000/svg" xmlns:ooo="http://xml.openoffice.org/svg/export" xmlns:xlink="http://www.w3.org/1999/xlink" xmlns:presentation="http://sun.com/xmlns/staroffice/presentation" xmlns:smil="http://www.w3.org/2001/SMIL20/" xmlns:anim="urn:oasis:names:tc:opendocument:xmlns:animation:1.0" xml:space="preserve">
 <defs class="ClipPathGroup">
  <clipPath id="presentation_clip_path" clipPathUnits="userSpaceOnUse">
   <rect x="9196" y="13909" width="2798" height="1998"/>
  </clipPath>
  <clipPath id="presentation_clip_path_shrink" clipPathUnits="userSpaceOnUse">
   <rect x="9198" y="13910" width="2793" height="1995"/>
  </clipPath>
 </defs>
 <defs class="TextShapeIndex">
  <g ooo:slide="id1" ooo:id-list="id3"/>
 </defs>
 <defs class="EmbeddedBulletChars">
  <g id="bullet-char-template-57356" transform="scale(0.00048828125,-0.00048828125)">
   <path d="M 580,1141 L 1163,571 580,0 -4,571 580,1141 Z"/>
  </g>
  <g id="bullet-char-template-57354" transform="scale(0.00048828125,-0.00048828125)">
   <path d="M 8,1128 L 1137,1128 1137,0 8,0 8,1128 Z"/>
  </g>
  <g id="bullet-char-template-10146" transform="scale(0.00048828125,-0.00048828125)">
   <path d="M 174,0 L 602,739 174,1481 1456,739 174,0 Z M 1358,739 L 309,1346 659,739 1358,739 Z"/>
  </g>
  <g id="bullet-char-template-10132" transform="scale(0.00048828125,-0.00048828125)">
   <path d="M 2015,739 L 1276,0 717,0 1260,543 174,543 174,936 1260,936 717,1481 1274,1481 2015,739 Z"/>
  </g>
  <g id="bullet-char-template-10007" transform="scale(0.00048828125,-0.00048828125)">
   <path d="M 0,-2 C -7,14 -16,27 -25,37 L 356,567 C 262,823 215,952 215,954 215,979 228,992 255,992 264,992 276,990 289,987 310,991 331,999 354,1012 L 381,999 492,748 772,1049 836,1024 860,1049 C 881,1039 901,1025 922,1006 886,937 835,863 770,784 769,783 710,716 594,584 L 774,223 C 774,196 753,168 711,139 L 727,119 C 717,90 699,76 672,76 641,76 570,178 457,381 L 164,-76 C 142,-110 111,-127 72,-127 30,-127 9,-110 8,-76 1,-67 -2,-52 -2,-32 -2,-23 -1,-13 0,-2 Z"/>
  </g>
  <g id="bullet-char-template-10004" transform="scale(0.00048828125,-0.00048828125)">
   <path d="M 285,-33 C 182,-33 111,30 74,156 52,228 41,333 41,471 41,549 55,616 82,672 116,743 169,778 240,778 293,778 328,747 346,684 L 369,508 C 377,444 397,411 428,410 L 1163,1116 C 1174,1127 1196,1133 1229,1133 1271,1133 1292,1118 1292,1087 L 1292,965 C 1292,929 1282,901 1262,881 L 442,47 C 390,-6 338,-33 285,-33 Z"/>
  </g>
  <g id="bullet-char-template-9679" transform="scale(0.00048828125,-0.00048828125)">
   <path d="M 813,0 C 632,0 489,54 383,161 276,268 223,411 223,592 223,773 276,916 383,1023 489,1130 632,1184 813,1184 992,1184 1136,1130 1245,1023 1353,916 1407,772 1407,592 1407,412 1353,268 1245,161 1136,54 992,0 813,0 Z"/>
  </g>
  <g id="bullet-char-template-8226" transform="scale(0.00048828125,-0.00048828125)">
   <path d="M 346,457 C 273,457 209,483 155,535 101,586 74,649 74,723 74,796 101,859 155,911 209,963 273,989 346,989 419,989 480,963 531,910 582,859 608,796 608,723 608,648 583,586 532,535 482,483 420,457 346,457 Z"/>
  </g>
  <g id="bullet-char-template-8211" transform="scale(0.00048828125,-0.00048828125)">
   <path d="M -4,459 L 1135,459 1135,606 -4,606 -4,459 Z"/>
  </g>
  <g id="bullet-char-template-61548" transform="scale(0.00048828125,-0.00048828125)">
   <path d="M 173,740 C 173,903 231,1043 346,1159 462,1274 601,1332 765,1332 928,1332 1067,1274 1183,1159 1299,1043 1357,903 1357,740 1357,577 1299,437 1183,322 1067,206 928,148 765,148 601,148 462,206 346,322 231,437 173,577 173,740 Z"/>
  </g>
 </defs>
 <defs class="TextEmbeddedBitmaps"/>
 <g class="SlideGroup">
  <g>
   <g id="container-id1">
    <g id="id1" class="Slide" clip-path="url(#presentation_clip_path)">
     <g class="Page">
      <g class="Graphic">
       <g id="id3">
        <rect class="BoundingBox" stroke="none" fill="none" x="9196" y="13909" width="2799" height="1999"/>
        <path fill="rgb(47,70,76)" stroke="none" d="M 11765,15215 L 9872,15215 9351,15504 9872,15793 11765,15793 11765,15215 Z"/>
        <path fill="rgb(224,135,57)" stroke="none" d="M 11729,15249 L 9881,15249 9612,15504 9881,15759 11729,15759 11729,15249 Z"/>
        <path fill="rgb(215,67,51)" stroke="none" d="M 10724,13909 L 10754,13918 10786,13928 10816,13939 10846,13953 10875,13967 10903,13983 10931,14000 10957,14019 10983,14039 11008,14059 11031,14081 11053,14103 11074,14128 11095,14152 11114,14179 11131,14205 11148,14233 11162,14261 11176,14291 11188,14321 11199,14352 11208,14383 11215,14415 11221,14447 11226,14480 11229,14514 11229,14548 11229,14582 11226,14616 11221,14649 11215,14681 11208,14713 11199,14744 11188,14776 11176,14806 11162,14834 11148,14863 11131,14891 11114,14917 11095,14944 11074,14969 11053,14993 11031,15016 11008,15038 10983,15058 10957,15078 10931,15096 10903,15114 10875,15129 10846,15145 10816,15158 10786,15170 10754,15180 10722,15189 10689,15197 10656,15202 10622,15206 10588,15209 10553,15210 10519,15209 10484,15206 10450,15202 10418,15197 10385,15189 10353,15180 10321,15170 10291,15158 10261,15145 10231,15129 10203,15114 10175,15096 10149,15078 10124,15058 10099,15038 10076,15016 10054,14993 10032,14969 10012,14944 9993,14917 9975,14891 9959,14863 9944,14834 9931,14806 9918,14776 9908,14744 9899,14713 9891,14681 9885,14649 9881,14616 9879,14582 9878,14548 9879,14514 9881,14480 9885,14447 9891,14415 9899,14383 9908,14352 9918,14321 9931,14291 9944,14261 9959,14233 9975,14205 9993,14179 10012,14152 10032,14128 10054,14103 10076,14081 10099,14059 10124,14039 10149,14019 10175,14000 10203,13983 10231,13967 10261,13953 10291,13939 10321,13928 10353,13918 10383,13909 10724,13909 Z"/>
        <path fill="rgb(255,255,255)" stroke="none" d="M 10553,14107 L 10559,14107 10564,14108 10570,14108 10576,14108 10582,14108 10587,14108 10592,14109 10598,14110 10604,14110 10610,14111 10615,14111 10620,14112 10626,14112 10632,14113 10637,14114 10643,14116 10648,14117 10653,14118 10659,14119 10665,14121 10670,14122 10675,14124 10680,14125 10686,14127 10691,14128 10697,14130 10701,14131 10707,14133 10712,14135 10718,14137 10723,14140 10729,14142 10733,14144 10738,14146 10743,14148 10748,14150 10753,14153 10757,14155 10762,14158 10767,14160 10772,14163 10777,14165 10782,14168 10786,14170 10790,14174 10795,14176 10800,14179 10804,14182 10809,14185 10814,14188 10817,14191 10822,14194 10826,14198 10831,14200 10835,14204 10840,14207 10843,14211 10847,14215 10852,14217 10856,14221 10860,14225 10864,14229 10868,14233 10871,14236 10875,14240 10879,14244 10883,14248 10887,14251 10891,14256 10894,14260 10898,14264 10901,14268 10904,14272 10908,14276 10911,14281 10915,14285 10918,14289 10921,14293 10924,14298 10926,14303 10930,14306 10933,14311 10936,14316 10939,14320 10941,14324 10944,14329 10947,14334 10950,14339 10952,14343 10954,14348 10956,14353 10959,14357 10961,14362 10964,14367 10966,14372 10968,14376 10970,14382 10973,14387 10975,14392 10977,14397 10979,14403 10981,14408 10983,14413 10983,14418 10985,14424 10987,14428 10988,14434 10989,14440 10991,14444 10992,14450 10994,14455 10995,14461 10996,14466 10997,14471 10998,14477 10999,14482 10999,14488 11000,14493 11001,14498 11002,14504 11002,14510 11003,14515 11003,14521 11003,14526 11004,14531 11004,14537 11004,14542 11004,14548 11004,14553 11004,14559 11004,14565 11003,14570 11003,14575 11003,14581 11002,14586 11002,14592 11001,14598 11000,14603 10999,14608 10999,14614 10998,14619 10997,14625 10996,14630 10995,14636 10994,14641 10992,14646 10991,14652 10989,14657 10988,14662 10987,14668 10985,14672 10983,14678 10983,14683 10981,14689 10979,14693 10977,14699 10975,14704 10973,14709 10970,14714 10968,14720 10966,14724 10964,14729 10961,14734 10959,14739 10956,14743 10954,14748 10952,14753 10950,14758 10947,14762 10944,14767 10941,14772 10939,14777 10936,14781 10933,14785 10930,14790 10926,14794 10924,14798 10921,14803 10918,14807 10915,14812 10911,14815 10908,14820 10904,14824 10901,14828 10898,14832 10894,14836 10891,14840 10887,14844 10883,14848 10879,14852 10875,14856 10871,14860 10868,14864 10864,14867 10860,14871 10856,14875 10852,14878 10847,14882 10843,14885 10840,14888 10835,14892 10831,14896 10826,14899 10822,14901 10817,14905 10814,14908 10809,14911 10804,14914 10800,14917 10795,14920 10790,14922 10786,14925 10782,14928 10777,14931 10772,14934 10767,14935 10762,14938 10757,14941 10753,14943 10748,14946 10743,14948 10738,14950 10733,14952 10729,14954 10723,14956 10718,14958 10712,14961 10707,14963 10701,14965 10697,14967 10691,14968 10686,14970 10680,14971 10675,14972 10670,14974 10665,14975 10659,14977 10653,14978 10648,14979 10643,14981 10637,14982 10632,14982 10626,14983 10620,14985 10615,14985 10610,14986 10604,14987 10598,14987 10592,14987 10587,14987 10582,14988 10576,14988 10570,14988 10564,14989 10559,14989 10553,14989 10547,14989 10542,14989 10536,14988 10531,14988 10526,14988 10520,14987 10514,14987 10508,14987 10503,14987 10497,14986 10492,14985 10486,14985 10480,14983 10475,14982 10470,14982 10464,14981 10458,14979 10453,14978 10448,14977 10443,14975 10437,14974 10431,14972 10426,14971 10420,14970 10416,14968 10410,14967 10405,14965 10399,14963 10394,14961 10389,14958 10384,14956 10379,14954 10373,14952 10368,14950 10364,14948 10359,14946 10354,14943 10349,14941 10344,14938 10339,14935 10335,14934 10330,14931 10325,14928 10320,14925 10315,14922 10311,14920 10307,14917 10302,14914 10298,14911 10293,14908 10289,14905 10284,14901 10280,14899 10276,14896 10272,14892 10267,14888 10263,14885 10259,14882 10255,14878 10251,14875 10247,14871 10243,14867 10239,14864 10235,14860 10231,14856 10227,14852 10223,14848 10220,14844 10216,14840 10213,14836 10209,14832 10205,14828 10202,14824 10198,14820 10195,14815 10193,14812 10189,14807 10186,14803 10183,14798 10179,14794 10176,14790 10174,14785 10170,14781 10168,14777 10165,14772 10163,14767 10160,14762 10157,14758 10155,14753 10152,14748 10149,14743 10147,14739 10144,14734 10142,14729 10140,14724 10138,14720 10136,14714 10134,14709 10132,14704 10130,14699 10128,14693 10126,14689 10125,14683 10123,14678 10121,14672 10120,14668 10118,14662 10116,14657 10115,14652 10114,14646 10112,14641 10111,14636 10110,14630 10110,14625 10109,14619 10108,14614 10107,14608 10107,14603 10106,14598 10106,14592 10105,14586 10105,14581 10104,14575 10104,14570 10104,14565 10103,14559 10103,14553 10103,14548 10103,14542 10103,14537 10104,14531 10104,14526 10104,14521 10105,14515 10105,14510 10106,14504 10106,14498 10107,14493 10107,14488 10108,14482 10109,14477 10110,14471 10110,14466 10111,14461 10112,14455 10114,14450 10115,14444 10116,14440 10118,14434 10120,14428 10121,14424 10123,14418 10125,14413 10126,14408 10128,14403 10130,14397 10132,14392 10134,14387 10136,14382 10138,14376 10140,14372 10142,14367 10144,14362 10147,14357 10149,14353 10152,14348 10155,14343 10157,14339 10160,14334 10163,14329 10165,14324 10168,14320 10170,14316 10174,14311 10176,14306 10179,14303 10183,14298 10186,14293 10189,14289 10193,14285 10195,14281 10198,14276 10202,14272 10205,14268 10209,14264 10213,14260 10216,14256 10220,14251 10223,14248 10227,14244 10231,14240 10235,14236 10239,14233 10243,14229 10247,14225 10251,14221 10255,14217 10259,14215 10263,14211 10267,14207 10272,14204 10276,14200 10280,14198 10284,14194 10289,14191 10293,14188 10298,14185 10302,14182 10307,14179 10311,14176 10315,14174 10320,14170 10325,14168 10330,14165 10335,14163 10339,14160 10344,14158 10349,14155 10354,14153 10359,14150 10364,14148 10368,14146 10373,14144 10379,14142 10384,14140 10389,14137 10394,14135 10399,14133 10405,14131 10410,14130 10416,14128 10420,14127 10426,14125 10431,14124 10437,14122 10443,14121 10448,14119 10453,14118 10458,14117 10464,14116 10470,14114 10475,14113 10480,14112 10486,14112 10492,14111 10497,14111 10503,14110 10508,14110 10514,14109 10520,14108 10526,14108 10531,14108 10536,14108 10542,14108 10547,14107 10553,14107 Z"/>
       </g>
      </g>
     </g>
    </g>
   </g>
  </g>
 </g>
</svg>