<?xml version="1.0" encoding="UTF-8"?>
<!DOCTYPE svg PUBLIC "-//W3C//DTD SVG 1.1//EN" "http://www.w3.org/Graphics/SVG/1.1/DTD/svg11.dtd">
<svg version="1.2" width="29.99mm" height="29.99mm" viewBox="9095 13408 2999 2999" preserveAspectRatio="xMidYMid" fill-rule="evenodd" stroke-width="28.222" stroke-linejoin="round" xmlns="http://www.w3.org/2000/svg" xmlns:ooo="http://xml.openoffice.org/svg/export" xmlns:xlink="http://www.w3.org/1999/xlink" xmlns:presentation="http://sun.com/xmlns/staroffice/presentation" xmlns:smil="http://www.w3.org/2001/SMIL20/" xmlns:anim="urn:oasis:names:tc:opendocument:xmlns:animation:1.0" xml:space="preserve">
 <defs class="ClipPathGroup">
  <clipPath id="presentation_clip_path" clipPathUnits="userSpaceOnUse">
   <rect x="9095" y="13408" width="2999" height="2999"/>
  </clipPath>
  <clipPath id="presentation_clip_path_shrink" clipPathUnits="userSpaceOnUse">
   <rect x="9097" y="13410" width="2994" height="2994"/>
  </clipPath>
 </defs>
 <defs class="TextShapeIndex">
  <g ooo:slide="id1" ooo:id-list="id3"/>
 </defs>
 <defs class="EmbeddedBulletChars">
  <g id="bullet-char-template-57356" transform="scale(0.00048828125,-0.00048828125)">
   <path d="M 580,1141 L 1163,571 580,0 -4,571 580,1141 Z"/>
  </g>
  <g id="bullet-char-template-57354" transform="scale(0.00048828125,-0.00048828125)">
   <path d="M 8,1128 L 1137,1128 1137,0 8,0 8,1128 Z"/>
  </g>
  <g id="bullet-char-template-10146" transform="scale(0.00048828125,-0.00048828125)">
   <path d="M 174,0 L 602,739 174,1481 1456,739 174,0 Z M 1358,739 L 309,1346 659,739 1358,739 Z"/>
  </g>
  <g id="bullet-char-template-10132" transform="scale(0.00048828125,-0.00048828125)">
   <path d="M 2015,739 L 1276,0 717,0 1260,543 174,543 174,936 1260,936 717,1481 1274,1481 2015,739 Z"/>
  </g>
  <g id="bullet-char-template-10007" transform="scale(0.00048828125,-0.00048828125)">
   <path d="M 0,-2 C -7,14 -16,27 -25,37 L 356,567 C 262,823 215,952 215,954 215,979 228,992 255,992 264,992 276,990 289,987 310,991 331,999 354,1012 L 381,999 492,748 772,1049 836,1024 860,1049 C 881,1039 901,1025 922,1006 886,937 835,863 770,784 769,783 710,716 594,584 L 774,223 C 774,196 753,168 711,139 L 727,119 C 717,90 699,76 672,76 641,76 570,178 457,381 L 164,-76 C 142,-110 111,-127 72,-127 30,-127 9,-110 8,-76 1,-67 -2,-52 -2,-32 -2,-23 -1,-13 0,-2 Z"/>
  </g>
  <g id="bullet-char-template-10004" transform="scale(0.00048828125,-0.00048828125)">
   <path d="M 285,-33 C 182,-33 111,30 74,156 52,228 41,333 41,471 41,549 55,616 82,672 116,743 169,778 240,778 293,778 328,747 346,684 L 369,508 C 377,444 397,411 428,410 L 1163,1116 C 1174,1127 1196,1133 1229,1133 1271,1133 1292,1118 1292,1087 L 1292,965 C 1292,929 1282,901 1262,881 L 442,47 C 390,-6 338,-33 285,-33 Z"/>
  </g>
  <g id="bullet-char-template-9679" transform="scale(0.00048828125,-0.00048828125)">
   <path d="M 813,0 C 632,0 489,54 383,161 276,268 223,411 223,592 223,773 276,916 383,1023 489,1130 632,1184 813,1184 992,1184 1136,1130 1245,1023 1353,916 1407,772 1407,592 1407,412 1353,268 1245,161 1136,54 992,0 813,0 Z"/>
  </g>
  <g id="bullet-char-template-8226" transform="scale(0.00048828125,-0.00048828125)">
   <path d="M 346,457 C 273,457 209,483 155,535 101,586 74,649 74,723 74,796 101,859 155,911 209,963 273,989 346,989 419,989 480,963 531,910 582,859 608,796 608,723 608,648 583,586 532,535 482,483 420,457 346,457 Z"/>
  </g>
  <g id="bullet-char-template-8211" transform="scale(0.00048828125,-0.00048828125)">
   <path d="M -4,459 L 1135,459 1135,606 -4,606 -4,459 Z"/>
  </g>
  <g id="bullet-char-template-61548" transform="scale(0.00048828125,-0.00048828125)">
   <path d="M 173,740 C 173,903 231,1043 346,1159 462,1274 601,1332 765,1332 928,1332 1067,1274 1183,1159 1299,1043 1357,903 1357,740 1357,577 1299,437 1183,322 1067,206 928,148 765,148 601,148 462,206 346,322 231,437 173,577 173,740 Z"/>
  </g>
 </defs>
 <defs class="TextEmbeddedBitmaps"/>
 <g class="SlideGroup">
  <g>
   <g id="container-id1">
    <g id="id1" class="Slide" clip-path="url(#presentation_clip_path)">
     <g class="Page">
      <g class="Graphic">
       <g id="id3">
        <rect class="BoundingBox" stroke="none" fill="none" x="9095" y="13408" width="3000" height="3000"/>
        <path fill="rgb(218,68,53)" stroke="none" d="M 10595,13408 L 10672,13410 10748,13416 10823,13425 10897,13439 10970,13455 11041,13476 11111,13499 11179,13526 11245,13556 11310,13589 11373,13625 11434,13664 11492,13706 11549,13751 11604,13798 11656,13847 11705,13899 11752,13954 11797,14011 11839,14069 11878,14130 11914,14193 11947,14258 11977,14324 12004,14392 12028,14462 12048,14533 12064,14606 12078,14680 12087,14755 12093,14831 12095,14908 12093,14985 12087,15061 12078,15136 12064,15210 12048,15283 12028,15354 12004,15424 11977,15492 11947,15558 11914,15623 11878,15686 11839,15747 11797,15806 11752,15862 11705,15917 11656,15969 11604,16018 11549,16065 11492,16110 11434,16152 11373,16191 11310,16227 11245,16260 11179,16290 11111,16317 11041,16341 10970,16361 10897,16377 10823,16391 10748,16400 10672,16406 10595,16408 10518,16406 10442,16400 10367,16391 10293,16377 10220,16361 10149,16341 10079,16317 10011,16290 9945,16260 9880,16227 9817,16191 9756,16152 9697,16110 9641,16065 9586,16018 9534,15969 9485,15917 9438,15862 9393,15806 9351,15747 9312,15686 9276,15623 9243,15558 9213,15492 9186,15424 9163,15354 9142,15283 9126,15210 9112,15136 9103,15061 9097,14985 9095,14908 9097,14831 9103,14755 9112,14680 9126,14606 9142,14533 9163,14462 9186,14392 9213,14324 9243,14258 9276,14193 9312,14130 9351,14069 9393,14011 9438,13954 9485,13899 9534,13847 9586,13798 9641,13751 9697,13706 9756,13664 9817,13625 9880,13589 9945,13556 10011,13526 10079,13499 10149,13476 10220,13455 10293,13439 10367,13425 10442,13416 10518,13410 10595,13408 Z"/>
        <path fill="rgb(255,255,255)" stroke="none" d="M 10595,13908 L 10608,13908 10620,13908 10633,13909 10646,13909 10658,13910 10671,13911 10683,13912 10696,13913 10708,13914 10720,13916 10733,13917 10745,13919 10758,13921 10770,13923 10782,13925 10794,13928 10806,13930 10818,13933 10831,13936 10843,13939 10855,13942 10867,13945 10878,13949 10890,13952 10902,13956 10914,13960 10926,13964 10937,13968 10949,13972 10961,13977 10972,13982 10984,13986 10995,13991 11006,13996 11017,14001 11028,14006 11039,14012 11050,14017 11061,14023 11071,14028 11082,14034 11092,14040 11103,14046 11113,14052 11123,14058 11133,14065 11143,14071 11153,14078 11163,14085 11173,14092 11183,14099 11192,14106 11202,14113 11212,14120 11221,14128 11230,14136 11239,14143 11249,14151 11258,14159 11267,14167 11276,14175 11285,14184 11293,14192 11302,14201 11311,14210 11319,14218 11328,14227 11336,14236 11344,14245 11352,14254 11360,14264 11368,14273 11375,14282 11383,14292 11390,14301 11397,14311 11404,14320 11411,14330 11418,14340 11425,14350 11432,14360 11438,14370 11445,14380 11451,14390 11457,14400 11463,14411 11469,14421 11475,14432 11480,14442 11486,14453 11491,14464 11497,14475 11502,14486 11507,14497 11512,14508 11517,14519 11521,14531 11526,14542 11531,14554 11535,14565 11539,14577 11543,14589 11547,14601 11551,14613 11554,14625 11558,14637 11561,14649 11564,14661 11567,14673 11570,14685 11573,14697 11575,14709 11578,14721 11580,14733 11582,14745 11584,14758 11586,14770 11587,14782 11589,14795 11590,14807 11591,14820 11592,14832 11593,14845 11594,14857 11594,14870 11595,14883 11595,14895 11595,14908 11595,14921 11595,14933 11594,14946 11594,14959 11593,14971 11592,14984 11591,14996 11590,15009 11589,15021 11587,15034 11586,15046 11584,15058 11582,15071 11580,15083 11578,15095 11575,15107 11573,15119 11570,15132 11567,15144 11564,15156 11561,15168 11558,15180 11554,15192 11551,15203 11547,15215 11543,15227 11539,15239 11535,15251 11531,15262 11526,15274 11521,15285 11517,15297 11512,15308 11507,15319 11502,15330 11497,15341 11491,15352 11486,15363 11480,15374 11475,15384 11469,15395 11463,15405 11457,15416 11451,15426 11445,15436 11438,15446 11432,15456 11425,15466 11418,15476 11411,15486 11404,15496 11397,15505 11390,15515 11383,15525 11375,15534 11368,15543 11360,15552 11352,15562 11344,15571 11336,15580 11328,15589 11319,15598 11311,15606 11302,15615 11293,15624 11285,15632 11276,15641 11267,15649 11258,15657 11249,15665 11239,15673 11230,15681 11221,15688 11212,15696 11202,15703 11192,15710 11183,15717 11173,15724 11163,15731 11153,15738 11143,15745 11133,15751 11123,15758 11113,15764 11103,15770 11092,15776 11082,15782 11071,15788 11061,15793 11050,15799 11039,15804 11028,15810 11017,15815 11006,15820 10995,15825 10984,15830 10972,15834 10961,15839 10949,15844 10937,15848 10926,15852 10914,15856 10902,15860 10890,15864 10878,15867 10867,15871 10855,15874 10843,15877 10831,15880 10818,15883 10806,15886 10794,15888 10782,15891 10770,15893 10758,15895 10745,15897 10733,15899 10720,15900 10708,15902 10696,15903 10683,15904 10671,15905 10658,15906 10646,15907 10633,15907 10620,15908 10608,15908 10595,15908 10582,15908 10570,15908 10557,15907 10544,15907 10532,15906 10519,15905 10507,15904 10494,15903 10482,15902 10469,15900 10457,15899 10445,15897 10432,15895 10420,15893 10408,15891 10396,15888 10384,15886 10372,15883 10360,15880 10348,15877 10336,15874 10324,15871 10312,15867 10300,15864 10288,15860 10276,15856 10264,15852 10252,15848 10241,15844 10229,15839 10218,15834 10206,15830 10195,15825 10184,15820 10173,15815 10162,15810 10151,15804 10140,15799 10129,15793 10119,15788 10108,15782 10098,15776 10087,15770 10077,15764 10067,15758 10057,15751 10047,15745 10037,15738 10027,15731 10017,15724 10007,15717 9998,15710 9988,15703 9979,15696 9969,15688 9960,15681 9951,15673 9941,15665 9932,15657 9923,15649 9914,15641 9905,15632 9897,15624 9888,15615 9879,15606 9871,15598 9862,15589 9854,15580 9846,15571 9838,15562 9830,15552 9823,15543 9815,15534 9807,15525 9800,15515 9793,15505 9786,15496 9779,15486 9772,15476 9765,15466 9758,15456 9752,15446 9745,15436 9739,15426 9733,15416 9727,15405 9721,15395 9715,15384 9710,15374 9704,15363 9699,15352 9693,15341 9688,15330 9683,15319 9678,15308 9673,15297 9669,15285 9664,15274 9659,15262 9655,15251 9651,15239 9647,15227 9643,15215 9639,15203 9636,15192 9632,15180 9629,15168 9626,15156 9623,15144 9620,15132 9617,15119 9615,15107 9612,15095 9610,15083 9608,15071 9606,15058 9604,15046 9603,15034 9601,15021 9600,15009 9599,14996 9598,14984 9597,14971 9596,14959 9596,14946 9595,14933 9595,14921 9595,14908 9595,14895 9595,14883 9596,14870 9596,14857 9597,14845 9598,14832 9599,14820 9600,14807 9601,14795 9603,14782 9604,14770 9606,14758 9608,14745 9610,14733 9612,14721 9615,14709 9617,14697 9620,14685 9623,14673 9626,14661 9629,14649 9632,14637 9636,14625 9639,14613 9643,14601 9647,14589 9651,14577 9655,14565 9659,14554 9664,14542 9669,14531 9673,14519 9678,14508 9683,14497 9688,14486 9693,14475 9699,14464 9704,14453 9710,14442 9715,14432 9721,14421 9727,14411 9733,14400 9739,14390 9745,14380 9752,14370 9758,14360 9765,14350 9772,14340 9779,14330 9786,14320 9793,14311 9800,14301 9807,14292 9815,14282 9823,14273 9830,14264 9838,14254 9846,14245 9854,14236 9862,14227 9871,14218 9879,14210 9888,14201 9897,14192 9905,14184 9914,14175 9923,14167 9932,14159 9941,14151 9951,14143 9960,14136 9969,14128 9979,14120 9988,14113 9998,14106 10007,14099 10017,14092 10027,14085 10037,14078 10047,14071 10057,14065 10067,14058 10077,14052 10087,14046 10098,14040 10108,14034 10119,14028 10129,14023 10140,14017 10151,14012 10162,14006 10173,14001 10184,13996 10195,13991 10206,13986 10218,13982 10229,13977 10241,13972 10252,13968 10264,13964 10276,13960 10288,13956 10300,13952 10312,13949 10324,13945 10336,13942 10348,13939 10360,13936 10372,13933 10384,13930 10396,13928 10408,13925 10420,13923 10432,13921 10445,13919 10457,13917 10469,13916 10482,13914 10494,13913 10507,13912 10519,13911 10532,13910 10544,13909 10557,13909 10570,13908 10582,13908 10595,13908 Z"/>
       </g>
      </g>
     </g>
    </g>
   </g>
  </g>
 </g>
</svg>