<?xml version="1.0" encoding="UTF-8"?>
<!DOCTYPE svg PUBLIC "-//W3C//DTD SVG 1.1//EN" "http://www.w3.org/Graphics/SVG/1.1/DTD/svg11.dtd">
<svg version="1.2" width="27.98mm" height="20.98mm" viewBox="9196 13859 2798 2098" preserveAspectRatio="xMidYMid" fill-rule="evenodd" stroke-width="28.222" stroke-linejoin="round" xmlns="http://www.w3.org/2000/svg" xmlns:ooo="http://xml.openoffice.org/svg/export" xmlns:xlink="http://www.w3.org/1999/xlink" xmlns:presentation="http://sun.com/xmlns/staroffice/presentation" xmlns:smil="http://www.w3.org/2001/SMIL20/" xmlns:anim="urn:oasis:names:tc:opendocument:xmlns:animation:1.0" xml:space="preserve">
 <defs class="ClipPathGroup">
  <clipPath id="presentation_clip_path" clipPathUnits="userSpaceOnUse">
   <rect x="9196" y="13859" width="2798" height="2098"/>
  </clipPath>
  <clipPath id="presentation_clip_path_shrink" clipPathUnits="userSpaceOnUse">
   <rect x="9198" y="13861" width="2793" height="2094"/>
  </clipPath>
 </defs>
 <defs class="TextShapeIndex">
  <g ooo:slide="id1" ooo:id-list="id3"/>
 </defs>
 <defs class="EmbeddedBulletChars">
  <g id="bullet-char-template-57356" transform="scale(0.00048828125,-0.00048828125)">
   <path d="M 580,1141 L 1163,571 580,0 -4,571 580,1141 Z"/>
  </g>
  <g id="bullet-char-template-57354" transform="scale(0.00048828125,-0.00048828125)">
   <path d="M 8,1128 L 1137,1128 1137,0 8,0 8,1128 Z"/>
  </g>
  <g id="bullet-char-template-10146" transform="scale(0.00048828125,-0.00048828125)">
   <path d="M 174,0 L 602,739 174,1481 1456,739 174,0 Z M 1358,739 L 309,1346 659,739 1358,739 Z"/>
  </g>
  <g id="bullet-char-template-10132" transform="scale(0.00048828125,-0.00048828125)">
   <path d="M 2015,739 L 1276,0 717,0 1260,543 174,543 174,936 1260,936 717,1481 1274,1481 2015,739 Z"/>
  </g>
  <g id="bullet-char-template-10007" transform="scale(0.00048828125,-0.00048828125)">
   <path d="M 0,-2 C -7,14 -16,27 -25,37 L 356,567 C 262,823 215,952 215,954 215,979 228,992 255,992 264,992 276,990 289,987 310,991 331,999 354,1012 L 381,999 492,748 772,1049 836,1024 860,1049 C 881,1039 901,1025 922,1006 886,937 835,863 770,784 769,783 710,716 594,584 L 774,223 C 774,196 753,168 711,139 L 727,119 C 717,90 699,76 672,76 641,76 570,178 457,381 L 164,-76 C 142,-110 111,-127 72,-127 30,-127 9,-110 8,-76 1,-67 -2,-52 -2,-32 -2,-23 -1,-13 0,-2 Z"/>
  </g>
  <g id="bullet-char-template-10004" transform="scale(0.00048828125,-0.00048828125)">
   <path d="M 285,-33 C 182,-33 111,30 74,156 52,228 41,333 41,471 41,549 55,616 82,672 116,743 169,778 240,778 293,778 328,747 346,684 L 369,508 C 377,444 397,411 428,410 L 1163,1116 C 1174,1127 1196,1133 1229,1133 1271,1133 1292,1118 1292,1087 L 1292,965 C 1292,929 1282,901 1262,881 L 442,47 C 390,-6 338,-33 285,-33 Z"/>
  </g>
  <g id="bullet-char-template-9679" transform="scale(0.00048828125,-0.00048828125)">
   <path d="M 813,0 C 632,0 489,54 383,161 276,268 223,411 223,592 223,773 276,916 383,1023 489,1130 632,1184 813,1184 992,1184 1136,1130 1245,1023 1353,916 1407,772 1407,592 1407,412 1353,268 1245,161 1136,54 992,0 813,0 Z"/>
  </g>
  <g id="bullet-char-template-8226" transform="scale(0.00048828125,-0.00048828125)">
   <path d="M 346,457 C 273,457 209,483 155,535 101,586 74,649 74,723 74,796 101,859 155,911 209,963 273,989 346,989 419,989 480,963 531,910 582,859 608,796 608,723 608,648 583,586 532,535 482,483 420,457 346,457 Z"/>
  </g>
  <g id="bullet-char-template-8211" transform="scale(0.00048828125,-0.00048828125)">
   <path d="M -4,459 L 1135,459 1135,606 -4,606 -4,459 Z"/>
  </g>
  <g id="bullet-char-template-61548" transform="scale(0.00048828125,-0.00048828125)">
   <path d="M 173,740 C 173,903 231,1043 346,1159 462,1274 601,1332 765,1332 928,1332 1067,1274 1183,1159 1299,1043 1357,903 1357,740 1357,577 1299,437 1183,322 1067,206 928,148 765,148 601,148 462,206 346,322 231,437 173,577 173,740 Z"/>
  </g>
 </defs>
 <defs class="TextEmbeddedBitmaps"/>
 <g class="SlideGroup">
  <g>
   <g id="container-id1">
    <g id="id1" class="Slide" clip-path="url(#presentation_clip_path)">
     <g class="Page">
      <g class="Graphic">
       <g id="id3">
        <rect class="BoundingBox" stroke="none" fill="none" x="9196" y="13859" width="2799" height="2099"/>
        <path fill="rgb(47,70,76)" stroke="none" d="M 9351,15263 L 11244,15263 11765,15553 11244,15842 9351,15842 9351,15263 Z"/>
        <path fill="rgb(224,135,57)" stroke="none" d="M 9387,15297 L 11235,15297 11504,15553 11235,15809 9387,15809 9387,15297 Z"/>
        <path fill="rgb(215,67,51)" stroke="none" d="M 10554,13930 L 10589,13931 10623,13933 10657,13938 10690,13943 10723,13951 10755,13961 10786,13971 10817,13982 10847,13996 10876,14010 10904,14026 10932,14043 10958,14062 10984,14082 11009,14103 11032,14125 11054,14148 11075,14172 11095,14197 11115,14224 11131,14250 11148,14278 11162,14306 11176,14336 11188,14366 11199,14397 11208,14429 11215,14461 11221,14493 11226,14525 11229,14560 11229,14594 11229,14628 11226,14662 11221,14695 11215,14728 11208,14760 11199,14791 11188,14823 11176,14853 11162,14881 11148,14910 11131,14938 11115,14965 11095,14992 11075,15016 11054,15041 11032,15064 11009,15085 10984,15106 10958,15126 10932,15144 10904,15162 10876,15178 10847,15193 10817,15206 10786,15218 10755,15229 10723,15237 10690,15245 10657,15251 10623,15254 10589,15257 10554,15258 10520,15257 10485,15254 10451,15251 10419,15245 10386,15237 10354,15229 10322,15218 10292,15206 10262,15193 10232,15178 10204,15162 10176,15144 10150,15126 10125,15106 10100,15085 10077,15064 10054,15041 10033,15016 10013,14992 9994,14965 9976,14938 9960,14910 9945,14881 9932,14853 9919,14823 9909,14791 9900,14760 9892,14728 9886,14695 9882,14662 9880,14628 9879,14594 9880,14560 9882,14525 9886,14493 9892,14461 9900,14429 9909,14397 9919,14366 9932,14336 9945,14306 9960,14278 9976,14250 9994,14224 10013,14197 10033,14172 10054,14148 10077,14125 10100,14103 10125,14082 10150,14062 10176,14043 10204,14026 10232,14010 10262,13996 10292,13982 10322,13971 10354,13961 10386,13951 10419,13943 10451,13938 10485,13933 10520,13931 10554,13930 Z"/>
        <path fill="rgb(255,255,255)" stroke="none" d="M 10554,14151 L 10560,14151 10565,14152 10571,14152 10577,14152 10583,14152 10588,14152 10593,14153 10599,14154 10605,14154 10611,14155 10616,14156 10621,14157 10627,14157 10633,14158 10638,14159 10644,14161 10649,14162 10654,14163 10660,14164 10666,14166 10671,14167 10676,14168 10681,14169 10687,14171 10692,14173 10698,14175 10702,14176 10708,14178 10713,14180 10719,14182 10724,14185 10729,14187 10734,14188 10739,14190 10744,14193 10749,14195 10754,14198 10758,14200 10763,14203 10768,14205 10773,14207 10778,14210 10783,14213 10787,14215 10791,14219 10796,14221 10801,14224 10805,14227 10810,14230 10814,14233 10818,14236 10823,14239 10827,14243 10832,14245 10836,14249 10841,14252 10844,14256 10848,14260 10853,14262 10857,14266 10861,14270 10865,14274 10869,14278 10872,14281 10876,14285 10880,14289 10884,14293 10888,14297 10892,14301 10895,14305 10898,14309 10902,14314 10905,14318 10909,14321 10912,14326 10916,14330 10919,14335 10922,14338 10925,14343 10927,14348 10931,14352 10934,14356 10937,14361 10940,14365 10942,14370 10945,14374 10948,14379 10951,14384 10953,14389 10955,14393 10957,14398 10960,14403 10962,14408 10965,14412 10967,14417 10969,14422 10971,14428 10974,14432 10976,14438 10978,14443 10980,14449 10982,14453 10983,14459 10984,14464 10986,14469 10988,14474 10989,14480 10990,14486 10992,14490 10993,14496 10995,14501 10996,14505 10997,14511 10998,14516 10999,14522 11000,14527 11000,14533 11001,14538 11002,14543 11003,14549 11003,14555 11004,14561 11004,14566 11004,14571 11005,14577 11005,14582 11005,14588 11005,14594 11005,14599 11005,14605 11005,14611 11004,14617 11004,14621 11004,14627 11003,14633 11003,14638 11002,14644 11001,14650 11000,14655 11000,14660 10999,14666 10998,14672 10997,14676 10996,14682 10995,14688 10993,14692 10992,14698 10990,14704 10989,14709 10988,14714 10986,14719 10984,14725 10983,14730 10982,14735 10980,14740 10978,14746 10976,14750 10974,14756 10971,14761 10969,14767 10967,14771 10965,14776 10962,14781 10960,14786 10957,14790 10955,14795 10953,14800 10951,14805 10948,14809 10945,14814 10942,14819 10940,14823 10937,14828 10934,14832 10931,14837 10927,14841 10925,14845 10922,14850 10919,14854 10916,14859 10912,14862 10909,14867 10905,14871 10902,14875 10898,14879 10895,14883 10892,14887 10888,14891 10884,14896 10880,14899 10876,14903 10872,14907 10869,14911 10865,14915 10861,14918 10857,14922 10853,14925 10848,14929 10844,14933 10841,14936 10836,14939 10832,14943 10827,14946 10823,14949 10818,14953 10814,14955 10810,14958 10805,14961 10801,14964 10796,14968 10791,14970 10787,14973 10783,14975 10778,14978 10773,14981 10768,14983 10763,14986 10758,14989 10754,14991 10749,14993 10744,14995 10739,14997 10734,15000 10729,15002 10724,15004 10719,15006 10713,15009 10708,15010 10702,15012 10698,15014 10692,15015 10687,15017 10681,15019 10676,15020 10671,15022 10666,15023 10660,15025 10654,15026 10649,15027 10644,15029 10638,15029 10633,15029 10627,15030 10621,15032 10616,15032 10611,15033 10605,15034 10599,15034 10593,15035 10588,15035 10583,15036 10577,15036 10571,15036 10565,15037 10560,15037 10554,15037 10548,15037 10543,15037 10537,15036 10532,15036 10527,15036 10521,15035 10515,15035 10509,15034 10504,15034 10498,15033 10493,15032 10487,15032 10481,15030 10476,15029 10471,15029 10465,15029 10459,15027 10454,15026 10448,15025 10444,15023 10438,15022 10432,15020 10427,15019 10421,15017 10417,15015 10411,15014 10406,15012 10400,15010 10395,15009 10390,15006 10385,15004 10380,15002 10374,15000 10369,14997 10364,14995 10360,14993 10355,14991 10350,14989 10345,14986 10340,14983 10335,14981 10331,14978 10326,14975 10321,14973 10316,14970 10312,14968 10307,14964 10303,14961 10299,14958 10294,14955 10290,14953 10285,14949 10281,14946 10277,14943 10273,14939 10268,14936 10264,14933 10260,14929 10256,14925 10251,14922 10248,14918 10244,14915 10240,14911 10236,14907 10232,14903 10228,14899 10224,14896 10221,14891 10217,14887 10214,14883 10210,14879 10206,14875 10203,14871 10199,14867 10196,14862 10194,14859 10190,14854 10187,14850 10184,14845 10180,14841 10177,14837 10175,14832 10171,14828 10169,14823 10166,14819 10164,14814 10161,14809 10158,14805 10156,14800 10153,14795 10150,14790 10148,14786 10145,14781 10143,14776 10141,14771 10139,14767 10137,14761 10135,14756 10133,14750 10131,14746 10129,14740 10127,14735 10126,14730 10124,14725 10122,14719 10121,14714 10119,14709 10117,14704 10116,14698 10115,14692 10113,14688 10112,14682 10111,14676 10110,14672 10110,14666 10109,14660 10108,14655 10108,14650 10107,14644 10107,14638 10106,14633 10106,14627 10105,14621 10105,14617 10105,14611 10104,14605 10104,14599 10104,14594 10104,14588 10104,14582 10105,14577 10105,14571 10105,14566 10106,14561 10106,14555 10107,14549 10107,14543 10108,14538 10108,14533 10109,14527 10110,14522 10110,14516 10111,14511 10112,14505 10113,14501 10115,14496 10116,14490 10117,14486 10119,14480 10121,14474 10122,14469 10124,14464 10126,14459 10127,14453 10129,14449 10131,14443 10133,14438 10135,14432 10137,14428 10139,14422 10141,14417 10143,14412 10145,14408 10148,14403 10150,14398 10153,14393 10156,14389 10158,14384 10161,14379 10164,14374 10166,14370 10169,14365 10171,14361 10175,14356 10177,14352 10180,14348 10184,14343 10187,14338 10190,14335 10194,14330 10196,14326 10199,14321 10203,14318 10206,14314 10210,14309 10214,14305 10217,14301 10221,14297 10224,14293 10228,14289 10232,14285 10236,14281 10240,14278 10244,14274 10248,14270 10251,14266 10256,14262 10260,14260 10264,14256 10268,14252 10273,14249 10277,14245 10281,14243 10285,14239 10290,14236 10294,14233 10299,14230 10303,14227 10307,14224 10312,14221 10316,14219 10321,14215 10326,14213 10331,14210 10335,14207 10340,14205 10345,14203 10350,14200 10355,14198 10360,14195 10364,14193 10369,14190 10374,14188 10380,14187 10385,14185 10390,14182 10395,14180 10400,14178 10406,14176 10411,14175 10417,14173 10421,14171 10427,14169 10432,14168 10438,14167 10444,14166 10448,14164 10454,14163 10459,14162 10465,14161 10471,14159 10476,14158 10481,14157 10487,14157 10493,14156 10498,14155 10504,14154 10509,14154 10515,14153 10521,14152 10527,14152 10532,14152 10537,14152 10543,14152 10548,14151 10554,14151 Z"/>
       </g>
      </g>
     </g>
    </g>
   </g>
  </g>
 </g>
</svg>