<?xml version="1.0" encoding="UTF-8"?>
<!DOCTYPE svg PUBLIC "-//W3C//DTD SVG 1.1//EN" "http://www.w3.org/Graphics/SVG/1.1/DTD/svg11.dtd">
<svg version="1.2" width="29.99mm" height="29.99mm" viewBox="9095 13408 2999 2999" preserveAspectRatio="xMidYMid" fill-rule="evenodd" stroke-width="28.222" stroke-linejoin="round" xmlns="http://www.w3.org/2000/svg" xmlns:ooo="http://xml.openoffice.org/svg/export" xmlns:xlink="http://www.w3.org/1999/xlink" xmlns:presentation="http://sun.com/xmlns/staroffice/presentation" xmlns:smil="http://www.w3.org/2001/SMIL20/" xmlns:anim="urn:oasis:names:tc:opendocument:xmlns:animation:1.0" xml:space="preserve">
 <defs class="ClipPathGroup">
  <clipPath id="presentation_clip_path" clipPathUnits="userSpaceOnUse">
   <rect x="9095" y="13408" width="2999" height="2999"/>
  </clipPath>
  <clipPath id="presentation_clip_path_shrink" clipPathUnits="userSpaceOnUse">
   <rect x="9097" y="13410" width="2994" height="2994"/>
  </clipPath>
 </defs>
 <defs class="TextShapeIndex">
  <g ooo:slide="id1" ooo:id-list="id3"/>
 </defs>
 <defs class="EmbeddedBulletChars">
  <g id="bullet-char-template-57356" transform="scale(0.00048828125,-0.00048828125)">
   <path d="M 580,1141 L 1163,571 580,0 -4,571 580,1141 Z"/>
  </g>
  <g id="bullet-char-template-57354" transform="scale(0.00048828125,-0.00048828125)">
   <path d="M 8,1128 L 1137,1128 1137,0 8,0 8,1128 Z"/>
  </g>
  <g id="bullet-char-template-10146" transform="scale(0.00048828125,-0.00048828125)">
   <path d="M 174,0 L 602,739 174,1481 1456,739 174,0 Z M 1358,739 L 309,1346 659,739 1358,739 Z"/>
  </g>
  <g id="bullet-char-template-10132" transform="scale(0.00048828125,-0.00048828125)">
   <path d="M 2015,739 L 1276,0 717,0 1260,543 174,543 174,936 1260,936 717,1481 1274,1481 2015,739 Z"/>
  </g>
  <g id="bullet-char-template-10007" transform="scale(0.00048828125,-0.00048828125)">
   <path d="M 0,-2 C -7,14 -16,27 -25,37 L 356,567 C 262,823 215,952 215,954 215,979 228,992 255,992 264,992 276,990 289,987 310,991 331,999 354,1012 L 381,999 492,748 772,1049 836,1024 860,1049 C 881,1039 901,1025 922,1006 886,937 835,863 770,784 769,783 710,716 594,584 L 774,223 C 774,196 753,168 711,139 L 727,119 C 717,90 699,76 672,76 641,76 570,178 457,381 L 164,-76 C 142,-110 111,-127 72,-127 30,-127 9,-110 8,-76 1,-67 -2,-52 -2,-32 -2,-23 -1,-13 0,-2 Z"/>
  </g>
  <g id="bullet-char-template-10004" transform="scale(0.00048828125,-0.00048828125)">
   <path d="M 285,-33 C 182,-33 111,30 74,156 52,228 41,333 41,471 41,549 55,616 82,672 116,743 169,778 240,778 293,778 328,747 346,684 L 369,508 C 377,444 397,411 428,410 L 1163,1116 C 1174,1127 1196,1133 1229,1133 1271,1133 1292,1118 1292,1087 L 1292,965 C 1292,929 1282,901 1262,881 L 442,47 C 390,-6 338,-33 285,-33 Z"/>
  </g>
  <g id="bullet-char-template-9679" transform="scale(0.00048828125,-0.00048828125)">
   <path d="M 813,0 C 632,0 489,54 383,161 276,268 223,411 223,592 223,773 276,916 383,1023 489,1130 632,1184 813,1184 992,1184 1136,1130 1245,1023 1353,916 1407,772 1407,592 1407,412 1353,268 1245,161 1136,54 992,0 813,0 Z"/>
  </g>
  <g id="bullet-char-template-8226" transform="scale(0.00048828125,-0.00048828125)">
   <path d="M 346,457 C 273,457 209,483 155,535 101,586 74,649 74,723 74,796 101,859 155,911 209,963 273,989 346,989 419,989 480,963 531,910 582,859 608,796 608,723 608,648 583,586 532,535 482,483 420,457 346,457 Z"/>
  </g>
  <g id="bullet-char-template-8211" transform="scale(0.00048828125,-0.00048828125)">
   <path d="M -4,459 L 1135,459 1135,606 -4,606 -4,459 Z"/>
  </g>
  <g id="bullet-char-template-61548" transform="scale(0.00048828125,-0.00048828125)">
   <path d="M 173,740 C 173,903 231,1043 346,1159 462,1274 601,1332 765,1332 928,1332 1067,1274 1183,1159 1299,1043 1357,903 1357,740 1357,577 1299,437 1183,322 1067,206 928,148 765,148 601,148 462,206 346,322 231,437 173,577 173,740 Z"/>
  </g>
 </defs>
 <defs class="TextEmbeddedBitmaps"/>
 <g class="SlideGroup">
  <g>
   <g id="container-id1">
    <g id="id1" class="Slide" clip-path="url(#presentation_clip_path)">
     <g class="Page">
      <g class="Graphic">
       <g id="id3">
        <rect class="BoundingBox" stroke="none" fill="none" x="9095" y="13408" width="3000" height="3000"/>
        <path fill="rgb(218,68,53)" stroke="none" d="M 10595,13408 L 10672,13410 10748,13416 10823,13425 10897,13439 10970,13455 11041,13476 11111,13499 11179,13526 11245,13556 11310,13589 11373,13625 11434,13664 11492,13706 11549,13751 11603,13798 11656,13848 11705,13900 11752,13954 11797,14011 11839,14070 11878,14130 11914,14193 11947,14258 11977,14324 12004,14392 12028,14462 12048,14533 12064,14606 12078,14680 12087,14755 12093,14831 12095,14908 12093,14985 12087,15061 12078,15136 12064,15210 12048,15283 12028,15354 12004,15424 11977,15492 11947,15558 11914,15623 11878,15686 11839,15747 11797,15805 11752,15862 11705,15916 11656,15969 11603,16018 11549,16065 11492,16110 11434,16152 11373,16191 11310,16227 11245,16260 11179,16290 11111,16317 11041,16341 10970,16361 10897,16377 10823,16391 10748,16400 10672,16406 10595,16408 10518,16406 10442,16400 10367,16391 10293,16377 10220,16361 10149,16341 10079,16317 10011,16290 9945,16260 9880,16227 9817,16191 9757,16152 9698,16110 9641,16065 9587,16018 9535,15969 9485,15916 9438,15862 9393,15805 9351,15747 9312,15686 9276,15623 9243,15558 9213,15492 9186,15424 9163,15354 9142,15283 9126,15210 9112,15136 9103,15061 9097,14985 9095,14908 9097,14831 9103,14755 9112,14680 9126,14606 9142,14533 9163,14462 9186,14392 9213,14324 9243,14258 9276,14193 9312,14130 9351,14070 9393,14011 9438,13954 9485,13900 9535,13848 9587,13798 9641,13751 9698,13706 9757,13664 9817,13625 9880,13589 9945,13556 10011,13526 10079,13499 10149,13476 10220,13455 10293,13439 10367,13425 10442,13416 10518,13410 10595,13408 Z"/>
        <path fill="rgb(255,255,255)" stroke="none" d="M 9253,15208 L 11937,15208 11941,15190 11945,15171 11949,15153 11952,15134 11955,15116 11957,15097 11960,15078 11962,15060 11964,15041 11965,15022 11967,15003 11968,14984 11969,14965 11970,14946 11970,14927 11970,14908 11970,14889 11970,14870 11969,14851 11968,14832 11967,14813 11965,14794 11964,14775 11962,14756 11960,14737 11957,14719 11955,14700 11952,14682 11949,14663 11945,14645 11941,14626 11938,14608 9253,14608 9249,14626 9245,14645 9242,14663 9238,14682 9236,14700 9233,14719 9231,14737 9228,14756 9226,14775 9225,14794 9223,14813 9222,14832 9221,14851 9221,14870 9220,14889 9220,14908 9220,14927 9221,14946 9221,14965 9222,14984 9223,15003 9225,15022 9226,15041 9228,15060 9231,15078 9233,15097 9236,15116 9239,15134 9242,15153 9245,15171 9249,15190 9253,15208 Z"/>
       </g>
      </g>
     </g>
    </g>
   </g>
  </g>
 </g>
</svg>