<?xml version="1.0" encoding="UTF-8"?>
<!DOCTYPE svg PUBLIC "-//W3C//DTD SVG 1.1//EN" "http://www.w3.org/Graphics/SVG/1.1/DTD/svg11.dtd">
<svg version="1.2" width="29.96mm" height="29.96mm" viewBox="9097 13410 2996 2996" preserveAspectRatio="xMidYMid" fill-rule="evenodd" stroke-width="28.222" stroke-linejoin="round" xmlns="http://www.w3.org/2000/svg" xmlns:ooo="http://xml.openoffice.org/svg/export" xmlns:xlink="http://www.w3.org/1999/xlink" xmlns:presentation="http://sun.com/xmlns/staroffice/presentation" xmlns:smil="http://www.w3.org/2001/SMIL20/" xmlns:anim="urn:oasis:names:tc:opendocument:xmlns:animation:1.0" xml:space="preserve">
 <defs class="ClipPathGroup">
  <clipPath id="presentation_clip_path" clipPathUnits="userSpaceOnUse">
   <rect x="9097" y="13410" width="2996" height="2996"/>
  </clipPath>
  <clipPath id="presentation_clip_path_shrink" clipPathUnits="userSpaceOnUse">
   <rect x="9099" y="13412" width="2991" height="2991"/>
  </clipPath>
 </defs>
 <defs class="TextShapeIndex">
  <g ooo:slide="id1" ooo:id-list="id3"/>
 </defs>
 <defs class="EmbeddedBulletChars">
  <g id="bullet-char-template-57356" transform="scale(0.00048828125,-0.00048828125)">
   <path d="M 580,1141 L 1163,571 580,0 -4,571 580,1141 Z"/>
  </g>
  <g id="bullet-char-template-57354" transform="scale(0.00048828125,-0.00048828125)">
   <path d="M 8,1128 L 1137,1128 1137,0 8,0 8,1128 Z"/>
  </g>
  <g id="bullet-char-template-10146" transform="scale(0.00048828125,-0.00048828125)">
   <path d="M 174,0 L 602,739 174,1481 1456,739 174,0 Z M 1358,739 L 309,1346 659,739 1358,739 Z"/>
  </g>
  <g id="bullet-char-template-10132" transform="scale(0.00048828125,-0.00048828125)">
   <path d="M 2015,739 L 1276,0 717,0 1260,543 174,543 174,936 1260,936 717,1481 1274,1481 2015,739 Z"/>
  </g>
  <g id="bullet-char-template-10007" transform="scale(0.00048828125,-0.00048828125)">
   <path d="M 0,-2 C -7,14 -16,27 -25,37 L 356,567 C 262,823 215,952 215,954 215,979 228,992 255,992 264,992 276,990 289,987 310,991 331,999 354,1012 L 381,999 492,748 772,1049 836,1024 860,1049 C 881,1039 901,1025 922,1006 886,937 835,863 770,784 769,783 710,716 594,584 L 774,223 C 774,196 753,168 711,139 L 727,119 C 717,90 699,76 672,76 641,76 570,178 457,381 L 164,-76 C 142,-110 111,-127 72,-127 30,-127 9,-110 8,-76 1,-67 -2,-52 -2,-32 -2,-23 -1,-13 0,-2 Z"/>
  </g>
  <g id="bullet-char-template-10004" transform="scale(0.00048828125,-0.00048828125)">
   <path d="M 285,-33 C 182,-33 111,30 74,156 52,228 41,333 41,471 41,549 55,616 82,672 116,743 169,778 240,778 293,778 328,747 346,684 L 369,508 C 377,444 397,411 428,410 L 1163,1116 C 1174,1127 1196,1133 1229,1133 1271,1133 1292,1118 1292,1087 L 1292,965 C 1292,929 1282,901 1262,881 L 442,47 C 390,-6 338,-33 285,-33 Z"/>
  </g>
  <g id="bullet-char-template-9679" transform="scale(0.00048828125,-0.00048828125)">
   <path d="M 813,0 C 632,0 489,54 383,161 276,268 223,411 223,592 223,773 276,916 383,1023 489,1130 632,1184 813,1184 992,1184 1136,1130 1245,1023 1353,916 1407,772 1407,592 1407,412 1353,268 1245,161 1136,54 992,0 813,0 Z"/>
  </g>
  <g id="bullet-char-template-8226" transform="scale(0.00048828125,-0.00048828125)">
   <path d="M 346,457 C 273,457 209,483 155,535 101,586 74,649 74,723 74,796 101,859 155,911 209,963 273,989 346,989 419,989 480,963 531,910 582,859 608,796 608,723 608,648 583,586 532,535 482,483 420,457 346,457 Z"/>
  </g>
  <g id="bullet-char-template-8211" transform="scale(0.00048828125,-0.00048828125)">
   <path d="M -4,459 L 1135,459 1135,606 -4,606 -4,459 Z"/>
  </g>
  <g id="bullet-char-template-61548" transform="scale(0.00048828125,-0.00048828125)">
   <path d="M 173,740 C 173,903 231,1043 346,1159 462,1274 601,1332 765,1332 928,1332 1067,1274 1183,1159 1299,1043 1357,903 1357,740 1357,577 1299,437 1183,322 1067,206 928,148 765,148 601,148 462,206 346,322 231,437 173,577 173,740 Z"/>
  </g>
 </defs>
 <defs class="TextEmbeddedBitmaps"/>
 <g class="SlideGroup">
  <g>
   <g id="container-id1">
    <g id="id1" class="Slide" clip-path="url(#presentation_clip_path)">
     <g class="Page">
      <g class="Graphic">
       <g id="id3">
        <rect class="BoundingBox" stroke="none" fill="none" x="9097" y="13410" width="2997" height="2997"/>
        <path fill="rgb(218,68,53)" stroke="none" d="M 10596,13410 L 10673,13412 10749,13418 10824,13427 10897,13441 10970,13457 11041,13477 11111,13501 11179,13528 11245,13558 11310,13591 11372,13627 11433,13666 11492,13708 11549,13752 11603,13799 11655,13849 11705,13901 11752,13955 11796,14012 11838,14071 11877,14132 11913,14194 11946,14259 11976,14325 12003,14393 12027,14463 12047,14534 12063,14607 12077,14680 12086,14755 12092,14831 12094,14909 12092,14986 12086,15062 12077,15137 12063,15210 12047,15283 12027,15354 12003,15424 11976,15492 11946,15558 11913,15623 11877,15685 11838,15746 11796,15805 11752,15862 11705,15916 11655,15968 11603,16018 11549,16065 11492,16109 11433,16151 11372,16190 11310,16226 11245,16259 11179,16289 11111,16316 11041,16340 10970,16360 10897,16376 10824,16390 10749,16399 10673,16405 10596,16407 10518,16405 10442,16399 10367,16390 10294,16376 10221,16360 10150,16340 10080,16316 10012,16289 9946,16259 9881,16226 9819,16190 9758,16151 9699,16109 9642,16065 9588,16018 9536,15968 9486,15916 9439,15862 9395,15805 9353,15746 9314,15685 9278,15623 9245,15558 9215,15492 9188,15424 9164,15354 9144,15283 9128,15210 9114,15137 9105,15062 9099,14986 9097,14909 9099,14831 9105,14755 9114,14680 9128,14607 9144,14534 9164,14463 9188,14393 9215,14325 9245,14259 9278,14194 9314,14132 9353,14071 9395,14012 9439,13955 9486,13901 9536,13849 9588,13799 9642,13752 9699,13708 9758,13666 9819,13627 9881,13591 9946,13558 10012,13528 10080,13501 10150,13477 10221,13457 10294,13441 10367,13427 10442,13418 10518,13412 10596,13410 Z"/>
        <path fill="rgb(255,255,255)" stroke="none" d="M 10596,13909 L 10608,13909 10621,13910 10634,13910 10646,13911 10659,13911 10671,13912 10684,13913 10696,13914 10709,13916 10721,13917 10733,13919 10746,13920 10758,13922 10770,13924 10782,13927 10795,13929 10807,13931 10819,13934 10831,13937 10843,13940 10855,13943 10867,13946 10879,13950 10891,13953 10903,13957 10914,13961 10926,13965 10938,13969 10949,13974 10961,13978 10973,13983 10984,13988 10995,13993 11006,13997 11018,14002 11028,14008 11039,14013 11050,14018 11061,14024 11071,14029 11082,14035 11092,14041 11103,14047 11113,14053 11123,14060 11133,14066 11143,14073 11153,14079 11163,14086 11173,14093 11183,14100 11192,14107 11202,14114 11211,14122 11221,14129 11230,14137 11239,14144 11249,14152 11258,14160 11267,14168 11276,14177 11285,14185 11293,14193 11302,14202 11311,14211 11319,14220 11327,14228 11336,14237 11344,14246 11352,14255 11360,14265 11367,14274 11375,14283 11382,14293 11390,14302 11397,14312 11404,14321 11411,14331 11418,14341 11425,14351 11431,14361 11438,14371 11444,14381 11451,14391 11457,14401 11463,14412 11469,14422 11475,14433 11480,14443 11486,14454 11491,14465 11496,14475 11502,14486 11507,14498 11511,14509 11516,14520 11521,14531 11526,14543 11530,14554 11535,14566 11539,14578 11543,14590 11547,14601 11551,14613 11554,14625 11558,14637 11561,14649 11564,14661 11567,14673 11570,14685 11573,14697 11575,14709 11577,14722 11580,14734 11582,14746 11584,14758 11585,14771 11587,14783 11588,14795 11590,14808 11591,14820 11592,14833 11593,14845 11593,14858 11594,14870 11594,14883 11594,14896 11595,14908 11594,14921 11594,14934 11594,14946 11593,14959 11593,14972 11592,14984 11591,14997 11590,15009 11588,15021 11587,15034 11585,15046 11584,15059 11582,15071 11580,15083 11577,15095 11575,15107 11573,15119 11570,15132 11567,15144 11564,15156 11561,15168 11558,15180 11554,15192 11551,15203 11547,15215 11543,15227 11539,15239 11535,15251 11530,15262 11526,15274 11521,15286 11516,15297 11511,15308 11507,15319 11502,15330 11496,15341 11491,15352 11486,15363 11480,15374 11475,15384 11469,15395 11463,15405 11457,15416 11451,15426 11444,15436 11438,15446 11431,15456 11425,15466 11418,15476 11411,15486 11404,15496 11397,15505 11390,15515 11382,15524 11375,15534 11367,15543 11360,15552 11352,15561 11344,15570 11336,15579 11327,15588 11319,15597 11311,15606 11302,15615 11293,15623 11285,15632 11276,15640 11267,15648 11258,15657 11249,15664 11239,15672 11230,15680 11221,15688 11211,15695 11202,15703 11192,15710 11183,15717 11173,15724 11163,15731 11153,15738 11143,15744 11133,15751 11123,15757 11113,15763 11103,15770 11092,15776 11082,15782 11071,15787 11061,15793 11050,15798 11039,15804 11028,15809 11018,15814 11006,15819 10995,15824 10984,15829 10973,15834 10961,15839 10949,15843 10938,15847 10926,15852 10914,15856 10903,15860 10891,15863 10879,15867 10867,15870 10855,15874 10843,15877 10831,15880 10819,15883 10807,15885 10795,15888 10782,15890 10770,15892 10758,15895 10746,15896 10733,15898 10721,15900 10709,15901 10696,15903 10684,15904 10671,15905 10659,15906 10646,15906 10634,15907 10621,15907 10608,15907 10596,15907 10583,15907 10570,15907 10558,15907 10545,15906 10532,15906 10520,15905 10507,15904 10495,15903 10483,15901 10470,15900 10458,15898 10445,15896 10433,15895 10421,15892 10409,15890 10397,15888 10385,15885 10372,15883 10360,15880 10348,15877 10336,15874 10324,15870 10312,15867 10301,15863 10289,15860 10277,15856 10265,15852 10253,15847 10242,15843 10230,15839 10218,15834 10207,15829 10196,15824 10185,15819 10174,15814 10163,15809 10152,15804 10141,15798 10130,15793 10120,15787 10109,15782 10099,15776 10088,15770 10078,15763 10068,15757 10058,15751 10048,15744 10038,15738 10028,15731 10018,15724 10008,15717 9999,15710 9989,15703 9980,15695 9970,15688 9961,15680 9952,15672 9943,15664 9934,15657 9925,15648 9916,15640 9907,15632 9898,15623 9889,15615 9881,15606 9872,15597 9864,15588 9856,15579 9847,15570 9840,15561 9832,15552 9824,15543 9816,15534 9809,15524 9801,15515 9794,15505 9787,15496 9780,15486 9773,15476 9766,15466 9760,15456 9753,15446 9747,15436 9741,15426 9734,15416 9728,15405 9722,15395 9717,15384 9711,15374 9706,15363 9700,15352 9695,15341 9690,15330 9685,15319 9680,15308 9675,15297 9670,15286 9665,15274 9661,15262 9657,15251 9652,15239 9648,15227 9644,15215 9641,15203 9637,15192 9634,15180 9630,15168 9627,15156 9624,15144 9621,15132 9619,15119 9616,15107 9614,15095 9612,15083 9609,15071 9608,15059 9606,15046 9604,15034 9603,15021 9601,15009 9600,14997 9599,14984 9598,14972 9598,14959 9597,14946 9597,14934 9597,14921 9597,14908 9597,14896 9597,14883 9597,14870 9598,14858 9598,14845 9599,14833 9600,14820 9601,14808 9603,14795 9604,14783 9606,14771 9608,14758 9609,14746 9612,14734 9614,14722 9616,14709 9619,14697 9621,14685 9624,14673 9627,14661 9630,14649 9634,14637 9637,14625 9641,14613 9644,14601 9648,14590 9652,14578 9657,14566 9661,14554 9665,14543 9670,14531 9675,14520 9680,14509 9685,14498 9690,14486 9695,14475 9700,14465 9706,14454 9711,14443 9717,14433 9722,14422 9728,14412 9734,14401 9741,14391 9747,14381 9753,14371 9760,14361 9766,14351 9773,14341 9780,14331 9787,14321 9794,14312 9801,14302 9809,14293 9816,14283 9824,14274 9832,14265 9840,14255 9847,14246 9856,14237 9864,14228 9872,14220 9881,14211 9889,14202 9898,14193 9907,14185 9916,14177 9925,14168 9934,14160 9943,14152 9952,14144 9961,14137 9970,14129 9980,14122 9989,14114 9999,14107 10008,14100 10018,14093 10028,14086 10038,14079 10048,14073 10058,14066 10068,14060 10078,14053 10088,14047 10099,14041 10109,14035 10120,14029 10130,14024 10141,14018 10152,14013 10163,14008 10174,14002 10185,13997 10196,13993 10207,13988 10218,13983 10230,13978 10242,13974 10253,13969 10265,13965 10277,13961 10289,13957 10301,13953 10312,13950 10324,13946 10336,13943 10348,13940 10360,13937 10372,13934 10385,13931 10397,13929 10409,13927 10421,13924 10433,13922 10445,13920 10458,13919 10470,13917 10483,13916 10495,13914 10507,13913 10520,13912 10532,13911 10545,13911 10558,13910 10570,13910 10583,13909 10596,13909 Z"/>
        <path fill="rgb(42,40,40)" stroke="none" d="M 11198,15125 L 11198,15306 11198,15309 11198,15311 11198,15313 11198,15315 11198,15316 11198,15318 11197,15320 11196,15321 11196,15323 11195,15324 11194,15325 11193,15326 11193,15327 11192,15328 11192,15328 11191,15329 11189,15330 11188,15330 11187,15331 11186,15331 11184,15331 11183,15332 11181,15332 11179,15333 11177,15333 11174,15333 11103,15333 11100,15333 11098,15333 11096,15333 11094,15333 11091,15331 11088,15330 11087,15330 11086,15329 11085,15328 11084,15326 11084,15326 11083,15326 11083,15326 11083,15325 11083,15325 11082,15324 11082,15321 11082,15319 11081,15318 11081,15317 11080,15316 11080,15314 11080,15311 11080,15308 11080,15144 11078,15144 11076,15145 11074,15145 11072,15145 11068,15146 11065,15146 11053,15148 11039,15150 11025,15151 11010,15153 10994,15154 10979,15155 10963,15156 10947,15157 10931,15158 10915,15159 10900,15159 10884,15160 10870,15160 10855,15161 10842,15161 10829,15162 10820,15162 10809,15162 10796,15162 10780,15162 10764,15163 10746,15163 10727,15164 10708,15164 10689,15165 10670,15165 10652,15165 10636,15166 10620,15166 10607,15166 10596,15166 10587,15166 10574,15166 10560,15166 10546,15166 10532,15166 10518,15166 10503,15165 10489,15165 10475,15165 10461,15164 10447,15164 10433,15163 10418,15162 10404,15162 10390,15161 10376,15160 10362,15159 10349,15159 10336,15159 10322,15158 10307,15157 10293,15157 10278,15156 10263,15156 10248,15155 10233,15154 10218,15154 10203,15153 10188,15152 10174,15152 10160,15151 10146,15151 10133,15150 10117,15148 10117,15303 10117,15317 10116,15318 10116,15319 10116,15320 10115,15322 10114,15325 10112,15328 10110,15330 10108,15331 10107,15332 10105,15333 10104,15333 10102,15333 10090,15333 10022,15333 10015,15333 10013,15333 10012,15333 10010,15332 10009,15331 10006,15330 10003,15328 10002,15327 10002,15325 10001,15323 10001,15322 10001,15319 10001,15317 10001,15314 10001,15310 10001,15307 10001,15306 10001,15125 9951,15125 9949,15125 9946,15125 9942,15125 9939,15125 9937,15124 9934,15122 9932,15120 9930,15118 9929,15117 9928,15116 9927,15115 9926,15114 9926,15112 9925,15111 9925,15110 9925,15109 9924,15107 9923,15105 9923,15103 9923,15100 9922,15095 9922,15091 9923,15087 9923,15084 9923,15080 9923,15076 9923,15068 9923,15059 9923,15051 9923,15042 9922,15034 9922,15027 9922,15019 9922,15010 9922,15001 9921,14991 9920,14982 9919,14972 9919,14963 9918,14954 9917,14944 9916,14934 9914,14923 9912,14913 9910,14903 9908,14894 9906,14884 9904,14874 9903,14871 9903,14868 9902,14864 9901,14861 9900,14857 9899,14853 9899,14850 9899,14847 9898,14843 9897,14838 9897,14833 9897,14828 9897,14823 9897,14818 9898,14813 9899,14808 9900,14803 9901,14798 9902,14793 9904,14788 9905,14783 9907,14778 9909,14774 9911,14769 9913,14765 9915,14762 9918,14758 9920,14755 9923,14751 9926,14748 9929,14745 9932,14742 9935,14739 9938,14736 9941,14733 9944,14731 9948,14728 9951,14726 9954,14724 9958,14721 9963,14718 9968,14715 9973,14711 9978,14709 9984,14706 9990,14704 9992,14703 9995,14702 9998,14701 10001,14701 10004,14701 10006,14701 10008,14700 10009,14700 10011,14699 10012,14699 10204,14452 10206,14450 10208,14449 10209,14447 10211,14445 10213,14443 10215,14441 10216,14440 10218,14439 10219,14439 10221,14438 10224,14437 10228,14435 10229,14435 10231,14434 10233,14434 10235,14434 10237,14434 10241,14434 10244,14434 10247,14434 10945,14434 10948,14434 10952,14434 10954,14434 10957,14434 10958,14435 10960,14435 10962,14436 10964,14436 10965,14436 10967,14437 10969,14438 10971,14438 10972,14439 10974,14439 10975,14440 10977,14441 10978,14442 10979,14443 10981,14444 10982,14445 10990,14454 11189,14701 11189,14702 11191,14702 11193,14703 11194,14704 11196,14705 11198,14705 11199,14705 11200,14705 11205,14707 11210,14709 11215,14711 11220,14714 11225,14716 11229,14719 11234,14721 11238,14724 11241,14726 11244,14728 11247,14730 11250,14733 11252,14735 11255,14738 11257,14740 11260,14743 11262,14746 11264,14748 11266,14751 11268,14754 11270,14757 11272,14760 11274,14764 11276,14767 11278,14770 11280,14773 11282,14776 11284,14780 11285,14783 11286,14787 11288,14790 11289,14793 11291,14801 11293,14808 11294,14815 11295,14822 11295,14828 11294,14836 11293,14844 11292,14852 11291,14861 11290,14868 11289,14875 11288,14881 11286,14887 11285,14894 11283,14900 11282,14906 11281,14913 11280,14919 11279,14925 11278,14931 11278,14938 11277,14945 11276,14952 11275,14959 11275,14965 11274,14972 11274,14979 11274,14986 11273,14992 11272,14998 11271,15004 11270,15010 11270,15016 11269,15022 11269,15028 11269,15034 11269,15040 11269,15046 11269,15052 11269,15058 11269,15065 11270,15071 11271,15077 11271,15084 11271,15088 11271,15093 11271,15098 11271,15102 11271,15104 11271,15106 11271,15108 11271,15110 11270,15112 11269,15115 11269,15116 11268,15117 11267,15118 11266,15118 11265,15120 11263,15123 11262,15124 11260,15124 11260,15125 11259,15125 11258,15125 11257,15125 11255,15125 11251,15125 11248,15125 11245,15125 11198,15125 Z"/>
        <path fill="rgb(255,255,255)" stroke="none" d="M 10035,14768 L 10040,14768 10044,14768 10048,14769 10052,14770 10057,14771 10061,14772 10065,14773 10069,14774 10073,14776 10076,14778 10080,14780 10084,14782 10087,14784 10090,14787 10094,14790 10097,14792 10099,14795 10102,14798 10105,14801 10107,14805 10110,14808 10112,14812 10114,14815 10116,14819 10117,14823 10119,14827 10120,14831 10121,14835 10122,14839 10122,14844 10123,14848 10123,14852 10123,14857 10122,14861 10122,14866 10121,14870 10120,14874 10119,14878 10117,14882 10116,14886 10114,14890 10112,14894 10110,14897 10107,14901 10105,14904 10102,14907 10099,14911 10096,14913 10093,14916 10090,14919 10087,14921 10083,14924 10079,14926 10076,14928 10072,14930 10068,14931 10064,14933 10059,14934 10055,14935 10051,14936 10046,14936 10042,14937 10037,14937 10033,14937 10028,14937 10024,14936 10020,14936 10015,14935 10011,14934 10007,14933 10003,14932 9999,14930 9995,14928 9991,14926 9988,14924 9984,14922 9981,14920 9977,14917 9974,14914 9971,14912 9968,14909 9965,14906 9963,14903 9960,14899 9958,14896 9956,14892 9954,14889 9952,14885 9951,14881 9949,14877 9948,14873 9947,14869 9946,14865 9946,14861 9945,14857 9945,14852 9946,14848 9946,14844 9947,14840 9948,14836 9949,14832 9950,14828 9952,14824 9953,14820 9955,14816 9957,14813 9959,14809 9961,14806 9964,14802 9967,14799 9970,14796 9972,14793 9975,14790 9979,14787 9982,14785 9985,14783 9989,14780 9993,14778 9996,14776 10000,14775 10004,14773 10008,14772 10013,14771 10017,14770 10021,14769 10026,14768 10030,14768 10035,14768 Z"/>
        <path fill="rgb(255,255,255)" stroke="none" d="M 10423,14852 L 10423,15044 10168,15044 10165,15044 10162,15044 10159,15044 10158,15044 10155,15044 10151,15043 10148,15043 10145,15042 10143,15041 10142,15041 10140,15040 10139,15039 10138,15038 10137,15037 10135,15036 10135,15035 10133,15033 10132,15031 10130,15029 10129,15026 10129,15023 10128,15021 10128,15017 10127,15014 10128,15012 10128,15011 10128,15009 10129,15008 10130,15006 10130,15005 10131,15004 10132,15003 10213,14870 10213,14869 10213,14868 10213,14867 10214,14866 10215,14864 10216,14863 10217,14862 10217,14861 10221,14858 10223,14856 10225,14855 10226,14855 10228,14855 10229,14854 10231,14854 10233,14853 10235,14853 10238,14852 10242,14852 10246,14852 10255,14852 10423,14852 Z"/>
        <path fill="rgb(255,255,255)" stroke="none" d="M 10442,14852 L 10750,14852 10750,15044 10442,15044 10442,14852 Z"/>
        <path fill="rgb(255,255,255)" stroke="none" d="M 10771,14852 L 10935,14852 10938,14852 10942,14852 10946,14852 10949,14852 10950,14852 10953,14852 10955,14853 10957,14853 10961,14855 10965,14857 10967,14857 10969,14857 10970,14858 10972,14859 10975,14861 10977,14864 10977,14864 10977,14866 10978,14867 10979,14868 10979,14869 10980,14871 10981,14872 10982,14873 11062,15000 11063,15003 11063,15005 11064,15007 11065,15009 11065,15013 11066,15016 11066,15019 11066,15022 11066,15024 11065,15027 11064,15030 11062,15032 11062,15034 11061,15035 11060,15036 11060,15037 11059,15038 11058,15039 11057,15040 11056,15041 11054,15041 11053,15042 11051,15042 11050,15043 11048,15043 11047,15044 11045,15044 11043,15044 11040,15044 11035,15044 11030,15044 11027,15044 10771,15044 10771,14852 Z"/>
        <path fill="rgb(255,255,255)" stroke="none" d="M 11157,14768 L 11162,14768 11166,14768 11171,14769 11175,14770 11179,14771 11184,14772 11188,14773 11192,14775 11196,14776 11200,14778 11204,14780 11207,14783 11211,14785 11214,14787 11217,14790 11220,14793 11223,14796 11226,14799 11229,14802 11231,14806 11234,14809 11236,14813 11238,14816 11240,14820 11241,14824 11243,14828 11244,14832 11245,14836 11246,14840 11246,14844 11247,14848 11247,14852 11246,14857 11246,14861 11245,14866 11244,14870 11243,14874 11242,14878 11240,14882 11238,14886 11236,14890 11234,14894 11232,14897 11230,14901 11227,14904 11224,14908 11221,14911 11218,14914 11215,14917 11212,14919 11208,14922 11205,14924 11201,14927 11197,14929 11194,14931 11189,14932 11185,14934 11181,14935 11177,14936 11173,14937 11168,14938 11164,14939 11159,14939 11154,14939 11150,14939 11146,14939 11141,14938 11137,14937 11133,14936 11129,14935 11125,14934 11121,14932 11117,14931 11113,14929 11109,14927 11106,14924 11103,14922 11099,14920 11096,14917 11093,14914 11090,14911 11087,14908 11085,14905 11082,14901 11080,14898 11078,14894 11076,14891 11074,14887 11072,14883 11071,14879 11070,14875 11069,14871 11068,14867 11067,14863 11067,14859 11067,14855 11067,14850 11067,14845 11068,14841 11069,14836 11070,14832 11071,14828 11072,14824 11074,14820 11076,14816 11078,14812 11080,14808 11082,14805 11085,14801 11087,14798 11090,14795 11093,14792 11096,14789 11100,14786 11103,14784 11106,14781 11110,14779 11114,14777 11118,14775 11122,14773 11126,14772 11130,14771 11134,14770 11139,14769 11143,14768 11148,14768 11152,14768 11157,14768 Z"/>
        <path fill="rgb(255,255,255)" stroke="none" d="M 11128,14709 L 11126,14709 11122,14709 11118,14709 11114,14709 10861,14690 10845,14689 10828,14688 10811,14687 10793,14686 10774,14686 10755,14685 10735,14685 10715,14685 10696,14684 10676,14684 10657,14684 10638,14684 10619,14685 10602,14685 10585,14685 10570,14686 10557,14686 10542,14686 10527,14686 10511,14686 10495,14686 10478,14686 10460,14686 10443,14686 10426,14686 10408,14686 10391,14687 10375,14687 10359,14687 10344,14687 10330,14688 10316,14688 10077,14704 10063,14704 10226,14499 10228,14497 10230,14495 10230,14494 10231,14493 10231,14493 10231,14492 10234,14490 10237,14488 10240,14487 10243,14485 10245,14485 10248,14484 10250,14483 10251,14483 10253,14483 10255,14483 10258,14483 10261,14483 10264,14483 10267,14483 10922,14483 10926,14483 10929,14483 10932,14483 10934,14483 10936,14483 10938,14483 10939,14483 10941,14484 10943,14484 10945,14485 10947,14485 10948,14485 10949,14486 10950,14486 10951,14487 10952,14487 10955,14488 10958,14489 10959,14492 10961,14494 10963,14497 10965,14499 11128,14709 Z"/>
       </g>
      </g>
     </g>
    </g>
   </g>
  </g>
 </g>
</svg>