<?xml version="1.0" encoding="UTF-8"?>
<!DOCTYPE svg PUBLIC "-//W3C//DTD SVG 1.1//EN" "http://www.w3.org/Graphics/SVG/1.1/DTD/svg11.dtd">
<svg version="1.2" width="29.99mm" height="29.99mm" viewBox="9095 13408 2999 2999" preserveAspectRatio="xMidYMid" fill-rule="evenodd" stroke-width="28.222" stroke-linejoin="round" xmlns="http://www.w3.org/2000/svg" xmlns:ooo="http://xml.openoffice.org/svg/export" xmlns:xlink="http://www.w3.org/1999/xlink" xmlns:presentation="http://sun.com/xmlns/staroffice/presentation" xmlns:smil="http://www.w3.org/2001/SMIL20/" xmlns:anim="urn:oasis:names:tc:opendocument:xmlns:animation:1.0" xml:space="preserve">
 <defs class="ClipPathGroup">
  <clipPath id="presentation_clip_path" clipPathUnits="userSpaceOnUse">
   <rect x="9095" y="13408" width="2999" height="2999"/>
  </clipPath>
  <clipPath id="presentation_clip_path_shrink" clipPathUnits="userSpaceOnUse">
   <rect x="9097" y="13410" width="2994" height="2994"/>
  </clipPath>
 </defs>
 <defs class="TextShapeIndex">
  <g ooo:slide="id1" ooo:id-list="id3"/>
 </defs>
 <defs class="EmbeddedBulletChars">
  <g id="bullet-char-template-57356" transform="scale(0.00048828125,-0.00048828125)">
   <path d="M 580,1141 L 1163,571 580,0 -4,571 580,1141 Z"/>
  </g>
  <g id="bullet-char-template-57354" transform="scale(0.00048828125,-0.00048828125)">
   <path d="M 8,1128 L 1137,1128 1137,0 8,0 8,1128 Z"/>
  </g>
  <g id="bullet-char-template-10146" transform="scale(0.00048828125,-0.00048828125)">
   <path d="M 174,0 L 602,739 174,1481 1456,739 174,0 Z M 1358,739 L 309,1346 659,739 1358,739 Z"/>
  </g>
  <g id="bullet-char-template-10132" transform="scale(0.00048828125,-0.00048828125)">
   <path d="M 2015,739 L 1276,0 717,0 1260,543 174,543 174,936 1260,936 717,1481 1274,1481 2015,739 Z"/>
  </g>
  <g id="bullet-char-template-10007" transform="scale(0.00048828125,-0.00048828125)">
   <path d="M 0,-2 C -7,14 -16,27 -25,37 L 356,567 C 262,823 215,952 215,954 215,979 228,992 255,992 264,992 276,990 289,987 310,991 331,999 354,1012 L 381,999 492,748 772,1049 836,1024 860,1049 C 881,1039 901,1025 922,1006 886,937 835,863 770,784 769,783 710,716 594,584 L 774,223 C 774,196 753,168 711,139 L 727,119 C 717,90 699,76 672,76 641,76 570,178 457,381 L 164,-76 C 142,-110 111,-127 72,-127 30,-127 9,-110 8,-76 1,-67 -2,-52 -2,-32 -2,-23 -1,-13 0,-2 Z"/>
  </g>
  <g id="bullet-char-template-10004" transform="scale(0.00048828125,-0.00048828125)">
   <path d="M 285,-33 C 182,-33 111,30 74,156 52,228 41,333 41,471 41,549 55,616 82,672 116,743 169,778 240,778 293,778 328,747 346,684 L 369,508 C 377,444 397,411 428,410 L 1163,1116 C 1174,1127 1196,1133 1229,1133 1271,1133 1292,1118 1292,1087 L 1292,965 C 1292,929 1282,901 1262,881 L 442,47 C 390,-6 338,-33 285,-33 Z"/>
  </g>
  <g id="bullet-char-template-9679" transform="scale(0.00048828125,-0.00048828125)">
   <path d="M 813,0 C 632,0 489,54 383,161 276,268 223,411 223,592 223,773 276,916 383,1023 489,1130 632,1184 813,1184 992,1184 1136,1130 1245,1023 1353,916 1407,772 1407,592 1407,412 1353,268 1245,161 1136,54 992,0 813,0 Z"/>
  </g>
  <g id="bullet-char-template-8226" transform="scale(0.00048828125,-0.00048828125)">
   <path d="M 346,457 C 273,457 209,483 155,535 101,586 74,649 74,723 74,796 101,859 155,911 209,963 273,989 346,989 419,989 480,963 531,910 582,859 608,796 608,723 608,648 583,586 532,535 482,483 420,457 346,457 Z"/>
  </g>
  <g id="bullet-char-template-8211" transform="scale(0.00048828125,-0.00048828125)">
   <path d="M -4,459 L 1135,459 1135,606 -4,606 -4,459 Z"/>
  </g>
  <g id="bullet-char-template-61548" transform="scale(0.00048828125,-0.00048828125)">
   <path d="M 173,740 C 173,903 231,1043 346,1159 462,1274 601,1332 765,1332 928,1332 1067,1274 1183,1159 1299,1043 1357,903 1357,740 1357,577 1299,437 1183,322 1067,206 928,148 765,148 601,148 462,206 346,322 231,437 173,577 173,740 Z"/>
  </g>
 </defs>
 <defs class="TextEmbeddedBitmaps"/>
 <g class="SlideGroup">
  <g>
   <g id="container-id1">
    <g id="id1" class="Slide" clip-path="url(#presentation_clip_path)">
     <g class="Page">
      <g class="Graphic">
       <g id="id3">
        <rect class="BoundingBox" stroke="none" fill="none" x="9095" y="13408" width="3000" height="3000"/>
        <path fill="rgb(218,68,53)" stroke="none" d="M 10595,13408 L 10672,13410 10748,13416 10823,13425 10897,13439 10970,13455 11041,13476 11111,13499 11179,13526 11245,13556 11310,13589 11373,13625 11434,13664 11492,13706 11549,13751 11604,13798 11656,13847 11705,13899 11752,13954 11797,14011 11839,14069 11878,14130 11914,14193 11947,14258 11977,14324 12004,14392 12028,14462 12048,14533 12064,14606 12078,14680 12087,14755 12093,14831 12095,14908 12093,14985 12087,15061 12078,15136 12064,15210 12048,15283 12028,15354 12004,15424 11977,15492 11947,15558 11914,15623 11878,15686 11839,15747 11797,15806 11752,15862 11705,15917 11656,15969 11604,16018 11549,16065 11492,16110 11434,16152 11373,16191 11310,16227 11245,16260 11179,16290 11111,16317 11041,16341 10970,16361 10897,16377 10823,16391 10748,16400 10672,16406 10595,16408 10518,16406 10442,16400 10367,16391 10293,16377 10220,16361 10149,16341 10079,16317 10011,16290 9945,16260 9880,16227 9817,16191 9756,16152 9697,16110 9641,16065 9586,16018 9534,15969 9485,15917 9438,15862 9393,15806 9351,15747 9312,15686 9276,15623 9243,15558 9213,15492 9186,15424 9163,15354 9142,15283 9126,15210 9112,15136 9103,15061 9097,14985 9095,14908 9097,14831 9103,14755 9112,14680 9126,14606 9142,14533 9163,14462 9186,14392 9213,14324 9243,14258 9276,14193 9312,14130 9351,14069 9393,14011 9438,13954 9485,13899 9534,13847 9586,13798 9641,13751 9697,13706 9756,13664 9817,13625 9880,13589 9945,13556 10011,13526 10079,13499 10149,13476 10220,13455 10293,13439 10367,13425 10442,13416 10518,13410 10595,13408 Z"/>
        <path fill="rgb(255,255,255)" stroke="none" d="M 10595,13908 L 10608,13908 10620,13908 10633,13909 10646,13909 10658,13910 10671,13911 10683,13912 10696,13913 10708,13914 10721,13916 10733,13917 10745,13919 10758,13921 10770,13923 10782,13925 10794,13928 10807,13930 10819,13933 10831,13936 10843,13938 10855,13942 10867,13945 10879,13948 10890,13952 10902,13956 10914,13960 10926,13964 10938,13968 10949,13972 10961,13977 10973,13981 10984,13986 10995,13991 11006,13996 11017,14001 11028,14006 11039,14012 11050,14017 11061,14022 11071,14028 11082,14034 11092,14040 11103,14046 11113,14052 11123,14058 11133,14065 11143,14071 11153,14078 11163,14085 11173,14091 11183,14099 11193,14106 11202,14113 11212,14120 11221,14128 11230,14135 11240,14143 11249,14151 11258,14159 11267,14167 11276,14175 11285,14184 11293,14192 11302,14201 11311,14210 11319,14218 11328,14227 11336,14236 11344,14245 11352,14254 11360,14263 11368,14273 11375,14282 11383,14292 11390,14301 11397,14310 11404,14320 11412,14330 11418,14340 11425,14350 11432,14360 11438,14370 11445,14380 11451,14390 11457,14400 11463,14411 11469,14421 11475,14432 11481,14442 11486,14453 11491,14464 11497,14475 11502,14486 11507,14497 11512,14508 11517,14519 11522,14530 11526,14542 11531,14554 11535,14565 11539,14577 11543,14589 11547,14601 11551,14613 11555,14625 11558,14637 11561,14648 11565,14660 11568,14673 11570,14685 11573,14697 11575,14709 11578,14721 11580,14733 11582,14745 11584,14758 11586,14770 11587,14782 11589,14795 11590,14807 11591,14820 11592,14832 11593,14845 11594,14857 11594,14870 11595,14883 11595,14895 11595,14908 11595,14921 11595,14933 11594,14946 11594,14959 11593,14971 11592,14984 11591,14996 11590,15009 11589,15021 11587,15033 11586,15046 11584,15058 11582,15070 11580,15083 11578,15095 11575,15107 11573,15119 11570,15131 11568,15143 11565,15155 11561,15167 11558,15179 11555,15191 11551,15203 11547,15215 11543,15227 11539,15239 11535,15250 11531,15262 11526,15274 11522,15285 11517,15297 11512,15308 11507,15319 11502,15330 11497,15341 11491,15352 11486,15363 11481,15374 11475,15384 11469,15395 11463,15405 11457,15416 11451,15426 11445,15436 11438,15446 11432,15456 11425,15466 11418,15476 11412,15486 11404,15496 11397,15505 11390,15515 11383,15524 11375,15534 11368,15543 11360,15552 11352,15562 11344,15571 11336,15580 11328,15589 11319,15597 11311,15606 11302,15615 11293,15624 11285,15632 11276,15640 11267,15649 11258,15657 11249,15665 11240,15673 11230,15680 11221,15688 11212,15696 11202,15703 11193,15710 11183,15717 11173,15724 11163,15731 11153,15738 11143,15745 11133,15751 11123,15758 11113,15764 11103,15770 11092,15776 11082,15782 11071,15788 11061,15793 11050,15799 11039,15804 11028,15810 11017,15815 11006,15820 10995,15825 10984,15830 10973,15834 10961,15839 10949,15843 10938,15848 10926,15852 10914,15856 10902,15860 10890,15864 10879,15867 10867,15871 10855,15874 10843,15877 10831,15880 10819,15883 10807,15886 10794,15888 10782,15891 10770,15893 10758,15895 10745,15897 10733,15899 10721,15900 10708,15902 10696,15903 10683,15904 10671,15905 10658,15906 10646,15907 10633,15907 10620,15908 10608,15908 10595,15908 10582,15908 10570,15908 10557,15907 10544,15907 10532,15906 10519,15905 10507,15904 10494,15903 10482,15902 10470,15900 10457,15899 10445,15897 10433,15895 10420,15893 10408,15891 10396,15888 10384,15886 10372,15883 10360,15880 10348,15877 10336,15874 10324,15871 10312,15867 10300,15864 10288,15860 10276,15856 10264,15852 10253,15848 10241,15843 10229,15839 10218,15834 10206,15830 10195,15825 10184,15820 10173,15815 10162,15810 10151,15804 10140,15799 10129,15793 10119,15788 10108,15782 10098,15776 10087,15770 10077,15764 10067,15758 10057,15751 10047,15745 10037,15738 10027,15731 10017,15724 10007,15717 9998,15710 9988,15703 9979,15696 9969,15688 9960,15680 9951,15673 9941,15665 9932,15657 9923,15649 9914,15640 9906,15632 9897,15624 9888,15615 9880,15606 9871,15597 9863,15589 9854,15580 9846,15571 9838,15562 9830,15552 9823,15543 9815,15534 9808,15524 9800,15515 9793,15505 9786,15496 9779,15486 9772,15476 9765,15466 9758,15456 9752,15446 9745,15436 9739,15426 9733,15416 9727,15405 9721,15395 9715,15384 9710,15374 9704,15363 9699,15352 9694,15341 9688,15330 9683,15319 9678,15308 9673,15297 9669,15285 9664,15274 9660,15262 9655,15250 9651,15239 9647,15227 9643,15215 9639,15203 9636,15191 9632,15179 9629,15167 9626,15155 9623,15143 9620,15131 9617,15119 9615,15107 9612,15095 9610,15083 9608,15070 9606,15058 9604,15046 9603,15033 9601,15021 9600,15009 9599,14996 9598,14984 9597,14971 9596,14959 9596,14946 9595,14933 9595,14921 9595,14908 9595,14895 9595,14883 9596,14870 9596,14857 9597,14845 9598,14832 9599,14820 9600,14807 9601,14795 9603,14782 9604,14770 9606,14758 9608,14745 9610,14733 9612,14721 9615,14709 9617,14697 9620,14685 9623,14673 9626,14660 9629,14648 9632,14637 9636,14625 9639,14613 9643,14601 9647,14589 9651,14577 9655,14565 9660,14554 9664,14542 9669,14530 9673,14519 9678,14508 9683,14497 9688,14486 9694,14475 9699,14464 9704,14453 9710,14442 9715,14432 9721,14421 9727,14411 9733,14400 9739,14390 9745,14380 9752,14370 9758,14360 9765,14350 9772,14340 9779,14330 9786,14320 9793,14310 9800,14301 9808,14292 9815,14282 9823,14273 9830,14263 9838,14254 9846,14245 9854,14236 9863,14227 9871,14218 9880,14210 9888,14201 9897,14192 9906,14184 9914,14175 9923,14167 9932,14159 9941,14151 9951,14143 9960,14135 9969,14128 9979,14120 9988,14113 9998,14106 10007,14099 10017,14091 10027,14085 10037,14078 10047,14071 10057,14065 10067,14058 10077,14052 10087,14046 10098,14040 10108,14034 10119,14028 10129,14022 10140,14017 10151,14012 10162,14006 10173,14001 10184,13996 10195,13991 10206,13986 10218,13981 10229,13977 10241,13972 10253,13968 10264,13964 10276,13960 10288,13956 10300,13952 10312,13948 10324,13945 10336,13942 10348,13938 10360,13936 10372,13933 10384,13930 10396,13928 10408,13925 10420,13923 10433,13921 10445,13919 10457,13917 10470,13916 10482,13914 10494,13913 10507,13912 10519,13911 10532,13910 10544,13909 10557,13909 10570,13908 10582,13908 10595,13908 Z"/>
        <path fill="rgb(26,28,26)" stroke="none" d="M 9878,14880 L 9868,14869 9867,14867 9866,14865 9866,14864 9867,14862 9868,14859 9870,14857 9872,14854 9874,14852 9877,14849 9880,14846 9884,14843 9887,14841 9891,14838 9896,14835 9900,14832 9905,14829 9915,14823 9925,14817 9936,14811 9946,14806 9956,14801 9966,14796 9975,14793 9982,14790 9988,14788 9995,14786 10002,14784 10010,14782 10027,14778 10045,14775 10063,14772 10078,14769 10085,14768 10090,14768 10095,14767 10099,14767 10099,14724 10099,14721 10099,14717 10100,14715 10101,14713 10101,14712 10102,14711 10102,14710 10103,14709 10104,14708 10105,14708 10106,14707 10107,14707 10109,14706 10112,14706 10114,14706 10116,14706 10118,14707 10120,14707 10126,14708 10132,14710 10138,14712 10141,14713 10142,14711 10145,14709 10147,14707 10149,14705 10151,14703 10156,14699 10162,14696 10168,14691 10176,14688 10183,14684 10186,14683 10189,14681 10192,14680 10195,14680 10199,14679 10203,14679 10207,14679 10211,14679 10215,14680 10219,14680 10223,14680 10227,14681 10234,14682 10242,14684 10249,14686 10257,14688 10282,14697 10283,14697 10284,14697 10285,14697 10286,14697 10288,14696 10290,14696 10292,14695 10295,14694 10297,14693 10300,14691 10305,14689 10309,14686 10312,14685 10314,14685 10316,14684 10317,14684 10321,14684 10326,14685 10331,14686 10338,14688 10352,14691 10367,14695 10375,14697 10381,14698 10388,14699 10393,14699 10396,14699 10398,14699 10399,14699 10401,14699 10402,14698 10402,14697 10403,14696 10403,14695 10390,14647 10389,14643 10387,14636 10385,14628 10382,14619 10379,14610 10376,14602 10375,14598 10374,14596 10372,14594 10371,14593 10371,14592 10370,14592 10369,14592 10368,14593 10366,14593 10365,14594 10364,14594 10363,14595 10361,14596 10360,14597 10358,14598 10356,14598 10354,14598 10353,14598 10351,14598 10349,14598 10347,14598 10346,14597 10344,14597 10343,14596 10342,14595 10341,14594 10340,14592 10340,14591 10339,14589 10338,14586 10338,14584 10337,14582 10336,14580 10334,14577 10333,14576 10332,14574 10331,14573 10330,14572 10328,14572 10326,14571 10322,14570 10317,14568 10312,14567 10308,14567 10304,14566 10301,14566 10300,14565 10298,14565 10297,14565 10296,14564 10295,14563 10295,14562 10294,14561 10294,14559 10295,14556 10296,14553 10296,14550 10296,14547 10296,14545 10296,14543 10296,14542 10296,14540 10295,14538 10294,14536 10294,14534 10292,14532 10278,14503 10277,14502 10276,14501 10276,14499 10275,14498 10275,14495 10274,14492 10274,14486 10274,14481 10274,14474 10274,14468 10274,14465 10275,14462 10275,14459 10276,14456 10276,14452 10277,14448 10278,14445 10280,14442 10281,14439 10283,14435 10284,14432 10286,14430 10288,14427 10291,14424 10293,14422 10295,14419 10298,14417 10300,14415 10303,14412 10306,14410 10309,14409 10312,14407 10315,14405 10318,14403 10321,14402 10324,14401 10328,14400 10331,14398 10334,14397 10338,14397 10341,14396 10344,14395 10347,14394 10351,14394 10354,14394 10357,14393 10362,14393 10368,14393 10374,14393 10380,14394 10384,14394 10387,14395 10390,14396 10393,14397 10397,14398 10400,14399 10403,14401 10407,14403 10410,14405 10413,14407 10417,14409 10420,14412 10423,14415 10426,14418 10429,14422 10432,14425 10435,14430 10437,14434 10440,14439 10442,14444 10444,14449 10447,14455 10449,14461 10450,14468 10451,14471 10452,14475 10452,14479 10452,14482 10453,14489 10453,14495 10457,14495 10466,14496 10479,14497 10494,14498 10502,14499 10510,14500 10518,14501 10526,14502 10533,14503 10540,14505 10545,14506 10550,14508 10553,14509 10556,14510 10560,14512 10564,14514 10572,14519 10581,14525 10591,14532 10602,14539 10614,14547 10625,14556 10637,14565 10649,14574 10661,14584 10672,14594 10684,14603 10694,14612 10704,14621 10713,14630 10718,14634 10725,14640 10732,14645 10739,14651 10747,14657 10754,14664 10762,14671 10770,14679 10778,14686 10786,14694 10794,14702 10802,14710 10809,14718 10816,14726 10823,14734 10829,14742 10832,14747 10834,14753 10836,14755 10837,14758 10838,14761 10839,14764 10840,14768 10840,14771 10841,14775 10842,14778 10842,14782 10842,14786 10842,14790 10841,14794 10841,14797 10840,14802 10838,14807 10836,14813 10834,14820 10832,14826 10831,14828 10830,14830 10828,14832 10827,14833 10906,14885 10958,14823 10959,14822 10960,14821 10961,14820 10962,14818 10963,14817 10963,14816 10963,14814 10964,14813 10964,14811 10964,14808 10964,14806 10963,14804 10963,14802 10962,14801 10961,14800 10959,14799 10958,14798 10956,14797 10955,14796 10953,14795 10945,14793 10935,14790 10883,14771 10880,14769 10874,14766 10873,14764 10871,14763 10870,14761 10869,14759 10868,14757 10868,14754 10868,14751 10868,14748 10869,14746 10869,14744 10870,14742 10871,14741 10872,14739 10873,14738 10874,14737 10876,14736 10877,14735 10878,14734 10880,14733 10881,14733 10883,14732 10885,14732 11210,14726 11254,14728 11255,14728 11256,14728 11257,14728 11258,14729 11260,14730 11263,14732 11265,14734 11267,14737 11269,14740 11270,14743 11271,14745 11272,14748 11272,14750 11272,14752 11272,14754 11272,14756 11272,14758 11272,14760 11272,14762 11271,14763 11271,14765 11270,14766 11269,14768 11268,14770 11242,14797 11242,14799 11242,14802 11242,14803 11243,14805 11244,14807 11245,14808 11246,14809 11248,14811 11251,14813 11257,14819 11265,14827 11275,14836 11281,14841 11286,14847 11291,14852 11296,14857 11300,14862 11304,14868 11306,14870 11307,14872 11309,14875 11310,14877 11311,14878 11311,14880 11312,14882 11312,14884 11313,14889 11314,14894 11315,14897 11315,14899 11316,14901 11317,14903 11317,14904 11318,14906 11319,14906 11319,14906 11320,14907 11320,14907 11323,14907 11325,14907 11327,14907 11330,14908 11332,14909 11334,14909 11336,14910 11338,14912 11339,14913 11341,14914 11342,14916 11343,14918 11344,14919 11345,14921 11345,14923 11345,14925 11345,15064 11345,15066 11345,15069 11344,15070 11344,15072 11344,15073 11343,15074 11343,15075 11342,15076 11341,15076 11340,15077 11338,15078 11336,15079 11334,15079 11331,15080 11329,15080 11326,15080 11324,15080 11322,15080 11320,15079 11318,15079 11314,15078 11311,15077 11306,15075 11304,15074 11303,15076 11302,15081 11301,15084 11299,15087 11297,15091 11295,15096 11293,15101 11290,15106 11287,15111 11284,15117 11280,15123 11276,15129 11271,15135 11266,15141 11260,15147 11254,15153 11248,15159 11241,15165 11233,15171 11226,15176 11217,15181 11208,15186 11198,15191 11188,15195 11177,15198 11166,15201 11154,15204 11141,15206 11128,15207 11114,15207 11098,15207 11082,15206 11067,15203 11053,15200 11040,15197 11027,15192 11016,15187 11004,15182 10994,15175 10985,15169 10976,15162 10967,15155 10960,15147 10953,15139 10946,15132 10940,15124 10935,15116 10930,15108 10925,15100 10921,15093 10918,15085 10915,15078 10912,15072 10910,15066 10908,15060 10906,15055 10905,15050 10904,15046 10903,15041 10902,15039 10727,15109 10421,15110 10418,15110 10413,15109 10409,15109 10406,15109 10402,15108 10399,15107 10395,15106 10392,15105 10390,15104 10388,15103 10387,15102 10385,15101 10384,15100 10383,15098 10381,15097 10380,15095 10379,15094 10378,15092 10378,15090 10377,15088 10377,15087 10377,15085 10377,15083 10377,15082 10378,15080 10378,15078 10378,15077 10379,15075 10381,15072 10383,15069 10385,15066 10387,15063 10389,15060 10391,15057 10393,15054 10396,15052 10399,15049 10401,15047 10328,14950 10327,14949 10327,14948 10325,14946 10323,14944 10322,14943 10321,14942 10320,14942 10318,14941 10316,14941 10315,14941 10313,14941 10311,14941 10310,14942 10308,14943 10307,14944 10306,14945 10306,14946 10305,14947 10304,14948 10304,14949 10303,14954 10303,14956 10302,15016 10302,15019 10301,15023 10301,15026 10300,15028 10299,15030 10298,15031 10297,15032 10297,15033 10295,15034 10294,15035 10292,15035 10290,15036 10289,15036 10287,15036 10285,15036 10283,15036 10276,15036 10270,15035 10268,15044 10266,15053 10263,15062 10260,15071 10256,15079 10252,15087 10248,15096 10244,15104 10239,15111 10234,15119 10228,15126 10222,15133 10216,15140 10210,15146 10204,15152 10197,15158 10190,15164 10182,15169 10175,15174 10167,15179 10159,15184 10151,15188 10142,15191 10134,15195 10125,15198 10116,15200 10107,15203 10098,15204 10088,15206 10079,15207 10069,15208 10060,15208 10048,15208 10038,15207 10027,15205 10016,15204 10006,15201 9996,15198 9986,15195 9976,15191 9967,15187 9957,15182 9948,15177 9940,15171 9931,15165 9923,15159 9916,15152 9908,15145 9901,15138 9894,15130 9888,15122 9882,15114 9876,15105 9871,15096 9866,15087 9862,15077 9858,15068 9855,15058 9852,15048 9850,15037 9848,15027 9846,15016 9846,15005 9845,14994 9845,14986 9846,14978 9847,14971 9847,14963 9849,14956 9850,14948 9852,14941 9854,14934 9856,14927 9859,14919 9861,14913 9864,14906 9867,14899 9871,14893 9874,14886 9878,14880 Z"/>
        <path fill="rgb(255,255,255)" stroke="none" d="M 10419,14981 L 10363,14892 10362,14889 10361,14886 10360,14883 10359,14880 10359,14877 10359,14874 10359,14871 10359,14868 10359,14865 10359,14862 10360,14859 10361,14857 10362,14854 10363,14851 10365,14849 10367,14846 10369,14845 10370,14844 10372,14842 10374,14842 10376,14841 10378,14841 10381,14841 10383,14841 10385,14841 10388,14841 10390,14842 10393,14843 10395,14845 10398,14846 10400,14848 10402,14850 10404,14852 10405,14854 10407,14856 10408,14857 10411,14861 10413,14865 10415,14870 10417,14874 10419,14879 10420,14883 10421,14888 10422,14892 10423,14897 10424,14901 10425,14905 10425,14909 10425,14912 10425,14915 10425,14921 10424,14929 10423,14937 10422,14946 10421,14954 10420,14963 10420,14968 10419,14973 10419,14977 10419,14981 Z"/>
        <path fill="rgb(255,255,255)" stroke="none" d="M 10714,15008 L 10656,15002 10657,15000 10660,14995 10664,14988 10670,14979 10673,14974 10677,14968 10680,14963 10684,14958 10688,14953 10692,14948 10696,14944 10700,14939 10703,14936 10706,14933 10710,14930 10713,14927 10721,14921 10729,14915 10737,14910 10744,14905 10751,14900 10758,14896 10714,15008 Z"/>
        <path fill="rgb(255,255,255)" stroke="none" d="M 10344,14778 L 10213,14778 10214,14776 10216,14771 10219,14768 10221,14764 10224,14761 10227,14757 10229,14755 10231,14753 10233,14751 10235,14750 10237,14748 10240,14746 10242,14745 10245,14743 10247,14742 10250,14741 10253,14740 10256,14739 10259,14739 10262,14738 10266,14738 10269,14738 10274,14738 10278,14738 10282,14738 10286,14738 10288,14739 10291,14739 10293,14740 10295,14741 10298,14742 10301,14743 10304,14745 10307,14746 10312,14750 10317,14754 10322,14758 10327,14762 10331,14766 10336,14770 10340,14774 10344,14778 Z"/>
        <path fill="rgb(255,255,255)" stroke="none" d="M 10102,14970 L 10126,14934 10129,14937 10132,14940 10135,14944 10137,14947 10139,14951 10141,14955 10144,14959 10145,14963 10147,14967 10148,14971 10150,14975 10150,14979 10151,14984 10152,14988 10152,14993 10152,14998 10152,15002 10152,15007 10151,15012 10150,15016 10149,15021 10148,15025 10147,15029 10145,15033 10143,15037 10141,15041 10139,15045 10137,15049 10134,15052 10131,15056 10129,15059 10125,15062 10122,15065 10119,15068 10115,15071 10112,15074 10108,15076 10104,15078 10100,15080 10096,15082 10092,15084 10088,15085 10084,15086 10079,15087 10075,15088 10070,15089 10065,15089 10061,15089 10056,15089 10051,15089 10047,15088 10042,15087 10038,15086 10033,15085 10029,15084 10025,15082 10021,15080 10017,15078 10013,15076 10009,15074 10006,15071 10002,15068 9999,15065 9996,15062 9993,15059 9990,15056 9987,15052 9985,15049 9982,15045 9980,15041 9978,15037 9976,15033 9975,15029 9973,15025 9972,15021 9971,15016 9970,15012 9970,15007 9969,15002 9969,14998 9969,14993 9969,14989 9970,14984 9971,14980 9972,14976 9973,14971 9974,14967 9976,14963 9978,14959 9979,14955 9982,14951 9984,14948 9986,14944 9989,14941 9992,14937 9994,14934 9997,14931 10001,14928 10004,14926 10007,14923 10011,14921 10015,14918 10018,14916 10022,14915 10026,14913 10030,14911 10035,14910 10039,14909 10043,14908 10048,14907 10052,14907 10057,14906 10059,14948 10056,14948 10054,14948 10051,14949 10049,14949 10047,14950 10045,14951 10042,14951 10040,14952 10038,14953 10036,14954 10034,14956 10032,14957 10030,14958 10028,14960 10027,14961 10025,14963 10023,14965 10022,14966 10020,14968 10019,14970 10018,14972 10017,14974 10015,14976 10015,14979 10014,14981 10013,14983 10012,14985 10012,14988 10011,14990 10011,14992 10011,14995 10011,14997 10011,15000 10011,15003 10011,15005 10012,15007 10012,15010 10013,15012 10014,15014 10015,15017 10016,15019 10017,15021 10018,15023 10019,15025 10021,15027 10022,15029 10024,15031 10025,15032 10027,15034 10029,15036 10031,15037 10033,15038 10035,15040 10037,15041 10039,15042 10041,15043 10043,15044 10046,15045 10048,15045 10050,15046 10053,15046 10055,15047 10058,15047 10060,15047 10063,15047 10065,15047 10068,15046 10070,15046 10073,15045 10075,15045 10077,15044 10080,15043 10082,15042 10084,15041 10086,15040 10088,15038 10090,15037 10092,15036 10094,15034 10095,15032 10097,15031 10099,15029 10100,15027 10101,15025 10103,15023 10104,15021 10105,15019 10106,15017 10107,15014 10108,15012 10108,15010 10109,15007 10109,15005 10110,15003 10110,15000 10110,14997 10110,14994 10109,14990 10109,14986 10108,14983 10107,14980 10105,14976 10104,14973 10102,14970 Z"/>
        <path fill="rgb(255,255,255)" stroke="none" d="M 11154,15017 L 11191,15035 11190,15038 11188,15041 11187,15044 11185,15047 11183,15049 11181,15052 11179,15055 11177,15057 11175,15060 11173,15062 11171,15064 11168,15067 11166,15069 11163,15071 11161,15073 11158,15075 11155,15076 11152,15078 11149,15080 11146,15081 11143,15082 11140,15084 11137,15085 11134,15086 11131,15087 11128,15088 11124,15088 11121,15089 11118,15089 11114,15090 11111,15090 11107,15090 11102,15090 11098,15090 11093,15089 11089,15088 11084,15087 11080,15086 11076,15084 11072,15083 11068,15081 11064,15079 11060,15077 11056,15074 11053,15072 11049,15069 11046,15066 11043,15063 11040,15060 11037,15057 11034,15053 11031,15050 11029,15046 11027,15042 11025,15038 11023,15034 11021,15030 11020,15026 11019,15022 11018,15017 11017,15013 11016,15008 11016,15003 11016,14999 11016,14996 11016,14993 11016,14990 11016,14987 11017,14984 11018,14981 11018,14978 11019,14975 11020,14972 11021,14969 11022,14966 11023,14964 11024,14961 11025,14958 11026,14956 11028,14953 11065,14972 11064,14975 11062,14978 11061,14981 11059,14985 11059,14988 11058,14992 11057,14996 11057,14999 11057,15002 11057,15004 11058,15007 11058,15009 11059,15012 11059,15014 11060,15017 11061,15019 11062,15021 11063,15023 11065,15025 11066,15027 11067,15029 11069,15031 11070,15033 11072,15035 11074,15036 11075,15038 11077,15039 11079,15041 11081,15042 11083,15043 11086,15045 11088,15045 11090,15046 11092,15047 11095,15048 11097,15048 11100,15049 11102,15049 11105,15049 11107,15049 11111,15049 11115,15049 11119,15048 11123,15047 11126,15046 11130,15044 11133,15042 11136,15040 11139,15038 11142,15036 11145,15033 11147,15030 11149,15027 11151,15024 11153,15020 11154,15017 Z"/>
        <path fill="rgb(255,255,255)" stroke="none" d="M 11194,14970 L 11154,14981 11153,14978 11151,14975 11149,14971 11147,14968 11144,14966 11142,14963 11139,14960 11136,14958 11133,14956 11130,14954 11126,14953 11123,14952 11119,14951 11115,14950 11111,14949 11107,14949 11104,14949 11101,14950 11097,14950 11094,14951 11078,14912 11082,14911 11085,14910 11089,14909 11092,14909 11096,14908 11100,14908 11103,14908 11107,14908 11111,14908 11115,14908 11118,14908 11122,14909 11125,14909 11129,14910 11133,14911 11136,14912 11139,14913 11143,14915 11146,14916 11149,14918 11152,14919 11155,14921 11158,14923 11161,14925 11164,14927 11167,14930 11169,14932 11172,14934 11174,14937 11176,14939 11179,14942 11181,14945 11183,14948 11185,14951 11187,14954 11188,14957 11190,14960 11191,14963 11193,14967 11194,14970 Z"/>
       </g>
      </g>
     </g>
    </g>
   </g>
  </g>
 </g>
</svg>