<?xml version="1.0" encoding="UTF-8"?>
<!DOCTYPE svg PUBLIC "-//W3C//DTD SVG 1.1//EN" "http://www.w3.org/Graphics/SVG/1.1/DTD/svg11.dtd">
<svg version="1.2" width="29.99mm" height="29.99mm" viewBox="9095 13408 2999 2999" preserveAspectRatio="xMidYMid" fill-rule="evenodd" stroke-width="28.222" stroke-linejoin="round" xmlns="http://www.w3.org/2000/svg" xmlns:ooo="http://xml.openoffice.org/svg/export" xmlns:xlink="http://www.w3.org/1999/xlink" xmlns:presentation="http://sun.com/xmlns/staroffice/presentation" xmlns:smil="http://www.w3.org/2001/SMIL20/" xmlns:anim="urn:oasis:names:tc:opendocument:xmlns:animation:1.0" xml:space="preserve">
 <defs class="ClipPathGroup">
  <clipPath id="presentation_clip_path" clipPathUnits="userSpaceOnUse">
   <rect x="9095" y="13408" width="2999" height="2999"/>
  </clipPath>
  <clipPath id="presentation_clip_path_shrink" clipPathUnits="userSpaceOnUse">
   <rect x="9097" y="13410" width="2994" height="2994"/>
  </clipPath>
 </defs>
 <defs class="TextShapeIndex">
  <g ooo:slide="id1" ooo:id-list="id3"/>
 </defs>
 <defs class="EmbeddedBulletChars">
  <g id="bullet-char-template-57356" transform="scale(0.00048828125,-0.00048828125)">
   <path d="M 580,1141 L 1163,571 580,0 -4,571 580,1141 Z"/>
  </g>
  <g id="bullet-char-template-57354" transform="scale(0.00048828125,-0.00048828125)">
   <path d="M 8,1128 L 1137,1128 1137,0 8,0 8,1128 Z"/>
  </g>
  <g id="bullet-char-template-10146" transform="scale(0.00048828125,-0.00048828125)">
   <path d="M 174,0 L 602,739 174,1481 1456,739 174,0 Z M 1358,739 L 309,1346 659,739 1358,739 Z"/>
  </g>
  <g id="bullet-char-template-10132" transform="scale(0.00048828125,-0.00048828125)">
   <path d="M 2015,739 L 1276,0 717,0 1260,543 174,543 174,936 1260,936 717,1481 1274,1481 2015,739 Z"/>
  </g>
  <g id="bullet-char-template-10007" transform="scale(0.00048828125,-0.00048828125)">
   <path d="M 0,-2 C -7,14 -16,27 -25,37 L 356,567 C 262,823 215,952 215,954 215,979 228,992 255,992 264,992 276,990 289,987 310,991 331,999 354,1012 L 381,999 492,748 772,1049 836,1024 860,1049 C 881,1039 901,1025 922,1006 886,937 835,863 770,784 769,783 710,716 594,584 L 774,223 C 774,196 753,168 711,139 L 727,119 C 717,90 699,76 672,76 641,76 570,178 457,381 L 164,-76 C 142,-110 111,-127 72,-127 30,-127 9,-110 8,-76 1,-67 -2,-52 -2,-32 -2,-23 -1,-13 0,-2 Z"/>
  </g>
  <g id="bullet-char-template-10004" transform="scale(0.00048828125,-0.00048828125)">
   <path d="M 285,-33 C 182,-33 111,30 74,156 52,228 41,333 41,471 41,549 55,616 82,672 116,743 169,778 240,778 293,778 328,747 346,684 L 369,508 C 377,444 397,411 428,410 L 1163,1116 C 1174,1127 1196,1133 1229,1133 1271,1133 1292,1118 1292,1087 L 1292,965 C 1292,929 1282,901 1262,881 L 442,47 C 390,-6 338,-33 285,-33 Z"/>
  </g>
  <g id="bullet-char-template-9679" transform="scale(0.00048828125,-0.00048828125)">
   <path d="M 813,0 C 632,0 489,54 383,161 276,268 223,411 223,592 223,773 276,916 383,1023 489,1130 632,1184 813,1184 992,1184 1136,1130 1245,1023 1353,916 1407,772 1407,592 1407,412 1353,268 1245,161 1136,54 992,0 813,0 Z"/>
  </g>
  <g id="bullet-char-template-8226" transform="scale(0.00048828125,-0.00048828125)">
   <path d="M 346,457 C 273,457 209,483 155,535 101,586 74,649 74,723 74,796 101,859 155,911 209,963 273,989 346,989 419,989 480,963 531,910 582,859 608,796 608,723 608,648 583,586 532,535 482,483 420,457 346,457 Z"/>
  </g>
  <g id="bullet-char-template-8211" transform="scale(0.00048828125,-0.00048828125)">
   <path d="M -4,459 L 1135,459 1135,606 -4,606 -4,459 Z"/>
  </g>
  <g id="bullet-char-template-61548" transform="scale(0.00048828125,-0.00048828125)">
   <path d="M 173,740 C 173,903 231,1043 346,1159 462,1274 601,1332 765,1332 928,1332 1067,1274 1183,1159 1299,1043 1357,903 1357,740 1357,577 1299,437 1183,322 1067,206 928,148 765,148 601,148 462,206 346,322 231,437 173,577 173,740 Z"/>
  </g>
 </defs>
 <defs class="TextEmbeddedBitmaps"/>
 <g class="SlideGroup">
  <g>
   <g id="container-id1">
    <g id="id1" class="Slide" clip-path="url(#presentation_clip_path)">
     <g class="Page">
      <g class="Graphic">
       <g id="id3">
        <rect class="BoundingBox" stroke="none" fill="none" x="9095" y="13408" width="3000" height="3000"/>
        <path fill="rgb(218,68,53)" stroke="none" d="M 10595,13408 L 10672,13410 10748,13416 10823,13425 10897,13439 10970,13455 11041,13476 11111,13499 11179,13526 11245,13556 11310,13589 11373,13625 11434,13664 11492,13706 11549,13751 11604,13798 11656,13847 11705,13899 11752,13954 11797,14011 11839,14069 11878,14130 11914,14193 11947,14258 11977,14324 12004,14392 12028,14462 12048,14533 12064,14606 12078,14680 12087,14755 12093,14831 12095,14908 12093,14985 12087,15061 12078,15136 12064,15210 12048,15283 12028,15354 12004,15424 11977,15492 11947,15558 11914,15623 11878,15686 11839,15747 11797,15806 11752,15862 11705,15917 11656,15969 11604,16018 11549,16065 11492,16110 11434,16152 11373,16191 11310,16227 11245,16260 11179,16290 11111,16317 11041,16341 10970,16361 10897,16377 10823,16391 10748,16400 10672,16406 10595,16408 10518,16406 10442,16400 10367,16391 10293,16377 10220,16361 10149,16341 10079,16317 10011,16290 9945,16260 9880,16227 9817,16191 9756,16152 9697,16110 9641,16065 9586,16018 9534,15969 9485,15917 9438,15862 9393,15806 9351,15747 9312,15686 9276,15623 9243,15558 9213,15492 9186,15424 9163,15354 9142,15283 9126,15210 9112,15136 9103,15061 9097,14985 9095,14908 9097,14831 9103,14755 9112,14680 9126,14606 9142,14533 9163,14462 9186,14392 9213,14324 9243,14258 9276,14193 9312,14130 9351,14069 9393,14011 9438,13954 9485,13899 9534,13847 9586,13798 9641,13751 9697,13706 9756,13664 9817,13625 9880,13589 9945,13556 10011,13526 10079,13499 10149,13476 10220,13455 10293,13439 10367,13425 10442,13416 10518,13410 10595,13408 Z"/>
        <path fill="rgb(255,255,255)" stroke="none" d="M 10595,13908 L 10608,13908 10620,13908 10633,13909 10646,13909 10658,13910 10671,13911 10683,13912 10696,13913 10708,13914 10721,13916 10733,13917 10745,13919 10758,13921 10770,13923 10782,13925 10794,13928 10807,13930 10819,13933 10831,13935 10843,13938 10855,13942 10867,13945 10879,13948 10890,13952 10902,13956 10914,13960 10926,13964 10938,13968 10949,13972 10961,13977 10973,13981 10984,13986 10995,13991 11006,13996 11017,14001 11028,14006 11039,14012 11050,14017 11061,14022 11071,14028 11082,14034 11092,14040 11103,14046 11113,14052 11123,14058 11133,14065 11143,14071 11153,14078 11163,14085 11173,14091 11183,14099 11193,14106 11202,14113 11212,14120 11221,14128 11230,14135 11240,14143 11249,14151 11258,14159 11267,14167 11276,14175 11285,14184 11293,14192 11302,14201 11311,14210 11319,14218 11328,14227 11336,14236 11344,14245 11352,14254 11360,14263 11368,14273 11375,14282 11383,14292 11390,14301 11397,14310 11404,14320 11412,14330 11418,14340 11425,14350 11432,14360 11438,14370 11445,14380 11451,14390 11457,14400 11463,14411 11469,14421 11475,14432 11481,14442 11486,14453 11491,14464 11497,14475 11502,14486 11507,14497 11512,14508 11517,14519 11522,14530 11526,14542 11531,14554 11535,14565 11539,14577 11543,14589 11547,14601 11551,14613 11555,14625 11558,14637 11561,14648 11565,14660 11567,14673 11570,14685 11573,14697 11575,14709 11578,14721 11580,14733 11582,14745 11584,14758 11586,14770 11587,14782 11589,14795 11590,14807 11591,14820 11592,14832 11593,14845 11594,14857 11594,14870 11595,14883 11595,14895 11595,14908 11595,14921 11595,14933 11594,14946 11594,14958 11593,14971 11592,14984 11591,14996 11590,15009 11589,15021 11587,15033 11586,15046 11584,15058 11582,15070 11580,15083 11578,15095 11575,15107 11573,15119 11570,15131 11567,15143 11565,15155 11561,15167 11558,15179 11555,15191 11551,15203 11547,15215 11543,15227 11539,15239 11535,15250 11531,15262 11526,15274 11522,15285 11517,15297 11512,15308 11507,15319 11502,15330 11497,15341 11491,15352 11486,15363 11481,15374 11475,15384 11469,15395 11463,15405 11457,15416 11451,15426 11445,15436 11438,15446 11432,15456 11425,15466 11418,15476 11412,15486 11404,15496 11397,15505 11390,15515 11383,15524 11375,15534 11368,15543 11360,15552 11352,15562 11344,15571 11336,15580 11328,15589 11319,15597 11311,15606 11302,15615 11293,15624 11285,15632 11276,15640 11267,15649 11258,15657 11249,15665 11240,15673 11230,15680 11221,15688 11212,15696 11202,15703 11193,15710 11183,15717 11173,15724 11163,15731 11153,15738 11143,15745 11133,15751 11123,15758 11113,15764 11103,15770 11092,15776 11082,15782 11071,15788 11061,15793 11050,15799 11039,15804 11028,15810 11017,15815 11006,15820 10995,15825 10984,15830 10973,15834 10961,15839 10949,15843 10938,15848 10926,15852 10914,15856 10902,15860 10890,15864 10879,15867 10867,15871 10855,15874 10843,15877 10831,15880 10819,15883 10807,15886 10794,15888 10782,15891 10770,15893 10758,15895 10745,15897 10733,15899 10721,15900 10708,15902 10696,15903 10683,15904 10671,15905 10658,15906 10646,15907 10633,15907 10620,15908 10608,15908 10595,15908 10582,15908 10570,15908 10557,15907 10545,15907 10532,15906 10519,15905 10507,15904 10494,15903 10482,15902 10470,15900 10457,15899 10445,15897 10433,15895 10420,15893 10408,15891 10396,15888 10384,15886 10372,15883 10360,15880 10348,15877 10336,15874 10324,15871 10312,15867 10300,15864 10288,15860 10276,15856 10264,15852 10253,15848 10241,15843 10229,15839 10218,15834 10206,15830 10195,15825 10184,15820 10173,15815 10162,15810 10151,15804 10140,15799 10129,15793 10119,15788 10108,15782 10098,15776 10087,15770 10077,15764 10067,15758 10057,15751 10047,15745 10037,15738 10027,15731 10017,15724 10007,15717 9998,15710 9988,15703 9979,15696 9969,15688 9960,15680 9951,15673 9941,15665 9932,15657 9923,15649 9914,15640 9906,15632 9897,15624 9888,15615 9879,15606 9871,15597 9863,15589 9854,15580 9846,15571 9838,15562 9830,15552 9823,15543 9815,15534 9808,15524 9800,15515 9793,15505 9786,15496 9779,15486 9772,15476 9765,15466 9758,15456 9752,15446 9745,15436 9739,15426 9733,15416 9727,15405 9721,15395 9715,15384 9710,15374 9704,15363 9699,15352 9694,15341 9688,15330 9683,15319 9678,15308 9673,15297 9669,15285 9664,15274 9660,15262 9655,15250 9651,15239 9647,15227 9643,15215 9639,15203 9636,15191 9632,15179 9629,15167 9626,15155 9623,15143 9620,15131 9617,15119 9615,15107 9612,15095 9610,15083 9608,15070 9606,15058 9604,15046 9603,15033 9601,15021 9600,15009 9599,14996 9598,14984 9597,14971 9596,14958 9596,14946 9595,14933 9595,14921 9595,14908 9595,14895 9595,14883 9596,14870 9596,14857 9597,14845 9598,14832 9599,14820 9600,14807 9601,14795 9603,14782 9604,14770 9606,14758 9608,14745 9610,14733 9612,14721 9615,14709 9617,14697 9620,14685 9623,14673 9626,14660 9629,14648 9632,14637 9636,14625 9639,14613 9643,14601 9647,14589 9651,14577 9655,14565 9660,14554 9664,14542 9669,14530 9673,14519 9678,14508 9683,14497 9688,14486 9694,14475 9699,14464 9704,14453 9710,14442 9715,14432 9721,14421 9727,14411 9733,14400 9739,14390 9745,14380 9752,14370 9758,14360 9765,14350 9772,14340 9779,14330 9786,14320 9793,14310 9800,14301 9808,14292 9815,14282 9823,14273 9830,14263 9838,14254 9846,14245 9854,14236 9863,14227 9871,14218 9879,14210 9888,14201 9897,14192 9906,14184 9914,14175 9923,14167 9932,14159 9941,14151 9951,14143 9960,14135 9969,14128 9979,14120 9988,14113 9998,14106 10007,14099 10017,14091 10027,14085 10037,14078 10047,14071 10057,14065 10067,14058 10077,14052 10087,14046 10098,14040 10108,14034 10119,14028 10129,14022 10140,14017 10151,14012 10162,14006 10173,14001 10184,13996 10195,13991 10206,13986 10218,13981 10229,13977 10241,13972 10253,13968 10264,13964 10276,13960 10288,13956 10300,13952 10312,13948 10324,13945 10336,13942 10348,13938 10360,13935 10372,13933 10384,13930 10396,13928 10408,13925 10420,13923 10433,13921 10445,13919 10457,13917 10470,13916 10482,13914 10494,13913 10507,13912 10519,13911 10532,13910 10545,13909 10557,13909 10570,13908 10582,13908 10595,13908 Z"/>
        <path fill="rgb(26,28,26)" stroke="none" d="M 10338,14465 L 10441,14433 10488,14459 10467,14487 10435,14475 10369,14493 10355,14525 10433,14526 10388,14599 10870,14600 10893,14558 10889,14558 10884,14558 10879,14558 10875,14558 10871,14558 10866,14557 10860,14556 10855,14555 10850,14554 10844,14553 10842,14552 10840,14551 10837,14550 10835,14549 10833,14548 10831,14547 10829,14545 10827,14544 10825,14542 10824,14540 10822,14538 10822,14536 10821,14534 10821,14532 10820,14531 10820,14529 10820,14527 10821,14525 10821,14523 10822,14522 10823,14521 10825,14520 10826,14519 10828,14518 10831,14517 10835,14517 10837,14516 10840,14516 10845,14516 10849,14516 10854,14516 10858,14516 10861,14516 10864,14516 10868,14516 10874,14516 10880,14515 10886,14515 10892,14514 10898,14514 10904,14513 10908,14512 10912,14512 10917,14511 10923,14511 10929,14510 10935,14509 10941,14508 10946,14508 10950,14507 10989,14498 10991,14498 10994,14497 10997,14497 11000,14497 11003,14497 11006,14497 11009,14498 11012,14498 11014,14499 11016,14500 11018,14502 11020,14503 11022,14505 11023,14507 11025,14509 11026,14511 11026,14514 11026,14516 11026,14518 11026,14520 11026,14523 11025,14525 11025,14527 11024,14529 11023,14531 11021,14533 11020,14535 11019,14537 11017,14539 11015,14541 11013,14542 11011,14544 11009,14545 11007,14546 11004,14547 11001,14548 10994,14550 10989,14551 10963,14558 10960,14559 10956,14559 10953,14560 10949,14560 10942,14561 10935,14561 10910,14602 10986,14758 10989,14757 10993,14755 10997,14754 11001,14752 11005,14751 11009,14750 11012,14748 11016,14747 11022,14746 11027,14744 11033,14743 11039,14742 11045,14741 11051,14740 11057,14740 11063,14739 11069,14739 11074,14739 11080,14739 11086,14739 11092,14739 11098,14740 11104,14740 11110,14741 11116,14742 11122,14743 11128,14744 11134,14745 11139,14746 11145,14748 11151,14749 11156,14751 11162,14753 11167,14755 11173,14757 11178,14759 11184,14761 11189,14763 11194,14766 11199,14768 11205,14771 11210,14774 11215,14777 11220,14780 11225,14783 11230,14786 11234,14790 11239,14793 11244,14796 11248,14800 11253,14804 11257,14808 11261,14811 11266,14816 11270,14820 11274,14824 11278,14828 11282,14833 11286,14837 11290,14842 11293,14847 11297,14851 11300,14856 11303,14861 11307,14866 11310,14871 11313,14876 11315,14881 11318,14887 11321,14892 11323,14897 11326,14903 11328,14908 11330,14914 11332,14919 11334,14925 11335,14930 11337,14936 11338,14942 11340,14947 11341,14953 11342,14959 11343,14965 11344,14970 11344,14976 11345,14982 11345,14988 11345,14994 11345,15000 11345,15007 11345,15013 11344,15020 11344,15026 11343,15032 11342,15039 11341,15045 11340,15051 11339,15057 11337,15063 11336,15069 11334,15075 11332,15081 11330,15087 11327,15093 11325,15099 11323,15105 11320,15110 11317,15116 11314,15122 11311,15127 11308,15133 11304,15138 11301,15143 11297,15148 11293,15153 11290,15159 11285,15164 11281,15168 11277,15173 11273,15178 11268,15183 11263,15187 11258,15192 11253,15196 11248,15200 11243,15204 11237,15208 11232,15212 11227,15216 11221,15219 11215,15222 11209,15225 11204,15229 11198,15231 11192,15234 11186,15237 11180,15239 11174,15242 11167,15244 11161,15246 11155,15248 11148,15249 11142,15251 11135,15252 11129,15254 11122,15255 11116,15256 11109,15256 11103,15257 11096,15258 11089,15258 11083,15258 11076,15258 11070,15258 11064,15257 11058,15257 11052,15256 11046,15255 11040,15255 11033,15254 11027,15252 11021,15251 11015,15250 11010,15248 11004,15246 10998,15245 10992,15243 10986,15240 10981,15238 10975,15236 10969,15234 10964,15231 10959,15228 10953,15225 10948,15222 10943,15219 10937,15216 10932,15213 10927,15209 10922,15205 10918,15202 10913,15198 10908,15194 10903,15190 10899,15186 10895,15181 10891,15177 10887,15173 10883,15168 10879,15163 10875,15159 10872,15154 10868,15149 10865,15144 10862,15139 10858,15134 10855,15129 10853,15123 10850,15118 10847,15113 10845,15108 10843,15104 10841,15099 10839,15094 10837,15090 10836,15085 10834,15080 10833,15075 10831,15071 10830,15066 10829,15061 10828,15056 10826,15051 10825,15046 10825,15041 10824,15036 10823,15030 10822,15022 10822,15015 10821,15009 10726,15008 10725,15011 10724,15013 10722,15018 10720,15023 10717,15027 10714,15032 10712,15034 10710,15037 10708,15040 10705,15042 10703,15044 10700,15047 10698,15048 10695,15050 10693,15052 10690,15053 10687,15054 10685,15056 10693,15093 10715,15088 10720,15105 10665,15119 10660,15104 10678,15098 10669,15061 10667,15061 10665,15062 10663,15062 10661,15062 10656,15063 10651,15063 10646,15063 10641,15063 10636,15062 10631,15061 10626,15059 10621,15058 10617,15056 10612,15054 10608,15051 10603,15049 10599,15046 10596,15042 10592,15039 10588,15035 10585,15031 10582,15027 10579,15023 10577,15018 10575,15014 10573,15009 10571,15005 10570,15000 10569,14995 10569,14990 10568,14985 10568,14980 10569,14975 10569,14970 10570,14965 10572,14960 10572,14958 10573,14957 10573,14955 10574,14953 10298,14744 10269,14786 10275,14791 10282,14796 10288,14801 10293,14806 10298,14810 10303,14815 10308,14820 10313,14825 10317,14830 10321,14835 10326,14840 10330,14846 10334,14851 10337,14857 10341,14862 10345,14868 10348,14874 10351,14880 10354,14886 10357,14892 10359,14898 10362,14904 10364,14910 10366,14916 10368,14923 10370,14929 10371,14936 10373,14942 10374,14949 10375,14955 10375,14962 10376,14969 10376,14975 10377,14982 10377,14989 10376,14995 10375,15009 10374,15022 10371,15035 10368,15048 10365,15061 10361,15073 10356,15086 10351,15097 10345,15109 10339,15120 10332,15131 10325,15142 10318,15152 10309,15162 10301,15172 10292,15181 10283,15189 10273,15198 10263,15205 10252,15212 10241,15219 10230,15225 10219,15231 10207,15236 10195,15241 10183,15245 10170,15248 10157,15251 10144,15253 10131,15254 10117,15255 10104,15255 10090,15254 10077,15253 10064,15251 10051,15248 10039,15245 10027,15241 10015,15237 10003,15231 9992,15226 9981,15220 9970,15213 9960,15206 9950,15198 9941,15190 9931,15182 9923,15173 9914,15164 9906,15154 9899,15144 9892,15133 9885,15123 9879,15112 9873,15100 9868,15088 9863,15077 9859,15064 9855,15052 9852,15039 9850,15027 9848,15014 9846,15000 9845,14987 9845,14979 9845,14972 9846,14964 9846,14956 9847,14948 9848,14941 9850,14933 9851,14926 9853,14919 9855,14911 9858,14904 9860,14897 9863,14890 9866,14883 9870,14876 9873,14870 9877,14863 9881,14856 9885,14850 9889,14844 9894,14838 9898,14832 9903,14826 9908,14820 9914,14814 9919,14809 9925,14803 9931,14798 9937,14793 9943,14788 9949,14784 9956,14779 9963,14775 9970,14770 9977,14766 9985,14762 9993,14758 10000,14755 10008,14751 10016,14748 10024,14746 10032,14743 10040,14741 10048,14739 10056,14737 10064,14736 10073,14734 10081,14733 10089,14732 10098,14732 10106,14732 10114,14732 10123,14732 10131,14732 10139,14733 10148,14734 10156,14735 10164,14737 10172,14739 10180,14741 10189,14743 10197,14746 10205,14749 10213,14752 10218,14755 10224,14757 10230,14760 10235,14763 10365,14561 10294,14559 10338,14465 Z"/>
        <path fill="rgb(255,255,255)" stroke="none" d="M 10132,14995 L 10248,14817 10251,14819 10254,14821 10257,14823 10260,14826 10264,14829 10269,14833 10273,14838 10278,14842 10282,14846 10285,14850 10289,14855 10293,14860 10297,14864 10300,14869 10303,14874 10306,14879 10309,14884 10312,14889 10315,14895 10317,14900 10319,14905 10321,14910 10324,14916 10325,14921 10327,14927 10329,14933 10330,14938 10331,14944 10332,14950 10333,14956 10334,14961 10334,14967 10335,14973 10335,14979 10335,14985 10334,14991 10334,15002 10332,15014 10330,15025 10328,15036 10325,15046 10322,15057 10318,15067 10314,15077 10310,15087 10305,15097 10300,15106 10294,15115 10288,15124 10281,15133 10274,15141 10267,15149 10260,15156 10252,15164 10243,15170 10235,15177 10226,15183 10217,15188 10207,15193 10198,15198 10188,15202 10178,15206 10167,15209 10157,15212 10146,15214 10135,15215 10124,15216 10112,15217 10101,15217 10089,15216 10078,15215 10067,15213 10056,15210 10045,15207 10034,15204 10024,15200 10014,15195 10005,15190 9995,15185 9986,15179 9977,15173 9969,15166 9960,15159 9952,15151 9945,15144 9938,15135 9931,15127 9925,15118 9919,15109 9913,15099 9908,15090 9903,15079 9899,15069 9895,15059 9892,15048 9889,15037 9886,15026 9884,15015 9883,15003 9882,14992 9882,14985 9882,14979 9882,14972 9883,14965 9883,14958 9884,14952 9886,14945 9887,14939 9889,14933 9890,14926 9892,14920 9895,14914 9897,14908 9900,14901 9903,14895 9906,14890 9909,14884 9912,14878 9916,14873 9919,14867 9923,14862 9927,14856 9932,14851 9936,14846 9941,14841 9945,14836 9950,14832 9955,14827 9960,14823 9966,14819 9971,14814 9977,14811 9981,14808 9985,14805 9989,14803 9993,14800 9997,14798 10002,14796 10006,14794 10011,14792 10015,14790 10020,14788 10024,14786 10029,14784 10038,14781 10047,14779 10057,14776 10066,14774 10076,14773 10086,14772 10095,14771 10105,14770 10115,14770 10125,14770 10130,14770 10135,14770 10140,14771 10145,14771 10150,14772 10155,14773 10160,14774 10165,14775 10170,14776 10175,14777 10180,14779 10185,14780 10190,14782 10195,14784 10199,14786 10204,14788 10206,14790 10210,14792 10213,14794 10215,14796 10097,14977 10095,14979 10093,14983 10090,14988 10089,14990 10088,14991 10088,14993 10088,14994 10088,14995 10089,14997 10089,14998 10089,15000 10090,15001 10090,15002 10091,15003 10092,15004 10093,15006 10093,15007 10094,15008 10096,15009 10097,15009 10098,15011 10100,15011 10102,15012 10103,15013 10105,15013 10107,15013 10109,15014 10111,15014 10112,15013 10114,15013 10116,15013 10117,15012 10119,15011 10121,15010 10122,15009 10124,15008 10132,14995 Z"/>
        <path fill="rgb(255,255,255)" stroke="none" d="M 11084,14951 L 11003,14789 11006,14788 11010,14787 11014,14786 11017,14785 11023,14783 11029,14782 11035,14780 11041,14779 11047,14778 11053,14778 11060,14777 11066,14776 11072,14776 11078,14776 11084,14776 11090,14776 11096,14777 11103,14777 11109,14778 11115,14779 11121,14780 11127,14781 11133,14782 11139,14784 11145,14785 11151,14787 11156,14789 11162,14791 11168,14793 11174,14796 11179,14799 11185,14801 11190,14804 11196,14807 11201,14810 11206,14813 11212,14817 11218,14821 11224,14826 11229,14830 11234,14834 11240,14839 11245,14844 11250,14849 11254,14854 11259,14859 11263,14864 11267,14869 11271,14875 11275,14881 11279,14886 11282,14892 11286,14898 11289,14904 11292,14910 11294,14917 11297,14923 11299,14929 11301,14936 11303,14942 11305,14949 11306,14956 11307,14962 11308,14969 11308,14976 11309,14983 11309,14990 11309,14997 11308,15008 11307,15019 11305,15030 11303,15041 11301,15052 11298,15063 11294,15073 11290,15083 11286,15093 11281,15103 11275,15113 11270,15122 11264,15131 11257,15139 11250,15147 11243,15156 11236,15163 11228,15170 11219,15177 11211,15184 11202,15190 11193,15195 11183,15201 11174,15205 11164,15210 11154,15213 11143,15217 11133,15219 11122,15222 11110,15223 11099,15225 11088,15225 11077,15225 11066,15224 11055,15223 11045,15222 11034,15220 11024,15217 11014,15214 11004,15211 10995,15207 10985,15203 10976,15198 10967,15193 10958,15187 10950,15181 10942,15175 10934,15168 10927,15162 10919,15154 10912,15147 10906,15139 10899,15130 10894,15122 10888,15113 10883,15104 10878,15095 10874,15085 10870,15075 10866,15065 10863,15055 10860,15045 10858,15034 10856,15024 10856,15021 10855,15018 10855,15014 10855,15011 11034,15009 11035,15012 11036,15015 11037,15018 11039,15021 11041,15024 11042,15027 11045,15030 11047,15033 11050,15035 11052,15037 11055,15039 11058,15041 11061,15043 11064,15044 11068,15045 11071,15046 11074,15047 11078,15047 11081,15048 11085,15047 11087,15047 11090,15047 11092,15046 11094,15046 11096,15045 11098,15044 11100,15044 11102,15043 11104,15042 11106,15041 11108,15039 11110,15038 11113,15036 11116,15033 11119,15029 11122,15026 11123,15024 11124,15022 11125,15020 11126,15018 11127,15016 11128,15014 11128,15012 11129,15010 11129,15008 11130,15005 11130,15003 11130,15001 11130,14997 11130,14992 11129,14988 11128,14984 11126,14980 11125,14977 11123,14973 11120,14970 11118,14967 11115,14964 11112,14961 11109,14959 11105,14957 11101,14955 11098,14953 11093,14952 11091,14951 11089,14951 11087,14951 11084,14951 Z"/>
        <path fill="rgb(255,255,255)" stroke="none" d="M 10363,14639 L 10843,14640 10681,14910 10676,14909 10671,14908 10666,14907 10661,14906 10658,14906 10654,14906 10650,14905 10646,14905 10640,14881 10658,14876 10654,14861 10599,14875 10603,14890 10621,14886 10627,14907 10623,14909 10618,14911 10615,14912 10613,14912 10611,14914 10609,14915 10606,14917 10603,14919 10600,14922 10597,14924 10316,14714 10363,14639 Z"/>
        <path fill="rgb(255,255,255)" stroke="none" d="M 10886,14642 L 10953,14775 10948,14777 10942,14780 10939,14782 10936,14783 10934,14785 10931,14786 10927,14790 10922,14793 10917,14797 10913,14801 10908,14805 10904,14809 10900,14813 10895,14817 10891,14822 10887,14826 10883,14831 10879,14835 10876,14840 10872,14845 10868,14850 10865,14855 10862,14860 10858,14865 10855,14871 10852,14876 10849,14881 10847,14887 10844,14892 10841,14898 10839,14904 10837,14909 10835,14915 10833,14921 10831,14926 10829,14932 10828,14938 10826,14944 10825,14948 10825,14951 10824,14955 10823,14959 10823,14963 10822,14967 10821,14971 10821,14974 10730,14976 10729,14973 10729,14970 10728,14967 10727,14964 10726,14961 10725,14957 10723,14954 10722,14951 10720,14948 10718,14945 10716,14942 10714,14939 10713,14938 10711,14936 10709,14934 10708,14932 10886,14642 Z"/>
        <path fill="rgb(255,255,255)" stroke="none" d="M 10971,14804 L 11050,14961 11047,14963 11044,14966 11043,14968 11042,14969 11041,14971 11040,14972 10858,14974 10858,14971 10858,14967 10858,14963 10858,14960 10859,14955 10860,14950 10861,14945 10863,14940 10864,14935 10866,14930 10867,14925 10869,14921 10871,14915 10874,14911 10876,14906 10878,14901 10881,14896 10884,14891 10887,14886 10890,14881 10893,14876 10896,14872 10899,14867 10903,14862 10906,14858 10910,14853 10914,14849 10918,14845 10922,14841 10926,14837 10930,14833 10935,14829 10939,14826 10943,14822 10948,14819 10953,14815 10957,14813 10962,14810 10967,14807 10971,14804 Z"/>
        <path fill="rgb(255,255,255)" stroke="none" d="M 10592,14968 L 10655,15011 10663,15039 10661,15039 10660,15039 10658,15040 10657,15040 10653,15041 10650,15041 10647,15041 10643,15040 10640,15040 10637,15039 10634,15039 10631,15038 10628,15037 10626,15036 10623,15034 10620,15033 10618,15031 10615,15029 10613,15027 10611,15025 10608,15023 10606,15021 10604,15019 10602,15016 10601,15014 10599,15011 10598,15008 10596,15005 10595,15002 10594,14999 10593,14996 10592,14993 10592,14990 10591,14987 10591,14984 10591,14980 10591,14977 10591,14974 10592,14971 10592,14968 Z"/>
        <path fill="rgb(255,255,255)" stroke="none" d="M 10613,14939 L 10615,14938 10617,14936 10619,14935 10621,14934 10623,14933 10625,14932 10627,14931 10629,14930 10631,14930 10633,14930 10641,14959 10613,14939 Z"/>
        <path fill="rgb(255,255,255)" stroke="none" d="M 10656,14946 L 10650,14928 10652,14928 10654,14928 10656,14928 10658,14928 10662,14928 10666,14929 10656,14946 Z"/>
        <path fill="rgb(255,255,255)" stroke="none" d="M 10681,14972 L 10696,14948 10696,14949 10697,14951 10699,14952 10699,14954 10702,14957 10703,14960 10704,14962 10705,14964 10706,14965 10706,14967 10707,14970 10708,14973 10681,14972 Z"/>
        <path fill="rgb(255,255,255)" stroke="none" d="M 10673,15011 L 10704,15010 10702,15012 10701,15014 10700,15017 10699,15018 10696,15021 10694,15024 10692,15027 10689,15029 10687,15031 10685,15033 10683,15034 10681,15036 10673,15011 Z"/>
       </g>
      </g>
     </g>
    </g>
   </g>
  </g>
 </g>
</svg>