<?xml version="1.0" encoding="UTF-8"?>
<!DOCTYPE svg PUBLIC "-//W3C//DTD SVG 1.1//EN" "http://www.w3.org/Graphics/SVG/1.1/DTD/svg11.dtd">
<svg version="1.2" width="30.01mm" height="30.01mm" viewBox="9094 13407 3001 3001" preserveAspectRatio="xMidYMid" fill-rule="evenodd" stroke-width="28.222" stroke-linejoin="round" xmlns="http://www.w3.org/2000/svg" xmlns:ooo="http://xml.openoffice.org/svg/export" xmlns:xlink="http://www.w3.org/1999/xlink" xmlns:presentation="http://sun.com/xmlns/staroffice/presentation" xmlns:smil="http://www.w3.org/2001/SMIL20/" xmlns:anim="urn:oasis:names:tc:opendocument:xmlns:animation:1.0" xml:space="preserve">
 <defs class="ClipPathGroup">
  <clipPath id="presentation_clip_path" clipPathUnits="userSpaceOnUse">
   <rect x="9094" y="13407" width="3001" height="3001"/>
  </clipPath>
  <clipPath id="presentation_clip_path_shrink" clipPathUnits="userSpaceOnUse">
   <rect x="9097" y="13410" width="2995" height="2995"/>
  </clipPath>
 </defs>
 <defs class="TextShapeIndex">
  <g ooo:slide="id1" ooo:id-list="id3"/>
 </defs>
 <defs class="EmbeddedBulletChars">
  <g id="bullet-char-template-57356" transform="scale(0.00048828125,-0.00048828125)">
   <path d="M 580,1141 L 1163,571 580,0 -4,571 580,1141 Z"/>
  </g>
  <g id="bullet-char-template-57354" transform="scale(0.00048828125,-0.00048828125)">
   <path d="M 8,1128 L 1137,1128 1137,0 8,0 8,1128 Z"/>
  </g>
  <g id="bullet-char-template-10146" transform="scale(0.00048828125,-0.00048828125)">
   <path d="M 174,0 L 602,739 174,1481 1456,739 174,0 Z M 1358,739 L 309,1346 659,739 1358,739 Z"/>
  </g>
  <g id="bullet-char-template-10132" transform="scale(0.00048828125,-0.00048828125)">
   <path d="M 2015,739 L 1276,0 717,0 1260,543 174,543 174,936 1260,936 717,1481 1274,1481 2015,739 Z"/>
  </g>
  <g id="bullet-char-template-10007" transform="scale(0.00048828125,-0.00048828125)">
   <path d="M 0,-2 C -7,14 -16,27 -25,37 L 356,567 C 262,823 215,952 215,954 215,979 228,992 255,992 264,992 276,990 289,987 310,991 331,999 354,1012 L 381,999 492,748 772,1049 836,1024 860,1049 C 881,1039 901,1025 922,1006 886,937 835,863 770,784 769,783 710,716 594,584 L 774,223 C 774,196 753,168 711,139 L 727,119 C 717,90 699,76 672,76 641,76 570,178 457,381 L 164,-76 C 142,-110 111,-127 72,-127 30,-127 9,-110 8,-76 1,-67 -2,-52 -2,-32 -2,-23 -1,-13 0,-2 Z"/>
  </g>
  <g id="bullet-char-template-10004" transform="scale(0.00048828125,-0.00048828125)">
   <path d="M 285,-33 C 182,-33 111,30 74,156 52,228 41,333 41,471 41,549 55,616 82,672 116,743 169,778 240,778 293,778 328,747 346,684 L 369,508 C 377,444 397,411 428,410 L 1163,1116 C 1174,1127 1196,1133 1229,1133 1271,1133 1292,1118 1292,1087 L 1292,965 C 1292,929 1282,901 1262,881 L 442,47 C 390,-6 338,-33 285,-33 Z"/>
  </g>
  <g id="bullet-char-template-9679" transform="scale(0.00048828125,-0.00048828125)">
   <path d="M 813,0 C 632,0 489,54 383,161 276,268 223,411 223,592 223,773 276,916 383,1023 489,1130 632,1184 813,1184 992,1184 1136,1130 1245,1023 1353,916 1407,772 1407,592 1407,412 1353,268 1245,161 1136,54 992,0 813,0 Z"/>
  </g>
  <g id="bullet-char-template-8226" transform="scale(0.00048828125,-0.00048828125)">
   <path d="M 346,457 C 273,457 209,483 155,535 101,586 74,649 74,723 74,796 101,859 155,911 209,963 273,989 346,989 419,989 480,963 531,910 582,859 608,796 608,723 608,648 583,586 532,535 482,483 420,457 346,457 Z"/>
  </g>
  <g id="bullet-char-template-8211" transform="scale(0.00048828125,-0.00048828125)">
   <path d="M -4,459 L 1135,459 1135,606 -4,606 -4,459 Z"/>
  </g>
  <g id="bullet-char-template-61548" transform="scale(0.00048828125,-0.00048828125)">
   <path d="M 173,740 C 173,903 231,1043 346,1159 462,1274 601,1332 765,1332 928,1332 1067,1274 1183,1159 1299,1043 1357,903 1357,740 1357,577 1299,437 1183,322 1067,206 928,148 765,148 601,148 462,206 346,322 231,437 173,577 173,740 Z"/>
  </g>
 </defs>
 <defs class="TextEmbeddedBitmaps"/>
 <g class="SlideGroup">
  <g>
   <g id="container-id1">
    <g id="id1" class="Slide" clip-path="url(#presentation_clip_path)">
     <g class="Page">
      <g class="Graphic">
       <g id="id3">
        <rect class="BoundingBox" stroke="none" fill="none" x="9094" y="13407" width="3002" height="3002"/>
        <path fill="rgb(218,68,53)" stroke="none" d="M 10595,13407 L 10672,13409 10748,13415 10824,13424 10897,13438 10970,13454 11041,13475 11111,13498 11179,13525 11246,13555 11310,13588 11373,13624 11434,13663 11493,13705 11550,13750 11604,13797 11656,13847 11706,13899 11753,13953 11798,14010 11840,14069 11879,14130 11915,14193 11948,14257 11978,14324 12005,14392 12028,14462 12049,14533 12065,14606 12079,14679 12088,14755 12094,14831 12096,14908 12094,14985 12088,15061 12079,15137 12065,15210 12049,15283 12028,15354 12005,15424 11978,15492 11948,15559 11915,15623 11879,15686 11840,15747 11798,15806 11753,15863 11706,15917 11656,15969 11604,16019 11550,16066 11493,16111 11434,16153 11373,16192 11310,16228 11246,16261 11179,16291 11111,16318 11041,16341 10970,16362 10897,16378 10824,16392 10748,16401 10672,16407 10595,16409 10518,16407 10442,16401 10366,16392 10293,16378 10220,16362 10149,16341 10079,16318 10011,16291 9944,16261 9880,16228 9817,16192 9756,16153 9697,16111 9640,16066 9586,16019 9534,15969 9484,15917 9437,15863 9392,15806 9350,15747 9311,15686 9275,15623 9242,15559 9212,15492 9185,15424 9162,15354 9141,15283 9125,15210 9111,15137 9102,15061 9096,14985 9094,14908 9096,14831 9102,14755 9111,14679 9125,14606 9141,14533 9162,14462 9185,14392 9212,14324 9242,14257 9275,14193 9311,14130 9350,14069 9392,14010 9437,13953 9484,13899 9534,13847 9586,13797 9640,13750 9697,13705 9756,13663 9817,13624 9880,13588 9944,13555 10011,13525 10079,13498 10149,13475 10220,13454 10293,13438 10366,13424 10442,13415 10518,13409 10595,13407 Z"/>
        <path fill="rgb(255,255,255)" stroke="none" d="M 10595,13907 L 10608,13907 10621,13908 10633,13908 10646,13909 10658,13909 10671,13910 10683,13911 10696,13912 10708,13913 10721,13915 10733,13917 10745,13918 10758,13920 10770,13922 10782,13924 10794,13927 10807,13929 10819,13932 10831,13935 10843,13938 10855,13941 10867,13944 10879,13948 10891,13951 10903,13955 10914,13959 10926,13963 10938,13967 10949,13972 10961,13976 10973,13981 10985,13986 10996,13991 11007,13995 11018,14000 11029,14006 11039,14011 11050,14016 11061,14022 11072,14027 11082,14033 11093,14039 11103,14045 11113,14051 11124,14058 11134,14064 11144,14071 11154,14077 11164,14084 11173,14091 11183,14098 11193,14105 11203,14112 11212,14120 11221,14127 11231,14135 11240,14143 11249,14151 11258,14158 11267,14167 11276,14175 11285,14183 11294,14192 11303,14200 11311,14209 11320,14218 11328,14227 11336,14236 11345,14245 11352,14254 11360,14263 11368,14272 11376,14282 11383,14291 11391,14300 11398,14310 11405,14320 11412,14330 11419,14339 11426,14349 11432,14359 11439,14369 11445,14379 11452,14390 11458,14400 11464,14410 11470,14421 11476,14431 11481,14442 11487,14453 11492,14464 11497,14474 11503,14485 11508,14496 11512,14507 11517,14518 11522,14530 11527,14542 11531,14553 11536,14565 11540,14577 11544,14589 11548,14600 11552,14612 11555,14624 11559,14636 11562,14648 11565,14660 11568,14672 11571,14684 11574,14696 11576,14709 11579,14721 11581,14733 11583,14745 11585,14758 11586,14770 11588,14782 11590,14795 11591,14807 11592,14820 11593,14832 11594,14845 11594,14857 11595,14870 11595,14882 11596,14895 11596,14908 11596,14921 11595,14933 11595,14946 11594,14959 11594,14971 11593,14984 11592,14996 11591,15009 11590,15021 11588,15034 11586,15046 11585,15058 11583,15070 11581,15083 11579,15095 11576,15107 11574,15119 11571,15131 11568,15143 11565,15155 11562,15167 11559,15179 11555,15192 11552,15203 11548,15215 11544,15227 11540,15239 11536,15251 11531,15262 11527,15274 11522,15286 11517,15297 11512,15308 11508,15319 11503,15331 11497,15341 11492,15352 11487,15363 11481,15374 11476,15384 11470,15395 11464,15405 11458,15416 11452,15426 11445,15436 11439,15446 11432,15457 11426,15467 11419,15477 11412,15486 11405,15496 11398,15506 11391,15515 11383,15525 11376,15534 11368,15543 11360,15553 11352,15562 11345,15571 11336,15580 11328,15589 11320,15598 11311,15607 11303,15616 11294,15624 11285,15633 11276,15641 11267,15649 11258,15657 11249,15665 11240,15673 11231,15681 11221,15689 11212,15696 11203,15704 11193,15711 11183,15718 11173,15725 11164,15732 11154,15738 11144,15745 11134,15752 11124,15758 11113,15764 11103,15771 11093,15777 11082,15783 11072,15788 11061,15794 11050,15799 11039,15805 11029,15810 11018,15815 11007,15820 10996,15825 10985,15830 10973,15835 10961,15840 10949,15844 10938,15849 10926,15853 10914,15857 10903,15861 10891,15865 10879,15868 10867,15871 10855,15875 10843,15878 10831,15881 10819,15884 10807,15886 10794,15889 10782,15891 10770,15894 10758,15896 10745,15898 10733,15899 10721,15901 10708,15902 10696,15904 10683,15905 10671,15906 10658,15907 10646,15907 10633,15908 10621,15908 10608,15908 10595,15909 10582,15908 10570,15908 10557,15908 10544,15907 10532,15907 10519,15906 10507,15905 10494,15904 10482,15902 10469,15901 10457,15899 10445,15898 10433,15896 10420,15894 10408,15891 10396,15889 10384,15886 10372,15884 10360,15881 10348,15878 10336,15875 10324,15871 10311,15868 10300,15865 10288,15861 10276,15857 10264,15853 10252,15849 10241,15844 10229,15840 10217,15835 10206,15830 10195,15825 10184,15820 10172,15815 10162,15810 10151,15805 10140,15799 10129,15794 10119,15788 10108,15783 10098,15777 10087,15771 10077,15764 10067,15758 10057,15752 10046,15745 10036,15738 10026,15732 10017,15725 10007,15718 9997,15711 9988,15704 9978,15696 9969,15689 9960,15681 9950,15673 9941,15665 9932,15657 9923,15649 9914,15641 9905,15633 9896,15624 9887,15616 9879,15607 9870,15598 9862,15589 9854,15580 9846,15571 9838,15562 9830,15553 9822,15543 9814,15534 9807,15525 9800,15515 9792,15506 9785,15496 9778,15486 9771,15477 9765,15467 9758,15457 9751,15446 9745,15436 9739,15426 9732,15416 9726,15405 9720,15395 9715,15384 9709,15374 9704,15363 9698,15352 9693,15341 9688,15331 9683,15319 9678,15308 9673,15297 9668,15286 9663,15274 9659,15262 9654,15251 9650,15239 9646,15227 9642,15215 9638,15203 9635,15192 9632,15179 9628,15167 9625,15155 9622,15143 9619,15131 9617,15119 9614,15107 9612,15095 9609,15083 9607,15070 9605,15058 9604,15046 9602,15034 9601,15021 9599,15009 9598,14996 9597,14984 9596,14971 9596,14959 9595,14946 9595,14933 9595,14921 9594,14908 9595,14895 9595,14882 9595,14870 9596,14857 9596,14845 9597,14832 9598,14820 9599,14807 9601,14795 9602,14782 9604,14770 9605,14758 9607,14745 9609,14733 9612,14721 9614,14709 9617,14696 9619,14684 9622,14672 9625,14660 9628,14648 9632,14636 9635,14624 9638,14612 9642,14600 9646,14589 9650,14577 9654,14565 9659,14553 9663,14542 9668,14530 9673,14518 9678,14507 9683,14496 9688,14485 9693,14474 9698,14464 9704,14453 9709,14442 9715,14431 9720,14421 9726,14410 9732,14400 9739,14390 9745,14379 9751,14369 9758,14359 9765,14349 9771,14339 9778,14330 9785,14320 9792,14310 9800,14300 9807,14291 9814,14282 9822,14272 9830,14263 9838,14254 9846,14245 9854,14236 9862,14227 9870,14218 9879,14209 9887,14200 9896,14192 9905,14183 9914,14175 9923,14167 9932,14158 9941,14151 9950,14143 9960,14135 9969,14127 9978,14120 9988,14112 9997,14105 10007,14098 10017,14091 10026,14084 10036,14077 10046,14071 10057,14064 10067,14058 10077,14051 10087,14045 10098,14039 10108,14033 10119,14027 10129,14022 10140,14016 10151,14011 10162,14006 10172,14000 10184,13995 10195,13991 10206,13986 10217,13981 10229,13976 10241,13972 10252,13967 10264,13963 10276,13959 10288,13955 10300,13951 10311,13948 10324,13944 10336,13941 10348,13938 10360,13935 10372,13932 10384,13929 10396,13927 10408,13924 10420,13922 10433,13920 10445,13918 10457,13917 10469,13915 10482,13913 10494,13912 10507,13911 10519,13910 10532,13909 10544,13909 10557,13908 10570,13908 10582,13907 10595,13907 Z"/>
        <path fill="rgb(26,28,26)" stroke="none" d="M 10806,15094 L 10629,15098 10631,15162 10660,15160 10660,15180 10579,15182 10577,15162 10605,15160 10603,15098 10568,15098 10563,15098 10559,15098 10554,15097 10550,15097 10546,15097 10542,15096 10538,15095 10534,15094 10530,15093 10527,15091 10524,15090 10520,15088 10517,15087 10514,15085 10511,15083 10508,15082 10505,15080 10502,15078 10499,15076 10496,15073 10493,15071 10491,15069 10488,15066 10486,15064 10484,15061 10481,15058 10479,15056 10477,15053 10475,15050 10474,15047 10472,15044 10471,15041 10469,15037 10468,15034 10467,15031 10466,15027 10465,15024 10464,15020 10463,15017 10463,15013 10463,15008 10463,15003 10463,14998 10464,14993 10465,14988 10466,14983 10468,14978 10470,14973 10472,14968 10474,14964 10477,14959 10479,14955 10482,14950 10486,14946 10489,14942 10493,14939 10494,14937 10496,14936 10497,14935 10498,14934 10498,14933 10499,14933 10477,14901 10487,14883 10488,14880 10489,14877 10490,14874 10491,14871 10493,14867 10494,14864 10494,14863 10494,14861 10494,14860 10495,14858 10343,14766 10338,14762 10332,14759 10329,14757 10326,14754 10324,14752 10321,14750 10319,14749 10317,14747 10315,14745 10312,14743 10311,14741 10309,14739 10307,14737 10305,14734 10304,14733 10303,14731 10302,14728 10300,14726 10297,14719 10294,14712 10292,14704 10290,14698 10289,14695 10288,14693 10288,14691 10287,14689 10256,14750 10264,14754 10280,14767 10294,14778 10300,14783 10306,14788 10311,14793 10316,14798 10320,14803 10324,14807 10328,14812 10332,14817 10336,14822 10339,14828 10343,14834 10347,14840 10351,14848 10356,14855 10360,14863 10363,14871 10367,14879 10370,14887 10373,14895 10375,14903 10378,14912 10380,14920 10382,14928 10384,14937 10385,14946 10386,14954 10387,14963 10388,14972 10387,14973 10385,14975 10384,14976 10382,14977 10381,14978 10380,14978 10366,14980 10366,14996 10365,15011 10363,15027 10360,15042 10356,15056 10351,15071 10346,15084 10339,15098 10332,15111 10324,15123 10316,15135 10307,15146 10297,15156 10286,15167 10275,15176 10264,15185 10252,15193 10239,15200 10226,15207 10213,15213 10199,15218 10185,15222 10171,15226 10157,15228 10142,15230 10127,15231 10112,15231 10096,15231 10081,15229 10066,15226 10051,15222 10035,15217 10020,15212 10006,15205 9993,15198 9980,15190 9968,15181 9957,15172 9946,15162 9935,15152 9926,15141 9917,15129 9909,15117 9902,15105 9895,15092 9889,15079 9884,15066 9880,15053 9876,15039 9874,15025 9872,15011 9870,14997 9870,14982 9870,14968 9872,14954 9874,14939 9877,14925 9881,14911 9885,14897 9891,14883 9898,14870 9905,14856 9914,14843 9923,14831 9913,14823 9911,14821 9909,14819 9908,14818 9906,14816 9906,14815 9906,14814 9905,14813 9905,14812 9906,14811 9906,14810 9906,14810 9907,14809 9915,14801 9920,14796 9927,14790 9933,14784 9940,14778 9947,14772 9954,14766 9961,14761 9968,14756 9973,14753 9979,14749 9984,14746 9989,14743 9995,14741 10000,14738 10005,14735 10011,14733 10017,14731 10022,14728 10028,14726 10034,14725 10039,14723 10045,14721 10051,14720 10057,14719 10067,14717 10077,14715 10087,14714 10097,14713 10107,14712 10117,14712 10127,14712 10136,14713 10146,14714 10156,14715 10166,14717 10176,14719 10186,14721 10195,14724 10205,14727 10215,14730 10216,14731 10218,14731 10220,14731 10222,14732 10225,14733 10228,14734 10266,14656 10264,14656 10259,14657 10252,14659 10245,14661 10237,14662 10231,14664 10225,14665 10223,14666 10221,14666 10219,14665 10217,14665 10216,14665 10215,14664 10215,14664 10213,14662 10212,14660 10211,14659 10211,14658 10211,14657 10211,14656 10211,14597 10211,14601 10211,14599 10210,14594 10211,14593 10211,14591 10211,14590 10211,14588 10212,14587 10213,14585 10214,14584 10215,14583 10215,14582 10217,14582 10218,14581 10220,14580 10221,14580 10223,14580 10225,14579 10227,14579 10230,14579 10234,14580 10238,14580 10241,14580 10245,14581 10249,14582 10252,14582 10256,14583 10297,14591 10315,14552 10313,14552 10311,14551 10309,14551 10308,14551 10306,14550 10304,14549 10302,14549 10300,14548 10298,14547 10296,14546 10295,14544 10293,14543 10291,14542 10289,14540 10288,14538 10286,14537 10284,14535 10283,14533 10282,14531 10280,14529 10279,14527 10278,14525 10277,14523 10276,14521 10275,14519 10274,14517 10273,14514 10273,14512 10272,14510 10272,14507 10272,14505 10272,14503 10272,14499 10272,14495 10272,14491 10273,14488 10273,14484 10274,14480 10275,14477 10277,14474 10278,14472 10278,14471 10279,14469 10280,14468 10281,14467 10282,14466 10284,14464 10285,14463 10287,14463 10288,14462 10290,14461 10291,14461 10293,14460 10295,14460 10297,14460 10299,14459 10305,14459 10311,14458 10318,14458 10323,14458 10509,14459 10509,14483 10321,14483 10319,14483 10316,14483 10314,14484 10311,14484 10309,14485 10308,14486 10306,14487 10304,14488 10302,14489 10301,14491 10300,14492 10299,14494 10298,14495 10298,14497 10298,14499 10297,14501 10298,14504 10298,14507 10298,14509 10299,14512 10299,14514 10300,14515 10302,14517 10303,14518 10304,14520 10305,14521 10307,14521 10308,14522 10310,14523 10311,14523 10313,14524 10315,14524 10360,14536 10331,14599 10333,14598 10338,14597 10344,14595 10351,14594 10359,14592 10366,14591 10370,14591 10374,14591 10377,14591 10380,14591 10390,14593 10399,14594 10404,14596 10409,14597 10413,14598 10418,14600 10422,14601 10427,14603 10432,14605 10436,14607 10441,14610 10446,14612 10450,14615 10455,14618 10458,14620 10461,14622 10464,14624 10467,14627 10472,14631 10477,14637 10482,14642 10487,14647 10491,14653 10495,14659 10499,14665 10503,14671 10506,14677 10509,14683 10511,14689 10513,14695 10515,14701 10516,14707 10518,14754 10518,14758 10519,14761 10519,14765 10520,14769 10521,14772 10522,14776 10523,14780 10524,14783 10526,14787 10528,14791 10531,14794 10534,14798 10537,14801 10540,14805 10544,14808 10548,14811 10552,14814 10556,14817 10560,14821 10565,14823 10569,14826 10574,14829 10578,14832 10583,14834 10589,14837 10596,14839 10603,14841 10611,14843 10619,14845 10627,14847 10634,14849 10640,14850 10646,14851 10654,14853 10662,14855 10670,14857 10674,14857 10678,14858 10681,14858 10685,14858 10686,14858 10688,14858 10689,14857 10690,14857 10691,14856 10692,14856 10693,14855 10694,14854 10838,14577 10835,14577 10830,14576 10824,14575 10817,14573 10810,14571 10803,14569 10797,14567 10792,14565 10785,14562 10778,14559 10775,14557 10771,14555 10768,14554 10764,14552 10761,14549 10758,14547 10756,14545 10753,14542 10752,14541 10751,14539 10750,14538 10749,14536 10748,14535 10748,14533 10747,14532 10747,14530 10746,14529 10746,14527 10746,14526 10746,14524 10746,14522 10746,14521 10746,14519 10747,14518 10747,14516 10748,14515 10748,14513 10749,14512 10750,14510 10751,14509 10752,14508 10753,14506 10754,14505 10756,14504 10757,14503 10758,14502 10760,14501 10761,14500 10763,14500 10764,14499 10766,14498 10768,14498 10769,14498 10771,14498 10773,14498 10775,14498 10777,14498 10778,14499 10783,14499 10787,14499 10792,14500 10796,14501 10806,14503 10816,14506 10827,14508 10837,14510 10842,14511 10847,14512 10852,14512 10857,14512 10862,14513 10866,14513 10872,14513 10877,14513 10889,14512 10901,14511 10913,14510 10924,14509 10935,14509 10944,14509 10946,14509 10949,14509 10951,14509 10953,14510 10955,14511 10957,14512 10959,14513 10960,14515 10962,14516 10963,14518 10965,14520 10966,14522 10967,14524 10968,14526 10969,14528 10970,14530 10970,14533 10971,14535 10971,14537 10972,14540 10972,14542 10972,14544 10972,14547 10972,14549 10971,14551 10971,14554 10970,14556 10970,14558 10969,14560 10968,14562 10967,14564 10966,14565 10965,14567 10963,14569 10962,14571 10960,14573 10958,14575 10956,14577 10954,14579 10951,14581 10948,14583 10945,14585 10942,14587 10939,14588 10935,14590 10932,14591 10928,14592 10924,14593 10922,14593 10919,14594 10916,14594 10913,14594 10906,14594 10899,14593 10896,14593 10892,14593 10890,14592 10887,14592 10885,14591 10883,14590 10882,14590 10882,14590 10881,14589 10881,14589 10942,14726 10947,14725 10952,14723 10955,14722 10958,14720 10961,14719 10964,14719 10969,14718 10974,14717 10979,14716 10984,14715 10994,14714 11004,14713 11015,14712 11026,14712 11036,14712 11047,14713 11053,14713 11060,14714 11066,14715 11072,14716 11079,14718 11085,14719 11091,14720 11097,14722 11103,14724 11110,14726 11116,14728 11122,14731 11128,14733 11134,14735 11139,14738 11145,14741 11151,14744 11157,14747 11162,14750 11168,14754 11173,14757 11179,14761 11184,14764 11189,14768 11194,14772 11200,14776 11204,14780 11209,14785 11214,14789 11219,14794 11224,14798 11228,14803 11232,14807 11236,14811 11240,14816 11243,14820 11247,14825 11250,14830 11254,14834 11257,14839 11260,14844 11263,14849 11265,14855 11268,14860 11270,14865 11272,14871 11274,14876 11275,14882 11276,14883 11276,14885 11277,14886 11277,14887 11277,14889 11277,14889 11307,14891 11309,14891 11313,14892 11315,14892 11316,14892 11318,14893 11319,14893 11319,14894 11320,14895 11320,14896 11320,14897 11321,14900 11321,14903 11321,15015 11321,15018 11320,15021 11320,15022 11319,15023 11318,15024 11317,15025 11273,15035 11270,15044 11267,15054 11263,15063 11259,15072 11254,15080 11250,15089 11245,15097 11239,15105 11233,15113 11228,15121 11221,15128 11215,15135 11208,15142 11202,15149 11194,15155 11187,15161 11179,15167 11172,15173 11164,15178 11155,15183 11147,15188 11138,15192 11130,15196 11121,15200 11112,15203 11103,15206 11093,15209 11084,15211 11074,15213 11064,15215 11054,15216 11045,15217 11036,15218 11027,15218 11018,15218 11009,15217 11000,15216 10991,15215 10982,15214 10974,15212 10965,15210 10957,15208 10948,15205 10940,15203 10932,15199 10924,15196 10916,15192 10908,15189 10901,15185 10893,15180 10886,15175 10879,15170 10872,15165 10865,15160 10858,15154 10851,15149 10845,15143 10839,15136 10833,15130 10827,15123 10821,15116 10816,15109 10811,15101 10806,15094 Z"/>
        <path fill="rgb(255,255,255)" stroke="none" d="M 10311,14996 L 10165,14996 10165,14998 10164,15000 10164,15002 10163,15004 10163,15005 10162,15007 10161,15009 10160,15010 10159,15012 10158,15013 10157,15015 10155,15017 10152,15019 10149,15022 10145,15025 10142,15027 10137,15029 10133,15030 10129,15032 10124,15033 10122,15033 10120,15033 10118,15033 10115,15034 10112,15033 10109,15033 10106,15032 10102,15032 10099,15031 10096,15029 10093,15028 10091,15027 10088,15025 10085,15023 10083,15021 10080,15019 10078,15017 10076,15014 10074,15012 10072,15009 10070,15007 10069,15004 10067,15001 10066,14998 10065,14995 10064,14992 10063,14989 10063,14986 10063,14983 10063,14980 10063,14977 10064,14974 10064,14971 10065,14968 10067,14966 10068,14963 10068,14961 10069,14960 10069,14958 10070,14957 10072,14954 10074,14951 9991,14833 9981,14843 9972,14852 9963,14862 9956,14873 9949,14884 9943,14895 9938,14906 9934,14918 9930,14930 9927,14942 9925,14954 9924,14966 9924,14978 9924,14990 9925,15002 9927,15014 9929,15026 9933,15038 9937,15049 9941,15060 9947,15071 9953,15082 9960,15092 9967,15102 9975,15111 9984,15120 9993,15129 10004,15136 10014,15144 10026,15150 10038,15156 10051,15161 10062,15165 10073,15168 10084,15171 10096,15172 10107,15173 10118,15174 10129,15173 10140,15172 10151,15171 10162,15169 10173,15166 10183,15162 10193,15158 10203,15154 10213,15149 10222,15143 10231,15137 10239,15131 10248,15124 10256,15116 10263,15109 10270,15100 10277,15091 10283,15082 10288,15073 10293,15063 10298,15052 10302,15042 10305,15031 10307,15020 10309,15008 10311,14996 Z"/>
        <path fill="rgb(255,255,255)" stroke="none" d="M 10158,14954 L 10223,14821 10224,14822 10227,14824 10229,14825 10231,14827 10235,14829 10239,14832 10243,14835 10247,14838 10251,14842 10255,14845 10258,14849 10262,14852 10265,14856 10269,14860 10272,14864 10275,14867 10280,14875 10286,14883 10288,14888 10291,14893 10293,14897 10295,14902 10297,14907 10299,14911 10300,14916 10302,14921 10303,14926 10305,14931 10306,14936 10307,14941 10308,14946 10308,14950 10309,14955 10309,14960 10310,14962 10311,14963 10311,14964 10311,14966 10311,14968 10311,14970 10168,14974 10168,14972 10167,14970 10167,14966 10166,14962 10165,14961 10164,14959 10163,14958 10162,14957 10160,14956 10160,14955 10159,14954 10158,14954 Z"/>
        <path fill="rgb(255,255,255)" stroke="none" d="M 10094,14938 L 10009,14821 10012,14819 10014,14818 10017,14816 10019,14815 10024,14812 10028,14810 10033,14808 10038,14806 10042,14803 10047,14802 10052,14800 10057,14798 10062,14797 10067,14795 10072,14794 10078,14793 10088,14791 10098,14789 10104,14789 10109,14789 10115,14788 10120,14788 10126,14789 10132,14789 10138,14789 10143,14790 10149,14791 10154,14791 10160,14793 10166,14794 10171,14795 10176,14797 10181,14799 10187,14801 10188,14802 10189,14802 10190,14803 10191,14804 10192,14804 10193,14804 10194,14805 10195,14805 10132,14937 10129,14936 10126,14934 10123,14934 10120,14933 10117,14933 10114,14933 10111,14933 10109,14933 10107,14933 10104,14933 10101,14934 10099,14935 10098,14936 10096,14937 10095,14937 10094,14938 Z"/>
        <path fill="rgb(255,255,255)" stroke="none" d="M 10733,14908 L 10861,14623 10915,14739 10913,14740 10911,14742 10909,14743 10907,14745 10901,14748 10895,14751 10890,14754 10884,14758 10879,14761 10873,14765 10868,14769 10863,14773 10858,14777 10854,14781 10849,14785 10844,14789 10839,14794 10835,14798 10830,14803 10826,14808 10821,14813 10817,14818 10813,14824 10809,14829 10805,14835 10801,14840 10797,14846 10793,14852 10790,14858 10787,14864 10784,14870 10781,14876 10778,14882 10776,14889 10774,14895 10773,14902 10772,14904 10772,14906 10771,14908 10771,14910 10733,14908 Z"/>
        <path fill="rgb(255,255,255)" stroke="none" d="M 10946,14808 L 10989,14910 10989,14910 10989,14911 10988,14911 10988,14912 10988,14912 10987,14912 10986,14912 10985,14913 10983,14913 10982,14914 10980,14915 10979,14917 10977,14918 10976,14920 10975,14922 10973,14923 10972,14925 10971,14927 10970,14929 10970,14930 10969,14932 10969,14934 10845,14934 10846,14928 10847,14922 10848,14916 10850,14910 10851,14904 10853,14899 10856,14893 10858,14888 10860,14882 10863,14877 10866,14871 10869,14866 10872,14861 10875,14856 10879,14852 10883,14847 10886,14844 10889,14841 10893,14838 10897,14835 10900,14832 10904,14829 10908,14826 10912,14824 10916,14822 10920,14819 10924,14817 10928,14815 10933,14813 10937,14811 10941,14809 10946,14808 Z"/>
        <path fill="rgb(255,255,255)" stroke="none" d="M 11220,14958 L 11104,14956 11103,14955 11102,14951 11100,14946 11097,14941 11096,14938 11094,14934 11091,14931 11089,14928 11086,14925 11083,14921 11080,14918 11076,14915 11073,14913 11070,14911 11067,14909 11064,14908 11060,14907 11057,14906 11054,14905 11050,14904 11047,14903 11043,14903 11039,14902 11036,14902 11028,14901 11021,14901 10974,14797 10979,14796 10984,14794 10989,14793 10995,14792 11000,14791 11005,14790 11011,14790 11016,14789 11021,14789 11027,14789 11032,14789 11037,14789 11042,14789 11048,14789 11053,14790 11058,14791 11064,14792 11069,14793 11074,14794 11079,14795 11084,14797 11090,14798 11094,14800 11100,14802 11104,14804 11109,14806 11114,14809 11119,14811 11124,14814 11128,14817 11133,14820 11137,14823 11142,14826 11146,14829 11150,14832 11154,14835 11158,14839 11162,14842 11166,14846 11169,14849 11173,14853 11176,14857 11180,14861 11183,14865 11186,14869 11189,14873 11192,14877 11194,14882 11197,14886 11199,14890 11202,14895 11204,14899 11206,14904 11208,14909 11210,14913 11211,14918 11213,14923 11214,14928 11216,14933 11217,14938 11218,14943 11219,14948 11219,14953 11220,14958 Z"/>
        <path fill="rgb(255,255,255)" stroke="none" d="M 11030,15061 L 11030,15075 11096,15075 11096,15094 10881,15094 10882,15097 10884,15100 10885,15102 10887,15104 10891,15110 10897,15116 10902,15122 10908,15127 10913,15132 10919,15136 10926,15140 10932,15144 10938,15148 10945,15152 10952,15155 10959,15157 10966,15160 10973,15162 10980,15164 10987,15165 10995,15167 11002,15167 11010,15168 11017,15169 11025,15169 11032,15169 11040,15168 11048,15167 11055,15166 11063,15165 11070,15164 11078,15162 11085,15159 11093,15157 11100,15154 11107,15151 11113,15149 11119,15146 11125,15143 11131,15140 11136,15136 11142,15132 11147,15129 11152,15125 11157,15121 11162,15116 11167,15112 11171,15107 11175,15103 11179,15098 11183,15093 11187,15088 11191,15083 11194,15077 11197,15072 11200,15066 11203,15061 11206,15055 11208,15049 11210,15043 11212,15037 11214,15031 11216,15025 11217,15018 11218,15012 11219,15005 11219,14999 11220,14992 11220,14989 11220,14987 11220,14984 11220,14982 11105,14982 11105,14987 11105,14991 11105,14994 11104,14998 11103,15002 11102,15006 11101,15010 11100,15013 11098,15017 11097,15020 11095,15024 11093,15027 11091,15030 11089,15033 11086,15037 11084,15039 11081,15042 11078,15044 11075,15046 11072,15049 11069,15051 11066,15052 11063,15054 11059,15055 11056,15057 11052,15058 11049,15059 11045,15060 11042,15060 11038,15061 11034,15061 11030,15061 Z"/>
       </g>
      </g>
     </g>
    </g>
   </g>
  </g>
 </g>
</svg>