<?xml version="1.0" encoding="UTF-8"?>
<!DOCTYPE svg PUBLIC "-//W3C//DTD SVG 1.1//EN" "http://www.w3.org/Graphics/SVG/1.1/DTD/svg11.dtd">
<svg version="1.2" width="30.04mm" height="30.04mm" viewBox="3045 4592 3004 3004" preserveAspectRatio="xMidYMid" fill-rule="evenodd" stroke-width="28.222" stroke-linejoin="round" xmlns="http://www.w3.org/2000/svg" xmlns:ooo="http://xml.openoffice.org/svg/export" xmlns:xlink="http://www.w3.org/1999/xlink" xmlns:presentation="http://sun.com/xmlns/staroffice/presentation" xmlns:smil="http://www.w3.org/2001/SMIL20/" xmlns:anim="urn:oasis:names:tc:opendocument:xmlns:animation:1.0" xml:space="preserve">
 <defs class="ClipPathGroup">
  <clipPath id="presentation_clip_path" clipPathUnits="userSpaceOnUse">
   <rect x="3045" y="4592" width="3004" height="3004"/>
  </clipPath>
  <clipPath id="presentation_clip_path_shrink" clipPathUnits="userSpaceOnUse">
   <rect x="3048" y="4595" width="2998" height="2998"/>
  </clipPath>
 </defs>
 <defs class="TextShapeIndex">
  <g ooo:slide="id1" ooo:id-list="id3"/>
 </defs>
 <defs class="EmbeddedBulletChars">
  <g id="bullet-char-template-57356" transform="scale(0.00048828125,-0.00048828125)">
   <path d="M 580,1141 L 1163,571 580,0 -4,571 580,1141 Z"/>
  </g>
  <g id="bullet-char-template-57354" transform="scale(0.00048828125,-0.00048828125)">
   <path d="M 8,1128 L 1137,1128 1137,0 8,0 8,1128 Z"/>
  </g>
  <g id="bullet-char-template-10146" transform="scale(0.00048828125,-0.00048828125)">
   <path d="M 174,0 L 602,739 174,1481 1456,739 174,0 Z M 1358,739 L 309,1346 659,739 1358,739 Z"/>
  </g>
  <g id="bullet-char-template-10132" transform="scale(0.00048828125,-0.00048828125)">
   <path d="M 2015,739 L 1276,0 717,0 1260,543 174,543 174,936 1260,936 717,1481 1274,1481 2015,739 Z"/>
  </g>
  <g id="bullet-char-template-10007" transform="scale(0.00048828125,-0.00048828125)">
   <path d="M 0,-2 C -7,14 -16,27 -25,37 L 356,567 C 262,823 215,952 215,954 215,979 228,992 255,992 264,992 276,990 289,987 310,991 331,999 354,1012 L 381,999 492,748 772,1049 836,1024 860,1049 C 881,1039 901,1025 922,1006 886,937 835,863 770,784 769,783 710,716 594,584 L 774,223 C 774,196 753,168 711,139 L 727,119 C 717,90 699,76 672,76 641,76 570,178 457,381 L 164,-76 C 142,-110 111,-127 72,-127 30,-127 9,-110 8,-76 1,-67 -2,-52 -2,-32 -2,-23 -1,-13 0,-2 Z"/>
  </g>
  <g id="bullet-char-template-10004" transform="scale(0.00048828125,-0.00048828125)">
   <path d="M 285,-33 C 182,-33 111,30 74,156 52,228 41,333 41,471 41,549 55,616 82,672 116,743 169,778 240,778 293,778 328,747 346,684 L 369,508 C 377,444 397,411 428,410 L 1163,1116 C 1174,1127 1196,1133 1229,1133 1271,1133 1292,1118 1292,1087 L 1292,965 C 1292,929 1282,901 1262,881 L 442,47 C 390,-6 338,-33 285,-33 Z"/>
  </g>
  <g id="bullet-char-template-9679" transform="scale(0.00048828125,-0.00048828125)">
   <path d="M 813,0 C 632,0 489,54 383,161 276,268 223,411 223,592 223,773 276,916 383,1023 489,1130 632,1184 813,1184 992,1184 1136,1130 1245,1023 1353,916 1407,772 1407,592 1407,412 1353,268 1245,161 1136,54 992,0 813,0 Z"/>
  </g>
  <g id="bullet-char-template-8226" transform="scale(0.00048828125,-0.00048828125)">
   <path d="M 346,457 C 273,457 209,483 155,535 101,586 74,649 74,723 74,796 101,859 155,911 209,963 273,989 346,989 419,989 480,963 531,910 582,859 608,796 608,723 608,648 583,586 532,535 482,483 420,457 346,457 Z"/>
  </g>
  <g id="bullet-char-template-8211" transform="scale(0.00048828125,-0.00048828125)">
   <path d="M -4,459 L 1135,459 1135,606 -4,606 -4,459 Z"/>
  </g>
  <g id="bullet-char-template-61548" transform="scale(0.00048828125,-0.00048828125)">
   <path d="M 173,740 C 173,903 231,1043 346,1159 462,1274 601,1332 765,1332 928,1332 1067,1274 1183,1159 1299,1043 1357,903 1357,740 1357,577 1299,437 1183,322 1067,206 928,148 765,148 601,148 462,206 346,322 231,437 173,577 173,740 Z"/>
  </g>
 </defs>
 <defs class="TextEmbeddedBitmaps"/>
 <g class="SlideGroup">
  <g>
   <g id="container-id1">
    <g id="id1" class="Slide" clip-path="url(#presentation_clip_path)">
     <g class="Page">
      <g class="Graphic">
       <g id="id3">
        <rect class="BoundingBox" stroke="none" fill="none" x="3045" y="4592" width="3005" height="3005"/>
        <path fill="rgb(218,68,53)" stroke="none" d="M 4548,4592 L 4625,4594 4701,4600 4776,4609 4850,4623 4923,4639 4994,4660 5064,4683 5132,4710 5199,4740 5264,4773 5327,4809 5388,4849 5446,4890 5503,4935 5558,4982 5610,5032 5660,5084 5707,5139 5752,5196 5793,5254 5833,5315 5869,5378 5902,5443 5932,5510 5959,5578 5982,5648 6003,5719 6019,5792 6033,5866 6042,5941 6048,6017 6050,6095 6048,6172 6042,6248 6033,6323 6019,6397 6003,6470 5982,6541 5959,6611 5932,6679 5902,6746 5869,6811 5833,6874 5793,6935 5752,6994 5707,7050 5660,7105 5610,7157 5558,7207 5503,7254 5446,7299 5388,7340 5327,7380 5264,7416 5199,7449 5132,7479 5064,7506 4994,7529 4923,7550 4850,7566 4776,7580 4701,7589 4625,7595 4548,7597 4470,7595 4394,7589 4319,7580 4245,7566 4172,7550 4101,7529 4031,7506 3963,7479 3896,7449 3831,7416 3768,7380 3707,7340 3648,7299 3592,7254 3537,7207 3485,7157 3435,7105 3388,7050 3343,6994 3302,6935 3262,6874 3226,6811 3193,6746 3163,6679 3136,6611 3113,6541 3092,6470 3076,6397 3062,6323 3053,6248 3047,6172 3045,6095 3047,6017 3053,5941 3062,5866 3076,5792 3092,5719 3113,5648 3136,5578 3163,5510 3193,5443 3226,5378 3262,5315 3302,5254 3343,5196 3388,5139 3435,5084 3485,5032 3537,4982 3592,4935 3648,4890 3707,4849 3768,4809 3831,4773 3896,4740 3963,4710 4031,4683 4101,4660 4172,4639 4245,4623 4319,4609 4394,4600 4470,4594 4548,4592 Z"/>
        <path fill="rgb(255,255,255)" stroke="none" d="M 3553,5969 L 5542,5969 5539,5952 5537,5935 5534,5918 5531,5901 5527,5885 5524,5868 5520,5851 5515,5835 5511,5818 5506,5802 5501,5786 5495,5769 5490,5753 5484,5737 5477,5721 5471,5705 5466,5694 5461,5682 5456,5672 5451,5660 5445,5650 5440,5639 5434,5628 5429,5617 5423,5607 5417,5596 5411,5586 5405,5576 5398,5566 5392,5555 5386,5545 5379,5535 5372,5525 5365,5516 5358,5506 5351,5496 5344,5487 5337,5477 5329,5468 5321,5458 5314,5449 5306,5440 5298,5431 5290,5422 5281,5413 5273,5404 5264,5395 5256,5386 5247,5378 5238,5369 5229,5361 5220,5352 5211,5344 5202,5336 5193,5328 5184,5321 5174,5313 5165,5305 5155,5298 5146,5291 5136,5284 5126,5277 5117,5270 5107,5263 5097,5256 5087,5250 5076,5244 5066,5237 5056,5231 5046,5225 5035,5219 5025,5213 5014,5208 5003,5202 4992,5197 4982,5191 4970,5186 4960,5181 4948,5176 4937,5171 4926,5167 4914,5162 4902,5157 4890,5153 4879,5149 4867,5145 4855,5141 4843,5137 4831,5133 4819,5130 4807,5127 4795,5124 4783,5121 4771,5118 4759,5115 4747,5112 4735,5110 4723,5108 4710,5106 4698,5104 4686,5102 4673,5101 4661,5099 4648,5098 4636,5097 4623,5096 4611,5095 4598,5094 4586,5094 4573,5093 4560,5093 4548,5093 4535,5093 4522,5093 4509,5094 4497,5094 4484,5095 4472,5096 4459,5097 4446,5098 4434,5099 4422,5101 4409,5102 4397,5104 4385,5106 4372,5108 4360,5110 4348,5112 4336,5115 4324,5118 4312,5121 4300,5124 4288,5127 4276,5130 4264,5133 4252,5137 4240,5141 4228,5145 4216,5149 4204,5153 4193,5157 4181,5162 4169,5167 4158,5171 4147,5176 4135,5181 4124,5186 4113,5191 4103,5197 4092,5202 4081,5208 4070,5213 4060,5219 4049,5225 4039,5231 4029,5237 4018,5244 4008,5250 3998,5256 3988,5263 3978,5270 3968,5277 3959,5284 3949,5291 3940,5298 3930,5305 3921,5313 3911,5321 3902,5328 3893,5336 3884,5344 3875,5352 3866,5361 3857,5369 3848,5378 3839,5386 3831,5395 3822,5404 3814,5413 3805,5422 3797,5431 3789,5440 3781,5449 3774,5458 3766,5468 3758,5477 3751,5487 3744,5496 3737,5506 3730,5516 3723,5525 3716,5535 3709,5545 3703,5555 3697,5566 3690,5576 3684,5586 3678,5596 3672,5607 3666,5617 3661,5628 3655,5639 3650,5650 3644,5660 3639,5672 3634,5682 3629,5694 3624,5705 3618,5721 3611,5737 3605,5753 3600,5769 3594,5786 3589,5802 3584,5818 3580,5835 3575,5851 3571,5868 3567,5885 3564,5901 3561,5918 3558,5935 3556,5952 3553,5969 Z"/>
        <path fill="rgb(255,255,255)" stroke="none" d="M 5542,6220 L 3553,6220 3556,6237 3558,6254 3561,6271 3564,6287 3567,6304 3571,6321 3575,6338 3580,6354 3584,6371 3589,6387 3594,6403 3600,6420 3605,6436 3611,6452 3618,6468 3624,6484 3629,6495 3634,6507 3639,6518 3644,6529 3650,6539 3655,6550 3661,6561 3666,6572 3672,6582 3678,6593 3684,6603 3690,6613 3697,6624 3703,6634 3709,6644 3716,6654 3723,6664 3730,6674 3737,6683 3744,6693 3751,6702 3758,6712 3766,6721 3774,6731 3781,6740 3789,6749 3797,6758 3805,6767 3814,6776 3822,6785 3831,6794 3839,6803 3848,6811 3857,6820 3866,6828 3875,6837 3884,6845 3893,6853 3902,6861 3911,6868 3921,6876 3930,6884 3940,6891 3949,6898 3959,6905 3968,6912 3978,6919 3988,6926 3998,6933 4008,6939 4018,6945 4029,6952 4039,6958 4049,6964 4060,6970 4070,6976 4081,6981 4092,6987 4103,6992 4113,6998 4124,7003 4135,7008 4147,7013 4158,7018 4169,7022 4181,7027 4193,7032 4204,7036 4216,7040 4228,7044 4240,7048 4252,7052 4264,7056 4276,7059 4288,7062 4300,7065 4312,7068 4324,7071 4336,7074 4348,7077 4360,7079 4372,7081 4385,7083 4397,7085 4409,7087 4422,7089 4434,7090 4446,7091 4459,7092 4472,7093 4484,7094 4497,7095 4509,7096 4522,7096 4535,7096 4548,7096 4560,7096 4573,7096 4586,7096 4598,7095 4611,7094 4623,7093 4636,7092 4648,7091 4661,7090 4673,7089 4686,7087 4698,7085 4710,7083 4723,7081 4735,7079 4747,7077 4759,7074 4771,7071 4783,7068 4795,7065 4807,7062 4819,7059 4831,7056 4843,7052 4855,7048 4867,7044 4879,7040 4890,7036 4902,7032 4914,7027 4926,7022 4937,7018 4948,7013 4960,7008 4970,7003 4982,6998 4992,6992 5003,6987 5014,6981 5025,6976 5035,6970 5046,6964 5056,6958 5066,6952 5076,6945 5087,6939 5097,6933 5107,6926 5117,6919 5126,6912 5136,6905 5146,6898 5155,6891 5165,6884 5174,6876 5184,6868 5193,6861 5202,6853 5211,6845 5220,6837 5229,6828 5238,6820 5247,6811 5256,6803 5264,6794 5273,6785 5281,6776 5290,6767 5298,6758 5306,6749 5314,6740 5321,6731 5329,6721 5337,6712 5344,6702 5351,6693 5358,6683 5365,6674 5372,6664 5379,6654 5386,6644 5392,6634 5398,6624 5405,6613 5411,6603 5417,6593 5423,6582 5429,6572 5434,6561 5440,6550 5445,6539 5451,6529 5456,6518 5461,6507 5466,6495 5471,6484 5477,6468 5484,6452 5490,6436 5495,6420 5501,6403 5506,6387 5511,6371 5515,6354 5520,6338 5524,6321 5527,6304 5531,6287 5534,6271 5537,6254 5539,6237 5542,6220 Z"/>
        <path fill="rgb(26,28,26)" stroke="none" d="M 4957,5726 L 4957,5851 4957,5852 4957,5854 4957,5856 4957,5857 4957,5859 4956,5861 4956,5863 4955,5864 4954,5866 4952,5867 4951,5868 4949,5868 4947,5869 4945,5869 4943,5869 4941,5869 4892,5869 4891,5869 4889,5869 4888,5869 4886,5869 4884,5868 4883,5867 4882,5867 4881,5866 4880,5866 4880,5865 4879,5864 4879,5863 4878,5861 4878,5860 4878,5858 4877,5856 4877,5854 4877,5852 4877,5739 4875,5739 4872,5740 4869,5740 4867,5740 4858,5742 4849,5743 4840,5744 4829,5745 4819,5746 4809,5746 4798,5747 4787,5748 4776,5748 4765,5749 4754,5749 4744,5749 4734,5750 4724,5750 4715,5750 4706,5750 4701,5750 4693,5751 4684,5751 4674,5751 4662,5751 4650,5752 4637,5752 4624,5752 4611,5752 4599,5752 4587,5753 4575,5753 4565,5753 4556,5753 4548,5753 4542,5753 4533,5753 4523,5753 4514,5753 4504,5753 4495,5753 4485,5753 4476,5752 4466,5752 4456,5752 4447,5752 4437,5752 4427,5751 4418,5751 4408,5751 4399,5750 4390,5750 4381,5749 4371,5749 4362,5749 4352,5748 4342,5748 4332,5747 4321,5747 4311,5746 4301,5746 4290,5745 4280,5745 4270,5744 4260,5744 4250,5743 4241,5743 4232,5742 4222,5742 4222,5849 4222,5857 4221,5860 4221,5862 4220,5864 4218,5865 4217,5867 4216,5868 4214,5868 4213,5869 4211,5869 4208,5869 4205,5869 4204,5869 4158,5869 4157,5869 4155,5869 4153,5869 4152,5869 4150,5869 4148,5868 4147,5867 4147,5867 4146,5866 4145,5865 4144,5864 4144,5863 4143,5863 4143,5862 4142,5860 4142,5857 4142,5856 4142,5854 4142,5851 4142,5850 4142,5725 4109,5725 4108,5725 4105,5725 4103,5725 4101,5725 4099,5724 4098,5723 4096,5722 4094,5721 4093,5719 4092,5718 4091,5716 4090,5714 4090,5711 4090,5708 4090,5705 4090,5702 4090,5697 4090,5691 4090,5685 4090,5679 4090,5674 4090,5668 4090,5662 4090,5657 4089,5652 4089,5645 4089,5639 4088,5632 4088,5626 4088,5620 4087,5614 4087,5608 4086,5601 4085,5594 4084,5587 4083,5580 4082,5572 4080,5565 4079,5558 4077,5552 4076,5548 4075,5543 4073,5537 4073,5534 4072,5530 4072,5527 4072,5524 4072,5520 4072,5517 4072,5514 4073,5510 4073,5507 4074,5503 4074,5500 4075,5496 4076,5493 4078,5489 4079,5486 4080,5483 4082,5479 4083,5477 4085,5475 4086,5472 4088,5470 4091,5465 4095,5461 4099,5457 4104,5453 4108,5449 4113,5445 4116,5443 4120,5441 4124,5439 4127,5437 4131,5436 4135,5434 4139,5433 4143,5432 4145,5432 4147,5432 4149,5431 4150,5431 4281,5260 4283,5258 4286,5255 4287,5254 4289,5252 4290,5251 4292,5250 4295,5249 4297,5249 4300,5248 4303,5248 4304,5248 4306,5248 4309,5248 4310,5248 4785,5248 4787,5248 4789,5248 4791,5248 4793,5248 4796,5248 4798,5249 4801,5250 4803,5250 4805,5251 4807,5253 4809,5254 4811,5256 4811,5257 4813,5259 4815,5261 4816,5262 4951,5432 4953,5433 4955,5434 4958,5435 4960,5436 4963,5437 4967,5438 4970,5440 4973,5441 4976,5443 4979,5444 4982,5446 4985,5448 4989,5451 4993,5454 4997,5458 5000,5461 5003,5465 5006,5469 5009,5473 5012,5477 5014,5482 5016,5487 5018,5491 5020,5496 5021,5501 5022,5506 5023,5511 5023,5516 5023,5520 5023,5525 5022,5531 5022,5537 5021,5542 5020,5548 5019,5553 5018,5557 5017,5561 5017,5566 5016,5570 5015,5574 5015,5579 5014,5583 5013,5588 5013,5592 5012,5597 5012,5601 5011,5606 5010,5611 5010,5615 5009,5620 5009,5625 5008,5629 5008,5633 5008,5637 5007,5641 5007,5645 5007,5650 5007,5654 5006,5658 5006,5662 5006,5666 5006,5670 5006,5675 5006,5679 5006,5684 5007,5688 5007,5692 5007,5697 5008,5700 5008,5703 5008,5707 5008,5710 5008,5713 5007,5715 5007,5717 5006,5718 5006,5719 5005,5721 5004,5722 5004,5722 5003,5723 5002,5724 5001,5725 5000,5725 4999,5725 4997,5726 4996,5726 4994,5726 4992,5726 4990,5726 4957,5726 Z"/>
        <path fill="rgb(26,28,26)" stroke="none" d="M 4631,6785 L 4437,6786 4434,6786 4432,6786 4429,6786 4427,6786 4425,6785 4423,6785 4422,6784 4420,6783 4418,6782 4415,6781 4415,6781 4414,6780 4413,6779 4412,6778 4412,6776 4411,6774 4410,6772 4410,6770 4410,6769 4410,6766 4410,6765 4410,6763 4411,6761 4412,6759 4413,6757 4415,6755 4415,6755 4416,6754 4416,6753 4417,6753 4418,6752 4419,6752 4420,6751 4420,6751 4422,6749 4424,6747 4378,6687 4378,6686 4375,6684 4375,6683 4374,6683 4373,6682 4372,6682 4371,6682 4370,6682 4369,6682 4368,6682 4367,6683 4366,6683 4365,6683 4365,6684 4364,6686 4363,6687 4363,6690 4362,6691 4361,6728 4361,6730 4361,6732 4361,6732 4360,6733 4360,6734 4360,6735 4360,6736 4359,6737 4359,6738 4359,6738 4359,6738 4358,6739 4358,6739 4356,6740 4355,6740 4353,6741 4351,6742 4349,6742 4348,6742 4347,6742 4344,6742 4343,6741 4342,6743 4342,6744 4341,6746 4341,6747 4339,6757 4336,6765 4332,6774 4328,6782 4323,6789 4318,6796 4312,6803 4306,6809 4300,6814 4293,6819 4286,6824 4278,6828 4270,6832 4262,6836 4254,6838 4246,6841 4237,6843 4229,6844 4220,6845 4211,6845 4202,6845 4194,6845 4185,6843 4176,6842 4168,6840 4159,6837 4151,6834 4144,6830 4136,6825 4128,6820 4121,6815 4115,6809 4111,6805 4107,6801 4104,6797 4101,6794 4097,6789 4094,6785 4091,6781 4089,6776 4086,6772 4084,6767 4082,6763 4080,6758 4078,6753 4077,6748 4076,6743 4074,6738 4073,6733 4073,6728 4072,6723 4072,6718 4072,6712 4073,6707 4073,6702 4074,6697 4075,6691 4076,6686 4078,6681 4079,6675 4082,6670 4084,6665 4087,6659 4089,6654 4091,6652 4092,6650 4093,6649 4094,6648 4095,6647 4096,6646 4089,6643 4088,6640 4087,6638 4087,6636 4087,6632 4088,6631 4089,6629 4090,6628 4090,6627 4091,6627 4092,6626 4095,6623 4097,6620 4100,6618 4103,6615 4106,6612 4109,6610 4112,6608 4115,6606 4118,6603 4122,6600 4125,6598 4129,6596 4133,6594 4138,6592 4142,6590 4146,6588 4150,6586 4155,6584 4159,6582 4163,6581 4168,6579 4173,6578 4177,6577 4182,6576 4186,6575 4190,6575 4194,6574 4198,6573 4202,6573 4206,6573 4210,6573 4215,6574 4219,6574 4225,6574 4230,6575 4233,6575 4233,6548 4233,6547 4234,6544 4234,6543 4234,6541 4235,6540 4236,6539 4237,6538 4238,6538 4240,6537 4242,6537 4243,6537 4245,6537 4246,6537 4246,6538 4250,6539 4255,6540 4258,6541 4260,6542 4262,6539 4265,6537 4267,6535 4269,6533 4271,6531 4273,6530 4275,6528 4277,6527 4280,6526 4282,6524 4285,6523 4288,6523 4291,6522 4294,6521 4299,6521 4304,6521 4309,6521 4314,6522 4319,6523 4324,6524 4329,6525 4333,6526 4349,6532 4350,6531 4353,6530 4356,6529 4359,6527 4363,6526 4367,6525 4369,6524 4372,6524 4375,6524 4378,6524 4380,6524 4382,6524 4383,6525 4385,6525 4388,6526 4392,6527 4398,6528 4403,6529 4409,6531 4414,6532 4418,6532 4420,6533 4421,6532 4423,6532 4424,6531 4426,6530 4418,6501 4416,6498 4414,6493 4412,6489 4411,6487 4410,6485 4409,6483 4409,6482 4409,6481 4409,6480 4409,6479 4408,6477 4407,6475 4407,6473 4406,6471 4406,6470 4406,6468 4403,6468 4401,6469 4399,6470 4397,6471 4395,6471 4394,6471 4392,6471 4389,6470 4388,6469 4387,6468 4386,6467 4386,6466 4385,6465 4384,6464 4384,6463 4384,6462 4384,6461 4384,6460 4382,6458 4381,6456 4379,6454 4377,6452 4376,6452 4374,6452 4372,6452 4372,6452 4366,6452 4365,6452 4364,6452 4362,6451 4360,6450 4360,6447 4360,6445 4360,6443 4359,6441 4359,6439 4358,6437 4358,6437 4358,6436 4357,6435 4357,6434 4356,6432 4356,6430 4347,6411 4346,6410 4345,6408 4344,6407 4344,6405 4344,6402 4344,6399 4344,6395 4344,6391 4344,6387 4345,6383 4346,6379 4348,6376 4350,6372 4352,6368 4354,6365 4357,6362 4361,6359 4364,6356 4368,6353 4371,6351 4375,6349 4378,6347 4383,6347 4387,6346 4390,6345 4392,6345 4394,6345 4397,6345 4399,6345 4403,6345 4407,6345 4412,6345 4416,6346 4421,6347 4424,6348 4427,6349 4430,6350 4433,6352 4434,6353 4436,6354 4437,6355 4439,6356 4442,6359 4444,6362 4446,6364 4448,6367 4450,6370 4451,6373 4452,6376 4453,6379 4455,6385 4456,6391 4456,6395 4457,6400 4457,6404 4457,6408 4459,6408 4462,6408 4466,6409 4470,6409 4475,6410 4480,6411 4484,6411 4486,6411 4489,6412 4492,6412 4497,6412 4503,6413 4508,6413 4513,6414 4517,6415 4519,6415 4522,6416 4527,6418 4533,6421 4539,6424 4546,6427 4552,6430 4557,6433 4560,6436 4565,6440 4571,6446 4579,6453 4588,6460 4597,6468 4606,6476 4615,6484 4622,6491 4626,6494 4630,6497 4634,6501 4638,6505 4643,6508 4647,6512 4651,6516 4655,6519 4657,6521 4661,6524 4665,6528 4669,6532 4674,6536 4678,6540 4682,6543 4684,6545 4687,6549 4690,6552 4693,6556 4696,6560 4697,6562 4698,6564 4698,6566 4699,6568 4700,6573 4701,6578 4702,6579 4702,6581 4702,6582 4702,6584 4702,6588 4702,6591 4702,6594 4702,6597 4701,6600 4700,6603 4700,6605 4699,6607 4699,6609 4699,6610 4698,6612 4697,6613 4696,6615 4694,6616 4745,6648 4747,6644 4752,6637 4758,6630 4760,6627 4763,6624 4766,6621 4768,6618 4769,6617 4770,6616 4771,6615 4773,6613 4776,6611 4777,6609 4778,6608 4779,6607 4780,6606 4780,6604 4780,6603 4780,6601 4780,6601 4780,6600 4779,6600 4779,6599 4778,6597 4776,6596 4775,6594 4773,6593 4771,6592 4768,6591 4766,6590 4763,6589 4761,6588 4758,6587 4755,6586 4752,6585 4730,6578 4729,6577 4727,6576 4727,6576 4726,6575 4725,6574 4725,6574 4724,6573 4723,6572 4723,6571 4723,6570 4722,6569 4722,6568 4722,6566 4722,6565 4722,6563 4723,6561 4723,6560 4723,6559 4724,6558 4725,6557 4726,6556 4728,6555 4730,6554 4731,6553 4937,6549 4965,6551 4967,6554 4970,6558 4972,6560 4973,6562 4974,6563 4974,6565 4974,6566 4975,6567 4975,6568 4975,6569 4975,6570 4975,6572 4974,6573 4974,6574 4974,6575 4973,6575 4973,6576 4972,6577 4971,6579 4970,6580 4965,6586 4964,6587 4963,6588 4962,6588 4961,6589 4960,6591 4959,6593 4959,6595 4959,6597 4959,6598 4960,6600 4960,6600 4960,6601 4960,6601 4961,6602 4963,6604 4966,6606 4969,6607 4971,6609 4974,6611 4976,6613 4981,6618 4986,6622 4988,6624 4990,6627 4992,6629 4994,6631 4997,6637 5000,6643 5002,6646 5004,6649 5006,6653 5007,6657 5007,6658 5007,6659 5007,6660 5007,6661 5008,6661 5008,6662 5011,6662 5013,6662 5015,6662 5016,6662 5017,6662 5018,6662 5018,6663 5019,6663 5020,6663 5021,6664 5022,6665 5023,6666 5023,6667 5023,6669 5023,6671 5023,6672 5023,6758 5023,6759 5022,6761 5022,6762 5022,6763 5022,6763 5021,6764 5019,6766 5017,6768 5016,6768 5015,6768 5013,6768 5011,6768 5008,6768 5005,6768 5004,6767 5002,6766 5001,6766 5001,6766 5000,6765 4999,6765 4999,6765 4999,6765 4998,6764 4998,6764 4997,6764 4996,6764 4996,6766 4995,6769 4993,6773 4991,6777 4989,6781 4987,6785 4984,6788 4981,6792 4979,6795 4976,6799 4973,6802 4969,6806 4966,6809 4962,6812 4959,6815 4955,6818 4951,6821 4948,6823 4943,6826 4939,6828 4935,6831 4931,6833 4927,6835 4922,6837 4918,6838 4913,6840 4909,6841 4904,6842 4900,6843 4895,6844 4890,6845 4886,6845 4881,6846 4876,6846 4871,6846 4865,6845 4859,6845 4854,6844 4848,6843 4843,6842 4837,6841 4832,6839 4827,6837 4822,6835 4817,6833 4812,6831 4807,6828 4802,6826 4798,6823 4793,6820 4789,6816 4785,6813 4781,6809 4777,6806 4773,6802 4769,6797 4766,6793 4763,6789 4760,6784 4757,6779 4754,6774 4752,6769 4750,6764 4748,6759 4746,6753 4745,6747 4743,6745 4742,6742 4631,6785 Z"/>
        <path fill="rgb(255,255,255)" stroke="none" d="M 4166,5478 L 4169,5478 4172,5478 4175,5479 4178,5479 4181,5480 4184,5481 4187,5481 4190,5482 4192,5484 4195,5485 4198,5486 4200,5488 4202,5489 4205,5491 4207,5493 4209,5495 4211,5497 4213,5499 4215,5501 4217,5503 4218,5506 4220,5508 4221,5511 4222,5514 4223,5516 4224,5519 4225,5522 4226,5524 4226,5527 4227,5530 4227,5534 4227,5537 4227,5540 4227,5543 4227,5546 4226,5549 4225,5551 4224,5554 4223,5557 4222,5560 4221,5562 4220,5565 4218,5567 4217,5570 4215,5572 4213,5574 4211,5577 4209,5579 4207,5581 4205,5583 4202,5584 4200,5586 4197,5587 4195,5589 4192,5590 4189,5591 4187,5592 4184,5593 4181,5594 4178,5595 4175,5595 4172,5595 4169,5596 4165,5596 4162,5595 4159,5595 4156,5595 4153,5594 4151,5594 4148,5593 4145,5592 4142,5591 4140,5589 4137,5588 4135,5587 4132,5585 4130,5584 4128,5582 4125,5580 4123,5578 4122,5576 4120,5574 4118,5572 4116,5569 4115,5567 4113,5564 4112,5562 4111,5559 4110,5557 4109,5554 4108,5551 4107,5548 4107,5545 4107,5543 4106,5540 4106,5537 4106,5534 4107,5530 4107,5528 4108,5525 4108,5522 4109,5519 4110,5516 4111,5514 4112,5511 4114,5509 4115,5506 4117,5504 4118,5502 4120,5499 4122,5497 4124,5495 4126,5493 4128,5491 4131,5490 4133,5488 4135,5487 4138,5485 4141,5484 4143,5483 4146,5482 4149,5481 4151,5480 4154,5479 4157,5479 4160,5478 4163,5478 4166,5478 Z"/>
        <path fill="rgb(255,255,255)" stroke="none" d="M 4431,5537 L 4431,5670 4257,5670 4255,5670 4253,5670 4251,5670 4250,5670 4248,5669 4245,5669 4243,5669 4241,5668 4239,5667 4237,5666 4236,5665 4234,5663 4233,5662 4232,5660 4231,5658 4230,5657 4230,5655 4229,5653 4229,5651 4230,5649 4230,5647 4230,5645 4231,5642 4232,5640 4287,5549 4288,5547 4289,5546 4290,5544 4291,5543 4293,5541 4295,5540 4297,5539 4299,5538 4301,5537 4304,5537 4307,5537 4310,5537 4317,5537 4431,5537 Z"/>
        <path fill="rgb(255,255,255)" stroke="none" d="M 4444,5537 L 4653,5537 4653,5670 4444,5670 4444,5537 Z"/>
        <path fill="rgb(255,255,255)" stroke="none" d="M 4668,5537 L 4779,5537 4781,5537 4784,5537 4787,5537 4789,5537 4792,5537 4795,5537 4796,5538 4798,5538 4799,5538 4800,5539 4802,5540 4804,5542 4806,5543 4807,5545 4809,5548 4811,5550 4865,5639 4866,5641 4867,5643 4868,5645 4868,5646 4868,5648 4869,5650 4869,5652 4869,5654 4868,5655 4868,5657 4867,5659 4866,5661 4865,5662 4864,5664 4862,5665 4861,5666 4859,5667 4857,5668 4855,5669 4853,5670 4851,5670 4848,5670 4844,5670 4842,5670 4668,5670 4668,5537 Z"/>
        <path fill="rgb(255,255,255)" stroke="none" d="M 4931,5478 L 4934,5478 4937,5478 4940,5478 4943,5479 4946,5480 4949,5480 4952,5481 4954,5482 4957,5484 4960,5485 4962,5486 4964,5488 4967,5490 4969,5491 4971,5493 4973,5495 4975,5497 4977,5500 4979,5502 4981,5504 4982,5506 4984,5509 4985,5512 4986,5514 4987,5517 4988,5520 4989,5522 4990,5525 4990,5528 4991,5531 4991,5534 4991,5537 4991,5540 4990,5543 4990,5546 4989,5549 4989,5552 4988,5555 4987,5558 4986,5560 4985,5563 4983,5566 4982,5568 4980,5571 4978,5573 4976,5575 4975,5577 4973,5579 4970,5581 4968,5583 4966,5585 4963,5586 4961,5588 4958,5589 4956,5591 4953,5592 4950,5593 4947,5594 4944,5595 4941,5595 4938,5595 4935,5596 4932,5596 4929,5596 4926,5596 4923,5596 4920,5595 4917,5595 4914,5594 4911,5593 4908,5592 4906,5591 4903,5590 4900,5589 4898,5587 4896,5586 4893,5584 4891,5583 4889,5581 4887,5579 4885,5577 4883,5575 4881,5572 4879,5570 4878,5568 4876,5565 4875,5563 4874,5560 4873,5557 4872,5555 4871,5552 4870,5549 4870,5546 4869,5543 4869,5540 4869,5537 4869,5534 4869,5531 4869,5528 4870,5525 4871,5522 4871,5519 4873,5517 4874,5514 4875,5511 4876,5509 4878,5506 4879,5504 4881,5501 4883,5499 4885,5497 4887,5495 4889,5493 4891,5491 4894,5489 4896,5487 4899,5486 4901,5484 4904,5483 4907,5482 4910,5481 4912,5480 4915,5479 4918,5479 4921,5478 4925,5478 4928,5478 4931,5478 Z"/>
        <path fill="rgb(255,255,255)" stroke="none" d="M 4911,5438 L 4909,5438 4907,5438 4904,5438 4902,5438 4729,5424 4718,5424 4707,5423 4695,5422 4683,5422 4670,5422 4657,5421 4643,5421 4630,5421 4616,5421 4603,5420 4590,5420 4577,5420 4565,5420 4553,5420 4542,5420 4531,5420 4522,5420 4513,5421 4502,5421 4492,5421 4480,5421 4468,5421 4457,5421 4445,5421 4433,5422 4421,5422 4409,5422 4398,5422 4387,5423 4377,5423 4367,5423 4358,5423 4196,5434 4193,5434 4191,5434 4189,5434 4186,5434 4298,5291 4299,5289 4301,5287 4303,5286 4304,5285 4306,5284 4308,5283 4310,5282 4313,5282 4315,5281 4317,5281 4319,5281 4321,5281 4322,5281 4324,5281 4772,5281 4773,5281 4776,5281 4777,5281 4779,5281 4782,5281 4784,5282 4786,5282 4788,5283 4789,5283 4791,5284 4793,5285 4794,5286 4797,5289 4799,5292 4911,5438 Z"/>
        <path fill="rgb(255,255,255)" stroke="none" d="M 4388,6581 L 4305,6581 4305,6581 4305,6581 4305,6581 4305,6581 4305,6580 4306,6579 4307,6577 4309,6574 4312,6571 4314,6567 4317,6564 4320,6562 4321,6561 4323,6560 4324,6560 4325,6559 4328,6558 4330,6558 4333,6557 4336,6557 4338,6557 4341,6557 4344,6557 4347,6557 4350,6558 4353,6558 4356,6559 4359,6560 4362,6561 4365,6562 4370,6565 4374,6569 4379,6572 4383,6576 4386,6579 4388,6581 Z"/>
        <path fill="rgb(255,255,255)" stroke="none" d="M 4236,6699 L 4252,6676 4254,6678 4256,6680 4258,6683 4259,6685 4261,6688 4263,6690 4264,6693 4265,6696 4266,6698 4267,6701 4268,6704 4268,6706 4269,6709 4269,6711 4269,6714 4269,6717 4269,6720 4268,6723 4268,6725 4267,6728 4267,6731 4266,6733 4265,6736 4264,6739 4263,6741 4262,6743 4260,6746 4259,6748 4257,6750 4255,6752 4254,6754 4252,6756 4249,6759 4247,6760 4245,6762 4242,6764 4240,6765 4237,6767 4235,6768 4232,6769 4229,6770 4227,6771 4224,6772 4221,6772 4218,6773 4215,6773 4212,6773 4209,6773 4206,6773 4203,6773 4200,6773 4198,6772 4195,6771 4192,6770 4189,6769 4186,6768 4184,6767 4181,6766 4178,6764 4176,6763 4174,6761 4171,6759 4169,6757 4167,6755 4165,6753 4164,6751 4162,6749 4160,6747 4159,6745 4158,6742 4156,6740 4155,6737 4154,6735 4154,6732 4153,6730 4152,6727 4152,6725 4152,6722 4151,6720 4151,6717 4151,6714 4151,6711 4151,6708 4152,6706 4152,6703 4153,6700 4154,6698 4155,6695 4156,6692 4158,6690 4159,6687 4161,6685 4162,6683 4164,6680 4166,6678 4168,6676 4171,6674 4173,6672 4176,6671 4179,6669 4182,6668 4185,6667 4188,6666 4192,6665 4197,6664 4202,6663 4205,6662 4207,6662 4208,6687 4205,6688 4201,6689 4197,6690 4194,6691 4192,6693 4190,6694 4189,6695 4188,6696 4187,6697 4187,6698 4185,6700 4184,6702 4182,6704 4181,6706 4180,6709 4180,6711 4179,6714 4179,6717 4179,6720 4179,6723 4180,6725 4181,6728 4181,6729 4181,6731 4182,6732 4183,6734 4184,6735 4185,6736 4186,6737 4187,6739 4188,6740 4189,6741 4190,6742 4192,6743 4193,6744 4194,6744 4196,6745 4197,6745 4200,6746 4203,6747 4206,6747 4209,6748 4212,6748 4214,6747 4217,6747 4219,6747 4221,6746 4224,6745 4226,6745 4228,6743 4230,6742 4232,6741 4234,6739 4236,6737 4237,6734 4239,6732 4240,6729 4241,6726 4241,6723 4241,6719 4241,6716 4240,6712 4239,6706 4238,6702 4237,6700 4236,6699 Z"/>
        <path fill="rgb(255,255,255)" stroke="none" d="M 4436,6707 L 4400,6652 4400,6650 4399,6648 4399,6647 4398,6645 4398,6643 4398,6641 4398,6639 4398,6637 4398,6635 4398,6634 4399,6632 4399,6630 4400,6628 4401,6627 4402,6625 4403,6624 4404,6623 4405,6622 4406,6622 4408,6621 4409,6621 4410,6620 4412,6620 4413,6620 4415,6620 4416,6621 4418,6621 4419,6622 4421,6623 4422,6624 4424,6625 4425,6626 4427,6628 4429,6631 4431,6633 4432,6636 4433,6638 4435,6641 4436,6644 4437,6647 4438,6652 4439,6657 4440,6662 4440,6666 4440,6670 4439,6675 4439,6680 4438,6685 4437,6690 4437,6696 4436,6702 4436,6707 Z"/>
        <path fill="rgb(255,255,255)" stroke="none" d="M 4623,6723 L 4586,6720 4588,6717 4590,6711 4593,6706 4595,6702 4596,6700 4597,6698 4598,6697 4599,6695 4602,6692 4605,6689 4611,6683 4618,6676 4622,6672 4626,6669 4630,6666 4634,6664 4638,6661 4643,6659 4647,6657 4651,6654 4623,6723 Z"/>
        <path fill="rgb(255,255,255)" stroke="none" d="M 4846,6704 L 4845,6705 4845,6707 4844,6709 4844,6711 4843,6712 4843,6714 4843,6716 4843,6718 4843,6720 4843,6723 4844,6726 4845,6729 4846,6731 4848,6734 4850,6736 4851,6738 4853,6740 4856,6742 4858,6743 4861,6744 4864,6745 4866,6746 4869,6746 4872,6746 4875,6746 4877,6746 4879,6746 4881,6745 4884,6744 4886,6743 4888,6742 4890,6741 4891,6740 4893,6738 4894,6737 4896,6735 4897,6733 4898,6732 4899,6730 4900,6728 4925,6740 4923,6743 4921,6747 4919,6750 4916,6753 4914,6756 4911,6759 4907,6761 4904,6763 4901,6766 4897,6767 4893,6769 4889,6770 4885,6772 4881,6772 4877,6773 4872,6773 4869,6773 4866,6773 4864,6772 4861,6772 4858,6771 4855,6770 4853,6770 4850,6769 4848,6768 4845,6766 4843,6765 4840,6764 4838,6762 4836,6760 4834,6759 4832,6757 4830,6755 4828,6753 4827,6751 4825,6749 4824,6747 4822,6744 4821,6742 4820,6739 4819,6737 4818,6734 4817,6732 4817,6729 4816,6726 4816,6724 4816,6721 4816,6718 4816,6714 4816,6711 4816,6707 4817,6704 4818,6701 4819,6698 4820,6695 4822,6692 4846,6704 Z"/>
        <path fill="rgb(255,255,255)" stroke="none" d="M 4900,6707 L 4906,6706 4927,6701 4925,6697 4923,6693 4921,6689 4919,6686 4916,6682 4913,6679 4910,6676 4906,6674 4903,6671 4899,6669 4895,6667 4891,6665 4886,6664 4882,6663 4877,6663 4873,6662 4868,6663 4863,6663 4859,6664 4854,6665 4865,6689 4867,6689 4869,6689 4871,6689 4873,6689 4875,6689 4877,6690 4879,6690 4881,6691 4883,6691 4885,6692 4887,6693 4889,6694 4891,6696 4893,6697 4894,6699 4896,6700 4897,6702 4898,6704 4899,6705 4900,6707 Z"/>
       </g>
      </g>
     </g>
    </g>
   </g>
  </g>
 </g>
</svg>