<?xml version="1.0" encoding="UTF-8"?>
<!DOCTYPE svg PUBLIC "-//W3C//DTD SVG 1.1//EN" "http://www.w3.org/Graphics/SVG/1.1/DTD/svg11.dtd">
<svg version="1.2" width="29.99mm" height="29.99mm" viewBox="9095 13408 2999 2999" preserveAspectRatio="xMidYMid" fill-rule="evenodd" stroke-width="28.222" stroke-linejoin="round" xmlns="http://www.w3.org/2000/svg" xmlns:ooo="http://xml.openoffice.org/svg/export" xmlns:xlink="http://www.w3.org/1999/xlink" xmlns:presentation="http://sun.com/xmlns/staroffice/presentation" xmlns:smil="http://www.w3.org/2001/SMIL20/" xmlns:anim="urn:oasis:names:tc:opendocument:xmlns:animation:1.0" xml:space="preserve">
 <defs class="ClipPathGroup">
  <clipPath id="presentation_clip_path" clipPathUnits="userSpaceOnUse">
   <rect x="9095" y="13408" width="2999" height="2999"/>
  </clipPath>
  <clipPath id="presentation_clip_path_shrink" clipPathUnits="userSpaceOnUse">
   <rect x="9097" y="13410" width="2994" height="2994"/>
  </clipPath>
 </defs>
 <defs class="TextShapeIndex">
  <g ooo:slide="id1" ooo:id-list="id3"/>
 </defs>
 <defs class="EmbeddedBulletChars">
  <g id="bullet-char-template-57356" transform="scale(0.00048828125,-0.00048828125)">
   <path d="M 580,1141 L 1163,571 580,0 -4,571 580,1141 Z"/>
  </g>
  <g id="bullet-char-template-57354" transform="scale(0.00048828125,-0.00048828125)">
   <path d="M 8,1128 L 1137,1128 1137,0 8,0 8,1128 Z"/>
  </g>
  <g id="bullet-char-template-10146" transform="scale(0.00048828125,-0.00048828125)">
   <path d="M 174,0 L 602,739 174,1481 1456,739 174,0 Z M 1358,739 L 309,1346 659,739 1358,739 Z"/>
  </g>
  <g id="bullet-char-template-10132" transform="scale(0.00048828125,-0.00048828125)">
   <path d="M 2015,739 L 1276,0 717,0 1260,543 174,543 174,936 1260,936 717,1481 1274,1481 2015,739 Z"/>
  </g>
  <g id="bullet-char-template-10007" transform="scale(0.00048828125,-0.00048828125)">
   <path d="M 0,-2 C -7,14 -16,27 -25,37 L 356,567 C 262,823 215,952 215,954 215,979 228,992 255,992 264,992 276,990 289,987 310,991 331,999 354,1012 L 381,999 492,748 772,1049 836,1024 860,1049 C 881,1039 901,1025 922,1006 886,937 835,863 770,784 769,783 710,716 594,584 L 774,223 C 774,196 753,168 711,139 L 727,119 C 717,90 699,76 672,76 641,76 570,178 457,381 L 164,-76 C 142,-110 111,-127 72,-127 30,-127 9,-110 8,-76 1,-67 -2,-52 -2,-32 -2,-23 -1,-13 0,-2 Z"/>
  </g>
  <g id="bullet-char-template-10004" transform="scale(0.00048828125,-0.00048828125)">
   <path d="M 285,-33 C 182,-33 111,30 74,156 52,228 41,333 41,471 41,549 55,616 82,672 116,743 169,778 240,778 293,778 328,747 346,684 L 369,508 C 377,444 397,411 428,410 L 1163,1116 C 1174,1127 1196,1133 1229,1133 1271,1133 1292,1118 1292,1087 L 1292,965 C 1292,929 1282,901 1262,881 L 442,47 C 390,-6 338,-33 285,-33 Z"/>
  </g>
  <g id="bullet-char-template-9679" transform="scale(0.00048828125,-0.00048828125)">
   <path d="M 813,0 C 632,0 489,54 383,161 276,268 223,411 223,592 223,773 276,916 383,1023 489,1130 632,1184 813,1184 992,1184 1136,1130 1245,1023 1353,916 1407,772 1407,592 1407,412 1353,268 1245,161 1136,54 992,0 813,0 Z"/>
  </g>
  <g id="bullet-char-template-8226" transform="scale(0.00048828125,-0.00048828125)">
   <path d="M 346,457 C 273,457 209,483 155,535 101,586 74,649 74,723 74,796 101,859 155,911 209,963 273,989 346,989 419,989 480,963 531,910 582,859 608,796 608,723 608,648 583,586 532,535 482,483 420,457 346,457 Z"/>
  </g>
  <g id="bullet-char-template-8211" transform="scale(0.00048828125,-0.00048828125)">
   <path d="M -4,459 L 1135,459 1135,606 -4,606 -4,459 Z"/>
  </g>
  <g id="bullet-char-template-61548" transform="scale(0.00048828125,-0.00048828125)">
   <path d="M 173,740 C 173,903 231,1043 346,1159 462,1274 601,1332 765,1332 928,1332 1067,1274 1183,1159 1299,1043 1357,903 1357,740 1357,577 1299,437 1183,322 1067,206 928,148 765,148 601,148 462,206 346,322 231,437 173,577 173,740 Z"/>
  </g>
 </defs>
 <defs class="TextEmbeddedBitmaps"/>
 <g class="SlideGroup">
  <g>
   <g id="container-id1">
    <g id="id1" class="Slide" clip-path="url(#presentation_clip_path)">
     <g class="Page">
      <g class="Graphic">
       <g id="id3">
        <rect class="BoundingBox" stroke="none" fill="none" x="9095" y="13408" width="3000" height="3000"/>
        <path fill="rgb(218,68,53)" stroke="none" d="M 11345,13609 L 11411,13649 11474,13692 11534,13738 11592,13786 11646,13837 11698,13890 11746,13946 11792,14003 11834,14062 11874,14123 11910,14186 11943,14250 11973,14316 12000,14383 12024,14451 12044,14520 12061,14590 12075,14661 12085,14732 12092,14804 12095,14876 12095,14948 12091,15021 12084,15093 12073,15166 12059,15238 12041,15310 12019,15381 11993,15452 11964,15521 11931,15590 11894,15658 11854,15724 11811,15787 11765,15847 11717,15905 11666,15959 11613,16011 11557,16059 11500,16105 11441,16147 11380,16187 11317,16223 11253,16256 11187,16286 11120,16313 11052,16337 10983,16357 10913,16374 10843,16388 10771,16398 10699,16405 10627,16408 10555,16408 10482,16404 10410,16397 10337,16386 10265,16372 10193,16354 10122,16332 10051,16306 9982,16277 9913,16244 9845,16207 9779,16167 9716,16124 9656,16078 9598,16030 9544,15979 9492,15926 9444,15870 9398,15813 9356,15754 9316,15693 9280,15630 9247,15566 9217,15500 9190,15433 9166,15365 9146,15296 9129,15226 9115,15156 9105,15084 9098,15012 9095,14940 9095,14868 9099,14795 9106,14723 9117,14650 9131,14578 9149,14506 9171,14435 9197,14364 9226,14295 9259,14226 9296,14158 9336,14092 9379,14029 9425,13969 9473,13911 9524,13857 9577,13805 9633,13757 9690,13711 9749,13669 9810,13629 9873,13593 9937,13560 10003,13530 10070,13503 10138,13479 10207,13459 10277,13442 10347,13428 10419,13418 10491,13411 10563,13408 10635,13408 10708,13412 10780,13419 10853,13430 10925,13444 10997,13462 11068,13484 11139,13510 11208,13539 11277,13572 11345,13609 Z"/>
        <path fill="rgb(255,255,255)" stroke="none" d="M 9797,14305 L 10591,14764 11391,14302 11383,14292 11376,14282 11368,14273 11360,14263 11352,14254 11344,14244 11335,14235 11327,14226 11319,14217 11310,14208 11302,14200 11293,14191 11284,14182 11275,14174 11266,14166 11257,14158 11247,14150 11238,14142 11228,14134 11219,14126 11209,14118 11199,14111 11189,14103 11179,14096 11169,14089 11159,14082 11148,14075 11138,14068 11127,14061 11117,14055 11106,14048 11095,14042 11084,14036 11073,14030 11062,14024 11050,14018 11039,14012 11028,14007 11017,14001 11005,13996 10994,13991 10982,13986 10971,13981 10959,13977 10948,13972 10936,13968 10924,13964 10913,13959 10901,13956 10889,13952 10877,13948 10865,13945 10853,13942 10841,13938 10829,13935 10817,13933 10805,13930 10793,13927 10781,13925 10768,13923 10756,13921 10744,13919 10731,13917 10719,13915 10707,13914 10695,13913 10683,13912 10671,13911 10659,13910 10647,13909 10634,13908 10622,13908 10610,13908 10598,13908 10586,13908 10574,13908 10562,13908 10551,13909 10539,13909 10527,13910 10515,13911 10503,13912 10491,13913 10479,13915 10467,13916 10455,13918 10443,13920 10431,13922 10419,13924 10407,13926 10396,13928 10384,13931 10372,13933 10360,13936 10348,13939 10336,13942 10324,13945 10313,13949 10301,13952 10289,13956 10278,13960 10266,13964 10255,13968 10244,13972 10232,13976 10221,13980 10210,13985 10199,13990 10188,13995 10177,13999 10166,14004 10155,14010 10144,14015 10134,14020 10123,14026 10113,14032 10102,14037 10092,14043 10081,14050 10071,14056 10061,14062 10051,14069 10041,14075 10031,14082 10021,14089 10011,14096 10001,14103 9991,14110 9978,14121 9964,14132 9951,14143 9937,14154 9925,14166 9912,14177 9899,14189 9887,14201 9875,14214 9863,14226 9852,14239 9840,14252 9829,14265 9818,14278 9807,14292 9797,14305 Z"/>
        <path fill="rgb(255,255,255)" stroke="none" d="M 10472,15901 L 10472,14984 9672,14522 9666,14538 9659,14553 9654,14570 9648,14586 9643,14602 9637,14618 9633,14634 9628,14650 9624,14667 9620,14683 9616,14700 9613,14717 9610,14733 9607,14750 9604,14767 9602,14784 9601,14796 9599,14808 9598,14820 9597,14833 9597,14845 9596,14857 9595,14869 9595,14881 9595,14893 9595,14905 9595,14917 9595,14929 9595,14941 9595,14953 9596,14965 9597,14977 9598,14988 9599,15000 9600,15012 9601,15024 9603,15036 9604,15048 9606,15060 9608,15072 9610,15084 9613,15096 9615,15108 9617,15120 9620,15132 9623,15143 9626,15155 9629,15167 9632,15179 9636,15191 9639,15202 9643,15214 9646,15225 9650,15237 9654,15248 9658,15260 9663,15271 9667,15282 9672,15293 9676,15304 9681,15315 9686,15326 9691,15337 9696,15348 9702,15359 9707,15369 9713,15380 9718,15390 9724,15401 9730,15411 9736,15422 9743,15432 9749,15442 9755,15452 9762,15462 9769,15472 9776,15482 9783,15492 9790,15502 9797,15512 9805,15522 9813,15532 9820,15541 9828,15551 9836,15561 9844,15570 9853,15579 9861,15588 9870,15597 9878,15606 9887,15615 9896,15624 9905,15633 9914,15641 9923,15649 9932,15658 9942,15666 9951,15674 9960,15682 9970,15690 9980,15697 9990,15705 10000,15712 10010,15720 10020,15727 10031,15734 10041,15741 10052,15748 10062,15755 10073,15761 10084,15768 10095,15774 10106,15781 10117,15787 10128,15793 10139,15798 10151,15804 10162,15810 10173,15815 10185,15820 10196,15825 10207,15830 10219,15835 10231,15840 10242,15844 10254,15849 10265,15853 10277,15857 10289,15861 10301,15864 10313,15868 10325,15871 10336,15875 10348,15878 10361,15881 10373,15884 10385,15886 10397,15889 10409,15891 10422,15894 10434,15896 10446,15897 10459,15899 10471,15901 10471,15901 10472,15901 Z"/>
        <path fill="rgb(255,255,255)" stroke="none" d="M 11516,14518 L 10722,14977 10722,15900 10739,15898 10755,15895 10772,15893 10788,15889 10804,15886 10821,15882 10837,15878 10854,15874 10866,15871 10877,15867 10889,15864 10901,15860 10912,15857 10924,15853 10935,15849 10946,15845 10958,15840 10969,15836 10980,15831 10991,15827 11002,15822 11013,15817 11024,15812 11035,15807 11045,15801 11056,15796 11067,15790 11077,15785 11088,15779 11098,15773 11108,15767 11119,15760 11129,15754 11139,15748 11149,15741 11159,15734 11169,15727 11179,15720 11189,15713 11199,15706 11209,15698 11218,15691 11228,15683 11238,15675 11247,15667 11257,15659 11266,15650 11275,15642 11284,15633 11293,15625 11302,15616 11311,15607 11319,15598 11328,15589 11336,15580 11344,15571 11353,15561 11361,15552 11368,15543 11376,15533 11384,15523 11392,15513 11399,15503 11406,15493 11414,15483 11421,15472 11428,15462 11435,15451 11441,15441 11448,15430 11455,15419 11461,15408 11467,15397 11473,15386 11479,15375 11485,15364 11491,15352 11497,15341 11502,15330 11507,15318 11512,15307 11517,15296 11522,15284 11527,15273 11531,15261 11536,15249 11540,15238 11544,15226 11548,15214 11551,15202 11555,15190 11558,15179 11562,15167 11565,15155 11568,15143 11571,15130 11573,15118 11576,15106 11578,15094 11580,15082 11582,15069 11584,15057 11586,15045 11588,15032 11589,15020 11590,15008 11592,14996 11593,14984 11593,14972 11594,14960 11595,14948 11595,14936 11595,14924 11595,14912 11595,14900 11595,14888 11595,14876 11594,14864 11594,14852 11593,14840 11592,14828 11591,14816 11590,14804 11589,14792 11587,14780 11585,14768 11584,14756 11582,14744 11580,14732 11577,14720 11575,14709 11572,14697 11570,14685 11567,14673 11564,14661 11561,14649 11556,14632 11551,14616 11546,14599 11541,14583 11535,14566 11529,14550 11523,14534 11516,14518 Z"/>
        <path fill="rgb(26,28,26)" stroke="none" d="M 9949,15141 L 9892,15141 9892,15141 9892,15141 9892,15140 9892,15139 9893,15138 9895,15135 9896,15133 9898,15131 9900,15129 9902,15128 9904,15126 9905,15125 9907,15125 9909,15124 9913,15124 9916,15124 9918,15124 9920,15124 9922,15124 9924,15125 9926,15125 9928,15126 9930,15127 9932,15128 9936,15130 9939,15132 9942,15135 9945,15137 9947,15139 9949,15141 Z M 9844,15223 L 9855,15207 9856,15209 9858,15210 9859,15212 9860,15214 9861,15215 9862,15217 9863,15219 9864,15221 9865,15223 9865,15225 9866,15226 9866,15228 9866,15230 9867,15232 9867,15234 9867,15236 9866,15238 9866,15240 9866,15242 9866,15244 9865,15246 9865,15247 9864,15249 9863,15251 9862,15254 9860,15258 9857,15261 9855,15264 9853,15265 9852,15266 9850,15267 9848,15269 9847,15270 9845,15271 9843,15271 9841,15272 9840,15273 9838,15273 9836,15274 9834,15274 9830,15275 9826,15275 9824,15275 9822,15275 9820,15275 9818,15274 9816,15274 9814,15273 9812,15273 9810,15272 9808,15271 9807,15270 9805,15269 9803,15268 9802,15267 9800,15265 9799,15264 9797,15263 9796,15261 9795,15260 9793,15258 9793,15257 9791,15255 9791,15253 9790,15252 9789,15250 9788,15247 9787,15243 9787,15239 9786,15236 9786,15234 9786,15232 9786,15230 9787,15228 9787,15226 9787,15224 9788,15222 9789,15220 9790,15219 9790,15217 9792,15215 9793,15213 9794,15212 9795,15210 9797,15209 9798,15207 9800,15206 9801,15205 9803,15204 9805,15203 9810,15201 9814,15200 9821,15198 9824,15197 9825,15215 9823,15216 9820,15216 9817,15217 9815,15218 9814,15219 9813,15220 9811,15221 9811,15222 9809,15224 9808,15225 9807,15227 9807,15228 9806,15230 9806,15232 9805,15234 9805,15236 9805,15238 9805,15240 9806,15242 9806,15244 9807,15246 9808,15247 9809,15249 9811,15251 9812,15252 9814,15254 9816,15255 9818,15256 9820,15256 9822,15257 9824,15257 9826,15257 9829,15257 9833,15257 9834,15256 9836,15256 9837,15255 9839,15254 9840,15253 9842,15252 9843,15251 9844,15250 9845,15248 9846,15246 9847,15244 9848,15242 9848,15240 9848,15237 9847,15235 9847,15232 9846,15228 9846,15225 9845,15224 9844,15223 Z M 9981,15229 L 9956,15190 9956,15188 9955,15185 9955,15183 9955,15180 9955,15179 9955,15177 9955,15176 9956,15175 9956,15174 9957,15173 9957,15172 9958,15171 9959,15170 9960,15169 9961,15169 9961,15169 9962,15168 9963,15168 9964,15168 9965,15168 9966,15168 9967,15168 9968,15169 9970,15169 9972,15171 9974,15172 9975,15174 9976,15175 9977,15177 9978,15179 9980,15183 9981,15186 9982,15190 9983,15194 9983,15197 9984,15200 9983,15203 9983,15206 9983,15210 9982,15213 9982,15217 9981,15221 9981,15225 9981,15229 Z M 10108,15240 L 10083,15237 10084,15236 10086,15232 10088,15228 10090,15225 10091,15223 10092,15220 10094,15218 10096,15216 10100,15212 10105,15207 10108,15205 10111,15202 10113,15200 10116,15198 10122,15195 10127,15192 10108,15240 10114,15283 9982,15284 9980,15284 9978,15284 9976,15284 9975,15284 9972,15283 9970,15282 9969,15281 9967,15281 9966,15280 9966,15280 9966,15279 9965,15279 9964,15277 9964,15276 9963,15274 9963,15273 9963,15270 9963,15268 9964,15266 9965,15265 9966,15264 9967,15262 9967,15262 9968,15261 9970,15260 9970,15260 9972,15258 9973,15257 9942,15215 9941,15214 9940,15213 9939,15212 9937,15211 9937,15211 9936,15211 9935,15211 9934,15211 9934,15212 9933,15212 9933,15212 9932,15213 9932,15214 9931,15215 9931,15217 9931,15218 9930,15244 9930,15245 9930,15246 9930,15247 9929,15248 9929,15249 9929,15250 9929,15250 9929,15250 9928,15251 9928,15251 9927,15252 9924,15252 9922,15253 9920,15253 9919,15253 9917,15252 9917,15255 9916,15257 9915,15263 9913,15270 9910,15275 9907,15281 9904,15286 9901,15291 9897,15295 9892,15300 9888,15304 9883,15307 9878,15311 9873,15314 9868,15316 9862,15319 9857,15321 9851,15322 9845,15324 9839,15325 9833,15325 9827,15326 9821,15325 9816,15325 9810,15324 9804,15323 9798,15321 9792,15320 9787,15317 9781,15314 9776,15311 9771,15308 9766,15304 9762,15300 9759,15297 9757,15295 9754,15292 9752,15289 9750,15286 9748,15283 9746,15280 9744,15277 9742,15274 9741,15271 9739,15268 9738,15264 9737,15261 9736,15258 9735,15254 9734,15251 9733,15247 9733,15243 9733,15240 9733,15236 9733,15233 9733,15229 9733,15225 9734,15222 9734,15218 9735,15214 9736,15210 9738,15207 9739,15203 9741,15199 9742,15195 9745,15192 9745,15190 9746,15189 9748,15187 9749,15186 9745,15184 9744,15182 9743,15180 9743,15179 9743,15177 9743,15176 9744,15174 9745,15174 9745,15173 9746,15173 9746,15172 9750,15168 9754,15164 9756,15162 9758,15161 9760,15159 9762,15158 9764,15156 9766,15154 9769,15153 9772,15151 9777,15148 9783,15145 9786,15144 9789,15143 9792,15141 9795,15140 9798,15139 9801,15138 9804,15138 9808,15137 9810,15137 9813,15136 9816,15136 9818,15135 9821,15135 9824,15135 9827,15135 9830,15135 9833,15136 9837,15136 9841,15136 9843,15136 9843,15118 9843,15117 9843,15115 9843,15114 9843,15113 9844,15112 9844,15111 9845,15111 9846,15110 9847,15110 9848,15110 9849,15110 9850,15110 9851,15110 9852,15111 9854,15111 9857,15112 9860,15113 9861,15113 9862,15111 9864,15110 9866,15108 9867,15107 9868,15106 9870,15105 9871,15104 9873,15103 9874,15102 9876,15101 9878,15100 9880,15100 9882,15099 9884,15099 9888,15099 9891,15099 9895,15099 9898,15099 9901,15100 9904,15101 9908,15102 9911,15102 9922,15106 9924,15105 9929,15103 9931,15102 9934,15101 9936,15101 9937,15101 9939,15101 9942,15101 9944,15101 9946,15102 9951,15103 9959,15105 9966,15106 9970,15107 9971,15107 9972,15106 9973,15106 9974,15105 9969,15085 9968,15082 9966,15079 9965,15076 9964,15075 9963,15073 9963,15072 9962,15071 9962,15069 9961,15067 9960,15064 9960,15063 9960,15061 9959,15062 9957,15062 9956,15063 9954,15063 9953,15064 9952,15064 9951,15064 9949,15063 9948,15063 9948,15062 9947,15061 9947,15060 9946,15060 9946,15059 9945,15057 9945,15056 9944,15055 9943,15053 9942,15052 9941,15051 9940,15051 9939,15051 9938,15051 9937,15051 9934,15051 9932,15051 9932,15051 9930,15050 9929,15049 9929,15047 9929,15045 9929,15044 9929,15043 9929,15041 9928,15040 9927,15038 9926,15035 9920,15022 9919,15021 9919,15020 9919,15019 9919,15018 9918,15015 9918,15013 9918,15010 9918,15008 9919,15005 9919,15002 9920,15000 9921,14997 9922,14994 9924,14992 9925,14989 9928,14987 9930,14985 9932,14983 9934,14982 9937,14980 9939,14979 9942,14977 9945,14977 9948,14976 9951,14976 9954,14976 9956,14975 9958,14975 9961,14976 9965,14976 9968,14976 9971,14977 9973,14978 9975,14978 9977,14979 9979,14981 9981,14982 9983,14984 9985,14986 9987,14987 9988,14989 9989,14991 9991,14993 9992,14995 9992,14997 9993,14999 9994,15004 9995,15008 9995,15011 9995,15014 9996,15017 9996,15019 9999,15020 10005,15021 10011,15022 10015,15022 10020,15022 10027,15023 10034,15024 10038,15025 10040,15025 10043,15027 10047,15029 10052,15031 10056,15033 10060,15036 10063,15037 10066,15039 10069,15042 10074,15046 10079,15051 10085,15056 10091,15062 10098,15067 10103,15073 10108,15078 10111,15080 10114,15082 10117,15085 10120,15087 10122,15090 10125,15093 10128,15095 10131,15097 10135,15101 10141,15106 10147,15112 10151,15116 10153,15118 10155,15120 10157,15123 10159,15126 10160,15129 10161,15132 10162,15135 10162,15138 10163,15140 10163,15143 10163,15145 10163,15148 10163,15150 10163,15152 10162,15154 10161,15156 10161,15158 10161,15159 10161,15160 10161,15161 10160,15162 10159,15163 10159,15164 10158,15165 10192,15187 10194,15185 10197,15180 10201,15175 10205,15171 10208,15167 10209,15165 10211,15163 10213,15162 10214,15161 10215,15160 10216,15159 10216,15158 10216,15157 10216,15156 10216,15155 10216,15154 10215,15153 10215,15152 10214,15151 10213,15150 10211,15149 10210,15148 10208,15148 10207,15147 10205,15146 10203,15146 10201,15145 10199,15144 10197,15144 10182,15138 10181,15138 10180,15137 10180,15137 10179,15137 10179,15136 10178,15135 10177,15134 10177,15133 10177,15131 10176,15130 10177,15128 10177,15126 10177,15125 10178,15124 10181,15123 10183,15121 10323,15119 10342,15119 10344,15122 10346,15124 10347,15126 10348,15127 10348,15129 10349,15129 10349,15131 10349,15132 10349,15134 10349,15135 10348,15136 10348,15137 10348,15138 10348,15138 10347,15139 10346,15140 10342,15144 10341,15145 10340,15146 10339,15148 10339,15149 10339,15150 10339,15152 10339,15153 10339,15154 10339,15155 10340,15155 10341,15156 10343,15158 10345,15159 10347,15160 10348,15162 10350,15163 10354,15167 10357,15169 10358,15171 10360,15172 10361,15174 10362,15176 10365,15180 10367,15184 10368,15186 10369,15188 10370,15191 10371,15194 10371,15194 10371,15195 10372,15196 10372,15197 10374,15197 10376,15197 10377,15197 10378,15197 10378,15198 10379,15198 10380,15198 10381,15199 10381,15199 10382,15200 10382,15202 10382,15204 10382,15264 10382,15265 10382,15266 10381,15268 10381,15269 10380,15270 10378,15271 10376,15271 10374,15271 10372,15271 10370,15271 10369,15271 10368,15270 10367,15270 10366,15270 10366,15269 10365,15269 10365,15269 10364,15269 10363,15270 10363,15272 10362,15275 10360,15278 10359,15280 10357,15283 10356,15286 10354,15288 10352,15290 10350,15293 10348,15295 10345,15298 10343,15300 10341,15302 10338,15304 10336,15306 10333,15308 10331,15310 10328,15312 10325,15314 10322,15315 10319,15317 10316,15318 10313,15319 10310,15320 10307,15322 10304,15323 10301,15323 10298,15324 10295,15325 10291,15325 10288,15326 10285,15326 10282,15326 10278,15326 10274,15326 10270,15325 10267,15325 10263,15324 10259,15323 10255,15322 10252,15321 10248,15320 10245,15318 10241,15317 10238,15315 10235,15314 10231,15312 10228,15310 10225,15308 10222,15305 10219,15303 10216,15300 10214,15298 10211,15295 10209,15292 10207,15289 10204,15286 10202,15283 10200,15279 10199,15276 10197,15272 10195,15269 10194,15265 10193,15261 10192,15257 10191,15255 10190,15253 10114,15283 10108,15240 Z"/>
        <path fill="rgb(26,28,26)" stroke="none" d="M 11010,15219 L 10944,15219 10944,15221 10944,15222 10943,15224 10942,15225 10941,15227 10940,15228 10939,15230 10937,15231 10935,15232 10934,15233 10932,15234 10930,15234 10928,15235 10926,15236 10924,15236 10922,15236 10921,15236 10919,15236 10918,15235 10916,15235 10913,15234 10911,15233 10909,15231 10906,15229 10904,15227 10903,15225 10901,15222 10900,15220 10899,15219 10899,15217 10899,15216 10899,15215 10899,15213 10899,15212 10899,15210 10899,15209 10899,15208 10900,15207 10900,15205 10901,15204 10901,15203 10901,15203 10902,15202 10902,15201 10903,15200 10903,15199 10866,15145 10862,15150 10858,15154 10854,15159 10851,15163 10848,15168 10845,15173 10843,15178 10841,15184 10839,15189 10838,15194 10837,15200 10836,15205 10836,15211 10836,15216 10837,15222 10838,15227 10839,15232 10840,15238 10842,15243 10844,15248 10846,15253 10849,15258 10852,15262 10856,15267 10859,15271 10863,15275 10867,15279 10872,15282 10877,15286 10882,15289 10887,15291 10893,15293 10898,15295 10903,15297 10908,15298 10913,15299 10918,15299 10923,15299 10928,15299 10933,15299 10938,15298 10943,15297 10948,15296 10952,15294 10957,15292 10961,15290 10966,15288 10970,15285 10974,15283 10978,15280 10981,15277 10985,15273 10988,15270 10991,15266 10994,15262 10997,15258 10999,15254 11002,15249 11004,15244 11005,15240 11007,15235 11008,15230 11009,15224 11010,15219 Z M 10941,15200 L 10970,15140 10972,15141 10974,15142 10977,15145 10981,15147 10985,15150 10988,15154 10991,15157 10993,15161 10996,15164 10998,15168 11001,15172 11003,15176 11004,15180 11006,15185 11007,15189 11008,15194 11009,15198 11009,15202 11010,15204 11010,15205 11010,15206 11010,15207 10945,15209 10945,15208 10945,15207 10945,15205 10945,15203 10944,15202 10943,15201 10942,15200 10941,15200 Z M 10913,15193 L 10875,15140 10877,15138 10879,15137 10883,15135 10887,15133 10892,15131 10896,15130 10901,15128 10905,15127 10910,15126 10915,15126 10920,15125 10924,15125 10930,15125 10935,15126 10940,15127 10945,15128 10950,15129 10954,15131 10955,15132 10956,15132 10957,15132 10958,15133 10930,15192 10929,15192 10927,15191 10926,15191 10925,15190 10923,15190 10922,15190 10920,15190 10917,15190 10916,15191 10915,15191 10914,15192 10913,15193 Z M 11199,15179 L 11256,15050 11280,15103 11278,15104 11277,15105 11272,15108 11266,15111 11262,15114 11257,15118 11253,15122 11249,15125 11245,15129 11240,15134 11236,15138 11233,15143 11229,15148 11226,15154 11224,15156 11223,15159 11221,15162 11220,15165 11219,15167 11218,15170 11217,15173 11217,15176 11216,15178 11216,15180 11199,15179 Z M 11294,15134 L 11314,15180 11314,15180 11313,15180 11313,15181 11313,15181 11311,15181 11310,15182 11309,15183 11308,15184 11306,15186 11305,15188 11305,15189 11305,15191 11249,15191 11249,15188 11250,15185 11250,15183 11251,15180 11252,15177 11253,15175 11254,15172 11255,15170 11257,15165 11260,15160 11261,15158 11263,15156 11264,15154 11266,15152 11269,15149 11272,15146 11275,15144 11279,15141 11283,15139 11286,15137 11290,15135 11294,15134 Z M 11417,15202 L 11365,15201 11365,15200 11364,15198 11364,15196 11362,15194 11361,15191 11358,15188 11357,15186 11356,15185 11354,15183 11353,15182 11350,15180 11347,15179 11344,15178 11341,15177 11338,15177 11335,15176 11331,15176 11328,15176 11307,15129 11311,15128 11316,15126 11321,15126 11326,15125 11330,15125 11335,15125 11340,15125 11345,15126 11350,15127 11354,15128 11359,15129 11363,15131 11368,15133 11372,15135 11376,15138 11380,15141 11384,15143 11388,15146 11391,15149 11395,15153 11398,15156 11400,15159 11403,15163 11406,15167 11408,15171 11410,15175 11412,15179 11413,15184 11415,15188 11416,15192 11416,15197 11417,15202 Z M 11332,15248 L 11332,15254 11361,15254 11361,15263 11265,15263 11266,15265 11266,15266 11267,15267 11268,15268 11270,15270 11272,15273 11275,15276 11277,15278 11280,15280 11282,15282 11285,15284 11288,15286 11291,15287 11294,15289 11297,15290 11300,15292 11303,15293 11306,15294 11310,15295 11313,15295 11316,15296 11320,15296 11323,15297 11326,15297 11330,15297 11333,15297 11337,15297 11340,15296 11343,15296 11347,15295 11350,15294 11353,15294 11357,15293 11360,15292 11364,15290 11367,15289 11369,15288 11372,15287 11375,15285 11377,15284 11380,15282 11382,15281 11384,15279 11387,15277 11389,15275 11391,15273 11393,15271 11395,15269 11397,15267 11399,15265 11401,15263 11402,15260 11404,15258 11406,15256 11407,15253 11408,15251 11410,15248 11411,15246 11412,15243 11413,15240 11414,15237 11415,15235 11415,15232 11416,15229 11416,15226 11417,15223 11417,15220 11417,15217 11417,15215 11417,15213 11366,15213 11366,15216 11365,15220 11364,15223 11363,15227 11362,15230 11360,15233 11358,15236 11356,15239 11354,15241 11351,15243 11348,15244 11345,15246 11342,15247 11339,15248 11335,15248 11332,15248 11232,15263 11152,15265 11153,15294 11166,15293 11166,15302 11130,15303 11129,15294 11142,15293 11141,15265 11125,15265 11121,15265 11117,15264 11115,15264 11113,15264 11111,15264 11110,15263 11107,15262 11104,15261 11101,15259 11098,15258 11095,15256 11093,15254 11090,15252 11088,15249 11086,15247 11084,15245 11083,15242 11081,15239 11080,15236 11079,15233 11078,15230 11078,15227 11078,15224 11078,15222 11078,15220 11078,15217 11079,15215 11080,15213 11080,15211 11081,15208 11082,15206 11083,15204 11084,15202 11085,15200 11087,15198 11088,15196 11090,15195 11091,15193 11092,15192 11093,15192 11094,15191 11094,15190 11084,15176 11089,15168 11089,15165 11091,15162 11091,15161 11092,15159 11092,15158 11092,15157 11024,15115 11022,15114 11019,15112 11017,15110 11014,15108 11012,15106 11010,15105 11009,15103 11007,15101 11006,15099 11005,15097 11004,15094 11002,15090 11001,15087 11000,15084 11000,15082 10999,15080 10985,15108 10989,15110 10996,15115 11002,15121 11007,15125 11012,15129 11014,15132 11016,15134 11018,15136 11019,15138 11023,15143 11026,15149 11028,15152 11030,15155 11032,15159 11033,15162 11035,15166 11036,15170 11038,15173 11039,15177 11040,15181 11041,15185 11042,15188 11042,15192 11044,15200 11044,15208 11044,15208 11043,15209 11042,15210 11041,15211 11035,15211 11035,15219 11034,15226 11033,15233 11032,15240 11030,15246 11028,15253 11025,15259 11022,15265 11019,15271 11016,15276 11012,15282 11008,15287 11003,15291 10999,15296 10994,15300 10989,15304 10983,15308 10978,15311 10972,15314 10966,15317 10960,15319 10954,15321 10947,15323 10941,15324 10934,15325 10927,15325 10921,15325 10914,15325 10907,15324 10900,15323 10893,15321 10886,15319 10880,15316 10873,15313 10867,15310 10862,15306 10856,15302 10851,15298 10846,15294 10842,15289 10837,15284 10834,15279 10830,15274 10827,15268 10824,15262 10821,15257 10819,15251 10817,15244 10815,15238 10814,15232 10813,15226 10813,15219 10812,15213 10813,15206 10813,15200 10814,15193 10815,15187 10817,15180 10819,15174 10822,15168 10825,15162 10828,15156 10832,15150 10836,15144 10832,15141 10831,15140 10830,15139 10829,15138 10829,15138 10828,15137 10828,15136 10828,15135 10829,15135 10832,15131 10838,15126 10844,15120 10847,15118 10850,15115 10853,15113 10856,15111 10861,15108 10866,15105 10870,15102 10876,15100 10880,15098 10886,15096 10891,15095 10896,15094 10900,15093 10905,15092 10909,15091 10914,15091 10918,15091 10923,15091 10927,15091 10932,15091 10936,15091 10941,15092 10945,15093 10949,15094 10954,15095 10958,15096 10962,15097 10967,15099 10968,15099 10970,15099 10971,15100 10973,15101 10989,15065 10986,15066 10980,15068 10974,15069 10970,15070 10969,15070 10969,15070 10968,15069 10967,15069 10966,15068 10966,15067 10965,15066 10965,15065 10965,15039 10965,15041 10965,15040 10965,15038 10965,15036 10965,15035 10966,15034 10967,15033 10968,15032 10969,15031 10971,15031 10972,15031 10975,15031 10979,15031 10982,15032 10985,15033 11004,15036 11012,15018 11010,15018 11008,15018 11007,15017 11005,15017 11003,15016 11002,15014 11000,15013 10999,15012 10997,15010 10996,15008 10995,15006 10994,15005 10993,15003 10993,15000 10992,14998 10992,14996 10992,14993 10993,14989 10993,14988 10993,14986 10994,14985 10994,14983 10995,14982 10996,14981 10997,14979 10998,14979 11000,14978 11001,14977 11003,14977 11005,14977 11007,14977 11010,14976 11013,14976 11015,14976 11098,14977 11098,14987 11014,14987 11012,14988 11010,14988 11008,14989 11007,14990 11005,14991 11005,14992 11004,14993 11004,14994 11004,14994 11004,14995 11004,14998 11004,15000 11005,15001 11005,15002 11006,15003 11006,15003 11007,15004 11009,15005 11010,15006 11012,15006 11032,15011 11019,15040 11022,15039 11028,15037 11031,15037 11035,15036 11038,15036 11041,15036 11045,15037 11049,15038 11053,15039 11058,15040 11062,15042 11066,15043 11070,15046 11074,15048 11077,15050 11080,15052 11082,15054 11084,15057 11086,15059 11089,15062 11091,15064 11092,15067 11094,15069 11096,15072 11097,15075 11098,15078 11100,15081 11101,15083 11101,15086 11102,15088 11103,15110 11103,15113 11103,15116 11104,15120 11105,15123 11106,15125 11107,15126 11108,15128 11110,15129 11111,15131 11113,15132 11114,15134 11116,15135 11120,15138 11124,15141 11128,15144 11132,15146 11134,15147 11137,15148 11141,15149 11144,15150 11151,15152 11158,15153 11164,15154 11171,15156 11173,15156 11174,15156 11176,15157 11177,15157 11179,15156 11180,15156 11181,15156 11181,15155 11246,15030 11242,15029 11237,15028 11230,15026 11225,15024 11222,15023 11219,15022 11216,15020 11213,15018 11212,15017 11210,15016 11209,15015 11208,15014 11207,15013 11206,15012 11206,15010 11205,15009 11205,15007 11205,15006 11205,15004 11205,15003 11206,15002 11206,15000 11207,14999 11208,14998 11209,14997 11210,14996 11212,14995 11213,14994 11215,14994 11216,14994 11218,14994 11219,14994 11223,14995 11227,14995 11232,14996 11236,14997 11241,14999 11246,15000 11248,15000 11250,15000 11252,15000 11255,15001 11259,15001 11263,15001 11269,15000 11274,15000 11280,15000 11285,14999 11290,14999 11294,14999 11295,14999 11296,14999 11297,14999 11298,15000 11299,15000 11301,15002 11302,15003 11303,15005 11304,15007 11305,15009 11306,15011 11306,15013 11306,15015 11306,15017 11306,15019 11305,15021 11304,15023 11303,15024 11302,15026 11301,15028 11299,15030 11297,15032 11294,15033 11291,15035 11290,15036 11288,15036 11286,15037 11285,15037 11282,15037 11280,15037 11276,15037 11273,15037 11270,15037 11268,15036 11267,15036 11266,15036 11266,15036 11265,15035 11293,15097 11295,15096 11297,15096 11300,15095 11302,15094 11307,15093 11311,15092 11316,15091 11321,15091 11325,15091 11330,15091 11335,15091 11339,15091 11345,15092 11351,15093 11357,15094 11362,15095 11368,15097 11373,15099 11379,15101 11384,15104 11389,15107 11394,15110 11399,15113 11404,15116 11408,15120 11412,15124 11417,15128 11421,15132 11424,15136 11428,15140 11431,15144 11434,15148 11436,15153 11438,15157 11440,15162 11442,15167 11443,15170 11443,15171 11456,15172 11457,15172 11459,15172 11460,15172 11461,15173 11462,15173 11462,15174 11462,15176 11462,15177 11462,15228 11462,15229 11462,15230 11462,15231 11461,15231 11461,15232 11461,15232 11441,15236 11440,15241 11438,15245 11436,15249 11434,15253 11433,15257 11431,15261 11428,15265 11426,15268 11423,15272 11421,15275 11418,15279 11415,15282 11412,15285 11409,15288 11406,15291 11402,15293 11399,15296 11395,15299 11392,15301 11388,15303 11384,15305 11381,15307 11377,15309 11373,15311 11369,15312 11365,15314 11360,15315 11356,15316 11352,15317 11347,15318 11343,15318 11338,15319 11335,15319 11330,15319 11326,15319 11323,15319 11318,15318 11314,15318 11311,15317 11307,15316 11303,15316 11299,15314 11296,15313 11292,15312 11288,15311 11284,15309 11281,15308 11278,15306 11274,15304 11271,15302 11267,15300 11264,15298 11261,15295 11258,15293 11255,15290 11252,15288 11249,15285 11246,15282 11244,15279 11241,15276 11239,15273 11236,15270 11234,15266 11232,15263 11332,15248 Z"/>
        <path fill="rgb(26,28,26)" stroke="none" d="M 10334,14240 L 10336,14240 10338,14240 10340,14241 10342,14241 10346,14242 10350,14243 10354,14245 10357,14247 10360,14249 10363,14252 10366,14255 10368,14258 10370,14261 10372,14264 10374,14268 10375,14272 10375,14274 10375,14276 10375,14278 10375,14280 10375,14282 10375,14284 10375,14286 10375,14288 10374,14290 10374,14292 10373,14294 10372,14296 10371,14298 10370,14300 10369,14301 10368,14303 10367,14305 10366,14306 10364,14308 10363,14309 10362,14310 10360,14312 10359,14313 10357,14314 10355,14315 10353,14316 10352,14317 10350,14318 10348,14318 10346,14319 10344,14319 10342,14320 10340,14320 10338,14321 10336,14321 10333,14321 10331,14321 10329,14320 10327,14320 10325,14320 10323,14319 10321,14319 10319,14318 10318,14317 10316,14316 10314,14316 10312,14315 10311,14313 10309,14312 10308,14311 10306,14310 10305,14309 10303,14307 10302,14306 10301,14304 10300,14303 10299,14301 10298,14299 10297,14298 10296,14296 10295,14294 10295,14292 10294,14290 10294,14288 10293,14286 10293,14284 10293,14282 10293,14280 10293,14278 10293,14276 10294,14274 10294,14272 10294,14270 10295,14268 10296,14266 10296,14265 10297,14263 10298,14261 10299,14259 10300,14258 10302,14255 10305,14252 10308,14249 10311,14247 10315,14245 10318,14243 10320,14243 10322,14242 10324,14241 10326,14241 10328,14241 10330,14240 10332,14240 10334,14240 Z M 10515,14280 L 10515,14372 10396,14372 10393,14372 10391,14372 10390,14371 10388,14371 10387,14371 10385,14370 10384,14370 10382,14369 10381,14368 10380,14367 10379,14366 10379,14365 10378,14364 10378,14363 10377,14361 10377,14360 10377,14359 10377,14358 10377,14356 10378,14354 10378,14353 10379,14351 10417,14289 10418,14286 10419,14285 10420,14283 10422,14283 10423,14282 10425,14281 10426,14281 10428,14280 10430,14280 10432,14280 10437,14280 10515,14280 Z M 10524,14280 L 10667,14280 10667,14372 10524,14372 10524,14280 Z M 10676,14280 L 10752,14280 10754,14280 10756,14280 10757,14280 10759,14280 10761,14281 10763,14281 10765,14281 10767,14282 10768,14283 10769,14284 10771,14285 10772,14286 10773,14288 10774,14290 10811,14351 10812,14353 10813,14355 10813,14357 10814,14358 10814,14359 10813,14361 10813,14362 10813,14363 10813,14364 10812,14365 10811,14367 10810,14367 10809,14368 10808,14369 10807,14370 10806,14371 10804,14371 10803,14371 10802,14372 10799,14372 10797,14372 10795,14372 10676,14372 10676,14280 Z M 10856,14240 L 10858,14240 10860,14240 10862,14240 10864,14241 10868,14242 10872,14243 10876,14245 10879,14247 10882,14249 10885,14252 10888,14255 10890,14258 10892,14261 10894,14265 10894,14267 10895,14269 10896,14270 10896,14272 10897,14274 10897,14276 10897,14279 10897,14281 10897,14283 10897,14285 10896,14287 10896,14289 10896,14291 10895,14293 10894,14295 10894,14297 10893,14298 10892,14300 10891,14302 10890,14304 10888,14305 10887,14307 10886,14308 10885,14310 10882,14312 10878,14314 10876,14315 10875,14316 10873,14317 10871,14318 10869,14319 10867,14319 10865,14320 10863,14320 10861,14321 10859,14321 10857,14321 10855,14321 10853,14321 10851,14321 10849,14321 10846,14320 10844,14320 10843,14319 10841,14319 10839,14318 10837,14317 10835,14316 10834,14315 10832,14314 10830,14313 10829,14312 10827,14310 10826,14309 10824,14308 10823,14306 10822,14305 10821,14303 10820,14302 10819,14300 10818,14298 10817,14296 10816,14295 10816,14293 10815,14291 10815,14289 10814,14287 10814,14285 10814,14283 10814,14281 10814,14279 10814,14276 10814,14274 10814,14272 10815,14270 10816,14268 10816,14267 10817,14265 10818,14263 10819,14261 10820,14259 10821,14258 10822,14256 10823,14255 10825,14253 10826,14252 10828,14250 10829,14249 10831,14248 10832,14247 10836,14245 10840,14243 10842,14242 10843,14242 10846,14241 10848,14241 10850,14240 10852,14240 10854,14240 10856,14240 Z M 10843,14213 L 10841,14213 10840,14213 10838,14213 10836,14213 10718,14204 10711,14203 10703,14203 10695,14202 10687,14202 10678,14202 10669,14202 10660,14201 10650,14201 10641,14201 10632,14201 10623,14201 10614,14201 10606,14201 10598,14201 10590,14201 10583,14201 10570,14201 10556,14201 10540,14201 10524,14202 10508,14202 10492,14202 10477,14202 10465,14203 10354,14210 10352,14210 10351,14210 10349,14210 10347,14210 10424,14113 10425,14111 10426,14110 10427,14109 10428,14108 10429,14107 10431,14107 10432,14106 10434,14106 10435,14106 10437,14106 10439,14106 10442,14106 10747,14106 10750,14106 10753,14106 10756,14106 10758,14107 10759,14107 10761,14108 10762,14108 10763,14109 10765,14111 10766,14113 10843,14213 10874,14410 10874,14495 10874,14497 10874,14500 10874,14501 10873,14502 10873,14504 10872,14505 10872,14506 10870,14506 10869,14507 10868,14507 10866,14508 10863,14508 10830,14508 10827,14508 10825,14507 10824,14507 10823,14507 10822,14506 10821,14505 10821,14504 10820,14504 10820,14503 10820,14502 10819,14499 10819,14496 10819,14419 10818,14419 10816,14419 10814,14420 10812,14420 10806,14421 10800,14421 10793,14422 10787,14423 10772,14424 10757,14425 10743,14425 10728,14426 10715,14426 10702,14427 10693,14427 10680,14427 10664,14427 10646,14428 10629,14428 10613,14428 10599,14428 10590,14429 10578,14428 10564,14428 10551,14428 10538,14428 10525,14427 10512,14427 10499,14427 10486,14426 10474,14426 10460,14425 10446,14424 10432,14424 10418,14423 10404,14422 10391,14422 10378,14421 10371,14421 10371,14494 10371,14500 10371,14501 10371,14503 10370,14504 10369,14505 10368,14506 10367,14507 10366,14507 10365,14508 10364,14508 10362,14508 10360,14508 10359,14508 10328,14508 10326,14508 10324,14508 10322,14507 10321,14507 10320,14506 10319,14505 10318,14504 10318,14503 10317,14501 10317,14500 10317,14497 10317,14495 10317,14409 10294,14409 10292,14409 10289,14409 10288,14409 10286,14408 10285,14407 10284,14406 10283,14406 10283,14404 10282,14403 10282,14402 10281,14400 10281,14397 10281,14395 10281,14393 10281,14390 10282,14386 10282,14382 10282,14378 10281,14374 10281,14370 10281,14366 10281,14363 10281,14359 10281,14355 10280,14350 10280,14346 10280,14341 10280,14337 10279,14333 10279,14329 10279,14324 10278,14319 10277,14314 10276,14310 10276,14305 10275,14300 10274,14295 10273,14290 10272,14288 10271,14284 10270,14281 10270,14278 10269,14276 10269,14274 10269,14271 10269,14269 10269,14264 10270,14260 10271,14255 10272,14250 10273,14248 10274,14246 10275,14243 10276,14241 10278,14238 10280,14234 10282,14231 10285,14228 10288,14226 10291,14223 10294,14220 10297,14218 10299,14216 10302,14215 10304,14214 10307,14212 10309,14211 10312,14210 10315,14209 10318,14209 10320,14208 10323,14208 10412,14091 10413,14089 10415,14087 10416,14087 10417,14086 10418,14085 10419,14084 10421,14084 10423,14083 10425,14083 10427,14083 10429,14083 10432,14083 10756,14083 10759,14083 10762,14083 10764,14083 10765,14083 10767,14084 10768,14084 10770,14085 10771,14086 10773,14087 10774,14088 10775,14090 10777,14092 10869,14209 10871,14209 10873,14210 10874,14211 10876,14211 10880,14213 10885,14215 10889,14217 10893,14220 10896,14222 10898,14224 10901,14226 10903,14229 10905,14231 10907,14234 10909,14237 10911,14240 10913,14243 10914,14246 10915,14249 10917,14252 10918,14256 10918,14259 10919,14263 10919,14266 10919,14269 10919,14273 10918,14276 10918,14280 10917,14288 10916,14294 10915,14300 10914,14306 10913,14312 10912,14318 10911,14325 10910,14331 10909,14337 10909,14344 10908,14349 10908,14355 10908,14360 10907,14366 10907,14372 10907,14378 10908,14384 10908,14390 10908,14392 10909,14394 10909,14397 10909,14399 10908,14401 10908,14403 10907,14405 10906,14406 10906,14407 10904,14408 10903,14409 10901,14410 10899,14410 10897,14410 10874,14410 10843,14213 Z"/>
        <path fill="rgb(255,255,255)" stroke="none" d="M 10261,15227 L 10260,15229 10259,15231 10259,15234 10259,15236 10259,15238 10259,15240 10260,15242 10260,15244 10261,15246 10262,15248 10263,15249 10265,15250 10266,15252 10268,15253 10269,15254 10271,15255 10273,15255 10275,15256 10277,15256 10279,15256 10281,15256 10282,15256 10284,15256 10285,15255 10287,15255 10288,15254 10289,15254 10291,15253 10292,15252 10293,15251 10294,15250 10295,15249 10296,15247 10297,15246 10297,15245 10298,15243 10315,15252 10314,15254 10312,15257 10311,15259 10309,15261 10307,15263 10305,15265 10303,15267 10301,15268 10298,15270 10296,15271 10293,15272 10291,15273 10288,15274 10285,15274 10282,15275 10279,15275 10277,15275 10275,15275 10273,15274 10271,15274 10269,15274 10267,15273 10266,15273 10264,15272 10262,15271 10260,15270 10259,15269 10257,15268 10256,15267 10254,15266 10253,15265 10252,15264 10250,15262 10249,15261 10248,15260 10247,15258 10245,15255 10243,15252 10243,15250 10242,15248 10241,15246 10241,15244 10241,15242 10240,15240 10240,15239 10240,15237 10240,15234 10240,15231 10241,15229 10241,15227 10242,15225 10243,15223 10243,15221 10245,15219 10261,15227 Z"/>
        <path fill="rgb(255,255,255)" stroke="none" d="M 10298,15229 L 10302,15228 10316,15225 10315,15222 10314,15219 10312,15216 10311,15214 10309,15212 10307,15209 10305,15207 10302,15205 10300,15204 10297,15202 10295,15201 10292,15200 10289,15199 10286,15198 10283,15198 10279,15198 10276,15198 10273,15198 10270,15199 10267,15200 10274,15217 10277,15217 10279,15217 10281,15217 10282,15217 10284,15217 10285,15218 10287,15218 10288,15219 10289,15219 10291,15220 10293,15222 10295,15224 10297,15226 10298,15229 Z"/>
       </g>
      </g>
     </g>
    </g>
   </g>
  </g>
 </g>
</svg>