<?xml version="1.0" encoding="UTF-8"?>
<!DOCTYPE svg PUBLIC "-//W3C//DTD SVG 1.1//EN" "http://www.w3.org/Graphics/SVG/1.1/DTD/svg11.dtd">
<svg version="1.2" width="30.01mm" height="30.01mm" viewBox="2390 2765 3001 3001" preserveAspectRatio="xMidYMid" fill-rule="evenodd" stroke-width="28.222" stroke-linejoin="round" xmlns="http://www.w3.org/2000/svg" xmlns:ooo="http://xml.openoffice.org/svg/export" xmlns:xlink="http://www.w3.org/1999/xlink" xmlns:presentation="http://sun.com/xmlns/staroffice/presentation" xmlns:smil="http://www.w3.org/2001/SMIL20/" xmlns:anim="urn:oasis:names:tc:opendocument:xmlns:animation:1.0" xml:space="preserve">
 <defs class="ClipPathGroup">
  <clipPath id="presentation_clip_path" clipPathUnits="userSpaceOnUse">
   <rect x="2390" y="2765" width="3001" height="3001"/>
  </clipPath>
  <clipPath id="presentation_clip_path_shrink" clipPathUnits="userSpaceOnUse">
   <rect x="2393" y="2768" width="2995" height="2995"/>
  </clipPath>
 </defs>
 <defs class="TextShapeIndex">
  <g ooo:slide="id1" ooo:id-list="id3"/>
 </defs>
 <defs class="EmbeddedBulletChars">
  <g id="bullet-char-template-57356" transform="scale(0.00048828125,-0.00048828125)">
   <path d="M 580,1141 L 1163,571 580,0 -4,571 580,1141 Z"/>
  </g>
  <g id="bullet-char-template-57354" transform="scale(0.00048828125,-0.00048828125)">
   <path d="M 8,1128 L 1137,1128 1137,0 8,0 8,1128 Z"/>
  </g>
  <g id="bullet-char-template-10146" transform="scale(0.00048828125,-0.00048828125)">
   <path d="M 174,0 L 602,739 174,1481 1456,739 174,0 Z M 1358,739 L 309,1346 659,739 1358,739 Z"/>
  </g>
  <g id="bullet-char-template-10132" transform="scale(0.00048828125,-0.00048828125)">
   <path d="M 2015,739 L 1276,0 717,0 1260,543 174,543 174,936 1260,936 717,1481 1274,1481 2015,739 Z"/>
  </g>
  <g id="bullet-char-template-10007" transform="scale(0.00048828125,-0.00048828125)">
   <path d="M 0,-2 C -7,14 -16,27 -25,37 L 356,567 C 262,823 215,952 215,954 215,979 228,992 255,992 264,992 276,990 289,987 310,991 331,999 354,1012 L 381,999 492,748 772,1049 836,1024 860,1049 C 881,1039 901,1025 922,1006 886,937 835,863 770,784 769,783 710,716 594,584 L 774,223 C 774,196 753,168 711,139 L 727,119 C 717,90 699,76 672,76 641,76 570,178 457,381 L 164,-76 C 142,-110 111,-127 72,-127 30,-127 9,-110 8,-76 1,-67 -2,-52 -2,-32 -2,-23 -1,-13 0,-2 Z"/>
  </g>
  <g id="bullet-char-template-10004" transform="scale(0.00048828125,-0.00048828125)">
   <path d="M 285,-33 C 182,-33 111,30 74,156 52,228 41,333 41,471 41,549 55,616 82,672 116,743 169,778 240,778 293,778 328,747 346,684 L 369,508 C 377,444 397,411 428,410 L 1163,1116 C 1174,1127 1196,1133 1229,1133 1271,1133 1292,1118 1292,1087 L 1292,965 C 1292,929 1282,901 1262,881 L 442,47 C 390,-6 338,-33 285,-33 Z"/>
  </g>
  <g id="bullet-char-template-9679" transform="scale(0.00048828125,-0.00048828125)">
   <path d="M 813,0 C 632,0 489,54 383,161 276,268 223,411 223,592 223,773 276,916 383,1023 489,1130 632,1184 813,1184 992,1184 1136,1130 1245,1023 1353,916 1407,772 1407,592 1407,412 1353,268 1245,161 1136,54 992,0 813,0 Z"/>
  </g>
  <g id="bullet-char-template-8226" transform="scale(0.00048828125,-0.00048828125)">
   <path d="M 346,457 C 273,457 209,483 155,535 101,586 74,649 74,723 74,796 101,859 155,911 209,963 273,989 346,989 419,989 480,963 531,910 582,859 608,796 608,723 608,648 583,586 532,535 482,483 420,457 346,457 Z"/>
  </g>
  <g id="bullet-char-template-8211" transform="scale(0.00048828125,-0.00048828125)">
   <path d="M -4,459 L 1135,459 1135,606 -4,606 -4,459 Z"/>
  </g>
  <g id="bullet-char-template-61548" transform="scale(0.00048828125,-0.00048828125)">
   <path d="M 173,740 C 173,903 231,1043 346,1159 462,1274 601,1332 765,1332 928,1332 1067,1274 1183,1159 1299,1043 1357,903 1357,740 1357,577 1299,437 1183,322 1067,206 928,148 765,148 601,148 462,206 346,322 231,437 173,577 173,740 Z"/>
  </g>
 </defs>
 <defs class="TextEmbeddedBitmaps"/>
 <g class="SlideGroup">
  <g>
   <g id="container-id1">
    <g id="id1" class="Slide" clip-path="url(#presentation_clip_path)">
     <g class="Page">
      <g class="Graphic">
       <g id="id3">
        <rect class="BoundingBox" stroke="none" fill="none" x="2390" y="2765" width="3002" height="3002"/>
        <path fill="rgb(218,68,53)" stroke="none" d="M 3891,2765 L 3968,2767 4044,2773 4120,2782 4193,2796 4266,2812 4337,2833 4407,2856 4475,2883 4542,2913 4606,2946 4669,2982 4730,3021 4789,3063 4846,3108 4900,3155 4952,3205 5002,3257 5049,3311 5094,3368 5136,3427 5175,3488 5211,3551 5244,3615 5274,3682 5301,3750 5324,3820 5345,3891 5361,3964 5375,4037 5384,4113 5390,4189 5392,4266 5390,4343 5384,4419 5375,4495 5361,4568 5345,4641 5324,4712 5301,4782 5274,4850 5244,4917 5211,4981 5175,5044 5136,5105 5094,5164 5049,5221 5002,5275 4952,5327 4900,5377 4846,5424 4789,5469 4730,5511 4669,5550 4606,5586 4542,5619 4475,5649 4407,5676 4337,5699 4266,5720 4193,5736 4120,5750 4044,5759 3968,5765 3891,5767 3814,5765 3738,5759 3662,5750 3589,5736 3516,5720 3445,5699 3375,5676 3307,5649 3240,5619 3176,5586 3113,5550 3052,5511 2993,5469 2936,5424 2882,5377 2830,5327 2780,5275 2733,5221 2688,5164 2646,5105 2607,5044 2571,4981 2538,4917 2508,4850 2481,4782 2458,4712 2437,4641 2421,4568 2407,4495 2398,4419 2392,4343 2390,4266 2392,4189 2398,4113 2407,4037 2421,3964 2437,3891 2458,3820 2481,3750 2508,3682 2538,3615 2571,3551 2607,3488 2646,3427 2688,3368 2733,3311 2780,3257 2830,3205 2882,3155 2936,3108 2993,3063 3052,3021 3113,2982 3176,2946 3240,2913 3307,2883 3375,2856 3445,2833 3516,2812 3589,2796 3662,2782 3738,2773 3814,2767 3891,2765 Z"/>
        <path fill="rgb(255,255,255)" stroke="none" d="M 3891,3265 L 3904,3265 3917,3266 3929,3266 3942,3267 3954,3267 3967,3268 3979,3269 3992,3270 4004,3271 4017,3273 4029,3275 4041,3276 4054,3278 4066,3280 4078,3282 4090,3285 4103,3287 4115,3290 4127,3293 4139,3296 4151,3299 4163,3302 4175,3306 4187,3309 4199,3313 4210,3317 4222,3321 4234,3325 4246,3330 4257,3334 4269,3339 4281,3344 4292,3349 4303,3353 4314,3358 4325,3364 4335,3369 4346,3374 4357,3380 4368,3385 4378,3391 4389,3397 4399,3403 4409,3409 4420,3416 4430,3422 4440,3429 4450,3435 4460,3442 4469,3449 4479,3456 4489,3463 4499,3470 4508,3478 4517,3485 4527,3493 4536,3501 4545,3509 4554,3516 4563,3525 4572,3533 4581,3541 4590,3550 4599,3558 4607,3567 4616,3576 4624,3585 4632,3594 4641,3603 4648,3612 4656,3621 4664,3630 4672,3640 4679,3649 4687,3658 4694,3668 4701,3678 4708,3688 4715,3697 4722,3707 4728,3717 4735,3727 4741,3737 4748,3748 4754,3758 4760,3768 4766,3779 4772,3789 4777,3800 4783,3811 4788,3822 4793,3832 4799,3843 4804,3854 4808,3865 4813,3876 4818,3888 4823,3900 4827,3911 4832,3923 4836,3935 4840,3947 4844,3958 4848,3970 4851,3982 4855,3994 4858,4006 4861,4018 4864,4030 4867,4042 4870,4054 4872,4067 4875,4079 4877,4091 4879,4103 4881,4116 4882,4128 4884,4140 4886,4153 4887,4165 4888,4178 4889,4190 4890,4203 4890,4215 4891,4228 4891,4240 4892,4253 4892,4266 4892,4279 4891,4291 4891,4304 4890,4316 4890,4329 4889,4342 4888,4354 4887,4367 4886,4379 4884,4392 4882,4404 4881,4416 4879,4428 4877,4441 4875,4453 4872,4465 4870,4477 4867,4489 4864,4501 4861,4513 4858,4525 4855,4537 4851,4550 4848,4561 4844,4573 4840,4585 4836,4597 4832,4609 4827,4620 4823,4632 4818,4644 4813,4655 4808,4666 4804,4677 4799,4689 4793,4699 4788,4710 4783,4721 4777,4732 4772,4742 4766,4753 4760,4763 4754,4774 4748,4784 4741,4794 4735,4804 4728,4815 4722,4825 4715,4835 4708,4844 4701,4854 4694,4864 4687,4873 4679,4883 4672,4892 4664,4901 4656,4911 4648,4920 4641,4929 4632,4938 4624,4947 4616,4956 4607,4965 4599,4974 4590,4982 4581,4991 4572,4999 4563,5007 4554,5015 4545,5023 4536,5031 4527,5039 4517,5047 4508,5054 4499,5061 4489,5069 4479,5076 4469,5083 4460,5090 4450,5096 4440,5103 4430,5110 4420,5116 4409,5122 4399,5129 4389,5135 4378,5141 4368,5146 4357,5152 4346,5157 4335,5163 4325,5168 4314,5173 4303,5178 4292,5183 4281,5188 4269,5193 4257,5198 4246,5202 4234,5207 4222,5211 4210,5215 4199,5219 4187,5223 4175,5226 4163,5229 4151,5233 4139,5236 4127,5239 4115,5242 4103,5244 4090,5247 4078,5249 4066,5252 4054,5254 4041,5256 4029,5257 4017,5259 4004,5260 3992,5262 3979,5263 3967,5264 3954,5265 3942,5265 3929,5266 3917,5266 3904,5266 3891,5267 3878,5266 3866,5266 3853,5266 3841,5265 3828,5265 3815,5264 3803,5263 3790,5262 3778,5260 3765,5259 3753,5257 3741,5256 3729,5254 3716,5252 3704,5249 3692,5247 3680,5244 3668,5242 3656,5239 3644,5236 3632,5233 3620,5229 3607,5226 3596,5223 3584,5219 3572,5215 3560,5211 3548,5207 3537,5202 3525,5198 3513,5193 3502,5188 3491,5183 3480,5178 3468,5173 3458,5168 3447,5163 3436,5157 3425,5152 3415,5146 3404,5141 3394,5135 3383,5129 3373,5122 3363,5116 3353,5110 3342,5103 3332,5096 3322,5090 3313,5083 3303,5076 3293,5069 3284,5061 3274,5054 3265,5047 3256,5039 3246,5031 3237,5023 3228,5015 3219,5007 3210,4999 3201,4991 3192,4982 3183,4974 3175,4965 3166,4956 3158,4947 3150,4938 3142,4929 3134,4920 3126,4911 3118,4901 3110,4892 3103,4883 3096,4873 3088,4864 3081,4854 3074,4844 3067,4835 3061,4825 3054,4815 3047,4804 3041,4794 3035,4784 3028,4774 3022,4763 3016,4753 3011,4742 3005,4732 3000,4721 2994,4710 2989,4699 2984,4689 2979,4677 2974,4666 2969,4655 2964,4644 2959,4632 2955,4620 2950,4609 2946,4597 2942,4585 2938,4573 2934,4561 2931,4550 2928,4537 2924,4525 2921,4513 2918,4501 2915,4489 2913,4477 2910,4465 2908,4453 2905,4441 2903,4428 2901,4416 2900,4404 2898,4392 2897,4379 2895,4367 2894,4354 2893,4342 2892,4329 2892,4316 2891,4304 2891,4291 2891,4279 2890,4266 2891,4253 2891,4240 2891,4228 2892,4215 2892,4203 2893,4190 2894,4178 2895,4165 2897,4153 2898,4140 2900,4128 2901,4116 2903,4103 2905,4091 2908,4079 2910,4067 2913,4054 2915,4042 2918,4030 2921,4018 2924,4006 2928,3994 2931,3982 2934,3970 2938,3958 2942,3947 2946,3935 2950,3923 2955,3911 2959,3900 2964,3888 2969,3876 2974,3865 2979,3854 2984,3843 2989,3832 2994,3822 3000,3811 3005,3800 3011,3789 3016,3779 3022,3768 3028,3758 3035,3748 3041,3737 3047,3727 3054,3717 3061,3707 3067,3697 3074,3688 3081,3678 3088,3668 3096,3658 3103,3649 3110,3640 3118,3630 3126,3621 3134,3612 3142,3603 3150,3594 3158,3585 3166,3576 3175,3567 3183,3558 3192,3550 3201,3541 3210,3533 3219,3525 3228,3516 3237,3509 3246,3501 3256,3493 3265,3485 3274,3478 3284,3470 3293,3463 3303,3456 3313,3449 3322,3442 3332,3435 3342,3429 3353,3422 3363,3416 3373,3409 3383,3403 3394,3397 3404,3391 3415,3385 3425,3380 3436,3374 3447,3369 3458,3364 3468,3358 3480,3353 3491,3349 3502,3344 3513,3339 3525,3334 3537,3330 3548,3325 3560,3321 3572,3317 3584,3313 3596,3309 3607,3306 3620,3302 3632,3299 3644,3296 3656,3293 3668,3290 3680,3287 3692,3285 3704,3282 3716,3280 3729,3278 3741,3276 3753,3275 3765,3273 3778,3271 3790,3270 3803,3269 3815,3268 3828,3267 3841,3267 3853,3266 3866,3266 3878,3265 3891,3265 Z"/>
        <path fill="rgb(26,28,26)" stroke="none" d="M 4212,4263 L 4190,4264 4190,4265 4191,4267 4191,4268 4192,4270 4193,4273 4194,4275 4195,4277 4196,4278 4197,4280 4199,4281 4201,4283 4201,4283 4202,4284 4203,4285 4204,4286 4205,4288 4206,4290 4207,4292 4207,4294 4208,4297 4208,4301 4209,4304 4209,4307 4209,4310 4209,4313 4208,4316 4208,4320 4207,4323 4207,4325 4205,4328 4204,4331 4203,4333 4201,4335 4200,4337 4198,4338 4197,4339 4196,4339 4194,4340 4193,4340 4190,4340 4188,4340 4183,4340 4179,4340 4177,4339 4174,4339 4171,4338 4169,4337 4166,4336 4164,4335 4161,4334 4159,4333 4156,4331 4154,4330 4152,4328 4150,4326 4148,4324 4147,4322 4145,4320 4144,4317 4144,4316 4143,4314 4143,4313 4143,4311 4143,4307 4142,4304 4142,4297 4143,4290 4143,4283 4144,4277 4144,4274 4144,4271 4144,4268 4145,4265 4129,4265 4107,4062 4022,3981 4031,4202 4104,4357 4072,4376 4155,4599 4332,4917 4319,4925 4320,4928 4321,4930 4328,4936 4330,4938 4332,4940 4333,4942 4335,4945 4336,4948 4338,4951 4339,4954 4340,4957 4340,4959 4340,4962 4340,4965 4341,4967 4341,4969 4341,4971 4341,4974 4341,4975 4341,4977 4341,4980 4341,4982 4341,4984 4263,5015 4177,5015 4176,5003 4176,5001 4176,4998 4177,4996 4177,4994 4178,4992 4178,4990 4179,4988 4181,4986 4182,4984 4184,4982 4186,4981 4189,4979 4192,4978 4195,4977 4197,4976 4200,4975 4203,4974 4205,4973 4214,4971 4217,4970 4219,4969 4221,4968 4223,4967 4225,4966 4226,4965 4228,4963 4229,4961 4230,4960 4231,4958 4232,4956 4232,4955 4233,4953 4233,4951 4234,4950 4234,4948 4218,4953 4044,4672 3924,4417 3764,4950 3754,4947 3739,5016 3588,4972 3587,4971 3587,4970 3586,4968 3586,4967 3586,4965 3587,4964 3587,4962 3588,4960 3589,4958 3591,4956 3592,4954 3594,4952 3595,4951 3596,4950 3598,4950 3599,4949 3602,4947 3605,4947 3608,4946 3612,4945 3615,4945 3618,4944 3636,4944 3639,4944 3642,4944 3646,4944 3649,4944 3652,4943 3655,4943 3659,4943 3661,4943 3664,4942 3667,4942 3668,4942 3670,4941 3671,4941 3672,4940 3674,4939 3675,4938 3676,4936 3677,4935 3679,4932 3680,4928 3682,4925 3683,4921 3641,4903 3763,4391 3743,4383 3774,4196 3726,4062 3695,4106 3687,4117 3675,4128 3531,4244 3523,4234 3522,4236 3521,4238 3521,4240 3520,4243 3520,4245 3520,4247 3518,4255 3518,4257 3518,4259 3517,4261 3516,4263 3515,4264 3514,4266 3512,4267 3511,4268 3509,4269 3507,4270 3504,4271 3502,4271 3496,4271 3493,4272 3491,4272 3489,4273 3487,4274 3485,4276 3483,4277 3481,4279 3479,4281 3471,4289 3469,4291 3466,4293 3465,4294 3463,4294 3462,4295 3461,4295 3459,4295 3458,4295 3457,4295 3456,4295 3454,4295 3453,4295 3452,4294 3451,4294 3450,4293 3449,4292 3448,4292 3447,4291 3446,4290 3445,4289 3444,4288 3444,4287 3443,4285 3442,4283 3441,4280 3441,4278 3441,4275 3441,4273 3441,4270 3441,4267 3442,4262 3443,4256 3444,4251 3445,4246 3446,4241 3447,4236 3448,4234 3449,4231 3450,4229 3451,4227 3453,4223 3456,4220 3457,4219 3458,4217 3460,4216 3461,4214 3472,4207 3480,4200 3481,4198 3483,4197 3485,4196 3487,4195 3478,4181 3620,4053 3682,3810 3683,3804 3685,3799 3687,3794 3689,3790 3692,3787 3694,3784 3696,3782 3698,3779 3701,3778 3703,3776 3706,3775 3708,3774 3714,3773 3719,3771 3789,3750 3789,3748 3789,3746 3788,3743 3788,3742 3787,3740 3786,3738 3785,3736 3784,3734 3782,3733 3781,3732 3779,3730 3777,3729 3775,3728 3774,3728 3772,3727 3770,3726 3767,3726 3763,3725 3759,3724 3757,3724 3753,3722 3748,3721 3746,3720 3744,3719 3743,3717 3741,3716 3740,3715 3739,3713 3739,3711 3738,3710 3738,3707 3738,3705 3737,3703 3737,3701 3737,3696 3737,3692 3737,3688 3737,3685 3737,3684 3737,3681 3736,3680 3735,3678 3735,3678 3734,3677 3734,3677 3733,3676 3729,3674 3728,3673 3727,3673 3726,3671 3725,3670 3725,3668 3725,3667 3725,3665 3725,3664 3726,3663 3727,3661 3728,3659 3729,3657 3732,3654 3734,3651 3735,3649 3737,3646 3738,3643 3740,3641 3739,3638 3738,3635 3738,3631 3738,3628 3738,3623 3738,3618 3739,3613 3739,3607 3699,3604 3703,3585 3742,3584 3743,3580 3744,3575 3745,3571 3746,3567 3749,3556 3751,3550 3754,3541 3756,3537 3757,3533 3759,3529 3760,3527 3761,3525 3763,3524 3765,3522 3767,3520 3770,3518 3772,3517 3773,3516 3774,3516 3775,3515 3776,3515 3779,3515 3783,3516 3786,3516 3790,3517 3798,3519 3804,3520 3809,3522 3815,3524 3818,3525 3821,3526 3824,3526 3826,3527 3828,3526 3831,3525 3834,3525 3836,3524 3840,3523 3844,3522 3849,3522 3853,3521 3858,3521 3862,3521 3867,3521 3871,3521 3874,3522 3877,3523 3880,3524 3883,3525 3884,3526 3885,3527 3887,3528 3888,3529 3889,3531 3890,3532 3890,3533 3891,3534 3893,3539 3894,3543 3896,3548 3896,3553 3898,3558 3899,3563 3899,3568 3900,3572 3926,3575 3924,3600 3893,3599 3894,3605 3895,3610 3895,3616 3895,3621 3895,3625 3895,3629 3894,3633 3893,3637 3892,3641 3891,3645 3890,3649 3889,3652 3873,3687 3873,3690 3873,3693 3873,3696 3873,3699 3874,3702 3875,3704 3877,3707 3878,3710 3879,3712 3880,3713 3881,3715 3883,3716 3885,3719 3888,3722 3911,3719 3913,3719 3916,3719 3919,3719 3921,3720 3923,3720 3926,3721 3928,3722 3930,3723 3932,3724 3935,3725 3937,3727 3939,3728 3942,3731 3944,3733 3947,3735 3949,3738 4160,3956 4162,3959 4165,3962 4167,3966 4169,3969 4171,3973 4173,3976 4175,3980 4177,3984 4179,3989 4181,3993 4182,3997 4183,4002 4184,4006 4185,4011 4186,4015 4187,4020 4212,4263 Z"/>
       </g>
      </g>
     </g>
    </g>
   </g>
  </g>
 </g>
</svg>