<?xml version="1.0" encoding="UTF-8"?>
<!DOCTYPE svg PUBLIC "-//W3C//DTD SVG 1.1//EN" "http://www.w3.org/Graphics/SVG/1.1/DTD/svg11.dtd">
<svg version="1.2" width="30.11mm" height="30.11mm" viewBox="9089 13402 3011 3011" preserveAspectRatio="xMidYMid" fill-rule="evenodd" stroke-width="28.222" stroke-linejoin="round" xmlns="http://www.w3.org/2000/svg" xmlns:ooo="http://xml.openoffice.org/svg/export" xmlns:xlink="http://www.w3.org/1999/xlink" xmlns:presentation="http://sun.com/xmlns/staroffice/presentation" xmlns:smil="http://www.w3.org/2001/SMIL20/" xmlns:anim="urn:oasis:names:tc:opendocument:xmlns:animation:1.0" xml:space="preserve">
 <defs class="ClipPathGroup">
  <clipPath id="presentation_clip_path" clipPathUnits="userSpaceOnUse">
   <rect x="9089" y="13402" width="3011" height="3011"/>
  </clipPath>
  <clipPath id="presentation_clip_path_shrink" clipPathUnits="userSpaceOnUse">
   <rect x="9092" y="13405" width="3005" height="3005"/>
  </clipPath>
 </defs>
 <defs class="TextShapeIndex">
  <g ooo:slide="id1" ooo:id-list="id3"/>
 </defs>
 <defs class="EmbeddedBulletChars">
  <g id="bullet-char-template-57356" transform="scale(0.00048828125,-0.00048828125)">
   <path d="M 580,1141 L 1163,571 580,0 -4,571 580,1141 Z"/>
  </g>
  <g id="bullet-char-template-57354" transform="scale(0.00048828125,-0.00048828125)">
   <path d="M 8,1128 L 1137,1128 1137,0 8,0 8,1128 Z"/>
  </g>
  <g id="bullet-char-template-10146" transform="scale(0.00048828125,-0.00048828125)">
   <path d="M 174,0 L 602,739 174,1481 1456,739 174,0 Z M 1358,739 L 309,1346 659,739 1358,739 Z"/>
  </g>
  <g id="bullet-char-template-10132" transform="scale(0.00048828125,-0.00048828125)">
   <path d="M 2015,739 L 1276,0 717,0 1260,543 174,543 174,936 1260,936 717,1481 1274,1481 2015,739 Z"/>
  </g>
  <g id="bullet-char-template-10007" transform="scale(0.00048828125,-0.00048828125)">
   <path d="M 0,-2 C -7,14 -16,27 -25,37 L 356,567 C 262,823 215,952 215,954 215,979 228,992 255,992 264,992 276,990 289,987 310,991 331,999 354,1012 L 381,999 492,748 772,1049 836,1024 860,1049 C 881,1039 901,1025 922,1006 886,937 835,863 770,784 769,783 710,716 594,584 L 774,223 C 774,196 753,168 711,139 L 727,119 C 717,90 699,76 672,76 641,76 570,178 457,381 L 164,-76 C 142,-110 111,-127 72,-127 30,-127 9,-110 8,-76 1,-67 -2,-52 -2,-32 -2,-23 -1,-13 0,-2 Z"/>
  </g>
  <g id="bullet-char-template-10004" transform="scale(0.00048828125,-0.00048828125)">
   <path d="M 285,-33 C 182,-33 111,30 74,156 52,228 41,333 41,471 41,549 55,616 82,672 116,743 169,778 240,778 293,778 328,747 346,684 L 369,508 C 377,444 397,411 428,410 L 1163,1116 C 1174,1127 1196,1133 1229,1133 1271,1133 1292,1118 1292,1087 L 1292,965 C 1292,929 1282,901 1262,881 L 442,47 C 390,-6 338,-33 285,-33 Z"/>
  </g>
  <g id="bullet-char-template-9679" transform="scale(0.00048828125,-0.00048828125)">
   <path d="M 813,0 C 632,0 489,54 383,161 276,268 223,411 223,592 223,773 276,916 383,1023 489,1130 632,1184 813,1184 992,1184 1136,1130 1245,1023 1353,916 1407,772 1407,592 1407,412 1353,268 1245,161 1136,54 992,0 813,0 Z"/>
  </g>
  <g id="bullet-char-template-8226" transform="scale(0.00048828125,-0.00048828125)">
   <path d="M 346,457 C 273,457 209,483 155,535 101,586 74,649 74,723 74,796 101,859 155,911 209,963 273,989 346,989 419,989 480,963 531,910 582,859 608,796 608,723 608,648 583,586 532,535 482,483 420,457 346,457 Z"/>
  </g>
  <g id="bullet-char-template-8211" transform="scale(0.00048828125,-0.00048828125)">
   <path d="M -4,459 L 1135,459 1135,606 -4,606 -4,459 Z"/>
  </g>
  <g id="bullet-char-template-61548" transform="scale(0.00048828125,-0.00048828125)">
   <path d="M 173,740 C 173,903 231,1043 346,1159 462,1274 601,1332 765,1332 928,1332 1067,1274 1183,1159 1299,1043 1357,903 1357,740 1357,577 1299,437 1183,322 1067,206 928,148 765,148 601,148 462,206 346,322 231,437 173,577 173,740 Z"/>
  </g>
 </defs>
 <defs class="TextEmbeddedBitmaps"/>
 <g class="SlideGroup">
  <g>
   <g id="container-id1">
    <g id="id1" class="Slide" clip-path="url(#presentation_clip_path)">
     <g class="Page">
      <g class="Graphic">
       <g id="id3">
        <rect class="BoundingBox" stroke="none" fill="none" x="9089" y="13402" width="3012" height="3012"/>
        <path fill="rgb(255,255,255)" stroke="none" d="M 10595,13407 L 10672,13409 10748,13415 10824,13424 10898,13438 10970,13454 11041,13474 11111,13498 11179,13525 11246,13555 11311,13588 11373,13624 11434,13663 11493,13705 11550,13750 11604,13797 11656,13847 11706,13899 11753,13953 11798,14010 11840,14069 11879,14130 11915,14192 11948,14257 11978,14324 12005,14392 12029,14462 12049,14533 12065,14605 12079,14679 12088,14755 12094,14831 12096,14908 12094,14985 12088,15061 12079,15137 12065,15211 12049,15283 12029,15354 12005,15424 11978,15492 11948,15559 11915,15624 11879,15686 11840,15747 11798,15806 11753,15863 11706,15917 11656,15969 11604,16019 11550,16066 11493,16111 11434,16153 11373,16192 11311,16228 11246,16261 11179,16291 11111,16318 11041,16342 10970,16362 10898,16378 10824,16392 10748,16401 10672,16407 10595,16409 10518,16407 10442,16401 10366,16392 10292,16378 10220,16362 10149,16342 10079,16318 10011,16291 9944,16261 9879,16228 9817,16192 9756,16153 9697,16111 9640,16066 9586,16019 9534,15969 9484,15917 9437,15863 9392,15806 9350,15747 9311,15686 9275,15624 9242,15559 9212,15492 9185,15424 9161,15354 9141,15283 9125,15211 9111,15137 9102,15061 9096,14985 9094,14908 9096,14831 9102,14755 9111,14679 9125,14605 9141,14533 9161,14462 9185,14392 9212,14324 9242,14257 9275,14192 9311,14130 9350,14069 9392,14010 9437,13953 9484,13899 9534,13847 9586,13797 9640,13750 9697,13705 9756,13663 9817,13624 9879,13588 9944,13555 10011,13525 10079,13498 10149,13474 10220,13454 10292,13438 10366,13424 10442,13415 10518,13409 10595,13407 Z"/>
        <path fill="none" stroke="rgb(26,28,26)" stroke-width="10" stroke-linejoin="round" stroke-linecap="round" d="M 10595,13407 L 10672,13409 10748,13415 10824,13424 10898,13438 10970,13454 11041,13474 11111,13498 11179,13525 11246,13555 11311,13588 11373,13624 11434,13663 11493,13705 11550,13750 11604,13797 11656,13847 11706,13899 11753,13953 11798,14010 11840,14069 11879,14130 11915,14192 11948,14257 11978,14324 12005,14392 12029,14462 12049,14533 12065,14605 12079,14679 12088,14755 12094,14831 12096,14908 12094,14985 12088,15061 12079,15137 12065,15211 12049,15283 12029,15354 12005,15424 11978,15492 11948,15559 11915,15624 11879,15686 11840,15747 11798,15806 11753,15863 11706,15917 11656,15969 11604,16019 11550,16066 11493,16111 11434,16153 11373,16192 11311,16228 11246,16261 11179,16291 11111,16318 11041,16342 10970,16362 10898,16378 10824,16392 10748,16401 10672,16407 10595,16409 10518,16407 10442,16401 10366,16392 10292,16378 10220,16362 10149,16342 10079,16318 10011,16291 9944,16261 9879,16228 9817,16192 9756,16153 9697,16111 9640,16066 9586,16019 9534,15969 9484,15917 9437,15863 9392,15806 9350,15747 9311,15686 9275,15624 9242,15559 9212,15492 9185,15424 9161,15354 9141,15283 9125,15211 9111,15137 9102,15061 9096,14985 9094,14908 9096,14831 9102,14755 9111,14679 9125,14605 9141,14533 9161,14462 9185,14392 9212,14324 9242,14257 9275,14192 9311,14130 9350,14069 9392,14010 9437,13953 9484,13899 9534,13847 9586,13797 9640,13750 9697,13705 9756,13663 9817,13624 9879,13588 9944,13555 10011,13525 10079,13498 10149,13474 10220,13454 10292,13438 10366,13424 10442,13415 10518,13409 10595,13407 Z"/>
        <path fill="rgb(4,82,159)" stroke="none" d="M 10595,13457 L 10613,13457 10632,13458 10650,13458 10668,13459 10687,13460 10705,13461 10723,13462 10741,13464 10759,13466 10777,13468 10795,13471 10813,13473 10831,13476 10848,13479 10866,13482 10884,13486 10901,13489 10919,13493 10936,13497 10954,13502 10971,13506 10989,13511 11006,13516 11023,13521 11041,13527 11058,13532 11075,13538 11092,13544 11109,13551 11126,13557 11143,13564 11160,13571 11176,13578 11192,13585 11208,13593 11224,13600 11240,13608 11255,13615 11271,13624 11286,13632 11302,13640 11317,13649 11332,13657 11347,13666 11362,13676 11376,13685 11391,13694 11405,13704 11420,13714 11434,13724 11448,13734 11462,13744 11476,13755 11490,13765 11503,13776 11517,13787 11530,13798 11544,13810 11557,13821 11570,13833 11583,13845 11596,13857 11608,13870 11621,13882 11633,13895 11646,13907 11658,13920 11670,13933 11682,13946 11693,13959 11705,13973 11716,13986 11727,14000 11738,14013 11748,14027 11759,14041 11769,14055 11779,14069 11789,14083 11799,14098 11809,14112 11818,14127 11827,14141 11837,14156 11846,14171 11854,14186 11863,14201 11871,14217 11879,14232 11888,14248 11895,14263 11903,14279 11910,14295 11918,14311 11925,14327 11932,14343 11939,14360 11946,14377 11952,14394 11959,14411 11965,14428 11971,14445 11976,14462 11982,14480 11987,14497 11992,14514 11997,14532 12001,14549 12006,14567 12010,14584 12014,14602 12017,14619 12021,14637 12024,14655 12027,14672 12030,14690 12032,14708 12035,14726 12037,14744 12039,14762 12041,14780 12042,14798 12043,14816 12044,14835 12045,14853 12045,14871 12046,14890 12046,14908 12046,14926 12045,14945 12045,14963 12044,14981 12043,15000 12042,15018 12041,15036 12039,15054 12037,15072 12035,15090 12032,15108 12030,15126 12027,15144 12024,15161 12021,15179 12017,15197 12014,15214 12010,15232 12006,15249 12001,15267 11997,15285 11992,15302 11987,15319 11982,15336 11976,15354 11971,15371 11965,15388 11959,15405 11952,15422 11946,15439 11939,15456 11932,15473 11925,15489 11918,15505 11910,15521 11903,15537 11895,15553 11888,15568 11879,15584 11871,15599 11863,15615 11854,15630 11846,15645 11837,15660 11827,15675 11818,15689 11809,15704 11799,15718 11789,15733 11779,15747 11769,15761 11759,15775 11748,15789 11738,15803 11727,15816 11716,15830 11705,15843 11693,15857 11682,15870 11670,15883 11658,15896 11646,15909 11633,15921 11621,15934 11608,15946 11596,15959 11583,15971 11570,15983 11557,15995 11544,16006 11530,16018 11517,16029 11503,16040 11490,16051 11476,16061 11462,16072 11448,16082 11434,16092 11420,16102 11405,16112 11391,16122 11376,16131 11362,16140 11347,16150 11332,16159 11317,16167 11302,16176 11286,16184 11271,16192 11255,16201 11240,16208 11224,16216 11208,16223 11192,16231 11176,16238 11160,16245 11143,16252 11126,16259 11109,16265 11092,16272 11075,16278 11058,16284 11041,16289 11023,16295 11006,16300 10989,16305 10971,16310 10954,16314 10936,16319 10919,16323 10901,16327 10884,16330 10866,16334 10848,16337 10831,16340 10813,16343 10795,16345 10777,16348 10759,16350 10741,16352 10723,16354 10705,16355 10687,16356 10668,16357 10650,16358 10632,16358 10613,16359 10595,16359 10577,16359 10558,16358 10540,16358 10522,16357 10503,16356 10485,16355 10467,16354 10449,16352 10431,16350 10413,16348 10395,16345 10377,16343 10359,16340 10342,16337 10324,16334 10306,16330 10289,16327 10271,16323 10254,16319 10236,16314 10219,16310 10201,16305 10184,16300 10167,16295 10149,16289 10132,16284 10115,16278 10098,16272 10081,16265 10064,16259 10047,16252 10030,16245 10014,16238 9998,16231 9982,16223 9966,16216 9950,16208 9935,16201 9919,16192 9904,16184 9888,16176 9873,16167 9858,16159 9843,16150 9828,16140 9814,16131 9799,16122 9785,16112 9770,16102 9756,16092 9742,16082 9728,16072 9714,16061 9700,16051 9687,16040 9673,16029 9660,16018 9646,16006 9633,15995 9620,15983 9607,15971 9594,15959 9582,15946 9569,15934 9557,15921 9544,15909 9532,15896 9520,15883 9508,15870 9497,15857 9485,15843 9474,15830 9463,15816 9452,15803 9442,15789 9431,15775 9421,15761 9411,15747 9401,15733 9391,15718 9381,15704 9372,15689 9363,15675 9353,15660 9344,15645 9336,15630 9327,15615 9319,15599 9311,15584 9302,15568 9295,15553 9287,15537 9280,15521 9272,15505 9265,15489 9258,15473 9251,15456 9244,15439 9238,15422 9231,15405 9225,15388 9219,15371 9214,15354 9208,15336 9203,15319 9198,15302 9193,15285 9189,15267 9184,15249 9180,15232 9176,15214 9173,15197 9169,15179 9166,15161 9163,15144 9160,15126 9158,15108 9155,15090 9153,15072 9151,15054 9149,15036 9148,15018 9147,15000 9146,14981 9145,14963 9145,14945 9144,14926 9144,14908 9144,14890 9145,14871 9145,14853 9146,14835 9147,14816 9148,14798 9149,14780 9151,14762 9153,14744 9155,14726 9158,14708 9160,14690 9163,14672 9166,14655 9169,14637 9173,14619 9176,14602 9180,14584 9184,14567 9189,14549 9193,14532 9198,14514 9203,14497 9208,14480 9214,14462 9219,14445 9225,14428 9231,14411 9238,14394 9244,14377 9251,14360 9258,14343 9265,14327 9272,14311 9280,14295 9287,14279 9295,14263 9302,14248 9311,14232 9319,14217 9327,14201 9336,14186 9344,14171 9353,14156 9363,14141 9372,14127 9381,14112 9391,14098 9401,14083 9411,14069 9421,14055 9431,14041 9442,14027 9452,14013 9463,14000 9474,13986 9485,13973 9497,13959 9508,13946 9520,13933 9532,13920 9544,13907 9557,13895 9569,13882 9582,13870 9594,13857 9607,13845 9620,13833 9633,13821 9646,13810 9660,13798 9673,13787 9687,13776 9700,13765 9714,13755 9728,13744 9742,13734 9756,13724 9770,13714 9785,13704 9799,13694 9814,13685 9828,13676 9843,13666 9858,13657 9873,13649 9888,13640 9904,13632 9919,13624 9935,13615 9950,13608 9966,13600 9982,13593 9998,13585 10014,13578 10030,13571 10047,13564 10064,13557 10081,13551 10098,13544 10115,13538 10132,13532 10149,13527 10167,13521 10184,13516 10201,13511 10219,13506 10236,13502 10254,13497 10271,13493 10289,13489 10306,13486 10324,13482 10342,13479 10359,13476 10377,13473 10395,13471 10413,13468 10431,13466 10449,13464 10467,13462 10485,13461 10503,13460 10522,13459 10540,13458 10558,13458 10577,13457 10595,13457 Z"/>
        <path fill="rgb(255,255,255)" stroke="none" d="M 11871,14908 L 11871,14905 11870,14902 11870,14899 11869,14896 11868,14893 11867,14890 11866,14887 11865,14885 11863,14882 11862,14880 11860,14877 11858,14875 11856,14873 11854,14871 11852,14869 11849,14867 11046,14316 11043,14314 11040,14313 11037,14311 11033,14310 11030,14309 11026,14308 11023,14308 11019,14308 11016,14308 11014,14308 11011,14308 11009,14309 11007,14309 11004,14310 11002,14311 11000,14311 10998,14313 10996,14314 10994,14315 10992,14316 10990,14317 10988,14319 10986,14320 10985,14322 10983,14324 10981,14326 10980,14327 10979,14329 10978,14331 10976,14333 10975,14336 10974,14338 10973,14340 10973,14342 10972,14344 10972,14347 10971,14349 10971,14352 10971,14354 10971,14357 10971,14360 10971,14363 10971,14366 10972,14368 11034,14723 9369,14609 9369,15208 11035,15093 10972,15448 10972,15450 10971,15453 10971,15456 10971,15459 10971,15462 10971,15464 10971,15467 10972,15469 10972,15472 10973,15474 10974,15476 10975,15479 10975,15481 10977,15483 10978,15485 10979,15487 10980,15489 10982,15491 10983,15492 10985,15494 10987,15496 10988,15497 10990,15499 10992,15500 10994,15501 10996,15502 10998,15504 11000,15505 11002,15506 11005,15506 11007,15507 11009,15507 11012,15508 11014,15508 11017,15508 11019,15509 11023,15508 11026,15508 11030,15507 11033,15506 11037,15505 11040,15504 11043,15502 11046,15500 11849,14949 11852,14947 11854,14945 11856,14943 11858,14941 11860,14939 11862,14937 11863,14934 11865,14932 11866,14929 11867,14926 11868,14924 11869,14921 11870,14918 11870,14915 11871,14912 11871,14908 Z"/>
       </g>
      </g>
     </g>
    </g>
   </g>
  </g>
 </g>
</svg>