<?xml version="1.0" encoding="UTF-8"?>
<!DOCTYPE svg PUBLIC "-//W3C//DTD SVG 1.1//EN" "http://www.w3.org/Graphics/SVG/1.1/DTD/svg11.dtd">
<svg version="1.2" width="30.11mm" height="30.11mm" viewBox="9089 13402 3011 3011" preserveAspectRatio="xMidYMid" fill-rule="evenodd" stroke-width="28.222" stroke-linejoin="round" xmlns="http://www.w3.org/2000/svg" xmlns:ooo="http://xml.openoffice.org/svg/export" xmlns:xlink="http://www.w3.org/1999/xlink" xmlns:presentation="http://sun.com/xmlns/staroffice/presentation" xmlns:smil="http://www.w3.org/2001/SMIL20/" xmlns:anim="urn:oasis:names:tc:opendocument:xmlns:animation:1.0" xml:space="preserve">
 <defs class="ClipPathGroup">
  <clipPath id="presentation_clip_path" clipPathUnits="userSpaceOnUse">
   <rect x="9089" y="13402" width="3011" height="3011"/>
  </clipPath>
  <clipPath id="presentation_clip_path_shrink" clipPathUnits="userSpaceOnUse">
   <rect x="9092" y="13405" width="3005" height="3005"/>
  </clipPath>
 </defs>
 <defs class="TextShapeIndex">
  <g ooo:slide="id1" ooo:id-list="id3"/>
 </defs>
 <defs class="EmbeddedBulletChars">
  <g id="bullet-char-template-57356" transform="scale(0.00048828125,-0.00048828125)">
   <path d="M 580,1141 L 1163,571 580,0 -4,571 580,1141 Z"/>
  </g>
  <g id="bullet-char-template-57354" transform="scale(0.00048828125,-0.00048828125)">
   <path d="M 8,1128 L 1137,1128 1137,0 8,0 8,1128 Z"/>
  </g>
  <g id="bullet-char-template-10146" transform="scale(0.00048828125,-0.00048828125)">
   <path d="M 174,0 L 602,739 174,1481 1456,739 174,0 Z M 1358,739 L 309,1346 659,739 1358,739 Z"/>
  </g>
  <g id="bullet-char-template-10132" transform="scale(0.00048828125,-0.00048828125)">
   <path d="M 2015,739 L 1276,0 717,0 1260,543 174,543 174,936 1260,936 717,1481 1274,1481 2015,739 Z"/>
  </g>
  <g id="bullet-char-template-10007" transform="scale(0.00048828125,-0.00048828125)">
   <path d="M 0,-2 C -7,14 -16,27 -25,37 L 356,567 C 262,823 215,952 215,954 215,979 228,992 255,992 264,992 276,990 289,987 310,991 331,999 354,1012 L 381,999 492,748 772,1049 836,1024 860,1049 C 881,1039 901,1025 922,1006 886,937 835,863 770,784 769,783 710,716 594,584 L 774,223 C 774,196 753,168 711,139 L 727,119 C 717,90 699,76 672,76 641,76 570,178 457,381 L 164,-76 C 142,-110 111,-127 72,-127 30,-127 9,-110 8,-76 1,-67 -2,-52 -2,-32 -2,-23 -1,-13 0,-2 Z"/>
  </g>
  <g id="bullet-char-template-10004" transform="scale(0.00048828125,-0.00048828125)">
   <path d="M 285,-33 C 182,-33 111,30 74,156 52,228 41,333 41,471 41,549 55,616 82,672 116,743 169,778 240,778 293,778 328,747 346,684 L 369,508 C 377,444 397,411 428,410 L 1163,1116 C 1174,1127 1196,1133 1229,1133 1271,1133 1292,1118 1292,1087 L 1292,965 C 1292,929 1282,901 1262,881 L 442,47 C 390,-6 338,-33 285,-33 Z"/>
  </g>
  <g id="bullet-char-template-9679" transform="scale(0.00048828125,-0.00048828125)">
   <path d="M 813,0 C 632,0 489,54 383,161 276,268 223,411 223,592 223,773 276,916 383,1023 489,1130 632,1184 813,1184 992,1184 1136,1130 1245,1023 1353,916 1407,772 1407,592 1407,412 1353,268 1245,161 1136,54 992,0 813,0 Z"/>
  </g>
  <g id="bullet-char-template-8226" transform="scale(0.00048828125,-0.00048828125)">
   <path d="M 346,457 C 273,457 209,483 155,535 101,586 74,649 74,723 74,796 101,859 155,911 209,963 273,989 346,989 419,989 480,963 531,910 582,859 608,796 608,723 608,648 583,586 532,535 482,483 420,457 346,457 Z"/>
  </g>
  <g id="bullet-char-template-8211" transform="scale(0.00048828125,-0.00048828125)">
   <path d="M -4,459 L 1135,459 1135,606 -4,606 -4,459 Z"/>
  </g>
  <g id="bullet-char-template-61548" transform="scale(0.00048828125,-0.00048828125)">
   <path d="M 173,740 C 173,903 231,1043 346,1159 462,1274 601,1332 765,1332 928,1332 1067,1274 1183,1159 1299,1043 1357,903 1357,740 1357,577 1299,437 1183,322 1067,206 928,148 765,148 601,148 462,206 346,322 231,437 173,577 173,740 Z"/>
  </g>
 </defs>
 <defs class="TextEmbeddedBitmaps"/>
 <g class="SlideGroup">
  <g>
   <g id="container-id1">
    <g id="id1" class="Slide" clip-path="url(#presentation_clip_path)">
     <g class="Page">
      <g class="Graphic">
       <g id="id3">
        <rect class="BoundingBox" stroke="none" fill="none" x="9089" y="13402" width="3012" height="3012"/>
        <path fill="rgb(255,255,255)" stroke="none" d="M 11656,13847 L 11710,13903 11759,13961 11806,14021 11849,14082 11888,14145 11924,14210 11957,14276 11986,14343 12012,14411 12034,14481 12053,14551 12068,14621 12080,14692 12089,14764 12094,14836 12096,14908 12094,14980 12089,15052 12080,15124 12068,15195 12053,15265 12034,15335 12012,15405 11986,15473 11957,15540 11924,15606 11888,15671 11849,15734 11806,15796 11759,15855 11710,15913 11656,15969 11600,16023 11542,16073 11482,16119 11421,16162 11358,16201 11293,16237 11227,16270 11160,16299 11092,16325 11022,16347 10952,16366 10882,16382 10811,16393 10739,16402 10667,16407 10595,16409 10523,16407 10451,16402 10379,16393 10308,16382 10238,16366 10168,16347 10098,16325 10030,16299 9963,16270 9897,16237 9832,16201 9769,16162 9707,16119 9648,16073 9590,16023 9534,15969 9480,15913 9430,15855 9384,15796 9341,15734 9302,15671 9266,15606 9233,15540 9204,15473 9178,15405 9156,15335 9137,15265 9121,15195 9110,15124 9101,15052 9096,14980 9094,14908 9096,14836 9101,14764 9110,14692 9121,14621 9137,14551 9156,14481 9178,14411 9204,14343 9233,14276 9266,14210 9302,14145 9341,14082 9384,14021 9430,13961 9480,13903 9534,13847 9590,13793 9648,13744 9707,13697 9769,13654 9832,13615 9897,13579 9963,13546 10030,13517 10098,13491 10168,13469 10238,13450 10308,13435 10379,13423 10451,13414 10523,13409 10595,13407 10667,13409 10739,13414 10811,13423 10882,13435 10952,13450 11022,13469 11092,13491 11160,13517 11227,13546 11293,13579 11358,13615 11421,13654 11482,13697 11542,13744 11600,13793 11656,13847 Z"/>
        <path fill="none" stroke="rgb(26,28,26)" stroke-width="10" stroke-linejoin="round" stroke-linecap="round" d="M 11656,13847 L 11710,13903 11759,13961 11806,14021 11849,14082 11888,14145 11924,14210 11957,14276 11986,14343 12012,14411 12034,14481 12053,14551 12068,14621 12080,14692 12089,14764 12094,14836 12096,14908 12094,14980 12089,15052 12080,15124 12068,15195 12053,15265 12034,15335 12012,15405 11986,15473 11957,15540 11924,15606 11888,15671 11849,15734 11806,15796 11759,15855 11710,15913 11656,15969 11600,16023 11542,16073 11482,16119 11421,16162 11358,16201 11293,16237 11227,16270 11160,16299 11092,16325 11022,16347 10952,16366 10882,16382 10811,16393 10739,16402 10667,16407 10595,16409 10523,16407 10451,16402 10379,16393 10308,16382 10238,16366 10168,16347 10098,16325 10030,16299 9963,16270 9897,16237 9832,16201 9769,16162 9707,16119 9648,16073 9590,16023 9534,15969 9480,15913 9430,15855 9384,15796 9341,15734 9302,15671 9266,15606 9233,15540 9204,15473 9178,15405 9156,15335 9137,15265 9121,15195 9110,15124 9101,15052 9096,14980 9094,14908 9096,14836 9101,14764 9110,14692 9121,14621 9137,14551 9156,14481 9178,14411 9204,14343 9233,14276 9266,14210 9302,14145 9341,14082 9384,14021 9430,13961 9480,13903 9534,13847 9590,13793 9648,13744 9707,13697 9769,13654 9832,13615 9897,13579 9963,13546 10030,13517 10098,13491 10168,13469 10238,13450 10308,13435 10379,13423 10451,13414 10523,13409 10595,13407 10667,13409 10739,13414 10811,13423 10882,13435 10952,13450 11022,13469 11092,13491 11160,13517 11227,13546 11293,13579 11358,13615 11421,13654 11482,13697 11542,13744 11600,13793 11656,13847 Z"/>
        <path fill="rgb(4,82,159)" stroke="none" d="M 11621,13882 L 11634,13895 11647,13908 11659,13922 11672,13935 11684,13949 11696,13962 11708,13976 11719,13990 11731,14004 11742,14019 11753,14033 11764,14047 11774,14062 11785,14077 11795,14092 11805,14106 11815,14121 11825,14137 11834,14152 11843,14167 11853,14183 11861,14199 11870,14214 11879,14230 11887,14246 11895,14262 11903,14279 11911,14295 11918,14312 11926,14328 11933,14345 11940,14362 11946,14378 11953,14395 11959,14411 11965,14428 11970,14444 11976,14461 11981,14478 11986,14494 11991,14511 11996,14528 12000,14545 12005,14562 12009,14579 12013,14596 12016,14612 12019,14630 12023,14647 12026,14664 12029,14681 12031,14698 12034,14715 12036,14733 12038,14750 12039,14767 12041,14785 12042,14802 12043,14820 12044,14837 12045,14855 12046,14873 12046,14890 12046,14908 12046,14926 12046,14943 12045,14961 12044,14979 12043,14996 12042,15014 12041,15031 12039,15049 12038,15066 12036,15083 12034,15101 12031,15118 12029,15135 12026,15152 12023,15169 12019,15187 12016,15204 12013,15220 12009,15238 12005,15254 12000,15271 11996,15288 11991,15305 11986,15322 11981,15338 11976,15355 11970,15372 11965,15388 11959,15405 11953,15421 11946,15438 11940,15454 11933,15471 11926,15488 11918,15504 11911,15521 11903,15537 11895,15554 11887,15570 11879,15586 11870,15602 11861,15618 11853,15633 11843,15649 11834,15664 11825,15679 11815,15695 11805,15710 11795,15725 11785,15739 11774,15754 11764,15769 11753,15783 11742,15797 11731,15812 11719,15826 11708,15840 11696,15854 11684,15867 11672,15881 11659,15894 11647,15908 11634,15921 11621,15934 11608,15947 11595,15960 11581,15972 11568,15985 11554,15997 11541,16009 11527,16021 11513,16032 11499,16044 11484,16055 11470,16066 11456,16077 11441,16087 11427,16098 11412,16108 11397,16118 11382,16128 11366,16138 11351,16147 11336,16156 11320,16166 11305,16174 11289,16183 11273,16191 11257,16200 11241,16208 11224,16216 11208,16224 11191,16231 11175,16239 11158,16246 11141,16253 11125,16259 11108,16266 11092,16272 11075,16278 11059,16283 11042,16289 11026,16294 11009,16299 10992,16304 10975,16309 10958,16313 10942,16317 10925,16322 10908,16325 10891,16329 10874,16332 10856,16336 10839,16339 10822,16342 10805,16344 10788,16346 10770,16349 10753,16351 10736,16352 10718,16354 10701,16355 10683,16356 10666,16357 10648,16358 10631,16359 10613,16359 10595,16359 10577,16359 10560,16359 10542,16358 10524,16357 10507,16356 10489,16355 10472,16354 10455,16352 10437,16351 10420,16349 10402,16346 10385,16344 10368,16342 10351,16339 10334,16336 10317,16332 10300,16329 10283,16325 10266,16322 10249,16317 10232,16313 10215,16309 10198,16304 10181,16299 10165,16294 10148,16289 10132,16283 10115,16278 10098,16272 10082,16266 10065,16259 10049,16253 10032,16246 10015,16239 9999,16231 9982,16224 9966,16216 9950,16208 9933,16200 9917,16191 9901,16183 9886,16174 9870,16166 9854,16156 9839,16147 9824,16138 9808,16128 9794,16118 9779,16108 9764,16098 9749,16087 9735,16077 9720,16066 9706,16055 9692,16044 9677,16032 9664,16021 9650,16009 9636,15997 9622,15985 9609,15972 9595,15960 9582,15947 9569,15934 9556,15921 9543,15908 9531,15894 9519,15881 9506,15867 9494,15854 9482,15840 9471,15826 9459,15812 9448,15797 9437,15783 9427,15769 9416,15754 9405,15739 9395,15725 9385,15710 9375,15695 9366,15679 9356,15664 9347,15649 9338,15633 9329,15618 9320,15602 9312,15586 9303,15570 9295,15554 9287,15537 9280,15521 9272,15504 9264,15488 9257,15471 9250,15454 9244,15438 9238,15421 9232,15405 9225,15388 9220,15372 9214,15355 9209,15338 9204,15322 9199,15305 9194,15288 9190,15271 9186,15254 9182,15238 9178,15220 9174,15204 9171,15187 9168,15169 9164,15152 9162,15135 9159,15118 9157,15101 9155,15083 9153,15066 9151,15049 9149,15031 9148,15014 9147,14996 9146,14979 9145,14961 9145,14943 9144,14926 9144,14908 9144,14890 9145,14873 9145,14855 9146,14837 9147,14820 9148,14802 9149,14785 9151,14767 9153,14750 9155,14733 9157,14715 9159,14698 9162,14681 9164,14664 9168,14647 9171,14630 9174,14612 9178,14596 9182,14579 9186,14562 9190,14545 9194,14528 9199,14511 9204,14494 9209,14478 9214,14461 9220,14444 9225,14428 9232,14411 9238,14395 9244,14378 9250,14362 9257,14345 9264,14328 9272,14312 9280,14295 9287,14279 9295,14262 9303,14246 9312,14230 9320,14214 9329,14199 9338,14183 9347,14167 9356,14152 9366,14137 9375,14121 9385,14106 9395,14092 9405,14077 9416,14062 9427,14047 9437,14033 9448,14019 9459,14004 9471,13990 9482,13976 9494,13963 9506,13949 9519,13935 9531,13922 9543,13908 9556,13895 9569,13882 9582,13869 9595,13856 9609,13844 9622,13831 9636,13819 9650,13807 9664,13795 9677,13784 9692,13772 9706,13761 9720,13750 9735,13739 9749,13729 9764,13718 9779,13708 9794,13698 9808,13688 9824,13678 9839,13669 9854,13660 9870,13651 9886,13642 9901,13633 9917,13625 9933,13616 9950,13608 9966,13600 9982,13592 9999,13585 10015,13577 10032,13570 10049,13563 10065,13557 10082,13551 10098,13544 10115,13538 10132,13533 10148,13527 10165,13522 10181,13517 10198,13512 10215,13507 10232,13503 10249,13499 10266,13494 10283,13491 10300,13487 10317,13484 10334,13480 10351,13477 10368,13475 10385,13472 10402,13470 10420,13468 10437,13465 10455,13464 10472,13462 10489,13461 10507,13460 10524,13459 10542,13458 10560,13458 10577,13457 10595,13457 10613,13457 10631,13458 10648,13458 10666,13459 10683,13460 10701,13461 10718,13462 10736,13464 10753,13465 10770,13468 10788,13470 10805,13472 10822,13475 10839,13477 10856,13480 10874,13484 10891,13487 10908,13491 10925,13494 10942,13499 10958,13503 10975,13507 10992,13512 11009,13517 11026,13522 11042,13527 11059,13533 11075,13538 11092,13544 11108,13551 11125,13557 11141,13563 11158,13570 11175,13577 11191,13585 11208,13592 11224,13600 11241,13608 11257,13616 11273,13625 11289,13633 11305,13642 11320,13651 11336,13660 11351,13669 11366,13678 11382,13688 11397,13698 11412,13708 11427,13718 11441,13729 11456,13739 11470,13750 11484,13761 11499,13772 11513,13784 11527,13795 11541,13807 11554,13819 11568,13831 11581,13844 11595,13856 11608,13869 11621,13882 Z"/>
        <path fill="rgb(255,255,255)" stroke="none" d="M 11497,15810 L 11499,15808 11501,15806 11503,15803 11504,15800 11506,15798 11507,15795 11508,15792 11509,15789 11510,15786 11511,15784 11511,15781 11511,15778 11512,15775 11511,15772 11511,15769 11511,15766 11332,14808 11332,14805 11330,14801 11329,14798 11328,14795 11326,14792 11324,14789 11322,14786 11319,14783 11317,14781 11316,14780 11314,14778 11312,14777 11310,14776 11308,14775 11305,14774 11303,14773 11301,14772 11299,14771 11296,14770 11294,14770 11292,14770 11289,14769 11287,14769 11285,14769 11282,14769 11280,14769 11278,14770 11276,14770 11273,14771 11271,14771 11269,14772 11266,14773 11264,14774 11262,14775 11260,14776 11258,14777 11256,14779 11254,14780 11252,14782 11250,14784 11248,14786 11246,14788 11245,14791 11243,14793 11036,15088 9940,13830 9517,14253 10775,15350 10480,15556 10478,15558 10475,15560 10473,15561 10471,15563 10469,15565 10467,15567 10466,15569 10465,15571 10463,15573 10462,15575 10461,15578 10460,15580 10459,15582 10458,15584 10458,15586 10457,15589 10457,15591 10456,15593 10456,15596 10456,15598 10456,15600 10456,15603 10457,15605 10457,15607 10458,15610 10458,15612 10459,15614 10460,15616 10461,15619 10462,15621 10463,15623 10464,15625 10465,15627 10467,15629 10468,15631 10470,15632 10473,15635 10476,15637 10479,15639 10482,15641 10485,15643 10489,15644 10492,15645 10495,15646 11453,15824 11456,15824 11459,15825 11462,15825 11465,15825 11468,15825 11470,15824 11473,15823 11476,15823 11479,15822 11482,15821 11484,15820 11487,15818 11490,15816 11492,15815 11494,15813 11497,15810 Z"/>
       </g>
      </g>
     </g>
    </g>
   </g>
  </g>
 </g>
</svg>