<?xml version="1.0" encoding="UTF-8"?>
<!DOCTYPE svg PUBLIC "-//W3C//DTD SVG 1.1//EN" "http://www.w3.org/Graphics/SVG/1.1/DTD/svg11.dtd">
<svg version="1.2" width="30.09mm" height="30.09mm" viewBox="9090 13403 3009 3009" preserveAspectRatio="xMidYMid" fill-rule="evenodd" stroke-width="28.222" stroke-linejoin="round" xmlns="http://www.w3.org/2000/svg" xmlns:ooo="http://xml.openoffice.org/svg/export" xmlns:xlink="http://www.w3.org/1999/xlink" xmlns:presentation="http://sun.com/xmlns/staroffice/presentation" xmlns:smil="http://www.w3.org/2001/SMIL20/" xmlns:anim="urn:oasis:names:tc:opendocument:xmlns:animation:1.0" xml:space="preserve">
 <defs class="ClipPathGroup">
  <clipPath id="presentation_clip_path" clipPathUnits="userSpaceOnUse">
   <rect x="9090" y="13403" width="3009" height="3009"/>
  </clipPath>
  <clipPath id="presentation_clip_path_shrink" clipPathUnits="userSpaceOnUse">
   <rect x="9093" y="13406" width="3003" height="3003"/>
  </clipPath>
 </defs>
 <defs class="TextShapeIndex">
  <g ooo:slide="id1" ooo:id-list="id3"/>
 </defs>
 <defs class="EmbeddedBulletChars">
  <g id="bullet-char-template-57356" transform="scale(0.00048828125,-0.00048828125)">
   <path d="M 580,1141 L 1163,571 580,0 -4,571 580,1141 Z"/>
  </g>
  <g id="bullet-char-template-57354" transform="scale(0.00048828125,-0.00048828125)">
   <path d="M 8,1128 L 1137,1128 1137,0 8,0 8,1128 Z"/>
  </g>
  <g id="bullet-char-template-10146" transform="scale(0.00048828125,-0.00048828125)">
   <path d="M 174,0 L 602,739 174,1481 1456,739 174,0 Z M 1358,739 L 309,1346 659,739 1358,739 Z"/>
  </g>
  <g id="bullet-char-template-10132" transform="scale(0.00048828125,-0.00048828125)">
   <path d="M 2015,739 L 1276,0 717,0 1260,543 174,543 174,936 1260,936 717,1481 1274,1481 2015,739 Z"/>
  </g>
  <g id="bullet-char-template-10007" transform="scale(0.00048828125,-0.00048828125)">
   <path d="M 0,-2 C -7,14 -16,27 -25,37 L 356,567 C 262,823 215,952 215,954 215,979 228,992 255,992 264,992 276,990 289,987 310,991 331,999 354,1012 L 381,999 492,748 772,1049 836,1024 860,1049 C 881,1039 901,1025 922,1006 886,937 835,863 770,784 769,783 710,716 594,584 L 774,223 C 774,196 753,168 711,139 L 727,119 C 717,90 699,76 672,76 641,76 570,178 457,381 L 164,-76 C 142,-110 111,-127 72,-127 30,-127 9,-110 8,-76 1,-67 -2,-52 -2,-32 -2,-23 -1,-13 0,-2 Z"/>
  </g>
  <g id="bullet-char-template-10004" transform="scale(0.00048828125,-0.00048828125)">
   <path d="M 285,-33 C 182,-33 111,30 74,156 52,228 41,333 41,471 41,549 55,616 82,672 116,743 169,778 240,778 293,778 328,747 346,684 L 369,508 C 377,444 397,411 428,410 L 1163,1116 C 1174,1127 1196,1133 1229,1133 1271,1133 1292,1118 1292,1087 L 1292,965 C 1292,929 1282,901 1262,881 L 442,47 C 390,-6 338,-33 285,-33 Z"/>
  </g>
  <g id="bullet-char-template-9679" transform="scale(0.00048828125,-0.00048828125)">
   <path d="M 813,0 C 632,0 489,54 383,161 276,268 223,411 223,592 223,773 276,916 383,1023 489,1130 632,1184 813,1184 992,1184 1136,1130 1245,1023 1353,916 1407,772 1407,592 1407,412 1353,268 1245,161 1136,54 992,0 813,0 Z"/>
  </g>
  <g id="bullet-char-template-8226" transform="scale(0.00048828125,-0.00048828125)">
   <path d="M 346,457 C 273,457 209,483 155,535 101,586 74,649 74,723 74,796 101,859 155,911 209,963 273,989 346,989 419,989 480,963 531,910 582,859 608,796 608,723 608,648 583,586 532,535 482,483 420,457 346,457 Z"/>
  </g>
  <g id="bullet-char-template-8211" transform="scale(0.00048828125,-0.00048828125)">
   <path d="M -4,459 L 1135,459 1135,606 -4,606 -4,459 Z"/>
  </g>
  <g id="bullet-char-template-61548" transform="scale(0.00048828125,-0.00048828125)">
   <path d="M 173,740 C 173,903 231,1043 346,1159 462,1274 601,1332 765,1332 928,1332 1067,1274 1183,1159 1299,1043 1357,903 1357,740 1357,577 1299,437 1183,322 1067,206 928,148 765,148 601,148 462,206 346,322 231,437 173,577 173,740 Z"/>
  </g>
 </defs>
 <defs class="TextEmbeddedBitmaps"/>
 <g class="SlideGroup">
  <g>
   <g id="container-id1">
    <g id="id1" class="Slide" clip-path="url(#presentation_clip_path)">
     <g class="Page">
      <g class="Graphic">
       <g id="id3">
        <rect class="BoundingBox" stroke="none" fill="none" x="9090" y="13403" width="3010" height="3010"/>
        <path fill="rgb(255,255,255)" stroke="none" d="M 9534,13847 L 9481,13903 9431,13961 9385,14021 9342,14083 9303,14146 9267,14210 9234,14276 9205,14344 9179,14412 9157,14481 9138,14551 9122,14621 9111,14693 9102,14764 9097,14836 9095,14908 9097,14980 9102,15052 9111,15123 9122,15195 9138,15265 9157,15335 9179,15404 9205,15472 9234,15540 9267,15606 9303,15670 9342,15733 9385,15795 9431,15855 9481,15913 9534,15969 9590,16022 9648,16072 9708,16118 9770,16161 9833,16200 9897,16236 9963,16269 10031,16298 10099,16324 10168,16346 10238,16365 10308,16381 10380,16392 10451,16401 10523,16406 10595,16408 10667,16406 10739,16401 10810,16392 10882,16381 10952,16365 11022,16346 11091,16324 11159,16298 11227,16269 11293,16236 11357,16200 11420,16161 11482,16118 11542,16072 11600,16022 11656,15969 11709,15913 11759,15855 11805,15795 11848,15733 11887,15670 11923,15606 11956,15540 11985,15472 12011,15404 12033,15335 12052,15265 12067,15195 12079,15123 12088,15052 12093,14980 12095,14908 12093,14836 12088,14764 12079,14693 12067,14621 12052,14551 12033,14481 12011,14412 11985,14344 11956,14276 11923,14210 11887,14146 11848,14083 11805,14021 11759,13961 11709,13903 11656,13847 11600,13794 11542,13744 11482,13698 11420,13655 11357,13616 11293,13580 11227,13547 11159,13518 11091,13492 11022,13470 10952,13451 10882,13436 10810,13424 10739,13415 10667,13410 10595,13408 10523,13410 10451,13415 10380,13424 10308,13436 10238,13451 10168,13470 10099,13492 10031,13518 9963,13547 9897,13580 9833,13616 9770,13655 9708,13698 9648,13744 9590,13794 9534,13847 Z"/>
        <path fill="none" stroke="rgb(26,28,26)" stroke-width="10" stroke-linejoin="round" stroke-linecap="round" d="M 9534,13847 L 9481,13903 9431,13961 9385,14021 9342,14083 9303,14146 9267,14210 9234,14276 9205,14344 9179,14412 9157,14481 9138,14551 9122,14621 9111,14693 9102,14764 9097,14836 9095,14908 9097,14980 9102,15052 9111,15123 9122,15195 9138,15265 9157,15335 9179,15404 9205,15472 9234,15540 9267,15606 9303,15670 9342,15733 9385,15795 9431,15855 9481,15913 9534,15969 9590,16022 9648,16072 9708,16118 9770,16161 9833,16200 9897,16236 9963,16269 10031,16298 10099,16324 10168,16346 10238,16365 10308,16381 10380,16392 10451,16401 10523,16406 10595,16408 10667,16406 10739,16401 10810,16392 10882,16381 10952,16365 11022,16346 11091,16324 11159,16298 11227,16269 11293,16236 11357,16200 11420,16161 11482,16118 11542,16072 11600,16022 11656,15969 11709,15913 11759,15855 11805,15795 11848,15733 11887,15670 11923,15606 11956,15540 11985,15472 12011,15404 12033,15335 12052,15265 12067,15195 12079,15123 12088,15052 12093,14980 12095,14908 12093,14836 12088,14764 12079,14693 12067,14621 12052,14551 12033,14481 12011,14412 11985,14344 11956,14276 11923,14210 11887,14146 11848,14083 11805,14021 11759,13961 11709,13903 11656,13847 11600,13794 11542,13744 11482,13698 11420,13655 11357,13616 11293,13580 11227,13547 11159,13518 11091,13492 11022,13470 10952,13451 10882,13436 10810,13424 10739,13415 10667,13410 10595,13408 10523,13410 10451,13415 10380,13424 10308,13436 10238,13451 10168,13470 10099,13492 10031,13518 9963,13547 9897,13580 9833,13616 9770,13655 9708,13698 9648,13744 9590,13794 9534,13847 Z"/>
        <path fill="rgb(4,82,159)" stroke="none" d="M 9570,13883 L 9557,13896 9544,13909 9531,13922 9519,13936 9507,13950 9495,13963 9483,13977 9471,13991 9460,14005 9449,14019 9438,14034 9427,14048 9416,14063 9406,14077 9396,14092 9386,14107 9376,14122 9366,14137 9357,14152 9347,14168 9338,14183 9329,14199 9321,14215 9312,14231 9304,14247 9296,14263 9288,14279 9280,14296 9272,14312 9265,14329 9258,14346 9251,14362 9244,14379 9238,14395 9232,14412 9226,14428 9220,14445 9215,14461 9210,14478 9205,14495 9200,14511 9195,14528 9191,14545 9186,14562 9182,14579 9178,14596 9175,14613 9171,14630 9168,14647 9165,14664 9162,14681 9160,14698 9157,14716 9155,14733 9153,14750 9152,14767 9150,14785 9149,14802 9147,14820 9146,14837 9146,14855 9145,14873 9145,14890 9145,14908 9145,14926 9145,14943 9146,14961 9146,14979 9147,14996 9149,15014 9150,15031 9152,15049 9153,15066 9155,15083 9157,15101 9160,15118 9162,15135 9165,15152 9168,15169 9171,15186 9175,15203 9178,15220 9182,15237 9186,15254 9191,15271 9195,15288 9200,15305 9205,15321 9210,15338 9215,15355 9220,15371 9226,15388 9232,15404 9238,15421 9244,15437 9251,15454 9258,15470 9265,15487 9272,15504 9280,15521 9288,15537 9296,15553 9304,15569 9312,15585 9321,15601 9329,15617 9338,15633 9347,15648 9357,15664 9366,15679 9376,15694 9386,15709 9396,15724 9406,15739 9416,15753 9427,15768 9438,15783 9449,15797 9460,15811 9471,15825 9483,15839 9495,15853 9507,15866 9519,15880 9531,15894 9544,15907 9557,15920 9570,15933 9583,15946 9596,15959 9609,15971 9623,15984 9636,15996 9650,16008 9664,16020 9678,16031 9692,16043 9706,16054 9720,16065 9735,16076 9749,16087 9764,16097 9779,16107 9794,16117 9809,16127 9824,16137 9839,16146 9855,16155 9870,16165 9886,16174 9902,16182 9918,16191 9934,16199 9950,16207 9966,16215 9982,16223 9999,16230 10016,16238 10032,16245 10049,16252 10066,16258 10082,16265 10099,16271 10115,16277 10131,16282 10148,16288 10165,16293 10182,16298 10198,16303 10215,16308 10232,16312 10249,16316 10266,16321 10283,16324 10299,16328 10317,16332 10334,16335 10351,16338 10368,16341 10385,16343 10402,16345 10420,16348 10437,16350 10454,16351 10472,16353 10489,16354 10507,16355 10524,16356 10542,16357 10559,16358 10577,16358 10595,16358 10612,16358 10630,16358 10648,16357 10666,16356 10683,16355 10701,16354 10718,16353 10735,16351 10753,16350 10770,16348 10787,16345 10805,16343 10822,16341 10839,16338 10856,16335 10873,16332 10890,16328 10907,16324 10924,16321 10941,16316 10958,16312 10975,16308 10992,16303 11008,16298 11025,16293 11042,16288 11058,16282 11075,16277 11091,16271 11108,16265 11124,16258 11141,16252 11157,16245 11174,16238 11191,16230 11207,16223 11224,16215 11240,16207 11256,16199 11272,16191 11288,16182 11304,16174 11319,16165 11335,16155 11350,16146 11366,16137 11381,16127 11396,16117 11411,16107 11426,16097 11440,16087 11455,16076 11469,16065 11484,16054 11498,16043 11512,16031 11526,16020 11540,16008 11553,15996 11567,15984 11580,15971 11594,15959 11607,15946 11620,15933 11633,15920 11646,15907 11658,15894 11671,15880 11683,15866 11695,15853 11707,15839 11718,15825 11730,15811 11741,15797 11752,15783 11763,15768 11773,15753 11784,15739 11794,15724 11804,15709 11814,15694 11824,15679 11833,15664 11842,15648 11851,15633 11860,15617 11869,15601 11878,15585 11886,15569 11894,15553 11902,15537 11910,15521 11917,15504 11924,15487 11932,15470 11939,15454 11945,15437 11952,15421 11958,15404 11964,15388 11969,15371 11975,15355 11980,15338 11985,15321 11990,15305 11995,15288 11999,15271 12003,15254 12007,15237 12011,15220 12015,15203 12018,15186 12022,15169 12025,15152 12027,15135 12030,15118 12032,15101 12035,15083 12036,15066 12038,15049 12040,15031 12041,15014 12042,14996 12043,14979 12044,14961 12045,14943 12045,14926 12045,14908 12045,14890 12045,14873 12044,14855 12043,14837 12042,14820 12041,14802 12040,14785 12038,14767 12036,14750 12035,14733 12032,14716 12030,14698 12027,14681 12025,14664 12022,14647 12018,14630 12015,14613 12011,14596 12007,14579 12003,14562 11999,14545 11995,14528 11990,14511 11985,14495 11980,14478 11975,14461 11969,14445 11964,14428 11958,14412 11952,14395 11945,14379 11939,14362 11932,14346 11924,14329 11917,14312 11910,14296 11902,14279 11894,14263 11886,14247 11878,14231 11869,14215 11860,14199 11851,14183 11842,14168 11833,14152 11824,14137 11814,14122 11804,14107 11794,14092 11784,14077 11773,14063 11763,14048 11752,14034 11741,14019 11730,14005 11718,13991 11707,13977 11695,13963 11683,13950 11671,13936 11658,13922 11646,13909 11633,13896 11620,13883 11607,13870 11594,13857 11580,13845 11567,13832 11553,13820 11540,13808 11526,13796 11512,13785 11498,13773 11484,13762 11469,13751 11455,13740 11440,13730 11426,13719 11411,13709 11396,13699 11381,13689 11366,13679 11350,13670 11335,13661 11319,13652 11304,13642 11288,13634 11272,13625 11256,13617 11240,13609 11224,13601 11207,13593 11191,13586 11174,13578 11157,13571 11141,13564 11124,13558 11108,13551 11091,13545 11075,13539 11058,13534 11042,13528 11025,13523 11008,13518 10992,13513 10975,13508 10958,13504 10941,13500 10924,13495 10907,13492 10890,13488 10873,13484 10856,13481 10839,13478 10822,13476 10805,13473 10787,13471 10770,13468 10753,13466 10735,13465 10718,13463 10701,13462 10683,13461 10666,13460 10648,13459 10630,13458 10612,13458 10595,13458 10577,13458 10559,13458 10542,13459 10524,13460 10507,13461 10489,13462 10472,13463 10454,13465 10437,13466 10420,13468 10402,13471 10385,13473 10368,13476 10351,13478 10334,13481 10317,13484 10299,13488 10283,13492 10266,13495 10249,13500 10232,13504 10215,13508 10198,13513 10182,13518 10165,13523 10148,13528 10131,13534 10115,13539 10099,13545 10082,13551 10066,13558 10049,13564 10032,13571 10016,13578 9999,13586 9982,13593 9966,13601 9950,13609 9934,13617 9918,13625 9902,13634 9886,13642 9870,13652 9855,13661 9839,13670 9824,13679 9809,13689 9794,13699 9779,13709 9764,13719 9749,13730 9735,13740 9720,13751 9706,13762 9692,13773 9678,13785 9664,13796 9650,13808 9636,13820 9623,13832 9609,13845 9596,13857 9583,13870 9570,13883 Z"/>
        <path fill="rgb(255,255,255)" stroke="none" d="M 9694,15810 L 9692,15807 9690,15805 9688,15803 9686,15800 9685,15797 9683,15794 9682,15792 9681,15789 9681,15786 9680,15783 9679,15780 9679,15777 9679,15774 9679,15771 9679,15768 9680,15765 9858,14808 9859,14805 9860,14802 9861,14798 9863,14795 9865,14792 9866,14789 9869,14786 9871,14783 9873,14782 9875,14780 9877,14778 9879,14777 9881,14776 9883,14775 9885,14774 9887,14773 9890,14772 9892,14771 9894,14770 9896,14770 9899,14770 9901,14769 9903,14769 9906,14769 9908,14769 9910,14770 9912,14770 9915,14770 9917,14771 9919,14771 9922,14772 9924,14773 9926,14774 9928,14775 9930,14776 9932,14777 9934,14779 9936,14780 9938,14782 9940,14784 9942,14786 9944,14788 9946,14791 9947,14793 10154,15088 11250,13830 11673,14254 10415,15349 10710,15556 10712,15557 10715,15559 10717,15561 10719,15563 10721,15565 10723,15567 10724,15569 10725,15571 10727,15573 10728,15575 10729,15577 10730,15579 10731,15581 10732,15584 10732,15586 10733,15588 10733,15591 10733,15593 10733,15595 10734,15598 10734,15600 10733,15602 10733,15605 10733,15607 10732,15609 10732,15612 10731,15614 10730,15616 10729,15618 10728,15620 10727,15622 10726,15624 10724,15626 10723,15628 10721,15630 10720,15632 10717,15635 10714,15637 10711,15639 10708,15641 10705,15642 10701,15643 10698,15644 10695,15645 9738,15823 9735,15824 9732,15824 9729,15824 9726,15824 9723,15824 9720,15823 9717,15823 9714,15822 9712,15821 9709,15820 9706,15819 9703,15817 9701,15816 9698,15814 9696,15812 9694,15810 Z"/>
       </g>
      </g>
     </g>
    </g>
   </g>
  </g>
 </g>
</svg>