<?xml version="1.0" encoding="UTF-8"?>
<!DOCTYPE svg PUBLIC "-//W3C//DTD SVG 1.1//EN" "http://www.w3.org/Graphics/SVG/1.1/DTD/svg11.dtd">
<svg version="1.2" width="30.11mm" height="30.11mm" viewBox="9089 13402 3011 3011" preserveAspectRatio="xMidYMid" fill-rule="evenodd" stroke-width="28.222" stroke-linejoin="round" xmlns="http://www.w3.org/2000/svg" xmlns:ooo="http://xml.openoffice.org/svg/export" xmlns:xlink="http://www.w3.org/1999/xlink" xmlns:presentation="http://sun.com/xmlns/staroffice/presentation" xmlns:smil="http://www.w3.org/2001/SMIL20/" xmlns:anim="urn:oasis:names:tc:opendocument:xmlns:animation:1.0" xml:space="preserve">
 <defs class="ClipPathGroup">
  <clipPath id="presentation_clip_path" clipPathUnits="userSpaceOnUse">
   <rect x="9089" y="13402" width="3011" height="3011"/>
  </clipPath>
  <clipPath id="presentation_clip_path_shrink" clipPathUnits="userSpaceOnUse">
   <rect x="9092" y="13405" width="3005" height="3005"/>
  </clipPath>
 </defs>
 <defs class="TextShapeIndex">
  <g ooo:slide="id1" ooo:id-list="id3"/>
 </defs>
 <defs class="EmbeddedBulletChars">
  <g id="bullet-char-template-57356" transform="scale(0.00048828125,-0.00048828125)">
   <path d="M 580,1141 L 1163,571 580,0 -4,571 580,1141 Z"/>
  </g>
  <g id="bullet-char-template-57354" transform="scale(0.00048828125,-0.00048828125)">
   <path d="M 8,1128 L 1137,1128 1137,0 8,0 8,1128 Z"/>
  </g>
  <g id="bullet-char-template-10146" transform="scale(0.00048828125,-0.00048828125)">
   <path d="M 174,0 L 602,739 174,1481 1456,739 174,0 Z M 1358,739 L 309,1346 659,739 1358,739 Z"/>
  </g>
  <g id="bullet-char-template-10132" transform="scale(0.00048828125,-0.00048828125)">
   <path d="M 2015,739 L 1276,0 717,0 1260,543 174,543 174,936 1260,936 717,1481 1274,1481 2015,739 Z"/>
  </g>
  <g id="bullet-char-template-10007" transform="scale(0.00048828125,-0.00048828125)">
   <path d="M 0,-2 C -7,14 -16,27 -25,37 L 356,567 C 262,823 215,952 215,954 215,979 228,992 255,992 264,992 276,990 289,987 310,991 331,999 354,1012 L 381,999 492,748 772,1049 836,1024 860,1049 C 881,1039 901,1025 922,1006 886,937 835,863 770,784 769,783 710,716 594,584 L 774,223 C 774,196 753,168 711,139 L 727,119 C 717,90 699,76 672,76 641,76 570,178 457,381 L 164,-76 C 142,-110 111,-127 72,-127 30,-127 9,-110 8,-76 1,-67 -2,-52 -2,-32 -2,-23 -1,-13 0,-2 Z"/>
  </g>
  <g id="bullet-char-template-10004" transform="scale(0.00048828125,-0.00048828125)">
   <path d="M 285,-33 C 182,-33 111,30 74,156 52,228 41,333 41,471 41,549 55,616 82,672 116,743 169,778 240,778 293,778 328,747 346,684 L 369,508 C 377,444 397,411 428,410 L 1163,1116 C 1174,1127 1196,1133 1229,1133 1271,1133 1292,1118 1292,1087 L 1292,965 C 1292,929 1282,901 1262,881 L 442,47 C 390,-6 338,-33 285,-33 Z"/>
  </g>
  <g id="bullet-char-template-9679" transform="scale(0.00048828125,-0.00048828125)">
   <path d="M 813,0 C 632,0 489,54 383,161 276,268 223,411 223,592 223,773 276,916 383,1023 489,1130 632,1184 813,1184 992,1184 1136,1130 1245,1023 1353,916 1407,772 1407,592 1407,412 1353,268 1245,161 1136,54 992,0 813,0 Z"/>
  </g>
  <g id="bullet-char-template-8226" transform="scale(0.00048828125,-0.00048828125)">
   <path d="M 346,457 C 273,457 209,483 155,535 101,586 74,649 74,723 74,796 101,859 155,911 209,963 273,989 346,989 419,989 480,963 531,910 582,859 608,796 608,723 608,648 583,586 532,535 482,483 420,457 346,457 Z"/>
  </g>
  <g id="bullet-char-template-8211" transform="scale(0.00048828125,-0.00048828125)">
   <path d="M -4,459 L 1135,459 1135,606 -4,606 -4,459 Z"/>
  </g>
  <g id="bullet-char-template-61548" transform="scale(0.00048828125,-0.00048828125)">
   <path d="M 173,740 C 173,903 231,1043 346,1159 462,1274 601,1332 765,1332 928,1332 1067,1274 1183,1159 1299,1043 1357,903 1357,740 1357,577 1299,437 1183,322 1067,206 928,148 765,148 601,148 462,206 346,322 231,437 173,577 173,740 Z"/>
  </g>
 </defs>
 <defs class="TextEmbeddedBitmaps"/>
 <g class="SlideGroup">
  <g>
   <g id="container-id1">
    <g id="id1" class="Slide" clip-path="url(#presentation_clip_path)">
     <g class="Page">
      <g class="Graphic">
       <g id="id3">
        <rect class="BoundingBox" stroke="none" fill="none" x="9089" y="13402" width="3012" height="3012"/>
        <path fill="rgb(255,255,255)" stroke="none" d="M 12096,14908 L 12094,14831 12088,14755 12079,14679 12065,14605 12049,14533 12029,14462 12005,14392 11978,14324 11948,14257 11915,14193 11879,14130 11840,14069 11798,14010 11753,13953 11706,13899 11656,13847 11604,13797 11550,13750 11493,13705 11434,13663 11373,13624 11311,13588 11246,13555 11179,13525 11111,13498 11041,13474 10970,13454 10898,13438 10824,13424 10748,13415 10672,13409 10595,13407 10518,13409 10442,13415 10366,13424 10292,13438 10220,13454 10149,13474 10079,13498 10011,13525 9944,13555 9879,13588 9817,13624 9756,13663 9697,13705 9640,13750 9586,13797 9534,13847 9484,13899 9437,13953 9392,14010 9350,14069 9311,14130 9275,14193 9242,14257 9212,14324 9185,14392 9161,14462 9141,14533 9125,14605 9111,14679 9102,14755 9096,14831 9094,14908 9096,14985 9102,15061 9111,15137 9125,15211 9141,15283 9161,15354 9185,15424 9212,15492 9242,15559 9275,15624 9311,15686 9350,15747 9392,15806 9437,15863 9484,15917 9534,15969 9586,16019 9640,16066 9697,16111 9756,16153 9817,16192 9879,16228 9944,16261 10011,16291 10079,16318 10149,16342 10220,16362 10292,16378 10366,16392 10442,16401 10518,16407 10595,16409 10672,16407 10748,16401 10824,16392 10898,16378 10970,16362 11041,16342 11111,16318 11179,16291 11246,16261 11311,16228 11373,16192 11434,16153 11493,16111 11550,16066 11604,16019 11656,15969 11706,15917 11753,15863 11798,15806 11840,15747 11879,15686 11915,15624 11948,15559 11978,15492 12005,15424 12029,15354 12049,15283 12065,15211 12079,15137 12088,15061 12094,14985 12096,14908 Z"/>
        <path fill="none" stroke="rgb(26,28,26)" stroke-width="10" stroke-linejoin="round" stroke-linecap="round" d="M 12096,14908 L 12094,14831 12088,14755 12079,14679 12065,14605 12049,14533 12029,14462 12005,14392 11978,14324 11948,14257 11915,14193 11879,14130 11840,14069 11798,14010 11753,13953 11706,13899 11656,13847 11604,13797 11550,13750 11493,13705 11434,13663 11373,13624 11311,13588 11246,13555 11179,13525 11111,13498 11041,13474 10970,13454 10898,13438 10824,13424 10748,13415 10672,13409 10595,13407 10518,13409 10442,13415 10366,13424 10292,13438 10220,13454 10149,13474 10079,13498 10011,13525 9944,13555 9879,13588 9817,13624 9756,13663 9697,13705 9640,13750 9586,13797 9534,13847 9484,13899 9437,13953 9392,14010 9350,14069 9311,14130 9275,14193 9242,14257 9212,14324 9185,14392 9161,14462 9141,14533 9125,14605 9111,14679 9102,14755 9096,14831 9094,14908 9096,14985 9102,15061 9111,15137 9125,15211 9141,15283 9161,15354 9185,15424 9212,15492 9242,15559 9275,15624 9311,15686 9350,15747 9392,15806 9437,15863 9484,15917 9534,15969 9586,16019 9640,16066 9697,16111 9756,16153 9817,16192 9879,16228 9944,16261 10011,16291 10079,16318 10149,16342 10220,16362 10292,16378 10366,16392 10442,16401 10518,16407 10595,16409 10672,16407 10748,16401 10824,16392 10898,16378 10970,16362 11041,16342 11111,16318 11179,16291 11246,16261 11311,16228 11373,16192 11434,16153 11493,16111 11550,16066 11604,16019 11656,15969 11706,15917 11753,15863 11798,15806 11840,15747 11879,15686 11915,15624 11948,15559 11978,15492 12005,15424 12029,15354 12049,15283 12065,15211 12079,15137 12088,15061 12094,14985 12096,14908 Z"/>
        <path fill="rgb(4,82,159)" stroke="none" d="M 12046,14908 L 12046,14890 12045,14871 12045,14853 12044,14834 12043,14816 12042,14798 12041,14780 12039,14762 12037,14744 12035,14726 12032,14708 12030,14690 12027,14672 12024,14654 12021,14637 12017,14619 12014,14602 12010,14584 12006,14566 12001,14549 11997,14532 11992,14514 11987,14497 11982,14480 11976,14462 11971,14445 11965,14428 11959,14411 11952,14394 11946,14377 11939,14360 11932,14343 11925,14327 11918,14311 11910,14295 11903,14279 11895,14263 11888,14248 11879,14232 11871,14217 11863,14201 11854,14186 11846,14171 11837,14156 11827,14141 11818,14127 11809,14112 11799,14098 11789,14083 11779,14069 11769,14055 11759,14041 11748,14027 11738,14013 11727,14000 11716,13986 11705,13973 11693,13959 11682,13946 11670,13933 11658,13920 11646,13907 11633,13894 11621,13882 11608,13869 11596,13857 11583,13845 11570,13833 11557,13821 11544,13810 11530,13798 11517,13787 11503,13776 11490,13765 11476,13755 11462,13744 11448,13734 11434,13724 11420,13714 11405,13704 11391,13694 11376,13685 11362,13675 11347,13666 11332,13657 11317,13649 11302,13640 11286,13632 11271,13623 11255,13615 11240,13608 11224,13600 11208,13592 11192,13585 11176,13578 11160,13571 11143,13564 11126,13557 11109,13551 11092,13544 11075,13538 11058,13532 11041,13526 11023,13521 11006,13516 10989,13511 10971,13506 10954,13501 10936,13497 10919,13493 10901,13489 10884,13485 10866,13482 10848,13479 10831,13476 10813,13473 10795,13470 10777,13468 10759,13466 10741,13464 10723,13462 10705,13461 10687,13460 10668,13459 10650,13458 10632,13457 10613,13457 10595,13457 10577,13457 10558,13457 10540,13458 10522,13459 10503,13460 10485,13461 10467,13462 10449,13464 10431,13466 10413,13468 10395,13470 10377,13473 10359,13476 10342,13479 10324,13482 10306,13485 10289,13489 10271,13493 10254,13497 10236,13501 10219,13506 10201,13511 10184,13516 10167,13521 10149,13526 10132,13532 10115,13538 10098,13544 10081,13551 10064,13557 10047,13564 10030,13571 10014,13578 9998,13585 9982,13592 9966,13600 9950,13608 9935,13615 9919,13623 9904,13632 9888,13640 9873,13649 9858,13657 9843,13666 9828,13675 9814,13685 9799,13694 9785,13704 9770,13714 9756,13724 9742,13734 9728,13744 9714,13755 9700,13765 9687,13776 9673,13787 9660,13798 9646,13810 9633,13821 9620,13833 9607,13845 9594,13857 9582,13869 9569,13882 9557,13894 9544,13907 9532,13920 9520,13933 9508,13946 9497,13959 9485,13973 9474,13986 9463,14000 9452,14013 9442,14027 9431,14041 9421,14055 9411,14069 9401,14083 9391,14098 9381,14112 9372,14127 9363,14141 9353,14156 9344,14171 9336,14186 9327,14201 9319,14217 9311,14232 9302,14248 9295,14263 9287,14279 9280,14295 9272,14311 9265,14327 9258,14343 9251,14360 9244,14377 9238,14394 9231,14411 9225,14428 9219,14445 9214,14462 9208,14480 9203,14497 9198,14514 9193,14532 9189,14549 9184,14566 9180,14584 9176,14602 9173,14619 9169,14637 9166,14654 9163,14672 9160,14690 9158,14708 9155,14726 9153,14744 9151,14762 9149,14780 9148,14798 9147,14816 9146,14834 9145,14853 9145,14871 9144,14890 9144,14908 9144,14926 9145,14945 9145,14963 9146,14981 9147,14999 9148,15018 9149,15036 9151,15054 9153,15072 9155,15090 9158,15108 9160,15126 9163,15144 9166,15161 9169,15179 9173,15197 9176,15214 9180,15232 9184,15249 9189,15267 9193,15284 9198,15302 9203,15319 9208,15336 9214,15354 9219,15371 9225,15388 9231,15405 9238,15422 9244,15439 9251,15456 9258,15473 9265,15489 9272,15505 9280,15521 9287,15537 9295,15553 9302,15568 9311,15584 9319,15599 9327,15615 9336,15630 9344,15645 9353,15659 9363,15674 9372,15689 9381,15704 9391,15718 9401,15733 9411,15747 9421,15761 9431,15775 9442,15789 9452,15803 9463,15816 9474,15830 9485,15843 9497,15856 9508,15870 9520,15883 9532,15896 9544,15909 9557,15921 9569,15934 9582,15946 9594,15959 9607,15971 9620,15983 9633,15994 9646,16006 9660,16017 9673,16029 9687,16040 9700,16050 9714,16061 9728,16072 9742,16082 9756,16092 9770,16102 9785,16112 9799,16122 9814,16131 9828,16140 9843,16150 9858,16158 9873,16167 9888,16176 9904,16184 9919,16192 9935,16200 9950,16208 9966,16216 9982,16223 9998,16231 10014,16238 10030,16245 10047,16252 10064,16259 10081,16265 10098,16271 10115,16278 10132,16284 10149,16289 10167,16295 10184,16300 10201,16305 10219,16310 10236,16314 10254,16319 10271,16323 10289,16327 10306,16330 10324,16334 10342,16337 10359,16340 10377,16343 10395,16345 10413,16348 10431,16350 10449,16352 10467,16353 10485,16355 10503,16356 10522,16357 10540,16358 10558,16358 10577,16359 10595,16359 10613,16359 10632,16358 10650,16358 10668,16357 10687,16356 10705,16355 10723,16353 10741,16352 10759,16350 10777,16348 10795,16345 10813,16343 10831,16340 10848,16337 10866,16334 10884,16330 10901,16327 10919,16323 10936,16319 10954,16314 10971,16310 10989,16305 11006,16300 11023,16295 11041,16289 11058,16284 11075,16278 11092,16271 11109,16265 11126,16259 11143,16252 11160,16245 11176,16238 11192,16231 11208,16223 11224,16216 11240,16208 11255,16200 11271,16192 11286,16184 11302,16176 11317,16167 11332,16158 11347,16150 11362,16140 11376,16131 11391,16122 11405,16112 11420,16102 11434,16092 11448,16082 11462,16072 11476,16061 11490,16050 11503,16040 11517,16029 11530,16017 11544,16006 11557,15994 11570,15983 11583,15971 11596,15959 11608,15946 11621,15934 11633,15921 11646,15909 11658,15896 11670,15883 11682,15870 11693,15856 11705,15843 11716,15830 11727,15816 11738,15803 11748,15789 11759,15775 11769,15761 11779,15747 11789,15733 11799,15718 11809,15704 11818,15689 11827,15674 11837,15659 11846,15645 11854,15630 11863,15615 11871,15599 11879,15584 11888,15568 11895,15553 11903,15537 11910,15521 11918,15505 11925,15489 11932,15473 11939,15456 11946,15439 11952,15422 11959,15405 11965,15388 11971,15371 11976,15354 11982,15336 11987,15319 11992,15302 11997,15284 12001,15267 12006,15249 12010,15232 12014,15214 12017,15197 12021,15179 12024,15161 12027,15144 12030,15126 12032,15108 12035,15090 12037,15072 12039,15054 12041,15036 12042,15018 12043,14999 12044,14981 12045,14963 12045,14945 12046,14926 12046,14908 Z"/>
        <path fill="rgb(255,255,255)" stroke="none" d="M 9679,15717 L 10054,15719 10053,15422 10053,15405 10054,15388 10055,15371 10056,15355 10058,15338 10060,15321 10063,15305 10066,15288 10070,15272 10074,15256 10078,15240 10083,15224 10088,15208 10094,15192 10100,15177 10107,15162 10114,15147 10121,15132 10129,15117 10137,15103 10145,15088 10154,15074 10163,15060 10173,15047 10182,15034 10193,15021 10203,15008 10214,14995 10226,14983 10237,14971 10249,14960 10262,14948 10272,14939 10282,14931 10293,14922 10303,14914 10314,14906 10325,14899 10337,14891 10348,14884 10359,14877 10371,14871 10383,14864 10395,14858 10406,14852 10418,14847 10431,14842 10443,14837 10455,14832 10468,14828 10481,14823 10493,14820 10506,14816 10519,14813 10532,14810 10545,14807 10558,14805 10571,14803 10584,14801 10597,14800 10611,14798 10624,14797 10637,14797 10651,14797 10895,14795 10818,15146 10817,15150 10817,15155 10817,15159 10817,15163 10817,15168 10818,15172 10819,15176 10820,15180 10821,15184 10823,15188 10825,15192 10828,15195 10830,15199 10833,15202 10836,15205 10839,15208 10841,15209 10843,15211 10845,15212 10847,15213 10849,15214 10851,15215 10853,15216 10856,15217 10858,15218 10860,15218 10862,15219 10864,15219 10869,15220 10873,15220 10878,15220 10883,15220 10887,15219 10891,15218 10896,15216 10900,15214 10902,15213 10904,15212 10907,15211 10909,15210 11679,14670 11682,14668 11685,14665 11688,14663 11690,14660 11693,14657 11695,14654 11697,14651 11699,14648 11700,14645 11702,14641 11703,14638 11704,14634 11705,14631 11705,14627 11705,14623 11705,14619 11705,14615 11704,14612 11704,14608 11703,14605 11702,14601 11701,14598 11699,14594 11698,14591 11696,14588 11694,14585 11692,14582 11690,14579 11687,14576 11684,14573 11682,14571 11679,14569 10885,14035 10882,14033 10879,14031 10876,14030 10873,14029 10870,14028 10867,14027 10864,14026 10861,14026 10857,14026 10854,14026 10851,14027 10848,14027 10845,14028 10842,14029 10839,14031 10836,14032 10832,14034 10828,14036 10825,14039 10822,14042 10820,14045 10817,14048 10815,14052 10813,14056 10812,14059 10811,14063 10809,14067 10809,14071 10809,14076 10809,14080 10809,14084 10810,14088 10888,14442 10636,14444 10604,14445 10573,14447 10542,14450 10511,14454 10481,14459 10451,14465 10421,14472 10391,14480 10362,14489 10333,14499 10304,14509 10276,14521 10248,14533 10220,14547 10193,14561 10167,14576 10140,14592 10115,14609 10090,14627 10065,14645 10041,14665 10017,14685 9995,14706 9972,14727 9951,14750 9930,14773 9910,14797 9890,14821 9871,14847 9853,14873 9836,14900 9819,14927 9811,14942 9802,14956 9795,14971 9787,14986 9780,15001 9773,15016 9766,15032 9759,15047 9753,15063 9747,15078 9741,15094 9735,15110 9730,15125 9725,15141 9720,15157 9716,15174 9712,15190 9708,15206 9704,15223 9700,15239 9697,15255 9694,15272 9692,15288 9689,15305 9687,15322 9685,15339 9684,15355 9682,15372 9681,15389 9681,15406 9680,15423 9680,15440 9679,15717 Z"/>
       </g>
      </g>
     </g>
    </g>
   </g>
  </g>
 </g>
</svg>