<?xml version="1.0" encoding="UTF-8"?>
<!DOCTYPE svg PUBLIC "-//W3C//DTD SVG 1.1//EN" "http://www.w3.org/Graphics/SVG/1.1/DTD/svg11.dtd">
<svg version="1.2" width="30.11mm" height="30.11mm" viewBox="2292 1588 3011 3011" preserveAspectRatio="xMidYMid" fill-rule="evenodd" stroke-width="28.222" stroke-linejoin="round" xmlns="http://www.w3.org/2000/svg" xmlns:ooo="http://xml.openoffice.org/svg/export" xmlns:xlink="http://www.w3.org/1999/xlink" xmlns:presentation="http://sun.com/xmlns/staroffice/presentation" xmlns:smil="http://www.w3.org/2001/SMIL20/" xmlns:anim="urn:oasis:names:tc:opendocument:xmlns:animation:1.0" xml:space="preserve">
 <defs class="ClipPathGroup">
  <clipPath id="presentation_clip_path" clipPathUnits="userSpaceOnUse">
   <rect x="2292" y="1588" width="3011" height="3011"/>
  </clipPath>
  <clipPath id="presentation_clip_path_shrink" clipPathUnits="userSpaceOnUse">
   <rect x="2295" y="1591" width="3005" height="3005"/>
  </clipPath>
 </defs>
 <defs class="TextShapeIndex">
  <g ooo:slide="id1" ooo:id-list="id3"/>
 </defs>
 <defs class="EmbeddedBulletChars">
  <g id="bullet-char-template-57356" transform="scale(0.00048828125,-0.00048828125)">
   <path d="M 580,1141 L 1163,571 580,0 -4,571 580,1141 Z"/>
  </g>
  <g id="bullet-char-template-57354" transform="scale(0.00048828125,-0.00048828125)">
   <path d="M 8,1128 L 1137,1128 1137,0 8,0 8,1128 Z"/>
  </g>
  <g id="bullet-char-template-10146" transform="scale(0.00048828125,-0.00048828125)">
   <path d="M 174,0 L 602,739 174,1481 1456,739 174,0 Z M 1358,739 L 309,1346 659,739 1358,739 Z"/>
  </g>
  <g id="bullet-char-template-10132" transform="scale(0.00048828125,-0.00048828125)">
   <path d="M 2015,739 L 1276,0 717,0 1260,543 174,543 174,936 1260,936 717,1481 1274,1481 2015,739 Z"/>
  </g>
  <g id="bullet-char-template-10007" transform="scale(0.00048828125,-0.00048828125)">
   <path d="M 0,-2 C -7,14 -16,27 -25,37 L 356,567 C 262,823 215,952 215,954 215,979 228,992 255,992 264,992 276,990 289,987 310,991 331,999 354,1012 L 381,999 492,748 772,1049 836,1024 860,1049 C 881,1039 901,1025 922,1006 886,937 835,863 770,784 769,783 710,716 594,584 L 774,223 C 774,196 753,168 711,139 L 727,119 C 717,90 699,76 672,76 641,76 570,178 457,381 L 164,-76 C 142,-110 111,-127 72,-127 30,-127 9,-110 8,-76 1,-67 -2,-52 -2,-32 -2,-23 -1,-13 0,-2 Z"/>
  </g>
  <g id="bullet-char-template-10004" transform="scale(0.00048828125,-0.00048828125)">
   <path d="M 285,-33 C 182,-33 111,30 74,156 52,228 41,333 41,471 41,549 55,616 82,672 116,743 169,778 240,778 293,778 328,747 346,684 L 369,508 C 377,444 397,411 428,410 L 1163,1116 C 1174,1127 1196,1133 1229,1133 1271,1133 1292,1118 1292,1087 L 1292,965 C 1292,929 1282,901 1262,881 L 442,47 C 390,-6 338,-33 285,-33 Z"/>
  </g>
  <g id="bullet-char-template-9679" transform="scale(0.00048828125,-0.00048828125)">
   <path d="M 813,0 C 632,0 489,54 383,161 276,268 223,411 223,592 223,773 276,916 383,1023 489,1130 632,1184 813,1184 992,1184 1136,1130 1245,1023 1353,916 1407,772 1407,592 1407,412 1353,268 1245,161 1136,54 992,0 813,0 Z"/>
  </g>
  <g id="bullet-char-template-8226" transform="scale(0.00048828125,-0.00048828125)">
   <path d="M 346,457 C 273,457 209,483 155,535 101,586 74,649 74,723 74,796 101,859 155,911 209,963 273,989 346,989 419,989 480,963 531,910 582,859 608,796 608,723 608,648 583,586 532,535 482,483 420,457 346,457 Z"/>
  </g>
  <g id="bullet-char-template-8211" transform="scale(0.00048828125,-0.00048828125)">
   <path d="M -4,459 L 1135,459 1135,606 -4,606 -4,459 Z"/>
  </g>
  <g id="bullet-char-template-61548" transform="scale(0.00048828125,-0.00048828125)">
   <path d="M 173,740 C 173,903 231,1043 346,1159 462,1274 601,1332 765,1332 928,1332 1067,1274 1183,1159 1299,1043 1357,903 1357,740 1357,577 1299,437 1183,322 1067,206 928,148 765,148 601,148 462,206 346,322 231,437 173,577 173,740 Z"/>
  </g>
 </defs>
 <defs class="TextEmbeddedBitmaps"/>
 <g class="SlideGroup">
  <g>
   <g id="container-id1">
    <g id="id1" class="Slide" clip-path="url(#presentation_clip_path)">
     <g class="Page">
      <g class="Graphic">
       <g id="id3">
        <rect class="BoundingBox" stroke="none" fill="none" x="2292" y="1588" width="3012" height="3012"/>
        <path fill="rgb(255,255,255)" stroke="none" d="M 2297,3094 L 2299,3017 2305,2941 2314,2865 2328,2791 2344,2719 2364,2648 2388,2578 2415,2510 2445,2443 2478,2379 2514,2316 2553,2255 2595,2196 2640,2139 2687,2085 2737,2033 2789,1983 2843,1936 2900,1891 2959,1849 3020,1810 3082,1774 3147,1741 3214,1711 3282,1684 3352,1660 3423,1640 3495,1624 3569,1610 3645,1601 3721,1595 3798,1593 3875,1595 3951,1601 4027,1610 4101,1624 4173,1640 4244,1660 4314,1684 4382,1711 4449,1741 4514,1774 4576,1810 4637,1849 4696,1891 4753,1936 4807,1983 4859,2033 4909,2085 4956,2139 5001,2196 5043,2255 5082,2316 5118,2379 5151,2443 5181,2510 5208,2578 5232,2648 5252,2719 5268,2791 5282,2865 5291,2941 5297,3017 5299,3094 5297,3171 5291,3247 5282,3323 5268,3397 5252,3469 5232,3540 5208,3610 5181,3678 5151,3745 5118,3810 5082,3872 5043,3933 5001,3992 4956,4049 4909,4103 4859,4155 4807,4205 4753,4252 4696,4297 4637,4339 4576,4378 4514,4414 4449,4447 4382,4477 4314,4504 4244,4528 4173,4548 4101,4564 4027,4578 3951,4587 3875,4593 3798,4595 3721,4593 3645,4587 3569,4578 3495,4564 3423,4548 3352,4528 3282,4504 3214,4477 3147,4447 3082,4414 3020,4378 2959,4339 2900,4297 2843,4252 2789,4205 2737,4155 2687,4103 2640,4049 2595,3992 2553,3933 2514,3872 2478,3810 2445,3745 2415,3678 2388,3610 2364,3540 2344,3469 2328,3397 2314,3323 2305,3247 2299,3171 2297,3094 Z"/>
        <path fill="none" stroke="rgb(26,28,26)" stroke-width="10" stroke-linejoin="round" stroke-linecap="round" d="M 2297,3094 L 2299,3017 2305,2941 2314,2865 2328,2791 2344,2719 2364,2648 2388,2578 2415,2510 2445,2443 2478,2379 2514,2316 2553,2255 2595,2196 2640,2139 2687,2085 2737,2033 2789,1983 2843,1936 2900,1891 2959,1849 3020,1810 3082,1774 3147,1741 3214,1711 3282,1684 3352,1660 3423,1640 3495,1624 3569,1610 3645,1601 3721,1595 3798,1593 3875,1595 3951,1601 4027,1610 4101,1624 4173,1640 4244,1660 4314,1684 4382,1711 4449,1741 4514,1774 4576,1810 4637,1849 4696,1891 4753,1936 4807,1983 4859,2033 4909,2085 4956,2139 5001,2196 5043,2255 5082,2316 5118,2379 5151,2443 5181,2510 5208,2578 5232,2648 5252,2719 5268,2791 5282,2865 5291,2941 5297,3017 5299,3094 5297,3171 5291,3247 5282,3323 5268,3397 5252,3469 5232,3540 5208,3610 5181,3678 5151,3745 5118,3810 5082,3872 5043,3933 5001,3992 4956,4049 4909,4103 4859,4155 4807,4205 4753,4252 4696,4297 4637,4339 4576,4378 4514,4414 4449,4447 4382,4477 4314,4504 4244,4528 4173,4548 4101,4564 4027,4578 3951,4587 3875,4593 3798,4595 3721,4593 3645,4587 3569,4578 3495,4564 3423,4548 3352,4528 3282,4504 3214,4477 3147,4447 3082,4414 3020,4378 2959,4339 2900,4297 2843,4252 2789,4205 2737,4155 2687,4103 2640,4049 2595,3992 2553,3933 2514,3872 2478,3810 2445,3745 2415,3678 2388,3610 2364,3540 2344,3469 2328,3397 2314,3323 2305,3247 2299,3171 2297,3094 Z"/>
        <path fill="rgb(4,82,159)" stroke="none" d="M 2347,3094 L 2347,3076 2348,3057 2348,3039 2349,3020 2350,3002 2351,2984 2352,2966 2354,2948 2356,2930 2358,2912 2361,2894 2363,2876 2366,2858 2369,2840 2372,2823 2376,2805 2379,2788 2383,2770 2387,2752 2392,2735 2396,2718 2401,2700 2406,2683 2411,2666 2417,2648 2422,2631 2428,2614 2434,2597 2441,2580 2447,2563 2454,2546 2461,2529 2468,2513 2475,2497 2483,2481 2490,2465 2498,2449 2505,2434 2514,2418 2522,2403 2530,2387 2539,2372 2547,2357 2556,2342 2566,2327 2575,2313 2584,2298 2594,2284 2604,2269 2614,2255 2624,2241 2634,2227 2645,2213 2655,2199 2666,2186 2677,2172 2688,2159 2700,2145 2711,2132 2723,2119 2735,2106 2747,2093 2760,2080 2772,2068 2785,2055 2797,2043 2810,2031 2823,2019 2836,2007 2849,1996 2863,1984 2876,1973 2890,1962 2903,1951 2917,1941 2931,1930 2945,1920 2959,1910 2973,1900 2988,1890 3002,1880 3017,1871 3031,1861 3046,1852 3061,1843 3076,1835 3091,1826 3107,1818 3122,1809 3138,1801 3153,1794 3169,1786 3185,1778 3201,1771 3217,1764 3233,1757 3250,1750 3267,1743 3284,1737 3301,1730 3318,1724 3335,1718 3352,1712 3370,1707 3387,1702 3404,1697 3422,1692 3439,1687 3457,1683 3474,1679 3492,1675 3509,1671 3527,1668 3545,1665 3562,1662 3580,1659 3598,1656 3616,1654 3634,1652 3652,1650 3670,1648 3688,1647 3706,1646 3725,1645 3743,1644 3761,1643 3780,1643 3798,1643 3816,1643 3835,1643 3853,1644 3871,1645 3890,1646 3908,1647 3926,1648 3944,1650 3962,1652 3980,1654 3998,1656 4016,1659 4034,1662 4051,1665 4069,1668 4087,1671 4104,1675 4122,1679 4139,1683 4157,1687 4175,1692 4192,1697 4209,1702 4226,1707 4244,1712 4261,1718 4278,1724 4295,1730 4312,1737 4329,1743 4346,1750 4363,1757 4379,1764 4395,1771 4411,1778 4427,1786 4443,1794 4458,1801 4474,1809 4489,1818 4505,1826 4520,1835 4535,1843 4550,1852 4565,1861 4579,1871 4594,1880 4608,1890 4623,1900 4637,1910 4651,1920 4665,1930 4679,1941 4693,1951 4706,1962 4720,1973 4733,1984 4747,1996 4760,2007 4773,2019 4786,2031 4799,2043 4811,2055 4824,2068 4836,2080 4849,2093 4861,2106 4873,2119 4885,2132 4896,2145 4908,2159 4919,2172 4930,2186 4941,2199 4951,2213 4962,2227 4972,2241 4982,2255 4992,2269 5002,2284 5012,2298 5021,2313 5030,2327 5040,2342 5049,2357 5057,2372 5066,2387 5074,2403 5082,2418 5091,2434 5098,2449 5106,2465 5113,2481 5121,2497 5128,2513 5135,2529 5142,2546 5149,2563 5155,2580 5162,2597 5168,2614 5174,2631 5179,2648 5185,2666 5190,2683 5195,2700 5200,2718 5204,2735 5209,2752 5213,2770 5217,2788 5220,2805 5224,2823 5227,2840 5230,2858 5233,2876 5235,2894 5238,2912 5240,2930 5242,2948 5244,2966 5245,2984 5246,3002 5247,3020 5248,3039 5248,3057 5249,3076 5249,3094 5249,3112 5248,3131 5248,3149 5247,3167 5246,3185 5245,3204 5244,3222 5242,3240 5240,3258 5238,3276 5235,3294 5233,3312 5230,3330 5227,3347 5224,3365 5220,3383 5217,3400 5213,3418 5209,3435 5204,3453 5200,3470 5195,3488 5190,3505 5185,3522 5179,3540 5174,3557 5168,3574 5162,3591 5155,3608 5149,3625 5142,3642 5135,3659 5128,3675 5121,3691 5113,3707 5106,3723 5098,3739 5091,3754 5082,3770 5074,3785 5066,3801 5057,3816 5049,3831 5040,3845 5030,3860 5021,3875 5012,3890 5002,3904 4992,3919 4982,3933 4972,3947 4962,3961 4951,3975 4941,3989 4930,4002 4919,4016 4908,4029 4896,4042 4885,4056 4873,4069 4861,4082 4849,4095 4836,4107 4824,4120 4811,4132 4799,4145 4786,4157 4773,4169 4760,4180 4747,4192 4733,4203 4720,4215 4706,4226 4693,4236 4679,4247 4665,4258 4651,4268 4637,4278 4623,4288 4608,4298 4594,4308 4579,4317 4565,4326 4550,4336 4535,4344 4520,4353 4505,4362 4489,4370 4474,4378 4458,4386 4443,4394 4427,4402 4411,4409 4395,4417 4379,4424 4363,4431 4346,4438 4329,4445 4312,4451 4295,4457 4278,4464 4261,4470 4244,4475 4226,4481 4209,4486 4192,4491 4175,4496 4157,4500 4139,4505 4122,4509 4104,4513 4087,4516 4069,4520 4051,4523 4034,4526 4016,4529 3998,4531 3980,4534 3962,4536 3944,4538 3926,4539 3908,4541 3890,4542 3871,4543 3853,4544 3835,4544 3816,4545 3798,4545 3780,4545 3761,4544 3743,4544 3725,4543 3706,4542 3688,4541 3670,4539 3652,4538 3634,4536 3616,4534 3598,4531 3580,4529 3562,4526 3545,4523 3527,4520 3509,4516 3492,4513 3474,4509 3457,4505 3439,4500 3422,4496 3404,4491 3387,4486 3370,4481 3352,4475 3335,4470 3318,4464 3301,4457 3284,4451 3267,4445 3250,4438 3233,4431 3217,4424 3201,4417 3185,4409 3169,4402 3153,4394 3138,4386 3122,4378 3107,4370 3091,4362 3076,4353 3061,4344 3046,4336 3031,4326 3017,4317 3002,4308 2988,4298 2973,4288 2959,4278 2945,4268 2931,4258 2917,4247 2903,4236 2890,4226 2876,4215 2863,4203 2849,4192 2836,4180 2823,4169 2810,4157 2797,4145 2785,4132 2772,4120 2760,4107 2747,4095 2735,4082 2723,4069 2711,4056 2700,4042 2688,4029 2677,4016 2666,4002 2655,3989 2645,3975 2634,3961 2624,3947 2614,3933 2604,3919 2594,3904 2584,3890 2575,3875 2566,3860 2556,3845 2547,3831 2539,3816 2530,3801 2522,3785 2514,3770 2505,3754 2498,3739 2490,3723 2483,3707 2475,3691 2468,3675 2461,3659 2454,3642 2447,3625 2441,3608 2434,3591 2428,3574 2422,3557 2417,3540 2411,3522 2406,3505 2401,3488 2396,3470 2392,3453 2387,3435 2383,3418 2379,3400 2376,3383 2372,3365 2369,3347 2366,3330 2363,3312 2361,3294 2358,3276 2356,3258 2354,3240 2352,3222 2351,3204 2350,3185 2349,3167 2348,3149 2348,3131 2347,3112 2347,3094 Z"/>
        <path fill="rgb(255,255,255)" stroke="none" d="M 3623,3394 L 3321,3394 3370,3671 3370,3673 3370,3676 3371,3678 3371,3681 3371,3682 3370,3685 3370,3686 3370,3688 3370,3690 3369,3692 3368,3694 3368,3696 3367,3697 3366,3699 3365,3701 3364,3702 3363,3704 3362,3705 3361,3707 3359,3708 3358,3709 3357,3711 3355,3712 3354,3713 3352,3714 3350,3715 3349,3716 3347,3716 3345,3717 3343,3718 3341,3718 3340,3719 3338,3719 3336,3719 3334,3719 3332,3719 3329,3719 3326,3719 3323,3718 3320,3718 3318,3717 3315,3716 3313,3714 3310,3713 2664,3276 2662,3275 2661,3274 2659,3272 2657,3270 2656,3269 2654,3267 2653,3265 2652,3263 2651,3261 2650,3259 2649,3256 2649,3254 2648,3252 2648,3249 2647,3247 2647,3244 2647,3242 2648,3239 2648,3237 2649,3235 2649,3232 2650,3230 2651,3228 2652,3226 2653,3224 2655,3222 2656,3220 2657,3218 2659,3216 2661,3214 2663,3213 2665,3212 3310,2775 3313,2774 3315,2773 3318,2772 3321,2771 3323,2770 3326,2769 3329,2769 3332,2769 3334,2769 3336,2769 3338,2769 3340,2770 3344,2771 3347,2772 3351,2773 3354,2775 3357,2778 3360,2780 3362,2783 3364,2786 3366,2789 3368,2792 3369,2794 3369,2796 3370,2798 3370,2800 3370,2802 3371,2804 3371,2806 3371,2807 3371,2810 3371,2812 3370,2815 3370,2817 3320,3094 3628,3094 3645,3094 3662,3095 3680,3096 3697,3097 3714,3099 3731,3101 3748,3104 3765,3107 3782,3110 3798,3113 3815,3117 3831,3121 3847,3126 3863,3131 3879,3136 3895,3141 3910,3147 3926,3153 3941,3160 3956,3166 3971,3174 3986,3181 4000,3189 4015,3196 4029,3205 4043,3213 4057,3222 4071,3231 4084,3240 4097,3250 4110,3259 4123,3270 4123,2616 3846,2666 3844,2666 3842,2667 3839,2667 3837,2667 3835,2667 3833,2667 3831,2666 3829,2666 3827,2666 3825,2665 3823,2665 3822,2664 3818,2662 3815,2660 3812,2658 3809,2656 3807,2653 3805,2650 3803,2647 3801,2643 3800,2640 3799,2636 3798,2634 3798,2632 3798,2630 3798,2628 3798,2625 3798,2622 3799,2619 3800,2617 3801,2614 3802,2611 3803,2609 3805,2606 4241,1961 4242,1959 4244,1957 4245,1955 4247,1954 4249,1952 4251,1951 4253,1949 4255,1948 4257,1947 4259,1946 4261,1945 4264,1945 4266,1944 4269,1944 4271,1943 4274,1943 4276,1943 4279,1944 4281,1944 4283,1945 4286,1945 4288,1946 4290,1947 4292,1948 4294,1949 4296,1950 4298,1952 4300,1953 4301,1955 4303,1957 4304,1958 4306,1960 4742,2606 4743,2609 4745,2611 4746,2614 4747,2616 4748,2619 4748,2622 4748,2625 4749,2628 4748,2630 4748,2632 4748,2634 4748,2636 4747,2638 4747,2639 4746,2641 4745,2643 4745,2645 4744,2646 4743,2648 4742,2650 4741,2651 4740,2653 4738,2654 4737,2655 4736,2657 4734,2658 4733,2659 4732,2660 4730,2661 4728,2662 4727,2663 4725,2664 4723,2664 4721,2665 4719,2666 4718,2666 4716,2666 4714,2666 4712,2667 4710,2667 4707,2667 4705,2666 4703,2666 4700,2666 4423,2616 4423,4170 4123,4170 4123,3894 4123,3882 4123,3869 4122,3856 4121,3844 4120,3831 4118,3819 4116,3807 4114,3795 4112,3783 4109,3771 4106,3759 4103,3748 4099,3736 4095,3725 4091,3714 4087,3702 4082,3692 4077,3681 4072,3670 4066,3659 4060,3649 4054,3638 4047,3628 4041,3618 4034,3608 4027,3598 4019,3588 4011,3578 4003,3569 3994,3559 3986,3550 3977,3541 3967,3532 3958,3523 3949,3515 3939,3506 3929,3499 3920,3491 3910,3484 3900,3477 3889,3470 3879,3464 3869,3457 3858,3451 3848,3446 3837,3441 3826,3436 3815,3431 3804,3426 3793,3422 3781,3418 3770,3415 3758,3412 3746,3409 3735,3406 3723,3403 3711,3401 3698,3399 3686,3398 3674,3397 3661,3395 3649,3395 3636,3394 3623,3394 Z"/>
       </g>
      </g>
     </g>
    </g>
   </g>
  </g>
 </g>
</svg>