<?xml version="1.0" encoding="UTF-8"?>
<!DOCTYPE svg PUBLIC "-//W3C//DTD SVG 1.1//EN" "http://www.w3.org/Graphics/SVG/1.1/DTD/svg11.dtd">
<svg version="1.2" width="30.09mm" height="30.09mm" viewBox="9090 13403 3009 3009" preserveAspectRatio="xMidYMid" fill-rule="evenodd" stroke-width="28.222" stroke-linejoin="round" xmlns="http://www.w3.org/2000/svg" xmlns:ooo="http://xml.openoffice.org/svg/export" xmlns:xlink="http://www.w3.org/1999/xlink" xmlns:presentation="http://sun.com/xmlns/staroffice/presentation" xmlns:smil="http://www.w3.org/2001/SMIL20/" xmlns:anim="urn:oasis:names:tc:opendocument:xmlns:animation:1.0" xml:space="preserve">
 <defs class="ClipPathGroup">
  <clipPath id="presentation_clip_path" clipPathUnits="userSpaceOnUse">
   <rect x="9090" y="13403" width="3009" height="3009"/>
  </clipPath>
  <clipPath id="presentation_clip_path_shrink" clipPathUnits="userSpaceOnUse">
   <rect x="9093" y="13406" width="3003" height="3003"/>
  </clipPath>
 </defs>
 <defs class="TextShapeIndex">
  <g ooo:slide="id1" ooo:id-list="id3"/>
 </defs>
 <defs class="EmbeddedBulletChars">
  <g id="bullet-char-template-57356" transform="scale(0.00048828125,-0.00048828125)">
   <path d="M 580,1141 L 1163,571 580,0 -4,571 580,1141 Z"/>
  </g>
  <g id="bullet-char-template-57354" transform="scale(0.00048828125,-0.00048828125)">
   <path d="M 8,1128 L 1137,1128 1137,0 8,0 8,1128 Z"/>
  </g>
  <g id="bullet-char-template-10146" transform="scale(0.00048828125,-0.00048828125)">
   <path d="M 174,0 L 602,739 174,1481 1456,739 174,0 Z M 1358,739 L 309,1346 659,739 1358,739 Z"/>
  </g>
  <g id="bullet-char-template-10132" transform="scale(0.00048828125,-0.00048828125)">
   <path d="M 2015,739 L 1276,0 717,0 1260,543 174,543 174,936 1260,936 717,1481 1274,1481 2015,739 Z"/>
  </g>
  <g id="bullet-char-template-10007" transform="scale(0.00048828125,-0.00048828125)">
   <path d="M 0,-2 C -7,14 -16,27 -25,37 L 356,567 C 262,823 215,952 215,954 215,979 228,992 255,992 264,992 276,990 289,987 310,991 331,999 354,1012 L 381,999 492,748 772,1049 836,1024 860,1049 C 881,1039 901,1025 922,1006 886,937 835,863 770,784 769,783 710,716 594,584 L 774,223 C 774,196 753,168 711,139 L 727,119 C 717,90 699,76 672,76 641,76 570,178 457,381 L 164,-76 C 142,-110 111,-127 72,-127 30,-127 9,-110 8,-76 1,-67 -2,-52 -2,-32 -2,-23 -1,-13 0,-2 Z"/>
  </g>
  <g id="bullet-char-template-10004" transform="scale(0.00048828125,-0.00048828125)">
   <path d="M 285,-33 C 182,-33 111,30 74,156 52,228 41,333 41,471 41,549 55,616 82,672 116,743 169,778 240,778 293,778 328,747 346,684 L 369,508 C 377,444 397,411 428,410 L 1163,1116 C 1174,1127 1196,1133 1229,1133 1271,1133 1292,1118 1292,1087 L 1292,965 C 1292,929 1282,901 1262,881 L 442,47 C 390,-6 338,-33 285,-33 Z"/>
  </g>
  <g id="bullet-char-template-9679" transform="scale(0.00048828125,-0.00048828125)">
   <path d="M 813,0 C 632,0 489,54 383,161 276,268 223,411 223,592 223,773 276,916 383,1023 489,1130 632,1184 813,1184 992,1184 1136,1130 1245,1023 1353,916 1407,772 1407,592 1407,412 1353,268 1245,161 1136,54 992,0 813,0 Z"/>
  </g>
  <g id="bullet-char-template-8226" transform="scale(0.00048828125,-0.00048828125)">
   <path d="M 346,457 C 273,457 209,483 155,535 101,586 74,649 74,723 74,796 101,859 155,911 209,963 273,989 346,989 419,989 480,963 531,910 582,859 608,796 608,723 608,648 583,586 532,535 482,483 420,457 346,457 Z"/>
  </g>
  <g id="bullet-char-template-8211" transform="scale(0.00048828125,-0.00048828125)">
   <path d="M -4,459 L 1135,459 1135,606 -4,606 -4,459 Z"/>
  </g>
  <g id="bullet-char-template-61548" transform="scale(0.00048828125,-0.00048828125)">
   <path d="M 173,740 C 173,903 231,1043 346,1159 462,1274 601,1332 765,1332 928,1332 1067,1274 1183,1159 1299,1043 1357,903 1357,740 1357,577 1299,437 1183,322 1067,206 928,148 765,148 601,148 462,206 346,322 231,437 173,577 173,740 Z"/>
  </g>
 </defs>
 <defs class="TextEmbeddedBitmaps"/>
 <g class="SlideGroup">
  <g>
   <g id="container-id1">
    <g id="id1" class="Slide" clip-path="url(#presentation_clip_path)">
     <g class="Page">
      <g class="Graphic">
       <g id="id3">
        <rect class="BoundingBox" stroke="none" fill="none" x="9090" y="13403" width="3010" height="3010"/>
        <path fill="rgb(255,255,255)" stroke="none" d="M 12095,14908 L 12093,14831 12087,14755 12078,14680 12065,14606 12048,14533 12028,14462 12004,14392 11977,14324 11947,14258 11914,14193 11878,14130 11839,14069 11797,14011 11753,13954 11705,13899 11656,13847 11604,13798 11549,13750 11493,13706 11434,13664 11373,13625 11310,13589 11245,13556 11179,13526 11111,13499 11041,13475 10970,13455 10897,13438 10823,13425 10748,13416 10672,13410 10595,13408 10518,13410 10442,13416 10367,13425 10293,13438 10220,13455 10149,13475 10079,13499 10011,13526 9945,13556 9880,13589 9817,13625 9756,13664 9697,13706 9641,13750 9586,13798 9534,13847 9485,13899 9437,13954 9393,14011 9351,14069 9312,14130 9276,14193 9243,14258 9213,14324 9186,14392 9162,14462 9142,14533 9125,14606 9112,14680 9103,14755 9097,14831 9095,14908 9097,14985 9103,15061 9112,15136 9125,15210 9142,15283 9162,15354 9186,15424 9213,15492 9243,15558 9276,15623 9312,15686 9351,15747 9393,15806 9437,15862 9485,15917 9534,15969 9586,16018 9641,16066 9697,16110 9756,16152 9817,16191 9880,16227 9945,16260 10011,16290 10079,16317 10149,16341 10220,16361 10293,16378 10367,16391 10442,16400 10518,16406 10595,16408 10672,16406 10748,16400 10823,16391 10897,16378 10970,16361 11041,16341 11111,16317 11179,16290 11245,16260 11310,16227 11373,16191 11434,16152 11493,16110 11549,16066 11604,16018 11656,15969 11705,15917 11753,15862 11797,15806 11839,15747 11878,15686 11914,15623 11947,15558 11977,15492 12004,15424 12028,15354 12048,15283 12065,15210 12078,15136 12087,15061 12093,14985 12095,14908 Z"/>
        <path fill="none" stroke="rgb(26,28,26)" stroke-width="10" stroke-linejoin="round" stroke-linecap="round" d="M 12095,14908 L 12093,14831 12087,14755 12078,14680 12065,14606 12048,14533 12028,14462 12004,14392 11977,14324 11947,14258 11914,14193 11878,14130 11839,14069 11797,14011 11753,13954 11705,13899 11656,13847 11604,13798 11549,13750 11493,13706 11434,13664 11373,13625 11310,13589 11245,13556 11179,13526 11111,13499 11041,13475 10970,13455 10897,13438 10823,13425 10748,13416 10672,13410 10595,13408 10518,13410 10442,13416 10367,13425 10293,13438 10220,13455 10149,13475 10079,13499 10011,13526 9945,13556 9880,13589 9817,13625 9756,13664 9697,13706 9641,13750 9586,13798 9534,13847 9485,13899 9437,13954 9393,14011 9351,14069 9312,14130 9276,14193 9243,14258 9213,14324 9186,14392 9162,14462 9142,14533 9125,14606 9112,14680 9103,14755 9097,14831 9095,14908 9097,14985 9103,15061 9112,15136 9125,15210 9142,15283 9162,15354 9186,15424 9213,15492 9243,15558 9276,15623 9312,15686 9351,15747 9393,15806 9437,15862 9485,15917 9534,15969 9586,16018 9641,16066 9697,16110 9756,16152 9817,16191 9880,16227 9945,16260 10011,16290 10079,16317 10149,16341 10220,16361 10293,16378 10367,16391 10442,16400 10518,16406 10595,16408 10672,16406 10748,16400 10823,16391 10897,16378 10970,16361 11041,16341 11111,16317 11179,16290 11245,16260 11310,16227 11373,16191 11434,16152 11493,16110 11549,16066 11604,16018 11656,15969 11705,15917 11753,15862 11797,15806 11839,15747 11878,15686 11914,15623 11947,15558 11977,15492 12004,15424 12028,15354 12048,15283 12065,15210 12078,15136 12087,15061 12093,14985 12095,14908 Z"/>
        <path fill="rgb(4,82,159)" stroke="none" d="M 12045,14908 L 12045,14890 12045,14871 12044,14853 12043,14834 12042,14816 12041,14798 12040,14780 12038,14762 12036,14744 12034,14726 12032,14708 12029,14690 12026,14672 12023,14655 12020,14637 12017,14619 12013,14602 12009,14584 12005,14567 12001,14549 11996,14532 11991,14514 11986,14497 11981,14480 11976,14463 11970,14445 11964,14428 11958,14411 11952,14394 11945,14377 11938,14360 11931,14343 11924,14327 11917,14311 11910,14295 11902,14279 11894,14264 11887,14248 11879,14232 11870,14217 11862,14202 11853,14187 11845,14172 11836,14157 11827,14142 11818,14127 11808,14113 11798,14098 11789,14084 11778,14070 11768,14055 11758,14041 11748,14028 11737,14014 11726,14000 11715,13987 11704,13973 11692,13960 11681,13947 11669,13934 11657,13921 11645,13908 11633,13895 11620,13883 11608,13870 11595,13858 11582,13846 11569,13834 11556,13822 11543,13810 11530,13799 11516,13788 11503,13777 11489,13766 11475,13755 11461,13745 11447,13734 11433,13724 11419,13714 11405,13705 11390,13695 11376,13685 11361,13676 11346,13667 11331,13658 11316,13649 11301,13641 11286,13632 11270,13624 11255,13616 11239,13608 11224,13601 11208,13593 11192,13586 11176,13579 11159,13572 11143,13565 11126,13558 11109,13551 11092,13545 11075,13539 11057,13533 11040,13527 11023,13522 11006,13517 10989,13512 10971,13507 10954,13502 10936,13498 10919,13494 10901,13490 10884,13486 10866,13483 10848,13480 10831,13477 10813,13474 10795,13471 10777,13469 10759,13467 10741,13465 10723,13463 10705,13462 10687,13461 10668,13459 10650,13459 10632,13458 10613,13458 10595,13458 10577,13458 10558,13458 10540,13459 10522,13459 10503,13461 10485,13462 10467,13463 10449,13465 10431,13467 10413,13469 10395,13471 10377,13474 10359,13477 10342,13480 10324,13483 10306,13486 10289,13490 10271,13494 10254,13498 10236,13502 10219,13507 10201,13512 10184,13517 10167,13522 10150,13527 10133,13533 10115,13539 10098,13545 10081,13551 10064,13558 10048,13565 10031,13572 10014,13579 9998,13586 9982,13593 9966,13601 9951,13608 9935,13616 9920,13624 9904,13632 9889,13641 9874,13649 9859,13658 9844,13667 9829,13676 9814,13685 9800,13695 9785,13705 9771,13714 9757,13724 9743,13734 9728,13745 9715,13755 9701,13766 9687,13777 9674,13788 9660,13799 9647,13810 9634,13822 9621,13834 9608,13846 9595,13858 9582,13870 9570,13883 9557,13895 9545,13908 9533,13921 9521,13934 9509,13947 9498,13960 9486,13973 9475,13987 9464,14000 9453,14014 9442,14028 9432,14041 9421,14055 9412,14070 9401,14084 9392,14098 9382,14113 9373,14127 9363,14142 9354,14157 9345,14172 9337,14187 9328,14202 9320,14217 9311,14232 9303,14248 9295,14264 9288,14279 9280,14295 9273,14311 9266,14327 9259,14343 9252,14360 9245,14377 9238,14394 9232,14411 9226,14428 9220,14445 9214,14463 9209,14480 9204,14497 9199,14514 9194,14532 9189,14549 9185,14567 9181,14584 9177,14602 9173,14619 9170,14637 9167,14655 9164,14672 9161,14690 9158,14708 9156,14726 9154,14744 9152,14762 9150,14780 9149,14798 9148,14816 9147,14834 9146,14853 9145,14871 9145,14890 9145,14908 9145,14926 9145,14945 9146,14963 9147,14981 9148,14999 9149,15018 9150,15036 9152,15054 9154,15072 9156,15090 9158,15108 9161,15125 9164,15143 9167,15161 9170,15179 9173,15196 9177,15214 9181,15232 9185,15249 9189,15267 9194,15284 9199,15301 9204,15319 9209,15336 9214,15353 9220,15370 9226,15388 9232,15404 9238,15422 9245,15439 9252,15455 9259,15472 9266,15489 9273,15505 9280,15521 9288,15536 9295,15552 9303,15568 9311,15583 9320,15599 9328,15614 9337,15629 9345,15644 9354,15659 9363,15674 9373,15689 9382,15703 9392,15718 9401,15732 9412,15746 9421,15760 9432,15774 9442,15788 9453,15802 9464,15816 9475,15829 9486,15843 9498,15856 9509,15869 9521,15882 9533,15895 9545,15908 9557,15921 9570,15933 9582,15946 9595,15958 9608,15970 9621,15982 9634,15994 9647,16005 9660,16017 9674,16028 9687,16039 9701,16050 9715,16060 9728,16071 9743,16081 9757,16091 9771,16102 9785,16111 9800,16121 9814,16130 9829,16140 9844,16149 9859,16158 9874,16166 9889,16175 9904,16183 9920,16192 9935,16200 9951,16207 9966,16215 9982,16222 9998,16230 10014,16237 10031,16244 10048,16251 10064,16258 10081,16265 10098,16271 10115,16277 10133,16283 10150,16288 10167,16294 10184,16299 10201,16304 10219,16309 10236,16314 10254,16318 10271,16322 10289,16326 10306,16330 10324,16333 10342,16336 10359,16339 10377,16342 10395,16345 10413,16347 10431,16349 10449,16351 10467,16353 10485,16354 10503,16355 10522,16356 10540,16357 10558,16358 10577,16358 10595,16358 10613,16358 10632,16358 10650,16357 10668,16356 10687,16355 10705,16354 10723,16353 10741,16351 10759,16349 10777,16347 10795,16345 10813,16342 10831,16339 10848,16336 10866,16333 10884,16330 10901,16326 10919,16322 10936,16318 10954,16314 10971,16309 10989,16304 11006,16299 11023,16294 11040,16288 11057,16283 11075,16277 11092,16271 11109,16265 11126,16258 11143,16251 11159,16244 11176,16237 11192,16230 11208,16222 11224,16215 11239,16207 11255,16200 11270,16192 11286,16183 11301,16175 11316,16166 11331,16158 11346,16149 11361,16140 11376,16130 11390,16121 11405,16111 11419,16102 11433,16091 11447,16081 11461,16071 11475,16060 11489,16050 11503,16039 11516,16028 11530,16017 11543,16005 11556,15994 11569,15982 11582,15970 11595,15958 11608,15946 11620,15933 11633,15921 11645,15908 11657,15895 11669,15882 11681,15869 11692,15856 11704,15843 11715,15829 11726,15816 11737,15802 11748,15788 11758,15774 11768,15760 11778,15746 11789,15732 11798,15718 11808,15703 11818,15689 11827,15674 11836,15659 11845,15644 11853,15629 11862,15614 11870,15599 11879,15583 11887,15568 11894,15552 11902,15536 11910,15521 11917,15505 11924,15489 11931,15472 11938,15455 11945,15439 11952,15422 11958,15404 11964,15388 11970,15370 11976,15353 11981,15336 11986,15319 11991,15301 11996,15284 12001,15267 12005,15249 12009,15232 12013,15214 12017,15196 12020,15179 12023,15161 12026,15143 12029,15125 12032,15108 12034,15090 12036,15072 12038,15054 12040,15036 12041,15018 12042,14999 12043,14981 12044,14963 12045,14945 12045,14926 12045,14908 Z"/>
        <path fill="rgb(255,255,255)" stroke="none" d="M 10870,14410 L 10864,14405 10857,14400 10851,14395 10844,14390 10838,14386 10831,14382 10824,14377 10817,14373 10810,14370 10803,14366 10795,14362 10788,14359 10780,14355 10773,14352 10765,14349 10757,14346 10750,14343 10742,14341 10734,14339 10726,14336 10718,14334 10710,14332 10702,14331 10693,14329 10685,14328 10677,14327 10668,14325 10660,14324 10651,14324 10643,14323 10634,14323 10625,14323 10605,14323 10585,14325 10566,14327 10546,14331 10527,14335 10509,14340 10491,14346 10473,14353 10455,14361 10438,14369 10422,14379 10406,14389 10391,14399 10376,14411 10362,14423 10348,14436 10335,14450 10323,14464 10311,14478 10300,14494 10290,14509 10280,14526 10272,14542 10264,14560 10257,14577 10251,14595 10245,14614 10241,14633 10237,14652 10235,14671 10233,14691 10232,14711 10232,15047 9836,15444 9836,14702 9837,14663 9841,14624 9846,14585 9854,14547 9863,14510 9874,14473 9886,14437 9900,14402 9916,14368 9933,14335 9952,14302 9973,14271 9995,14241 10018,14212 10042,14184 10068,14157 10095,14131 10123,14107 10153,14084 10183,14062 10215,14042 10247,14024 10281,14007 10315,13991 10351,13977 10387,13965 10424,13954 10461,13945 10499,13938 10538,13933 10577,13929 10617,13928 10636,13928 10656,13929 10675,13930 10693,13931 10712,13933 10731,13935 10749,13938 10767,13941 10786,13945 10804,13948 10822,13953 10839,13958 10857,13963 10874,13968 10891,13974 10908,13980 10925,13987 10942,13994 10958,14001 10974,14009 10990,14017 11006,14026 11022,14035 11037,14044 11052,14053 11067,14063 11082,14073 11096,14084 11110,14094 11124,14105 11138,14117 11151,14129 10870,14410 Z"/>
        <path fill="rgb(255,255,255)" stroke="none" d="M 11015,14692 L 11335,14372 11340,14381 11345,14391 11349,14401 11353,14411 11357,14421 11361,14431 11365,14442 11369,14452 11373,14462 11376,14472 11379,14483 11382,14494 11385,14504 11388,14515 11391,14525 11394,14536 11396,14547 11398,14558 11400,14569 11402,14580 11404,14591 11406,14602 11407,14613 11409,14624 11410,14636 11411,14647 11412,14658 11412,14669 11413,14681 11413,14693 11414,14704 11414,14716 11413,15316 11588,15275 11591,15274 11594,15274 11598,15274 11601,15275 11602,15275 11604,15276 11605,15276 11607,15277 11608,15278 11609,15279 11610,15280 11612,15281 11613,15282 11614,15283 11615,15285 11615,15287 11616,15288 11617,15290 11617,15291 11617,15293 11617,15294 11617,15296 11617,15298 11617,15299 11617,15301 11616,15302 11616,15304 11615,15305 11232,15864 11230,15866 11229,15868 11227,15869 11224,15870 11222,15872 11220,15872 11217,15873 11215,15873 11212,15873 11210,15873 11207,15872 11205,15871 11203,15870 11201,15868 11199,15866 11197,15864 10816,15307 10815,15306 10814,15304 10813,15303 10813,15302 10812,15300 10812,15298 10812,15297 10812,15295 10812,15294 10812,15292 10812,15290 10812,15289 10813,15287 10813,15286 10814,15284 10815,15283 10817,15280 10819,15278 10822,15277 10825,15275 10828,15274 10831,15274 10834,15274 10837,15274 11017,15314 11015,14715 11015,14709 11015,14704 11015,14698 11015,14692 Z"/>
        <path fill="rgb(255,255,255)" stroke="none" d="M 10379,14410 L 10385,14405 10392,14400 10398,14395 10405,14390 10411,14386 10418,14382 10425,14377 10432,14373 10439,14370 10447,14366 10454,14362 10461,14359 10469,14355 10476,14352 10484,14349 10492,14346 10499,14343 10507,14341 10515,14339 10523,14336 10531,14334 10539,14332 10547,14331 10556,14329 10564,14328 10572,14327 10581,14325 10589,14324 10598,14324 10606,14323 10615,14323 10624,14323 10644,14323 10664,14325 10683,14327 10703,14331 10722,14335 10740,14340 10758,14346 10776,14353 10794,14361 10811,14369 10827,14379 10843,14389 10858,14399 10873,14411 10887,14423 10901,14436 10914,14450 10926,14464 10938,14478 10949,14494 10959,14509 10969,14526 10977,14542 10985,14560 10992,14577 10999,14595 11004,14614 11008,14633 11012,14652 11015,14671 11016,14691 11016,14711 11017,15047 11413,15444 11413,14702 11411,14663 11408,14624 11403,14585 11395,14547 11386,14510 11376,14473 11363,14437 11349,14402 11333,14368 11316,14335 11297,14302 11276,14271 11255,14241 11231,14212 11207,14184 11181,14157 11154,14131 11126,14107 11096,14084 11066,14062 11034,14042 11002,14024 10968,14007 10934,13991 10898,13977 10863,13965 10825,13954 10788,13945 10750,13938 10711,13933 10672,13929 10632,13928 10612,13928 10593,13929 10574,13930 10556,13931 10537,13933 10518,13935 10500,13938 10482,13941 10464,13945 10445,13948 10428,13953 10410,13958 10392,13963 10375,13968 10358,13974 10341,13980 10324,13987 10307,13994 10291,14001 10275,14009 10259,14017 10243,14026 10227,14035 10212,14044 10197,14053 10182,14063 10167,14073 10153,14084 10139,14094 10125,14105 10111,14117 10098,14129 10379,14410 Z"/>
        <path fill="rgb(255,255,255)" stroke="none" d="M 10232,14959 L 9836,14959 9836,15873 10232,15873 10232,14959 Z"/>
       </g>
      </g>
     </g>
    </g>
   </g>
  </g>
 </g>
</svg>