<?xml version="1.0" encoding="UTF-8"?>
<!DOCTYPE svg PUBLIC "-//W3C//DTD SVG 1.1//EN" "http://www.w3.org/Graphics/SVG/1.1/DTD/svg11.dtd">
<svg version="1.2" width="30.09mm" height="30.09mm" viewBox="9090 13403 3009 3009" preserveAspectRatio="xMidYMid" fill-rule="evenodd" stroke-width="28.222" stroke-linejoin="round" xmlns="http://www.w3.org/2000/svg" xmlns:ooo="http://xml.openoffice.org/svg/export" xmlns:xlink="http://www.w3.org/1999/xlink" xmlns:presentation="http://sun.com/xmlns/staroffice/presentation" xmlns:smil="http://www.w3.org/2001/SMIL20/" xmlns:anim="urn:oasis:names:tc:opendocument:xmlns:animation:1.0" xml:space="preserve">
 <defs class="ClipPathGroup">
  <clipPath id="presentation_clip_path" clipPathUnits="userSpaceOnUse">
   <rect x="9090" y="13403" width="3009" height="3009"/>
  </clipPath>
  <clipPath id="presentation_clip_path_shrink" clipPathUnits="userSpaceOnUse">
   <rect x="9093" y="13406" width="3003" height="3003"/>
  </clipPath>
 </defs>
 <defs class="TextShapeIndex">
  <g ooo:slide="id1" ooo:id-list="id3"/>
 </defs>
 <defs class="EmbeddedBulletChars">
  <g id="bullet-char-template-57356" transform="scale(0.00048828125,-0.00048828125)">
   <path d="M 580,1141 L 1163,571 580,0 -4,571 580,1141 Z"/>
  </g>
  <g id="bullet-char-template-57354" transform="scale(0.00048828125,-0.00048828125)">
   <path d="M 8,1128 L 1137,1128 1137,0 8,0 8,1128 Z"/>
  </g>
  <g id="bullet-char-template-10146" transform="scale(0.00048828125,-0.00048828125)">
   <path d="M 174,0 L 602,739 174,1481 1456,739 174,0 Z M 1358,739 L 309,1346 659,739 1358,739 Z"/>
  </g>
  <g id="bullet-char-template-10132" transform="scale(0.00048828125,-0.00048828125)">
   <path d="M 2015,739 L 1276,0 717,0 1260,543 174,543 174,936 1260,936 717,1481 1274,1481 2015,739 Z"/>
  </g>
  <g id="bullet-char-template-10007" transform="scale(0.00048828125,-0.00048828125)">
   <path d="M 0,-2 C -7,14 -16,27 -25,37 L 356,567 C 262,823 215,952 215,954 215,979 228,992 255,992 264,992 276,990 289,987 310,991 331,999 354,1012 L 381,999 492,748 772,1049 836,1024 860,1049 C 881,1039 901,1025 922,1006 886,937 835,863 770,784 769,783 710,716 594,584 L 774,223 C 774,196 753,168 711,139 L 727,119 C 717,90 699,76 672,76 641,76 570,178 457,381 L 164,-76 C 142,-110 111,-127 72,-127 30,-127 9,-110 8,-76 1,-67 -2,-52 -2,-32 -2,-23 -1,-13 0,-2 Z"/>
  </g>
  <g id="bullet-char-template-10004" transform="scale(0.00048828125,-0.00048828125)">
   <path d="M 285,-33 C 182,-33 111,30 74,156 52,228 41,333 41,471 41,549 55,616 82,672 116,743 169,778 240,778 293,778 328,747 346,684 L 369,508 C 377,444 397,411 428,410 L 1163,1116 C 1174,1127 1196,1133 1229,1133 1271,1133 1292,1118 1292,1087 L 1292,965 C 1292,929 1282,901 1262,881 L 442,47 C 390,-6 338,-33 285,-33 Z"/>
  </g>
  <g id="bullet-char-template-9679" transform="scale(0.00048828125,-0.00048828125)">
   <path d="M 813,0 C 632,0 489,54 383,161 276,268 223,411 223,592 223,773 276,916 383,1023 489,1130 632,1184 813,1184 992,1184 1136,1130 1245,1023 1353,916 1407,772 1407,592 1407,412 1353,268 1245,161 1136,54 992,0 813,0 Z"/>
  </g>
  <g id="bullet-char-template-8226" transform="scale(0.00048828125,-0.00048828125)">
   <path d="M 346,457 C 273,457 209,483 155,535 101,586 74,649 74,723 74,796 101,859 155,911 209,963 273,989 346,989 419,989 480,963 531,910 582,859 608,796 608,723 608,648 583,586 532,535 482,483 420,457 346,457 Z"/>
  </g>
  <g id="bullet-char-template-8211" transform="scale(0.00048828125,-0.00048828125)">
   <path d="M -4,459 L 1135,459 1135,606 -4,606 -4,459 Z"/>
  </g>
  <g id="bullet-char-template-61548" transform="scale(0.00048828125,-0.00048828125)">
   <path d="M 173,740 C 173,903 231,1043 346,1159 462,1274 601,1332 765,1332 928,1332 1067,1274 1183,1159 1299,1043 1357,903 1357,740 1357,577 1299,437 1183,322 1067,206 928,148 765,148 601,148 462,206 346,322 231,437 173,577 173,740 Z"/>
  </g>
 </defs>
 <defs class="TextEmbeddedBitmaps"/>
 <g class="SlideGroup">
  <g>
   <g id="container-id1">
    <g id="id1" class="Slide" clip-path="url(#presentation_clip_path)">
     <g class="Page">
      <g class="Graphic">
       <g id="id3">
        <rect class="BoundingBox" stroke="none" fill="none" x="9090" y="13403" width="3010" height="3010"/>
        <path fill="rgb(255,255,255)" stroke="none" d="M 9095,14908 L 9097,14831 9103,14755 9112,14680 9125,14606 9142,14533 9162,14462 9186,14392 9213,14324 9243,14258 9276,14193 9312,14130 9351,14069 9393,14011 9437,13954 9485,13899 9534,13847 9586,13798 9641,13750 9697,13706 9756,13664 9817,13625 9880,13589 9945,13556 10011,13526 10079,13499 10149,13475 10220,13455 10293,13438 10367,13425 10442,13416 10518,13410 10595,13408 10672,13410 10748,13416 10823,13425 10897,13438 10970,13455 11041,13475 11111,13499 11179,13526 11245,13556 11310,13589 11373,13625 11434,13664 11493,13706 11549,13750 11604,13798 11656,13847 11705,13899 11753,13954 11797,14011 11839,14069 11878,14130 11914,14193 11947,14258 11977,14324 12004,14392 12028,14462 12048,14533 12065,14606 12078,14680 12087,14755 12093,14831 12095,14908 12093,14985 12087,15061 12078,15136 12065,15210 12048,15283 12028,15354 12004,15424 11977,15492 11947,15558 11914,15623 11878,15686 11839,15747 11797,15806 11753,15862 11705,15917 11656,15969 11604,16018 11549,16066 11493,16110 11434,16152 11373,16191 11310,16227 11245,16260 11179,16290 11111,16317 11041,16341 10970,16361 10897,16378 10823,16391 10748,16400 10672,16406 10595,16408 10518,16406 10442,16400 10367,16391 10293,16378 10220,16361 10149,16341 10079,16317 10011,16290 9945,16260 9880,16227 9817,16191 9756,16152 9697,16110 9641,16066 9586,16018 9534,15969 9485,15917 9437,15862 9393,15806 9351,15747 9312,15686 9276,15623 9243,15558 9213,15492 9186,15424 9162,15354 9142,15283 9125,15210 9112,15136 9103,15061 9097,14985 9095,14908 Z"/>
        <path fill="none" stroke="rgb(26,28,26)" stroke-width="10" stroke-linejoin="round" stroke-linecap="round" d="M 9095,14908 L 9097,14831 9103,14755 9112,14680 9125,14606 9142,14533 9162,14462 9186,14392 9213,14324 9243,14258 9276,14193 9312,14130 9351,14069 9393,14011 9437,13954 9485,13899 9534,13847 9586,13798 9641,13750 9697,13706 9756,13664 9817,13625 9880,13589 9945,13556 10011,13526 10079,13499 10149,13475 10220,13455 10293,13438 10367,13425 10442,13416 10518,13410 10595,13408 10672,13410 10748,13416 10823,13425 10897,13438 10970,13455 11041,13475 11111,13499 11179,13526 11245,13556 11310,13589 11373,13625 11434,13664 11493,13706 11549,13750 11604,13798 11656,13847 11705,13899 11753,13954 11797,14011 11839,14069 11878,14130 11914,14193 11947,14258 11977,14324 12004,14392 12028,14462 12048,14533 12065,14606 12078,14680 12087,14755 12093,14831 12095,14908 12093,14985 12087,15061 12078,15136 12065,15210 12048,15283 12028,15354 12004,15424 11977,15492 11947,15558 11914,15623 11878,15686 11839,15747 11797,15806 11753,15862 11705,15917 11656,15969 11604,16018 11549,16066 11493,16110 11434,16152 11373,16191 11310,16227 11245,16260 11179,16290 11111,16317 11041,16341 10970,16361 10897,16378 10823,16391 10748,16400 10672,16406 10595,16408 10518,16406 10442,16400 10367,16391 10293,16378 10220,16361 10149,16341 10079,16317 10011,16290 9945,16260 9880,16227 9817,16191 9756,16152 9697,16110 9641,16066 9586,16018 9534,15969 9485,15917 9437,15862 9393,15806 9351,15747 9312,15686 9276,15623 9243,15558 9213,15492 9186,15424 9162,15354 9142,15283 9125,15210 9112,15136 9103,15061 9097,14985 9095,14908 Z"/>
        <path fill="rgb(4,82,159)" stroke="none" d="M 9145,14908 L 9145,14890 9145,14871 9146,14853 9147,14834 9148,14816 9149,14798 9150,14780 9152,14762 9154,14744 9156,14726 9158,14708 9161,14690 9164,14672 9167,14655 9170,14637 9173,14619 9177,14602 9181,14584 9185,14567 9189,14549 9194,14532 9199,14514 9204,14497 9209,14480 9214,14463 9220,14445 9226,14428 9232,14411 9238,14394 9245,14377 9252,14360 9259,14343 9266,14327 9273,14311 9280,14295 9288,14279 9295,14264 9303,14248 9311,14232 9320,14217 9328,14202 9336,14187 9345,14172 9354,14157 9363,14142 9373,14127 9382,14113 9391,14098 9401,14084 9412,14070 9421,14055 9432,14041 9442,14028 9453,14014 9464,14000 9475,13987 9486,13973 9498,13960 9509,13947 9521,13934 9533,13921 9545,13908 9557,13895 9570,13883 9582,13870 9595,13858 9608,13846 9621,13834 9634,13822 9647,13810 9660,13799 9674,13788 9687,13777 9701,13766 9715,13755 9729,13745 9743,13734 9757,13724 9771,13714 9785,13704 9800,13695 9814,13685 9829,13676 9844,13667 9859,13658 9874,13649 9889,13641 9904,13632 9920,13624 9935,13616 9951,13608 9966,13601 9982,13593 9998,13586 10014,13579 10031,13572 10047,13565 10064,13558 10081,13551 10098,13545 10115,13539 10133,13533 10150,13527 10167,13522 10184,13517 10201,13512 10219,13507 10236,13502 10254,13498 10271,13494 10289,13490 10306,13486 10324,13483 10342,13480 10359,13477 10377,13474 10395,13471 10413,13469 10431,13467 10449,13465 10467,13463 10485,13462 10503,13461 10522,13459 10540,13459 10558,13458 10577,13458 10595,13458 10613,13458 10632,13458 10650,13459 10668,13459 10687,13461 10705,13462 10723,13463 10741,13465 10759,13467 10777,13469 10795,13471 10813,13474 10831,13477 10848,13480 10866,13483 10884,13486 10901,13490 10919,13494 10936,13498 10954,13502 10971,13507 10989,13512 11006,13517 11023,13522 11040,13527 11057,13533 11075,13539 11092,13545 11109,13551 11126,13558 11142,13565 11159,13572 11176,13579 11192,13586 11208,13593 11224,13601 11239,13608 11255,13616 11270,13624 11286,13632 11301,13641 11316,13649 11331,13658 11346,13667 11361,13676 11376,13685 11390,13695 11405,13704 11419,13714 11433,13724 11447,13734 11462,13745 11475,13755 11489,13766 11503,13777 11516,13788 11530,13799 11543,13810 11556,13822 11569,13834 11582,13846 11595,13858 11608,13870 11620,13883 11633,13895 11645,13908 11657,13921 11669,13934 11681,13947 11692,13960 11704,13973 11715,13987 11726,14000 11737,14014 11748,14028 11758,14041 11769,14055 11779,14070 11789,14084 11799,14098 11808,14113 11817,14127 11827,14142 11836,14157 11845,14172 11854,14187 11862,14202 11870,14217 11879,14232 11887,14248 11895,14264 11902,14279 11910,14295 11917,14311 11924,14327 11931,14343 11938,14360 11945,14377 11952,14394 11958,14411 11964,14428 11970,14445 11976,14463 11981,14480 11986,14497 11991,14514 11996,14532 12001,14549 12005,14567 12009,14584 12013,14602 12017,14619 12020,14637 12023,14655 12026,14672 12029,14690 12032,14708 12034,14726 12036,14744 12038,14762 12040,14780 12041,14798 12042,14816 12043,14834 12044,14853 12045,14871 12045,14890 12045,14908 12045,14926 12045,14945 12044,14963 12043,14981 12042,14999 12041,15018 12040,15036 12038,15054 12036,15072 12034,15090 12032,15108 12029,15125 12026,15143 12023,15161 12020,15179 12017,15196 12013,15214 12009,15232 12005,15249 12001,15267 11996,15284 11991,15301 11986,15319 11981,15336 11976,15353 11970,15370 11964,15388 11958,15404 11952,15422 11945,15439 11938,15455 11931,15472 11924,15489 11917,15505 11910,15521 11902,15536 11895,15552 11887,15568 11879,15583 11870,15599 11862,15614 11854,15629 11845,15644 11836,15659 11827,15674 11817,15689 11808,15703 11799,15718 11789,15732 11779,15746 11769,15760 11758,15774 11748,15788 11737,15802 11726,15816 11715,15829 11704,15843 11692,15856 11681,15869 11669,15882 11657,15895 11645,15908 11633,15921 11620,15933 11608,15946 11595,15958 11582,15970 11569,15982 11556,15994 11543,16005 11530,16017 11516,16028 11503,16039 11489,16050 11475,16060 11462,16071 11447,16082 11433,16091 11419,16102 11405,16111 11390,16121 11376,16130 11361,16140 11346,16149 11331,16158 11316,16167 11301,16175 11286,16183 11270,16192 11255,16200 11239,16208 11224,16215 11208,16223 11192,16230 11176,16237 11159,16244 11142,16251 11126,16258 11109,16265 11092,16271 11075,16277 11057,16283 11040,16288 11023,16294 11006,16299 10989,16304 10971,16309 10954,16314 10936,16318 10919,16322 10901,16326 10884,16330 10866,16333 10848,16336 10831,16339 10813,16342 10795,16345 10777,16347 10759,16349 10741,16351 10723,16353 10705,16354 10687,16355 10668,16356 10650,16357 10632,16358 10613,16358 10595,16358 10577,16358 10558,16358 10540,16357 10522,16356 10503,16355 10485,16354 10467,16353 10449,16351 10431,16349 10413,16347 10395,16345 10377,16342 10359,16339 10342,16336 10324,16333 10306,16330 10289,16326 10271,16322 10254,16318 10236,16314 10219,16309 10201,16304 10184,16299 10167,16294 10150,16288 10133,16283 10115,16277 10098,16271 10081,16265 10064,16258 10047,16251 10031,16244 10014,16237 9998,16230 9982,16223 9966,16215 9951,16208 9935,16200 9920,16192 9904,16183 9889,16175 9874,16167 9859,16158 9844,16149 9829,16140 9814,16130 9800,16121 9785,16111 9771,16102 9757,16091 9743,16082 9729,16071 9715,16060 9701,16050 9687,16039 9674,16028 9660,16017 9647,16005 9634,15994 9621,15982 9608,15970 9595,15958 9582,15946 9570,15933 9557,15921 9545,15908 9533,15895 9521,15882 9509,15869 9498,15856 9486,15843 9475,15829 9464,15816 9453,15802 9442,15788 9432,15774 9421,15760 9412,15746 9401,15732 9391,15718 9382,15703 9373,15689 9363,15674 9354,15659 9345,15644 9336,15629 9328,15614 9320,15599 9311,15583 9303,15568 9295,15552 9288,15536 9280,15521 9273,15505 9266,15489 9259,15472 9252,15455 9245,15439 9238,15422 9232,15404 9226,15388 9220,15370 9214,15353 9209,15336 9204,15319 9199,15301 9194,15284 9189,15267 9185,15249 9181,15232 9177,15214 9173,15196 9170,15179 9167,15161 9164,15143 9161,15125 9158,15108 9156,15090 9154,15072 9152,15054 9150,15036 9149,15018 9148,14999 9147,14981 9146,14963 9145,14945 9145,14926 9145,14908 Z"/>
        <path fill="rgb(255,255,255)" stroke="none" d="M 10320,14410 L 10326,14405 10333,14400 10339,14395 10346,14390 10352,14386 10359,14382 10366,14377 10373,14373 10380,14370 10387,14366 10395,14362 10402,14359 10410,14355 10417,14352 10425,14349 10433,14346 10440,14343 10448,14341 10456,14339 10464,14336 10472,14334 10480,14332 10488,14331 10497,14329 10505,14328 10513,14327 10522,14325 10530,14324 10539,14324 10547,14323 10556,14323 10565,14323 10585,14323 10605,14325 10624,14327 10644,14331 10663,14335 10681,14340 10699,14346 10717,14353 10735,14361 10752,14369 10768,14379 10784,14389 10799,14399 10814,14411 10828,14423 10842,14436 10855,14450 10867,14464 10879,14478 10890,14494 10900,14509 10910,14526 10918,14542 10926,14560 10933,14577 10939,14595 10945,14614 10949,14633 10953,14652 10955,14671 10957,14691 10958,14711 10958,15047 11354,15444 11354,14702 11353,14663 11349,14624 11344,14585 11336,14547 11327,14510 11316,14473 11304,14437 11290,14402 11274,14368 11257,14335 11238,14302 11217,14271 11195,14241 11172,14212 11148,14184 11122,14157 11095,14131 11067,14107 11037,14084 11007,14062 10975,14042 10943,14024 10909,14007 10875,13991 10839,13977 10803,13965 10766,13954 10729,13945 10691,13938 10652,13933 10613,13929 10573,13928 10554,13928 10534,13929 10515,13930 10497,13931 10478,13933 10459,13935 10441,13938 10423,13941 10404,13945 10386,13948 10368,13953 10351,13958 10333,13963 10316,13968 10299,13974 10282,13980 10265,13987 10248,13994 10232,14001 10216,14009 10200,14017 10184,14026 10168,14035 10153,14044 10138,14053 10123,14063 10108,14073 10094,14084 10080,14094 10066,14105 10052,14117 10039,14129 10320,14410 Z"/>
        <path fill="rgb(255,255,255)" stroke="none" d="M 10175,14692 L 9855,14372 9850,14381 9845,14391 9841,14401 9837,14411 9833,14421 9829,14431 9825,14442 9821,14452 9817,14462 9814,14472 9811,14483 9808,14494 9805,14504 9802,14515 9799,14525 9796,14536 9794,14547 9792,14558 9790,14569 9788,14580 9786,14591 9784,14602 9783,14613 9781,14624 9780,14635 9779,14647 9778,14658 9778,14669 9777,14681 9777,14693 9776,14704 9776,14716 9777,15316 9602,15275 9599,15274 9596,15274 9592,15274 9589,15275 9588,15275 9586,15276 9585,15276 9583,15277 9582,15278 9581,15279 9580,15280 9578,15281 9577,15282 9576,15283 9575,15285 9575,15287 9574,15288 9573,15290 9573,15291 9573,15293 9573,15294 9573,15296 9573,15298 9573,15299 9573,15301 9574,15302 9574,15304 9575,15305 9958,15864 9960,15866 9961,15868 9963,15869 9966,15870 9968,15872 9970,15872 9973,15873 9975,15873 9978,15873 9980,15873 9983,15872 9985,15871 9987,15870 9989,15868 9991,15866 9993,15864 10374,15307 10375,15306 10376,15304 10377,15303 10377,15302 10378,15300 10378,15298 10378,15297 10378,15295 10378,15294 10378,15292 10378,15290 10378,15289 10377,15287 10377,15286 10376,15284 10375,15283 10373,15280 10371,15278 10368,15277 10365,15275 10362,15274 10359,15274 10356,15274 10353,15274 10173,15314 10175,14715 10175,14709 10175,14704 10175,14698 10175,14692 Z"/>
        <path fill="rgb(255,255,255)" stroke="none" d="M 10811,14410 L 10805,14405 10798,14400 10792,14395 10785,14390 10779,14386 10772,14382 10765,14377 10758,14373 10751,14370 10743,14366 10736,14362 10729,14359 10721,14355 10714,14352 10706,14349 10698,14346 10691,14343 10683,14341 10675,14339 10667,14336 10659,14334 10651,14332 10643,14331 10634,14329 10626,14328 10618,14327 10609,14325 10601,14324 10592,14324 10584,14323 10575,14323 10566,14323 10546,14323 10526,14325 10507,14327 10487,14331 10468,14335 10450,14340 10432,14346 10414,14353 10396,14361 10379,14369 10363,14379 10347,14389 10332,14399 10317,14411 10303,14423 10289,14436 10276,14450 10264,14464 10252,14478 10241,14494 10231,14509 10221,14526 10213,14542 10205,14560 10198,14577 10191,14595 10186,14614 10182,14633 10178,14652 10175,14671 10174,14691 10174,14711 10173,15047 9777,15444 9777,14702 9779,14663 9782,14624 9787,14585 9795,14547 9804,14510 9814,14473 9827,14437 9841,14402 9857,14368 9874,14335 9893,14302 9914,14271 9935,14241 9959,14212 9983,14184 10009,14157 10036,14131 10064,14107 10094,14084 10124,14062 10156,14042 10188,14024 10222,14007 10256,13991 10292,13977 10327,13965 10365,13954 10402,13945 10440,13938 10479,13933 10518,13929 10558,13928 10578,13928 10597,13929 10616,13930 10634,13931 10653,13933 10672,13935 10690,13938 10708,13941 10726,13945 10745,13948 10762,13953 10780,13958 10798,13963 10815,13968 10832,13974 10849,13980 10866,13987 10883,13994 10899,14001 10915,14009 10931,14017 10947,14026 10963,14035 10978,14044 10993,14053 11008,14063 11023,14073 11037,14084 11051,14094 11065,14105 11079,14117 11092,14129 10811,14410 Z"/>
        <path fill="rgb(255,255,255)" stroke="none" d="M 10958,14959 L 11354,14959 11354,15873 10958,15873 10958,14959 Z"/>
       </g>
      </g>
     </g>
    </g>
   </g>
  </g>
 </g>
</svg>