<?xml version="1.0" encoding="UTF-8"?>
<!DOCTYPE svg PUBLIC "-//W3C//DTD SVG 1.1//EN" "http://www.w3.org/Graphics/SVG/1.1/DTD/svg11.dtd">
<svg version="1.2" width="30.01mm" height="30.01mm" viewBox="9094 13407 3001 3001" preserveAspectRatio="xMidYMid" fill-rule="evenodd" stroke-width="28.222" stroke-linejoin="round" xmlns="http://www.w3.org/2000/svg" xmlns:ooo="http://xml.openoffice.org/svg/export" xmlns:xlink="http://www.w3.org/1999/xlink" xmlns:presentation="http://sun.com/xmlns/staroffice/presentation" xmlns:smil="http://www.w3.org/2001/SMIL20/" xmlns:anim="urn:oasis:names:tc:opendocument:xmlns:animation:1.0" xml:space="preserve">
 <defs class="ClipPathGroup">
  <clipPath id="presentation_clip_path" clipPathUnits="userSpaceOnUse">
   <rect x="9094" y="13407" width="3001" height="3001"/>
  </clipPath>
  <clipPath id="presentation_clip_path_shrink" clipPathUnits="userSpaceOnUse">
   <rect x="9097" y="13410" width="2995" height="2995"/>
  </clipPath>
 </defs>
 <defs class="TextShapeIndex">
  <g ooo:slide="id1" ooo:id-list="id3"/>
 </defs>
 <defs class="EmbeddedBulletChars">
  <g id="bullet-char-template-57356" transform="scale(0.00048828125,-0.00048828125)">
   <path d="M 580,1141 L 1163,571 580,0 -4,571 580,1141 Z"/>
  </g>
  <g id="bullet-char-template-57354" transform="scale(0.00048828125,-0.00048828125)">
   <path d="M 8,1128 L 1137,1128 1137,0 8,0 8,1128 Z"/>
  </g>
  <g id="bullet-char-template-10146" transform="scale(0.00048828125,-0.00048828125)">
   <path d="M 174,0 L 602,739 174,1481 1456,739 174,0 Z M 1358,739 L 309,1346 659,739 1358,739 Z"/>
  </g>
  <g id="bullet-char-template-10132" transform="scale(0.00048828125,-0.00048828125)">
   <path d="M 2015,739 L 1276,0 717,0 1260,543 174,543 174,936 1260,936 717,1481 1274,1481 2015,739 Z"/>
  </g>
  <g id="bullet-char-template-10007" transform="scale(0.00048828125,-0.00048828125)">
   <path d="M 0,-2 C -7,14 -16,27 -25,37 L 356,567 C 262,823 215,952 215,954 215,979 228,992 255,992 264,992 276,990 289,987 310,991 331,999 354,1012 L 381,999 492,748 772,1049 836,1024 860,1049 C 881,1039 901,1025 922,1006 886,937 835,863 770,784 769,783 710,716 594,584 L 774,223 C 774,196 753,168 711,139 L 727,119 C 717,90 699,76 672,76 641,76 570,178 457,381 L 164,-76 C 142,-110 111,-127 72,-127 30,-127 9,-110 8,-76 1,-67 -2,-52 -2,-32 -2,-23 -1,-13 0,-2 Z"/>
  </g>
  <g id="bullet-char-template-10004" transform="scale(0.00048828125,-0.00048828125)">
   <path d="M 285,-33 C 182,-33 111,30 74,156 52,228 41,333 41,471 41,549 55,616 82,672 116,743 169,778 240,778 293,778 328,747 346,684 L 369,508 C 377,444 397,411 428,410 L 1163,1116 C 1174,1127 1196,1133 1229,1133 1271,1133 1292,1118 1292,1087 L 1292,965 C 1292,929 1282,901 1262,881 L 442,47 C 390,-6 338,-33 285,-33 Z"/>
  </g>
  <g id="bullet-char-template-9679" transform="scale(0.00048828125,-0.00048828125)">
   <path d="M 813,0 C 632,0 489,54 383,161 276,268 223,411 223,592 223,773 276,916 383,1023 489,1130 632,1184 813,1184 992,1184 1136,1130 1245,1023 1353,916 1407,772 1407,592 1407,412 1353,268 1245,161 1136,54 992,0 813,0 Z"/>
  </g>
  <g id="bullet-char-template-8226" transform="scale(0.00048828125,-0.00048828125)">
   <path d="M 346,457 C 273,457 209,483 155,535 101,586 74,649 74,723 74,796 101,859 155,911 209,963 273,989 346,989 419,989 480,963 531,910 582,859 608,796 608,723 608,648 583,586 532,535 482,483 420,457 346,457 Z"/>
  </g>
  <g id="bullet-char-template-8211" transform="scale(0.00048828125,-0.00048828125)">
   <path d="M -4,459 L 1135,459 1135,606 -4,606 -4,459 Z"/>
  </g>
  <g id="bullet-char-template-61548" transform="scale(0.00048828125,-0.00048828125)">
   <path d="M 173,740 C 173,903 231,1043 346,1159 462,1274 601,1332 765,1332 928,1332 1067,1274 1183,1159 1299,1043 1357,903 1357,740 1357,577 1299,437 1183,322 1067,206 928,148 765,148 601,148 462,206 346,322 231,437 173,577 173,740 Z"/>
  </g>
 </defs>
 <defs class="TextEmbeddedBitmaps"/>
 <g class="SlideGroup">
  <g>
   <g id="container-id1">
    <g id="id1" class="Slide" clip-path="url(#presentation_clip_path)">
     <g class="Page">
      <g class="Graphic">
       <g id="id3">
        <rect class="BoundingBox" stroke="none" fill="none" x="9094" y="13407" width="3002" height="3002"/>
        <path fill="rgb(218,68,53)" stroke="none" d="M 9533,13846 L 9480,13902 9430,13960 9384,14020 9341,14082 9302,14145 9265,14209 9233,14276 9204,14343 9178,14411 9156,14480 9137,14550 9121,14621 9109,14692 9101,14764 9096,14836 9094,14908 9096,14980 9101,15052 9109,15124 9121,15195 9137,15266 9156,15336 9178,15405 9204,15473 9233,15540 9265,15607 9302,15671 9341,15734 9384,15796 9430,15856 9480,15914 9533,15970 9589,16023 9647,16073 9707,16119 9769,16162 9832,16201 9896,16238 9963,16270 10030,16299 10098,16325 10167,16347 10237,16366 10308,16382 10379,16394 10451,16402 10523,16407 10595,16409 10667,16407 10739,16402 10811,16394 10882,16382 10953,16366 11023,16347 11092,16325 11160,16299 11227,16270 11294,16238 11358,16201 11421,16162 11483,16119 11543,16073 11601,16023 11657,15970 11710,15914 11760,15856 11806,15796 11849,15734 11888,15671 11925,15607 11957,15540 11986,15473 12012,15405 12034,15336 12053,15266 12069,15195 12081,15124 12089,15052 12094,14980 12096,14908 12094,14836 12089,14764 12081,14692 12069,14621 12053,14550 12034,14480 12012,14411 11986,14343 11957,14276 11925,14209 11888,14145 11849,14082 11806,14020 11760,13960 11710,13902 11657,13846 11601,13793 11543,13743 11483,13697 11421,13654 11358,13615 11294,13578 11227,13546 11160,13517 11092,13491 11023,13469 10953,13450 10882,13434 10811,13422 10739,13414 10667,13409 10595,13407 10523,13409 10451,13414 10379,13422 10308,13434 10237,13450 10167,13469 10098,13491 10030,13517 9963,13546 9896,13578 9832,13615 9769,13654 9707,13697 9647,13743 9589,13793 9533,13846 Z"/>
        <path fill="rgb(255,255,255)" stroke="none" d="M 11352,13975 L 9662,15664 9655,15656 9648,15647 9641,15638 9634,15629 9628,15621 9621,15612 9615,15603 9608,15594 9602,15585 9596,15575 9590,15566 9584,15557 9578,15548 9572,15538 9566,15529 9561,15519 9555,15510 9550,15500 9544,15491 9539,15481 9534,15471 9529,15461 9524,15452 9519,15442 9514,15432 9509,15422 9504,15412 9500,15401 9495,15391 9491,15381 9487,15371 9482,15360 9477,15347 9472,15333 9466,15319 9462,15306 9457,15292 9452,15278 9448,15264 9444,15251 9440,15237 9436,15223 9432,15209 9429,15195 9425,15181 9422,15167 9419,15153 9416,15139 9414,15125 9411,15110 9409,15096 9407,15082 9405,15068 9403,15053 9401,15039 9400,15025 9398,15010 9397,14996 9396,14981 9396,14967 9395,14952 9394,14937 9394,14923 9394,14908 9394,14893 9394,14879 9395,14864 9396,14849 9396,14835 9397,14820 9398,14806 9400,14791 9401,14777 9403,14763 9405,14748 9407,14734 9409,14720 9411,14706 9414,14691 9416,14677 9419,14663 9422,14649 9425,14635 9429,14621 9432,14607 9436,14593 9440,14579 9444,14565 9448,14552 9452,14538 9457,14524 9462,14510 9466,14497 9472,14483 9477,14469 9482,14456 9488,14442 9494,14428 9500,14414 9506,14400 9513,14387 9519,14373 9526,14360 9533,14347 9540,14333 9547,14321 9554,14308 9562,14295 9569,14282 9577,14269 9585,14257 9593,14244 9602,14232 9610,14220 9619,14207 9628,14195 9637,14183 9646,14172 9655,14160 9665,14148 9674,14137 9684,14125 9694,14114 9704,14103 9714,14091 9724,14080 9735,14069 9746,14059 9757,14048 9768,14037 9779,14027 9790,14017 9801,14007 9812,13997 9824,13987 9835,13977 9847,13968 9859,13959 9871,13949 9883,13941 9895,13932 9907,13923 9919,13915 9931,13906 9944,13898 9956,13890 9969,13882 9982,13875 9995,13867 10008,13860 10021,13853 10034,13845 10047,13839 10060,13832 10074,13825 10087,13819 10101,13813 10115,13807 10129,13801 10143,13795 10156,13790 10170,13784 10184,13779 10197,13774 10211,13770 10225,13765 10239,13761 10252,13757 10266,13753 10280,13749 10294,13745 10308,13741 10322,13738 10336,13735 10350,13732 10364,13729 10378,13726 10393,13724 10407,13722 10421,13719 10435,13718 10450,13716 10464,13714 10478,13713 10493,13711 10507,13710 10522,13709 10536,13709 10551,13708 10566,13707 10580,13707 10595,13707 10610,13707 10624,13707 10639,13708 10654,13709 10668,13709 10683,13710 10697,13711 10712,13713 10726,13714 10740,13716 10755,13718 10769,13719 10783,13722 10798,13724 10812,13726 10826,13729 10840,13732 10854,13735 10868,13738 10882,13741 10896,13745 10910,13749 10924,13753 10938,13757 10952,13761 10965,13765 10979,13770 10993,13774 11007,13779 11020,13784 11034,13790 11048,13795 11058,13799 11068,13804 11078,13808 11089,13813 11099,13817 11109,13822 11119,13827 11129,13832 11139,13836 11148,13842 11158,13847 11168,13852 11178,13857 11187,13863 11197,13868 11206,13874 11216,13879 11225,13885 11235,13891 11244,13897 11253,13903 11263,13909 11272,13915 11281,13921 11290,13928 11299,13934 11308,13941 11317,13947 11325,13954 11334,13961 11343,13968 11352,13975 Z"/>
        <path fill="rgb(255,255,255)" stroke="none" d="M 9838,15841 L 11528,14151 11535,14160 11542,14169 11549,14178 11555,14186 11562,14195 11569,14204 11575,14213 11582,14222 11588,14231 11594,14240 11600,14250 11606,14259 11612,14268 11618,14278 11624,14287 11629,14297 11635,14306 11640,14316 11646,14325 11651,14335 11656,14345 11661,14355 11666,14364 11671,14374 11676,14384 11681,14394 11686,14404 11690,14415 11695,14425 11699,14435 11703,14445 11708,14455 11713,14469 11718,14483 11723,14496 11728,14510 11733,14524 11738,14538 11742,14551 11746,14565 11750,14579 11754,14593 11758,14607 11761,14621 11765,14635 11768,14649 11771,14663 11774,14677 11776,14691 11779,14705 11781,14720 11783,14734 11785,14748 11787,14763 11789,14777 11790,14791 11791,14806 11793,14820 11794,14835 11794,14849 11795,14864 11795,14879 11796,14893 11796,14908 11796,14923 11795,14937 11795,14952 11794,14967 11794,14981 11793,14996 11791,15010 11790,15025 11789,15039 11787,15053 11785,15068 11783,15082 11781,15096 11779,15110 11776,15125 11774,15139 11771,15153 11768,15167 11765,15181 11761,15195 11758,15209 11754,15223 11750,15237 11746,15251 11742,15264 11738,15278 11733,15292 11728,15306 11723,15319 11718,15333 11713,15347 11708,15360 11702,15374 11696,15388 11690,15402 11684,15416 11677,15429 11671,15443 11664,15456 11657,15469 11650,15482 11643,15495 11636,15508 11628,15521 11621,15534 11613,15547 11605,15559 11597,15572 11588,15584 11580,15596 11571,15608 11562,15620 11553,15632 11544,15644 11535,15656 11525,15668 11516,15679 11506,15691 11496,15702 11486,15713 11476,15725 11466,15736 11455,15746 11444,15757 11433,15768 11422,15779 11411,15789 11400,15799 11389,15809 11378,15819 11366,15829 11355,15839 11343,15848 11331,15857 11319,15866 11307,15875 11295,15884 11283,15893 11271,15901 11259,15910 11246,15918 11233,15926 11221,15934 11208,15941 11195,15949 11182,15956 11169,15963 11156,15970 11143,15977 11130,15984 11116,15991 11103,15997 11089,16003 11075,16009 11061,16015 11047,16021 11034,16026 11020,16031 11006,16037 10993,16041 10979,16046 10965,16051 10951,16055 10938,16059 10924,16063 10910,16067 10896,16071 10882,16074 10868,16078 10854,16081 10840,16084 10826,16087 10812,16089 10797,16092 10783,16094 10769,16096 10754,16098 10740,16100 10726,16102 10711,16103 10697,16105 10682,16106 10668,16107 10653,16107 10639,16108 10624,16109 10609,16109 10595,16109 10580,16109 10565,16109 10551,16108 10536,16107 10522,16107 10507,16106 10493,16105 10478,16103 10464,16102 10449,16100 10435,16098 10421,16096 10406,16094 10392,16092 10378,16089 10364,16087 10350,16084 10336,16081 10322,16078 10308,16074 10294,16071 10280,16067 10266,16063 10252,16059 10238,16055 10224,16051 10211,16046 10197,16041 10183,16037 10170,16031 10156,16026 10142,16021 10132,16017 10122,16012 10111,16008 10101,16003 10091,15999 10081,15994 10071,15989 10061,15984 10051,15980 10041,15974 10032,15969 10022,15964 10012,15959 10002,15953 9993,15948 9983,15942 9974,15937 9965,15931 9955,15925 9946,15919 9937,15913 9927,15907 9918,15901 9909,15895 9900,15888 9891,15882 9882,15875 9873,15869 9865,15862 9856,15855 9847,15848 9838,15841 Z"/>
        <path fill="rgb(31,26,23)" stroke="none" d="M 10019,15660 L 10364,15316 10364,15833 10019,15833 10019,15660 Z"/>
        <path fill="rgb(26,28,26)" stroke="none" d="M 10686,14640 L 10614,14640 10608,14640 10601,14640 10595,14640 10588,14641 10582,14642 10576,14643 10569,14643 10563,14645 10557,14646 10551,14648 10544,14649 10538,14651 10532,14653 10526,14655 10520,14657 10514,14660 10509,14662 10503,14665 10497,14668 10491,14671 10486,14674 10480,14677 10475,14680 10470,14684 10465,14688 10460,14691 10454,14696 10450,14700 10445,14704 10440,14708 10436,14713 10431,14718 10427,14722 10423,14726 10420,14731 10416,14736 10412,14740 10409,14745 10406,14750 10403,14755 10399,14760 10397,14765 10394,14770 10391,14776 10389,14781 10386,14787 10384,14792 10382,14798 10380,14803 10378,14809 10376,14815 10374,14820 10372,14826 10371,14832 10370,14838 10369,14844 10368,14849 10367,14855 10366,14861 10365,14867 10365,14873 10365,14879 10364,14885 10364,14891 10364,14962 10019,15307 10019,14884 10020,14872 10020,14859 10021,14847 10022,14835 10023,14823 10024,14811 10026,14799 10028,14787 10030,14775 10032,14763 10035,14751 10038,14740 10041,14728 10044,14716 10048,14705 10052,14693 10056,14682 10060,14670 10065,14659 10069,14648 10074,14637 10080,14626 10085,14615 10091,14605 10097,14594 10103,14584 10109,14573 10116,14563 10123,14553 10130,14543 10137,14533 10144,14523 10155,14510 10166,14497 10178,14484 10190,14472 10202,14460 10214,14449 10227,14438 10240,14427 10253,14417 10266,14407 10280,14398 10294,14389 10308,14381 10323,14373 10338,14365 10353,14358 10368,14351 10383,14345 10399,14339 10414,14333 10430,14328 10446,14324 10463,14319 10479,14316 10495,14312 10512,14310 10529,14307 10546,14306 10563,14304 10580,14303 10597,14303 10614,14303 10968,14301 10968,14082 11136,14190 10686,14640 Z"/>
        <path fill="rgb(31,26,23)" stroke="none" d="M 10968,14711 L 11352,14328 11520,14436 10968,14833 10968,14711 Z"/>
       </g>
      </g>
     </g>
    </g>
   </g>
  </g>
 </g>
</svg>