<?xml version="1.0" encoding="UTF-8"?>
<!DOCTYPE svg PUBLIC "-//W3C//DTD SVG 1.1//EN" "http://www.w3.org/Graphics/SVG/1.1/DTD/svg11.dtd">
<svg version="1.2" width="30.01mm" height="30.01mm" viewBox="9094 13407 3001 3001" preserveAspectRatio="xMidYMid" fill-rule="evenodd" stroke-width="28.222" stroke-linejoin="round" xmlns="http://www.w3.org/2000/svg" xmlns:ooo="http://xml.openoffice.org/svg/export" xmlns:xlink="http://www.w3.org/1999/xlink" xmlns:presentation="http://sun.com/xmlns/staroffice/presentation" xmlns:smil="http://www.w3.org/2001/SMIL20/" xmlns:anim="urn:oasis:names:tc:opendocument:xmlns:animation:1.0" xml:space="preserve">
 <defs class="ClipPathGroup">
  <clipPath id="presentation_clip_path" clipPathUnits="userSpaceOnUse">
   <rect x="9094" y="13407" width="3001" height="3001"/>
  </clipPath>
  <clipPath id="presentation_clip_path_shrink" clipPathUnits="userSpaceOnUse">
   <rect x="9097" y="13410" width="2995" height="2995"/>
  </clipPath>
 </defs>
 <defs class="TextShapeIndex">
  <g ooo:slide="id1" ooo:id-list="id3"/>
 </defs>
 <defs class="EmbeddedBulletChars">
  <g id="bullet-char-template-57356" transform="scale(0.00048828125,-0.00048828125)">
   <path d="M 580,1141 L 1163,571 580,0 -4,571 580,1141 Z"/>
  </g>
  <g id="bullet-char-template-57354" transform="scale(0.00048828125,-0.00048828125)">
   <path d="M 8,1128 L 1137,1128 1137,0 8,0 8,1128 Z"/>
  </g>
  <g id="bullet-char-template-10146" transform="scale(0.00048828125,-0.00048828125)">
   <path d="M 174,0 L 602,739 174,1481 1456,739 174,0 Z M 1358,739 L 309,1346 659,739 1358,739 Z"/>
  </g>
  <g id="bullet-char-template-10132" transform="scale(0.00048828125,-0.00048828125)">
   <path d="M 2015,739 L 1276,0 717,0 1260,543 174,543 174,936 1260,936 717,1481 1274,1481 2015,739 Z"/>
  </g>
  <g id="bullet-char-template-10007" transform="scale(0.00048828125,-0.00048828125)">
   <path d="M 0,-2 C -7,14 -16,27 -25,37 L 356,567 C 262,823 215,952 215,954 215,979 228,992 255,992 264,992 276,990 289,987 310,991 331,999 354,1012 L 381,999 492,748 772,1049 836,1024 860,1049 C 881,1039 901,1025 922,1006 886,937 835,863 770,784 769,783 710,716 594,584 L 774,223 C 774,196 753,168 711,139 L 727,119 C 717,90 699,76 672,76 641,76 570,178 457,381 L 164,-76 C 142,-110 111,-127 72,-127 30,-127 9,-110 8,-76 1,-67 -2,-52 -2,-32 -2,-23 -1,-13 0,-2 Z"/>
  </g>
  <g id="bullet-char-template-10004" transform="scale(0.00048828125,-0.00048828125)">
   <path d="M 285,-33 C 182,-33 111,30 74,156 52,228 41,333 41,471 41,549 55,616 82,672 116,743 169,778 240,778 293,778 328,747 346,684 L 369,508 C 377,444 397,411 428,410 L 1163,1116 C 1174,1127 1196,1133 1229,1133 1271,1133 1292,1118 1292,1087 L 1292,965 C 1292,929 1282,901 1262,881 L 442,47 C 390,-6 338,-33 285,-33 Z"/>
  </g>
  <g id="bullet-char-template-9679" transform="scale(0.00048828125,-0.00048828125)">
   <path d="M 813,0 C 632,0 489,54 383,161 276,268 223,411 223,592 223,773 276,916 383,1023 489,1130 632,1184 813,1184 992,1184 1136,1130 1245,1023 1353,916 1407,772 1407,592 1407,412 1353,268 1245,161 1136,54 992,0 813,0 Z"/>
  </g>
  <g id="bullet-char-template-8226" transform="scale(0.00048828125,-0.00048828125)">
   <path d="M 346,457 C 273,457 209,483 155,535 101,586 74,649 74,723 74,796 101,859 155,911 209,963 273,989 346,989 419,989 480,963 531,910 582,859 608,796 608,723 608,648 583,586 532,535 482,483 420,457 346,457 Z"/>
  </g>
  <g id="bullet-char-template-8211" transform="scale(0.00048828125,-0.00048828125)">
   <path d="M -4,459 L 1135,459 1135,606 -4,606 -4,459 Z"/>
  </g>
  <g id="bullet-char-template-61548" transform="scale(0.00048828125,-0.00048828125)">
   <path d="M 173,740 C 173,903 231,1043 346,1159 462,1274 601,1332 765,1332 928,1332 1067,1274 1183,1159 1299,1043 1357,903 1357,740 1357,577 1299,437 1183,322 1067,206 928,148 765,148 601,148 462,206 346,322 231,437 173,577 173,740 Z"/>
  </g>
 </defs>
 <defs class="TextEmbeddedBitmaps"/>
 <g class="SlideGroup">
  <g>
   <g id="container-id1">
    <g id="id1" class="Slide" clip-path="url(#presentation_clip_path)">
     <g class="Page">
      <g class="Graphic">
       <g id="id3">
        <rect class="BoundingBox" stroke="none" fill="none" x="9094" y="13407" width="3002" height="3002"/>
        <path fill="rgb(218,68,53)" stroke="none" d="M 11657,13846 L 11710,13902 11760,13960 11806,14020 11849,14082 11888,14145 11925,14209 11957,14276 11986,14343 12012,14411 12034,14480 12053,14550 12069,14621 12081,14692 12089,14764 12094,14836 12096,14908 12094,14980 12089,15052 12081,15124 12069,15195 12053,15266 12034,15336 12012,15405 11986,15473 11957,15540 11925,15607 11888,15671 11849,15734 11806,15796 11760,15856 11710,15914 11657,15970 11601,16023 11543,16073 11483,16119 11421,16162 11358,16201 11294,16238 11227,16270 11160,16299 11092,16325 11023,16347 10953,16366 10882,16382 10811,16394 10739,16402 10667,16407 10595,16409 10523,16407 10451,16402 10379,16394 10308,16382 10237,16366 10167,16347 10098,16325 10030,16299 9963,16270 9896,16238 9832,16201 9769,16162 9707,16119 9647,16073 9589,16023 9533,15970 9480,15914 9430,15856 9384,15796 9341,15734 9302,15671 9265,15607 9233,15540 9204,15473 9178,15405 9156,15336 9137,15266 9121,15195 9109,15124 9101,15052 9096,14980 9094,14908 9096,14836 9101,14764 9109,14692 9121,14621 9137,14550 9156,14480 9178,14411 9204,14343 9233,14276 9265,14209 9302,14145 9341,14082 9384,14020 9430,13960 9480,13902 9533,13846 9589,13793 9647,13743 9707,13697 9769,13654 9832,13615 9896,13578 9963,13546 10030,13517 10098,13491 10167,13469 10237,13450 10308,13434 10379,13422 10451,13414 10523,13409 10595,13407 10667,13409 10739,13414 10811,13422 10882,13434 10953,13450 11023,13469 11092,13491 11160,13517 11227,13546 11294,13578 11358,13615 11421,13654 11483,13697 11543,13743 11601,13793 11657,13846 Z"/>
        <path fill="rgb(255,255,255)" stroke="none" d="M 9838,13975 L 11528,15664 11535,15656 11542,15647 11549,15638 11556,15629 11562,15621 11569,15612 11575,15603 11582,15594 11588,15585 11594,15575 11600,15566 11606,15557 11612,15548 11618,15538 11624,15529 11629,15519 11635,15510 11640,15500 11646,15491 11651,15481 11656,15471 11661,15461 11666,15452 11671,15442 11676,15432 11681,15422 11686,15412 11690,15401 11695,15391 11699,15381 11703,15371 11708,15360 11713,15347 11718,15333 11724,15319 11728,15306 11733,15292 11738,15278 11742,15264 11746,15251 11750,15237 11754,15223 11758,15209 11761,15195 11765,15181 11768,15167 11771,15153 11774,15139 11776,15125 11779,15110 11781,15096 11783,15082 11785,15068 11787,15053 11789,15039 11790,15025 11792,15010 11793,14996 11794,14981 11794,14967 11795,14952 11796,14937 11796,14923 11796,14908 11796,14893 11796,14879 11795,14864 11794,14849 11794,14835 11793,14820 11792,14806 11790,14791 11789,14777 11787,14763 11785,14748 11783,14734 11781,14720 11779,14706 11776,14691 11774,14677 11771,14663 11768,14649 11765,14635 11761,14621 11758,14607 11754,14593 11750,14579 11746,14565 11742,14552 11738,14538 11733,14524 11728,14510 11724,14497 11718,14483 11713,14469 11708,14456 11702,14442 11696,14428 11690,14414 11684,14400 11677,14387 11671,14373 11664,14360 11657,14347 11650,14333 11643,14321 11636,14308 11628,14295 11621,14282 11613,14269 11605,14257 11597,14244 11588,14232 11580,14220 11571,14207 11562,14195 11553,14183 11544,14172 11535,14160 11525,14148 11516,14137 11506,14125 11496,14114 11486,14103 11476,14091 11466,14080 11455,14069 11444,14059 11433,14048 11422,14037 11411,14027 11400,14017 11389,14007 11378,13997 11366,13987 11355,13977 11343,13968 11331,13959 11319,13949 11307,13941 11295,13932 11283,13923 11271,13915 11259,13906 11246,13898 11234,13890 11221,13882 11208,13875 11195,13867 11182,13860 11169,13853 11156,13845 11143,13839 11130,13832 11116,13825 11103,13819 11089,13813 11075,13807 11061,13801 11047,13795 11034,13790 11020,13784 11006,13779 10993,13774 10979,13770 10965,13765 10951,13761 10938,13757 10924,13753 10910,13749 10896,13745 10882,13741 10868,13738 10854,13735 10840,13732 10826,13729 10812,13726 10797,13724 10783,13722 10769,13719 10755,13718 10740,13716 10726,13714 10712,13713 10697,13711 10683,13710 10668,13709 10654,13709 10639,13708 10624,13707 10610,13707 10595,13707 10580,13707 10566,13707 10551,13708 10536,13709 10522,13709 10507,13710 10493,13711 10478,13713 10464,13714 10450,13716 10435,13718 10421,13719 10407,13722 10392,13724 10378,13726 10364,13729 10350,13732 10336,13735 10322,13738 10308,13741 10294,13745 10280,13749 10266,13753 10252,13757 10238,13761 10225,13765 10211,13770 10197,13774 10183,13779 10170,13784 10156,13790 10142,13795 10132,13799 10122,13804 10112,13808 10101,13813 10091,13817 10081,13822 10071,13827 10061,13832 10051,13836 10042,13842 10032,13847 10022,13852 10012,13857 10003,13863 9993,13868 9984,13874 9974,13879 9965,13885 9955,13891 9946,13897 9937,13903 9927,13909 9918,13915 9909,13921 9900,13928 9891,13934 9882,13941 9873,13947 9865,13954 9856,13961 9847,13968 9838,13975 Z"/>
        <path fill="rgb(255,255,255)" stroke="none" d="M 11352,15841 L 9662,14151 9655,14160 9648,14169 9641,14178 9635,14186 9628,14195 9621,14204 9615,14213 9608,14222 9602,14231 9596,14240 9590,14250 9584,14259 9578,14268 9572,14278 9566,14287 9561,14297 9555,14306 9550,14316 9544,14325 9539,14335 9534,14345 9529,14355 9524,14364 9519,14374 9514,14384 9509,14394 9504,14404 9500,14415 9495,14425 9491,14435 9487,14445 9482,14455 9477,14469 9472,14483 9467,14496 9462,14510 9457,14524 9452,14538 9448,14551 9444,14565 9440,14579 9436,14593 9432,14607 9429,14621 9425,14635 9422,14649 9419,14663 9416,14677 9414,14691 9411,14705 9409,14720 9407,14734 9405,14748 9403,14763 9401,14777 9400,14791 9399,14806 9397,14820 9396,14835 9396,14849 9395,14864 9395,14879 9394,14893 9394,14908 9394,14923 9395,14937 9395,14952 9396,14967 9396,14981 9397,14996 9399,15010 9400,15025 9401,15039 9403,15053 9405,15068 9407,15082 9409,15096 9411,15110 9414,15125 9416,15139 9419,15153 9422,15167 9425,15181 9429,15195 9432,15209 9436,15223 9440,15237 9444,15251 9448,15264 9452,15278 9457,15292 9462,15306 9467,15319 9472,15333 9477,15347 9482,15360 9488,15374 9494,15388 9500,15402 9506,15416 9513,15429 9519,15443 9526,15456 9533,15469 9540,15482 9547,15495 9554,15508 9562,15521 9569,15534 9577,15547 9585,15559 9593,15572 9602,15584 9610,15596 9619,15608 9628,15620 9637,15632 9646,15644 9655,15656 9665,15668 9674,15679 9684,15691 9694,15702 9704,15713 9714,15725 9724,15736 9735,15746 9746,15757 9757,15768 9768,15779 9779,15789 9790,15799 9801,15809 9812,15819 9824,15829 9835,15839 9847,15848 9859,15857 9871,15866 9883,15875 9895,15884 9907,15893 9919,15901 9931,15910 9944,15918 9957,15926 9969,15934 9982,15941 9995,15949 10008,15956 10021,15963 10034,15970 10047,15977 10060,15984 10074,15991 10087,15997 10101,16003 10115,16009 10129,16015 10143,16021 10156,16026 10170,16031 10184,16037 10197,16041 10211,16046 10225,16051 10239,16055 10252,16059 10266,16063 10280,16067 10294,16071 10308,16074 10322,16078 10336,16081 10350,16084 10364,16087 10378,16089 10393,16092 10407,16094 10421,16096 10436,16098 10450,16100 10464,16102 10479,16103 10493,16105 10508,16106 10522,16107 10537,16107 10551,16108 10566,16109 10581,16109 10595,16109 10610,16109 10625,16109 10639,16108 10654,16107 10668,16107 10683,16106 10697,16105 10712,16103 10726,16102 10741,16100 10755,16098 10769,16096 10784,16094 10798,16092 10812,16089 10826,16087 10840,16084 10854,16081 10868,16078 10882,16074 10896,16071 10910,16067 10924,16063 10938,16059 10952,16055 10966,16051 10979,16046 10993,16041 11007,16037 11020,16031 11034,16026 11048,16021 11058,16017 11068,16012 11079,16008 11089,16003 11099,15999 11109,15994 11119,15989 11129,15984 11139,15980 11149,15974 11158,15969 11168,15964 11178,15959 11188,15953 11197,15948 11207,15942 11216,15937 11225,15931 11235,15925 11244,15919 11253,15913 11263,15907 11272,15901 11281,15895 11290,15888 11299,15882 11308,15875 11317,15869 11325,15862 11334,15855 11343,15848 11352,15841 Z"/>
        <path fill="rgb(31,26,23)" stroke="none" d="M 11171,15660 L 10826,15316 10826,15833 11171,15833 11171,15660 Z"/>
        <path fill="rgb(26,28,26)" stroke="none" d="M 10504,14640 L 10576,14640 10582,14640 10589,14640 10595,14640 10602,14641 10608,14642 10614,14643 10621,14643 10627,14645 10633,14646 10639,14648 10646,14649 10652,14651 10658,14653 10664,14655 10670,14657 10676,14660 10681,14662 10687,14665 10693,14668 10699,14671 10704,14674 10710,14677 10715,14680 10720,14684 10725,14688 10730,14691 10736,14696 10740,14700 10745,14704 10750,14708 10754,14713 10759,14718 10763,14722 10767,14726 10770,14731 10774,14736 10778,14740 10781,14745 10784,14750 10787,14755 10791,14760 10793,14765 10796,14770 10799,14776 10801,14781 10804,14787 10806,14792 10808,14798 10810,14803 10812,14809 10814,14815 10816,14820 10818,14826 10819,14832 10820,14838 10821,14844 10822,14849 10823,14855 10824,14861 10825,14867 10825,14873 10825,14879 10826,14885 10826,14891 10826,14962 11171,15307 11171,14884 11170,14872 11170,14859 11169,14847 11168,14835 11167,14823 11166,14811 11164,14799 11162,14787 11160,14775 11158,14763 11155,14751 11152,14740 11149,14728 11146,14716 11142,14705 11138,14693 11134,14682 11130,14670 11125,14659 11121,14648 11116,14637 11110,14626 11105,14615 11099,14605 11093,14594 11087,14584 11081,14573 11074,14563 11067,14553 11060,14543 11053,14533 11046,14523 11035,14510 11024,14497 11012,14484 11000,14472 10988,14460 10976,14449 10963,14438 10950,14427 10937,14417 10924,14407 10910,14398 10896,14389 10882,14381 10867,14373 10852,14365 10837,14358 10822,14351 10807,14345 10791,14339 10776,14333 10760,14328 10744,14324 10727,14319 10711,14316 10695,14312 10678,14310 10661,14307 10644,14306 10627,14304 10610,14303 10593,14303 10576,14303 10222,14301 10222,14082 10054,14190 10504,14640 Z"/>
        <path fill="rgb(31,26,23)" stroke="none" d="M 10222,14711 L 9838,14328 9670,14436 10222,14833 10222,14711 Z"/>
       </g>
      </g>
     </g>
    </g>
   </g>
  </g>
 </g>
</svg>