<?xml version="1.0" encoding="UTF-8"?>
<!DOCTYPE svg PUBLIC "-//W3C//DTD SVG 1.1//EN" "http://www.w3.org/Graphics/SVG/1.1/DTD/svg11.dtd">
<svg version="1.2" width="30.04mm" height="30.04mm" viewBox="9093 13406 3004 3004" preserveAspectRatio="xMidYMid" fill-rule="evenodd" stroke-width="28.222" stroke-linejoin="round" xmlns="http://www.w3.org/2000/svg" xmlns:ooo="http://xml.openoffice.org/svg/export" xmlns:xlink="http://www.w3.org/1999/xlink" xmlns:presentation="http://sun.com/xmlns/staroffice/presentation" xmlns:smil="http://www.w3.org/2001/SMIL20/" xmlns:anim="urn:oasis:names:tc:opendocument:xmlns:animation:1.0" xml:space="preserve">
 <defs class="ClipPathGroup">
  <clipPath id="presentation_clip_path" clipPathUnits="userSpaceOnUse">
   <rect x="9093" y="13406" width="3004" height="3004"/>
  </clipPath>
  <clipPath id="presentation_clip_path_shrink" clipPathUnits="userSpaceOnUse">
   <rect x="9096" y="13409" width="2998" height="2998"/>
  </clipPath>
 </defs>
 <defs class="TextShapeIndex">
  <g ooo:slide="id1" ooo:id-list="id3"/>
 </defs>
 <defs class="EmbeddedBulletChars">
  <g id="bullet-char-template-57356" transform="scale(0.00048828125,-0.00048828125)">
   <path d="M 580,1141 L 1163,571 580,0 -4,571 580,1141 Z"/>
  </g>
  <g id="bullet-char-template-57354" transform="scale(0.00048828125,-0.00048828125)">
   <path d="M 8,1128 L 1137,1128 1137,0 8,0 8,1128 Z"/>
  </g>
  <g id="bullet-char-template-10146" transform="scale(0.00048828125,-0.00048828125)">
   <path d="M 174,0 L 602,739 174,1481 1456,739 174,0 Z M 1358,739 L 309,1346 659,739 1358,739 Z"/>
  </g>
  <g id="bullet-char-template-10132" transform="scale(0.00048828125,-0.00048828125)">
   <path d="M 2015,739 L 1276,0 717,0 1260,543 174,543 174,936 1260,936 717,1481 1274,1481 2015,739 Z"/>
  </g>
  <g id="bullet-char-template-10007" transform="scale(0.00048828125,-0.00048828125)">
   <path d="M 0,-2 C -7,14 -16,27 -25,37 L 356,567 C 262,823 215,952 215,954 215,979 228,992 255,992 264,992 276,990 289,987 310,991 331,999 354,1012 L 381,999 492,748 772,1049 836,1024 860,1049 C 881,1039 901,1025 922,1006 886,937 835,863 770,784 769,783 710,716 594,584 L 774,223 C 774,196 753,168 711,139 L 727,119 C 717,90 699,76 672,76 641,76 570,178 457,381 L 164,-76 C 142,-110 111,-127 72,-127 30,-127 9,-110 8,-76 1,-67 -2,-52 -2,-32 -2,-23 -1,-13 0,-2 Z"/>
  </g>
  <g id="bullet-char-template-10004" transform="scale(0.00048828125,-0.00048828125)">
   <path d="M 285,-33 C 182,-33 111,30 74,156 52,228 41,333 41,471 41,549 55,616 82,672 116,743 169,778 240,778 293,778 328,747 346,684 L 369,508 C 377,444 397,411 428,410 L 1163,1116 C 1174,1127 1196,1133 1229,1133 1271,1133 1292,1118 1292,1087 L 1292,965 C 1292,929 1282,901 1262,881 L 442,47 C 390,-6 338,-33 285,-33 Z"/>
  </g>
  <g id="bullet-char-template-9679" transform="scale(0.00048828125,-0.00048828125)">
   <path d="M 813,0 C 632,0 489,54 383,161 276,268 223,411 223,592 223,773 276,916 383,1023 489,1130 632,1184 813,1184 992,1184 1136,1130 1245,1023 1353,916 1407,772 1407,592 1407,412 1353,268 1245,161 1136,54 992,0 813,0 Z"/>
  </g>
  <g id="bullet-char-template-8226" transform="scale(0.00048828125,-0.00048828125)">
   <path d="M 346,457 C 273,457 209,483 155,535 101,586 74,649 74,723 74,796 101,859 155,911 209,963 273,989 346,989 419,989 480,963 531,910 582,859 608,796 608,723 608,648 583,586 532,535 482,483 420,457 346,457 Z"/>
  </g>
  <g id="bullet-char-template-8211" transform="scale(0.00048828125,-0.00048828125)">
   <path d="M -4,459 L 1135,459 1135,606 -4,606 -4,459 Z"/>
  </g>
  <g id="bullet-char-template-61548" transform="scale(0.00048828125,-0.00048828125)">
   <path d="M 173,740 C 173,903 231,1043 346,1159 462,1274 601,1332 765,1332 928,1332 1067,1274 1183,1159 1299,1043 1357,903 1357,740 1357,577 1299,437 1183,322 1067,206 928,148 765,148 601,148 462,206 346,322 231,437 173,577 173,740 Z"/>
  </g>
 </defs>
 <defs class="TextEmbeddedBitmaps"/>
 <g class="SlideGroup">
  <g>
   <g id="container-id1">
    <g id="id1" class="Slide" clip-path="url(#presentation_clip_path)">
     <g class="Page">
      <g class="Graphic">
       <g id="id3">
        <rect class="BoundingBox" stroke="none" fill="none" x="9093" y="13406" width="3005" height="3005"/>
        <path fill="rgb(218,68,53)" stroke="none" d="M 11659,13845 L 11712,13902 11761,13960 11808,14020 11851,14081 11890,14144 11926,14209 11959,14275 11988,14343 12014,14411 12036,14480 12055,14551 12071,14621 12083,14693 12091,14764 12096,14836 12098,14909 12096,14981 12091,15053 12083,15124 12071,15196 12055,15266 12036,15337 12014,15406 11988,15474 11959,15542 11926,15608 11890,15673 11851,15736 11808,15797 11761,15857 11712,15915 11659,15972 11602,16025 11544,16074 11484,16121 11423,16164 11359,16203 11295,16239 11229,16272 11161,16301 11093,16327 11024,16349 10953,16368 10883,16384 10811,16396 10740,16404 10668,16409 10596,16411 10523,16409 10451,16404 10380,16396 10308,16384 10238,16368 10167,16349 10098,16327 10030,16301 9962,16272 9896,16239 9831,16203 9768,16164 9707,16121 9647,16074 9589,16025 9532,15972 9479,15915 9430,15857 9383,15797 9340,15736 9301,15673 9265,15608 9232,15542 9203,15474 9177,15406 9155,15337 9136,15266 9120,15196 9108,15124 9100,15053 9095,14981 9093,14909 9095,14836 9100,14764 9108,14693 9120,14621 9136,14551 9155,14480 9177,14411 9203,14343 9232,14275 9265,14209 9301,14144 9340,14081 9383,14020 9430,13960 9479,13902 9532,13845 9589,13792 9647,13743 9707,13696 9768,13653 9831,13614 9896,13578 9962,13545 10030,13516 10098,13490 10167,13468 10238,13449 10308,13433 10380,13421 10451,13413 10523,13408 10596,13406 10668,13408 10740,13413 10811,13421 10883,13433 10953,13449 11024,13468 11093,13490 11161,13516 11229,13545 11295,13578 11359,13614 11423,13653 11484,13696 11544,13743 11602,13792 11659,13845 Z"/>
        <path fill="rgb(255,255,255)" stroke="none" d="M 9838,13974 L 11530,15666 11537,15657 11544,15648 11550,15639 11557,15631 11564,15622 11570,15613 11577,15604 11583,15595 11589,15586 11596,15577 11602,15567 11608,15558 11614,15549 11619,15539 11625,15530 11631,15521 11636,15511 11642,15501 11647,15492 11653,15482 11658,15472 11663,15463 11668,15453 11673,15443 11678,15433 11683,15423 11687,15413 11692,15402 11696,15392 11701,15382 11705,15372 11709,15361 11715,15348 11720,15334 11725,15320 11730,15307 11735,15293 11739,15279 11744,15265 11748,15252 11752,15238 11756,15224 11760,15210 11763,15196 11766,15182 11770,15168 11773,15154 11776,15140 11778,15125 11781,15111 11783,15097 11785,15083 11787,15068 11789,15054 11791,15040 11792,15025 11793,15011 11794,14996 11795,14982 11796,14967 11797,14953 11797,14938 11798,14923 11798,14909 11798,14894 11797,14879 11797,14865 11796,14850 11795,14835 11794,14821 11793,14806 11792,14792 11791,14777 11789,14763 11787,14749 11785,14734 11783,14720 11781,14706 11778,14692 11776,14677 11773,14663 11770,14649 11766,14635 11763,14621 11760,14607 11756,14593 11752,14579 11748,14565 11744,14552 11739,14538 11735,14524 11730,14510 11725,14497 11720,14483 11715,14469 11709,14456 11704,14442 11698,14428 11692,14414 11685,14400 11679,14387 11672,14373 11666,14360 11659,14347 11652,14333 11645,14320 11637,14308 11630,14295 11622,14282 11614,14269 11606,14257 11598,14244 11590,14232 11581,14219 11573,14207 11564,14195 11555,14183 11546,14171 11536,14160 11527,14148 11517,14136 11508,14125 11498,14113 11488,14102 11477,14091 11467,14080 11456,14069 11446,14058 11435,14048 11424,14037 11413,14027 11402,14016 11390,14006 11379,13996 11367,13987 11356,13977 11344,13967 11332,13958 11321,13949 11309,13940 11297,13931 11284,13923 11272,13914 11260,13906 11247,13898 11235,13890 11222,13882 11209,13874 11197,13867 11184,13859 11170,13852 11157,13845 11144,13838 11131,13831 11117,13825 11104,13818 11090,13812 11076,13806 11062,13800 11048,13794 11035,13789 11021,13784 11007,13779 10994,13774 10980,13769 10966,13765 10952,13760 10938,13756 10925,13752 10911,13748 10897,13744 10883,13741 10869,13737 10855,13734 10841,13731 10827,13728 10812,13726 10798,13723 10784,13721 10770,13719 10755,13717 10741,13715 10727,13713 10712,13712 10698,13711 10683,13710 10669,13709 10654,13708 10639,13707 10625,13707 10610,13707 10596,13706 10581,13707 10566,13707 10551,13707 10537,13708 10522,13709 10508,13710 10493,13711 10479,13712 10464,13713 10450,13715 10435,13717 10421,13719 10407,13721 10393,13723 10379,13726 10364,13728 10350,13731 10336,13734 10322,13737 10308,13741 10294,13744 10280,13748 10266,13752 10252,13756 10238,13760 10225,13765 10211,13769 10197,13774 10183,13779 10170,13784 10156,13789 10142,13794 10132,13799 10122,13803 10112,13807 10101,13812 10091,13817 10081,13821 10071,13826 10061,13831 10051,13836 10041,13841 10031,13846 10022,13851 10012,13857 10002,13862 9993,13867 9983,13873 9974,13879 9964,13885 9955,13890 9946,13896 9936,13902 9927,13908 9918,13915 9909,13921 9900,13927 9891,13934 9882,13940 9873,13947 9864,13953 9856,13960 9847,13967 9838,13974 Z"/>
        <path fill="rgb(255,255,255)" stroke="none" d="M 11353,15843 L 9662,14151 9655,14160 9648,14169 9641,14177 9634,14186 9627,14195 9621,14204 9614,14213 9608,14222 9602,14231 9596,14240 9589,14249 9583,14259 9578,14268 9572,14277 9566,14287 9560,14296 9555,14306 9549,14316 9544,14325 9538,14335 9533,14345 9528,14354 9523,14364 9518,14374 9513,14384 9508,14394 9504,14404 9499,14414 9495,14425 9490,14435 9486,14445 9482,14455 9476,14469 9471,14483 9466,14496 9461,14510 9456,14524 9452,14538 9447,14551 9443,14565 9439,14579 9435,14593 9431,14607 9428,14621 9425,14635 9421,14649 9418,14663 9416,14677 9413,14692 9410,14706 9408,14720 9406,14734 9404,14749 9402,14763 9400,14777 9399,14792 9398,14806 9397,14821 9396,14835 9395,14850 9394,14864 9394,14879 9394,14894 9394,14909 9394,14923 9394,14938 9394,14953 9395,14967 9396,14982 9397,14996 9398,15011 9399,15025 9400,15040 9402,15054 9404,15068 9406,15083 9408,15097 9410,15111 9413,15125 9416,15140 9418,15154 9421,15168 9425,15182 9428,15196 9431,15210 9435,15224 9439,15238 9443,15252 9447,15265 9452,15279 9456,15293 9461,15307 9466,15320 9471,15334 9476,15348 9482,15361 9487,15375 9493,15389 9499,15403 9506,15417 9512,15430 9519,15444 9525,15457 9532,15470 9539,15483 9546,15497 9554,15510 9561,15522 9569,15535 9577,15548 9585,15560 9593,15573 9601,15585 9610,15598 9618,15610 9627,15622 9636,15634 9645,15646 9655,15657 9664,15669 9674,15681 9683,15692 9693,15704 9703,15715 9714,15726 9724,15737 9735,15748 9745,15759 9756,15769 9767,15780 9778,15790 9789,15801 9801,15811 9812,15821 9824,15830 9835,15840 9847,15849 9859,15859 9870,15868 9882,15877 9894,15886 9907,15894 9919,15903 9931,15911 9944,15919 9956,15927 9969,15935 9982,15943 9995,15950 10007,15958 10021,15965 10034,15972 10047,15979 10060,15986 10074,15992 10087,15999 10101,16005 10115,16011 10129,16017 10143,16023 10156,16028 10170,16033 10184,16038 10197,16043 10211,16048 10225,16052 10239,16057 10253,16061 10266,16065 10280,16069 10294,16073 10308,16076 10322,16080 10336,16083 10350,16086 10365,16089 10379,16091 10393,16094 10407,16096 10421,16098 10436,16100 10450,16102 10465,16104 10479,16105 10493,16106 10508,16107 10522,16108 10537,16109 10552,16110 10566,16110 10581,16111 10596,16111 10611,16111 10625,16110 10640,16110 10654,16109 10669,16108 10683,16107 10698,16106 10712,16105 10727,16104 10741,16102 10756,16100 10770,16098 10784,16096 10798,16094 10813,16091 10827,16089 10841,16086 10855,16083 10869,16080 10883,16076 10897,16073 10911,16069 10925,16065 10939,16061 10953,16057 10966,16052 10980,16048 10994,16043 11008,16038 11021,16033 11035,16028 11049,16023 11059,16018 11069,16014 11079,16009 11090,16005 11100,16000 11110,15996 11120,15991 11130,15986 11140,15981 11150,15976 11160,15971 11169,15966 11179,15960 11189,15955 11198,15950 11208,15944 11217,15938 11227,15932 11236,15927 11245,15921 11255,15915 11264,15909 11273,15902 11282,15896 11291,15890 11300,15883 11309,15877 11318,15870 11327,15864 11335,15857 11344,15850 11353,15843 Z"/>
        <path fill="rgb(31,26,23)" stroke="none" d="M 11222,15712 L 10893,15383 10893,15712 11222,15712 Z"/>
        <path fill="rgb(26,28,26)" stroke="none" d="M 10364,14500 L 10369,14496 10375,14492 10380,14488 10386,14484 10391,14480 10397,14477 10402,14473 10408,14470 10414,14467 10420,14464 10426,14461 10432,14458 10438,14455 10445,14452 10451,14450 10457,14447 10464,14445 10470,14443 10477,14441 10484,14439 10490,14437 10497,14436 10504,14434 10511,14433 10518,14432 10525,14431 10531,14430 10538,14429 10546,14429 10553,14428 10560,14428 10567,14428 10584,14428 10600,14430 10616,14432 10632,14434 10648,14438 10663,14442 10679,14447 10693,14453 10708,14459 10722,14467 10735,14474 10749,14483 10761,14492 10774,14501 10786,14511 10797,14522 10808,14533 10818,14545 10827,14557 10837,14570 10845,14583 10853,14596 10860,14610 10867,14624 10873,14639 10878,14654 10882,14669 10886,14685 10889,14701 10891,14717 10892,14733 10893,14750 10893,15029 11221,15358 11221,14743 11220,14710 11217,14677 11213,14645 11207,14614 11199,14583 11190,14552 11180,14523 11168,14494 11155,14465 11141,14438 11125,14411 11108,14385 11090,14360 11071,14336 11050,14313 11029,14290 11007,14269 10983,14249 10959,14230 10934,14212 10907,14195 10880,14180 10853,14166 10824,14153 10795,14141 10765,14131 10734,14122 10703,14115 10672,14109 10639,14105 10607,14102 10574,14101 10558,14101 10542,14101 10526,14102 10511,14103 10495,14105 10480,14107 10464,14109 10449,14111 10434,14114 10419,14118 10404,14121 10390,14125 10375,14129 10361,14134 10346,14139 10332,14144 10318,14150 10305,14155 10291,14162 10278,14168 10264,14175 10251,14182 10238,14189 10226,14197 10213,14205 10201,14213 10189,14221 10177,14230 10165,14239 10153,14248 10142,14257 10131,14267 10364,14500 Z"/>
        <path fill="rgb(31,26,23)" stroke="none" d="M 10244,14734 L 9978,14468 9974,14477 9971,14485 9967,14493 9964,14501 9960,14510 9957,14518 9954,14526 9951,14535 9948,14544 9945,14552 9942,14561 9939,14569 9937,14578 9934,14587 9932,14596 9930,14605 9928,14614 9926,14623 9924,14632 9923,14641 9921,14650 9920,14659 9919,14669 9917,14678 9917,14687 9916,14697 9915,14706 9914,14715 9914,14725 9914,14735 9914,14744 9914,14754 9914,15252 9769,15218 9766,15217 9764,15217 9761,15217 9758,15217 9757,15217 9756,15218 9754,15219 9753,15219 9752,15220 9751,15221 9750,15222 9749,15223 9748,15223 9748,15225 9747,15226 9746,15227 9746,15228 9745,15229 9745,15231 9745,15232 9745,15233 9745,15235 9745,15236 9745,15238 9745,15239 9746,15240 9746,15241 9747,15243 10064,15706 10065,15707 10067,15709 10068,15710 10070,15711 10072,15712 10074,15713 10076,15713 10078,15713 10080,15713 10082,15713 10084,15712 10086,15711 10088,15710 10090,15709 10091,15708 10093,15706 10409,15244 10410,15243 10410,15242 10411,15241 10412,15239 10412,15238 10412,15237 10413,15235 10413,15234 10413,15233 10413,15232 10412,15230 10412,15229 10412,15228 10411,15226 10410,15225 10410,15224 10408,15222 10406,15220 10404,15219 10402,15218 10399,15217 10397,15217 10394,15217 10392,15217 10243,15250 10244,14753 10244,14748 10244,14744 10244,14739 10244,14734 Z"/>
       </g>
      </g>
     </g>
    </g>
   </g>
  </g>
 </g>
</svg>