<?xml version="1.0" encoding="UTF-8"?>
<!DOCTYPE svg PUBLIC "-//W3C//DTD SVG 1.1//EN" "http://www.w3.org/Graphics/SVG/1.1/DTD/svg11.dtd">
<svg version="1.2" width="30.01mm" height="30.01mm" viewBox="9094 13407 3001 3001" preserveAspectRatio="xMidYMid" fill-rule="evenodd" stroke-width="28.222" stroke-linejoin="round" xmlns="http://www.w3.org/2000/svg" xmlns:ooo="http://xml.openoffice.org/svg/export" xmlns:xlink="http://www.w3.org/1999/xlink" xmlns:presentation="http://sun.com/xmlns/staroffice/presentation" xmlns:smil="http://www.w3.org/2001/SMIL20/" xmlns:anim="urn:oasis:names:tc:opendocument:xmlns:animation:1.0" xml:space="preserve">
 <defs class="ClipPathGroup">
  <clipPath id="presentation_clip_path" clipPathUnits="userSpaceOnUse">
   <rect x="9094" y="13407" width="3001" height="3001"/>
  </clipPath>
  <clipPath id="presentation_clip_path_shrink" clipPathUnits="userSpaceOnUse">
   <rect x="9097" y="13410" width="2995" height="2995"/>
  </clipPath>
 </defs>
 <defs class="TextShapeIndex">
  <g ooo:slide="id1" ooo:id-list="id3"/>
 </defs>
 <defs class="EmbeddedBulletChars">
  <g id="bullet-char-template-57356" transform="scale(0.00048828125,-0.00048828125)">
   <path d="M 580,1141 L 1163,571 580,0 -4,571 580,1141 Z"/>
  </g>
  <g id="bullet-char-template-57354" transform="scale(0.00048828125,-0.00048828125)">
   <path d="M 8,1128 L 1137,1128 1137,0 8,0 8,1128 Z"/>
  </g>
  <g id="bullet-char-template-10146" transform="scale(0.00048828125,-0.00048828125)">
   <path d="M 174,0 L 602,739 174,1481 1456,739 174,0 Z M 1358,739 L 309,1346 659,739 1358,739 Z"/>
  </g>
  <g id="bullet-char-template-10132" transform="scale(0.00048828125,-0.00048828125)">
   <path d="M 2015,739 L 1276,0 717,0 1260,543 174,543 174,936 1260,936 717,1481 1274,1481 2015,739 Z"/>
  </g>
  <g id="bullet-char-template-10007" transform="scale(0.00048828125,-0.00048828125)">
   <path d="M 0,-2 C -7,14 -16,27 -25,37 L 356,567 C 262,823 215,952 215,954 215,979 228,992 255,992 264,992 276,990 289,987 310,991 331,999 354,1012 L 381,999 492,748 772,1049 836,1024 860,1049 C 881,1039 901,1025 922,1006 886,937 835,863 770,784 769,783 710,716 594,584 L 774,223 C 774,196 753,168 711,139 L 727,119 C 717,90 699,76 672,76 641,76 570,178 457,381 L 164,-76 C 142,-110 111,-127 72,-127 30,-127 9,-110 8,-76 1,-67 -2,-52 -2,-32 -2,-23 -1,-13 0,-2 Z"/>
  </g>
  <g id="bullet-char-template-10004" transform="scale(0.00048828125,-0.00048828125)">
   <path d="M 285,-33 C 182,-33 111,30 74,156 52,228 41,333 41,471 41,549 55,616 82,672 116,743 169,778 240,778 293,778 328,747 346,684 L 369,508 C 377,444 397,411 428,410 L 1163,1116 C 1174,1127 1196,1133 1229,1133 1271,1133 1292,1118 1292,1087 L 1292,965 C 1292,929 1282,901 1262,881 L 442,47 C 390,-6 338,-33 285,-33 Z"/>
  </g>
  <g id="bullet-char-template-9679" transform="scale(0.00048828125,-0.00048828125)">
   <path d="M 813,0 C 632,0 489,54 383,161 276,268 223,411 223,592 223,773 276,916 383,1023 489,1130 632,1184 813,1184 992,1184 1136,1130 1245,1023 1353,916 1407,772 1407,592 1407,412 1353,268 1245,161 1136,54 992,0 813,0 Z"/>
  </g>
  <g id="bullet-char-template-8226" transform="scale(0.00048828125,-0.00048828125)">
   <path d="M 346,457 C 273,457 209,483 155,535 101,586 74,649 74,723 74,796 101,859 155,911 209,963 273,989 346,989 419,989 480,963 531,910 582,859 608,796 608,723 608,648 583,586 532,535 482,483 420,457 346,457 Z"/>
  </g>
  <g id="bullet-char-template-8211" transform="scale(0.00048828125,-0.00048828125)">
   <path d="M -4,459 L 1135,459 1135,606 -4,606 -4,459 Z"/>
  </g>
  <g id="bullet-char-template-61548" transform="scale(0.00048828125,-0.00048828125)">
   <path d="M 173,740 C 173,903 231,1043 346,1159 462,1274 601,1332 765,1332 928,1332 1067,1274 1183,1159 1299,1043 1357,903 1357,740 1357,577 1299,437 1183,322 1067,206 928,148 765,148 601,148 462,206 346,322 231,437 173,577 173,740 Z"/>
  </g>
 </defs>
 <defs class="TextEmbeddedBitmaps"/>
 <g class="SlideGroup">
  <g>
   <g id="container-id1">
    <g id="id1" class="Slide" clip-path="url(#presentation_clip_path)">
     <g class="Page">
      <g class="Graphic">
       <g id="id3">
        <rect class="BoundingBox" stroke="none" fill="none" x="9094" y="13407" width="3002" height="3002"/>
        <path fill="rgb(218,68,53)" stroke="none" d="M 9534,13847 L 9590,13793 9648,13744 9708,13697 9769,13654 9832,13615 9897,13579 9963,13546 10030,13517 10098,13491 10168,13469 10238,13450 10308,13435 10379,13423 10451,13414 10523,13409 10595,13407 10667,13409 10739,13414 10810,13423 10882,13435 10952,13450 11022,13469 11091,13491 11160,13517 11227,13546 11293,13579 11358,13615 11421,13654 11482,13697 11542,13744 11600,13793 11656,13847 11710,13903 11759,13961 11806,14021 11849,14082 11888,14145 11924,14210 11957,14276 11986,14343 12012,14412 12034,14481 12053,14551 12068,14621 12080,14693 12089,14764 12094,14836 12096,14908 12094,14980 12089,15052 12080,15124 12068,15195 12053,15265 12034,15335 12012,15405 11986,15473 11957,15540 11924,15606 11888,15671 11849,15734 11806,15795 11759,15855 11710,15913 11656,15969 11600,16023 11542,16072 11482,16119 11421,16162 11358,16201 11293,16237 11227,16270 11160,16299 11091,16325 11022,16347 10952,16366 10882,16382 10810,16394 10739,16402 10667,16407 10595,16409 10523,16407 10451,16402 10379,16394 10308,16382 10238,16366 10168,16347 10098,16325 10030,16299 9963,16270 9897,16237 9832,16201 9769,16162 9708,16119 9648,16072 9590,16023 9534,15969 9480,15913 9431,15855 9384,15795 9341,15734 9302,15671 9266,15606 9233,15540 9204,15473 9178,15405 9156,15335 9137,15265 9121,15195 9109,15124 9101,15052 9096,14980 9094,14908 9096,14836 9101,14764 9109,14693 9121,14621 9137,14551 9156,14481 9178,14412 9204,14343 9233,14276 9266,14210 9302,14145 9341,14082 9384,14021 9431,13961 9480,13903 9534,13847 Z"/>
        <path fill="rgb(255,255,255)" stroke="none" d="M 9804,15522 L 10418,14908 9804,14294 9794,14308 9784,14322 9774,14336 9764,14350 9755,14364 9745,14379 9736,14393 9728,14408 9719,14423 9711,14438 9703,14453 9696,14468 9688,14484 9681,14500 9674,14515 9668,14531 9663,14543 9659,14554 9654,14565 9650,14577 9646,14588 9643,14600 9639,14611 9635,14623 9632,14634 9629,14646 9626,14657 9623,14669 9620,14681 9617,14692 9615,14704 9613,14716 9610,14728 9608,14739 9606,14751 9605,14763 9603,14775 9601,14787 9600,14799 9599,14811 9598,14823 9597,14835 9596,14847 9595,14859 9595,14871 9595,14884 9594,14896 9594,14908 9594,14920 9595,14933 9595,14945 9595,14957 9596,14969 9597,14981 9598,14993 9599,15005 9600,15017 9601,15029 9603,15041 9605,15053 9606,15065 9608,15077 9610,15088 9613,15100 9615,15112 9617,15124 9620,15136 9623,15147 9626,15159 9629,15170 9632,15182 9635,15194 9639,15205 9643,15217 9646,15228 9650,15240 9654,15251 9659,15262 9663,15274 9668,15285 9674,15301 9681,15317 9688,15332 9696,15348 9703,15363 9711,15378 9719,15394 9728,15408 9736,15423 9745,15438 9755,15452 9764,15466 9774,15480 9784,15494 9794,15508 9804,15522 Z"/>
        <path fill="rgb(255,255,255)" stroke="none" d="M 11209,15698 L 10595,15085 9981,15698 9995,15709 10009,15719 10023,15729 10037,15739 10051,15748 10065,15758 10080,15767 10095,15775 10110,15784 10125,15792 10140,15800 10155,15807 10171,15815 10186,15822 10202,15829 10218,15835 10229,15840 10241,15844 10252,15849 10263,15853 10275,15857 10286,15860 10298,15864 10309,15868 10321,15871 10333,15874 10344,15877 10356,15880 10368,15883 10379,15886 10391,15888 10403,15890 10415,15893 10426,15895 10438,15897 10450,15898 10462,15900 10474,15901 10486,15903 10498,15904 10510,15905 10522,15906 10534,15907 10546,15908 10558,15908 10571,15908 10583,15909 10595,15909 10607,15909 10619,15908 10632,15908 10644,15908 10656,15907 10668,15906 10680,15905 10692,15904 10704,15903 10716,15901 10728,15900 10740,15898 10752,15897 10764,15895 10775,15893 10787,15890 10799,15888 10811,15886 10822,15883 10834,15880 10846,15877 10857,15874 10869,15871 10881,15868 10892,15864 10904,15860 10915,15857 10927,15853 10938,15849 10949,15844 10961,15840 10972,15835 10988,15829 11004,15822 11019,15815 11035,15807 11050,15800 11065,15792 11080,15784 11095,15775 11110,15767 11125,15758 11139,15748 11153,15739 11167,15729 11181,15719 11195,15709 11209,15698 Z"/>
        <path fill="rgb(255,255,255)" stroke="none" d="M 11386,14294 L 10772,14908 11386,15522 11396,15508 11406,15494 11416,15480 11426,15466 11435,15452 11445,15438 11454,15423 11462,15408 11471,15394 11479,15378 11487,15363 11494,15348 11502,15332 11509,15317 11516,15301 11522,15285 11527,15274 11531,15262 11536,15251 11540,15240 11543,15228 11547,15217 11551,15205 11555,15194 11558,15182 11561,15170 11564,15159 11567,15147 11570,15136 11573,15124 11575,15112 11577,15100 11580,15088 11582,15077 11584,15065 11585,15053 11587,15041 11588,15029 11590,15017 11591,15005 11592,14993 11593,14981 11594,14969 11595,14957 11595,14945 11595,14933 11596,14920 11596,14908 11596,14896 11595,14884 11595,14871 11595,14859 11594,14847 11593,14835 11592,14823 11591,14811 11590,14799 11589,14787 11587,14775 11585,14763 11584,14751 11582,14739 11580,14728 11577,14716 11575,14704 11573,14692 11570,14681 11567,14669 11564,14657 11561,14646 11558,14634 11555,14623 11551,14611 11547,14600 11543,14588 11540,14577 11536,14565 11531,14554 11527,14543 11522,14531 11516,14515 11509,14500 11502,14484 11494,14468 11487,14453 11479,14438 11471,14423 11462,14408 11454,14393 11445,14379 11435,14364 11426,14350 11416,14336 11406,14322 11396,14308 11386,14294 Z"/>
        <path fill="rgb(255,255,255)" stroke="none" d="M 9981,14117 L 10595,14731 11209,14117 11195,14107 11181,14097 11167,14087 11153,14077 11139,14068 11124,14058 11110,14050 11095,14041 11080,14033 11065,14024 11050,14016 11035,14009 11019,14001 11004,13994 10988,13987 10972,13981 10960,13976 10949,13972 10938,13968 10926,13963 10915,13960 10903,13956 10892,13952 10881,13948 10869,13945 10857,13942 10846,13939 10834,13936 10822,13933 10811,13931 10799,13928 10787,13926 10775,13924 10764,13921 10752,13920 10740,13918 10728,13916 10716,13915 10704,13913 10692,13912 10680,13911 10668,13910 10656,13909 10644,13909 10632,13908 10619,13908 10607,13908 10595,13907 10583,13908 10571,13908 10558,13908 10546,13909 10534,13909 10522,13910 10510,13911 10498,13912 10486,13913 10474,13915 10462,13916 10450,13918 10438,13920 10426,13921 10415,13924 10403,13926 10391,13928 10379,13931 10367,13933 10356,13936 10344,13939 10333,13942 10321,13945 10309,13948 10298,13952 10287,13956 10275,13960 10264,13963 10252,13968 10241,13972 10230,13976 10218,13981 10202,13987 10186,13994 10171,14001 10155,14009 10140,14016 10125,14024 10110,14033 10095,14041 10080,14050 10066,14058 10051,14068 10037,14077 10023,14087 10009,14097 9995,14107 9981,14117 Z"/>
        <path fill="rgb(4,82,159)" stroke="none" d="M 9808,15476 L 9799,15464 9791,15452 9783,15440 9775,15428 9767,15416 9760,15404 9753,15391 9745,15379 9738,15366 9732,15353 9725,15340 9719,15327 9713,15314 9707,15301 9701,15287 9695,15273 9691,15263 9687,15252 9683,15241 9679,15230 9675,15219 9671,15207 9668,15196 9664,15185 9661,15174 9658,15163 9655,15151 9652,15140 9649,15129 9647,15117 9644,15106 9642,15095 9640,15083 9638,15072 9636,15060 9634,15049 9633,15037 9631,15026 9630,15014 9629,15002 9628,14991 9627,14979 9626,14967 9626,14955 9625,14944 9625,14932 9624,14920 9624,14908 9624,14896 9625,14884 9625,14873 9625,14861 9626,14849 9627,14837 9628,14826 9629,14814 9630,14802 9631,14791 9633,14779 9634,14768 9636,14756 9638,14745 9640,14733 9642,14722 9644,14710 9647,14699 9649,14688 9652,14676 9655,14665 9658,14654 9661,14642 9664,14631 9668,14620 9671,14609 9675,14598 9679,14587 9683,14576 9687,14564 9691,14553 9696,14543 9701,14529 9707,14515 9713,14502 9719,14489 9725,14476 9732,14463 9738,14450 9745,14438 9753,14425 9760,14412 9767,14400 9775,14388 9783,14376 9791,14364 9799,14352 9808,14340 10376,14908 9808,15476 Z"/>
        <path fill="rgb(4,82,159)" stroke="none" d="M 11163,15695 L 11151,15704 11139,15712 11127,15720 11115,15728 11103,15736 11091,15743 11078,15750 11066,15758 11053,15765 11040,15771 11027,15778 11014,15784 11001,15790 10988,15796 10974,15802 10960,15808 10950,15812 10939,15816 10927,15820 10916,15824 10905,15828 10894,15832 10883,15835 10872,15839 10861,15842 10849,15845 10838,15848 10827,15851 10816,15854 10804,15856 10793,15859 10781,15861 10770,15863 10759,15865 10747,15867 10736,15869 10724,15870 10712,15872 10701,15873 10689,15874 10678,15875 10666,15876 10654,15877 10642,15878 10630,15878 10619,15879 10607,15879 10595,15879 10583,15879 10571,15879 10560,15878 10548,15878 10536,15877 10524,15876 10512,15875 10501,15874 10489,15873 10478,15872 10466,15870 10454,15869 10443,15867 10431,15865 10420,15863 10409,15861 10397,15859 10386,15856 10374,15854 10363,15851 10352,15848 10340,15845 10329,15842 10318,15839 10307,15835 10296,15832 10284,15828 10273,15824 10262,15820 10251,15816 10240,15812 10229,15808 10216,15802 10202,15796 10189,15790 10176,15784 10163,15778 10150,15771 10137,15765 10124,15758 10112,15750 10099,15743 10087,15736 10075,15728 10063,15720 10051,15712 10039,15704 10027,15695 10595,15127 11163,15695 Z"/>
        <path fill="rgb(4,82,159)" stroke="none" d="M 11382,14340 L 11391,14352 11399,14364 11407,14376 11415,14388 11423,14400 11430,14412 11437,14425 11445,14438 11451,14450 11458,14463 11465,14476 11471,14489 11477,14502 11483,14515 11489,14529 11494,14543 11499,14553 11503,14564 11507,14576 11511,14587 11515,14598 11519,14609 11522,14620 11526,14631 11529,14642 11532,14654 11535,14665 11538,14676 11541,14688 11543,14699 11546,14710 11548,14722 11550,14733 11552,14745 11554,14756 11556,14768 11557,14779 11559,14791 11560,14802 11561,14814 11562,14826 11563,14837 11564,14849 11564,14861 11565,14873 11565,14884 11566,14896 11566,14908 11566,14920 11565,14932 11565,14944 11564,14955 11564,14967 11563,14979 11562,14991 11561,15002 11560,15014 11559,15026 11557,15037 11556,15049 11554,15060 11552,15072 11550,15083 11548,15095 11546,15106 11543,15117 11541,15129 11538,15140 11535,15151 11532,15163 11529,15174 11526,15185 11522,15196 11519,15207 11515,15219 11511,15230 11507,15241 11503,15252 11499,15263 11495,15273 11489,15287 11483,15301 11477,15314 11471,15327 11465,15340 11458,15353 11452,15366 11445,15379 11437,15391 11430,15404 11423,15416 11415,15428 11407,15440 11399,15452 11391,15464 11382,15476 10814,14908 11382,14340 Z"/>
        <path fill="rgb(4,82,159)" stroke="none" d="M 10027,14121 L 10039,14112 10051,14104 10063,14096 10075,14088 10087,14080 10099,14073 10112,14066 10124,14059 10137,14052 10150,14045 10163,14038 10176,14032 10189,14026 10202,14020 10216,14014 10230,14008 10240,14004 10251,14000 10262,13996 10273,13992 10284,13988 10296,13984 10307,13981 10318,13977 10329,13974 10340,13971 10352,13968 10363,13965 10374,13962 10386,13960 10397,13957 10408,13955 10420,13953 10431,13951 10443,13949 10454,13947 10466,13946 10477,13944 10489,13943 10501,13942 10512,13941 10524,13940 10536,13939 10548,13939 10559,13938 10571,13938 10583,13937 10595,13937 10607,13937 10619,13938 10631,13938 10642,13939 10654,13939 10666,13940 10678,13941 10689,13942 10701,13943 10713,13944 10724,13946 10736,13947 10747,13949 10759,13951 10770,13953 10782,13955 10793,13957 10804,13960 10816,13962 10827,13965 10838,13968 10850,13971 10861,13974 10872,13977 10883,13981 10894,13984 10905,13988 10916,13992 10927,13996 10939,14000 10949,14004 10960,14008 10974,14014 10988,14020 11001,14026 11014,14032 11027,14038 11040,14045 11053,14052 11066,14059 11078,14066 11091,14073 11103,14080 11115,14088 11127,14096 11139,14104 11151,14112 11163,14121 10595,14689 10027,14121 Z"/>
       </g>
      </g>
     </g>
    </g>
   </g>
  </g>
 </g>
</svg>