<?xml version="1.0" encoding="UTF-8"?>
<!DOCTYPE svg PUBLIC "-//W3C//DTD SVG 1.1//EN" "http://www.w3.org/Graphics/SVG/1.1/DTD/svg11.dtd">
<svg version="1.2" width="30.01mm" height="30.01mm" viewBox="9094 13407 3001 3001" preserveAspectRatio="xMidYMid" fill-rule="evenodd" stroke-width="28.222" stroke-linejoin="round" xmlns="http://www.w3.org/2000/svg" xmlns:ooo="http://xml.openoffice.org/svg/export" xmlns:xlink="http://www.w3.org/1999/xlink" xmlns:presentation="http://sun.com/xmlns/staroffice/presentation" xmlns:smil="http://www.w3.org/2001/SMIL20/" xmlns:anim="urn:oasis:names:tc:opendocument:xmlns:animation:1.0" xml:space="preserve">
 <defs class="ClipPathGroup">
  <clipPath id="presentation_clip_path" clipPathUnits="userSpaceOnUse">
   <rect x="9094" y="13407" width="3001" height="3001"/>
  </clipPath>
  <clipPath id="presentation_clip_path_shrink" clipPathUnits="userSpaceOnUse">
   <rect x="9097" y="13410" width="2995" height="2995"/>
  </clipPath>
 </defs>
 <defs class="TextShapeIndex">
  <g ooo:slide="id1" ooo:id-list="id3"/>
 </defs>
 <defs class="EmbeddedBulletChars">
  <g id="bullet-char-template-57356" transform="scale(0.00048828125,-0.00048828125)">
   <path d="M 580,1141 L 1163,571 580,0 -4,571 580,1141 Z"/>
  </g>
  <g id="bullet-char-template-57354" transform="scale(0.00048828125,-0.00048828125)">
   <path d="M 8,1128 L 1137,1128 1137,0 8,0 8,1128 Z"/>
  </g>
  <g id="bullet-char-template-10146" transform="scale(0.00048828125,-0.00048828125)">
   <path d="M 174,0 L 602,739 174,1481 1456,739 174,0 Z M 1358,739 L 309,1346 659,739 1358,739 Z"/>
  </g>
  <g id="bullet-char-template-10132" transform="scale(0.00048828125,-0.00048828125)">
   <path d="M 2015,739 L 1276,0 717,0 1260,543 174,543 174,936 1260,936 717,1481 1274,1481 2015,739 Z"/>
  </g>
  <g id="bullet-char-template-10007" transform="scale(0.00048828125,-0.00048828125)">
   <path d="M 0,-2 C -7,14 -16,27 -25,37 L 356,567 C 262,823 215,952 215,954 215,979 228,992 255,992 264,992 276,990 289,987 310,991 331,999 354,1012 L 381,999 492,748 772,1049 836,1024 860,1049 C 881,1039 901,1025 922,1006 886,937 835,863 770,784 769,783 710,716 594,584 L 774,223 C 774,196 753,168 711,139 L 727,119 C 717,90 699,76 672,76 641,76 570,178 457,381 L 164,-76 C 142,-110 111,-127 72,-127 30,-127 9,-110 8,-76 1,-67 -2,-52 -2,-32 -2,-23 -1,-13 0,-2 Z"/>
  </g>
  <g id="bullet-char-template-10004" transform="scale(0.00048828125,-0.00048828125)">
   <path d="M 285,-33 C 182,-33 111,30 74,156 52,228 41,333 41,471 41,549 55,616 82,672 116,743 169,778 240,778 293,778 328,747 346,684 L 369,508 C 377,444 397,411 428,410 L 1163,1116 C 1174,1127 1196,1133 1229,1133 1271,1133 1292,1118 1292,1087 L 1292,965 C 1292,929 1282,901 1262,881 L 442,47 C 390,-6 338,-33 285,-33 Z"/>
  </g>
  <g id="bullet-char-template-9679" transform="scale(0.00048828125,-0.00048828125)">
   <path d="M 813,0 C 632,0 489,54 383,161 276,268 223,411 223,592 223,773 276,916 383,1023 489,1130 632,1184 813,1184 992,1184 1136,1130 1245,1023 1353,916 1407,772 1407,592 1407,412 1353,268 1245,161 1136,54 992,0 813,0 Z"/>
  </g>
  <g id="bullet-char-template-8226" transform="scale(0.00048828125,-0.00048828125)">
   <path d="M 346,457 C 273,457 209,483 155,535 101,586 74,649 74,723 74,796 101,859 155,911 209,963 273,989 346,989 419,989 480,963 531,910 582,859 608,796 608,723 608,648 583,586 532,535 482,483 420,457 346,457 Z"/>
  </g>
  <g id="bullet-char-template-8211" transform="scale(0.00048828125,-0.00048828125)">
   <path d="M -4,459 L 1135,459 1135,606 -4,606 -4,459 Z"/>
  </g>
  <g id="bullet-char-template-61548" transform="scale(0.00048828125,-0.00048828125)">
   <path d="M 173,740 C 173,903 231,1043 346,1159 462,1274 601,1332 765,1332 928,1332 1067,1274 1183,1159 1299,1043 1357,903 1357,740 1357,577 1299,437 1183,322 1067,206 928,148 765,148 601,148 462,206 346,322 231,437 173,577 173,740 Z"/>
  </g>
 </defs>
 <defs class="TextEmbeddedBitmaps"/>
 <g class="SlideGroup">
  <g>
   <g id="container-id1">
    <g id="id1" class="Slide" clip-path="url(#presentation_clip_path)">
     <g class="Page">
      <g class="Graphic">
       <g id="id3">
        <rect class="BoundingBox" stroke="none" fill="none" x="9094" y="13407" width="3002" height="3002"/>
        <path fill="rgb(218,68,53)" stroke="none" d="M 11656,13847 L 11710,13903 11759,13961 11806,14021 11849,14082 11888,14145 11924,14210 11957,14276 11986,14343 12012,14412 12034,14481 12053,14551 12068,14621 12080,14693 12089,14764 12094,14836 12096,14908 12094,14980 12089,15052 12080,15124 12068,15195 12053,15265 12034,15335 12012,15405 11986,15473 11957,15540 11924,15606 11888,15671 11849,15734 11806,15795 11759,15855 11710,15913 11656,15969 11600,16023 11542,16072 11482,16119 11421,16162 11358,16201 11293,16237 11227,16270 11160,16299 11091,16325 11022,16347 10952,16366 10882,16382 10810,16394 10739,16402 10667,16407 10595,16409 10523,16407 10451,16402 10379,16394 10308,16382 10238,16366 10168,16347 10098,16325 10030,16299 9963,16270 9897,16237 9832,16201 9769,16162 9708,16119 9648,16072 9590,16023 9534,15969 9480,15913 9431,15855 9384,15795 9341,15734 9302,15671 9266,15606 9233,15540 9204,15473 9178,15405 9156,15335 9137,15265 9121,15195 9109,15124 9101,15052 9096,14980 9094,14908 9096,14836 9101,14764 9109,14693 9121,14621 9137,14551 9156,14481 9178,14412 9204,14343 9233,14276 9266,14210 9302,14145 9341,14082 9384,14021 9431,13961 9480,13903 9534,13847 9590,13793 9648,13744 9708,13697 9769,13654 9832,13615 9897,13579 9963,13546 10030,13517 10098,13491 10168,13469 10238,13450 10308,13435 10379,13423 10451,13414 10523,13409 10595,13407 10667,13409 10739,13414 10810,13423 10882,13435 10952,13450 11022,13469 11091,13491 11160,13517 11227,13546 11293,13579 11358,13615 11421,13654 11482,13697 11542,13744 11600,13793 11656,13847 Z"/>
        <path fill="rgb(255,255,255)" stroke="none" d="M 10002,14102 L 11401,15502 11410,15489 11419,15476 11428,15464 11436,15450 11445,15437 11453,15424 11461,15411 11469,15397 11476,15384 11483,15370 11490,15356 11497,15342 11504,15328 11510,15314 11517,15299 11523,15285 11527,15273 11531,15262 11536,15251 11540,15239 11544,15228 11548,15216 11551,15205 11555,15194 11558,15182 11561,15170 11564,15159 11567,15147 11570,15135 11573,15124 11575,15112 11578,15100 11580,15088 11582,15077 11584,15065 11585,15053 11587,15041 11589,15029 11590,15017 11591,15005 11592,14993 11593,14981 11594,14969 11595,14957 11595,14945 11596,14932 11596,14920 11596,14908 11596,14896 11596,14883 11595,14871 11595,14859 11594,14847 11593,14835 11592,14823 11591,14811 11590,14799 11589,14787 11587,14775 11585,14763 11584,14751 11582,14739 11580,14728 11578,14716 11575,14704 11573,14692 11570,14680 11567,14669 11564,14657 11561,14646 11558,14634 11555,14622 11551,14611 11548,14599 11544,14588 11540,14576 11536,14565 11531,14554 11527,14543 11523,14531 11518,14519 11513,14508 11508,14497 11503,14485 11497,14474 11492,14463 11486,14452 11481,14441 11475,14430 11469,14419 11463,14408 11456,14397 11450,14387 11443,14376 11437,14366 11430,14355 11423,14345 11416,14335 11409,14325 11401,14315 11394,14305 11386,14295 11379,14285 11371,14275 11363,14266 11355,14256 11346,14247 11338,14237 11329,14228 11321,14219 11312,14209 11303,14200 11294,14191 11285,14183 11275,14174 11266,14166 11257,14157 11247,14149 11238,14141 11228,14133 11218,14125 11209,14117 11199,14109 11189,14102 11179,14095 11169,14088 11158,14080 11148,14073 11138,14067 11127,14060 11117,14053 11106,14047 11095,14041 11085,14035 11074,14029 11063,14023 11052,14017 11040,14011 11029,14006 11018,14001 11007,13995 10995,13990 10984,13985 10972,13981 10961,13976 10949,13972 10938,13967 10927,13963 10915,13960 10904,13956 10892,13952 10881,13948 10869,13945 10858,13942 10846,13939 10834,13936 10823,13933 10811,13930 10799,13928 10788,13926 10776,13923 10764,13921 10752,13919 10740,13918 10728,13916 10716,13915 10704,13913 10692,13912 10680,13911 10668,13910 10656,13909 10644,13908 10632,13908 10620,13908 10607,13907 10595,13907 10583,13907 10571,13908 10558,13908 10546,13909 10534,13909 10522,13910 10510,13911 10498,13912 10486,13913 10474,13915 10462,13916 10450,13918 10438,13919 10427,13921 10415,13924 10403,13926 10391,13928 10379,13930 10368,13933 10356,13936 10344,13939 10333,13942 10321,13945 10310,13948 10298,13952 10287,13956 10275,13959 10264,13963 10252,13967 10241,13972 10230,13976 10218,13980 10204,13987 10190,13993 10175,13999 10161,14006 10147,14013 10133,14020 10119,14027 10106,14035 10092,14042 10079,14050 10066,14058 10053,14067 10040,14075 10027,14084 10014,14093 10002,14102 Z"/>
        <path fill="rgb(255,255,255)" stroke="none" d="M 11189,15714 L 9789,14314 9780,14327 9771,14340 9762,14352 9754,14365 9745,14379 9737,14392 9729,14405 9722,14419 9714,14432 9707,14446 9700,14460 9693,14474 9686,14488 9680,14502 9674,14517 9668,14531 9663,14543 9659,14554 9655,14565 9650,14577 9647,14588 9643,14600 9639,14611 9636,14622 9632,14634 9629,14646 9626,14657 9623,14669 9620,14681 9618,14692 9615,14704 9613,14716 9611,14728 9608,14739 9607,14751 9605,14763 9603,14775 9602,14787 9600,14799 9599,14811 9598,14823 9597,14835 9596,14847 9596,14859 9595,14871 9595,14883 9595,14896 9595,14908 9595,14920 9595,14932 9595,14945 9596,14957 9596,14969 9597,14981 9598,14993 9599,15005 9600,15017 9602,15029 9603,15041 9605,15053 9607,15065 9608,15077 9611,15088 9613,15100 9615,15112 9618,15124 9620,15136 9623,15147 9626,15159 9629,15170 9632,15182 9636,15194 9639,15205 9643,15217 9647,15228 9651,15240 9655,15251 9659,15262 9663,15273 9668,15285 9673,15296 9678,15308 9683,15319 9688,15331 9693,15342 9699,15353 9704,15364 9710,15375 9716,15386 9722,15397 9728,15408 9734,15419 9741,15429 9747,15440 9754,15450 9760,15461 9767,15471 9775,15481 9782,15491 9789,15501 9796,15511 9804,15521 9812,15531 9820,15541 9828,15550 9836,15560 9844,15569 9853,15579 9861,15588 9870,15597 9879,15607 9887,15616 9897,15625 9906,15633 9915,15642 9924,15650 9934,15659 9943,15667 9953,15675 9962,15683 9972,15691 9982,15699 9992,15707 10002,15714 10012,15721 10022,15729 10032,15736 10042,15743 10053,15749 10063,15756 10074,15763 10084,15769 10095,15775 10106,15781 10117,15787 10128,15793 10139,15799 10150,15805 10161,15810 10172,15816 10184,15821 10195,15826 10207,15831 10218,15835 10230,15840 10241,15844 10252,15849 10264,15853 10275,15857 10287,15860 10298,15864 10310,15868 10321,15871 10333,15874 10344,15877 10356,15880 10368,15883 10379,15886 10391,15888 10403,15890 10415,15893 10427,15895 10438,15897 10450,15898 10462,15900 10474,15902 10486,15903 10498,15904 10510,15905 10522,15906 10534,15907 10546,15907 10558,15908 10571,15908 10583,15909 10595,15909 10607,15909 10620,15908 10632,15908 10644,15907 10656,15907 10668,15906 10680,15905 10692,15904 10704,15903 10716,15901 10728,15900 10740,15898 10752,15897 10764,15895 10776,15893 10788,15890 10799,15888 10811,15886 10823,15883 10834,15880 10846,15877 10857,15874 10869,15871 10881,15868 10892,15864 10904,15860 10915,15857 10927,15853 10938,15849 10949,15844 10961,15840 10972,15835 10987,15829 11001,15823 11015,15817 11029,15810 11043,15803 11057,15796 11071,15789 11085,15781 11098,15774 11111,15766 11125,15758 11138,15749 11151,15741 11164,15732 11176,15723 11189,15714 Z"/>
        <path fill="rgb(4,82,159)" stroke="none" d="M 10048,14106 L 10059,14099 10069,14092 10080,14085 10091,14078 10102,14071 10113,14065 10124,14059 10136,14052 10147,14046 10159,14040 10170,14035 10182,14029 10194,14024 10206,14018 10218,14013 10230,14008 10241,14004 10252,14000 10263,13996 10274,13992 10285,13988 10296,13984 10307,13981 10318,13977 10329,13974 10341,13971 10352,13968 10363,13965 10374,13962 10386,13960 10397,13957 10409,13955 10420,13953 10432,13951 10443,13949 10454,13947 10466,13946 10478,13944 10489,13943 10501,13942 10513,13941 10524,13940 10536,13939 10548,13939 10560,13938 10571,13938 10583,13937 10595,13937 10607,13937 10619,13938 10631,13938 10642,13939 10654,13939 10666,13940 10678,13941 10689,13942 10701,13943 10713,13944 10724,13946 10736,13947 10747,13949 10759,13951 10770,13953 10782,13955 10793,13957 10804,13960 10816,13962 10827,13965 10838,13968 10850,13971 10861,13974 10872,13977 10883,13981 10894,13984 10906,13988 10917,13992 10928,13996 10939,14000 10950,14004 10961,14009 10972,14013 10983,14018 10994,14023 11005,14028 11016,14033 11027,14038 11038,14044 11049,14049 11059,14055 11070,14061 11080,14067 11091,14073 11101,14079 11111,14085 11121,14092 11131,14099 11141,14105 11151,14112 11161,14119 11171,14126 11181,14133 11190,14141 11200,14148 11209,14156 11218,14164 11228,14172 11237,14180 11246,14188 11255,14196 11264,14204 11273,14213 11282,14222 11290,14230 11299,14239 11307,14248 11315,14257 11324,14266 11332,14276 11339,14285 11347,14294 11355,14304 11362,14313 11370,14323 11377,14332 11384,14342 11391,14352 11398,14362 11405,14372 11411,14382 11418,14392 11424,14402 11430,14412 11436,14423 11442,14433 11448,14444 11454,14455 11459,14465 11465,14476 11470,14487 11475,14498 11480,14509 11485,14520 11490,14531 11495,14543 11499,14554 11503,14564 11507,14576 11512,14587 11515,14598 11519,14609 11522,14620 11526,14631 11529,14642 11532,14653 11535,14665 11538,14676 11541,14687 11543,14699 11546,14710 11548,14721 11550,14733 11552,14744 11554,14756 11556,14767 11558,14779 11559,14791 11560,14802 11561,14814 11562,14825 11563,14837 11564,14849 11565,14861 11565,14873 11566,14884 11566,14896 11566,14908 11566,14920 11566,14932 11565,14944 11565,14955 11564,14967 11563,14979 11562,14991 11561,15002 11560,15014 11559,15025 11558,15037 11556,15049 11554,15060 11552,15072 11550,15083 11548,15094 11546,15106 11543,15117 11541,15129 11538,15140 11535,15151 11532,15163 11529,15174 11526,15185 11522,15196 11519,15207 11515,15219 11512,15230 11507,15241 11503,15252 11499,15263 11495,15273 11490,15286 11485,15298 11479,15309 11474,15321 11468,15333 11463,15344 11457,15356 11451,15367 11445,15379 11438,15390 11432,15401 11425,15412 11418,15423 11412,15434 11404,15445 11397,15455 10048,14106 Z"/>
        <path fill="rgb(4,82,159)" stroke="none" d="M 11142,15710 L 11132,15717 11121,15724 11110,15731 11099,15738 11088,15745 11077,15751 11066,15757 11054,15764 11043,15770 11031,15776 11020,15781 11008,15787 10997,15792 10985,15798 10973,15803 10961,15807 10950,15812 10939,15816 10928,15820 10917,15824 10906,15828 10894,15832 10883,15835 10872,15839 10861,15842 10850,15845 10838,15848 10827,15851 10816,15854 10804,15856 10793,15859 10782,15861 10770,15863 10759,15865 10747,15867 10736,15869 10724,15870 10712,15872 10701,15873 10689,15874 10678,15875 10666,15876 10654,15877 10642,15877 10631,15878 10619,15878 10607,15879 10595,15879 10583,15879 10571,15878 10560,15878 10548,15877 10536,15877 10524,15876 10512,15875 10501,15874 10489,15873 10478,15872 10466,15870 10454,15869 10443,15867 10431,15865 10420,15863 10409,15861 10397,15859 10386,15856 10374,15854 10363,15851 10352,15848 10341,15845 10329,15842 10318,15839 10307,15835 10296,15832 10285,15828 10274,15824 10263,15820 10252,15816 10241,15812 10230,15807 10218,15803 10207,15798 10196,15793 10185,15788 10174,15783 10163,15778 10152,15772 10142,15767 10131,15761 10120,15755 10110,15749 10100,15743 10089,15737 10079,15731 10069,15724 10059,15717 10049,15711 10039,15704 10029,15697 10019,15690 10010,15683 10000,15675 9991,15668 9981,15660 9972,15652 9963,15644 9954,15636 9944,15628 9935,15620 9926,15611 9917,15603 9909,15594 9900,15586 9892,15577 9883,15568 9875,15559 9867,15550 9859,15540 9851,15531 9843,15522 9835,15512 9828,15503 9820,15493 9813,15484 9806,15474 9799,15464 9792,15454 9786,15444 9779,15434 9772,15424 9766,15414 9760,15404 9754,15393 9748,15383 9742,15372 9736,15361 9731,15351 9725,15340 9720,15329 9715,15318 9710,15307 9705,15296 9700,15285 9696,15273 9691,15263 9687,15252 9683,15240 9679,15229 9675,15218 9671,15207 9668,15196 9664,15185 9661,15174 9658,15162 9655,15151 9652,15140 9650,15129 9647,15117 9644,15106 9642,15094 9640,15083 9638,15072 9636,15060 9634,15049 9633,15037 9631,15025 9630,15014 9629,15002 9628,14990 9627,14979 9626,14967 9626,14955 9625,14943 9625,14932 9625,14920 9624,14908 9625,14896 9625,14884 9625,14872 9626,14861 9626,14849 9627,14837 9628,14825 9629,14814 9630,14802 9631,14790 9633,14779 9635,14767 9636,14756 9638,14744 9640,14733 9642,14721 9644,14710 9647,14699 9650,14687 9652,14676 9655,14665 9658,14653 9661,14642 9664,14631 9668,14620 9671,14609 9675,14597 9679,14586 9683,14575 9687,14564 9691,14553 9696,14542 9700,14530 9706,14518 9711,14506 9716,14495 9722,14483 9728,14472 9733,14460 9739,14449 9746,14437 9752,14426 9758,14415 9765,14404 9772,14393 9779,14382 9786,14371 9793,14361 11142,15710 Z"/>
       </g>
      </g>
     </g>
    </g>
   </g>
  </g>
 </g>
</svg>