<?xml version="1.0" encoding="UTF-8"?>
<!DOCTYPE svg PUBLIC "-//W3C//DTD SVG 1.1//EN" "http://www.w3.org/Graphics/SVG/1.1/DTD/svg11.dtd">
<svg version="1.2" width="50.03mm" height="35.09mm" viewBox="8046 13153 5003 3509" preserveAspectRatio="xMidYMid" fill-rule="evenodd" stroke-width="28.222" stroke-linejoin="round" xmlns="http://www.w3.org/2000/svg" xmlns:ooo="http://xml.openoffice.org/svg/export" xmlns:xlink="http://www.w3.org/1999/xlink" xmlns:presentation="http://sun.com/xmlns/staroffice/presentation" xmlns:smil="http://www.w3.org/2001/SMIL20/" xmlns:anim="urn:oasis:names:tc:opendocument:xmlns:animation:1.0" xml:space="preserve">
 <defs class="ClipPathGroup">
  <clipPath id="presentation_clip_path" clipPathUnits="userSpaceOnUse">
   <rect x="8046" y="13153" width="5003" height="3509"/>
  </clipPath>
  <clipPath id="presentation_clip_path_shrink" clipPathUnits="userSpaceOnUse">
   <rect x="8051" y="13156" width="4993" height="3502"/>
  </clipPath>
 </defs>
 <defs class="TextShapeIndex">
  <g ooo:slide="id1" ooo:id-list="id3"/>
 </defs>
 <defs class="EmbeddedBulletChars">
  <g id="bullet-char-template-57356" transform="scale(0.00048828125,-0.00048828125)">
   <path d="M 580,1141 L 1163,571 580,0 -4,571 580,1141 Z"/>
  </g>
  <g id="bullet-char-template-57354" transform="scale(0.00048828125,-0.00048828125)">
   <path d="M 8,1128 L 1137,1128 1137,0 8,0 8,1128 Z"/>
  </g>
  <g id="bullet-char-template-10146" transform="scale(0.00048828125,-0.00048828125)">
   <path d="M 174,0 L 602,739 174,1481 1456,739 174,0 Z M 1358,739 L 309,1346 659,739 1358,739 Z"/>
  </g>
  <g id="bullet-char-template-10132" transform="scale(0.00048828125,-0.00048828125)">
   <path d="M 2015,739 L 1276,0 717,0 1260,543 174,543 174,936 1260,936 717,1481 1274,1481 2015,739 Z"/>
  </g>
  <g id="bullet-char-template-10007" transform="scale(0.00048828125,-0.00048828125)">
   <path d="M 0,-2 C -7,14 -16,27 -25,37 L 356,567 C 262,823 215,952 215,954 215,979 228,992 255,992 264,992 276,990 289,987 310,991 331,999 354,1012 L 381,999 492,748 772,1049 836,1024 860,1049 C 881,1039 901,1025 922,1006 886,937 835,863 770,784 769,783 710,716 594,584 L 774,223 C 774,196 753,168 711,139 L 727,119 C 717,90 699,76 672,76 641,76 570,178 457,381 L 164,-76 C 142,-110 111,-127 72,-127 30,-127 9,-110 8,-76 1,-67 -2,-52 -2,-32 -2,-23 -1,-13 0,-2 Z"/>
  </g>
  <g id="bullet-char-template-10004" transform="scale(0.00048828125,-0.00048828125)">
   <path d="M 285,-33 C 182,-33 111,30 74,156 52,228 41,333 41,471 41,549 55,616 82,672 116,743 169,778 240,778 293,778 328,747 346,684 L 369,508 C 377,444 397,411 428,410 L 1163,1116 C 1174,1127 1196,1133 1229,1133 1271,1133 1292,1118 1292,1087 L 1292,965 C 1292,929 1282,901 1262,881 L 442,47 C 390,-6 338,-33 285,-33 Z"/>
  </g>
  <g id="bullet-char-template-9679" transform="scale(0.00048828125,-0.00048828125)">
   <path d="M 813,0 C 632,0 489,54 383,161 276,268 223,411 223,592 223,773 276,916 383,1023 489,1130 632,1184 813,1184 992,1184 1136,1130 1245,1023 1353,916 1407,772 1407,592 1407,412 1353,268 1245,161 1136,54 992,0 813,0 Z"/>
  </g>
  <g id="bullet-char-template-8226" transform="scale(0.00048828125,-0.00048828125)">
   <path d="M 346,457 C 273,457 209,483 155,535 101,586 74,649 74,723 74,796 101,859 155,911 209,963 273,989 346,989 419,989 480,963 531,910 582,859 608,796 608,723 608,648 583,586 532,535 482,483 420,457 346,457 Z"/>
  </g>
  <g id="bullet-char-template-8211" transform="scale(0.00048828125,-0.00048828125)">
   <path d="M -4,459 L 1135,459 1135,606 -4,606 -4,459 Z"/>
  </g>
  <g id="bullet-char-template-61548" transform="scale(0.00048828125,-0.00048828125)">
   <path d="M 173,740 C 173,903 231,1043 346,1159 462,1274 601,1332 765,1332 928,1332 1067,1274 1183,1159 1299,1043 1357,903 1357,740 1357,577 1299,437 1183,322 1067,206 928,148 765,148 601,148 462,206 346,322 231,437 173,577 173,740 Z"/>
  </g>
 </defs>
 <defs class="TextEmbeddedBitmaps"/>
 <g class="SlideGroup">
  <g>
   <g id="container-id1">
    <g id="id1" class="Slide" clip-path="url(#presentation_clip_path)">
     <g class="Page">
      <g class="Graphic">
       <g id="id3">
        <rect class="BoundingBox" stroke="none" fill="none" x="8046" y="13153" width="5004" height="3510"/>
        <path fill="rgb(255,255,255)" stroke="none" d="M 8665,15168 L 10324,15168 10324,14749 8665,14749 8665,15168 Z"/>
        <path fill="rgb(255,255,255)" stroke="none" d="M 10857,15168 L 12517,15168 12517,14747 10857,14747 10857,15168 Z"/>
        <path fill="none" stroke="rgb(51,78,88)" stroke-width="0" stroke-linejoin="round" stroke-linecap="round" d="M 8050,16064 L 8050,14933"/>
        <path fill="none" stroke="rgb(51,78,88)" stroke-width="0" stroke-linejoin="round" stroke-linecap="round" d="M 8423,14557 L 8372,14561 8318,14572 8268,14591 8222,14617 8180,14650 8140,14687 8109,14729 8083,14777 8064,14827 8054,14879 8050,14933"/>
        <path fill="none" stroke="rgb(51,78,88)" stroke-width="0" stroke-linejoin="round" stroke-linecap="round" d="M 8423,14557 L 12671,14557"/>
        <path fill="none" stroke="rgb(51,78,88)" stroke-width="0" stroke-linejoin="round" stroke-linecap="round" d="M 13046,14933 L 13042,14879 13032,14827 13011,14777 12987,14729 12954,14687 12917,14650 12874,14617 12826,14591 12776,14572 12724,14561 12671,14557"/>
        <path fill="none" stroke="rgb(51,78,88)" stroke-width="0" stroke-linejoin="round" stroke-linecap="round" d="M 13046,14933 L 13046,16064"/>
        <path fill="none" stroke="rgb(51,78,88)" stroke-width="0" stroke-linejoin="round" stroke-linecap="round" d="M 13009,16064 L 13009,16659"/>
        <path fill="none" stroke="rgb(51,78,88)" stroke-width="0" stroke-linejoin="round" stroke-linecap="round" d="M 13046,16064 L 13046,16659"/>
        <path fill="none" stroke="rgb(51,78,88)" stroke-width="0" stroke-linejoin="round" stroke-linecap="round" d="M 13009,16064 L 13009,14933 13007,14885 12996,14837 12980,14792 12956,14750 12928,14711 12893,14676 12854,14646 12811,14624 12767,14607 12719,14596 12671,14593 8423,14593 8375,14596 8329,14607 8283,14624 8241,14646 8201,14676 8168,14711 8139,14750 8114,14792 8098,14837 8089,14885 8085,14933"/>
        <path fill="none" stroke="rgb(51,78,88)" stroke-width="0" stroke-linejoin="round" stroke-linecap="round" d="M 13009,16083 L 8085,16083"/>
        <path fill="none" stroke="rgb(51,78,88)" stroke-width="0" stroke-linejoin="round" stroke-linecap="round" d="M 13009,16046 L 8085,16046"/>
        <path fill="none" stroke="rgb(51,78,88)" stroke-width="0" stroke-linejoin="round" stroke-linecap="round" d="M 8050,16064 L 8050,16659"/>
        <path fill="none" stroke="rgb(51,78,88)" stroke-width="0" stroke-linejoin="round" stroke-linecap="round" d="M 8085,16659 L 8085,16064 8085,14933"/>
        <path fill="none" stroke="rgb(51,78,88)" stroke-width="0" stroke-linejoin="round" stroke-linecap="round" d="M 8442,14593 L 8442,16046"/>
        <path fill="none" stroke="rgb(51,78,88)" stroke-width="0" stroke-linejoin="round" stroke-linecap="round" d="M 8678,14593 L 8678,16046"/>
        <path fill="none" stroke="rgb(51,78,88)" stroke-width="0" stroke-linejoin="round" stroke-linecap="round" d="M 8641,14593 L 8641,16046"/>
        <path fill="none" stroke="rgb(51,78,88)" stroke-width="0" stroke-linejoin="round" stroke-linecap="round" d="M 8913,14593 L 8913,16046"/>
        <path fill="none" stroke="rgb(51,78,88)" stroke-width="0" stroke-linejoin="round" stroke-linecap="round" d="M 8878,14593 L 8878,16046"/>
        <path fill="none" stroke="rgb(51,78,88)" stroke-width="0" stroke-linejoin="round" stroke-linecap="round" d="M 9857,14593 L 9857,16046"/>
        <path fill="none" stroke="rgb(51,78,88)" stroke-width="0" stroke-linejoin="round" stroke-linecap="round" d="M 9822,14593 L 9822,16046"/>
        <path fill="none" stroke="rgb(51,78,88)" stroke-width="0" stroke-linejoin="round" stroke-linecap="round" d="M 10094,14593 L 10094,16046"/>
        <path fill="none" stroke="rgb(51,78,88)" stroke-width="0" stroke-linejoin="round" stroke-linecap="round" d="M 10057,14593 L 10057,16046"/>
        <path fill="none" stroke="rgb(51,78,88)" stroke-width="0" stroke-linejoin="round" stroke-linecap="round" d="M 10329,14593 L 10329,16046"/>
        <path fill="none" stroke="rgb(51,78,88)" stroke-width="0" stroke-linejoin="round" stroke-linecap="round" d="M 10294,14593 L 10294,16046"/>
        <path fill="none" stroke="rgb(51,78,88)" stroke-width="0" stroke-linejoin="round" stroke-linecap="round" d="M 10566,14593 L 10566,16046"/>
        <path fill="none" stroke="rgb(51,78,88)" stroke-width="0" stroke-linejoin="round" stroke-linecap="round" d="M 10529,14593 L 10529,16046"/>
        <path fill="none" stroke="rgb(51,78,88)" stroke-width="0" stroke-linejoin="round" stroke-linecap="round" d="M 10800,14593 L 10800,16046"/>
        <path fill="none" stroke="rgb(51,78,88)" stroke-width="0" stroke-linejoin="round" stroke-linecap="round" d="M 10765,14593 L 10765,16046"/>
        <path fill="none" stroke="rgb(51,78,88)" stroke-width="0" stroke-linejoin="round" stroke-linecap="round" d="M 11037,14593 L 11037,16046"/>
        <path fill="none" stroke="rgb(51,78,88)" stroke-width="0" stroke-linejoin="round" stroke-linecap="round" d="M 11002,14593 L 11002,16046"/>
        <path fill="none" stroke="rgb(51,78,88)" stroke-width="0" stroke-linejoin="round" stroke-linecap="round" d="M 11274,14593 L 11274,16046"/>
        <path fill="none" stroke="rgb(51,78,88)" stroke-width="0" stroke-linejoin="round" stroke-linecap="round" d="M 11237,14593 L 11237,16046"/>
        <path fill="none" stroke="rgb(51,78,88)" stroke-width="0" stroke-linejoin="round" stroke-linecap="round" d="M 11508,14593 L 11508,14750"/>
        <path fill="none" stroke="rgb(51,78,88)" stroke-width="0" stroke-linejoin="round" stroke-linecap="round" d="M 11473,14593 L 11473,14750"/>
        <path fill="none" stroke="rgb(51,78,88)" stroke-width="0" stroke-linejoin="round" stroke-linecap="round" d="M 12216,14593 L 12216,16046"/>
        <path fill="none" stroke="rgb(51,78,88)" stroke-width="0" stroke-linejoin="round" stroke-linecap="round" d="M 12181,14593 L 12181,16046"/>
        <path fill="none" stroke="rgb(51,78,88)" stroke-width="0" stroke-linejoin="round" stroke-linecap="round" d="M 12453,14593 L 12453,16046"/>
        <path fill="none" stroke="rgb(51,78,88)" stroke-width="0" stroke-linejoin="round" stroke-linecap="round" d="M 12418,14593 L 12418,16046"/>
        <path fill="none" stroke="rgb(51,78,88)" stroke-width="0" stroke-linejoin="round" stroke-linecap="round" d="M 12689,14593 L 12689,16046"/>
        <path fill="none" stroke="rgb(51,78,88)" stroke-width="0" stroke-linejoin="round" stroke-linecap="round" d="M 12652,14593 L 12652,16046"/>
        <path fill="none" stroke="rgb(51,78,88)" stroke-width="0" stroke-linejoin="round" stroke-linecap="round" d="M 13046,16659 L 13009,16659"/>
        <path fill="none" stroke="rgb(51,78,88)" stroke-width="0" stroke-linejoin="round" stroke-linecap="round" d="M 8085,16659 L 8050,16659"/>
        <path fill="rgb(38,46,52)" stroke="none" d="M 13046,16064 L 13009,16659 13046,16659 13046,16064 Z"/>
        <path fill="rgb(38,46,52)" stroke="none" d="M 8085,16064 L 8050,16659 8085,16659 8085,16064 Z"/>
        <path fill="rgb(38,46,52)" stroke="none" d="M 13009,16064 L 13009,16659 13046,16064 13009,16064 Z"/>
        <path fill="rgb(38,46,52)" stroke="none" d="M 8050,16064 L 8050,16659 8085,16064 8050,16064 Z"/>
        <path fill="rgb(38,46,52)" stroke="none" d="M 8085,14933 L 8050,16064 8085,16064 8085,14933 Z"/>
        <path fill="rgb(38,46,52)" stroke="none" d="M 13046,14933 L 13009,16064 13046,16064 13046,14933 Z"/>
        <path fill="rgb(38,46,52)" stroke="none" d="M 8050,14933 L 8050,16064 8085,14933 8050,14933 Z"/>
        <path fill="rgb(38,46,52)" stroke="none" d="M 13009,14933 L 13009,16064 13046,14933 13009,14933 Z"/>
        <path fill="rgb(38,46,52)" stroke="none" d="M 8089,14885 L 8050,14933 8085,14933 8089,14885 Z"/>
        <path fill="rgb(38,46,52)" stroke="none" d="M 13007,14885 L 13009,14933 13046,14933 13007,14885 Z"/>
        <path fill="rgb(38,46,52)" stroke="none" d="M 13042,14879 L 13007,14885 13046,14933 13042,14879 Z"/>
        <path fill="rgb(38,46,52)" stroke="none" d="M 8054,14879 L 8050,14933 8089,14885 8054,14879 Z"/>
        <path fill="rgb(38,46,52)" stroke="none" d="M 12996,14837 L 13007,14885 13042,14879 12996,14837 Z"/>
        <path fill="rgb(38,46,52)" stroke="none" d="M 8098,14837 L 8054,14879 8089,14885 8098,14837 Z"/>
        <path fill="rgb(38,46,52)" stroke="none" d="M 13032,14827 L 12996,14837 13042,14879 13032,14827 Z"/>
        <path fill="rgb(38,46,52)" stroke="none" d="M 8064,14827 L 8054,14879 8098,14837 8064,14827 Z"/>
        <path fill="rgb(38,46,52)" stroke="none" d="M 8114,14792 L 8064,14827 8098,14837 8114,14792 Z"/>
        <path fill="rgb(38,46,52)" stroke="none" d="M 12980,14792 L 12996,14837 13032,14827 12980,14792 Z"/>
        <path fill="rgb(38,46,52)" stroke="none" d="M 13011,14777 L 12980,14792 13032,14827 13011,14777 Z"/>
        <path fill="rgb(38,46,52)" stroke="none" d="M 8083,14777 L 8064,14827 8114,14792 8083,14777 Z"/>
        <path fill="rgb(38,46,52)" stroke="none" d="M 8139,14750 L 8083,14777 8114,14792 8139,14750 Z"/>
        <path fill="rgb(38,46,52)" stroke="none" d="M 12956,14750 L 12980,14792 13011,14777 12956,14750 Z"/>
        <path fill="rgb(38,46,52)" stroke="none" d="M 12987,14729 L 12956,14750 13011,14777 12987,14729 Z"/>
        <path fill="rgb(38,46,52)" stroke="none" d="M 8109,14729 L 8083,14777 8139,14750 8109,14729 Z"/>
        <path fill="rgb(38,46,52)" stroke="none" d="M 12928,14711 L 12956,14750 12987,14729 12928,14711 Z"/>
        <path fill="rgb(38,46,52)" stroke="none" d="M 8168,14711 L 8109,14729 8139,14750 8168,14711 Z"/>
        <path fill="rgb(38,46,52)" stroke="none" d="M 12954,14687 L 12928,14711 12987,14729 12954,14687 12954,14687 Z"/>
        <path fill="rgb(38,46,52)" stroke="none" d="M 8140,14687 L 8109,14729 8168,14711 8140,14687 Z"/>
        <path fill="rgb(38,46,52)" stroke="none" d="M 12893,14676 L 12928,14711 12954,14687 12893,14676 Z"/>
        <path fill="rgb(38,46,52)" stroke="none" d="M 8201,14676 L 8140,14687 8168,14711 8201,14676 Z"/>
        <path fill="rgb(38,46,52)" stroke="none" d="M 12917,14650 L 12893,14676 12954,14687 12917,14650 Z"/>
        <path fill="rgb(38,46,52)" stroke="none" d="M 8180,14650 L 8140,14687 8201,14676 8180,14650 Z"/>
        <path fill="rgb(38,46,52)" stroke="none" d="M 12854,14646 L 12893,14676 12917,14650 12854,14646 Z"/>
        <path fill="rgb(38,46,52)" stroke="none" d="M 8241,14646 L 8180,14650 8201,14676 8241,14646 Z"/>
        <path fill="rgb(38,46,52)" stroke="none" d="M 12811,14624 L 12854,14646 12917,14650 12811,14624 Z"/>
        <path fill="rgb(38,46,52)" stroke="none" d="M 8283,14624 L 8180,14650 8241,14646 8283,14624 Z"/>
        <path fill="rgb(38,46,52)" stroke="none" d="M 12874,14617 L 12811,14624 12917,14650 12874,14617 Z"/>
        <path fill="rgb(38,46,52)" stroke="none" d="M 8222,14617 L 8180,14650 8283,14624 8222,14617 Z"/>
        <path fill="rgb(38,46,52)" stroke="none" d="M 8329,14607 L 8222,14617 8283,14624 8329,14607 Z"/>
        <path fill="rgb(38,46,52)" stroke="none" d="M 12767,14607 L 12811,14624 12874,14617 12767,14607 Z"/>
        <path fill="rgb(38,46,52)" stroke="none" d="M 8375,14596 L 8222,14617 8329,14607 8375,14596 Z"/>
        <path fill="rgb(38,46,52)" stroke="none" d="M 12719,14596 L 12767,14607 12874,14617 12719,14596 Z"/>
        <path fill="rgb(38,46,52)" stroke="none" d="M 12826,14591 L 8423,14593 12671,14593 12826,14591 Z"/>
        <path fill="rgb(38,46,52)" stroke="none" d="M 12826,14591 L 12671,14593 12719,14596 12826,14591 Z"/>
        <path fill="rgb(38,46,52)" stroke="none" d="M 12826,14591 L 12719,14596 12874,14617 12826,14591 Z"/>
        <path fill="rgb(38,46,52)" stroke="none" d="M 8268,14591 L 8423,14593 12826,14591 8268,14591 Z"/>
        <path fill="rgb(38,46,52)" stroke="none" d="M 8268,14591 L 8375,14596 8423,14593 8268,14591 Z"/>
        <path fill="rgb(38,46,52)" stroke="none" d="M 8268,14591 L 8222,14617 8375,14596 8268,14591 Z"/>
        <path fill="rgb(38,46,52)" stroke="none" d="M 12776,14572 L 8268,14591 12826,14591 12776,14572 Z"/>
        <path fill="rgb(38,46,52)" stroke="none" d="M 8318,14572 L 8268,14591 12776,14572 8318,14572 Z"/>
        <path fill="rgb(38,46,52)" stroke="none" d="M 12724,14561 L 8318,14572 12776,14572 12724,14561 Z"/>
        <path fill="rgb(38,46,52)" stroke="none" d="M 8372,14561 L 8318,14572 12724,14561 8372,14561 Z"/>
        <path fill="rgb(38,46,52)" stroke="none" d="M 8372,14561 L 12671,14557 8423,14557 8372,14561 Z"/>
        <path fill="rgb(38,46,52)" stroke="none" d="M 12671,14557 L 8372,14561 12724,14561 12671,14557 Z"/>
        <path fill="rgb(38,46,52)" stroke="none" d="M 13009,16064 L 8085,16083 13009,16083 13009,16064 Z"/>
        <path fill="rgb(38,46,52)" stroke="none" d="M 8085,16064 L 8085,16083 13009,16064 8085,16064 Z"/>
        <path fill="rgb(38,46,52)" stroke="none" d="M 8442,16046 L 8085,16064 13009,16064 8442,16046 Z"/>
        <path fill="rgb(38,46,52)" stroke="none" d="M 10566,16046 L 8442,16046 13009,16064 10566,16046 Z"/>
        <path fill="rgb(38,46,52)" stroke="none" d="M 9386,16046 L 8442,16046 10566,16046 9386,16046 Z"/>
        <path fill="rgb(38,46,52)" stroke="none" d="M 8913,16046 L 8442,16046 9386,16046 8913,16046 Z"/>
        <path fill="rgb(38,46,52)" stroke="none" d="M 12689,16046 L 10566,16046 13009,16064 12689,16046 Z"/>
        <path fill="rgb(38,46,52)" stroke="none" d="M 10529,16046 L 9386,16046 10566,16046 10529,16046 Z"/>
        <path fill="rgb(38,46,52)" stroke="none" d="M 12652,16046 L 10566,16046 12689,16046 12652,16046 Z"/>
        <path fill="rgb(38,46,52)" stroke="none" d="M 9349,16046 L 8913,16046 9386,16046 9349,16046 Z"/>
        <path fill="rgb(38,46,52)" stroke="none" d="M 8878,16046 L 8442,16046 8913,16046 8878,16046 Z"/>
        <path fill="rgb(38,46,52)" stroke="none" d="M 8407,16046 L 8085,16064 8442,16046 8407,16046 Z"/>
        <path fill="rgb(38,46,52)" stroke="none" d="M 9150,16046 L 8913,16046 9349,16046 9150,16046 Z"/>
        <path fill="rgb(38,46,52)" stroke="none" d="M 8913,16046 L 9150,16046 9114,16046 8913,16046 Z"/>
        <path fill="rgb(38,46,52)" stroke="none" d="M 11473,16046 L 10566,16046 12652,16046 11473,16046 Z"/>
        <path fill="rgb(38,46,52)" stroke="none" d="M 11037,16046 L 10566,16046 11473,16046 11037,16046 Z"/>
        <path fill="rgb(38,46,52)" stroke="none" d="M 10566,16046 L 11037,16046 11002,16046 10566,16046 Z"/>
        <path fill="rgb(38,46,52)" stroke="none" d="M 12181,16046 L 11473,16046 12652,16046 12181,16046 Z"/>
        <path fill="rgb(38,46,52)" stroke="none" d="M 9621,16046 L 9386,16046 10529,16046 9621,16046 Z"/>
        <path fill="rgb(38,46,52)" stroke="none" d="M 9386,16046 L 9621,16046 9586,16046 9386,16046 Z"/>
        <path fill="rgb(38,46,52)" stroke="none" d="M 11745,16046 L 11473,16046 12181,16046 11745,16046 Z"/>
        <path fill="rgb(38,46,52)" stroke="none" d="M 11473,16046 L 11745,16046 11710,16046 11473,16046 Z"/>
        <path fill="rgb(38,46,52)" stroke="none" d="M 10057,16046 L 9621,16046 10529,16046 10057,16046 Z"/>
        <path fill="rgb(38,46,52)" stroke="none" d="M 13009,16046 L 12689,16046 13009,16064 13009,16046 Z"/>
        <path fill="rgb(38,46,52)" stroke="none" d="M 12216,16046 L 12181,16046 12652,16046 12216,16046 Z"/>
        <path fill="rgb(38,46,52)" stroke="none" d="M 11508,16046 L 11473,16046 11710,16046 11508,16046 Z"/>
        <path fill="rgb(38,46,52)" stroke="none" d="M 10094,16046 L 10057,16046 10529,16046 10094,16046 Z"/>
        <path fill="rgb(38,46,52)" stroke="none" d="M 12418,16046 L 12216,16046 12652,16046 12418,16046 Z"/>
        <path fill="rgb(38,46,52)" stroke="none" d="M 12652,16046 L 12453,16046 12418,16046 12652,16046 Z"/>
        <path fill="rgb(38,46,52)" stroke="none" d="M 8678,16046 L 8442,16046 8878,16046 8678,16046 Z"/>
        <path fill="rgb(38,46,52)" stroke="none" d="M 8442,16046 L 8678,16046 8641,16046 8442,16046 Z"/>
        <path fill="rgb(38,46,52)" stroke="none" d="M 11944,16046 L 11745,16046 12181,16046 11944,16046 Z"/>
        <path fill="rgb(38,46,52)" stroke="none" d="M 12181,16046 L 11982,16046 11944,16046 12181,16046 Z"/>
        <path fill="rgb(38,46,52)" stroke="none" d="M 10294,16046 L 10094,16046 10529,16046 10294,16046 Z"/>
        <path fill="rgb(38,46,52)" stroke="none" d="M 10529,16046 L 10329,16046 10294,16046 10529,16046 Z"/>
        <path fill="rgb(38,46,52)" stroke="none" d="M 11237,16046 L 11037,16046 11473,16046 11237,16046 Z"/>
        <path fill="rgb(38,46,52)" stroke="none" d="M 11473,16046 L 11274,16046 11237,16046 11473,16046 Z"/>
        <path fill="rgb(38,46,52)" stroke="none" d="M 10800,16046 L 10566,16046 11002,16046 10800,16046 Z"/>
        <path fill="rgb(38,46,52)" stroke="none" d="M 10566,16046 L 10800,16046 10765,16046 10566,16046 Z"/>
        <path fill="rgb(38,46,52)" stroke="none" d="M 9822,16046 L 9621,16046 10057,16046 9822,16046 Z"/>
        <path fill="rgb(38,46,52)" stroke="none" d="M 8085,16046 L 8085,16064 8407,16046 8085,16046 Z"/>
        <path fill="rgb(38,46,52)" stroke="none" d="M 8442,14593 L 8423,14593 8442,16046 8442,14593 Z"/>
        <path fill="rgb(38,46,52)" stroke="none" d="M 8416,14593 L 8442,16046 8423,14593 8416,14593 Z"/>
        <path fill="rgb(38,46,52)" stroke="none" d="M 8442,16046 L 8416,14593 8407,16046 8442,16046 Z"/>
        <path fill="rgb(38,46,52)" stroke="none" d="M 8407,14594 L 8407,16046 8416,14593 8407,14594 Z"/>
        <path fill="none" stroke="rgb(51,78,88)" stroke-width="0" stroke-linejoin="round" stroke-linecap="round" d="M 8407,14593 L 8407,16046"/>
        <path fill="none" stroke="rgb(51,78,88)" stroke-width="0" stroke-linejoin="round" stroke-linecap="round" d="M 10360,14750 L 8377,14750"/>
        <path fill="none" stroke="rgb(51,78,88)" stroke-width="0" stroke-linejoin="round" stroke-linecap="round" d="M 9699,14750 L 9699,14748"/>
        <path fill="none" stroke="rgb(51,78,88)" stroke-width="0" stroke-linejoin="round" stroke-linecap="round" d="M 9039,14750 L 9039,15166"/>
        <path fill="none" stroke="rgb(51,78,88)" stroke-width="0" stroke-linejoin="round" stroke-linecap="round" d="M 9699,14750 L 9699,15166"/>
        <path fill="rgb(213,51,42)" stroke="none" d="M 8708,14957 L 9039,14750 8377,14750 8708,14957 Z"/>
        <path fill="rgb(213,51,42)" stroke="none" d="M 8708,14957 L 8377,14750 8377,15166 8708,14957 Z"/>
        <path fill="rgb(213,51,42)" stroke="none" d="M 8708,14957 L 8377,15166 9039,15166 8708,14957 Z"/>
        <path fill="rgb(213,51,42)" stroke="none" d="M 8708,14957 L 9039,15166 9039,14750 8708,14957 Z"/>
        <path fill="rgb(213,51,42)" stroke="none" d="M 10030,14957 L 10360,14750 9699,14750 10030,14957 Z"/>
        <path fill="rgb(213,51,42)" stroke="none" d="M 10030,14957 L 9699,14750 9699,15166 10030,14957 Z"/>
        <path fill="rgb(213,51,42)" stroke="none" d="M 10030,14957 L 9699,15166 10360,15166 10030,14957 Z"/>
        <path fill="rgb(213,51,42)" stroke="none" d="M 10030,14957 L 10360,15166 10360,14750 10030,14957 Z"/>
        <path fill="none" stroke="rgb(51,78,88)" stroke-width="0" stroke-linejoin="round" stroke-linecap="round" d="M 8377,14750 L 10360,14750"/>
        <path fill="none" stroke="rgb(51,78,88)" stroke-width="0" stroke-linejoin="round" stroke-linecap="round" d="M 12059,14750 L 12059,14748"/>
        <path fill="none" stroke="rgb(51,78,88)" stroke-width="0" stroke-linejoin="round" stroke-linecap="round" d="M 11397,14750 L 11397,15166"/>
        <path fill="none" stroke="rgb(51,78,88)" stroke-width="0" stroke-linejoin="round" stroke-linecap="round" d="M 12059,14750 L 12059,15166"/>
        <path fill="rgb(213,51,42)" stroke="none" d="M 11067,14957 L 11397,14750 10736,14750 11067,14957 Z"/>
        <path fill="rgb(213,51,42)" stroke="none" d="M 11067,14957 L 10736,14750 10736,15166 11067,14957 Z"/>
        <path fill="rgb(213,51,42)" stroke="none" d="M 11067,14957 L 10736,15166 11397,15166 11067,14957 Z"/>
        <path fill="rgb(213,51,42)" stroke="none" d="M 11067,14957 L 11397,15166 11397,14750 11067,14957 Z"/>
        <path fill="rgb(213,51,42)" stroke="none" d="M 12390,14957 L 12721,14750 12059,14750 12390,14957 Z"/>
        <path fill="rgb(213,51,42)" stroke="none" d="M 12390,14957 L 12059,14750 12059,15166 12390,14957 Z"/>
        <path fill="rgb(213,51,42)" stroke="none" d="M 12390,14957 L 12059,15166 12721,15166 12390,14957 12390,14957 Z"/>
        <path fill="rgb(213,51,42)" stroke="none" d="M 12390,14957 L 12721,15166 12721,14750 12390,14957 Z"/>
        <path fill="none" stroke="rgb(51,78,88)" stroke-width="0" stroke-linejoin="round" stroke-linecap="round" d="M 11508,15166 L 11508,16046"/>
        <path fill="none" stroke="rgb(51,78,88)" stroke-width="0" stroke-linejoin="round" stroke-linecap="round" d="M 11473,15166 L 11473,16046"/>
        <path fill="none" stroke="rgb(51,78,88)" stroke-width="0" stroke-linejoin="round" stroke-linecap="round" d="M 11745,14593 L 11745,14750"/>
        <path fill="none" stroke="rgb(51,78,88)" stroke-width="0" stroke-linejoin="round" stroke-linecap="round" d="M 11710,14593 L 11710,14750"/>
        <path fill="none" stroke="rgb(51,78,88)" stroke-width="0" stroke-linejoin="round" stroke-linecap="round" d="M 11745,15166 L 11745,16046"/>
        <path fill="none" stroke="rgb(51,78,88)" stroke-width="0" stroke-linejoin="round" stroke-linecap="round" d="M 11710,15166 L 11710,16046"/>
        <path fill="none" stroke="rgb(51,78,88)" stroke-width="0" stroke-linejoin="round" stroke-linecap="round" d="M 11982,14593 L 11982,14750"/>
        <path fill="none" stroke="rgb(51,78,88)" stroke-width="0" stroke-linejoin="round" stroke-linecap="round" d="M 11944,14593 L 11944,14750"/>
        <path fill="none" stroke="rgb(51,78,88)" stroke-width="0" stroke-linejoin="round" stroke-linecap="round" d="M 11982,15166 L 11982,16046"/>
        <path fill="none" stroke="rgb(51,78,88)" stroke-width="0" stroke-linejoin="round" stroke-linecap="round" d="M 11944,15166 L 11944,16046"/>
        <path fill="none" stroke="rgb(51,78,88)" stroke-width="0" stroke-linejoin="round" stroke-linecap="round" d="M 9150,14593 L 9150,14750"/>
        <path fill="none" stroke="rgb(51,78,88)" stroke-width="0" stroke-linejoin="round" stroke-linecap="round" d="M 9114,14593 L 9114,14750"/>
        <path fill="none" stroke="rgb(51,78,88)" stroke-width="0" stroke-linejoin="round" stroke-linecap="round" d="M 9150,15166 L 9150,16046"/>
        <path fill="none" stroke="rgb(51,78,88)" stroke-width="0" stroke-linejoin="round" stroke-linecap="round" d="M 9114,15166 L 9114,16046"/>
        <path fill="none" stroke="rgb(51,78,88)" stroke-width="0" stroke-linejoin="round" stroke-linecap="round" d="M 9386,14593 L 9386,14750"/>
        <path fill="none" stroke="rgb(51,78,88)" stroke-width="0" stroke-linejoin="round" stroke-linecap="round" d="M 9349,14593 L 9349,14750"/>
        <path fill="none" stroke="rgb(51,78,88)" stroke-width="0" stroke-linejoin="round" stroke-linecap="round" d="M 9386,15166 L 9386,16046"/>
        <path fill="none" stroke="rgb(51,78,88)" stroke-width="0" stroke-linejoin="round" stroke-linecap="round" d="M 9349,15166 L 9349,16046"/>
        <path fill="none" stroke="rgb(51,78,88)" stroke-width="0" stroke-linejoin="round" stroke-linecap="round" d="M 9621,14593 L 9621,14750"/>
        <path fill="none" stroke="rgb(51,78,88)" stroke-width="0" stroke-linejoin="round" stroke-linecap="round" d="M 9586,14593 L 9586,14750"/>
        <path fill="none" stroke="rgb(51,78,88)" stroke-width="0" stroke-linejoin="round" stroke-linecap="round" d="M 9621,15166 L 9621,16046"/>
        <path fill="none" stroke="rgb(51,78,88)" stroke-width="0" stroke-linejoin="round" stroke-linecap="round" d="M 9586,15166 L 9586,16046"/>
        <path fill="rgb(38,46,52)" stroke="none" d="M 9349,16046 L 9386,15166 9349,15166 9349,16046 Z"/>
        <path fill="rgb(38,46,52)" stroke="none" d="M 9386,15166 L 9349,16046 9386,16046 9386,15166 Z"/>
        <path fill="rgb(38,46,52)" stroke="none" d="M 9150,16046 L 9150,15166 9114,15166 9150,16046 Z"/>
        <path fill="rgb(38,46,52)" stroke="none" d="M 9114,15166 L 9114,16046 9150,16046 9114,15166 Z"/>
        <path fill="rgb(38,46,52)" stroke="none" d="M 9621,15166 L 9586,16046 9621,16046 9621,15166 Z"/>
        <path fill="rgb(38,46,52)" stroke="none" d="M 9586,15166 L 9586,16046 9621,15166 9586,15166 Z"/>
        <path fill="rgb(38,46,52)" stroke="none" d="M 9349,14593 L 9349,14750 9386,14750 9349,14593 Z"/>
        <path fill="rgb(38,46,52)" stroke="none" d="M 9386,14593 L 9349,14593 9386,14750 9386,14593 Z"/>
        <path fill="rgb(38,46,52)" stroke="none" d="M 9150,14750 L 9150,14593 9114,14593 9150,14750 Z"/>
        <path fill="rgb(38,46,52)" stroke="none" d="M 9114,14593 L 9114,14750 9150,14750 9114,14593 Z"/>
        <path fill="rgb(38,46,52)" stroke="none" d="M 9586,14593 L 9586,14750 9621,14750 9586,14593 Z"/>
        <path fill="rgb(38,46,52)" stroke="none" d="M 9621,14593 L 9586,14593 9621,14750 9621,14593 Z"/>
        <path fill="rgb(38,46,52)" stroke="none" d="M 11944,15166 L 11944,16046 11982,16046 11944,15166 Z"/>
        <path fill="rgb(38,46,52)" stroke="none" d="M 11982,15166 L 11944,15166 11982,16046 11982,15166 Z"/>
        <path fill="rgb(38,46,52)" stroke="none" d="M 11745,16046 L 11745,15166 11710,15166 11745,16046 Z"/>
        <path fill="rgb(38,46,52)" stroke="none" d="M 11710,15166 L 11710,16046 11745,16046 11710,15166 Z"/>
        <path fill="rgb(38,46,52)" stroke="none" d="M 11508,15166 L 11473,16046 11508,16046 11508,15166 Z"/>
        <path fill="rgb(38,46,52)" stroke="none" d="M 11473,15166 L 11473,16046 11508,15166 11473,15166 Z"/>
        <path fill="rgb(38,46,52)" stroke="none" d="M 11508,14593 L 11473,14750 11508,14750 11508,14593 Z"/>
        <path fill="rgb(38,46,52)" stroke="none" d="M 11473,14593 L 11473,14750 11508,14593 11473,14593 Z"/>
        <path fill="rgb(38,46,52)" stroke="none" d="M 11982,14593 L 11944,14750 11982,14750 11982,14593 Z"/>
        <path fill="rgb(38,46,52)" stroke="none" d="M 11745,14593 L 11710,14750 11745,14750 11745,14593 Z"/>
        <path fill="rgb(38,46,52)" stroke="none" d="M 11944,14593 L 11944,14750 11982,14593 11944,14593 Z"/>
        <path fill="rgb(38,46,52)" stroke="none" d="M 11710,14593 L 11710,14750 11745,14593 11710,14593 Z"/>
        <path fill="rgb(38,46,52)" stroke="none" d="M 12652,15166 L 12652,16046 12689,16046 12652,15166 Z"/>
        <path fill="rgb(38,46,52)" stroke="none" d="M 12689,15166 L 12652,15166 12689,16046 12689,15166 Z"/>
        <path fill="rgb(38,46,52)" stroke="none" d="M 12216,15166 L 12181,16046 12216,16046 12216,15166 Z"/>
        <path fill="rgb(38,46,52)" stroke="none" d="M 12453,15166 L 12418,16046 12453,16046 12453,15166 Z"/>
        <path fill="rgb(38,46,52)" stroke="none" d="M 12418,15166 L 12418,16046 12453,15166 12418,15166 Z"/>
        <path fill="rgb(38,46,52)" stroke="none" d="M 12181,15166 L 12181,16046 12216,15166 12181,15166 Z"/>
        <path fill="rgb(38,46,52)" stroke="none" d="M 12689,14594 L 12652,14750 12689,14750 12689,14594 Z"/>
        <path fill="rgb(38,46,52)" stroke="none" d="M 12680,14593 L 12652,14750 12689,14594 12680,14593 Z"/>
        <path fill="rgb(38,46,52)" stroke="none" d="M 12418,14750 L 12453,14593 12418,14593 12418,14750 Z"/>
        <path fill="rgb(38,46,52)" stroke="none" d="M 12453,14593 L 12418,14750 12453,14750 12453,14593 Z"/>
        <path fill="rgb(38,46,52)" stroke="none" d="M 12216,14593 L 12181,14750 12216,14750 12216,14593 Z"/>
        <path fill="rgb(38,46,52)" stroke="none" d="M 12652,14593 L 12652,14750 12680,14593 12652,14593 Z"/>
        <path fill="rgb(38,46,52)" stroke="none" d="M 12671,14593 L 12652,14593 12680,14593 12671,14593 Z"/>
        <path fill="rgb(38,46,52)" stroke="none" d="M 12181,14593 L 12181,14750 12216,14593 12181,14593 Z"/>
        <path fill="none" stroke="rgb(51,78,88)" stroke-width="0" stroke-linejoin="round" stroke-linecap="round" d="M 8377,14750 L 8377,15166 10360,15166 10360,14750"/>
        <path fill="rgb(38,46,52)" stroke="none" d="M 8678,16046 L 8678,15166 8641,15166 8678,16046 Z"/>
        <path fill="rgb(38,46,52)" stroke="none" d="M 8641,15166 L 8641,16046 8678,16046 8641,15166 Z"/>
        <path fill="rgb(38,46,52)" stroke="none" d="M 8913,16046 L 8913,15166 8878,15166 8913,16046 Z"/>
        <path fill="rgb(38,46,52)" stroke="none" d="M 8878,15166 L 8878,16046 8913,16046 8878,15166 Z"/>
        <path fill="rgb(38,46,52)" stroke="none" d="M 8641,14593 L 8641,14750 8678,14750 8641,14593 Z"/>
        <path fill="rgb(38,46,52)" stroke="none" d="M 8678,14593 L 8641,14593 8678,14750 8678,14593 Z"/>
        <path fill="rgb(38,46,52)" stroke="none" d="M 8913,14750 L 8913,14593 8878,14593 8913,14750 Z"/>
        <path fill="rgb(38,46,52)" stroke="none" d="M 8878,14593 L 8878,14750 8913,14750 8878,14593 Z"/>
        <path fill="none" stroke="rgb(51,78,88)" stroke-width="0" stroke-linejoin="round" stroke-linecap="round" d="M 12721,14750 L 10736,14750 10736,15166 12721,15166 12721,14750 10736,14750"/>
        <path fill="rgb(38,46,52)" stroke="none" d="M 9822,16046 L 9857,15166 9822,15166 9822,16046 Z"/>
        <path fill="rgb(38,46,52)" stroke="none" d="M 9857,15166 L 9822,16046 9857,16046 9857,15166 Z"/>
        <path fill="rgb(38,46,52)" stroke="none" d="M 10094,15166 L 10057,16046 10094,16046 10094,15166 Z"/>
        <path fill="rgb(38,46,52)" stroke="none" d="M 10057,15166 L 10057,16046 10094,15166 10057,15166 Z"/>
        <path fill="rgb(38,46,52)" stroke="none" d="M 10329,15166 L 10294,16046 10329,16046 10329,15166 Z"/>
        <path fill="rgb(38,46,52)" stroke="none" d="M 10294,15166 L 10294,16046 10329,15166 10294,15166 Z"/>
        <path fill="rgb(38,46,52)" stroke="none" d="M 9857,14750 L 9857,14593 9822,14593 9857,14750 Z"/>
        <path fill="rgb(38,46,52)" stroke="none" d="M 9822,14593 L 9822,14750 9857,14750 9822,14593 Z"/>
        <path fill="rgb(38,46,52)" stroke="none" d="M 10057,14750 L 10094,14593 10057,14593 10057,14750 Z"/>
        <path fill="rgb(38,46,52)" stroke="none" d="M 10094,14593 L 10057,14750 10094,14750 10094,14593 Z"/>
        <path fill="rgb(38,46,52)" stroke="none" d="M 10329,14750 L 10329,14593 10294,14593 10329,14750 Z"/>
        <path fill="rgb(38,46,52)" stroke="none" d="M 10294,14593 L 10294,14750 10329,14750 10294,14593 Z"/>
        <path fill="rgb(38,46,52)" stroke="none" d="M 10800,16046 L 10800,15166 10765,15166 10800,16046 Z"/>
        <path fill="rgb(38,46,52)" stroke="none" d="M 10765,15166 L 10765,16046 10800,16046 10765,15166 Z"/>
        <path fill="rgb(38,46,52)" stroke="none" d="M 11037,15166 L 11002,16046 11037,16046 11037,15166 Z"/>
        <path fill="rgb(38,46,52)" stroke="none" d="M 11237,15166 L 11237,16046 11274,16046 11237,15166 Z"/>
        <path fill="rgb(38,46,52)" stroke="none" d="M 11002,15166 L 11002,16046 11037,15166 11002,15166 Z"/>
        <path fill="rgb(38,46,52)" stroke="none" d="M 11274,15166 L 11237,15166 11274,16046 11274,15166 Z"/>
        <path fill="rgb(38,46,52)" stroke="none" d="M 11037,14750 L 11037,14593 11002,14593 11037,14750 Z"/>
        <path fill="rgb(38,46,52)" stroke="none" d="M 11002,14593 L 11002,14750 11037,14750 11002,14593 Z"/>
        <path fill="rgb(38,46,52)" stroke="none" d="M 11274,14593 L 11237,14750 11274,14750 11274,14593 Z"/>
        <path fill="rgb(38,46,52)" stroke="none" d="M 10800,14750 L 10800,14593 10765,14593 10800,14750 Z"/>
        <path fill="rgb(38,46,52)" stroke="none" d="M 10765,14593 L 10765,14750 10800,14750 10765,14593 Z"/>
        <path fill="rgb(38,46,52)" stroke="none" d="M 11237,14593 L 11237,14750 11274,14593 11237,14593 Z"/>
        <path fill="rgb(38,46,52)" stroke="none" d="M 10547,15319 L 10566,14593 10529,14593 10547,15319 Z"/>
        <path fill="rgb(38,46,52)" stroke="none" d="M 10547,15319 L 10529,14593 10529,16046 10547,15319 Z"/>
        <path fill="rgb(38,46,52)" stroke="none" d="M 10547,15319 L 10529,16046 10566,16046 10547,15319 Z"/>
        <path fill="rgb(38,46,52)" stroke="none" d="M 10547,15319 L 10566,16046 10566,14593 10547,15319 Z"/>
        <path fill="rgb(255,255,255)" stroke="none" d="M 10555,13155 L 10591,13156 10627,13159 10662,13163 10697,13170 10730,13177 10763,13187 10796,13198 10828,13210 10859,13224 10889,13240 10918,13257 10947,13275 10974,13294 11001,13315 11026,13337 11051,13360 11074,13385 11096,13410 11117,13437 11136,13464 11154,13492 11171,13522 11187,13552 11201,13583 11213,13615 11224,13647 11234,13681 11241,13714 11247,13749 11252,13784 11255,13819 11255,13855 11255,13892 11252,13927 11247,13962 11241,13997 11234,14031 11224,14064 11213,14096 11201,14128 11187,14159 11171,14189 11154,14219 11136,14247 11117,14275 11096,14301 11074,14326 11051,14351 11026,14374 11001,14396 10974,14417 10947,14436 10918,14454 10889,14471 10859,14487 10828,14501 10796,14513 10763,14524 10730,14534 10697,14542 10662,14548 10627,14552 10591,14555 10555,14556 10519,14555 10484,14552 10449,14548 10414,14542 10380,14534 10347,14524 10314,14513 10283,14501 10252,14487 10221,14471 10192,14454 10164,14436 10136,14417 10110,14396 10085,14374 10060,14351 10037,14326 10015,14301 9994,14275 9974,14247 9956,14219 9939,14189 9924,14159 9910,14128 9897,14096 9887,14064 9877,14031 9869,13997 9863,13962 9859,13927 9856,13892 9855,13855 9856,13819 9859,13784 9863,13749 9869,13714 9877,13681 9887,13647 9897,13615 9910,13583 9924,13552 9939,13522 9956,13492 9974,13464 9994,13437 10015,13410 10037,13385 10060,13360 10085,13337 10110,13315 10136,13294 10164,13275 10192,13257 10221,13240 10252,13224 10283,13210 10314,13198 10347,13187 10380,13177 10414,13170 10449,13163 10484,13159 10519,13156 10555,13155 Z"/>
        <path fill="none" stroke="rgb(41,55,58)" stroke-width="0" stroke-linejoin="round" stroke-linecap="round" d="M 10555,13155 L 10591,13156 10627,13159 10662,13163 10697,13170 10730,13177 10763,13187 10796,13198 10828,13210 10859,13224 10889,13240 10918,13257 10947,13275 10974,13294 11001,13315 11026,13337 11051,13360 11074,13385 11096,13410 11117,13437 11136,13464 11154,13492 11171,13522 11187,13552 11201,13583 11213,13615 11224,13647 11234,13681 11241,13714 11247,13749 11252,13784 11255,13819 11255,13855 11255,13892 11252,13927 11247,13962 11241,13997 11234,14031 11224,14064 11213,14096 11201,14128 11187,14159 11171,14189 11154,14219 11136,14247 11117,14275 11096,14301 11074,14326 11051,14351 11026,14374 11001,14396 10974,14417 10947,14436 10918,14454 10889,14471 10859,14487 10828,14501 10796,14513 10763,14524 10730,14534 10697,14542 10662,14548 10627,14552 10591,14555 10555,14556 10519,14555 10484,14552 10449,14548 10414,14542 10380,14534 10347,14524 10314,14513 10283,14501 10252,14487 10221,14471 10192,14454 10164,14436 10136,14417 10110,14396 10085,14374 10060,14351 10037,14326 10015,14301 9994,14275 9974,14247 9956,14219 9939,14189 9924,14159 9910,14128 9897,14096 9887,14064 9877,14031 9869,13997 9863,13962 9859,13927 9856,13892 9855,13855 9856,13819 9859,13784 9863,13749 9869,13714 9877,13681 9887,13647 9897,13615 9910,13583 9924,13552 9939,13522 9956,13492 9974,13464 9994,13437 10015,13410 10037,13385 10060,13360 10085,13337 10110,13315 10136,13294 10164,13275 10192,13257 10221,13240 10252,13224 10283,13210 10314,13198 10347,13187 10380,13177 10414,13170 10449,13163 10484,13159 10519,13156 10555,13155 Z"/>
        <path fill="rgb(0,88,154)" stroke="none" d="M 10555,13179 L 10564,13179 10572,13179 10581,13179 10590,13180 10598,13180 10606,13181 10615,13181 10623,13182 10632,13183 10640,13184 10649,13185 10657,13186 10665,13187 10673,13189 10682,13190 10690,13192 10698,13194 10707,13196 10715,13197 10723,13199 10731,13201 10739,13204 10747,13206 10755,13209 10763,13211 10771,13214 10779,13216 10787,13219 10795,13222 10803,13226 10811,13229 10819,13232 10826,13235 10834,13238 10841,13242 10849,13245 10856,13249 10863,13252 10870,13256 10878,13260 10885,13264 10892,13268 10899,13272 10906,13276 10913,13281 10920,13285 10926,13289 10933,13294 10940,13298 10947,13303 10953,13308 10960,13313 10966,13318 10973,13323 10979,13328 10986,13333 10991,13338 10998,13343 11004,13349 11010,13354 11016,13360 11022,13365 11028,13371 11034,13377 11040,13383 11046,13389 11051,13395 11057,13401 11062,13407 11067,13413 11073,13419 11078,13425 11083,13432 11088,13438 11093,13444 11098,13451 11103,13458 11108,13464 11113,13471 11117,13478 11122,13484 11126,13491 11130,13498 11134,13505 11139,13512 11143,13519 11147,13526 11151,13533 11154,13540 11158,13547 11162,13555 11165,13562 11169,13570 11173,13577 11176,13585 11179,13592 11182,13600 11185,13608 11189,13616 11192,13624 11194,13632 11197,13640 11200,13648 11202,13656 11205,13664 11207,13672 11209,13680 11211,13688 11214,13696 11215,13704 11217,13713 11219,13721 11221,13729 11222,13737 11224,13746 11225,13754 11226,13762 11227,13771 11228,13779 11229,13787 11230,13796 11230,13804 11231,13813 11231,13821 11232,13830 11232,13838 11232,13847 11232,13855 11232,13864 11232,13873 11232,13881 11231,13890 11231,13898 11230,13907 11230,13915 11229,13924 11228,13932 11227,13941 11226,13949 11225,13957 11224,13966 11222,13974 11221,13982 11219,13990 11217,13999 11215,14007 11214,14015 11211,14023 11209,14031 11207,14039 11205,14047 11202,14056 11200,14063 11197,14072 11194,14079 11192,14087 11189,14095 11185,14103 11182,14111 11179,14119 11176,14127 11173,14134 11169,14142 11165,14149 11162,14156 11158,14164 11154,14171 11151,14178 11147,14185 11143,14192 11139,14199 11134,14206 11130,14213 11126,14220 11122,14227 11117,14234 11113,14240 11108,14247 11103,14254 11098,14260 11093,14266 11088,14273 11083,14279 11078,14286 11073,14292 11067,14298 11062,14304 11057,14310 11051,14316 11046,14322 11040,14328 11034,14334 11028,14340 11022,14346 11016,14351 11010,14357 11004,14362 10998,14368 10991,14373 10986,14378 10979,14384 10973,14389 10966,14394 10960,14399 10953,14403 10947,14408 10940,14413 10933,14417 10926,14422 10920,14426 10913,14431 10906,14435 10899,14439 10892,14443 10885,14447 10878,14451 10870,14455 10863,14459 10856,14462 10849,14466 10841,14469 10834,14473 10826,14476 10819,14479 10811,14483 10803,14486 10795,14489 10787,14492 10779,14495 10771,14498 10763,14500 10755,14503 10747,14505 10739,14507 10731,14510 10723,14512 10715,14514 10707,14516 10698,14518 10690,14519 10682,14521 10673,14522 10665,14524 10657,14525 10649,14526 10640,14527 10632,14528 10623,14529 10615,14530 10606,14531 10598,14531 10590,14532 10581,14532 10572,14532 10564,14533 10555,14533 10547,14533 10538,14532 10530,14532 10521,14532 10512,14531 10504,14531 10495,14530 10487,14529 10479,14528 10470,14527 10462,14526 10454,14525 10445,14524 10437,14522 10429,14521 10420,14519 10412,14518 10404,14516 10396,14514 10388,14512 10380,14510 10372,14507 10363,14505 10355,14503 10348,14500 10339,14498 10331,14495 10323,14492 10316,14489 10307,14486 10300,14483 10292,14479 10284,14476 10277,14473 10269,14469 10262,14466 10254,14462 10247,14459 10240,14455 10233,14451 10226,14447 10219,14443 10211,14439 10205,14435 10198,14431 10191,14426 10184,14422 10177,14417 10171,14413 10164,14408 10157,14403 10151,14399 10144,14394 10138,14389 10131,14384 10125,14378 10119,14373 10113,14368 10107,14362 10100,14357 10095,14351 10088,14346 10083,14340 10077,14334 10071,14328 10065,14322 10059,14316 10054,14310 10048,14304 10043,14298 10038,14292 10032,14286 10027,14279 10022,14273 10017,14266 10012,14260 10007,14254 10003,14247 9998,14240 9993,14234 9989,14227 9984,14220 9980,14213 9976,14206 9972,14199 9968,14192 9964,14185 9960,14178 9956,14171 9952,14164 9948,14156 9945,14149 9942,14142 9938,14134 9935,14127 9932,14119 9928,14111 9925,14103 9922,14095 9919,14087 9916,14079 9913,14072 9911,14063 9908,14056 9906,14047 9903,14039 9901,14031 9899,14023 9897,14015 9895,14007 9893,13999 9892,13990 9890,13982 9888,13974 9887,13966 9886,13957 9885,13949 9883,13941 9882,13932 9882,13924 9881,13915 9880,13907 9880,13898 9879,13890 9879,13881 9878,13873 9878,13864 9878,13855 9878,13847 9878,13838 9879,13830 9879,13821 9880,13813 9880,13804 9881,13796 9882,13787 9882,13779 9883,13771 9885,13762 9886,13754 9887,13746 9888,13737 9890,13729 9892,13721 9893,13713 9895,13704 9897,13696 9899,13688 9901,13680 9903,13672 9906,13664 9908,13656 9911,13648 9913,13640 9916,13632 9919,13624 9922,13616 9925,13608 9928,13600 9932,13592 9935,13585 9938,13577 9942,13570 9945,13562 9948,13555 9952,13547 9956,13540 9960,13533 9964,13526 9968,13519 9972,13512 9976,13505 9980,13498 9984,13491 9989,13484 9993,13478 9998,13471 10003,13464 10007,13458 10012,13451 10017,13444 10022,13438 10027,13432 10032,13425 10038,13419 10043,13413 10048,13407 10054,13401 10059,13395 10065,13389 10071,13383 10077,13377 10083,13371 10088,13365 10095,13360 10100,13354 10107,13349 10113,13343 10119,13338 10125,13333 10131,13328 10138,13323 10144,13318 10151,13313 10157,13308 10164,13303 10171,13298 10177,13294 10184,13289 10191,13285 10198,13281 10205,13276 10211,13272 10219,13268 10226,13264 10233,13260 10240,13256 10247,13252 10254,13249 10262,13245 10269,13242 10277,13238 10284,13235 10292,13232 10300,13229 10307,13226 10316,13222 10323,13219 10331,13216 10339,13214 10348,13211 10355,13209 10363,13206 10372,13204 10380,13201 10388,13199 10396,13197 10404,13196 10412,13194 10420,13192 10429,13190 10437,13189 10445,13187 10454,13186 10462,13185 10470,13184 10479,13183 10487,13182 10495,13181 10504,13181 10512,13180 10521,13180 10530,13179 10538,13179 10547,13179 10555,13179 Z"/>
        <path fill="rgb(255,255,255)" stroke="none" d="M 11150,13856 L 11150,13854 11150,13853 11150,13851 11150,13850 11149,13849 11149,13847 11148,13846 11148,13845 11147,13844 11146,13842 11145,13841 11144,13840 11143,13839 11143,13838 11142,13837 11140,13836 10766,13580 10764,13579 10763,13578 10761,13577 10760,13576 10758,13576 10757,13576 10755,13576 10753,13576 10752,13576 10751,13576 10749,13576 10748,13576 10747,13576 10746,13576 10745,13577 10744,13577 10743,13578 10742,13578 10741,13579 10740,13579 10739,13580 10739,13581 10738,13581 10737,13582 10736,13583 10736,13584 10735,13585 10734,13586 10734,13586 10733,13587 10733,13588 10732,13590 10732,13591 10732,13591 10731,13593 10731,13594 10731,13595 10731,13596 10731,13597 10731,13598 10731,13600 10731,13601 10731,13602 10731,13604 10760,13769 9983,13716 9983,13995 10760,13942 10731,14107 10731,14108 10731,14110 10731,14111 10731,14113 10731,14114 10731,14115 10731,14116 10731,14118 10731,14118 10732,14120 10732,14121 10732,14122 10733,14123 10733,14124 10734,14125 10734,14126 10735,14127 10736,14128 10737,14128 10737,14129 10738,14130 10739,14130 10740,14131 10741,14132 10742,14133 10742,14133 10743,14133 10744,14134 10745,14134 10746,14135 10748,14135 10748,14135 10750,14135 10751,14136 10752,14136 10753,14136 10755,14136 10757,14135 10758,14135 10760,14135 10761,14134 10763,14133 10764,14133 10766,14132 11141,13875 11142,13874 11143,13873 11144,13872 11145,13871 11145,13870 11146,13869 11147,13868 11148,13867 11148,13865 11149,13864 11149,13863 11150,13861 11150,13860 11150,13859 11150,13857 11150,13856 Z"/>
       </g>
      </g>
     </g>
    </g>
   </g>
  </g>
 </g>
</svg>