<?xml version="1.0" encoding="UTF-8"?>
<!DOCTYPE svg PUBLIC "-//W3C//DTD SVG 1.1//EN" "http://www.w3.org/Graphics/SVG/1.1/DTD/svg11.dtd">
<svg version="1.2" width="50.03mm" height="41.47mm" viewBox="8046 12834 5003 4147" preserveAspectRatio="xMidYMid" fill-rule="evenodd" stroke-width="28.222" stroke-linejoin="round" xmlns="http://www.w3.org/2000/svg" xmlns:ooo="http://xml.openoffice.org/svg/export" xmlns:xlink="http://www.w3.org/1999/xlink" xmlns:presentation="http://sun.com/xmlns/staroffice/presentation" xmlns:smil="http://www.w3.org/2001/SMIL20/" xmlns:anim="urn:oasis:names:tc:opendocument:xmlns:animation:1.0" xml:space="preserve">
 <defs class="ClipPathGroup">
  <clipPath id="presentation_clip_path" clipPathUnits="userSpaceOnUse">
   <rect x="8046" y="12834" width="5003" height="4147"/>
  </clipPath>
  <clipPath id="presentation_clip_path_shrink" clipPathUnits="userSpaceOnUse">
   <rect x="8051" y="12838" width="4993" height="4139"/>
  </clipPath>
 </defs>
 <defs class="TextShapeIndex">
  <g ooo:slide="id1" ooo:id-list="id3"/>
 </defs>
 <defs class="EmbeddedBulletChars">
  <g id="bullet-char-template-57356" transform="scale(0.00048828125,-0.00048828125)">
   <path d="M 580,1141 L 1163,571 580,0 -4,571 580,1141 Z"/>
  </g>
  <g id="bullet-char-template-57354" transform="scale(0.00048828125,-0.00048828125)">
   <path d="M 8,1128 L 1137,1128 1137,0 8,0 8,1128 Z"/>
  </g>
  <g id="bullet-char-template-10146" transform="scale(0.00048828125,-0.00048828125)">
   <path d="M 174,0 L 602,739 174,1481 1456,739 174,0 Z M 1358,739 L 309,1346 659,739 1358,739 Z"/>
  </g>
  <g id="bullet-char-template-10132" transform="scale(0.00048828125,-0.00048828125)">
   <path d="M 2015,739 L 1276,0 717,0 1260,543 174,543 174,936 1260,936 717,1481 1274,1481 2015,739 Z"/>
  </g>
  <g id="bullet-char-template-10007" transform="scale(0.00048828125,-0.00048828125)">
   <path d="M 0,-2 C -7,14 -16,27 -25,37 L 356,567 C 262,823 215,952 215,954 215,979 228,992 255,992 264,992 276,990 289,987 310,991 331,999 354,1012 L 381,999 492,748 772,1049 836,1024 860,1049 C 881,1039 901,1025 922,1006 886,937 835,863 770,784 769,783 710,716 594,584 L 774,223 C 774,196 753,168 711,139 L 727,119 C 717,90 699,76 672,76 641,76 570,178 457,381 L 164,-76 C 142,-110 111,-127 72,-127 30,-127 9,-110 8,-76 1,-67 -2,-52 -2,-32 -2,-23 -1,-13 0,-2 Z"/>
  </g>
  <g id="bullet-char-template-10004" transform="scale(0.00048828125,-0.00048828125)">
   <path d="M 285,-33 C 182,-33 111,30 74,156 52,228 41,333 41,471 41,549 55,616 82,672 116,743 169,778 240,778 293,778 328,747 346,684 L 369,508 C 377,444 397,411 428,410 L 1163,1116 C 1174,1127 1196,1133 1229,1133 1271,1133 1292,1118 1292,1087 L 1292,965 C 1292,929 1282,901 1262,881 L 442,47 C 390,-6 338,-33 285,-33 Z"/>
  </g>
  <g id="bullet-char-template-9679" transform="scale(0.00048828125,-0.00048828125)">
   <path d="M 813,0 C 632,0 489,54 383,161 276,268 223,411 223,592 223,773 276,916 383,1023 489,1130 632,1184 813,1184 992,1184 1136,1130 1245,1023 1353,916 1407,772 1407,592 1407,412 1353,268 1245,161 1136,54 992,0 813,0 Z"/>
  </g>
  <g id="bullet-char-template-8226" transform="scale(0.00048828125,-0.00048828125)">
   <path d="M 346,457 C 273,457 209,483 155,535 101,586 74,649 74,723 74,796 101,859 155,911 209,963 273,989 346,989 419,989 480,963 531,910 582,859 608,796 608,723 608,648 583,586 532,535 482,483 420,457 346,457 Z"/>
  </g>
  <g id="bullet-char-template-8211" transform="scale(0.00048828125,-0.00048828125)">
   <path d="M -4,459 L 1135,459 1135,606 -4,606 -4,459 Z"/>
  </g>
  <g id="bullet-char-template-61548" transform="scale(0.00048828125,-0.00048828125)">
   <path d="M 173,740 C 173,903 231,1043 346,1159 462,1274 601,1332 765,1332 928,1332 1067,1274 1183,1159 1299,1043 1357,903 1357,740 1357,577 1299,437 1183,322 1067,206 928,148 765,148 601,148 462,206 346,322 231,437 173,577 173,740 Z"/>
  </g>
 </defs>
 <defs class="TextEmbeddedBitmaps"/>
 <g class="SlideGroup">
  <g>
   <g id="container-id1">
    <g id="id1" class="Slide" clip-path="url(#presentation_clip_path)">
     <g class="Page">
      <g class="Graphic">
       <g id="id3">
        <rect class="BoundingBox" stroke="none" fill="none" x="8046" y="12834" width="5004" height="4148"/>
        <path fill="rgb(255,255,255)" stroke="none" d="M 12431,15488 L 10772,15488 10772,15069 12431,15069 12431,15488 Z"/>
        <path fill="rgb(255,255,255)" stroke="none" d="M 10239,15488 L 8579,15488 8579,15067 10239,15067 10239,15488 Z"/>
        <path fill="none" stroke="rgb(51,78,88)" stroke-width="0" stroke-linejoin="round" stroke-linecap="round" d="M 13046,16383 L 13046,15253"/>
        <path fill="none" stroke="rgb(51,78,88)" stroke-width="0" stroke-linejoin="round" stroke-linecap="round" d="M 12673,14877 L 12724,14881 12778,14892 12828,14911 12874,14937 12916,14970 12956,15007 12987,15049 13013,15097 13032,15147 13042,15199 13046,15253"/>
        <path fill="none" stroke="rgb(51,78,88)" stroke-width="0" stroke-linejoin="round" stroke-linecap="round" d="M 12673,14877 L 8425,14877"/>
        <path fill="none" stroke="rgb(51,78,88)" stroke-width="0" stroke-linejoin="round" stroke-linecap="round" d="M 8050,15253 L 8054,15199 8064,15147 8085,15097 8109,15049 8142,15007 8179,14970 8222,14937 8270,14911 8320,14892 8372,14881 8425,14877"/>
        <path fill="none" stroke="rgb(51,78,88)" stroke-width="0" stroke-linejoin="round" stroke-linecap="round" d="M 8050,15253 L 8050,16383"/>
        <path fill="none" stroke="rgb(51,78,88)" stroke-width="0" stroke-linejoin="round" stroke-linecap="round" d="M 8087,16383 L 8087,16978"/>
        <path fill="none" stroke="rgb(51,78,88)" stroke-width="0" stroke-linejoin="round" stroke-linecap="round" d="M 8050,16383 L 8050,16978"/>
        <path fill="none" stroke="rgb(51,78,88)" stroke-width="0" stroke-linejoin="round" stroke-linecap="round" d="M 8087,16383 L 8087,15253 8089,15205 8100,15156 8116,15112 8140,15069 8168,15031 8203,14996 8242,14966 8285,14944 8329,14927 8377,14916 8425,14913 12673,14913 12721,14916 12767,14927 12813,14944 12855,14966 12895,14996 12928,15031 12957,15069 12982,15112 12998,15156 13007,15205 13011,15253"/>
        <path fill="none" stroke="rgb(51,78,88)" stroke-width="0" stroke-linejoin="round" stroke-linecap="round" d="M 8087,16402 L 13011,16402"/>
        <path fill="none" stroke="rgb(51,78,88)" stroke-width="0" stroke-linejoin="round" stroke-linecap="round" d="M 8087,16365 L 13011,16365"/>
        <path fill="none" stroke="rgb(51,78,88)" stroke-width="0" stroke-linejoin="round" stroke-linecap="round" d="M 13046,16383 L 13046,16978"/>
        <path fill="none" stroke="rgb(51,78,88)" stroke-width="0" stroke-linejoin="round" stroke-linecap="round" d="M 13011,16978 L 13011,16383 13011,15253"/>
        <path fill="none" stroke="rgb(51,78,88)" stroke-width="0" stroke-linejoin="round" stroke-linecap="round" d="M 12654,14913 L 12654,16365"/>
        <path fill="none" stroke="rgb(51,78,88)" stroke-width="0" stroke-linejoin="round" stroke-linecap="round" d="M 12418,14913 L 12418,16365"/>
        <path fill="none" stroke="rgb(51,78,88)" stroke-width="0" stroke-linejoin="round" stroke-linecap="round" d="M 12455,14913 L 12455,16365"/>
        <path fill="none" stroke="rgb(51,78,88)" stroke-width="0" stroke-linejoin="round" stroke-linecap="round" d="M 12183,14913 L 12183,16365"/>
        <path fill="none" stroke="rgb(51,78,88)" stroke-width="0" stroke-linejoin="round" stroke-linecap="round" d="M 12218,14913 L 12218,16365"/>
        <path fill="none" stroke="rgb(51,78,88)" stroke-width="0" stroke-linejoin="round" stroke-linecap="round" d="M 11239,14913 L 11239,16365"/>
        <path fill="none" stroke="rgb(51,78,88)" stroke-width="0" stroke-linejoin="round" stroke-linecap="round" d="M 11274,14913 L 11274,16365"/>
        <path fill="none" stroke="rgb(51,78,88)" stroke-width="0" stroke-linejoin="round" stroke-linecap="round" d="M 11002,14913 L 11002,16365"/>
        <path fill="none" stroke="rgb(51,78,88)" stroke-width="0" stroke-linejoin="round" stroke-linecap="round" d="M 11039,14913 L 11039,16365"/>
        <path fill="none" stroke="rgb(51,78,88)" stroke-width="0" stroke-linejoin="round" stroke-linecap="round" d="M 10767,14913 L 10767,16365"/>
        <path fill="none" stroke="rgb(51,78,88)" stroke-width="0" stroke-linejoin="round" stroke-linecap="round" d="M 10802,14913 L 10802,16365"/>
        <path fill="none" stroke="rgb(51,78,88)" stroke-width="0" stroke-linejoin="round" stroke-linecap="round" d="M 10530,14913 L 10530,16365"/>
        <path fill="none" stroke="rgb(51,78,88)" stroke-width="0" stroke-linejoin="round" stroke-linecap="round" d="M 10567,14913 L 10567,16365"/>
        <path fill="none" stroke="rgb(51,78,88)" stroke-width="0" stroke-linejoin="round" stroke-linecap="round" d="M 10296,14913 L 10296,16365"/>
        <path fill="none" stroke="rgb(51,78,88)" stroke-width="0" stroke-linejoin="round" stroke-linecap="round" d="M 10331,14913 L 10331,16365"/>
        <path fill="none" stroke="rgb(51,78,88)" stroke-width="0" stroke-linejoin="round" stroke-linecap="round" d="M 10059,14913 L 10059,16365"/>
        <path fill="none" stroke="rgb(51,78,88)" stroke-width="0" stroke-linejoin="round" stroke-linecap="round" d="M 10094,14913 L 10094,16365"/>
        <path fill="none" stroke="rgb(51,78,88)" stroke-width="0" stroke-linejoin="round" stroke-linecap="round" d="M 9822,14913 L 9822,16365"/>
        <path fill="none" stroke="rgb(51,78,88)" stroke-width="0" stroke-linejoin="round" stroke-linecap="round" d="M 9859,14913 L 9859,16365"/>
        <path fill="none" stroke="rgb(51,78,88)" stroke-width="0" stroke-linejoin="round" stroke-linecap="round" d="M 9588,14913 L 9588,15069"/>
        <path fill="none" stroke="rgb(51,78,88)" stroke-width="0" stroke-linejoin="round" stroke-linecap="round" d="M 9623,14913 L 9623,15069"/>
        <path fill="none" stroke="rgb(51,78,88)" stroke-width="0" stroke-linejoin="round" stroke-linecap="round" d="M 8880,14913 L 8880,16365"/>
        <path fill="none" stroke="rgb(51,78,88)" stroke-width="0" stroke-linejoin="round" stroke-linecap="round" d="M 8915,14913 L 8915,16365"/>
        <path fill="none" stroke="rgb(51,78,88)" stroke-width="0" stroke-linejoin="round" stroke-linecap="round" d="M 8643,14913 L 8643,16365"/>
        <path fill="none" stroke="rgb(51,78,88)" stroke-width="0" stroke-linejoin="round" stroke-linecap="round" d="M 8678,14913 L 8678,16365"/>
        <path fill="none" stroke="rgb(51,78,88)" stroke-width="0" stroke-linejoin="round" stroke-linecap="round" d="M 8407,14913 L 8407,16365"/>
        <path fill="none" stroke="rgb(51,78,88)" stroke-width="0" stroke-linejoin="round" stroke-linecap="round" d="M 8444,14913 L 8444,16365"/>
        <path fill="none" stroke="rgb(51,78,88)" stroke-width="0" stroke-linejoin="round" stroke-linecap="round" d="M 8050,16978 L 8087,16978"/>
        <path fill="none" stroke="rgb(51,78,88)" stroke-width="0" stroke-linejoin="round" stroke-linecap="round" d="M 13011,16978 L 13046,16978"/>
        <path fill="rgb(38,46,52)" stroke="none" d="M 8050,16383 L 8087,16978 8050,16978 8050,16383 Z"/>
        <path fill="rgb(38,46,52)" stroke="none" d="M 13011,16383 L 13046,16978 13011,16978 13011,16383 Z"/>
        <path fill="rgb(38,46,52)" stroke="none" d="M 8087,16383 L 8087,16978 8050,16383 8087,16383 Z"/>
        <path fill="rgb(38,46,52)" stroke="none" d="M 13046,16383 L 13046,16978 13011,16383 13046,16383 Z"/>
        <path fill="rgb(38,46,52)" stroke="none" d="M 13011,15253 L 13046,16383 13011,16383 13011,15253 Z"/>
        <path fill="rgb(38,46,52)" stroke="none" d="M 8050,15253 L 8087,16383 8050,16383 8050,15253 Z"/>
        <path fill="rgb(38,46,52)" stroke="none" d="M 13046,15253 L 13046,16383 13011,15253 13046,15253 Z"/>
        <path fill="rgb(38,46,52)" stroke="none" d="M 8087,15253 L 8087,16383 8050,15253 8087,15253 Z"/>
        <path fill="rgb(38,46,52)" stroke="none" d="M 13007,15205 L 13046,15253 13011,15253 13007,15205 Z"/>
        <path fill="rgb(38,46,52)" stroke="none" d="M 8089,15205 L 8087,15253 8050,15253 8089,15205 Z"/>
        <path fill="rgb(38,46,52)" stroke="none" d="M 8054,15199 L 8089,15205 8050,15253 8054,15199 Z"/>
        <path fill="rgb(38,46,52)" stroke="none" d="M 13042,15199 L 13046,15253 13007,15205 13042,15199 Z"/>
        <path fill="rgb(38,46,52)" stroke="none" d="M 8100,15156 L 8089,15205 8054,15199 8100,15156 Z"/>
        <path fill="rgb(38,46,52)" stroke="none" d="M 12998,15156 L 13042,15199 13007,15205 12998,15156 Z"/>
        <path fill="rgb(38,46,52)" stroke="none" d="M 8064,15147 L 8100,15156 8054,15199 8064,15147 Z"/>
        <path fill="rgb(38,46,52)" stroke="none" d="M 13032,15147 L 13042,15199 12998,15156 13032,15147 Z"/>
        <path fill="rgb(38,46,52)" stroke="none" d="M 12982,15112 L 13032,15147 12998,15156 12982,15112 Z"/>
        <path fill="rgb(38,46,52)" stroke="none" d="M 8116,15112 L 8100,15156 8064,15147 8116,15112 Z"/>
        <path fill="rgb(38,46,52)" stroke="none" d="M 8085,15097 L 8116,15112 8064,15147 8085,15097 Z"/>
        <path fill="rgb(38,46,52)" stroke="none" d="M 13013,15097 L 13032,15147 12982,15112 13013,15097 Z"/>
        <path fill="rgb(38,46,52)" stroke="none" d="M 12957,15069 L 13013,15097 12982,15112 12957,15069 Z"/>
        <path fill="rgb(38,46,52)" stroke="none" d="M 8140,15069 L 8116,15112 8085,15097 8140,15069 Z"/>
        <path fill="rgb(38,46,52)" stroke="none" d="M 8109,15049 L 8140,15069 8085,15097 8109,15049 Z"/>
        <path fill="rgb(38,46,52)" stroke="none" d="M 12987,15049 L 13013,15097 12957,15069 12987,15049 Z"/>
        <path fill="rgb(38,46,52)" stroke="none" d="M 8168,15031 L 8140,15069 8109,15049 8168,15031 Z"/>
        <path fill="rgb(38,46,52)" stroke="none" d="M 12928,15031 L 12987,15049 12957,15069 12928,15031 Z"/>
        <path fill="rgb(38,46,52)" stroke="none" d="M 8142,15007 L 8168,15031 8109,15049 8142,15007 8142,15007 Z"/>
        <path fill="rgb(38,46,52)" stroke="none" d="M 12956,15007 L 12987,15049 12928,15031 12956,15007 Z"/>
        <path fill="rgb(38,46,52)" stroke="none" d="M 8203,14996 L 8168,15031 8142,15007 8203,14996 Z"/>
        <path fill="rgb(38,46,52)" stroke="none" d="M 12895,14996 L 12956,15007 12928,15031 12895,14996 Z"/>
        <path fill="rgb(38,46,52)" stroke="none" d="M 8179,14970 L 8203,14996 8142,15007 8179,14970 Z"/>
        <path fill="rgb(38,46,52)" stroke="none" d="M 12916,14970 L 12956,15007 12895,14996 12916,14970 Z"/>
        <path fill="rgb(38,46,52)" stroke="none" d="M 8242,14966 L 8203,14996 8179,14970 8242,14966 Z"/>
        <path fill="rgb(38,46,52)" stroke="none" d="M 12855,14966 L 12916,14970 12895,14996 12855,14966 Z"/>
        <path fill="rgb(38,46,52)" stroke="none" d="M 8285,14944 L 8242,14966 8179,14970 8285,14944 Z"/>
        <path fill="rgb(38,46,52)" stroke="none" d="M 12813,14944 L 12916,14970 12855,14966 12813,14944 Z"/>
        <path fill="rgb(38,46,52)" stroke="none" d="M 8222,14937 L 8285,14944 8179,14970 8222,14937 Z"/>
        <path fill="rgb(38,46,52)" stroke="none" d="M 12874,14937 L 12916,14970 12813,14944 12874,14937 Z"/>
        <path fill="rgb(38,46,52)" stroke="none" d="M 12767,14927 L 12874,14937 12813,14944 12767,14927 Z"/>
        <path fill="rgb(38,46,52)" stroke="none" d="M 8329,14927 L 8285,14944 8222,14937 8329,14927 Z"/>
        <path fill="rgb(38,46,52)" stroke="none" d="M 12721,14916 L 12874,14937 12767,14927 12721,14916 Z"/>
        <path fill="rgb(38,46,52)" stroke="none" d="M 8377,14916 L 8329,14927 8222,14937 8377,14916 Z"/>
        <path fill="rgb(38,46,52)" stroke="none" d="M 8270,14911 L 12673,14913 8425,14913 8270,14911 Z"/>
        <path fill="rgb(38,46,52)" stroke="none" d="M 8270,14911 L 8425,14913 8377,14916 8270,14911 Z"/>
        <path fill="rgb(38,46,52)" stroke="none" d="M 8270,14911 L 8377,14916 8222,14937 8270,14911 Z"/>
        <path fill="rgb(38,46,52)" stroke="none" d="M 12828,14911 L 12673,14913 8270,14911 12828,14911 Z"/>
        <path fill="rgb(38,46,52)" stroke="none" d="M 12828,14911 L 12721,14916 12673,14913 12828,14911 Z"/>
        <path fill="rgb(38,46,52)" stroke="none" d="M 12828,14911 L 12874,14937 12721,14916 12828,14911 Z"/>
        <path fill="rgb(38,46,52)" stroke="none" d="M 8320,14892 L 12828,14911 8270,14911 8320,14892 Z"/>
        <path fill="rgb(38,46,52)" stroke="none" d="M 12778,14892 L 12828,14911 8320,14892 12778,14892 Z"/>
        <path fill="rgb(38,46,52)" stroke="none" d="M 8372,14881 L 12778,14892 8320,14892 8372,14881 Z"/>
        <path fill="rgb(38,46,52)" stroke="none" d="M 12724,14881 L 12778,14892 8372,14881 12724,14881 Z"/>
        <path fill="rgb(38,46,52)" stroke="none" d="M 12724,14881 L 8425,14877 12673,14877 12724,14881 Z"/>
        <path fill="rgb(38,46,52)" stroke="none" d="M 8425,14877 L 12724,14881 8372,14881 8425,14877 Z"/>
        <path fill="rgb(38,46,52)" stroke="none" d="M 8087,16383 L 13011,16402 8087,16402 8087,16383 Z"/>
        <path fill="rgb(38,46,52)" stroke="none" d="M 13011,16383 L 13011,16402 8087,16383 13011,16383 Z"/>
        <path fill="rgb(38,46,52)" stroke="none" d="M 12654,16365 L 13011,16383 8087,16383 12654,16365 Z"/>
        <path fill="rgb(38,46,52)" stroke="none" d="M 10530,16365 L 12654,16365 8087,16383 10530,16365 Z"/>
        <path fill="rgb(38,46,52)" stroke="none" d="M 11710,16365 L 12654,16365 10530,16365 11710,16365 Z"/>
        <path fill="rgb(38,46,52)" stroke="none" d="M 12183,16365 L 12654,16365 11710,16365 12183,16365 Z"/>
        <path fill="rgb(38,46,52)" stroke="none" d="M 8407,16365 L 10530,16365 8087,16383 8407,16365 Z"/>
        <path fill="rgb(38,46,52)" stroke="none" d="M 10567,16365 L 11710,16365 10530,16365 10567,16365 Z"/>
        <path fill="rgb(38,46,52)" stroke="none" d="M 8444,16365 L 10530,16365 8407,16365 8444,16365 Z"/>
        <path fill="rgb(38,46,52)" stroke="none" d="M 11747,16365 L 12183,16365 11710,16365 11747,16365 Z"/>
        <path fill="rgb(38,46,52)" stroke="none" d="M 12218,16365 L 12654,16365 12183,16365 12218,16365 Z"/>
        <path fill="rgb(38,46,52)" stroke="none" d="M 12689,16365 L 13011,16383 12654,16365 12689,16365 Z"/>
        <path fill="rgb(38,46,52)" stroke="none" d="M 11946,16365 L 12183,16365 11747,16365 11946,16365 Z"/>
        <path fill="rgb(38,46,52)" stroke="none" d="M 12183,16365 L 11946,16365 11982,16365 12183,16365 Z"/>
        <path fill="rgb(38,46,52)" stroke="none" d="M 9623,16365 L 10530,16365 8444,16365 9623,16365 Z"/>
        <path fill="rgb(38,46,52)" stroke="none" d="M 10059,16365 L 10530,16365 9623,16365 10059,16365 Z"/>
        <path fill="rgb(38,46,52)" stroke="none" d="M 10530,16365 L 10059,16365 10094,16365 10530,16365 Z"/>
        <path fill="rgb(38,46,52)" stroke="none" d="M 8915,16365 L 9623,16365 8444,16365 8915,16365 Z"/>
        <path fill="rgb(38,46,52)" stroke="none" d="M 11475,16365 L 11710,16365 10567,16365 11475,16365 Z"/>
        <path fill="rgb(38,46,52)" stroke="none" d="M 11710,16365 L 11475,16365 11510,16365 11710,16365 Z"/>
        <path fill="rgb(38,46,52)" stroke="none" d="M 9351,16365 L 9623,16365 8915,16365 9351,16365 Z"/>
        <path fill="rgb(38,46,52)" stroke="none" d="M 9623,16365 L 9351,16365 9386,16365 9623,16365 Z"/>
        <path fill="rgb(38,46,52)" stroke="none" d="M 11039,16365 L 11475,16365 10567,16365 11039,16365 Z"/>
        <path fill="rgb(38,46,52)" stroke="none" d="M 8087,16365 L 8407,16365 8087,16383 8087,16365 Z"/>
        <path fill="rgb(38,46,52)" stroke="none" d="M 8880,16365 L 8915,16365 8444,16365 8880,16365 Z"/>
        <path fill="rgb(38,46,52)" stroke="none" d="M 9588,16365 L 9623,16365 9386,16365 9588,16365 Z"/>
        <path fill="rgb(38,46,52)" stroke="none" d="M 11002,16365 L 11039,16365 10567,16365 11002,16365 Z"/>
        <path fill="rgb(38,46,52)" stroke="none" d="M 8678,16365 L 8880,16365 8444,16365 8678,16365 Z"/>
        <path fill="rgb(38,46,52)" stroke="none" d="M 8444,16365 L 8643,16365 8678,16365 8444,16365 Z"/>
        <path fill="rgb(38,46,52)" stroke="none" d="M 12418,16365 L 12654,16365 12218,16365 12418,16365 Z"/>
        <path fill="rgb(38,46,52)" stroke="none" d="M 12654,16365 L 12418,16365 12455,16365 12654,16365 Z"/>
        <path fill="rgb(38,46,52)" stroke="none" d="M 9152,16365 L 9351,16365 8915,16365 9152,16365 Z"/>
        <path fill="rgb(38,46,52)" stroke="none" d="M 8915,16365 L 9114,16365 9152,16365 8915,16365 Z"/>
        <path fill="rgb(38,46,52)" stroke="none" d="M 10802,16365 L 11002,16365 10567,16365 10802,16365 Z"/>
        <path fill="rgb(38,46,52)" stroke="none" d="M 10567,16365 L 10767,16365 10802,16365 10567,16365 Z"/>
        <path fill="rgb(38,46,52)" stroke="none" d="M 9859,16365 L 10059,16365 9623,16365 9859,16365 Z"/>
        <path fill="rgb(38,46,52)" stroke="none" d="M 9623,16365 L 9822,16365 9859,16365 9623,16365 Z"/>
        <path fill="rgb(38,46,52)" stroke="none" d="M 10296,16365 L 10530,16365 10094,16365 10296,16365 Z"/>
        <path fill="rgb(38,46,52)" stroke="none" d="M 10530,16365 L 10296,16365 10331,16365 10530,16365 Z"/>
        <path fill="rgb(38,46,52)" stroke="none" d="M 11274,16365 L 11475,16365 11039,16365 11274,16365 Z"/>
        <path fill="rgb(38,46,52)" stroke="none" d="M 13011,16365 L 13011,16383 12689,16365 13011,16365 Z"/>
        <path fill="rgb(38,46,52)" stroke="none" d="M 12654,14913 L 12673,14913 12654,16365 12654,14913 Z"/>
        <path fill="rgb(38,46,52)" stroke="none" d="M 12680,14913 L 12654,16365 12673,14913 12680,14913 Z"/>
        <path fill="rgb(38,46,52)" stroke="none" d="M 12654,16365 L 12680,14913 12689,16365 12654,16365 Z"/>
        <path fill="rgb(38,46,52)" stroke="none" d="M 12689,14914 L 12689,16365 12680,14913 12689,14914 Z"/>
        <path fill="none" stroke="rgb(51,78,88)" stroke-width="0" stroke-linejoin="round" stroke-linecap="round" d="M 12689,14913 L 12689,16365"/>
        <path fill="none" stroke="rgb(51,78,88)" stroke-width="0" stroke-linejoin="round" stroke-linecap="round" d="M 10736,15069 L 12719,15069"/>
        <path fill="none" stroke="rgb(51,78,88)" stroke-width="0" stroke-linejoin="round" stroke-linecap="round" d="M 11397,15069 L 11397,15068"/>
        <path fill="none" stroke="rgb(51,78,88)" stroke-width="0" stroke-linejoin="round" stroke-linecap="round" d="M 12057,15069 L 12057,15485"/>
        <path fill="none" stroke="rgb(51,78,88)" stroke-width="0" stroke-linejoin="round" stroke-linecap="round" d="M 11397,15069 L 11397,15485"/>
        <path fill="rgb(213,51,42)" stroke="none" d="M 12388,15276 L 12057,15069 12719,15069 12388,15276 Z"/>
        <path fill="rgb(213,51,42)" stroke="none" d="M 12388,15276 L 12719,15069 12719,15485 12388,15276 Z"/>
        <path fill="rgb(213,51,42)" stroke="none" d="M 12388,15276 L 12719,15485 12057,15485 12388,15276 Z"/>
        <path fill="rgb(213,51,42)" stroke="none" d="M 12388,15276 L 12057,15485 12057,15069 12388,15276 Z"/>
        <path fill="rgb(213,51,42)" stroke="none" d="M 11066,15276 L 10736,15069 11397,15069 11066,15276 Z"/>
        <path fill="rgb(213,51,42)" stroke="none" d="M 11066,15276 L 11397,15069 11397,15485 11066,15276 Z"/>
        <path fill="rgb(213,51,42)" stroke="none" d="M 11066,15276 L 11397,15485 10736,15485 11066,15276 Z"/>
        <path fill="rgb(213,51,42)" stroke="none" d="M 11066,15276 L 10736,15485 10736,15069 11066,15276 Z"/>
        <path fill="none" stroke="rgb(51,78,88)" stroke-width="0" stroke-linejoin="round" stroke-linecap="round" d="M 12719,15069 L 10736,15069"/>
        <path fill="none" stroke="rgb(51,78,88)" stroke-width="0" stroke-linejoin="round" stroke-linecap="round" d="M 9037,15069 L 9037,15068"/>
        <path fill="none" stroke="rgb(51,78,88)" stroke-width="0" stroke-linejoin="round" stroke-linecap="round" d="M 9699,15069 L 9699,15485"/>
        <path fill="none" stroke="rgb(51,78,88)" stroke-width="0" stroke-linejoin="round" stroke-linecap="round" d="M 9037,15069 L 9037,15485"/>
        <path fill="rgb(213,51,42)" stroke="none" d="M 10029,15276 L 9699,15069 10360,15069 10029,15276 Z"/>
        <path fill="rgb(213,51,42)" stroke="none" d="M 10029,15276 L 10360,15069 10360,15485 10029,15276 Z"/>
        <path fill="rgb(213,51,42)" stroke="none" d="M 10029,15276 L 10360,15485 9699,15485 10029,15276 Z"/>
        <path fill="rgb(213,51,42)" stroke="none" d="M 10029,15276 L 9699,15485 9699,15069 10029,15276 Z"/>
        <path fill="rgb(213,51,42)" stroke="none" d="M 8706,15276 L 8375,15069 9037,15069 8706,15276 Z"/>
        <path fill="rgb(213,51,42)" stroke="none" d="M 8706,15276 L 9037,15069 9037,15485 8706,15276 Z"/>
        <path fill="rgb(213,51,42)" stroke="none" d="M 8706,15276 L 9037,15485 8375,15485 8706,15276 8706,15276 Z"/>
        <path fill="rgb(213,51,42)" stroke="none" d="M 8706,15276 L 8375,15485 8375,15069 8706,15276 Z"/>
        <path fill="none" stroke="rgb(51,78,88)" stroke-width="0" stroke-linejoin="round" stroke-linecap="round" d="M 9588,15485 L 9588,16365"/>
        <path fill="none" stroke="rgb(51,78,88)" stroke-width="0" stroke-linejoin="round" stroke-linecap="round" d="M 9623,15485 L 9623,16365"/>
        <path fill="none" stroke="rgb(51,78,88)" stroke-width="0" stroke-linejoin="round" stroke-linecap="round" d="M 9351,14913 L 9351,15069"/>
        <path fill="none" stroke="rgb(51,78,88)" stroke-width="0" stroke-linejoin="round" stroke-linecap="round" d="M 9386,14913 L 9386,15069"/>
        <path fill="none" stroke="rgb(51,78,88)" stroke-width="0" stroke-linejoin="round" stroke-linecap="round" d="M 9351,15485 L 9351,16365"/>
        <path fill="none" stroke="rgb(51,78,88)" stroke-width="0" stroke-linejoin="round" stroke-linecap="round" d="M 9386,15485 L 9386,16365"/>
        <path fill="none" stroke="rgb(51,78,88)" stroke-width="0" stroke-linejoin="round" stroke-linecap="round" d="M 9114,14913 L 9114,15069"/>
        <path fill="none" stroke="rgb(51,78,88)" stroke-width="0" stroke-linejoin="round" stroke-linecap="round" d="M 9152,14913 L 9152,15069"/>
        <path fill="none" stroke="rgb(51,78,88)" stroke-width="0" stroke-linejoin="round" stroke-linecap="round" d="M 9114,15485 L 9114,16365"/>
        <path fill="none" stroke="rgb(51,78,88)" stroke-width="0" stroke-linejoin="round" stroke-linecap="round" d="M 9152,15485 L 9152,16365"/>
        <path fill="none" stroke="rgb(51,78,88)" stroke-width="0" stroke-linejoin="round" stroke-linecap="round" d="M 11946,14913 L 11946,15069"/>
        <path fill="none" stroke="rgb(51,78,88)" stroke-width="0" stroke-linejoin="round" stroke-linecap="round" d="M 11982,14913 L 11982,15069"/>
        <path fill="none" stroke="rgb(51,78,88)" stroke-width="0" stroke-linejoin="round" stroke-linecap="round" d="M 11946,15485 L 11946,16365"/>
        <path fill="none" stroke="rgb(51,78,88)" stroke-width="0" stroke-linejoin="round" stroke-linecap="round" d="M 11982,15485 L 11982,16365"/>
        <path fill="none" stroke="rgb(51,78,88)" stroke-width="0" stroke-linejoin="round" stroke-linecap="round" d="M 11710,14913 L 11710,15069"/>
        <path fill="none" stroke="rgb(51,78,88)" stroke-width="0" stroke-linejoin="round" stroke-linecap="round" d="M 11747,14913 L 11747,15069"/>
        <path fill="none" stroke="rgb(51,78,88)" stroke-width="0" stroke-linejoin="round" stroke-linecap="round" d="M 11710,15485 L 11710,16365"/>
        <path fill="none" stroke="rgb(51,78,88)" stroke-width="0" stroke-linejoin="round" stroke-linecap="round" d="M 11747,15485 L 11747,16365"/>
        <path fill="none" stroke="rgb(51,78,88)" stroke-width="0" stroke-linejoin="round" stroke-linecap="round" d="M 11475,14913 L 11475,15069"/>
        <path fill="none" stroke="rgb(51,78,88)" stroke-width="0" stroke-linejoin="round" stroke-linecap="round" d="M 11510,14913 L 11510,15069"/>
        <path fill="none" stroke="rgb(51,78,88)" stroke-width="0" stroke-linejoin="round" stroke-linecap="round" d="M 11475,15485 L 11475,16365"/>
        <path fill="none" stroke="rgb(51,78,88)" stroke-width="0" stroke-linejoin="round" stroke-linecap="round" d="M 11510,15485 L 11510,16365"/>
        <path fill="rgb(38,46,52)" stroke="none" d="M 11747,16365 L 11710,15485 11747,15485 11747,16365 Z"/>
        <path fill="rgb(38,46,52)" stroke="none" d="M 11710,15485 L 11747,16365 11710,16365 11710,15485 Z"/>
        <path fill="rgb(38,46,52)" stroke="none" d="M 11946,16365 L 11946,15485 11982,15485 11946,16365 Z"/>
        <path fill="rgb(38,46,52)" stroke="none" d="M 11982,15485 L 11982,16365 11946,16365 11982,15485 Z"/>
        <path fill="rgb(38,46,52)" stroke="none" d="M 11475,15485 L 11510,16365 11475,16365 11475,15485 Z"/>
        <path fill="rgb(38,46,52)" stroke="none" d="M 11510,15485 L 11510,16365 11475,15485 11510,15485 Z"/>
        <path fill="rgb(38,46,52)" stroke="none" d="M 11747,14913 L 11747,15069 11710,15069 11747,14913 Z"/>
        <path fill="rgb(38,46,52)" stroke="none" d="M 11710,14913 L 11747,14913 11710,15069 11710,14913 Z"/>
        <path fill="rgb(38,46,52)" stroke="none" d="M 11946,15069 L 11946,14913 11982,14913 11946,15069 Z"/>
        <path fill="rgb(38,46,52)" stroke="none" d="M 11982,14913 L 11982,15069 11946,15069 11982,14913 Z"/>
        <path fill="rgb(38,46,52)" stroke="none" d="M 11510,14913 L 11510,15069 11475,15069 11510,14913 Z"/>
        <path fill="rgb(38,46,52)" stroke="none" d="M 11475,14913 L 11510,14913 11475,15069 11475,14913 Z"/>
        <path fill="rgb(38,46,52)" stroke="none" d="M 9152,15485 L 9152,16365 9114,16365 9152,15485 Z"/>
        <path fill="rgb(38,46,52)" stroke="none" d="M 9114,15485 L 9152,15485 9114,16365 9114,15485 Z"/>
        <path fill="rgb(38,46,52)" stroke="none" d="M 9351,16365 L 9351,15485 9386,15485 9351,16365 Z"/>
        <path fill="rgb(38,46,52)" stroke="none" d="M 9386,15485 L 9386,16365 9351,16365 9386,15485 Z"/>
        <path fill="rgb(38,46,52)" stroke="none" d="M 9588,15485 L 9623,16365 9588,16365 9588,15485 Z"/>
        <path fill="rgb(38,46,52)" stroke="none" d="M 9623,15485 L 9623,16365 9588,15485 9623,15485 Z"/>
        <path fill="rgb(38,46,52)" stroke="none" d="M 9588,14913 L 9623,15069 9588,15069 9588,14913 Z"/>
        <path fill="rgb(38,46,52)" stroke="none" d="M 9623,14913 L 9623,15069 9588,14913 9623,14913 Z"/>
        <path fill="rgb(38,46,52)" stroke="none" d="M 9114,14913 L 9152,15069 9114,15069 9114,14913 Z"/>
        <path fill="rgb(38,46,52)" stroke="none" d="M 9351,14913 L 9386,15069 9351,15069 9351,14913 Z"/>
        <path fill="rgb(38,46,52)" stroke="none" d="M 9152,14913 L 9152,15069 9114,14913 9152,14913 Z"/>
        <path fill="rgb(38,46,52)" stroke="none" d="M 9386,14913 L 9386,15069 9351,14913 9386,14913 Z"/>
        <path fill="rgb(38,46,52)" stroke="none" d="M 8444,15485 L 8444,16365 8407,16365 8444,15485 Z"/>
        <path fill="rgb(38,46,52)" stroke="none" d="M 8407,15485 L 8444,15485 8407,16365 8407,15485 Z"/>
        <path fill="rgb(38,46,52)" stroke="none" d="M 8880,15485 L 8915,16365 8880,16365 8880,15485 Z"/>
        <path fill="rgb(38,46,52)" stroke="none" d="M 8643,15485 L 8678,16365 8643,16365 8643,15485 Z"/>
        <path fill="rgb(38,46,52)" stroke="none" d="M 8678,15485 L 8678,16365 8643,15485 8678,15485 Z"/>
        <path fill="rgb(38,46,52)" stroke="none" d="M 8915,15485 L 8915,16365 8880,15485 8915,15485 Z"/>
        <path fill="rgb(38,46,52)" stroke="none" d="M 8407,14914 L 8444,15069 8407,15069 8407,14914 Z"/>
        <path fill="rgb(38,46,52)" stroke="none" d="M 8416,14913 L 8444,15069 8407,14914 8416,14913 Z"/>
        <path fill="rgb(38,46,52)" stroke="none" d="M 8678,15069 L 8643,14913 8678,14913 8678,15069 Z"/>
        <path fill="rgb(38,46,52)" stroke="none" d="M 8643,14913 L 8678,15069 8643,15069 8643,14913 Z"/>
        <path fill="rgb(38,46,52)" stroke="none" d="M 8880,14913 L 8915,15069 8880,15069 8880,14913 Z"/>
        <path fill="rgb(38,46,52)" stroke="none" d="M 8444,14913 L 8444,15069 8416,14913 8444,14913 Z"/>
        <path fill="rgb(38,46,52)" stroke="none" d="M 8425,14913 L 8444,14913 8416,14913 8425,14913 Z"/>
        <path fill="rgb(38,46,52)" stroke="none" d="M 8915,14913 L 8915,15069 8880,14913 8915,14913 Z"/>
        <path fill="none" stroke="rgb(51,78,88)" stroke-width="0" stroke-linejoin="round" stroke-linecap="round" d="M 12719,15069 L 12719,15485 10736,15485 10736,15069"/>
        <path fill="rgb(38,46,52)" stroke="none" d="M 12418,16365 L 12418,15485 12455,15485 12418,16365 Z"/>
        <path fill="rgb(38,46,52)" stroke="none" d="M 12455,15485 L 12455,16365 12418,16365 12455,15485 Z"/>
        <path fill="rgb(38,46,52)" stroke="none" d="M 12183,16365 L 12183,15485 12218,15485 12183,16365 Z"/>
        <path fill="rgb(38,46,52)" stroke="none" d="M 12218,15485 L 12218,16365 12183,16365 12218,15485 Z"/>
        <path fill="rgb(38,46,52)" stroke="none" d="M 12455,14913 L 12455,15069 12418,15069 12455,14913 Z"/>
        <path fill="rgb(38,46,52)" stroke="none" d="M 12418,14913 L 12455,14913 12418,15069 12418,14913 Z"/>
        <path fill="rgb(38,46,52)" stroke="none" d="M 12183,15069 L 12183,14913 12218,14913 12183,15069 Z"/>
        <path fill="rgb(38,46,52)" stroke="none" d="M 12218,14913 L 12218,15069 12183,15069 12218,14913 Z"/>
        <path fill="none" stroke="rgb(51,78,88)" stroke-width="0" stroke-linejoin="round" stroke-linecap="round" d="M 8375,15069 L 10360,15069 10360,15485 8375,15485 8375,15069 10360,15069"/>
        <path fill="rgb(38,46,52)" stroke="none" d="M 11274,16365 L 11239,15485 11274,15485 11274,16365 Z"/>
        <path fill="rgb(38,46,52)" stroke="none" d="M 11239,15485 L 11274,16365 11239,16365 11239,15485 Z"/>
        <path fill="rgb(38,46,52)" stroke="none" d="M 11002,15485 L 11039,16365 11002,16365 11002,15485 Z"/>
        <path fill="rgb(38,46,52)" stroke="none" d="M 11039,15485 L 11039,16365 11002,15485 11039,15485 Z"/>
        <path fill="rgb(38,46,52)" stroke="none" d="M 10767,15485 L 10802,16365 10767,16365 10767,15485 Z"/>
        <path fill="rgb(38,46,52)" stroke="none" d="M 10802,15485 L 10802,16365 10767,15485 10802,15485 Z"/>
        <path fill="rgb(38,46,52)" stroke="none" d="M 11239,15069 L 11239,14913 11274,14913 11239,15069 Z"/>
        <path fill="rgb(38,46,52)" stroke="none" d="M 11274,14913 L 11274,15069 11239,15069 11274,14913 Z"/>
        <path fill="rgb(38,46,52)" stroke="none" d="M 11039,15069 L 11002,14913 11039,14913 11039,15069 Z"/>
        <path fill="rgb(38,46,52)" stroke="none" d="M 11002,14913 L 11039,15069 11002,15069 11002,14913 Z"/>
        <path fill="rgb(38,46,52)" stroke="none" d="M 10767,15069 L 10767,14913 10802,14913 10767,15069 Z"/>
        <path fill="rgb(38,46,52)" stroke="none" d="M 10802,14913 L 10802,15069 10767,15069 10802,14913 Z"/>
        <path fill="rgb(38,46,52)" stroke="none" d="M 10296,16365 L 10296,15485 10331,15485 10296,16365 Z"/>
        <path fill="rgb(38,46,52)" stroke="none" d="M 10331,15485 L 10331,16365 10296,16365 10331,15485 Z"/>
        <path fill="rgb(38,46,52)" stroke="none" d="M 10059,15485 L 10094,16365 10059,16365 10059,15485 Z"/>
        <path fill="rgb(38,46,52)" stroke="none" d="M 9859,15485 L 9859,16365 9822,16365 9859,15485 Z"/>
        <path fill="rgb(38,46,52)" stroke="none" d="M 10094,15485 L 10094,16365 10059,15485 10094,15485 Z"/>
        <path fill="rgb(38,46,52)" stroke="none" d="M 9822,15485 L 9859,15485 9822,16365 9822,15485 Z"/>
        <path fill="rgb(38,46,52)" stroke="none" d="M 10059,15069 L 10059,14913 10094,14913 10059,15069 Z"/>
        <path fill="rgb(38,46,52)" stroke="none" d="M 10094,14913 L 10094,15069 10059,15069 10094,14913 Z"/>
        <path fill="rgb(38,46,52)" stroke="none" d="M 9822,14913 L 9859,15069 9822,15069 9822,14913 Z"/>
        <path fill="rgb(38,46,52)" stroke="none" d="M 10296,15069 L 10296,14913 10331,14913 10296,15069 Z"/>
        <path fill="rgb(38,46,52)" stroke="none" d="M 10331,14913 L 10331,15069 10296,15069 10331,14913 Z"/>
        <path fill="rgb(38,46,52)" stroke="none" d="M 9859,14913 L 9859,15069 9822,14913 9859,14913 Z"/>
        <path fill="rgb(38,46,52)" stroke="none" d="M 10549,15638 L 10530,14913 10567,14913 10549,15638 Z"/>
        <path fill="rgb(38,46,52)" stroke="none" d="M 10549,15638 L 10567,14913 10567,16365 10549,15638 Z"/>
        <path fill="rgb(38,46,52)" stroke="none" d="M 10549,15638 L 10567,16365 10530,16365 10549,15638 Z"/>
        <path fill="rgb(38,46,52)" stroke="none" d="M 10549,15638 L 10530,16365 10530,14913 10549,15638 Z"/>
        <path fill="rgb(47,70,76)" stroke="none" d="M 11809,14239 L 9848,14239 9308,14545 9848,14851 11809,14851 11809,14239 Z"/>
        <path fill="rgb(224,135,57)" stroke="none" d="M 11772,14275 L 9857,14275 9578,14545 9857,14815 11772,14815 11772,14275 Z"/>
        <path fill="rgb(215,67,51)" stroke="none" d="M 10554,12834 L 10590,12835 10626,12837 10661,12842 10695,12848 10729,12856 10762,12866 10795,12877 10827,12889 10858,12903 10888,12918 10917,12935 10946,12953 10973,12973 11000,12994 11025,13016 11049,13039 11072,13063 11094,13089 11115,13115 11135,13143 11153,13171 11170,13200 11185,13230 11199,13262 11212,13293 11223,13326 11232,13359 11240,13393 11246,13427 11251,13462 11254,13498 11254,13534 11254,13570 11251,13606 11246,13641 11240,13675 11232,13709 11223,13742 11212,13775 11199,13807 11185,13837 11170,13867 11153,13897 11135,13925 11115,13953 11094,13979 11072,14005 11049,14029 11025,14052 11000,14074 10973,14095 10946,14114 10917,14133 10888,14149 10858,14165 10827,14179 10795,14192 10762,14203 10729,14212 10695,14220 10661,14226 10626,14230 10590,14233 10554,14234 10518,14233 10482,14230 10447,14226 10413,14220 10379,14212 10346,14203 10313,14192 10282,14179 10251,14165 10220,14149 10191,14133 10162,14114 10135,14095 10109,14074 10083,14052 10059,14029 10036,14005 10014,13979 9993,13953 9973,13925 9955,13897 9938,13867 9923,13837 9909,13807 9896,13775 9885,13742 9876,13709 9868,13675 9862,13641 9857,13606 9855,13570 9854,13534 9855,13498 9857,13462 9862,13427 9868,13393 9876,13359 9885,13326 9896,13293 9909,13262 9923,13230 9938,13200 9955,13171 9973,13143 9993,13115 10014,13089 10036,13063 10059,13039 10083,13016 10109,12994 10135,12973 10162,12953 10191,12935 10220,12918 10251,12903 10282,12889 10313,12877 10346,12866 10379,12856 10413,12848 10447,12842 10482,12837 10518,12835 10554,12834 Z"/>
        <path fill="rgb(255,255,255)" stroke="none" d="M 10554,13067 L 10560,13067 10566,13068 10572,13068 10578,13068 10584,13068 10589,13068 10595,13069 10601,13070 10607,13070 10613,13071 10618,13072 10624,13073 10630,13073 10636,13074 10641,13075 10647,13077 10653,13078 10658,13079 10664,13080 10670,13082 10675,13083 10681,13085 10686,13086 10692,13088 10697,13090 10703,13092 10708,13093 10714,13095 10719,13097 10725,13099 10730,13102 10736,13104 10741,13106 10746,13108 10751,13111 10756,13113 10761,13116 10766,13118 10771,13121 10776,13123 10781,13126 10786,13129 10791,13132 10796,13134 10800,13138 10805,13140 10810,13143 10814,13147 10819,13150 10824,13153 10828,13156 10833,13159 10837,13163 10842,13166 10846,13170 10851,13173 10855,13177 10859,13181 10864,13184 10868,13188 10872,13192 10876,13196 10880,13200 10884,13204 10888,13208 10892,13212 10896,13216 10900,13220 10904,13225 10907,13229 10911,13233 10915,13238 10918,13242 10922,13246 10925,13251 10929,13255 10932,13260 10935,13264 10938,13269 10941,13274 10945,13278 10948,13283 10951,13288 10954,13292 10956,13297 10959,13302 10962,13307 10965,13312 10967,13317 10970,13322 10972,13327 10975,13332 10977,13337 10980,13342 10982,13347 10984,13352 10986,13358 10989,13363 10991,13369 10993,13374 10995,13380 10997,13385 10999,13391 11000,13396 11002,13402 11004,13407 11005,13413 11006,13419 11008,13424 11009,13430 11011,13435 11012,13441 11013,13447 11014,13452 11015,13458 11016,13464 11016,13470 11017,13475 11018,13481 11019,13487 11019,13493 11020,13499 11020,13505 11020,13510 11021,13516 11021,13522 11021,13528 11021,13534 11021,13540 11021,13546 11021,13552 11020,13558 11020,13563 11020,13569 11019,13575 11019,13581 11018,13587 11017,13593 11016,13598 11016,13604 11015,13610 11014,13616 11013,13621 11012,13627 11011,13633 11009,13638 11008,13644 11006,13650 11005,13655 11004,13661 11002,13666 11000,13672 10999,13677 10997,13683 10995,13688 10993,13694 10991,13699 10989,13705 10986,13710 10984,13716 10982,13721 10980,13726 10977,13731 10975,13736 10972,13741 10970,13746 10967,13751 10965,13756 10962,13761 10959,13766 10956,13771 10954,13776 10951,13781 10948,13785 10945,13790 10941,13794 10938,13799 10935,13804 10932,13808 10929,13813 10925,13817 10922,13822 10918,13826 10915,13830 10911,13835 10907,13839 10904,13843 10900,13847 10896,13852 10892,13856 10888,13860 10884,13864 10880,13868 10876,13872 10872,13876 10868,13880 10864,13883 10859,13887 10855,13891 10851,13894 10846,13898 10842,13902 10837,13905 10833,13908 10828,13912 10824,13915 10819,13918 10814,13921 10810,13924 10805,13928 10800,13930 10796,13933 10791,13936 10786,13939 10781,13942 10776,13944 10771,13947 10766,13950 10761,13952 10756,13955 10751,13957 10746,13959 10741,13962 10736,13964 10730,13966 10725,13968 10719,13971 10714,13973 10708,13975 10703,13977 10697,13978 10692,13980 10686,13982 10681,13983 10675,13985 10670,13986 10664,13988 10658,13989 10653,13990 10647,13992 10641,13993 10636,13993 10630,13994 10624,13996 10618,13996 10613,13997 10607,13998 10601,13998 10595,13999 10589,13999 10584,14000 10578,14000 10572,14000 10566,14001 10560,14001 10554,14001 10548,14001 10542,14001 10536,14000 10530,14000 10525,14000 10519,13999 10513,13999 10507,13998 10501,13998 10495,13997 10490,13996 10484,13996 10478,13994 10472,13993 10467,13993 10461,13992 10455,13990 10450,13989 10444,13988 10439,13986 10433,13985 10427,13983 10422,13982 10416,13980 10411,13978 10405,13977 10400,13975 10394,13973 10389,13971 10383,13968 10378,13966 10373,13964 10367,13962 10362,13959 10357,13957 10352,13955 10347,13952 10342,13950 10337,13947 10332,13944 10327,13942 10322,13939 10317,13936 10312,13933 10307,13930 10303,13928 10298,13924 10293,13921 10289,13918 10284,13915 10280,13912 10275,13908 10271,13905 10266,13902 10262,13898 10257,13894 10253,13891 10249,13887 10245,13883 10240,13880 10236,13876 10232,13872 10228,13868 10224,13864 10220,13860 10216,13856 10212,13852 10208,13847 10204,13843 10201,13839 10197,13835 10193,13830 10190,13826 10186,13822 10183,13817 10180,13813 10176,13808 10173,13804 10170,13799 10166,13794 10163,13790 10161,13785 10157,13781 10155,13776 10151,13771 10149,13766 10146,13761 10143,13756 10141,13751 10138,13746 10135,13741 10133,13736 10130,13731 10128,13726 10126,13721 10124,13716 10121,13710 10119,13705 10117,13699 10115,13694 10113,13688 10111,13683 10110,13677 10108,13672 10106,13666 10105,13661 10103,13655 10101,13650 10100,13644 10099,13638 10097,13633 10096,13627 10095,13621 10094,13616 10093,13610 10092,13604 10091,13598 10091,13593 10090,13587 10090,13581 10089,13575 10089,13569 10088,13563 10088,13558 10088,13552 10087,13546 10087,13540 10087,13534 10087,13528 10087,13522 10088,13516 10088,13510 10088,13505 10089,13499 10089,13493 10090,13487 10090,13481 10091,13475 10091,13470 10092,13464 10093,13458 10094,13452 10095,13447 10096,13441 10097,13435 10099,13430 10100,13424 10101,13419 10103,13413 10105,13407 10106,13402 10108,13396 10110,13391 10111,13385 10113,13380 10115,13374 10117,13369 10119,13363 10121,13358 10124,13352 10126,13347 10128,13342 10130,13337 10133,13332 10135,13327 10138,13322 10141,13317 10143,13312 10146,13307 10149,13302 10151,13297 10155,13292 10157,13288 10161,13283 10163,13278 10166,13274 10170,13269 10173,13264 10176,13260 10180,13255 10183,13251 10186,13246 10190,13242 10193,13238 10197,13233 10201,13229 10204,13225 10208,13220 10212,13216 10216,13212 10220,13208 10224,13204 10228,13200 10232,13196 10236,13192 10240,13188 10245,13184 10249,13181 10253,13177 10257,13173 10262,13170 10266,13166 10271,13163 10275,13159 10280,13156 10284,13153 10289,13150 10293,13147 10298,13143 10303,13140 10307,13138 10312,13134 10317,13132 10322,13129 10327,13126 10332,13123 10337,13121 10342,13118 10347,13116 10352,13113 10357,13111 10362,13108 10367,13106 10373,13104 10378,13102 10383,13099 10389,13097 10394,13095 10400,13093 10405,13092 10411,13090 10416,13088 10422,13086 10427,13085 10433,13083 10439,13082 10444,13080 10450,13079 10455,13078 10461,13077 10467,13075 10472,13074 10478,13073 10484,13073 10490,13072 10495,13071 10501,13070 10507,13070 10513,13069 10519,13068 10525,13068 10530,13068 10536,13068 10542,13068 10548,13067 10554,13067 Z"/>
       </g>
      </g>
     </g>
    </g>
   </g>
  </g>
 </g>
</svg>