<?xml version="1.0" encoding="UTF-8"?>
<!DOCTYPE svg PUBLIC "-//W3C//DTD SVG 1.1//EN" "http://www.w3.org/Graphics/SVG/1.1/DTD/svg11.dtd">
<svg version="1.2" width="50.03mm" height="35.19mm" viewBox="8046 13148 5003 3519" preserveAspectRatio="xMidYMid" fill-rule="evenodd" stroke-width="28.222" stroke-linejoin="round" xmlns="http://www.w3.org/2000/svg" xmlns:ooo="http://xml.openoffice.org/svg/export" xmlns:xlink="http://www.w3.org/1999/xlink" xmlns:presentation="http://sun.com/xmlns/staroffice/presentation" xmlns:smil="http://www.w3.org/2001/SMIL20/" xmlns:anim="urn:oasis:names:tc:opendocument:xmlns:animation:1.0" xml:space="preserve">
 <defs class="ClipPathGroup">
  <clipPath id="presentation_clip_path" clipPathUnits="userSpaceOnUse">
   <rect x="8046" y="13148" width="5003" height="3519"/>
  </clipPath>
  <clipPath id="presentation_clip_path_shrink" clipPathUnits="userSpaceOnUse">
   <rect x="8051" y="13151" width="4993" height="3512"/>
  </clipPath>
 </defs>
 <defs class="TextShapeIndex">
  <g ooo:slide="id1" ooo:id-list="id3"/>
 </defs>
 <defs class="EmbeddedBulletChars">
  <g id="bullet-char-template-57356" transform="scale(0.00048828125,-0.00048828125)">
   <path d="M 580,1141 L 1163,571 580,0 -4,571 580,1141 Z"/>
  </g>
  <g id="bullet-char-template-57354" transform="scale(0.00048828125,-0.00048828125)">
   <path d="M 8,1128 L 1137,1128 1137,0 8,0 8,1128 Z"/>
  </g>
  <g id="bullet-char-template-10146" transform="scale(0.00048828125,-0.00048828125)">
   <path d="M 174,0 L 602,739 174,1481 1456,739 174,0 Z M 1358,739 L 309,1346 659,739 1358,739 Z"/>
  </g>
  <g id="bullet-char-template-10132" transform="scale(0.00048828125,-0.00048828125)">
   <path d="M 2015,739 L 1276,0 717,0 1260,543 174,543 174,936 1260,936 717,1481 1274,1481 2015,739 Z"/>
  </g>
  <g id="bullet-char-template-10007" transform="scale(0.00048828125,-0.00048828125)">
   <path d="M 0,-2 C -7,14 -16,27 -25,37 L 356,567 C 262,823 215,952 215,954 215,979 228,992 255,992 264,992 276,990 289,987 310,991 331,999 354,1012 L 381,999 492,748 772,1049 836,1024 860,1049 C 881,1039 901,1025 922,1006 886,937 835,863 770,784 769,783 710,716 594,584 L 774,223 C 774,196 753,168 711,139 L 727,119 C 717,90 699,76 672,76 641,76 570,178 457,381 L 164,-76 C 142,-110 111,-127 72,-127 30,-127 9,-110 8,-76 1,-67 -2,-52 -2,-32 -2,-23 -1,-13 0,-2 Z"/>
  </g>
  <g id="bullet-char-template-10004" transform="scale(0.00048828125,-0.00048828125)">
   <path d="M 285,-33 C 182,-33 111,30 74,156 52,228 41,333 41,471 41,549 55,616 82,672 116,743 169,778 240,778 293,778 328,747 346,684 L 369,508 C 377,444 397,411 428,410 L 1163,1116 C 1174,1127 1196,1133 1229,1133 1271,1133 1292,1118 1292,1087 L 1292,965 C 1292,929 1282,901 1262,881 L 442,47 C 390,-6 338,-33 285,-33 Z"/>
  </g>
  <g id="bullet-char-template-9679" transform="scale(0.00048828125,-0.00048828125)">
   <path d="M 813,0 C 632,0 489,54 383,161 276,268 223,411 223,592 223,773 276,916 383,1023 489,1130 632,1184 813,1184 992,1184 1136,1130 1245,1023 1353,916 1407,772 1407,592 1407,412 1353,268 1245,161 1136,54 992,0 813,0 Z"/>
  </g>
  <g id="bullet-char-template-8226" transform="scale(0.00048828125,-0.00048828125)">
   <path d="M 346,457 C 273,457 209,483 155,535 101,586 74,649 74,723 74,796 101,859 155,911 209,963 273,989 346,989 419,989 480,963 531,910 582,859 608,796 608,723 608,648 583,586 532,535 482,483 420,457 346,457 Z"/>
  </g>
  <g id="bullet-char-template-8211" transform="scale(0.00048828125,-0.00048828125)">
   <path d="M -4,459 L 1135,459 1135,606 -4,606 -4,459 Z"/>
  </g>
  <g id="bullet-char-template-61548" transform="scale(0.00048828125,-0.00048828125)">
   <path d="M 173,740 C 173,903 231,1043 346,1159 462,1274 601,1332 765,1332 928,1332 1067,1274 1183,1159 1299,1043 1357,903 1357,740 1357,577 1299,437 1183,322 1067,206 928,148 765,148 601,148 462,206 346,322 231,437 173,577 173,740 Z"/>
  </g>
 </defs>
 <defs class="TextEmbeddedBitmaps"/>
 <g class="SlideGroup">
  <g>
   <g id="container-id1">
    <g id="id1" class="Slide" clip-path="url(#presentation_clip_path)">
     <g class="Page">
      <g class="Graphic">
       <g id="id3">
        <rect class="BoundingBox" stroke="none" fill="none" x="8046" y="13148" width="5004" height="3520"/>
        <path fill="rgb(255,255,255)" stroke="none" d="M 8665,15174 L 10324,15174 10324,14755 8665,14755 8665,15174 Z"/>
        <path fill="rgb(255,255,255)" stroke="none" d="M 10857,15174 L 12517,15174 12517,14753 10857,14753 10857,15174 Z"/>
        <path fill="none" stroke="rgb(51,78,88)" stroke-width="0" stroke-linejoin="round" stroke-linecap="round" d="M 8050,16069 L 8050,14939"/>
        <path fill="none" stroke="rgb(51,78,88)" stroke-width="0" stroke-linejoin="round" stroke-linecap="round" d="M 8423,14563 L 8372,14567 8318,14578 8268,14597 8222,14623 8180,14656 8140,14693 8109,14735 8083,14783 8064,14833 8054,14885 8050,14939"/>
        <path fill="none" stroke="rgb(51,78,88)" stroke-width="0" stroke-linejoin="round" stroke-linecap="round" d="M 8423,14563 L 12671,14563"/>
        <path fill="none" stroke="rgb(51,78,88)" stroke-width="0" stroke-linejoin="round" stroke-linecap="round" d="M 13046,14939 L 13042,14885 13032,14833 13011,14783 12987,14735 12954,14693 12917,14656 12874,14623 12826,14597 12776,14578 12724,14567 12671,14563"/>
        <path fill="none" stroke="rgb(51,78,88)" stroke-width="0" stroke-linejoin="round" stroke-linecap="round" d="M 13046,14939 L 13046,16069"/>
        <path fill="none" stroke="rgb(51,78,88)" stroke-width="0" stroke-linejoin="round" stroke-linecap="round" d="M 13009,16069 L 13009,16664"/>
        <path fill="none" stroke="rgb(51,78,88)" stroke-width="0" stroke-linejoin="round" stroke-linecap="round" d="M 13046,16069 L 13046,16664"/>
        <path fill="none" stroke="rgb(51,78,88)" stroke-width="0" stroke-linejoin="round" stroke-linecap="round" d="M 13009,16069 L 13009,14939 13007,14890 12996,14842 12980,14798 12956,14755 12928,14717 12893,14682 12854,14652 12811,14630 12767,14613 12719,14602 12671,14599 8423,14599 8375,14602 8329,14613 8283,14630 8241,14652 8201,14682 8168,14717 8139,14755 8114,14798 8098,14842 8089,14890 8085,14939"/>
        <path fill="none" stroke="rgb(51,78,88)" stroke-width="0" stroke-linejoin="round" stroke-linecap="round" d="M 13009,16088 L 8085,16088"/>
        <path fill="none" stroke="rgb(51,78,88)" stroke-width="0" stroke-linejoin="round" stroke-linecap="round" d="M 13009,16051 L 8085,16051"/>
        <path fill="none" stroke="rgb(51,78,88)" stroke-width="0" stroke-linejoin="round" stroke-linecap="round" d="M 8050,16069 L 8050,16664"/>
        <path fill="none" stroke="rgb(51,78,88)" stroke-width="0" stroke-linejoin="round" stroke-linecap="round" d="M 8085,16664 L 8085,16069 8085,14939"/>
        <path fill="none" stroke="rgb(51,78,88)" stroke-width="0" stroke-linejoin="round" stroke-linecap="round" d="M 8442,14599 L 8442,16051"/>
        <path fill="none" stroke="rgb(51,78,88)" stroke-width="0" stroke-linejoin="round" stroke-linecap="round" d="M 8678,14599 L 8678,16051"/>
        <path fill="none" stroke="rgb(51,78,88)" stroke-width="0" stroke-linejoin="round" stroke-linecap="round" d="M 8641,14599 L 8641,16051"/>
        <path fill="none" stroke="rgb(51,78,88)" stroke-width="0" stroke-linejoin="round" stroke-linecap="round" d="M 8913,14599 L 8913,16051"/>
        <path fill="none" stroke="rgb(51,78,88)" stroke-width="0" stroke-linejoin="round" stroke-linecap="round" d="M 8878,14599 L 8878,16051"/>
        <path fill="none" stroke="rgb(51,78,88)" stroke-width="0" stroke-linejoin="round" stroke-linecap="round" d="M 9857,14599 L 9857,16051"/>
        <path fill="none" stroke="rgb(51,78,88)" stroke-width="0" stroke-linejoin="round" stroke-linecap="round" d="M 9822,14599 L 9822,16051"/>
        <path fill="none" stroke="rgb(51,78,88)" stroke-width="0" stroke-linejoin="round" stroke-linecap="round" d="M 10094,14599 L 10094,16051"/>
        <path fill="none" stroke="rgb(51,78,88)" stroke-width="0" stroke-linejoin="round" stroke-linecap="round" d="M 10057,14599 L 10057,16051"/>
        <path fill="none" stroke="rgb(51,78,88)" stroke-width="0" stroke-linejoin="round" stroke-linecap="round" d="M 10329,14599 L 10329,16051"/>
        <path fill="none" stroke="rgb(51,78,88)" stroke-width="0" stroke-linejoin="round" stroke-linecap="round" d="M 10294,14599 L 10294,16051"/>
        <path fill="none" stroke="rgb(51,78,88)" stroke-width="0" stroke-linejoin="round" stroke-linecap="round" d="M 10566,14599 L 10566,16051"/>
        <path fill="none" stroke="rgb(51,78,88)" stroke-width="0" stroke-linejoin="round" stroke-linecap="round" d="M 10529,14599 L 10529,16051"/>
        <path fill="none" stroke="rgb(51,78,88)" stroke-width="0" stroke-linejoin="round" stroke-linecap="round" d="M 10800,14599 L 10800,16051"/>
        <path fill="none" stroke="rgb(51,78,88)" stroke-width="0" stroke-linejoin="round" stroke-linecap="round" d="M 10765,14599 L 10765,16051"/>
        <path fill="none" stroke="rgb(51,78,88)" stroke-width="0" stroke-linejoin="round" stroke-linecap="round" d="M 11037,14599 L 11037,16051"/>
        <path fill="none" stroke="rgb(51,78,88)" stroke-width="0" stroke-linejoin="round" stroke-linecap="round" d="M 11002,14599 L 11002,16051"/>
        <path fill="none" stroke="rgb(51,78,88)" stroke-width="0" stroke-linejoin="round" stroke-linecap="round" d="M 11274,14599 L 11274,16051"/>
        <path fill="none" stroke="rgb(51,78,88)" stroke-width="0" stroke-linejoin="round" stroke-linecap="round" d="M 11237,14599 L 11237,16051"/>
        <path fill="none" stroke="rgb(51,78,88)" stroke-width="0" stroke-linejoin="round" stroke-linecap="round" d="M 11508,14599 L 11508,14755"/>
        <path fill="none" stroke="rgb(51,78,88)" stroke-width="0" stroke-linejoin="round" stroke-linecap="round" d="M 11473,14599 L 11473,14755"/>
        <path fill="none" stroke="rgb(51,78,88)" stroke-width="0" stroke-linejoin="round" stroke-linecap="round" d="M 12216,14599 L 12216,16051"/>
        <path fill="none" stroke="rgb(51,78,88)" stroke-width="0" stroke-linejoin="round" stroke-linecap="round" d="M 12181,14599 L 12181,16051"/>
        <path fill="none" stroke="rgb(51,78,88)" stroke-width="0" stroke-linejoin="round" stroke-linecap="round" d="M 12453,14599 L 12453,16051"/>
        <path fill="none" stroke="rgb(51,78,88)" stroke-width="0" stroke-linejoin="round" stroke-linecap="round" d="M 12418,14599 L 12418,16051"/>
        <path fill="none" stroke="rgb(51,78,88)" stroke-width="0" stroke-linejoin="round" stroke-linecap="round" d="M 12689,14599 L 12689,16051"/>
        <path fill="none" stroke="rgb(51,78,88)" stroke-width="0" stroke-linejoin="round" stroke-linecap="round" d="M 12652,14599 L 12652,16051"/>
        <path fill="none" stroke="rgb(51,78,88)" stroke-width="0" stroke-linejoin="round" stroke-linecap="round" d="M 13046,16664 L 13009,16664"/>
        <path fill="none" stroke="rgb(51,78,88)" stroke-width="0" stroke-linejoin="round" stroke-linecap="round" d="M 8085,16664 L 8050,16664"/>
        <path fill="rgb(38,46,52)" stroke="none" d="M 13046,16069 L 13009,16664 13046,16664 13046,16069 Z"/>
        <path fill="rgb(38,46,52)" stroke="none" d="M 8085,16069 L 8050,16664 8085,16664 8085,16069 Z"/>
        <path fill="rgb(38,46,52)" stroke="none" d="M 13009,16069 L 13009,16664 13046,16069 13009,16069 Z"/>
        <path fill="rgb(38,46,52)" stroke="none" d="M 8050,16069 L 8050,16664 8085,16069 8050,16069 Z"/>
        <path fill="rgb(38,46,52)" stroke="none" d="M 8085,14939 L 8050,16069 8085,16069 8085,14939 Z"/>
        <path fill="rgb(38,46,52)" stroke="none" d="M 13046,14939 L 13009,16069 13046,16069 13046,14939 Z"/>
        <path fill="rgb(38,46,52)" stroke="none" d="M 8050,14939 L 8050,16069 8085,14939 8050,14939 Z"/>
        <path fill="rgb(38,46,52)" stroke="none" d="M 13009,14939 L 13009,16069 13046,14939 13009,14939 Z"/>
        <path fill="rgb(38,46,52)" stroke="none" d="M 8089,14890 L 8050,14939 8085,14939 8089,14890 Z"/>
        <path fill="rgb(38,46,52)" stroke="none" d="M 13007,14890 L 13009,14939 13046,14939 13007,14890 Z"/>
        <path fill="rgb(38,46,52)" stroke="none" d="M 13042,14885 L 13007,14890 13046,14939 13042,14885 Z"/>
        <path fill="rgb(38,46,52)" stroke="none" d="M 8054,14885 L 8050,14939 8089,14890 8054,14885 Z"/>
        <path fill="rgb(38,46,52)" stroke="none" d="M 12996,14842 L 13007,14890 13042,14885 12996,14842 Z"/>
        <path fill="rgb(38,46,52)" stroke="none" d="M 8098,14842 L 8054,14885 8089,14890 8098,14842 Z"/>
        <path fill="rgb(38,46,52)" stroke="none" d="M 13032,14833 L 12996,14842 13042,14885 13032,14833 Z"/>
        <path fill="rgb(38,46,52)" stroke="none" d="M 8064,14833 L 8054,14885 8098,14842 8064,14833 Z"/>
        <path fill="rgb(38,46,52)" stroke="none" d="M 8114,14798 L 8064,14833 8098,14842 8114,14798 Z"/>
        <path fill="rgb(38,46,52)" stroke="none" d="M 12980,14798 L 12996,14842 13032,14833 12980,14798 Z"/>
        <path fill="rgb(38,46,52)" stroke="none" d="M 13011,14783 L 12980,14798 13032,14833 13011,14783 Z"/>
        <path fill="rgb(38,46,52)" stroke="none" d="M 8083,14783 L 8064,14833 8114,14798 8083,14783 Z"/>
        <path fill="rgb(38,46,52)" stroke="none" d="M 8139,14755 L 8083,14783 8114,14798 8139,14755 Z"/>
        <path fill="rgb(38,46,52)" stroke="none" d="M 12956,14755 L 12980,14798 13011,14783 12956,14755 Z"/>
        <path fill="rgb(38,46,52)" stroke="none" d="M 12987,14735 L 12956,14755 13011,14783 12987,14735 Z"/>
        <path fill="rgb(38,46,52)" stroke="none" d="M 8109,14735 L 8083,14783 8139,14755 8109,14735 Z"/>
        <path fill="rgb(38,46,52)" stroke="none" d="M 12928,14717 L 12956,14755 12987,14735 12928,14717 Z"/>
        <path fill="rgb(38,46,52)" stroke="none" d="M 8168,14717 L 8109,14735 8139,14755 8168,14717 Z"/>
        <path fill="rgb(38,46,52)" stroke="none" d="M 12954,14693 L 12928,14717 12987,14735 12954,14693 12954,14693 Z"/>
        <path fill="rgb(38,46,52)" stroke="none" d="M 8140,14693 L 8109,14735 8168,14717 8140,14693 Z"/>
        <path fill="rgb(38,46,52)" stroke="none" d="M 12893,14682 L 12928,14717 12954,14693 12893,14682 Z"/>
        <path fill="rgb(38,46,52)" stroke="none" d="M 8201,14682 L 8140,14693 8168,14717 8201,14682 Z"/>
        <path fill="rgb(38,46,52)" stroke="none" d="M 12917,14656 L 12893,14682 12954,14693 12917,14656 Z"/>
        <path fill="rgb(38,46,52)" stroke="none" d="M 8180,14656 L 8140,14693 8201,14682 8180,14656 Z"/>
        <path fill="rgb(38,46,52)" stroke="none" d="M 12854,14652 L 12893,14682 12917,14656 12854,14652 Z"/>
        <path fill="rgb(38,46,52)" stroke="none" d="M 8241,14652 L 8180,14656 8201,14682 8241,14652 Z"/>
        <path fill="rgb(38,46,52)" stroke="none" d="M 12811,14630 L 12854,14652 12917,14656 12811,14630 Z"/>
        <path fill="rgb(38,46,52)" stroke="none" d="M 8283,14630 L 8180,14656 8241,14652 8283,14630 Z"/>
        <path fill="rgb(38,46,52)" stroke="none" d="M 12874,14623 L 12811,14630 12917,14656 12874,14623 Z"/>
        <path fill="rgb(38,46,52)" stroke="none" d="M 8222,14623 L 8180,14656 8283,14630 8222,14623 Z"/>
        <path fill="rgb(38,46,52)" stroke="none" d="M 8329,14613 L 8222,14623 8283,14630 8329,14613 Z"/>
        <path fill="rgb(38,46,52)" stroke="none" d="M 12767,14613 L 12811,14630 12874,14623 12767,14613 Z"/>
        <path fill="rgb(38,46,52)" stroke="none" d="M 8375,14602 L 8222,14623 8329,14613 8375,14602 Z"/>
        <path fill="rgb(38,46,52)" stroke="none" d="M 12719,14602 L 12767,14613 12874,14623 12719,14602 Z"/>
        <path fill="rgb(38,46,52)" stroke="none" d="M 12826,14597 L 8423,14599 12671,14599 12826,14597 Z"/>
        <path fill="rgb(38,46,52)" stroke="none" d="M 12826,14597 L 12671,14599 12719,14602 12826,14597 Z"/>
        <path fill="rgb(38,46,52)" stroke="none" d="M 12826,14597 L 12719,14602 12874,14623 12826,14597 Z"/>
        <path fill="rgb(38,46,52)" stroke="none" d="M 8268,14597 L 8423,14599 12826,14597 8268,14597 Z"/>
        <path fill="rgb(38,46,52)" stroke="none" d="M 8268,14597 L 8375,14602 8423,14599 8268,14597 Z"/>
        <path fill="rgb(38,46,52)" stroke="none" d="M 8268,14597 L 8222,14623 8375,14602 8268,14597 Z"/>
        <path fill="rgb(38,46,52)" stroke="none" d="M 12776,14578 L 8268,14597 12826,14597 12776,14578 Z"/>
        <path fill="rgb(38,46,52)" stroke="none" d="M 8318,14578 L 8268,14597 12776,14578 8318,14578 Z"/>
        <path fill="rgb(38,46,52)" stroke="none" d="M 12724,14567 L 8318,14578 12776,14578 12724,14567 Z"/>
        <path fill="rgb(38,46,52)" stroke="none" d="M 8372,14567 L 8318,14578 12724,14567 8372,14567 Z"/>
        <path fill="rgb(38,46,52)" stroke="none" d="M 8372,14567 L 12671,14563 8423,14563 8372,14567 Z"/>
        <path fill="rgb(38,46,52)" stroke="none" d="M 12671,14563 L 8372,14567 12724,14567 12671,14563 Z"/>
        <path fill="rgb(38,46,52)" stroke="none" d="M 13009,16069 L 8085,16088 13009,16088 13009,16069 Z"/>
        <path fill="rgb(38,46,52)" stroke="none" d="M 8085,16069 L 8085,16088 13009,16069 8085,16069 Z"/>
        <path fill="rgb(38,46,52)" stroke="none" d="M 8442,16051 L 8085,16069 13009,16069 8442,16051 Z"/>
        <path fill="rgb(38,46,52)" stroke="none" d="M 10566,16051 L 8442,16051 13009,16069 10566,16051 Z"/>
        <path fill="rgb(38,46,52)" stroke="none" d="M 9386,16051 L 8442,16051 10566,16051 9386,16051 Z"/>
        <path fill="rgb(38,46,52)" stroke="none" d="M 8913,16051 L 8442,16051 9386,16051 8913,16051 Z"/>
        <path fill="rgb(38,46,52)" stroke="none" d="M 12689,16051 L 10566,16051 13009,16069 12689,16051 Z"/>
        <path fill="rgb(38,46,52)" stroke="none" d="M 10529,16051 L 9386,16051 10566,16051 10529,16051 Z"/>
        <path fill="rgb(38,46,52)" stroke="none" d="M 12652,16051 L 10566,16051 12689,16051 12652,16051 Z"/>
        <path fill="rgb(38,46,52)" stroke="none" d="M 9349,16051 L 8913,16051 9386,16051 9349,16051 Z"/>
        <path fill="rgb(38,46,52)" stroke="none" d="M 8878,16051 L 8442,16051 8913,16051 8878,16051 Z"/>
        <path fill="rgb(38,46,52)" stroke="none" d="M 8407,16051 L 8085,16069 8442,16051 8407,16051 Z"/>
        <path fill="rgb(38,46,52)" stroke="none" d="M 9150,16051 L 8913,16051 9349,16051 9150,16051 Z"/>
        <path fill="rgb(38,46,52)" stroke="none" d="M 8913,16051 L 9150,16051 9114,16051 8913,16051 Z"/>
        <path fill="rgb(38,46,52)" stroke="none" d="M 11473,16051 L 10566,16051 12652,16051 11473,16051 Z"/>
        <path fill="rgb(38,46,52)" stroke="none" d="M 11037,16051 L 10566,16051 11473,16051 11037,16051 Z"/>
        <path fill="rgb(38,46,52)" stroke="none" d="M 10566,16051 L 11037,16051 11002,16051 10566,16051 Z"/>
        <path fill="rgb(38,46,52)" stroke="none" d="M 12181,16051 L 11473,16051 12652,16051 12181,16051 Z"/>
        <path fill="rgb(38,46,52)" stroke="none" d="M 9621,16051 L 9386,16051 10529,16051 9621,16051 Z"/>
        <path fill="rgb(38,46,52)" stroke="none" d="M 9386,16051 L 9621,16051 9586,16051 9386,16051 Z"/>
        <path fill="rgb(38,46,52)" stroke="none" d="M 11745,16051 L 11473,16051 12181,16051 11745,16051 Z"/>
        <path fill="rgb(38,46,52)" stroke="none" d="M 11473,16051 L 11745,16051 11710,16051 11473,16051 Z"/>
        <path fill="rgb(38,46,52)" stroke="none" d="M 10057,16051 L 9621,16051 10529,16051 10057,16051 Z"/>
        <path fill="rgb(38,46,52)" stroke="none" d="M 13009,16051 L 12689,16051 13009,16069 13009,16051 Z"/>
        <path fill="rgb(38,46,52)" stroke="none" d="M 12216,16051 L 12181,16051 12652,16051 12216,16051 Z"/>
        <path fill="rgb(38,46,52)" stroke="none" d="M 11508,16051 L 11473,16051 11710,16051 11508,16051 Z"/>
        <path fill="rgb(38,46,52)" stroke="none" d="M 10094,16051 L 10057,16051 10529,16051 10094,16051 Z"/>
        <path fill="rgb(38,46,52)" stroke="none" d="M 12418,16051 L 12216,16051 12652,16051 12418,16051 Z"/>
        <path fill="rgb(38,46,52)" stroke="none" d="M 12652,16051 L 12453,16051 12418,16051 12652,16051 Z"/>
        <path fill="rgb(38,46,52)" stroke="none" d="M 8678,16051 L 8442,16051 8878,16051 8678,16051 Z"/>
        <path fill="rgb(38,46,52)" stroke="none" d="M 8442,16051 L 8678,16051 8641,16051 8442,16051 Z"/>
        <path fill="rgb(38,46,52)" stroke="none" d="M 11944,16051 L 11745,16051 12181,16051 11944,16051 Z"/>
        <path fill="rgb(38,46,52)" stroke="none" d="M 12181,16051 L 11982,16051 11944,16051 12181,16051 Z"/>
        <path fill="rgb(38,46,52)" stroke="none" d="M 10294,16051 L 10094,16051 10529,16051 10294,16051 Z"/>
        <path fill="rgb(38,46,52)" stroke="none" d="M 10529,16051 L 10329,16051 10294,16051 10529,16051 Z"/>
        <path fill="rgb(38,46,52)" stroke="none" d="M 11237,16051 L 11037,16051 11473,16051 11237,16051 Z"/>
        <path fill="rgb(38,46,52)" stroke="none" d="M 11473,16051 L 11274,16051 11237,16051 11473,16051 Z"/>
        <path fill="rgb(38,46,52)" stroke="none" d="M 10800,16051 L 10566,16051 11002,16051 10800,16051 Z"/>
        <path fill="rgb(38,46,52)" stroke="none" d="M 10566,16051 L 10800,16051 10765,16051 10566,16051 Z"/>
        <path fill="rgb(38,46,52)" stroke="none" d="M 9822,16051 L 9621,16051 10057,16051 9822,16051 Z"/>
        <path fill="rgb(38,46,52)" stroke="none" d="M 8085,16051 L 8085,16069 8407,16051 8085,16051 Z"/>
        <path fill="rgb(38,46,52)" stroke="none" d="M 8442,14599 L 8423,14599 8442,16051 8442,14599 Z"/>
        <path fill="rgb(38,46,52)" stroke="none" d="M 8416,14599 L 8442,16051 8423,14599 8416,14599 Z"/>
        <path fill="rgb(38,46,52)" stroke="none" d="M 8442,16051 L 8416,14599 8407,16051 8442,16051 Z"/>
        <path fill="rgb(38,46,52)" stroke="none" d="M 8407,14600 L 8407,16051 8416,14599 8407,14600 Z"/>
        <path fill="none" stroke="rgb(51,78,88)" stroke-width="0" stroke-linejoin="round" stroke-linecap="round" d="M 8407,14599 L 8407,16051"/>
        <path fill="none" stroke="rgb(51,78,88)" stroke-width="0" stroke-linejoin="round" stroke-linecap="round" d="M 10360,14755 L 8377,14755"/>
        <path fill="none" stroke="rgb(51,78,88)" stroke-width="0" stroke-linejoin="round" stroke-linecap="round" d="M 9699,14755 L 9699,14754"/>
        <path fill="none" stroke="rgb(51,78,88)" stroke-width="0" stroke-linejoin="round" stroke-linecap="round" d="M 9039,14755 L 9039,15171"/>
        <path fill="none" stroke="rgb(51,78,88)" stroke-width="0" stroke-linejoin="round" stroke-linecap="round" d="M 9699,14755 L 9699,15171"/>
        <path fill="rgb(213,51,42)" stroke="none" d="M 8708,14962 L 9039,14755 8377,14755 8708,14962 Z"/>
        <path fill="rgb(213,51,42)" stroke="none" d="M 8708,14962 L 8377,14755 8377,15171 8708,14962 Z"/>
        <path fill="rgb(213,51,42)" stroke="none" d="M 8708,14962 L 8377,15171 9039,15171 8708,14962 Z"/>
        <path fill="rgb(213,51,42)" stroke="none" d="M 8708,14962 L 9039,15171 9039,14755 8708,14962 Z"/>
        <path fill="rgb(213,51,42)" stroke="none" d="M 10030,14962 L 10360,14755 9699,14755 10030,14962 Z"/>
        <path fill="rgb(213,51,42)" stroke="none" d="M 10030,14962 L 9699,14755 9699,15171 10030,14962 Z"/>
        <path fill="rgb(213,51,42)" stroke="none" d="M 10030,14962 L 9699,15171 10360,15171 10030,14962 Z"/>
        <path fill="rgb(213,51,42)" stroke="none" d="M 10030,14962 L 10360,15171 10360,14755 10030,14962 Z"/>
        <path fill="none" stroke="rgb(51,78,88)" stroke-width="0" stroke-linejoin="round" stroke-linecap="round" d="M 8377,14755 L 10360,14755"/>
        <path fill="none" stroke="rgb(51,78,88)" stroke-width="0" stroke-linejoin="round" stroke-linecap="round" d="M 12059,14755 L 12059,14754"/>
        <path fill="none" stroke="rgb(51,78,88)" stroke-width="0" stroke-linejoin="round" stroke-linecap="round" d="M 11397,14755 L 11397,15171"/>
        <path fill="none" stroke="rgb(51,78,88)" stroke-width="0" stroke-linejoin="round" stroke-linecap="round" d="M 12059,14755 L 12059,15171"/>
        <path fill="rgb(213,51,42)" stroke="none" d="M 11067,14962 L 11397,14755 10736,14755 11067,14962 Z"/>
        <path fill="rgb(213,51,42)" stroke="none" d="M 11067,14962 L 10736,14755 10736,15171 11067,14962 Z"/>
        <path fill="rgb(213,51,42)" stroke="none" d="M 11067,14962 L 10736,15171 11397,15171 11067,14962 Z"/>
        <path fill="rgb(213,51,42)" stroke="none" d="M 11067,14962 L 11397,15171 11397,14755 11067,14962 Z"/>
        <path fill="rgb(213,51,42)" stroke="none" d="M 12390,14962 L 12721,14755 12059,14755 12390,14962 Z"/>
        <path fill="rgb(213,51,42)" stroke="none" d="M 12390,14962 L 12059,14755 12059,15171 12390,14962 Z"/>
        <path fill="rgb(213,51,42)" stroke="none" d="M 12390,14962 L 12059,15171 12721,15171 12390,14962 12390,14962 Z"/>
        <path fill="rgb(213,51,42)" stroke="none" d="M 12390,14962 L 12721,15171 12721,14755 12390,14962 Z"/>
        <path fill="none" stroke="rgb(51,78,88)" stroke-width="0" stroke-linejoin="round" stroke-linecap="round" d="M 11508,15171 L 11508,16051"/>
        <path fill="none" stroke="rgb(51,78,88)" stroke-width="0" stroke-linejoin="round" stroke-linecap="round" d="M 11473,15171 L 11473,16051"/>
        <path fill="none" stroke="rgb(51,78,88)" stroke-width="0" stroke-linejoin="round" stroke-linecap="round" d="M 11745,14599 L 11745,14755"/>
        <path fill="none" stroke="rgb(51,78,88)" stroke-width="0" stroke-linejoin="round" stroke-linecap="round" d="M 11710,14599 L 11710,14755"/>
        <path fill="none" stroke="rgb(51,78,88)" stroke-width="0" stroke-linejoin="round" stroke-linecap="round" d="M 11745,15171 L 11745,16051"/>
        <path fill="none" stroke="rgb(51,78,88)" stroke-width="0" stroke-linejoin="round" stroke-linecap="round" d="M 11710,15171 L 11710,16051"/>
        <path fill="none" stroke="rgb(51,78,88)" stroke-width="0" stroke-linejoin="round" stroke-linecap="round" d="M 11982,14599 L 11982,14755"/>
        <path fill="none" stroke="rgb(51,78,88)" stroke-width="0" stroke-linejoin="round" stroke-linecap="round" d="M 11944,14599 L 11944,14755"/>
        <path fill="none" stroke="rgb(51,78,88)" stroke-width="0" stroke-linejoin="round" stroke-linecap="round" d="M 11982,15171 L 11982,16051"/>
        <path fill="none" stroke="rgb(51,78,88)" stroke-width="0" stroke-linejoin="round" stroke-linecap="round" d="M 11944,15171 L 11944,16051"/>
        <path fill="none" stroke="rgb(51,78,88)" stroke-width="0" stroke-linejoin="round" stroke-linecap="round" d="M 9150,14599 L 9150,14755"/>
        <path fill="none" stroke="rgb(51,78,88)" stroke-width="0" stroke-linejoin="round" stroke-linecap="round" d="M 9114,14599 L 9114,14755"/>
        <path fill="none" stroke="rgb(51,78,88)" stroke-width="0" stroke-linejoin="round" stroke-linecap="round" d="M 9150,15171 L 9150,16051"/>
        <path fill="none" stroke="rgb(51,78,88)" stroke-width="0" stroke-linejoin="round" stroke-linecap="round" d="M 9114,15171 L 9114,16051"/>
        <path fill="none" stroke="rgb(51,78,88)" stroke-width="0" stroke-linejoin="round" stroke-linecap="round" d="M 9386,14599 L 9386,14755"/>
        <path fill="none" stroke="rgb(51,78,88)" stroke-width="0" stroke-linejoin="round" stroke-linecap="round" d="M 9349,14599 L 9349,14755"/>
        <path fill="none" stroke="rgb(51,78,88)" stroke-width="0" stroke-linejoin="round" stroke-linecap="round" d="M 9386,15171 L 9386,16051"/>
        <path fill="none" stroke="rgb(51,78,88)" stroke-width="0" stroke-linejoin="round" stroke-linecap="round" d="M 9349,15171 L 9349,16051"/>
        <path fill="none" stroke="rgb(51,78,88)" stroke-width="0" stroke-linejoin="round" stroke-linecap="round" d="M 9621,14599 L 9621,14755"/>
        <path fill="none" stroke="rgb(51,78,88)" stroke-width="0" stroke-linejoin="round" stroke-linecap="round" d="M 9586,14599 L 9586,14755"/>
        <path fill="none" stroke="rgb(51,78,88)" stroke-width="0" stroke-linejoin="round" stroke-linecap="round" d="M 9621,15171 L 9621,16051"/>
        <path fill="none" stroke="rgb(51,78,88)" stroke-width="0" stroke-linejoin="round" stroke-linecap="round" d="M 9586,15171 L 9586,16051"/>
        <path fill="rgb(38,46,52)" stroke="none" d="M 9349,16051 L 9386,15171 9349,15171 9349,16051 Z"/>
        <path fill="rgb(38,46,52)" stroke="none" d="M 9386,15171 L 9349,16051 9386,16051 9386,15171 Z"/>
        <path fill="rgb(38,46,52)" stroke="none" d="M 9150,16051 L 9150,15171 9114,15171 9150,16051 Z"/>
        <path fill="rgb(38,46,52)" stroke="none" d="M 9114,15171 L 9114,16051 9150,16051 9114,15171 Z"/>
        <path fill="rgb(38,46,52)" stroke="none" d="M 9621,15171 L 9586,16051 9621,16051 9621,15171 Z"/>
        <path fill="rgb(38,46,52)" stroke="none" d="M 9586,15171 L 9586,16051 9621,15171 9586,15171 Z"/>
        <path fill="rgb(38,46,52)" stroke="none" d="M 9349,14599 L 9349,14755 9386,14755 9349,14599 Z"/>
        <path fill="rgb(38,46,52)" stroke="none" d="M 9386,14599 L 9349,14599 9386,14755 9386,14599 Z"/>
        <path fill="rgb(38,46,52)" stroke="none" d="M 9150,14755 L 9150,14599 9114,14599 9150,14755 Z"/>
        <path fill="rgb(38,46,52)" stroke="none" d="M 9114,14599 L 9114,14755 9150,14755 9114,14599 Z"/>
        <path fill="rgb(38,46,52)" stroke="none" d="M 9586,14599 L 9586,14755 9621,14755 9586,14599 Z"/>
        <path fill="rgb(38,46,52)" stroke="none" d="M 9621,14599 L 9586,14599 9621,14755 9621,14599 Z"/>
        <path fill="rgb(38,46,52)" stroke="none" d="M 11944,15171 L 11944,16051 11982,16051 11944,15171 Z"/>
        <path fill="rgb(38,46,52)" stroke="none" d="M 11982,15171 L 11944,15171 11982,16051 11982,15171 Z"/>
        <path fill="rgb(38,46,52)" stroke="none" d="M 11745,16051 L 11745,15171 11710,15171 11745,16051 Z"/>
        <path fill="rgb(38,46,52)" stroke="none" d="M 11710,15171 L 11710,16051 11745,16051 11710,15171 Z"/>
        <path fill="rgb(38,46,52)" stroke="none" d="M 11508,15171 L 11473,16051 11508,16051 11508,15171 Z"/>
        <path fill="rgb(38,46,52)" stroke="none" d="M 11473,15171 L 11473,16051 11508,15171 11473,15171 Z"/>
        <path fill="rgb(38,46,52)" stroke="none" d="M 11508,14599 L 11473,14755 11508,14755 11508,14599 Z"/>
        <path fill="rgb(38,46,52)" stroke="none" d="M 11473,14599 L 11473,14755 11508,14599 11473,14599 Z"/>
        <path fill="rgb(38,46,52)" stroke="none" d="M 11982,14599 L 11944,14755 11982,14755 11982,14599 Z"/>
        <path fill="rgb(38,46,52)" stroke="none" d="M 11745,14599 L 11710,14755 11745,14755 11745,14599 Z"/>
        <path fill="rgb(38,46,52)" stroke="none" d="M 11944,14599 L 11944,14755 11982,14599 11944,14599 Z"/>
        <path fill="rgb(38,46,52)" stroke="none" d="M 11710,14599 L 11710,14755 11745,14599 11710,14599 Z"/>
        <path fill="rgb(38,46,52)" stroke="none" d="M 12652,15171 L 12652,16051 12689,16051 12652,15171 Z"/>
        <path fill="rgb(38,46,52)" stroke="none" d="M 12689,15171 L 12652,15171 12689,16051 12689,15171 Z"/>
        <path fill="rgb(38,46,52)" stroke="none" d="M 12216,15171 L 12181,16051 12216,16051 12216,15171 Z"/>
        <path fill="rgb(38,46,52)" stroke="none" d="M 12453,15171 L 12418,16051 12453,16051 12453,15171 Z"/>
        <path fill="rgb(38,46,52)" stroke="none" d="M 12418,15171 L 12418,16051 12453,15171 12418,15171 Z"/>
        <path fill="rgb(38,46,52)" stroke="none" d="M 12181,15171 L 12181,16051 12216,15171 12181,15171 Z"/>
        <path fill="rgb(38,46,52)" stroke="none" d="M 12689,14600 L 12652,14755 12689,14755 12689,14600 Z"/>
        <path fill="rgb(38,46,52)" stroke="none" d="M 12680,14599 L 12652,14755 12689,14600 12680,14599 Z"/>
        <path fill="rgb(38,46,52)" stroke="none" d="M 12418,14755 L 12453,14599 12418,14599 12418,14755 Z"/>
        <path fill="rgb(38,46,52)" stroke="none" d="M 12453,14599 L 12418,14755 12453,14755 12453,14599 Z"/>
        <path fill="rgb(38,46,52)" stroke="none" d="M 12216,14599 L 12181,14755 12216,14755 12216,14599 Z"/>
        <path fill="rgb(38,46,52)" stroke="none" d="M 12652,14599 L 12652,14755 12680,14599 12652,14599 Z"/>
        <path fill="rgb(38,46,52)" stroke="none" d="M 12671,14599 L 12652,14599 12680,14599 12671,14599 Z"/>
        <path fill="rgb(38,46,52)" stroke="none" d="M 12181,14599 L 12181,14755 12216,14599 12181,14599 Z"/>
        <path fill="none" stroke="rgb(51,78,88)" stroke-width="0" stroke-linejoin="round" stroke-linecap="round" d="M 8377,14755 L 8377,15171 10360,15171 10360,14755"/>
        <path fill="rgb(38,46,52)" stroke="none" d="M 8678,16051 L 8678,15171 8641,15171 8678,16051 Z"/>
        <path fill="rgb(38,46,52)" stroke="none" d="M 8641,15171 L 8641,16051 8678,16051 8641,15171 Z"/>
        <path fill="rgb(38,46,52)" stroke="none" d="M 8913,16051 L 8913,15171 8878,15171 8913,16051 Z"/>
        <path fill="rgb(38,46,52)" stroke="none" d="M 8878,15171 L 8878,16051 8913,16051 8878,15171 Z"/>
        <path fill="rgb(38,46,52)" stroke="none" d="M 8641,14599 L 8641,14755 8678,14755 8641,14599 Z"/>
        <path fill="rgb(38,46,52)" stroke="none" d="M 8678,14599 L 8641,14599 8678,14755 8678,14599 Z"/>
        <path fill="rgb(38,46,52)" stroke="none" d="M 8913,14755 L 8913,14599 8878,14599 8913,14755 Z"/>
        <path fill="rgb(38,46,52)" stroke="none" d="M 8878,14599 L 8878,14755 8913,14755 8878,14599 Z"/>
        <path fill="none" stroke="rgb(51,78,88)" stroke-width="0" stroke-linejoin="round" stroke-linecap="round" d="M 12721,14755 L 10736,14755 10736,15171 12721,15171 12721,14755 10736,14755"/>
        <path fill="rgb(38,46,52)" stroke="none" d="M 9822,16051 L 9857,15171 9822,15171 9822,16051 Z"/>
        <path fill="rgb(38,46,52)" stroke="none" d="M 9857,15171 L 9822,16051 9857,16051 9857,15171 Z"/>
        <path fill="rgb(38,46,52)" stroke="none" d="M 10094,15171 L 10057,16051 10094,16051 10094,15171 Z"/>
        <path fill="rgb(38,46,52)" stroke="none" d="M 10057,15171 L 10057,16051 10094,15171 10057,15171 Z"/>
        <path fill="rgb(38,46,52)" stroke="none" d="M 10329,15171 L 10294,16051 10329,16051 10329,15171 Z"/>
        <path fill="rgb(38,46,52)" stroke="none" d="M 10294,15171 L 10294,16051 10329,15171 10294,15171 Z"/>
        <path fill="rgb(38,46,52)" stroke="none" d="M 9857,14755 L 9857,14599 9822,14599 9857,14755 Z"/>
        <path fill="rgb(38,46,52)" stroke="none" d="M 9822,14599 L 9822,14755 9857,14755 9822,14599 Z"/>
        <path fill="rgb(38,46,52)" stroke="none" d="M 10057,14755 L 10094,14599 10057,14599 10057,14755 Z"/>
        <path fill="rgb(38,46,52)" stroke="none" d="M 10094,14599 L 10057,14755 10094,14755 10094,14599 Z"/>
        <path fill="rgb(38,46,52)" stroke="none" d="M 10329,14755 L 10329,14599 10294,14599 10329,14755 Z"/>
        <path fill="rgb(38,46,52)" stroke="none" d="M 10294,14599 L 10294,14755 10329,14755 10294,14599 Z"/>
        <path fill="rgb(38,46,52)" stroke="none" d="M 10800,16051 L 10800,15171 10765,15171 10800,16051 Z"/>
        <path fill="rgb(38,46,52)" stroke="none" d="M 10765,15171 L 10765,16051 10800,16051 10765,15171 Z"/>
        <path fill="rgb(38,46,52)" stroke="none" d="M 11037,15171 L 11002,16051 11037,16051 11037,15171 Z"/>
        <path fill="rgb(38,46,52)" stroke="none" d="M 11237,15171 L 11237,16051 11274,16051 11237,15171 Z"/>
        <path fill="rgb(38,46,52)" stroke="none" d="M 11002,15171 L 11002,16051 11037,15171 11002,15171 Z"/>
        <path fill="rgb(38,46,52)" stroke="none" d="M 11274,15171 L 11237,15171 11274,16051 11274,15171 Z"/>
        <path fill="rgb(38,46,52)" stroke="none" d="M 11037,14755 L 11037,14599 11002,14599 11037,14755 Z"/>
        <path fill="rgb(38,46,52)" stroke="none" d="M 11002,14599 L 11002,14755 11037,14755 11002,14599 Z"/>
        <path fill="rgb(38,46,52)" stroke="none" d="M 11274,14599 L 11237,14755 11274,14755 11274,14599 Z"/>
        <path fill="rgb(38,46,52)" stroke="none" d="M 10800,14755 L 10800,14599 10765,14599 10800,14755 Z"/>
        <path fill="rgb(38,46,52)" stroke="none" d="M 10765,14599 L 10765,14755 10800,14755 10765,14599 Z"/>
        <path fill="rgb(38,46,52)" stroke="none" d="M 11237,14599 L 11237,14755 11274,14599 11237,14599 Z"/>
        <path fill="rgb(38,46,52)" stroke="none" d="M 10547,15324 L 10566,14599 10529,14599 10547,15324 Z"/>
        <path fill="rgb(38,46,52)" stroke="none" d="M 10547,15324 L 10529,14599 10529,16051 10547,15324 Z"/>
        <path fill="rgb(38,46,52)" stroke="none" d="M 10547,15324 L 10529,16051 10566,16051 10547,15324 Z"/>
        <path fill="rgb(38,46,52)" stroke="none" d="M 10547,15324 L 10566,16051 10566,14599 10547,15324 Z"/>
        <path fill="rgb(215,67,51)" stroke="none" d="M 10553,13148 L 10589,13149 10624,13151 10659,13156 10694,13162 10728,13170 10761,13180 10794,13191 10825,13203 10856,13217 10886,13232 10916,13249 10944,13267 10972,13287 10998,13308 11024,13330 11048,13353 11071,13377 11093,13403 11114,13429 11133,13457 11152,13485 11168,13514 11184,13544 11198,13575 11210,13607 11221,13640 11231,13673 11239,13707 11245,13741 11249,13776 11252,13812 11253,13848 11252,13884 11249,13920 11245,13955 11239,13989 11231,14023 11221,14056 11210,14089 11198,14121 11184,14151 11168,14181 11152,14211 11133,14239 11114,14267 11093,14293 11071,14319 11048,14343 11024,14366 10998,14388 10972,14409 10944,14428 10916,14447 10886,14463 10856,14479 10825,14493 10794,14505 10761,14516 10728,14526 10694,14534 10659,14540 10624,14544 10589,14547 10553,14548 10517,14547 10481,14544 10446,14540 10412,14534 10378,14526 10344,14516 10312,14505 10280,14493 10249,14479 10219,14463 10190,14447 10161,14428 10134,14409 10107,14388 10082,14366 10058,14343 10034,14319 10012,14293 9992,14267 9972,14239 9954,14211 9937,14181 9922,14151 9907,14121 9895,14089 9884,14056 9875,14023 9867,13989 9861,13955 9856,13920 9853,13884 9852,13848 9853,13812 9856,13776 9861,13741 9867,13707 9875,13673 9884,13640 9895,13607 9907,13575 9922,13544 9937,13514 9954,13485 9972,13457 9992,13429 10012,13403 10034,13377 10058,13353 10082,13330 10107,13308 10134,13287 10161,13267 10190,13249 10219,13232 10249,13217 10280,13203 10312,13191 10344,13180 10378,13170 10412,13162 10446,13156 10481,13151 10517,13149 10553,13148 Z"/>
        <path fill="rgb(255,255,255)" stroke="none" d="M 10553,13381 L 10559,13381 10565,13382 10571,13382 10576,13382 10582,13382 10588,13382 10594,13383 10600,13383 10606,13384 10611,13385 10617,13386 10623,13387 10629,13387 10634,13388 10640,13389 10646,13391 10652,13392 10657,13393 10663,13394 10668,13396 10674,13397 10679,13399 10685,13400 10691,13402 10696,13404 10702,13405 10707,13407 10713,13409 10718,13411 10723,13413 10729,13416 10734,13418 10740,13420 10745,13422 10750,13425 10755,13427 10760,13430 10765,13432 10770,13435 10775,13437 10780,13440 10785,13443 10790,13446 10794,13448 10799,13452 10804,13454 10809,13457 10814,13461 10818,13464 10823,13467 10827,13470 10832,13473 10836,13477 10840,13480 10845,13484 10849,13487 10854,13491 10858,13495 10862,13498 10866,13502 10870,13506 10875,13510 10879,13514 10883,13518 10887,13522 10891,13526 10895,13530 10899,13534 10902,13539 10906,13543 10910,13547 10914,13552 10917,13556 10920,13560 10924,13565 10927,13569 10930,13574 10934,13578 10937,13583 10940,13588 10943,13592 10946,13597 10950,13602 10952,13606 10955,13611 10958,13616 10961,13621 10964,13626 10966,13631 10969,13636 10971,13641 10974,13646 10976,13651 10979,13656 10981,13661 10983,13666 10985,13672 10987,13677 10990,13683 10991,13688 10994,13694 10996,13699 10997,13704 10999,13710 11001,13716 11002,13721 11004,13727 11005,13732 11007,13738 11008,13744 11009,13749 11011,13755 11011,13761 11013,13766 11014,13772 11015,13778 11015,13784 11016,13789 11017,13795 11017,13801 11018,13807 11018,13813 11019,13818 11019,13824 11019,13830 11019,13836 11020,13842 11020,13848 11020,13854 11019,13860 11019,13866 11019,13872 11019,13877 11018,13883 11018,13889 11017,13895 11017,13901 11016,13906 11015,13912 11015,13918 11014,13924 11013,13930 11011,13935 11011,13941 11009,13946 11008,13952 11007,13958 11005,13963 11004,13969 11002,13975 11001,13980 10999,13986 10997,13991 10996,13997 10994,14002 10991,14008 10990,14013 10987,14019 10985,14024 10983,14030 10981,14035 10979,14040 10976,14045 10974,14050 10971,14055 10969,14060 10966,14065 10964,14070 10961,14075 10958,14080 10955,14085 10952,14090 10950,14094 10946,14099 10943,14104 10940,14108 10937,14113 10934,14118 10930,14122 10927,14127 10924,14131 10920,14136 10917,14140 10914,14144 10910,14149 10906,14153 10902,14157 10899,14161 10895,14166 10891,14170 10887,14174 10883,14178 10879,14182 10875,14186 10870,14190 10866,14194 10862,14197 10858,14201 10854,14205 10849,14208 10845,14212 10840,14216 10836,14219 10832,14222 10827,14226 10823,14229 10818,14232 10814,14235 10809,14238 10804,14242 10799,14244 10794,14247 10790,14250 10785,14253 10780,14256 10775,14258 10770,14261 10765,14264 10760,14266 10755,14269 10750,14271 10745,14273 10740,14276 10734,14278 10729,14280 10723,14282 10718,14284 10713,14287 10707,14288 10702,14290 10696,14292 10691,14294 10685,14296 10679,14297 10674,14299 10668,14300 10663,14302 10657,14303 10652,14304 10646,14305 10640,14307 10634,14307 10629,14308 10623,14309 10617,14310 10611,14311 10606,14312 10600,14312 10594,14313 10588,14313 10582,14314 10576,14314 10571,14314 10565,14314 10559,14314 10553,14315 10547,14314 10541,14314 10535,14314 10529,14314 10523,14314 10517,14313 10512,14313 10506,14312 10500,14312 10494,14311 10488,14310 10483,14309 10477,14308 10471,14307 10465,14307 10460,14305 10454,14304 10449,14303 10443,14302 10437,14300 10432,14299 10426,14297 10420,14296 10415,14294 10409,14292 10404,14290 10399,14288 10393,14287 10388,14284 10382,14282 10377,14280 10371,14278 10366,14276 10361,14273 10356,14271 10351,14269 10345,14266 10340,14264 10335,14261 10331,14258 10326,14256 10321,14253 10316,14250 10311,14247 10306,14244 10302,14242 10297,14238 10292,14235 10287,14232 10283,14229 10278,14226 10274,14222 10269,14219 10265,14216 10261,14212 10256,14208 10252,14205 10247,14201 10243,14197 10239,14194 10235,14190 10231,14186 10227,14182 10223,14178 10219,14174 10215,14170 10211,14166 10207,14161 10203,14157 10200,14153 10196,14149 10192,14144 10189,14140 10185,14136 10182,14131 10178,14127 10175,14122 10172,14118 10168,14113 10165,14108 10162,14104 10159,14099 10156,14094 10153,14090 10150,14085 10148,14080 10145,14075 10142,14070 10140,14065 10137,14060 10134,14055 10132,14050 10130,14045 10127,14040 10125,14035 10123,14030 10120,14024 10118,14019 10116,14013 10114,14008 10112,14002 10110,13997 10108,13991 10106,13986 10105,13980 10103,13975 10102,13969 10100,13963 10099,13958 10098,13952 10096,13946 10095,13941 10094,13935 10093,13930 10092,13924 10091,13918 10090,13912 10090,13906 10089,13901 10088,13895 10088,13889 10087,13883 10087,13877 10086,13872 10086,13866 10086,13860 10086,13854 10086,13848 10086,13842 10086,13836 10086,13830 10086,13824 10087,13818 10087,13813 10088,13807 10088,13801 10089,13795 10090,13789 10090,13784 10091,13778 10092,13772 10093,13766 10094,13761 10095,13755 10096,13749 10098,13744 10099,13738 10100,13732 10102,13727 10103,13721 10105,13716 10106,13710 10108,13704 10110,13699 10112,13694 10114,13688 10116,13683 10118,13677 10120,13672 10123,13666 10125,13661 10127,13656 10130,13651 10132,13646 10134,13641 10137,13636 10140,13631 10142,13626 10145,13621 10148,13616 10150,13611 10153,13606 10156,13602 10159,13597 10162,13592 10165,13588 10168,13583 10172,13578 10175,13574 10178,13569 10182,13565 10185,13560 10189,13556 10192,13552 10196,13547 10200,13543 10203,13539 10207,13534 10211,13530 10215,13526 10219,13522 10223,13518 10227,13514 10231,13510 10235,13506 10239,13502 10243,13498 10247,13495 10252,13491 10256,13487 10261,13484 10265,13480 10269,13477 10274,13473 10278,13470 10283,13467 10287,13464 10292,13461 10297,13457 10302,13454 10306,13452 10311,13448 10316,13446 10321,13443 10326,13440 10331,13437 10335,13435 10340,13432 10345,13430 10351,13427 10356,13425 10361,13422 10366,13420 10371,13418 10377,13416 10382,13413 10388,13411 10393,13409 10399,13407 10404,13405 10409,13404 10415,13402 10420,13400 10426,13399 10432,13397 10437,13396 10443,13394 10449,13393 10454,13392 10460,13391 10465,13389 10471,13388 10477,13387 10483,13387 10488,13386 10494,13385 10500,13384 10506,13383 10512,13383 10517,13382 10523,13382 10529,13382 10535,13382 10541,13382 10547,13381 10553,13381 Z"/>
        <path fill="rgb(48,51,53)" stroke="none" d="M 10834,13949 L 10834,14033 10834,14035 10834,14036 10834,14037 10834,14038 10834,14038 10834,14039 10834,14040 10834,14041 10833,14041 10833,14042 10832,14043 10832,14043 10832,14043 10832,14044 10831,14044 10831,14045 10830,14045 10830,14045 10829,14045 10829,14045 10828,14046 10827,14046 10826,14046 10826,14046 10824,14046 10823,14046 10790,14046 10789,14046 10788,14046 10786,14046 10786,14046 10784,14046 10783,14045 10783,14045 10782,14044 10782,14044 10781,14043 10781,14043 10781,14043 10781,14043 10780,14043 10780,14042 10780,14042 10780,14041 10780,14040 10780,14039 10779,14039 10779,14038 10779,14038 10779,14036 10779,14035 10779,13958 10778,13958 10777,13958 10776,13959 10775,13959 10773,13959 10772,13959 10766,13960 10760,13960 10753,13961 10746,13962 10739,13963 10732,13963 10724,13964 10717,13964 10710,13965 10702,13965 10695,13965 10688,13965 10681,13966 10674,13966 10668,13966 10662,13966 10658,13966 10652,13966 10646,13966 10639,13967 10631,13967 10623,13967 10614,13967 10605,13967 10596,13968 10588,13968 10579,13968 10571,13968 10564,13968 10558,13968 10553,13968 10549,13968 10542,13968 10536,13968 10530,13968 10523,13968 10516,13968 10510,13968 10503,13968 10496,13968 10490,13967 10483,13967 10477,13967 10470,13967 10463,13966 10457,13966 10450,13965 10444,13965 10438,13965 10431,13965 10425,13965 10418,13964 10411,13964 10404,13964 10397,13963 10390,13963 10383,13963 10376,13962 10369,13962 10362,13962 10356,13962 10349,13961 10343,13961 10337,13961 10329,13960 10329,14032 10329,14039 10329,14039 10329,14040 10328,14041 10328,14041 10328,14042 10327,14044 10326,14045 10325,14046 10324,14046 10324,14046 10323,14046 10322,14046 10317,14046 10285,14046 10282,14046 10281,14046 10280,14046 10279,14046 10279,14046 10277,14045 10276,14044 10275,14043 10275,14042 10275,14042 10275,14041 10275,14040 10275,14039 10275,14037 10275,14036 10275,14034 10275,14033 10275,13949 10252,13949 10251,13949 10249,13949 10247,13949 10246,13949 10245,13948 10244,13948 10242,13947 10242,13946 10241,13945 10241,13945 10240,13945 10240,13944 10240,13943 10240,13943 10239,13942 10239,13942 10239,13941 10239,13940 10238,13939 10238,13937 10238,13935 10238,13933 10238,13931 10238,13930 10239,13928 10239,13926 10239,13922 10239,13918 10238,13914 10238,13910 10238,13907 10238,13903 10238,13900 10238,13895 10238,13891 10237,13887 10237,13882 10237,13878 10237,13874 10236,13869 10236,13865 10235,13860 10234,13855 10233,13850 10233,13845 10232,13841 10231,13836 10229,13832 10229,13831 10229,13829 10229,13827 10228,13825 10228,13824 10227,13822 10227,13820 10227,13819 10227,13817 10226,13815 10226,13813 10226,13810 10226,13808 10226,13806 10227,13804 10227,13801 10228,13799 10228,13796 10229,13794 10230,13792 10230,13789 10231,13787 10232,13785 10233,13783 10234,13781 10235,13779 10236,13778 10237,13776 10238,13774 10240,13773 10241,13772 10242,13770 10244,13769 10245,13768 10247,13766 10248,13765 10250,13764 10252,13763 10253,13762 10255,13760 10257,13759 10259,13757 10262,13756 10264,13754 10267,13754 10270,13752 10271,13752 10272,13752 10273,13751 10275,13751 10276,13751 10277,13751 10278,13751 10279,13750 10279,13750 10280,13750 10370,13635 10371,13634 10372,13633 10372,13632 10373,13632 10374,13631 10375,13629 10375,13629 10376,13629 10377,13628 10378,13628 10379,13628 10381,13627 10382,13627 10383,13626 10383,13626 10384,13626 10385,13626 10387,13626 10388,13626 10390,13626 10716,13626 10718,13626 10719,13626 10720,13626 10722,13626 10722,13627 10723,13627 10724,13627 10725,13627 10726,13628 10726,13628 10727,13628 10728,13628 10729,13628 10730,13629 10730,13629 10731,13629 10732,13630 10732,13631 10733,13631 10733,13632 10737,13636 10830,13751 10830,13751 10831,13752 10832,13752 10833,13752 10833,13753 10834,13753 10835,13753 10835,13753 10838,13754 10840,13755 10842,13756 10845,13757 10847,13758 10849,13759 10851,13760 10853,13762 10854,13763 10856,13764 10857,13765 10859,13766 10860,13767 10861,13768 10862,13769 10863,13770 10864,13772 10865,13773 10866,13774 10867,13776 10868,13777 10869,13779 10870,13780 10871,13782 10872,13783 10873,13785 10874,13786 10874,13788 10875,13789 10876,13791 10876,13793 10877,13794 10878,13798 10879,13801 10879,13804 10880,13807 10880,13810 10879,13814 10879,13818 10878,13822 10878,13825 10877,13829 10877,13833 10876,13835 10875,13838 10875,13841 10874,13844 10874,13847 10873,13850 10873,13853 10872,13856 10872,13859 10871,13862 10871,13865 10871,13868 10870,13871 10870,13875 10870,13878 10870,13881 10870,13884 10869,13887 10869,13890 10869,13893 10868,13895 10868,13898 10868,13901 10868,13904 10867,13907 10867,13910 10867,13912 10868,13915 10868,13918 10868,13921 10868,13924 10868,13927 10869,13930 10869,13932 10869,13934 10869,13937 10869,13939 10869,13940 10869,13940 10869,13941 10868,13942 10868,13943 10868,13944 10867,13945 10867,13945 10867,13945 10866,13946 10865,13947 10865,13948 10864,13949 10863,13949 10863,13949 10863,13949 10862,13949 10862,13949 10861,13949 10859,13949 10858,13949 10856,13949 10834,13949 Z"/>
        <path fill="rgb(255,255,255)" stroke="none" d="M 10291,13782 L 10293,13782 10295,13783 10297,13783 10299,13783 10301,13784 10303,13784 10305,13784 10307,13785 10308,13786 10310,13787 10312,13788 10313,13789 10315,13790 10317,13791 10318,13792 10320,13794 10321,13795 10322,13796 10323,13798 10325,13799 10326,13801 10327,13803 10328,13804 10328,13806 10329,13808 10330,13810 10330,13812 10331,13814 10331,13816 10332,13818 10332,13820 10332,13822 10332,13824 10332,13826 10331,13828 10331,13830 10330,13832 10330,13834 10329,13836 10328,13838 10328,13839 10327,13841 10326,13843 10324,13844 10323,13846 10322,13847 10321,13849 10319,13850 10318,13852 10317,13853 10315,13854 10313,13855 10312,13856 10310,13857 10308,13858 10306,13859 10304,13859 10302,13860 10300,13860 10298,13861 10296,13861 10294,13861 10292,13861 10290,13861 10288,13861 10286,13861 10284,13861 10282,13860 10280,13860 10278,13859 10276,13859 10274,13858 10272,13857 10271,13856 10269,13855 10267,13855 10266,13853 10264,13852 10262,13851 10261,13849 10260,13848 10258,13847 10257,13845 10256,13844 10255,13842 10254,13840 10253,13839 10252,13837 10252,13835 10251,13833 10250,13831 10250,13829 10249,13828 10249,13826 10249,13824 10249,13822 10249,13820 10249,13818 10250,13816 10250,13814 10251,13812 10251,13810 10252,13809 10252,13807 10253,13805 10254,13803 10255,13801 10257,13800 10258,13798 10259,13797 10260,13795 10262,13794 10263,13793 10264,13791 10266,13790 10268,13789 10269,13788 10271,13787 10273,13786 10275,13785 10277,13785 10278,13784 10280,13784 10282,13783 10284,13783 10287,13783 10289,13782 10291,13782 Z"/>
        <path fill="rgb(255,255,255)" stroke="none" d="M 10472,13822 L 10472,13911 10353,13911 10352,13911 10350,13911 10349,13911 10348,13911 10347,13911 10345,13911 10343,13910 10342,13910 10341,13910 10341,13910 10340,13909 10339,13909 10339,13909 10338,13908 10338,13907 10337,13907 10337,13906 10336,13905 10335,13904 10335,13903 10334,13902 10334,13900 10334,13899 10334,13897 10334,13896 10334,13896 10334,13895 10335,13894 10335,13894 10335,13893 10336,13892 10336,13892 10374,13830 10374,13830 10374,13829 10374,13829 10374,13828 10375,13827 10375,13827 10376,13826 10376,13826 10378,13824 10379,13824 10379,13823 10380,13823 10381,13823 10382,13823 10382,13822 10383,13822 10384,13822 10385,13822 10388,13822 10389,13822 10394,13822 10472,13822 Z"/>
        <path fill="rgb(255,255,255)" stroke="none" d="M 10481,13822 L 10625,13822 10625,13911 10481,13911 10481,13822 Z"/>
        <path fill="rgb(255,255,255)" stroke="none" d="M 10635,13822 L 10711,13822 10713,13822 10715,13822 10717,13822 10718,13822 10719,13822 10720,13822 10721,13822 10722,13822 10724,13823 10726,13824 10726,13824 10727,13824 10728,13824 10729,13825 10730,13826 10731,13827 10731,13827 10731,13828 10732,13829 10732,13829 10732,13830 10733,13830 10733,13831 10733,13831 10771,13891 10771,13892 10771,13893 10772,13894 10772,13895 10772,13897 10773,13898 10773,13900 10773,13901 10773,13902 10772,13904 10772,13905 10771,13906 10771,13906 10770,13907 10770,13907 10770,13908 10769,13909 10769,13909 10768,13909 10768,13910 10767,13910 10767,13910 10766,13910 10765,13911 10764,13911 10763,13911 10763,13911 10762,13911 10760,13911 10758,13911 10756,13911 10754,13911 10635,13911 10635,13822 Z"/>
        <path fill="rgb(255,255,255)" stroke="none" d="M 10815,13782 L 10817,13782 10819,13783 10821,13783 10824,13783 10826,13784 10828,13784 10829,13785 10831,13785 10833,13786 10835,13787 10837,13788 10839,13789 10840,13790 10842,13791 10843,13793 10845,13794 10846,13795 10848,13797 10849,13798 10850,13800 10851,13801 10852,13803 10853,13805 10854,13807 10854,13809 10855,13810 10856,13812 10856,13814 10857,13816 10857,13818 10857,13820 10857,13822 10857,13824 10857,13826 10856,13828 10856,13830 10855,13832 10855,13834 10854,13836 10853,13838 10852,13839 10851,13841 10850,13843 10849,13844 10848,13846 10847,13848 10845,13849 10844,13850 10842,13852 10841,13853 10839,13854 10838,13855 10836,13856 10834,13857 10832,13858 10830,13859 10829,13860 10826,13860 10824,13861 10822,13861 10820,13862 10818,13862 10816,13862 10814,13862 10812,13862 10810,13862 10808,13862 10806,13861 10804,13861 10802,13860 10800,13860 10798,13859 10796,13858 10795,13857 10793,13856 10791,13855 10790,13854 10788,13853 10787,13852 10785,13850 10784,13849 10783,13848 10781,13846 10780,13844 10779,13843 10778,13841 10777,13840 10776,13838 10776,13836 10775,13834 10774,13833 10774,13831 10773,13829 10773,13827 10773,13825 10773,13823 10773,13820 10773,13819 10773,13816 10774,13814 10774,13812 10775,13810 10776,13808 10776,13806 10777,13804 10778,13803 10779,13801 10780,13799 10781,13798 10783,13796 10784,13795 10785,13793 10787,13792 10788,13791 10790,13789 10792,13789 10793,13787 10795,13787 10797,13786 10799,13785 10801,13784 10803,13784 10804,13783 10807,13783 10809,13783 10811,13782 10813,13782 10815,13782 Z"/>
        <path fill="rgb(255,255,255)" stroke="none" d="M 10802,13754 L 10800,13754 10799,13754 10797,13754 10795,13754 10677,13746 10669,13745 10662,13745 10653,13744 10645,13744 10636,13744 10627,13744 10618,13744 10609,13744 10600,13743 10590,13743 10581,13743 10572,13743 10564,13744 10556,13744 10548,13744 10541,13744 10535,13744 10528,13744 10521,13744 10513,13744 10506,13744 10498,13744 10490,13744 10481,13744 10473,13744 10465,13744 10457,13744 10449,13744 10442,13744 10435,13745 10429,13745 10422,13745 10311,13752 10304,13752 10380,13657 10381,13656 10382,13655 10382,13654 10382,13654 10383,13654 10383,13653 10384,13653 10385,13652 10387,13651 10388,13650 10389,13650 10390,13649 10391,13649 10392,13649 10393,13649 10394,13649 10395,13649 10396,13649 10398,13649 10399,13649 10706,13649 10707,13649 10709,13649 10710,13649 10711,13649 10712,13649 10713,13649 10713,13649 10714,13649 10715,13650 10716,13650 10717,13650 10718,13650 10718,13650 10718,13651 10719,13651 10719,13651 10721,13652 10722,13652 10723,13653 10724,13654 10724,13656 10725,13657 10802,13754 Z"/>
       </g>
      </g>
     </g>
    </g>
   </g>
  </g>
 </g>
</svg>