<?xml version="1.0" encoding="UTF-8"?>
<!DOCTYPE svg PUBLIC "-//W3C//DTD SVG 1.1//EN" "http://www.w3.org/Graphics/SVG/1.1/DTD/svg11.dtd">
<svg version="1.2" width="50.05mm" height="21.07mm" viewBox="8045 13854 5005 2107" preserveAspectRatio="xMidYMid" fill-rule="evenodd" stroke-width="28.222" stroke-linejoin="round" xmlns="http://www.w3.org/2000/svg" xmlns:ooo="http://xml.openoffice.org/svg/export" xmlns:xlink="http://www.w3.org/1999/xlink" xmlns:presentation="http://sun.com/xmlns/staroffice/presentation" xmlns:smil="http://www.w3.org/2001/SMIL20/" xmlns:anim="urn:oasis:names:tc:opendocument:xmlns:animation:1.0" xml:space="preserve">
 <defs class="ClipPathGroup">
  <clipPath id="presentation_clip_path" clipPathUnits="userSpaceOnUse">
   <rect x="8045" y="13854" width="5005" height="2107"/>
  </clipPath>
  <clipPath id="presentation_clip_path_shrink" clipPathUnits="userSpaceOnUse">
   <rect x="8050" y="13856" width="4995" height="2103"/>
  </clipPath>
 </defs>
 <defs class="TextShapeIndex">
  <g ooo:slide="id1" ooo:id-list="id3"/>
 </defs>
 <defs class="EmbeddedBulletChars">
  <g id="bullet-char-template-57356" transform="scale(0.00048828125,-0.00048828125)">
   <path d="M 580,1141 L 1163,571 580,0 -4,571 580,1141 Z"/>
  </g>
  <g id="bullet-char-template-57354" transform="scale(0.00048828125,-0.00048828125)">
   <path d="M 8,1128 L 1137,1128 1137,0 8,0 8,1128 Z"/>
  </g>
  <g id="bullet-char-template-10146" transform="scale(0.00048828125,-0.00048828125)">
   <path d="M 174,0 L 602,739 174,1481 1456,739 174,0 Z M 1358,739 L 309,1346 659,739 1358,739 Z"/>
  </g>
  <g id="bullet-char-template-10132" transform="scale(0.00048828125,-0.00048828125)">
   <path d="M 2015,739 L 1276,0 717,0 1260,543 174,543 174,936 1260,936 717,1481 1274,1481 2015,739 Z"/>
  </g>
  <g id="bullet-char-template-10007" transform="scale(0.00048828125,-0.00048828125)">
   <path d="M 0,-2 C -7,14 -16,27 -25,37 L 356,567 C 262,823 215,952 215,954 215,979 228,992 255,992 264,992 276,990 289,987 310,991 331,999 354,1012 L 381,999 492,748 772,1049 836,1024 860,1049 C 881,1039 901,1025 922,1006 886,937 835,863 770,784 769,783 710,716 594,584 L 774,223 C 774,196 753,168 711,139 L 727,119 C 717,90 699,76 672,76 641,76 570,178 457,381 L 164,-76 C 142,-110 111,-127 72,-127 30,-127 9,-110 8,-76 1,-67 -2,-52 -2,-32 -2,-23 -1,-13 0,-2 Z"/>
  </g>
  <g id="bullet-char-template-10004" transform="scale(0.00048828125,-0.00048828125)">
   <path d="M 285,-33 C 182,-33 111,30 74,156 52,228 41,333 41,471 41,549 55,616 82,672 116,743 169,778 240,778 293,778 328,747 346,684 L 369,508 C 377,444 397,411 428,410 L 1163,1116 C 1174,1127 1196,1133 1229,1133 1271,1133 1292,1118 1292,1087 L 1292,965 C 1292,929 1282,901 1262,881 L 442,47 C 390,-6 338,-33 285,-33 Z"/>
  </g>
  <g id="bullet-char-template-9679" transform="scale(0.00048828125,-0.00048828125)">
   <path d="M 813,0 C 632,0 489,54 383,161 276,268 223,411 223,592 223,773 276,916 383,1023 489,1130 632,1184 813,1184 992,1184 1136,1130 1245,1023 1353,916 1407,772 1407,592 1407,412 1353,268 1245,161 1136,54 992,0 813,0 Z"/>
  </g>
  <g id="bullet-char-template-8226" transform="scale(0.00048828125,-0.00048828125)">
   <path d="M 346,457 C 273,457 209,483 155,535 101,586 74,649 74,723 74,796 101,859 155,911 209,963 273,989 346,989 419,989 480,963 531,910 582,859 608,796 608,723 608,648 583,586 532,535 482,483 420,457 346,457 Z"/>
  </g>
  <g id="bullet-char-template-8211" transform="scale(0.00048828125,-0.00048828125)">
   <path d="M -4,459 L 1135,459 1135,606 -4,606 -4,459 Z"/>
  </g>
  <g id="bullet-char-template-61548" transform="scale(0.00048828125,-0.00048828125)">
   <path d="M 173,740 C 173,903 231,1043 346,1159 462,1274 601,1332 765,1332 928,1332 1067,1274 1183,1159 1299,1043 1357,903 1357,740 1357,577 1299,437 1183,322 1067,206 928,148 765,148 601,148 462,206 346,322 231,437 173,577 173,740 Z"/>
  </g>
 </defs>
 <defs class="TextEmbeddedBitmaps"/>
 <g class="SlideGroup">
  <g>
   <g id="container-id1">
    <g id="id1" class="Slide" clip-path="url(#presentation_clip_path)">
     <g class="Page">
      <g class="Graphic">
       <g id="id3">
        <rect class="BoundingBox" stroke="none" fill="none" x="8045" y="13854" width="5006" height="2108"/>
        <path fill="rgb(255,255,255)" stroke="none" d="M 8481,14465 L 10153,14465 10153,14048 8481,14048 8481,14465 Z"/>
        <path fill="rgb(255,255,255)" stroke="none" d="M 10906,14462 L 12578,14462 12578,14053 10906,14053 10906,14462 Z"/>
        <path fill="rgb(255,255,255)" stroke="none" d="M 10906,14462 L 12578,14462 12578,14048 10906,14048 10906,14462 Z"/>
        <path fill="rgb(242,233,0)" stroke="none" d="M 8651,14418 L 8858,14634 8454,14634 8651,14418 Z"/>
        <path fill="rgb(242,233,0)" stroke="none" d="M 8655,14418 L 8858,14634 8651,14418 8655,14418 Z"/>
        <path fill="rgb(242,233,0)" stroke="none" d="M 8651,14418 L 8454,14418 8649,14418 8651,14418 Z"/>
        <path fill="rgb(242,233,0)" stroke="none" d="M 8454,14418 L 8651,14418 8454,14634 8454,14418 Z"/>
        <path fill="rgb(242,233,0)" stroke="none" d="M 8858,14418 L 8858,14634 8655,14418 8858,14418 Z"/>
        <path fill="rgb(240,175,2)" stroke="none" d="M 8804,14265 L 8800,14298 8800,14231 8804,14265 Z"/>
        <path fill="rgb(240,175,2)" stroke="none" d="M 8789,14330 L 8800,14231 8800,14298 8789,14330 Z"/>
        <path fill="rgb(240,175,2)" stroke="none" d="M 8800,14231 L 8789,14330 8789,14200 8800,14231 Z"/>
        <path fill="rgb(240,175,2)" stroke="none" d="M 8772,14360 L 8789,14200 8789,14330 8772,14360 Z"/>
        <path fill="rgb(240,175,2)" stroke="none" d="M 8789,14200 L 8772,14360 8770,14170 8789,14200 Z"/>
        <path fill="rgb(240,175,2)" stroke="none" d="M 8748,14384 L 8770,14170 8772,14360 8748,14384 Z"/>
        <path fill="rgb(240,175,2)" stroke="none" d="M 8770,14170 L 8748,14384 8746,14146 8770,14170 Z"/>
        <path fill="rgb(240,175,2)" stroke="none" d="M 8720,14401 L 8746,14146 8748,14384 8720,14401 Z"/>
        <path fill="rgb(240,175,2)" stroke="none" d="M 8746,14146 L 8720,14401 8718,14129 8746,14146 Z"/>
        <path fill="rgb(240,175,2)" stroke="none" d="M 8688,14414 L 8718,14129 8720,14401 8688,14414 Z"/>
        <path fill="rgb(240,175,2)" stroke="none" d="M 8718,14129 L 8688,14414 8686,14118 8718,14129 Z"/>
        <path fill="rgb(240,175,2)" stroke="none" d="M 8655,14418 L 8686,14118 8688,14414 8655,14418 Z"/>
        <path fill="rgb(240,175,2)" stroke="none" d="M 8686,14118 L 8655,14418 8651,14112 8686,14118 Z"/>
        <path fill="rgb(240,175,2)" stroke="none" d="M 8649,14418 L 8651,14112 8655,14418 8649,14418 Z"/>
        <path fill="rgb(240,175,2)" stroke="none" d="M 8651,14112 L 8649,14418 8618,14118 8651,14112 Z"/>
        <path fill="rgb(240,175,2)" stroke="none" d="M 8616,14414 L 8618,14118 8649,14418 8616,14414 Z"/>
        <path fill="rgb(240,175,2)" stroke="none" d="M 8618,14118 L 8616,14414 8586,14129 8618,14118 Z"/>
        <path fill="rgb(240,175,2)" stroke="none" d="M 8584,14401 L 8586,14129 8616,14414 8584,14401 Z"/>
        <path fill="rgb(240,175,2)" stroke="none" d="M 8586,14129 L 8584,14401 8556,14146 8586,14129 Z"/>
        <path fill="rgb(240,175,2)" stroke="none" d="M 8556,14384 L 8556,14146 8584,14401 8556,14384 Z"/>
        <path fill="rgb(240,175,2)" stroke="none" d="M 8556,14146 L 8556,14384 8532,14170 8556,14146 8556,14146 Z"/>
        <path fill="rgb(240,175,2)" stroke="none" d="M 8532,14360 L 8532,14170 8556,14384 8532,14360 Z"/>
        <path fill="rgb(240,175,2)" stroke="none" d="M 8532,14170 L 8532,14360 8515,14200 8532,14170 Z"/>
        <path fill="rgb(240,175,2)" stroke="none" d="M 8513,14330 L 8515,14200 8532,14360 8513,14330 Z"/>
        <path fill="rgb(240,175,2)" stroke="none" d="M 8515,14200 L 8513,14330 8504,14231 8515,14200 Z"/>
        <path fill="rgb(240,175,2)" stroke="none" d="M 8504,14298 L 8504,14231 8513,14330 8504,14298 Z"/>
        <path fill="rgb(240,175,2)" stroke="none" d="M 8504,14231 L 8504,14298 8500,14265 8504,14231 Z"/>
        <path fill="none" stroke="rgb(36,39,41)" stroke-width="0" stroke-linejoin="round" stroke-linecap="round" d="M 8048,15365 L 8048,14231 8051,14177 8063,14125 8081,14075 8107,14028 8139,13985 8176,13948 8219,13914 8267,13890 8318,13872 8370,13860 8422,13857 12672,13857 12726,13860 12778,13872 12829,13890 12875,13914 12918,13948 12957,13985 12989,14028 13015,14075 13033,14125 13045,14177 13048,14231 13048,15365"/>
        <path fill="none" stroke="rgb(36,39,41)" stroke-width="0" stroke-linejoin="round" stroke-linecap="round" d="M 13013,15365 L 13013,15959"/>
        <path fill="none" stroke="rgb(36,39,41)" stroke-width="0" stroke-linejoin="round" stroke-linecap="round" d="M 13048,15365 L 13048,15959"/>
        <path fill="none" stroke="rgb(36,39,41)" stroke-width="0" stroke-linejoin="round" stroke-linecap="round" d="M 13013,14231 L 13013,15365"/>
        <path fill="none" stroke="rgb(36,39,41)" stroke-width="0" stroke-linejoin="round" stroke-linecap="round" d="M 12672,13892 L 12721,13896 12769,13905 12814,13922 12856,13946 12896,13974 12929,14010 12959,14047 12981,14090 12998,14136 13009,14183 13013,14231"/>
        <path fill="none" stroke="rgb(36,39,41)" stroke-width="0" stroke-linejoin="round" stroke-linecap="round" d="M 8422,13892 L 12672,13892"/>
        <path fill="none" stroke="rgb(36,39,41)" stroke-width="0" stroke-linejoin="round" stroke-linecap="round" d="M 8083,14231 L 8087,14183 8096,14136 8115,14090 8137,14047 8167,14010 8200,13974 8239,13946 8282,13922 8327,13905 8374,13896 8422,13892"/>
        <path fill="none" stroke="rgb(36,39,41)" stroke-width="0" stroke-linejoin="round" stroke-linecap="round" d="M 13013,15381 L 8083,15381"/>
        <path fill="none" stroke="rgb(36,39,41)" stroke-width="0" stroke-linejoin="round" stroke-linecap="round" d="M 13013,15346 L 8083,15346"/>
        <path fill="none" stroke="rgb(36,39,41)" stroke-width="0" stroke-linejoin="round" stroke-linecap="round" d="M 8048,15365 L 8048,15959"/>
        <path fill="none" stroke="rgb(36,39,41)" stroke-width="0" stroke-linejoin="round" stroke-linecap="round" d="M 8083,15959 L 8083,15365 8083,14231"/>
        <path fill="none" stroke="rgb(36,39,41)" stroke-width="0" stroke-linejoin="round" stroke-linecap="round" d="M 8441,13892 L 8441,14047"/>
        <path fill="none" stroke="rgb(36,39,41)" stroke-width="0" stroke-linejoin="round" stroke-linecap="round" d="M 8677,13892 L 8677,14047"/>
        <path fill="none" stroke="rgb(36,39,41)" stroke-width="0" stroke-linejoin="round" stroke-linecap="round" d="M 8642,13892 L 8642,14047"/>
        <path fill="none" stroke="rgb(36,39,41)" stroke-width="0" stroke-linejoin="round" stroke-linecap="round" d="M 8914,13892 L 8914,14047"/>
        <path fill="none" stroke="rgb(36,39,41)" stroke-width="0" stroke-linejoin="round" stroke-linecap="round" d="M 8876,13892 L 8876,14047"/>
        <path fill="none" stroke="rgb(36,39,41)" stroke-width="0" stroke-linejoin="round" stroke-linecap="round" d="M 9858,13892 L 9858,15346"/>
        <path fill="none" stroke="rgb(36,39,41)" stroke-width="0" stroke-linejoin="round" stroke-linecap="round" d="M 9821,13892 L 9821,15346"/>
        <path fill="none" stroke="rgb(36,39,41)" stroke-width="0" stroke-linejoin="round" stroke-linecap="round" d="M 10093,13892 L 10093,15346"/>
        <path fill="none" stroke="rgb(36,39,41)" stroke-width="0" stroke-linejoin="round" stroke-linecap="round" d="M 10057,13892 L 10057,15346"/>
        <path fill="none" stroke="rgb(36,39,41)" stroke-width="0" stroke-linejoin="round" stroke-linecap="round" d="M 10329,13892 L 10329,15346"/>
        <path fill="none" stroke="rgb(36,39,41)" stroke-width="0" stroke-linejoin="round" stroke-linecap="round" d="M 10294,13892 L 10294,15346"/>
        <path fill="none" stroke="rgb(36,39,41)" stroke-width="0" stroke-linejoin="round" stroke-linecap="round" d="M 10566,13892 L 10566,15346"/>
        <path fill="none" stroke="rgb(36,39,41)" stroke-width="0" stroke-linejoin="round" stroke-linecap="round" d="M 10530,13892 L 10530,15346"/>
        <path fill="none" stroke="rgb(36,39,41)" stroke-width="0" stroke-linejoin="round" stroke-linecap="round" d="M 10802,13892 L 10802,15346"/>
        <path fill="none" stroke="rgb(36,39,41)" stroke-width="0" stroke-linejoin="round" stroke-linecap="round" d="M 10765,13892 L 10765,15346"/>
        <path fill="none" stroke="rgb(36,39,41)" stroke-width="0" stroke-linejoin="round" stroke-linecap="round" d="M 11037,13892 L 11037,15346"/>
        <path fill="none" stroke="rgb(36,39,41)" stroke-width="0" stroke-linejoin="round" stroke-linecap="round" d="M 11001,13892 L 11001,15346"/>
        <path fill="none" stroke="rgb(36,39,41)" stroke-width="0" stroke-linejoin="round" stroke-linecap="round" d="M 11273,13892 L 11273,15346"/>
        <path fill="none" stroke="rgb(36,39,41)" stroke-width="0" stroke-linejoin="round" stroke-linecap="round" d="M 11238,13892 L 11238,15346"/>
        <path fill="none" stroke="rgb(36,39,41)" stroke-width="0" stroke-linejoin="round" stroke-linecap="round" d="M 11510,13892 L 11510,14047"/>
        <path fill="none" stroke="rgb(36,39,41)" stroke-width="0" stroke-linejoin="round" stroke-linecap="round" d="M 11475,13892 L 11475,14047"/>
        <path fill="none" stroke="rgb(36,39,41)" stroke-width="0" stroke-linejoin="round" stroke-linecap="round" d="M 12218,13892 L 12218,15346"/>
        <path fill="none" stroke="rgb(36,39,41)" stroke-width="0" stroke-linejoin="round" stroke-linecap="round" d="M 12182,13892 L 12182,15346"/>
        <path fill="none" stroke="rgb(36,39,41)" stroke-width="0" stroke-linejoin="round" stroke-linecap="round" d="M 12454,13892 L 12454,15346"/>
        <path fill="none" stroke="rgb(36,39,41)" stroke-width="0" stroke-linejoin="round" stroke-linecap="round" d="M 12419,13892 L 12419,15346"/>
        <path fill="none" stroke="rgb(36,39,41)" stroke-width="0" stroke-linejoin="round" stroke-linecap="round" d="M 12691,13892 L 12691,15346"/>
        <path fill="none" stroke="rgb(36,39,41)" stroke-width="0" stroke-linejoin="round" stroke-linecap="round" d="M 12655,13892 L 12655,15346"/>
        <path fill="none" stroke="rgb(36,39,41)" stroke-width="0" stroke-linejoin="round" stroke-linecap="round" d="M 13048,15959 L 13013,15959"/>
        <path fill="none" stroke="rgb(36,39,41)" stroke-width="0" stroke-linejoin="round" stroke-linecap="round" d="M 8083,15959 L 8048,15959"/>
        <path fill="rgb(19,21,22)" stroke="none" d="M 8048,15365 L 8083,15959 8048,15959 8048,15365 Z"/>
        <path fill="rgb(19,21,22)" stroke="none" d="M 13013,15365 L 13048,15959 13013,15959 13013,15365 Z"/>
        <path fill="rgb(19,21,22)" stroke="none" d="M 8083,15365 L 8083,15959 8048,15365 8083,15365 Z"/>
        <path fill="rgb(19,21,22)" stroke="none" d="M 13048,15365 L 13048,15959 13013,15365 13048,15365 Z"/>
        <path fill="rgb(19,21,22)" stroke="none" d="M 13013,14231 L 13048,15365 13013,15365 13013,14231 Z"/>
        <path fill="rgb(19,21,22)" stroke="none" d="M 8048,14231 L 8083,15365 8048,15365 8048,14231 Z"/>
        <path fill="rgb(19,21,22)" stroke="none" d="M 8083,14231 L 8083,15365 8048,14231 8083,14231 Z"/>
        <path fill="rgb(19,21,22)" stroke="none" d="M 13048,14231 L 13048,15365 13013,14231 13048,14231 Z"/>
        <path fill="rgb(19,21,22)" stroke="none" d="M 13009,14183 L 13048,14231 13013,14231 13009,14183 Z"/>
        <path fill="rgb(19,21,22)" stroke="none" d="M 8087,14183 L 8083,14231 8048,14231 8087,14183 Z"/>
        <path fill="rgb(19,21,22)" stroke="none" d="M 8051,14177 L 8087,14183 8048,14231 8051,14177 Z"/>
        <path fill="rgb(19,21,22)" stroke="none" d="M 13045,14177 L 13048,14231 13009,14183 13045,14177 Z"/>
        <path fill="rgb(19,21,22)" stroke="none" d="M 12998,14136 L 13045,14177 13009,14183 12998,14136 Z"/>
        <path fill="rgb(19,21,22)" stroke="none" d="M 8096,14136 L 8087,14183 8051,14177 8096,14136 Z"/>
        <path fill="rgb(19,21,22)" stroke="none" d="M 8063,14125 L 8096,14136 8051,14177 8063,14125 Z"/>
        <path fill="rgb(19,21,22)" stroke="none" d="M 13033,14125 L 13045,14177 12998,14136 13033,14125 Z"/>
        <path fill="rgb(19,21,22)" stroke="none" d="M 12981,14090 L 13033,14125 12998,14136 12981,14090 Z"/>
        <path fill="rgb(19,21,22)" stroke="none" d="M 8115,14090 L 8096,14136 8063,14125 8115,14090 Z"/>
        <path fill="rgb(19,21,22)" stroke="none" d="M 8081,14075 L 8115,14090 8063,14125 8081,14075 Z"/>
        <path fill="rgb(19,21,22)" stroke="none" d="M 13015,14075 L 13033,14125 12981,14090 13015,14075 Z"/>
        <path fill="rgb(19,21,22)" stroke="none" d="M 12959,14047 L 13015,14075 12981,14090 12959,14047 Z"/>
        <path fill="rgb(19,21,22)" stroke="none" d="M 8137,14047 L 8115,14090 8081,14075 8137,14047 Z"/>
        <path fill="rgb(19,21,22)" stroke="none" d="M 8107,14028 L 8137,14047 8081,14075 8107,14028 Z"/>
        <path fill="rgb(19,21,22)" stroke="none" d="M 12989,14028 L 13015,14075 12959,14047 12989,14028 Z"/>
        <path fill="rgb(19,21,22)" stroke="none" d="M 12929,14010 L 12989,14028 12959,14047 12929,14010 12929,14010 Z"/>
        <path fill="rgb(19,21,22)" stroke="none" d="M 8167,14010 L 8137,14047 8107,14028 8167,14010 Z"/>
        <path fill="rgb(19,21,22)" stroke="none" d="M 8139,13985 L 8167,14010 8107,14028 8139,13985 8139,13985 Z"/>
        <path fill="rgb(19,21,22)" stroke="none" d="M 12957,13985 L 12989,14028 12929,14010 12957,13985 Z"/>
        <path fill="rgb(19,21,22)" stroke="none" d="M 12896,13974 L 12957,13985 12929,14010 12896,13974 Z"/>
        <path fill="rgb(19,21,22)" stroke="none" d="M 8200,13974 L 8167,14010 8139,13985 8200,13974 Z"/>
        <path fill="rgb(19,21,22)" stroke="none" d="M 8176,13948 L 8200,13974 8139,13985 8176,13948 Z"/>
        <path fill="rgb(19,21,22)" stroke="none" d="M 12918,13948 L 12957,13985 12896,13974 12918,13948 Z"/>
        <path fill="rgb(19,21,22)" stroke="none" d="M 12857,13946 L 12918,13948 12896,13974 12857,13946 Z"/>
        <path fill="rgb(19,21,22)" stroke="none" d="M 8239,13946 L 8200,13974 8176,13948 8239,13946 Z"/>
        <path fill="rgb(19,21,22)" stroke="none" d="M 12814,13922 L 12918,13948 12856,13946 12814,13922 Z"/>
        <path fill="rgb(19,21,22)" stroke="none" d="M 8282,13922 L 8239,13946 8176,13948 8282,13922 Z"/>
        <path fill="rgb(19,21,22)" stroke="none" d="M 8219,13914 L 8282,13922 8176,13948 8219,13914 Z"/>
        <path fill="rgb(19,21,22)" stroke="none" d="M 12875,13914 L 12918,13948 12814,13922 12875,13914 Z"/>
        <path fill="rgb(19,21,22)" stroke="none" d="M 12769,13905 L 12875,13914 12814,13922 12769,13905 Z"/>
        <path fill="rgb(19,21,22)" stroke="none" d="M 8327,13905 L 8282,13922 8219,13914 8327,13905 Z"/>
        <path fill="rgb(19,21,22)" stroke="none" d="M 12721,13896 L 12875,13914 12769,13905 12721,13896 12721,13896 Z"/>
        <path fill="rgb(19,21,22)" stroke="none" d="M 8374,13896 L 8327,13905 8219,13914 8374,13896 Z"/>
        <path fill="rgb(19,21,22)" stroke="none" d="M 8267,13890 L 12672,13892 8422,13892 8267,13890 Z"/>
        <path fill="rgb(19,21,22)" stroke="none" d="M 8267,13890 L 8422,13892 8374,13896 8267,13890 Z"/>
        <path fill="rgb(19,21,22)" stroke="none" d="M 8267,13890 L 8374,13896 8219,13914 8267,13890 Z"/>
        <path fill="rgb(19,21,22)" stroke="none" d="M 12829,13890 L 12672,13892 8267,13890 12829,13890 Z"/>
        <path fill="rgb(19,21,22)" stroke="none" d="M 12829,13890 L 12721,13896 12672,13892 12829,13890 Z"/>
        <path fill="rgb(19,21,22)" stroke="none" d="M 12829,13890 L 12875,13914 12721,13896 12829,13890 Z"/>
        <path fill="rgb(19,21,22)" stroke="none" d="M 8318,13872 L 12829,13890 8267,13890 8318,13872 Z"/>
        <path fill="rgb(19,21,22)" stroke="none" d="M 12778,13872 L 12829,13890 8318,13872 12778,13872 Z"/>
        <path fill="rgb(19,21,22)" stroke="none" d="M 8370,13860 L 12778,13872 8318,13872 8370,13860 Z"/>
        <path fill="rgb(19,21,22)" stroke="none" d="M 12726,13860 L 12778,13872 8370,13860 12726,13860 Z"/>
        <path fill="rgb(19,21,22)" stroke="none" d="M 12726,13860 L 8422,13857 12672,13857 12726,13860 Z"/>
        <path fill="rgb(19,21,22)" stroke="none" d="M 8422,13857 L 12726,13860 8370,13860 8422,13857 Z"/>
        <path fill="rgb(19,21,22)" stroke="none" d="M 13013,15365 L 8083,15381 13013,15381 13013,15365 Z"/>
        <path fill="rgb(19,21,22)" stroke="none" d="M 8083,15365 L 8083,15381 13013,15365 8083,15365 Z"/>
        <path fill="rgb(19,21,22)" stroke="none" d="M 8441,15346 L 8083,15365 13013,15365 8441,15346 Z"/>
        <path fill="rgb(19,21,22)" stroke="none" d="M 10566,15346 L 8441,15346 13013,15365 10566,15346 Z"/>
        <path fill="rgb(19,21,22)" stroke="none" d="M 9385,15346 L 8441,15346 10566,15346 9385,15346 Z"/>
        <path fill="rgb(19,21,22)" stroke="none" d="M 8914,15346 L 8441,15346 9385,15346 8914,15346 Z"/>
        <path fill="rgb(19,21,22)" stroke="none" d="M 12691,15346 L 10566,15346 13013,15365 12691,15346 Z"/>
        <path fill="rgb(19,21,22)" stroke="none" d="M 10530,15346 L 9385,15346 10566,15346 10530,15346 Z"/>
        <path fill="rgb(19,21,22)" stroke="none" d="M 12655,15346 L 10566,15346 12691,15346 12655,15346 Z"/>
        <path fill="rgb(19,21,22)" stroke="none" d="M 9349,15346 L 8914,15346 9385,15346 9349,15346 Z"/>
        <path fill="rgb(19,21,22)" stroke="none" d="M 8876,15346 L 8441,15346 8914,15346 8876,15346 Z"/>
        <path fill="rgb(19,21,22)" stroke="none" d="M 8405,15346 L 8083,15365 8441,15346 8405,15346 Z"/>
        <path fill="rgb(19,21,22)" stroke="none" d="M 9148,15346 L 8914,15346 9349,15346 9148,15346 Z"/>
        <path fill="rgb(19,21,22)" stroke="none" d="M 8914,15346 L 9148,15346 9113,15346 8914,15346 Z"/>
        <path fill="rgb(19,21,22)" stroke="none" d="M 11475,15346 L 10566,15346 12655,15346 11475,15346 Z"/>
        <path fill="rgb(19,21,22)" stroke="none" d="M 11037,15346 L 10566,15346 11475,15346 11037,15346 Z"/>
        <path fill="rgb(19,21,22)" stroke="none" d="M 10566,15346 L 11037,15346 11001,15346 10566,15346 Z"/>
        <path fill="rgb(19,21,22)" stroke="none" d="M 12182,15346 L 11475,15346 12655,15346 12182,15346 Z"/>
        <path fill="rgb(19,21,22)" stroke="none" d="M 9621,15346 L 9385,15346 10530,15346 9621,15346 Z"/>
        <path fill="rgb(19,21,22)" stroke="none" d="M 9385,15346 L 9621,15346 9586,15346 9385,15346 Z"/>
        <path fill="rgb(19,21,22)" stroke="none" d="M 11747,15346 L 11475,15346 12182,15346 11747,15346 Z"/>
        <path fill="rgb(19,21,22)" stroke="none" d="M 11475,15346 L 11747,15346 11711,15346 11475,15346 Z"/>
        <path fill="rgb(19,21,22)" stroke="none" d="M 10057,15346 L 9621,15346 10530,15346 10057,15346 Z"/>
        <path fill="rgb(19,21,22)" stroke="none" d="M 13013,15346 L 12691,15346 13013,15365 13013,15346 Z"/>
        <path fill="rgb(19,21,22)" stroke="none" d="M 12218,15346 L 12182,15346 12655,15346 12218,15346 Z"/>
        <path fill="rgb(19,21,22)" stroke="none" d="M 11510,15346 L 11475,15346 11711,15346 11510,15346 Z"/>
        <path fill="rgb(19,21,22)" stroke="none" d="M 10093,15346 L 10057,15346 10530,15346 10093,15346 Z"/>
        <path fill="rgb(19,21,22)" stroke="none" d="M 12419,15346 L 12218,15346 12655,15346 12419,15346 Z"/>
        <path fill="rgb(19,21,22)" stroke="none" d="M 12655,15346 L 12454,15346 12419,15346 12655,15346 Z"/>
        <path fill="rgb(19,21,22)" stroke="none" d="M 8677,15346 L 8441,15346 8876,15346 8677,15346 Z"/>
        <path fill="rgb(19,21,22)" stroke="none" d="M 8441,15346 L 8677,15346 8642,15346 8441,15346 Z"/>
        <path fill="rgb(19,21,22)" stroke="none" d="M 11946,15346 L 11747,15346 12182,15346 11946,15346 Z"/>
        <path fill="rgb(19,21,22)" stroke="none" d="M 12182,15346 L 11983,15346 11946,15346 12182,15346 Z"/>
        <path fill="rgb(19,21,22)" stroke="none" d="M 10294,15346 L 10093,15346 10530,15346 10294,15346 Z"/>
        <path fill="rgb(19,21,22)" stroke="none" d="M 10530,15346 L 10329,15346 10294,15346 10530,15346 Z"/>
        <path fill="rgb(19,21,22)" stroke="none" d="M 11238,15346 L 11037,15346 11475,15346 11238,15346 Z"/>
        <path fill="rgb(19,21,22)" stroke="none" d="M 11475,15346 L 11273,15346 11238,15346 11475,15346 Z"/>
        <path fill="rgb(19,21,22)" stroke="none" d="M 10802,15346 L 10566,15346 11001,15346 10802,15346 Z"/>
        <path fill="rgb(19,21,22)" stroke="none" d="M 10566,15346 L 10802,15346 10765,15346 10566,15346 Z"/>
        <path fill="rgb(19,21,22)" stroke="none" d="M 9821,15346 L 9621,15346 10057,15346 9821,15346 Z"/>
        <path fill="rgb(19,21,22)" stroke="none" d="M 8083,15346 L 12691,15346 13013,15346 8083,15346 Z"/>
        <path fill="none" stroke="rgb(36,39,41)" stroke-width="0" stroke-linejoin="round" stroke-linecap="round" d="M 8405,13892 L 8405,14047"/>
        <path fill="none" stroke="rgb(36,39,41)" stroke-width="0" stroke-linejoin="round" stroke-linecap="round" d="M 10361,14047 L 8375,14047"/>
        <path fill="none" stroke="rgb(36,39,41)" stroke-width="0" stroke-linejoin="round" stroke-linecap="round" d="M 9699,14047 L 9699,14045"/>
        <path fill="none" stroke="rgb(36,39,41)" stroke-width="0" stroke-linejoin="round" stroke-linecap="round" d="M 9037,14047 L 9037,14464"/>
        <path fill="none" stroke="rgb(36,39,41)" stroke-width="0" stroke-linejoin="round" stroke-linecap="round" d="M 9699,14047 L 9699,14464"/>
        <path fill="rgb(217,41,37)" stroke="none" d="M 10029,14255 L 10361,14047 9699,14047 10029,14255 Z"/>
        <path fill="rgb(217,41,37)" stroke="none" d="M 10029,14255 L 9699,14047 9699,14464 10029,14255 Z"/>
        <path fill="rgb(217,41,37)" stroke="none" d="M 10029,14255 L 9699,14464 10361,14464 10029,14255 Z"/>
        <path fill="rgb(217,41,37)" stroke="none" d="M 10029,14255 L 10361,14464 10361,14047 10029,14255 Z"/>
        <path fill="none" stroke="rgb(36,39,41)" stroke-width="0" stroke-linejoin="round" stroke-linecap="round" d="M 12059,14047 L 12059,14045"/>
        <path fill="none" stroke="rgb(36,39,41)" stroke-width="0" stroke-linejoin="round" stroke-linecap="round" d="M 11398,14047 L 11398,14464"/>
        <path fill="none" stroke="rgb(36,39,41)" stroke-width="0" stroke-linejoin="round" stroke-linecap="round" d="M 12059,14047 L 12059,14464"/>
        <path fill="rgb(217,41,37)" stroke="none" d="M 11067,14255 L 11398,14464 10735,14464 11067,14255 Z"/>
        <path fill="rgb(217,41,37)" stroke="none" d="M 11067,14255 L 10735,14464 10735,14047 11067,14255 Z"/>
        <path fill="rgb(217,41,37)" stroke="none" d="M 11067,14255 L 10735,14047 11398,14047 11067,14255 Z"/>
        <path fill="rgb(217,41,37)" stroke="none" d="M 11067,14255 L 11398,14047 11398,14464 11067,14255 Z"/>
        <path fill="rgb(217,41,37)" stroke="none" d="M 12391,14255 L 12722,14047 12722,14464 12391,14255 Z"/>
        <path fill="rgb(217,41,37)" stroke="none" d="M 12391,14255 L 12722,14464 12059,14464 12391,14255 Z"/>
        <path fill="rgb(217,41,37)" stroke="none" d="M 12391,14255 L 12059,14464 12059,14047 12391,14255 Z"/>
        <path fill="rgb(217,41,37)" stroke="none" d="M 12391,14255 L 12059,14047 12722,14047 12391,14255 Z"/>
        <path fill="none" stroke="rgb(36,39,41)" stroke-width="0" stroke-linejoin="round" stroke-linecap="round" d="M 11510,14464 L 11510,15346"/>
        <path fill="none" stroke="rgb(36,39,41)" stroke-width="0" stroke-linejoin="round" stroke-linecap="round" d="M 11475,14464 L 11475,15346"/>
        <path fill="none" stroke="rgb(36,39,41)" stroke-width="0" stroke-linejoin="round" stroke-linecap="round" d="M 11747,13892 L 11747,14047"/>
        <path fill="none" stroke="rgb(36,39,41)" stroke-width="0" stroke-linejoin="round" stroke-linecap="round" d="M 11711,13892 L 11711,14047"/>
        <path fill="none" stroke="rgb(36,39,41)" stroke-width="0" stroke-linejoin="round" stroke-linecap="round" d="M 11747,14464 L 11747,15346"/>
        <path fill="none" stroke="rgb(36,39,41)" stroke-width="0" stroke-linejoin="round" stroke-linecap="round" d="M 11711,14464 L 11711,15346"/>
        <path fill="none" stroke="rgb(36,39,41)" stroke-width="0" stroke-linejoin="round" stroke-linecap="round" d="M 11983,13892 L 11983,14047"/>
        <path fill="none" stroke="rgb(36,39,41)" stroke-width="0" stroke-linejoin="round" stroke-linecap="round" d="M 11946,13892 L 11946,14047"/>
        <path fill="none" stroke="rgb(36,39,41)" stroke-width="0" stroke-linejoin="round" stroke-linecap="round" d="M 11983,14464 L 11983,15346"/>
        <path fill="none" stroke="rgb(36,39,41)" stroke-width="0" stroke-linejoin="round" stroke-linecap="round" d="M 11946,14464 L 11946,15346"/>
        <path fill="none" stroke="rgb(36,39,41)" stroke-width="0" stroke-linejoin="round" stroke-linecap="round" d="M 9148,13892 L 9148,14047"/>
        <path fill="none" stroke="rgb(36,39,41)" stroke-width="0" stroke-linejoin="round" stroke-linecap="round" d="M 9113,13892 L 9113,14047"/>
        <path fill="none" stroke="rgb(36,39,41)" stroke-width="0" stroke-linejoin="round" stroke-linecap="round" d="M 9148,14464 L 9148,15346"/>
        <path fill="none" stroke="rgb(36,39,41)" stroke-width="0" stroke-linejoin="round" stroke-linecap="round" d="M 9113,14464 L 9113,15346"/>
        <path fill="none" stroke="rgb(36,39,41)" stroke-width="0" stroke-linejoin="round" stroke-linecap="round" d="M 9385,13892 L 9385,14047"/>
        <path fill="none" stroke="rgb(36,39,41)" stroke-width="0" stroke-linejoin="round" stroke-linecap="round" d="M 9349,13892 L 9349,14047"/>
        <path fill="none" stroke="rgb(36,39,41)" stroke-width="0" stroke-linejoin="round" stroke-linecap="round" d="M 9385,14464 L 9385,15346"/>
        <path fill="none" stroke="rgb(36,39,41)" stroke-width="0" stroke-linejoin="round" stroke-linecap="round" d="M 9349,14464 L 9349,15346"/>
        <path fill="none" stroke="rgb(36,39,41)" stroke-width="0" stroke-linejoin="round" stroke-linecap="round" d="M 9621,13892 L 9621,14047"/>
        <path fill="none" stroke="rgb(36,39,41)" stroke-width="0" stroke-linejoin="round" stroke-linecap="round" d="M 9586,13892 L 9586,14047"/>
        <path fill="none" stroke="rgb(36,39,41)" stroke-width="0" stroke-linejoin="round" stroke-linecap="round" d="M 9621,14464 L 9621,15346"/>
        <path fill="none" stroke="rgb(36,39,41)" stroke-width="0" stroke-linejoin="round" stroke-linecap="round" d="M 9586,14464 L 9586,15346"/>
        <path fill="rgb(19,21,22)" stroke="none" d="M 9349,15346 L 9385,14464 9349,14464 9349,15346 Z"/>
        <path fill="rgb(19,21,22)" stroke="none" d="M 9385,14464 L 9349,15346 9385,15346 9385,14464 Z"/>
        <path fill="rgb(19,21,22)" stroke="none" d="M 9113,15346 L 9149,14464 9113,14464 9113,15346 Z"/>
        <path fill="rgb(19,21,22)" stroke="none" d="M 9148,14464 L 9113,15346 9148,15346 9148,14464 Z"/>
        <path fill="rgb(19,21,22)" stroke="none" d="M 9621,14464 L 9586,15346 9621,15346 9621,14464 Z"/>
        <path fill="rgb(19,21,22)" stroke="none" d="M 9586,14464 L 9586,15346 9621,14464 9586,14464 Z"/>
        <path fill="rgb(19,21,22)" stroke="none" d="M 9349,13892 L 9349,14047 9385,14047 9349,13892 Z"/>
        <path fill="rgb(19,21,22)" stroke="none" d="M 9385,13892 L 9349,13892 9385,14047 9385,13892 Z"/>
        <path fill="rgb(19,21,22)" stroke="none" d="M 9113,14047 L 9149,13892 9113,13892 9113,14047 Z"/>
        <path fill="rgb(19,21,22)" stroke="none" d="M 9148,13892 L 9113,14047 9148,14047 9148,13892 Z"/>
        <path fill="rgb(19,21,22)" stroke="none" d="M 9586,13892 L 9586,14047 9621,14047 9586,13892 Z"/>
        <path fill="rgb(19,21,22)" stroke="none" d="M 9621,13892 L 9586,13892 9621,14047 9621,13892 Z"/>
        <path fill="rgb(19,21,22)" stroke="none" d="M 11983,14464 L 11983,15346 11946,15346 11983,14464 Z"/>
        <path fill="rgb(19,21,22)" stroke="none" d="M 11475,15346 L 11475,14464 11510,14464 11475,15346 Z"/>
        <path fill="rgb(19,21,22)" stroke="none" d="M 11510,14464 L 11510,15346 11475,15346 11510,14464 Z"/>
        <path fill="rgb(19,21,22)" stroke="none" d="M 11711,15346 L 11711,14464 11747,14464 11711,15346 Z"/>
        <path fill="rgb(19,21,22)" stroke="none" d="M 11747,14464 L 11747,15346 11711,15346 11747,14464 Z"/>
        <path fill="rgb(19,21,22)" stroke="none" d="M 11946,14464 L 11983,14464 11946,15346 11946,14464 Z"/>
        <path fill="rgb(19,21,22)" stroke="none" d="M 11510,13892 L 11510,14047 11475,14047 11510,13892 Z"/>
        <path fill="rgb(19,21,22)" stroke="none" d="M 11475,13892 L 11510,13892 11475,14047 11475,13892 Z"/>
        <path fill="rgb(19,21,22)" stroke="none" d="M 11711,13892 L 11747,14047 11711,14047 11711,13892 Z"/>
        <path fill="rgb(19,21,22)" stroke="none" d="M 11983,13892 L 11983,14047 11946,14047 11983,13892 Z"/>
        <path fill="rgb(19,21,22)" stroke="none" d="M 11747,13892 L 11747,14047 11711,13892 11747,13892 Z"/>
        <path fill="rgb(19,21,22)" stroke="none" d="M 11946,13892 L 11983,13892 11946,14047 11946,13892 Z"/>
        <path fill="rgb(19,21,22)" stroke="none" d="M 12655,14464 L 12655,15346 12691,15346 12655,14464 Z"/>
        <path fill="rgb(19,21,22)" stroke="none" d="M 12691,14464 L 12655,14464 12691,15346 12691,14464 Z"/>
        <path fill="rgb(19,21,22)" stroke="none" d="M 12218,14464 L 12182,15346 12218,15346 12218,14464 Z"/>
        <path fill="rgb(19,21,22)" stroke="none" d="M 12454,14464 L 12419,15346 12454,15346 12454,14464 Z"/>
        <path fill="rgb(19,21,22)" stroke="none" d="M 12419,14464 L 12419,15346 12454,14464 12419,14464 Z"/>
        <path fill="rgb(19,21,22)" stroke="none" d="M 12182,14464 L 12182,15346 12218,14464 12182,14464 Z"/>
        <path fill="rgb(19,21,22)" stroke="none" d="M 12691,13892 L 12655,14047 12691,14047 12691,13892 Z"/>
        <path fill="rgb(19,21,22)" stroke="none" d="M 12681,13892 L 12655,14047 12691,13892 12681,13892 Z"/>
        <path fill="rgb(19,21,22)" stroke="none" d="M 12419,14047 L 12454,13892 12419,13892 12419,14047 Z"/>
        <path fill="rgb(19,21,22)" stroke="none" d="M 12454,13892 L 12419,14047 12454,14047 12454,13892 Z"/>
        <path fill="rgb(19,21,22)" stroke="none" d="M 12218,13892 L 12182,14047 12218,14047 12218,13892 Z"/>
        <path fill="rgb(19,21,22)" stroke="none" d="M 12655,13892 L 12655,14047 12681,13892 12655,13892 Z"/>
        <path fill="rgb(19,21,22)" stroke="none" d="M 12672,13892 L 12655,13892 12681,13892 12672,13892 Z"/>
        <path fill="rgb(19,21,22)" stroke="none" d="M 12182,13892 L 12182,14047 12218,13892 12182,13892 Z"/>
        <path fill="none" stroke="rgb(36,39,41)" stroke-width="0" stroke-linejoin="round" stroke-linecap="round" d="M 10361,14464 L 10361,14047"/>
        <path fill="none" stroke="rgb(36,39,41)" stroke-width="0" stroke-linejoin="round" stroke-linecap="round" d="M 12722,14047 L 10735,14047 10735,14464 12722,14464 12722,14047 10735,14047"/>
        <path fill="rgb(19,21,22)" stroke="none" d="M 9821,15346 L 9858,14464 9821,14464 9821,15346 Z"/>
        <path fill="rgb(19,21,22)" stroke="none" d="M 9858,14464 L 9821,15346 9858,15346 9858,14464 Z"/>
        <path fill="rgb(19,21,22)" stroke="none" d="M 10093,14464 L 10057,15346 10093,15346 10093,14464 Z"/>
        <path fill="rgb(19,21,22)" stroke="none" d="M 10057,14464 L 10057,15346 10093,14464 10057,14464 Z"/>
        <path fill="rgb(19,21,22)" stroke="none" d="M 10329,14464 L 10294,15346 10329,15346 10329,14464 Z"/>
        <path fill="rgb(19,21,22)" stroke="none" d="M 10294,14464 L 10294,15346 10329,14464 10294,14464 Z"/>
        <path fill="rgb(19,21,22)" stroke="none" d="M 9821,14047 L 9858,13892 9821,13892 9821,14047 Z"/>
        <path fill="rgb(19,21,22)" stroke="none" d="M 9858,13892 L 9821,14047 9858,14047 9858,13892 Z"/>
        <path fill="rgb(19,21,22)" stroke="none" d="M 10057,14047 L 10093,13892 10057,13892 10057,14047 Z"/>
        <path fill="rgb(19,21,22)" stroke="none" d="M 10093,13892 L 10057,14047 10093,14047 10093,13892 Z"/>
        <path fill="rgb(19,21,22)" stroke="none" d="M 10294,14047 L 10329,13892 10294,13892 10294,14047 Z"/>
        <path fill="rgb(19,21,22)" stroke="none" d="M 10329,13892 L 10294,14047 10329,14047 10329,13892 Z"/>
        <path fill="rgb(19,21,22)" stroke="none" d="M 11273,14464 L 11273,15346 11238,15346 11273,14464 Z"/>
        <path fill="rgb(19,21,22)" stroke="none" d="M 11037,14464 L 11037,15346 11001,15346 11037,14464 Z"/>
        <path fill="rgb(19,21,22)" stroke="none" d="M 11001,14464 L 11037,14464 11001,15346 11001,14464 Z"/>
        <path fill="rgb(19,21,22)" stroke="none" d="M 10765,14464 L 10802,15346 10765,15346 10765,14464 Z"/>
        <path fill="rgb(19,21,22)" stroke="none" d="M 11238,14464 L 11273,14464 11238,15346 11238,14464 Z"/>
        <path fill="rgb(19,21,22)" stroke="none" d="M 10802,14464 L 10802,15346 10765,14464 10802,14464 Z"/>
        <path fill="rgb(19,21,22)" stroke="none" d="M 11001,14047 L 11001,13892 11037,13892 11001,14047 Z"/>
        <path fill="rgb(19,21,22)" stroke="none" d="M 11037,13892 L 11037,14047 11001,14047 11037,13892 Z"/>
        <path fill="rgb(19,21,22)" stroke="none" d="M 11238,13892 L 11273,14047 11238,14047 11238,13892 Z"/>
        <path fill="rgb(19,21,22)" stroke="none" d="M 10765,14047 L 10765,13892 10802,13892 10765,14047 Z"/>
        <path fill="rgb(19,21,22)" stroke="none" d="M 10802,13892 L 10802,14047 10765,14047 10802,13892 Z"/>
        <path fill="rgb(19,21,22)" stroke="none" d="M 11273,13892 L 11273,14047 11238,13892 11273,13892 Z"/>
        <path fill="rgb(19,21,22)" stroke="none" d="M 10547,14619 L 10530,13892 10566,13892 10547,14619 Z"/>
        <path fill="rgb(19,21,22)" stroke="none" d="M 10547,14619 L 10566,13892 10566,15346 10547,14619 Z"/>
        <path fill="rgb(19,21,22)" stroke="none" d="M 10547,14619 L 10566,15346 10530,15346 10547,14619 Z"/>
        <path fill="rgb(19,21,22)" stroke="none" d="M 10547,14619 L 10530,15346 10530,13892 10547,14619 Z"/>
        <path fill="none" stroke="rgb(36,39,41)" stroke-width="0" stroke-linejoin="round" stroke-linecap="round" d="M 8914,14464 L 8914,15346"/>
        <path fill="none" stroke="rgb(36,39,41)" stroke-width="0" stroke-linejoin="round" stroke-linecap="round" d="M 8876,14464 L 8876,15346"/>
        <path fill="none" stroke="rgb(36,39,41)" stroke-width="0" stroke-linejoin="round" stroke-linecap="round" d="M 8677,14634 L 8677,15346"/>
        <path fill="none" stroke="rgb(36,39,41)" stroke-width="0" stroke-linejoin="round" stroke-linecap="round" d="M 8642,14634 L 8642,15346"/>
        <path fill="rgb(19,21,22)" stroke="none" d="M 8642,15346 L 8642,14634 8677,14634 8642,15346 Z"/>
        <path fill="rgb(19,21,22)" stroke="none" d="M 8677,14634 L 8677,15346 8642,15346 8677,14634 Z"/>
        <path fill="rgb(19,21,22)" stroke="none" d="M 8876,14464 L 8914,15346 8876,15346 8876,14464 Z"/>
        <path fill="rgb(19,21,22)" stroke="none" d="M 8914,14464 L 8914,15346 8876,14464 8914,14464 Z"/>
        <path fill="rgb(19,21,22)" stroke="none" d="M 8914,13892 L 8914,14047 8876,14047 8914,13892 Z"/>
        <path fill="rgb(19,21,22)" stroke="none" d="M 8876,13892 L 8914,13892 8876,14047 8876,13892 Z"/>
        <path fill="rgb(19,21,22)" stroke="none" d="M 8642,14047 L 8642,13892 8677,13892 8642,14047 Z"/>
        <path fill="rgb(19,21,22)" stroke="none" d="M 8677,13892 L 8677,14047 8642,14047 8677,13892 Z"/>
        <path fill="none" stroke="rgb(36,39,41)" stroke-width="0" stroke-linejoin="round" stroke-linecap="round" d="M 8441,14464 L 8441,15346"/>
        <path fill="none" stroke="rgb(36,39,41)" stroke-width="0" stroke-linejoin="round" stroke-linecap="round" d="M 8405,14464 L 8405,15346"/>
        <path fill="rgb(19,21,22)" stroke="none" d="M 8405,14464 L 8441,15346 8405,15346 8405,14464 Z"/>
        <path fill="rgb(19,21,22)" stroke="none" d="M 8441,14464 L 8441,15346 8405,14464 8441,14464 Z"/>
        <path fill="rgb(19,21,22)" stroke="none" d="M 8405,13892 L 8441,14047 8405,14047 8405,13892 Z"/>
        <path fill="rgb(19,21,22)" stroke="none" d="M 8415,13892 L 8441,14047 8405,13892 8415,13892 8415,13892 Z"/>
        <path fill="rgb(19,21,22)" stroke="none" d="M 8415,13892 L 8422,13892 8441,13892 8415,13892 Z"/>
        <path fill="rgb(19,21,22)" stroke="none" d="M 8441,13892 L 8441,14047 8415,13892 8441,13892 Z"/>
        <path fill="rgb(217,41,37)" stroke="none" d="M 8858,14418 L 9037,14464 8858,14464 8858,14418 Z"/>
        <path fill="rgb(217,41,37)" stroke="none" d="M 8454,14418 L 8454,14464 8375,14464 8454,14418 Z"/>
        <path fill="rgb(217,41,37)" stroke="none" d="M 8688,14414 L 8858,14418 8655,14418 8688,14414 Z"/>
        <path fill="rgb(217,41,37)" stroke="none" d="M 8616,14414 L 8649,14418 8454,14418 8616,14414 Z"/>
        <path fill="rgb(217,41,37)" stroke="none" d="M 8720,14401 L 8858,14418 8688,14414 8720,14401 Z"/>
        <path fill="rgb(217,41,37)" stroke="none" d="M 8584,14401 L 8616,14414 8454,14418 8584,14401 Z"/>
        <path fill="rgb(217,41,37)" stroke="none" d="M 8748,14384 L 8858,14418 8720,14401 8748,14384 Z"/>
        <path fill="rgb(217,41,37)" stroke="none" d="M 8748,14384 L 9037,14464 8858,14418 8748,14384 Z"/>
        <path fill="rgb(217,41,37)" stroke="none" d="M 8556,14384 L 8584,14401 8454,14418 8556,14384 Z"/>
        <path fill="rgb(217,41,37)" stroke="none" d="M 8772,14360 L 9037,14464 8748,14384 8772,14360 Z"/>
        <path fill="rgb(217,41,37)" stroke="none" d="M 8532,14360 L 8556,14384 8454,14418 8532,14360 Z"/>
        <path fill="rgb(217,41,37)" stroke="none" d="M 8532,14360 L 8454,14418 8375,14464 8532,14360 Z"/>
        <path fill="rgb(217,41,37)" stroke="none" d="M 8789,14330 L 9037,14464 8772,14360 8789,14330 Z"/>
        <path fill="rgb(217,41,37)" stroke="none" d="M 8513,14330 L 8532,14360 8375,14464 8513,14330 Z"/>
        <path fill="rgb(217,41,37)" stroke="none" d="M 8800,14298 L 9037,14464 8789,14330 8800,14298 Z"/>
        <path fill="rgb(217,41,37)" stroke="none" d="M 8504,14298 L 8513,14330 8375,14464 8504,14298 Z"/>
        <path fill="rgb(217,41,37)" stroke="none" d="M 8804,14265 L 9037,14464 8800,14298 8804,14265 Z"/>
        <path fill="rgb(217,41,37)" stroke="none" d="M 8500,14265 L 8504,14298 8375,14464 8500,14265 Z"/>
        <path fill="rgb(217,41,37)" stroke="none" d="M 8800,14231 L 9037,14464 8804,14265 8800,14231 Z"/>
        <path fill="rgb(217,41,37)" stroke="none" d="M 8504,14231 L 8500,14265 8375,14464 8504,14231 Z"/>
        <path fill="rgb(217,41,37)" stroke="none" d="M 8789,14200 L 9037,14464 8800,14231 8789,14200 Z"/>
        <path fill="rgb(217,41,37)" stroke="none" d="M 8515,14200 L 8504,14231 8375,14464 8515,14200 Z"/>
        <path fill="rgb(217,41,37)" stroke="none" d="M 8770,14170 L 9037,14464 8789,14200 8770,14170 Z"/>
        <path fill="rgb(217,41,37)" stroke="none" d="M 9037,14047 L 8686,14118 8651,14112 9037,14047 Z"/>
        <path fill="rgb(217,41,37)" stroke="none" d="M 9037,14047 L 8718,14129 8686,14118 9037,14047 Z"/>
        <path fill="rgb(217,41,37)" stroke="none" d="M 9037,14047 L 8746,14146 8718,14129 9037,14047 Z"/>
        <path fill="rgb(217,41,37)" stroke="none" d="M 9037,14047 L 8770,14170 8746,14146 9037,14047 Z"/>
        <path fill="rgb(217,41,37)" stroke="none" d="M 9037,14047 L 9037,14464 8770,14170 9037,14047 Z"/>
        <path fill="rgb(217,41,37)" stroke="none" d="M 8651,14112 L 8375,14047 9037,14047 8651,14112 Z"/>
        <path fill="rgb(217,41,37)" stroke="none" d="M 8375,14047 L 8651,14112 8618,14118 8375,14047 Z"/>
        <path fill="rgb(217,41,37)" stroke="none" d="M 8375,14047 L 8618,14118 8586,14129 8375,14047 Z"/>
        <path fill="rgb(217,41,37)" stroke="none" d="M 8375,14047 L 8586,14129 8556,14146 8375,14047 Z"/>
        <path fill="rgb(217,41,37)" stroke="none" d="M 8375,14047 L 8556,14146 8532,14170 8375,14047 Z"/>
        <path fill="rgb(217,41,37)" stroke="none" d="M 8375,14047 L 8532,14170 8515,14200 8375,14047 Z"/>
        <path fill="rgb(217,41,37)" stroke="none" d="M 8375,14047 L 8515,14200 8375,14464 8375,14047 Z"/>
        <path fill="none" stroke="rgb(36,39,41)" stroke-width="0" stroke-linejoin="round" stroke-linecap="round" d="M 8858,14418 L 8454,14418 8454,14634 8858,14634 8858,14418 Z"/>
        <path fill="none" stroke="rgb(36,39,41)" stroke-width="0" stroke-linejoin="round" stroke-linecap="round" d="M 8500,14265 L 8504,14231 8515,14200 8532,14170 8556,14146 8586,14129 8618,14118 8651,14112 8686,14118 8718,14129 8746,14146 8770,14170 8789,14200 8800,14231 8804,14265 8800,14300 8789,14332 8770,14360 8746,14384 8718,14403 8686,14414 8651,14418 8618,14414 8586,14403 8556,14384 8532,14360 8515,14332 8504,14300 8500,14265 Z"/>
        <path fill="none" stroke="rgb(36,39,41)" stroke-width="0" stroke-linejoin="round" stroke-linecap="round" d="M 8670,14153 L 8698,14162 8722,14179 8741,14202 8754,14228 8757,14255 8754,14285 8742,14311 8724,14334"/>
        <path fill="none" stroke="rgb(36,39,41)" stroke-width="0" stroke-linejoin="round" stroke-linecap="round" d="M 8590,14291 L 8578,14270 8577,14248 8580,14228 8592,14207 8608,14192 8629,14185"/>
        <path fill="none" stroke="rgb(36,39,41)" stroke-width="0" stroke-linejoin="round" stroke-linecap="round" d="M 8603,14351 L 8580,14336 8562,14317 8551,14293 8545,14267 8545,14241 8552,14216 8565,14192 8586,14175 8608,14162"/>
        <path fill="none" stroke="rgb(36,39,41)" stroke-width="0" stroke-linejoin="round" stroke-linecap="round" d="M 9037,14047 L 9037,14045"/>
        <path fill="none" stroke="rgb(36,39,41)" stroke-width="0" stroke-linejoin="round" stroke-linecap="round" d="M 10361,14047 L 8375,14047 8375,14464 8454,14464"/>
        <path fill="none" stroke="rgb(36,39,41)" stroke-width="0" stroke-linejoin="round" stroke-linecap="round" d="M 8858,14464 L 10361,14464"/>
        <path fill="rgb(31,26,23)" stroke="none" d="M 8068,15378 L 8425,15378 8425,15346 8068,15346 8068,15378 Z"/>
       </g>
      </g>
     </g>
    </g>
   </g>
  </g>
 </g>
</svg>