<?xml version="1.0" encoding="UTF-8"?>
<!DOCTYPE svg PUBLIC "-//W3C//DTD SVG 1.1//EN" "http://www.w3.org/Graphics/SVG/1.1/DTD/svg11.dtd">
<svg version="1.2" width="50.05mm" height="35.22mm" viewBox="8045 13147 5005 3522" preserveAspectRatio="xMidYMid" fill-rule="evenodd" stroke-width="28.222" stroke-linejoin="round" xmlns="http://www.w3.org/2000/svg" xmlns:ooo="http://xml.openoffice.org/svg/export" xmlns:xlink="http://www.w3.org/1999/xlink" xmlns:presentation="http://sun.com/xmlns/staroffice/presentation" xmlns:smil="http://www.w3.org/2001/SMIL20/" xmlns:anim="urn:oasis:names:tc:opendocument:xmlns:animation:1.0" xml:space="preserve">
 <defs class="ClipPathGroup">
  <clipPath id="presentation_clip_path" clipPathUnits="userSpaceOnUse">
   <rect x="8045" y="13147" width="5005" height="3522"/>
  </clipPath>
  <clipPath id="presentation_clip_path_shrink" clipPathUnits="userSpaceOnUse">
   <rect x="8050" y="13150" width="4995" height="3515"/>
  </clipPath>
 </defs>
 <defs class="TextShapeIndex">
  <g ooo:slide="id1" ooo:id-list="id3"/>
 </defs>
 <defs class="EmbeddedBulletChars">
  <g id="bullet-char-template-57356" transform="scale(0.00048828125,-0.00048828125)">
   <path d="M 580,1141 L 1163,571 580,0 -4,571 580,1141 Z"/>
  </g>
  <g id="bullet-char-template-57354" transform="scale(0.00048828125,-0.00048828125)">
   <path d="M 8,1128 L 1137,1128 1137,0 8,0 8,1128 Z"/>
  </g>
  <g id="bullet-char-template-10146" transform="scale(0.00048828125,-0.00048828125)">
   <path d="M 174,0 L 602,739 174,1481 1456,739 174,0 Z M 1358,739 L 309,1346 659,739 1358,739 Z"/>
  </g>
  <g id="bullet-char-template-10132" transform="scale(0.00048828125,-0.00048828125)">
   <path d="M 2015,739 L 1276,0 717,0 1260,543 174,543 174,936 1260,936 717,1481 1274,1481 2015,739 Z"/>
  </g>
  <g id="bullet-char-template-10007" transform="scale(0.00048828125,-0.00048828125)">
   <path d="M 0,-2 C -7,14 -16,27 -25,37 L 356,567 C 262,823 215,952 215,954 215,979 228,992 255,992 264,992 276,990 289,987 310,991 331,999 354,1012 L 381,999 492,748 772,1049 836,1024 860,1049 C 881,1039 901,1025 922,1006 886,937 835,863 770,784 769,783 710,716 594,584 L 774,223 C 774,196 753,168 711,139 L 727,119 C 717,90 699,76 672,76 641,76 570,178 457,381 L 164,-76 C 142,-110 111,-127 72,-127 30,-127 9,-110 8,-76 1,-67 -2,-52 -2,-32 -2,-23 -1,-13 0,-2 Z"/>
  </g>
  <g id="bullet-char-template-10004" transform="scale(0.00048828125,-0.00048828125)">
   <path d="M 285,-33 C 182,-33 111,30 74,156 52,228 41,333 41,471 41,549 55,616 82,672 116,743 169,778 240,778 293,778 328,747 346,684 L 369,508 C 377,444 397,411 428,410 L 1163,1116 C 1174,1127 1196,1133 1229,1133 1271,1133 1292,1118 1292,1087 L 1292,965 C 1292,929 1282,901 1262,881 L 442,47 C 390,-6 338,-33 285,-33 Z"/>
  </g>
  <g id="bullet-char-template-9679" transform="scale(0.00048828125,-0.00048828125)">
   <path d="M 813,0 C 632,0 489,54 383,161 276,268 223,411 223,592 223,773 276,916 383,1023 489,1130 632,1184 813,1184 992,1184 1136,1130 1245,1023 1353,916 1407,772 1407,592 1407,412 1353,268 1245,161 1136,54 992,0 813,0 Z"/>
  </g>
  <g id="bullet-char-template-8226" transform="scale(0.00048828125,-0.00048828125)">
   <path d="M 346,457 C 273,457 209,483 155,535 101,586 74,649 74,723 74,796 101,859 155,911 209,963 273,989 346,989 419,989 480,963 531,910 582,859 608,796 608,723 608,648 583,586 532,535 482,483 420,457 346,457 Z"/>
  </g>
  <g id="bullet-char-template-8211" transform="scale(0.00048828125,-0.00048828125)">
   <path d="M -4,459 L 1135,459 1135,606 -4,606 -4,459 Z"/>
  </g>
  <g id="bullet-char-template-61548" transform="scale(0.00048828125,-0.00048828125)">
   <path d="M 173,740 C 173,903 231,1043 346,1159 462,1274 601,1332 765,1332 928,1332 1067,1274 1183,1159 1299,1043 1357,903 1357,740 1357,577 1299,437 1183,322 1067,206 928,148 765,148 601,148 462,206 346,322 231,437 173,577 173,740 Z"/>
  </g>
 </defs>
 <defs class="TextEmbeddedBitmaps"/>
 <g class="SlideGroup">
  <g>
   <g id="container-id1">
    <g id="id1" class="Slide" clip-path="url(#presentation_clip_path)">
     <g class="Page">
      <g class="Graphic">
       <g id="id3">
        <rect class="BoundingBox" stroke="none" fill="none" x="8045" y="13147" width="5006" height="3523"/>
        <path fill="rgb(255,255,255)" stroke="none" d="M 8664,15175 L 10324,15175 10324,14755 8664,14755 8664,15175 Z"/>
        <path fill="rgb(255,255,255)" stroke="none" d="M 10857,15175 L 12518,15175 12518,14753 10857,14753 10857,15175 Z"/>
        <path fill="none" stroke="rgb(49,62,68)" stroke-width="0" stroke-linejoin="round" stroke-linecap="round" d="M 8049,16071 L 8049,14939"/>
        <path fill="none" stroke="rgb(49,62,68)" stroke-width="0" stroke-linejoin="round" stroke-linecap="round" d="M 8423,14564 L 8371,14567 8317,14578 8267,14597 8221,14623 8179,14656 8139,14693 8108,14736 8082,14784 8063,14834 8053,14886 8049,14939"/>
        <path fill="none" stroke="rgb(49,62,68)" stroke-width="0" stroke-linejoin="round" stroke-linecap="round" d="M 8423,14564 L 12671,14564"/>
        <path fill="none" stroke="rgb(49,62,68)" stroke-width="0" stroke-linejoin="round" stroke-linecap="round" d="M 13047,14939 L 13043,14886 13033,14834 13012,14784 12988,14736 12955,14693 12918,14656 12875,14623 12827,14597 12777,14578 12725,14567 12671,14564"/>
        <path fill="none" stroke="rgb(49,62,68)" stroke-width="0" stroke-linejoin="round" stroke-linecap="round" d="M 13047,14939 L 13047,16071"/>
        <path fill="none" stroke="rgb(49,62,68)" stroke-width="0" stroke-linejoin="round" stroke-linecap="round" d="M 13010,16071 L 13010,16666"/>
        <path fill="none" stroke="rgb(49,62,68)" stroke-width="0" stroke-linejoin="round" stroke-linecap="round" d="M 13047,16071 L 13047,16666"/>
        <path fill="none" stroke="rgb(49,62,68)" stroke-width="0" stroke-linejoin="round" stroke-linecap="round" d="M 13010,16071 L 13010,14939 13008,14891 12997,14843 12981,14799 12957,14756 12929,14717 12894,14682 12855,14652 12812,14630 12768,14614 12720,14602 12671,14599 8423,14599 8374,14602 8328,14614 8282,14630 8240,14652 8200,14682 8167,14717 8138,14756 8114,14799 8097,14843 8088,14891 8084,14939"/>
        <path fill="none" stroke="rgb(49,62,68)" stroke-width="0" stroke-linejoin="round" stroke-linecap="round" d="M 13010,16089 L 8084,16089"/>
        <path fill="none" stroke="rgb(49,62,68)" stroke-width="0" stroke-linejoin="round" stroke-linecap="round" d="M 13010,16052 L 8084,16052"/>
        <path fill="none" stroke="rgb(49,62,68)" stroke-width="0" stroke-linejoin="round" stroke-linecap="round" d="M 8049,16071 L 8049,16666"/>
        <path fill="none" stroke="rgb(49,62,68)" stroke-width="0" stroke-linejoin="round" stroke-linecap="round" d="M 8084,16666 L 8084,16071 8084,14939"/>
        <path fill="none" stroke="rgb(49,62,68)" stroke-width="0" stroke-linejoin="round" stroke-linecap="round" d="M 8441,14599 L 8441,16052"/>
        <path fill="none" stroke="rgb(49,62,68)" stroke-width="0" stroke-linejoin="round" stroke-linecap="round" d="M 8678,14599 L 8678,16052"/>
        <path fill="none" stroke="rgb(49,62,68)" stroke-width="0" stroke-linejoin="round" stroke-linecap="round" d="M 8641,14599 L 8641,16052"/>
        <path fill="none" stroke="rgb(49,62,68)" stroke-width="0" stroke-linejoin="round" stroke-linecap="round" d="M 8913,14599 L 8913,16052"/>
        <path fill="none" stroke="rgb(49,62,68)" stroke-width="0" stroke-linejoin="round" stroke-linecap="round" d="M 8877,14599 L 8877,16052"/>
        <path fill="none" stroke="rgb(49,62,68)" stroke-width="0" stroke-linejoin="round" stroke-linecap="round" d="M 9857,14599 L 9857,16052"/>
        <path fill="none" stroke="rgb(49,62,68)" stroke-width="0" stroke-linejoin="round" stroke-linecap="round" d="M 9822,14599 L 9822,16052"/>
        <path fill="none" stroke="rgb(49,62,68)" stroke-width="0" stroke-linejoin="round" stroke-linecap="round" d="M 10094,14599 L 10094,16052"/>
        <path fill="none" stroke="rgb(49,62,68)" stroke-width="0" stroke-linejoin="round" stroke-linecap="round" d="M 10057,14599 L 10057,16052"/>
        <path fill="none" stroke="rgb(49,62,68)" stroke-width="0" stroke-linejoin="round" stroke-linecap="round" d="M 10329,14599 L 10329,16052"/>
        <path fill="none" stroke="rgb(49,62,68)" stroke-width="0" stroke-linejoin="round" stroke-linecap="round" d="M 10294,14599 L 10294,16052"/>
        <path fill="none" stroke="rgb(49,62,68)" stroke-width="0" stroke-linejoin="round" stroke-linecap="round" d="M 10566,14599 L 10566,16052"/>
        <path fill="none" stroke="rgb(49,62,68)" stroke-width="0" stroke-linejoin="round" stroke-linecap="round" d="M 10529,14599 L 10529,16052"/>
        <path fill="none" stroke="rgb(49,62,68)" stroke-width="0" stroke-linejoin="round" stroke-linecap="round" d="M 10800,14599 L 10800,16052"/>
        <path fill="none" stroke="rgb(49,62,68)" stroke-width="0" stroke-linejoin="round" stroke-linecap="round" d="M 10765,14599 L 10765,16052"/>
        <path fill="none" stroke="rgb(49,62,68)" stroke-width="0" stroke-linejoin="round" stroke-linecap="round" d="M 11037,14599 L 11037,16052"/>
        <path fill="none" stroke="rgb(49,62,68)" stroke-width="0" stroke-linejoin="round" stroke-linecap="round" d="M 11002,14599 L 11002,16052"/>
        <path fill="none" stroke="rgb(49,62,68)" stroke-width="0" stroke-linejoin="round" stroke-linecap="round" d="M 11274,14599 L 11274,16052"/>
        <path fill="none" stroke="rgb(49,62,68)" stroke-width="0" stroke-linejoin="round" stroke-linecap="round" d="M 11237,14599 L 11237,16052"/>
        <path fill="none" stroke="rgb(49,62,68)" stroke-width="0" stroke-linejoin="round" stroke-linecap="round" d="M 11509,14599 L 11509,14756"/>
        <path fill="none" stroke="rgb(49,62,68)" stroke-width="0" stroke-linejoin="round" stroke-linecap="round" d="M 11473,14599 L 11473,14756"/>
        <path fill="none" stroke="rgb(49,62,68)" stroke-width="0" stroke-linejoin="round" stroke-linecap="round" d="M 12217,14599 L 12217,16052"/>
        <path fill="none" stroke="rgb(49,62,68)" stroke-width="0" stroke-linejoin="round" stroke-linecap="round" d="M 12182,14599 L 12182,16052"/>
        <path fill="none" stroke="rgb(49,62,68)" stroke-width="0" stroke-linejoin="round" stroke-linecap="round" d="M 12454,14599 L 12454,16052"/>
        <path fill="none" stroke="rgb(49,62,68)" stroke-width="0" stroke-linejoin="round" stroke-linecap="round" d="M 12418,14599 L 12418,16052"/>
        <path fill="none" stroke="rgb(49,62,68)" stroke-width="0" stroke-linejoin="round" stroke-linecap="round" d="M 12690,14599 L 12690,16052"/>
        <path fill="none" stroke="rgb(49,62,68)" stroke-width="0" stroke-linejoin="round" stroke-linecap="round" d="M 12653,14599 L 12653,16052"/>
        <path fill="none" stroke="rgb(49,62,68)" stroke-width="0" stroke-linejoin="round" stroke-linecap="round" d="M 13047,16666 L 13010,16666"/>
        <path fill="none" stroke="rgb(49,62,68)" stroke-width="0" stroke-linejoin="round" stroke-linecap="round" d="M 8084,16666 L 8049,16666"/>
        <path fill="rgb(30,34,38)" stroke="none" d="M 13047,16071 L 13010,16666 13047,16666 13047,16071 Z"/>
        <path fill="rgb(30,34,38)" stroke="none" d="M 8084,16071 L 8049,16666 8084,16666 8084,16071 Z"/>
        <path fill="rgb(30,34,38)" stroke="none" d="M 13010,16071 L 13010,16666 13047,16071 13010,16071 Z"/>
        <path fill="rgb(30,34,38)" stroke="none" d="M 8049,16071 L 8049,16666 8084,16071 8049,16071 Z"/>
        <path fill="rgb(30,34,38)" stroke="none" d="M 8084,14939 L 8049,16071 8084,16071 8084,14939 Z"/>
        <path fill="rgb(30,34,38)" stroke="none" d="M 13047,14939 L 13010,16071 13047,16071 13047,14939 Z"/>
        <path fill="rgb(30,34,38)" stroke="none" d="M 8049,14939 L 8049,16071 8084,14939 8049,14939 Z"/>
        <path fill="rgb(30,34,38)" stroke="none" d="M 13010,14939 L 13010,16071 13047,14939 13010,14939 Z"/>
        <path fill="rgb(30,34,38)" stroke="none" d="M 8088,14891 L 8049,14939 8084,14939 8088,14891 Z"/>
        <path fill="rgb(30,34,38)" stroke="none" d="M 13008,14891 L 13010,14939 13047,14939 13008,14891 Z"/>
        <path fill="rgb(30,34,38)" stroke="none" d="M 13043,14886 L 13008,14891 13047,14939 13043,14886 Z"/>
        <path fill="rgb(30,34,38)" stroke="none" d="M 8053,14886 L 8049,14939 8088,14891 8053,14886 Z"/>
        <path fill="rgb(30,34,38)" stroke="none" d="M 12997,14843 L 13008,14891 13043,14886 12997,14843 Z"/>
        <path fill="rgb(30,34,38)" stroke="none" d="M 8097,14843 L 8053,14886 8088,14891 8097,14843 Z"/>
        <path fill="rgb(30,34,38)" stroke="none" d="M 13033,14834 L 12997,14843 13043,14886 13033,14834 Z"/>
        <path fill="rgb(30,34,38)" stroke="none" d="M 8063,14834 L 8053,14886 8097,14843 8063,14834 Z"/>
        <path fill="rgb(30,34,38)" stroke="none" d="M 8114,14799 L 8063,14834 8097,14843 8114,14799 Z"/>
        <path fill="rgb(30,34,38)" stroke="none" d="M 12981,14799 L 12997,14843 13033,14834 12981,14799 Z"/>
        <path fill="rgb(30,34,38)" stroke="none" d="M 13012,14784 L 12981,14799 13033,14834 13012,14784 Z"/>
        <path fill="rgb(30,34,38)" stroke="none" d="M 8082,14784 L 8063,14834 8114,14799 8082,14784 Z"/>
        <path fill="rgb(30,34,38)" stroke="none" d="M 8138,14756 L 8082,14784 8114,14799 8138,14756 Z"/>
        <path fill="rgb(30,34,38)" stroke="none" d="M 12957,14756 L 12981,14799 13012,14784 12957,14756 Z"/>
        <path fill="rgb(30,34,38)" stroke="none" d="M 12988,14736 L 12957,14756 13012,14784 12988,14736 Z"/>
        <path fill="rgb(30,34,38)" stroke="none" d="M 8108,14736 L 8082,14784 8138,14756 8108,14736 Z"/>
        <path fill="rgb(30,34,38)" stroke="none" d="M 12929,14717 L 12957,14756 12988,14736 12929,14717 Z"/>
        <path fill="rgb(30,34,38)" stroke="none" d="M 8167,14717 L 8108,14736 8138,14756 8167,14717 Z"/>
        <path fill="rgb(30,34,38)" stroke="none" d="M 12955,14693 L 12929,14717 12988,14736 12955,14693 12955,14693 Z"/>
        <path fill="rgb(30,34,38)" stroke="none" d="M 8139,14693 L 8108,14736 8167,14717 8139,14693 Z"/>
        <path fill="rgb(30,34,38)" stroke="none" d="M 12894,14682 L 12929,14717 12955,14693 12894,14682 Z"/>
        <path fill="rgb(30,34,38)" stroke="none" d="M 8200,14682 L 8139,14693 8167,14717 8200,14682 Z"/>
        <path fill="rgb(30,34,38)" stroke="none" d="M 12918,14656 L 12894,14682 12955,14693 12918,14656 Z"/>
        <path fill="rgb(30,34,38)" stroke="none" d="M 8179,14656 L 8139,14693 8200,14682 8179,14656 Z"/>
        <path fill="rgb(30,34,38)" stroke="none" d="M 12855,14652 L 12894,14682 12918,14656 12855,14652 Z"/>
        <path fill="rgb(30,34,38)" stroke="none" d="M 8240,14652 L 8179,14656 8200,14682 8240,14652 Z"/>
        <path fill="rgb(30,34,38)" stroke="none" d="M 12812,14630 L 12855,14652 12918,14656 12812,14630 Z"/>
        <path fill="rgb(30,34,38)" stroke="none" d="M 8282,14630 L 8179,14656 8240,14652 8282,14630 Z"/>
        <path fill="rgb(30,34,38)" stroke="none" d="M 12875,14623 L 12812,14630 12918,14656 12875,14623 Z"/>
        <path fill="rgb(30,34,38)" stroke="none" d="M 8221,14623 L 8179,14656 8282,14630 8221,14623 Z"/>
        <path fill="rgb(30,34,38)" stroke="none" d="M 8328,14614 L 8221,14623 8282,14630 8328,14614 Z"/>
        <path fill="rgb(30,34,38)" stroke="none" d="M 12768,14614 L 12812,14630 12875,14623 12768,14614 Z"/>
        <path fill="rgb(30,34,38)" stroke="none" d="M 8374,14602 L 8221,14623 8328,14614 8374,14602 Z"/>
        <path fill="rgb(30,34,38)" stroke="none" d="M 12720,14602 L 12768,14614 12875,14623 12720,14602 Z"/>
        <path fill="rgb(30,34,38)" stroke="none" d="M 12827,14597 L 8423,14599 12671,14599 12827,14597 Z"/>
        <path fill="rgb(30,34,38)" stroke="none" d="M 12827,14597 L 12671,14599 12720,14602 12827,14597 Z"/>
        <path fill="rgb(30,34,38)" stroke="none" d="M 12827,14597 L 12720,14602 12875,14623 12827,14597 Z"/>
        <path fill="rgb(30,34,38)" stroke="none" d="M 8267,14597 L 8423,14599 12827,14597 8267,14597 Z"/>
        <path fill="rgb(30,34,38)" stroke="none" d="M 8267,14597 L 8374,14602 8423,14599 8267,14597 Z"/>
        <path fill="rgb(30,34,38)" stroke="none" d="M 8267,14597 L 8221,14623 8374,14602 8267,14597 Z"/>
        <path fill="rgb(30,34,38)" stroke="none" d="M 12777,14578 L 8267,14597 12827,14597 12777,14578 Z"/>
        <path fill="rgb(30,34,38)" stroke="none" d="M 8317,14578 L 8267,14597 12777,14578 8317,14578 Z"/>
        <path fill="rgb(30,34,38)" stroke="none" d="M 12725,14567 L 8317,14578 12777,14578 12725,14567 Z"/>
        <path fill="rgb(30,34,38)" stroke="none" d="M 8371,14567 L 8317,14578 12725,14567 8371,14567 Z"/>
        <path fill="rgb(30,34,38)" stroke="none" d="M 8371,14567 L 12671,14564 8423,14564 8371,14567 Z"/>
        <path fill="rgb(30,34,38)" stroke="none" d="M 12671,14564 L 8371,14567 12725,14567 12671,14564 Z"/>
        <path fill="rgb(30,34,38)" stroke="none" d="M 13010,16071 L 8084,16089 13010,16089 13010,16071 Z"/>
        <path fill="rgb(30,34,38)" stroke="none" d="M 8084,16071 L 8084,16089 13010,16071 8084,16071 Z"/>
        <path fill="rgb(30,34,38)" stroke="none" d="M 8441,16052 L 8084,16071 13010,16071 8441,16052 Z"/>
        <path fill="rgb(30,34,38)" stroke="none" d="M 10566,16052 L 8441,16052 13010,16071 10566,16052 Z"/>
        <path fill="rgb(30,34,38)" stroke="none" d="M 9386,16052 L 8441,16052 10566,16052 9386,16052 Z"/>
        <path fill="rgb(30,34,38)" stroke="none" d="M 8913,16052 L 8441,16052 9386,16052 8913,16052 Z"/>
        <path fill="rgb(30,34,38)" stroke="none" d="M 12690,16052 L 10566,16052 13010,16071 12690,16052 Z"/>
        <path fill="rgb(30,34,38)" stroke="none" d="M 10529,16052 L 9386,16052 10566,16052 10529,16052 Z"/>
        <path fill="rgb(30,34,38)" stroke="none" d="M 12653,16052 L 10566,16052 12690,16052 12653,16052 Z"/>
        <path fill="rgb(30,34,38)" stroke="none" d="M 9349,16052 L 8913,16052 9386,16052 9349,16052 Z"/>
        <path fill="rgb(30,34,38)" stroke="none" d="M 8877,16052 L 8441,16052 8913,16052 8877,16052 Z"/>
        <path fill="rgb(30,34,38)" stroke="none" d="M 8406,16052 L 8084,16071 8441,16052 8406,16052 Z"/>
        <path fill="rgb(30,34,38)" stroke="none" d="M 9149,16052 L 8913,16052 9349,16052 9149,16052 Z"/>
        <path fill="rgb(30,34,38)" stroke="none" d="M 8913,16052 L 9149,16052 9114,16052 8913,16052 Z"/>
        <path fill="rgb(30,34,38)" stroke="none" d="M 11473,16052 L 10566,16052 12653,16052 11473,16052 Z"/>
        <path fill="rgb(30,34,38)" stroke="none" d="M 11037,16052 L 10566,16052 11473,16052 11037,16052 Z"/>
        <path fill="rgb(30,34,38)" stroke="none" d="M 10566,16052 L 11037,16052 11002,16052 10566,16052 Z"/>
        <path fill="rgb(30,34,38)" stroke="none" d="M 12182,16052 L 11473,16052 12653,16052 12182,16052 Z"/>
        <path fill="rgb(30,34,38)" stroke="none" d="M 9621,16052 L 9386,16052 10529,16052 9621,16052 Z"/>
        <path fill="rgb(30,34,38)" stroke="none" d="M 9386,16052 L 9621,16052 9586,16052 9386,16052 Z"/>
        <path fill="rgb(30,34,38)" stroke="none" d="M 11745,16052 L 11473,16052 12182,16052 11745,16052 Z"/>
        <path fill="rgb(30,34,38)" stroke="none" d="M 11473,16052 L 11745,16052 11710,16052 11473,16052 Z"/>
        <path fill="rgb(30,34,38)" stroke="none" d="M 10057,16052 L 9621,16052 10529,16052 10057,16052 Z"/>
        <path fill="rgb(30,34,38)" stroke="none" d="M 13010,16052 L 12690,16052 13010,16071 13010,16052 Z"/>
        <path fill="rgb(30,34,38)" stroke="none" d="M 12217,16052 L 12182,16052 12653,16052 12217,16052 Z"/>
        <path fill="rgb(30,34,38)" stroke="none" d="M 11509,16052 L 11473,16052 11710,16052 11509,16052 Z"/>
        <path fill="rgb(30,34,38)" stroke="none" d="M 10094,16052 L 10057,16052 10529,16052 10094,16052 Z"/>
        <path fill="rgb(30,34,38)" stroke="none" d="M 12418,16052 L 12217,16052 12653,16052 12418,16052 Z"/>
        <path fill="rgb(30,34,38)" stroke="none" d="M 12653,16052 L 12454,16052 12418,16052 12653,16052 Z"/>
        <path fill="rgb(30,34,38)" stroke="none" d="M 8678,16052 L 8441,16052 8877,16052 8678,16052 Z"/>
        <path fill="rgb(30,34,38)" stroke="none" d="M 8441,16052 L 8678,16052 8641,16052 8441,16052 Z"/>
        <path fill="rgb(30,34,38)" stroke="none" d="M 11945,16052 L 11745,16052 12182,16052 11945,16052 Z"/>
        <path fill="rgb(30,34,38)" stroke="none" d="M 12182,16052 L 11982,16052 11945,16052 12182,16052 Z"/>
        <path fill="rgb(30,34,38)" stroke="none" d="M 10294,16052 L 10094,16052 10529,16052 10294,16052 Z"/>
        <path fill="rgb(30,34,38)" stroke="none" d="M 10529,16052 L 10329,16052 10294,16052 10529,16052 Z"/>
        <path fill="rgb(30,34,38)" stroke="none" d="M 11237,16052 L 11037,16052 11473,16052 11237,16052 Z"/>
        <path fill="rgb(30,34,38)" stroke="none" d="M 11473,16052 L 11274,16052 11237,16052 11473,16052 Z"/>
        <path fill="rgb(30,34,38)" stroke="none" d="M 10800,16052 L 10566,16052 11002,16052 10800,16052 Z"/>
        <path fill="rgb(30,34,38)" stroke="none" d="M 10566,16052 L 10800,16052 10765,16052 10566,16052 Z"/>
        <path fill="rgb(30,34,38)" stroke="none" d="M 9822,16052 L 9621,16052 10057,16052 9822,16052 Z"/>
        <path fill="rgb(30,34,38)" stroke="none" d="M 8084,16052 L 8084,16071 8406,16052 8084,16052 Z"/>
        <path fill="rgb(30,34,38)" stroke="none" d="M 8441,14599 L 8423,14599 8441,16052 8441,14599 Z"/>
        <path fill="rgb(30,34,38)" stroke="none" d="M 8415,14599 L 8441,16052 8423,14599 8415,14599 Z"/>
        <path fill="rgb(30,34,38)" stroke="none" d="M 8441,16052 L 8415,14599 8406,16052 8441,16052 Z"/>
        <path fill="rgb(30,34,38)" stroke="none" d="M 8406,14601 L 8406,16052 8415,14599 8406,14601 Z"/>
        <path fill="none" stroke="rgb(49,62,68)" stroke-width="0" stroke-linejoin="round" stroke-linecap="round" d="M 8406,14599 L 8406,16052"/>
        <path fill="none" stroke="rgb(49,62,68)" stroke-width="0" stroke-linejoin="round" stroke-linecap="round" d="M 10360,14756 L 8376,14756"/>
        <path fill="none" stroke="rgb(49,62,68)" stroke-width="0" stroke-linejoin="round" stroke-linecap="round" d="M 9698,14756 L 9698,14754"/>
        <path fill="none" stroke="rgb(49,62,68)" stroke-width="0" stroke-linejoin="round" stroke-linecap="round" d="M 9038,14756 L 9038,15172"/>
        <path fill="none" stroke="rgb(49,62,68)" stroke-width="0" stroke-linejoin="round" stroke-linecap="round" d="M 9698,14756 L 9698,15172"/>
        <path fill="rgb(214,48,40)" stroke="none" d="M 8707,14963 L 9038,14756 8376,14756 8707,14963 Z"/>
        <path fill="rgb(214,48,40)" stroke="none" d="M 8707,14963 L 8376,14756 8376,15172 8707,14963 Z"/>
        <path fill="rgb(214,48,40)" stroke="none" d="M 8707,14963 L 8376,15172 9038,15172 8707,14963 Z"/>
        <path fill="rgb(214,48,40)" stroke="none" d="M 8707,14963 L 9038,15172 9038,14756 8707,14963 Z"/>
        <path fill="rgb(214,48,40)" stroke="none" d="M 10030,14963 L 10360,14756 9698,14756 10030,14963 Z"/>
        <path fill="rgb(214,48,40)" stroke="none" d="M 10030,14963 L 9698,14756 9698,15172 10030,14963 Z"/>
        <path fill="rgb(214,48,40)" stroke="none" d="M 10030,14963 L 9698,15172 10360,15172 10030,14963 Z"/>
        <path fill="rgb(214,48,40)" stroke="none" d="M 10030,14963 L 10360,15172 10360,14756 10030,14963 Z"/>
        <path fill="none" stroke="rgb(49,62,68)" stroke-width="0" stroke-linejoin="round" stroke-linecap="round" d="M 8376,14756 L 10360,14756"/>
        <path fill="none" stroke="rgb(49,62,68)" stroke-width="0" stroke-linejoin="round" stroke-linecap="round" d="M 12059,14756 L 12059,14754"/>
        <path fill="none" stroke="rgb(49,62,68)" stroke-width="0" stroke-linejoin="round" stroke-linecap="round" d="M 11398,14756 L 11398,15172"/>
        <path fill="none" stroke="rgb(49,62,68)" stroke-width="0" stroke-linejoin="round" stroke-linecap="round" d="M 12059,14756 L 12059,15172"/>
        <path fill="rgb(214,48,40)" stroke="none" d="M 11067,14963 L 11398,14756 10736,14756 11067,14963 Z"/>
        <path fill="rgb(214,48,40)" stroke="none" d="M 11067,14963 L 10736,14756 10736,15172 11067,14963 Z"/>
        <path fill="rgb(214,48,40)" stroke="none" d="M 11067,14963 L 10736,15172 11398,15172 11067,14963 Z"/>
        <path fill="rgb(214,48,40)" stroke="none" d="M 11067,14963 L 11398,15172 11398,14756 11067,14963 Z"/>
        <path fill="rgb(214,48,40)" stroke="none" d="M 12391,14963 L 12722,14756 12059,14756 12391,14963 Z"/>
        <path fill="rgb(214,48,40)" stroke="none" d="M 12391,14963 L 12059,14756 12059,15172 12391,14963 Z"/>
        <path fill="rgb(214,48,40)" stroke="none" d="M 12391,14963 L 12059,15172 12722,15172 12391,14963 12391,14963 Z"/>
        <path fill="rgb(214,48,40)" stroke="none" d="M 12391,14963 L 12722,15172 12722,14756 12391,14963 Z"/>
        <path fill="none" stroke="rgb(49,62,68)" stroke-width="0" stroke-linejoin="round" stroke-linecap="round" d="M 11509,15172 L 11509,16052"/>
        <path fill="none" stroke="rgb(49,62,68)" stroke-width="0" stroke-linejoin="round" stroke-linecap="round" d="M 11473,15172 L 11473,16052"/>
        <path fill="none" stroke="rgb(49,62,68)" stroke-width="0" stroke-linejoin="round" stroke-linecap="round" d="M 11745,14599 L 11745,14756"/>
        <path fill="none" stroke="rgb(49,62,68)" stroke-width="0" stroke-linejoin="round" stroke-linecap="round" d="M 11710,14599 L 11710,14756"/>
        <path fill="none" stroke="rgb(49,62,68)" stroke-width="0" stroke-linejoin="round" stroke-linecap="round" d="M 11745,15172 L 11745,16052"/>
        <path fill="none" stroke="rgb(49,62,68)" stroke-width="0" stroke-linejoin="round" stroke-linecap="round" d="M 11710,15172 L 11710,16052"/>
        <path fill="none" stroke="rgb(49,62,68)" stroke-width="0" stroke-linejoin="round" stroke-linecap="round" d="M 11982,14599 L 11982,14756"/>
        <path fill="none" stroke="rgb(49,62,68)" stroke-width="0" stroke-linejoin="round" stroke-linecap="round" d="M 11945,14599 L 11945,14756"/>
        <path fill="none" stroke="rgb(49,62,68)" stroke-width="0" stroke-linejoin="round" stroke-linecap="round" d="M 11982,15172 L 11982,16052"/>
        <path fill="none" stroke="rgb(49,62,68)" stroke-width="0" stroke-linejoin="round" stroke-linecap="round" d="M 11945,15172 L 11945,16052"/>
        <path fill="none" stroke="rgb(49,62,68)" stroke-width="0" stroke-linejoin="round" stroke-linecap="round" d="M 9149,14599 L 9149,14756"/>
        <path fill="none" stroke="rgb(49,62,68)" stroke-width="0" stroke-linejoin="round" stroke-linecap="round" d="M 9114,14599 L 9114,14756"/>
        <path fill="none" stroke="rgb(49,62,68)" stroke-width="0" stroke-linejoin="round" stroke-linecap="round" d="M 9149,15172 L 9149,16052"/>
        <path fill="none" stroke="rgb(49,62,68)" stroke-width="0" stroke-linejoin="round" stroke-linecap="round" d="M 9114,15172 L 9114,16052"/>
        <path fill="none" stroke="rgb(49,62,68)" stroke-width="0" stroke-linejoin="round" stroke-linecap="round" d="M 9386,14599 L 9386,14756"/>
        <path fill="none" stroke="rgb(49,62,68)" stroke-width="0" stroke-linejoin="round" stroke-linecap="round" d="M 9349,14599 L 9349,14756"/>
        <path fill="none" stroke="rgb(49,62,68)" stroke-width="0" stroke-linejoin="round" stroke-linecap="round" d="M 9386,15172 L 9386,16052"/>
        <path fill="none" stroke="rgb(49,62,68)" stroke-width="0" stroke-linejoin="round" stroke-linecap="round" d="M 9349,15172 L 9349,16052"/>
        <path fill="none" stroke="rgb(49,62,68)" stroke-width="0" stroke-linejoin="round" stroke-linecap="round" d="M 9621,14599 L 9621,14756"/>
        <path fill="none" stroke="rgb(49,62,68)" stroke-width="0" stroke-linejoin="round" stroke-linecap="round" d="M 9586,14599 L 9586,14756"/>
        <path fill="none" stroke="rgb(49,62,68)" stroke-width="0" stroke-linejoin="round" stroke-linecap="round" d="M 9621,15172 L 9621,16052"/>
        <path fill="none" stroke="rgb(49,62,68)" stroke-width="0" stroke-linejoin="round" stroke-linecap="round" d="M 9586,15172 L 9586,16052"/>
        <path fill="rgb(30,34,38)" stroke="none" d="M 9349,16052 L 9386,15172 9349,15172 9349,16052 Z"/>
        <path fill="rgb(30,34,38)" stroke="none" d="M 9386,15172 L 9349,16052 9386,16052 9386,15172 Z"/>
        <path fill="rgb(30,34,38)" stroke="none" d="M 9149,16052 L 9149,15172 9114,15172 9149,16052 Z"/>
        <path fill="rgb(30,34,38)" stroke="none" d="M 9114,15172 L 9114,16052 9149,16052 9114,15172 Z"/>
        <path fill="rgb(30,34,38)" stroke="none" d="M 9621,15172 L 9586,16052 9621,16052 9621,15172 Z"/>
        <path fill="rgb(30,34,38)" stroke="none" d="M 9586,15172 L 9586,16052 9621,15172 9586,15172 Z"/>
        <path fill="rgb(30,34,38)" stroke="none" d="M 9349,14599 L 9349,14756 9386,14756 9349,14599 Z"/>
        <path fill="rgb(30,34,38)" stroke="none" d="M 9386,14599 L 9349,14599 9386,14756 9386,14599 Z"/>
        <path fill="rgb(30,34,38)" stroke="none" d="M 9149,14756 L 9149,14599 9114,14599 9149,14756 Z"/>
        <path fill="rgb(30,34,38)" stroke="none" d="M 9114,14599 L 9114,14756 9149,14756 9114,14599 Z"/>
        <path fill="rgb(30,34,38)" stroke="none" d="M 9586,14599 L 9586,14756 9621,14756 9586,14599 Z"/>
        <path fill="rgb(30,34,38)" stroke="none" d="M 9621,14599 L 9586,14599 9621,14756 9621,14599 Z"/>
        <path fill="rgb(30,34,38)" stroke="none" d="M 11945,15172 L 11945,16052 11982,16052 11945,15172 Z"/>
        <path fill="rgb(30,34,38)" stroke="none" d="M 11982,15172 L 11945,15172 11982,16052 11982,15172 Z"/>
        <path fill="rgb(30,34,38)" stroke="none" d="M 11745,16052 L 11745,15172 11710,15172 11745,16052 Z"/>
        <path fill="rgb(30,34,38)" stroke="none" d="M 11710,15172 L 11710,16052 11745,16052 11710,15172 Z"/>
        <path fill="rgb(30,34,38)" stroke="none" d="M 11509,15172 L 11473,16052 11509,16052 11509,15172 Z"/>
        <path fill="rgb(30,34,38)" stroke="none" d="M 11473,15172 L 11473,16052 11509,15172 11473,15172 Z"/>
        <path fill="rgb(30,34,38)" stroke="none" d="M 11509,14599 L 11473,14756 11509,14756 11509,14599 Z"/>
        <path fill="rgb(30,34,38)" stroke="none" d="M 11473,14599 L 11473,14756 11509,14599 11473,14599 Z"/>
        <path fill="rgb(30,34,38)" stroke="none" d="M 11982,14599 L 11945,14756 11982,14756 11982,14599 Z"/>
        <path fill="rgb(30,34,38)" stroke="none" d="M 11745,14599 L 11710,14756 11745,14756 11745,14599 Z"/>
        <path fill="rgb(30,34,38)" stroke="none" d="M 11945,14599 L 11945,14756 11982,14599 11945,14599 Z"/>
        <path fill="rgb(30,34,38)" stroke="none" d="M 11710,14599 L 11710,14756 11745,14599 11710,14599 Z"/>
        <path fill="rgb(30,34,38)" stroke="none" d="M 12653,15172 L 12653,16052 12690,16052 12653,15172 Z"/>
        <path fill="rgb(30,34,38)" stroke="none" d="M 12690,15172 L 12653,15172 12690,16052 12690,15172 Z"/>
        <path fill="rgb(30,34,38)" stroke="none" d="M 12217,15172 L 12182,16052 12217,16052 12217,15172 Z"/>
        <path fill="rgb(30,34,38)" stroke="none" d="M 12454,15172 L 12418,16052 12454,16052 12454,15172 Z"/>
        <path fill="rgb(30,34,38)" stroke="none" d="M 12418,15172 L 12418,16052 12454,15172 12418,15172 Z"/>
        <path fill="rgb(30,34,38)" stroke="none" d="M 12182,15172 L 12182,16052 12217,15172 12182,15172 Z"/>
        <path fill="rgb(30,34,38)" stroke="none" d="M 12690,14601 L 12653,14756 12690,14756 12690,14601 Z"/>
        <path fill="rgb(30,34,38)" stroke="none" d="M 12681,14599 L 12653,14756 12690,14601 12681,14599 Z"/>
        <path fill="rgb(30,34,38)" stroke="none" d="M 12418,14756 L 12454,14599 12418,14599 12418,14756 Z"/>
        <path fill="rgb(30,34,38)" stroke="none" d="M 12454,14599 L 12418,14756 12454,14756 12454,14599 Z"/>
        <path fill="rgb(30,34,38)" stroke="none" d="M 12217,14599 L 12182,14756 12217,14756 12217,14599 Z"/>
        <path fill="rgb(30,34,38)" stroke="none" d="M 12653,14599 L 12653,14756 12681,14599 12653,14599 Z"/>
        <path fill="rgb(30,34,38)" stroke="none" d="M 12671,14599 L 12653,14599 12681,14599 12671,14599 Z"/>
        <path fill="rgb(30,34,38)" stroke="none" d="M 12182,14599 L 12182,14756 12217,14599 12182,14599 Z"/>
        <path fill="none" stroke="rgb(49,62,68)" stroke-width="0" stroke-linejoin="round" stroke-linecap="round" d="M 8376,14756 L 8376,15172 10360,15172 10360,14756"/>
        <path fill="rgb(30,34,38)" stroke="none" d="M 8678,16052 L 8678,15172 8641,15172 8678,16052 Z"/>
        <path fill="rgb(30,34,38)" stroke="none" d="M 8641,15172 L 8641,16052 8678,16052 8641,15172 Z"/>
        <path fill="rgb(30,34,38)" stroke="none" d="M 8913,16052 L 8913,15172 8877,15172 8913,16052 Z"/>
        <path fill="rgb(30,34,38)" stroke="none" d="M 8877,15172 L 8877,16052 8913,16052 8877,15172 Z"/>
        <path fill="rgb(30,34,38)" stroke="none" d="M 8641,14599 L 8641,14756 8678,14756 8641,14599 Z"/>
        <path fill="rgb(30,34,38)" stroke="none" d="M 8678,14599 L 8641,14599 8678,14756 8678,14599 Z"/>
        <path fill="rgb(30,34,38)" stroke="none" d="M 8913,14756 L 8913,14599 8877,14599 8913,14756 Z"/>
        <path fill="rgb(30,34,38)" stroke="none" d="M 8877,14599 L 8877,14756 8913,14756 8877,14599 Z"/>
        <path fill="none" stroke="rgb(49,62,68)" stroke-width="0" stroke-linejoin="round" stroke-linecap="round" d="M 12722,14756 L 10736,14756 10736,15172 12722,15172 12722,14756 10736,14756"/>
        <path fill="rgb(30,34,38)" stroke="none" d="M 9822,16052 L 9857,15172 9822,15172 9822,16052 Z"/>
        <path fill="rgb(30,34,38)" stroke="none" d="M 9857,15172 L 9822,16052 9857,16052 9857,15172 Z"/>
        <path fill="rgb(30,34,38)" stroke="none" d="M 10094,15172 L 10057,16052 10094,16052 10094,15172 Z"/>
        <path fill="rgb(30,34,38)" stroke="none" d="M 10057,15172 L 10057,16052 10094,15172 10057,15172 Z"/>
        <path fill="rgb(30,34,38)" stroke="none" d="M 10329,15172 L 10294,16052 10329,16052 10329,15172 Z"/>
        <path fill="rgb(30,34,38)" stroke="none" d="M 10294,15172 L 10294,16052 10329,15172 10294,15172 Z"/>
        <path fill="rgb(30,34,38)" stroke="none" d="M 9857,14756 L 9857,14599 9822,14599 9857,14756 Z"/>
        <path fill="rgb(30,34,38)" stroke="none" d="M 9822,14599 L 9822,14756 9857,14756 9822,14599 Z"/>
        <path fill="rgb(30,34,38)" stroke="none" d="M 10057,14756 L 10094,14599 10057,14599 10057,14756 Z"/>
        <path fill="rgb(30,34,38)" stroke="none" d="M 10094,14599 L 10057,14756 10094,14756 10094,14599 Z"/>
        <path fill="rgb(30,34,38)" stroke="none" d="M 10329,14756 L 10329,14599 10294,14599 10329,14756 Z"/>
        <path fill="rgb(30,34,38)" stroke="none" d="M 10294,14599 L 10294,14756 10329,14756 10294,14599 Z"/>
        <path fill="rgb(30,34,38)" stroke="none" d="M 10800,16052 L 10800,15172 10765,15172 10800,16052 Z"/>
        <path fill="rgb(30,34,38)" stroke="none" d="M 10765,15172 L 10765,16052 10800,16052 10765,15172 Z"/>
        <path fill="rgb(30,34,38)" stroke="none" d="M 11037,15172 L 11002,16052 11037,16052 11037,15172 Z"/>
        <path fill="rgb(30,34,38)" stroke="none" d="M 11237,15172 L 11237,16052 11274,16052 11237,15172 Z"/>
        <path fill="rgb(30,34,38)" stroke="none" d="M 11002,15172 L 11002,16052 11037,15172 11002,15172 Z"/>
        <path fill="rgb(30,34,38)" stroke="none" d="M 11274,15172 L 11237,15172 11274,16052 11274,15172 Z"/>
        <path fill="rgb(30,34,38)" stroke="none" d="M 11037,14756 L 11037,14599 11002,14599 11037,14756 Z"/>
        <path fill="rgb(30,34,38)" stroke="none" d="M 11002,14599 L 11002,14756 11037,14756 11002,14599 Z"/>
        <path fill="rgb(30,34,38)" stroke="none" d="M 11274,14599 L 11237,14756 11274,14756 11274,14599 Z"/>
        <path fill="rgb(30,34,38)" stroke="none" d="M 10800,14756 L 10800,14599 10765,14599 10800,14756 Z"/>
        <path fill="rgb(30,34,38)" stroke="none" d="M 10765,14599 L 10765,14756 10800,14756 10765,14599 Z"/>
        <path fill="rgb(30,34,38)" stroke="none" d="M 11237,14599 L 11237,14756 11274,14599 11237,14599 Z"/>
        <path fill="rgb(30,34,38)" stroke="none" d="M 10547,15325 L 10566,14599 10529,14599 10547,15325 Z"/>
        <path fill="rgb(30,34,38)" stroke="none" d="M 10547,15325 L 10529,14599 10529,16052 10547,15325 Z"/>
        <path fill="rgb(30,34,38)" stroke="none" d="M 10547,15325 L 10529,16052 10566,16052 10547,15325 Z"/>
        <path fill="rgb(30,34,38)" stroke="none" d="M 10547,15325 L 10566,16052 10566,14599 10547,15325 Z"/>
        <path fill="rgb(215,67,51)" stroke="none" d="M 10554,13147 L 10590,13148 10626,13150 10661,13155 10695,13161 10729,13169 10762,13179 10795,13190 10826,13202 10857,13216 10888,13231 10917,13248 10946,13267 10973,13286 10999,13307 11025,13329 11049,13352 11072,13376 11094,13402 11115,13428 11135,13456 11153,13484 11170,13513 11185,13544 11199,13575 11212,13607 11223,13639 11232,13672 11240,13706 11246,13740 11251,13776 11254,13811 11254,13847 11254,13883 11251,13919 11246,13954 11240,13988 11232,14022 11223,14056 11212,14088 11199,14120 11185,14151 11170,14181 11153,14210 11135,14239 11115,14266 11094,14293 11072,14318 11049,14342 11025,14366 10999,14387 10973,14408 10946,14428 10917,14446 10888,14463 10857,14478 10826,14492 10795,14505 10762,14516 10729,14525 10695,14533 10661,14539 10626,14544 10590,14547 10554,14547 10518,14547 10482,14544 10447,14539 10413,14533 10379,14525 10346,14516 10313,14505 10281,14492 10250,14478 10220,14463 10191,14446 10163,14428 10135,14408 10108,14387 10083,14366 10059,14342 10036,14318 10014,14293 9993,14266 9973,14239 9955,14210 9938,14181 9923,14151 9909,14120 9896,14088 9885,14056 9876,14022 9868,13988 9862,13954 9857,13919 9855,13883 9854,13847 9855,13811 9857,13776 9862,13740 9868,13706 9876,13672 9885,13639 9896,13607 9909,13575 9923,13544 9938,13513 9955,13484 9973,13456 9993,13428 10014,13402 10036,13376 10059,13352 10083,13329 10108,13307 10135,13286 10163,13267 10191,13248 10220,13231 10250,13216 10281,13202 10313,13190 10346,13179 10379,13169 10413,13161 10447,13155 10482,13150 10518,13148 10554,13147 Z"/>
        <path fill="rgb(255,255,255)" stroke="none" d="M 10554,13380 L 10560,13380 10566,13380 10572,13381 10578,13381 10583,13381 10589,13382 10595,13382 10601,13383 10607,13383 10612,13384 10618,13385 10624,13386 10630,13386 10636,13388 10641,13389 10647,13389 10653,13391 10658,13392 10664,13393 10669,13395 10675,13396 10681,13398 10686,13399 10692,13401 10697,13403 10703,13404 10709,13406 10714,13409 10719,13410 10725,13413 10730,13415 10736,13417 10741,13419 10746,13422 10751,13424 10756,13426 10761,13429 10766,13431 10771,13434 10776,13437 10781,13439 10786,13442 10791,13445 10796,13448 10800,13451 10805,13454 10810,13457 10815,13460 10819,13463 10824,13466 10828,13469 10833,13473 10837,13476 10842,13480 10846,13483 10851,13487 10855,13490 10859,13494 10863,13498 10868,13501 10872,13505 10876,13509 10880,13513 10884,13517 10888,13521 10892,13525 10896,13529 10900,13534 10904,13538 10907,13542 10911,13547 10915,13551 10918,13555 10922,13559 10925,13564 10928,13568 10932,13573 10935,13577 10938,13582 10942,13587 10945,13591 10948,13596 10951,13601 10953,13605 10957,13610 10959,13615 10962,13620 10965,13625 10967,13630 10970,13635 10973,13640 10975,13645 10977,13650 10980,13655 10982,13660 10984,13666 10987,13671 10989,13676 10991,13682 10993,13687 10995,13693 10997,13698 10999,13704 11000,13710 11002,13715 11004,13720 11005,13726 11007,13732 11008,13737 11009,13743 11010,13749 11012,13754 11013,13760 11014,13766 11015,13771 11016,13777 11017,13783 11017,13789 11018,13795 11019,13800 11019,13806 11020,13812 11020,13818 11020,13824 11020,13829 11021,13835 11021,13841 11021,13847 11021,13853 11021,13859 11020,13865 11020,13871 11020,13877 11020,13883 11019,13888 11019,13894 11018,13900 11017,13906 11017,13912 11016,13917 11015,13923 11014,13929 11013,13934 11012,13940 11010,13946 11009,13952 11008,13957 11007,13963 11005,13968 11004,13974 11002,13979 11000,13985 10999,13991 10997,13996 10995,14002 10993,14007 10991,14013 10989,14018 10987,14023 10984,14029 10982,14034 10980,14039 10977,14045 10975,14050 10973,14055 10970,14060 10967,14065 10965,14070 10962,14075 10959,14079 10957,14084 10953,14089 10951,14094 10948,14098 10945,14103 10942,14108 10938,14112 10935,14117 10932,14122 10928,14126 10925,14131 10922,14135 10918,14139 10915,14144 10911,14148 10907,14152 10904,14157 10900,14161 10896,14165 10892,14169 10888,14173 10884,14177 10880,14181 10876,14185 10872,14189 10868,14193 10863,14197 10859,14201 10855,14204 10851,14208 10846,14211 10842,14215 10837,14218 10833,14222 10828,14225 10824,14228 10819,14232 10815,14235 10810,14238 10805,14241 10800,14244 10796,14247 10791,14250 10786,14253 10781,14255 10776,14258 10771,14260 10766,14263 10761,14266 10756,14268 10751,14270 10746,14273 10741,14275 10736,14277 10730,14280 10725,14282 10719,14284 10714,14286 10709,14288 10703,14290 10697,14292 10692,14294 10686,14295 10681,14297 10675,14298 10669,14300 10664,14301 10658,14302 10653,14304 10647,14305 10641,14306 10636,14307 10630,14308 10624,14309 10618,14310 10612,14310 10607,14311 10601,14312 10595,14312 10589,14313 10583,14313 10578,14314 10572,14314 10566,14314 10560,14314 10554,14314 10548,14314 10542,14314 10536,14314 10530,14314 10525,14313 10519,14313 10513,14312 10507,14312 10501,14311 10495,14310 10489,14310 10484,14309 10478,14308 10472,14307 10467,14306 10461,14305 10455,14304 10450,14302 10444,14301 10438,14300 10433,14298 10427,14297 10422,14295 10416,14294 10411,14292 10405,14290 10400,14288 10394,14286 10389,14284 10383,14282 10378,14280 10372,14277 10367,14275 10362,14273 10357,14270 10352,14268 10347,14266 10342,14263 10336,14260 10332,14258 10327,14255 10322,14253 10317,14250 10312,14247 10307,14244 10303,14241 10298,14238 10293,14235 10289,14232 10284,14228 10280,14225 10275,14222 10270,14218 10266,14215 10262,14211 10257,14208 10253,14204 10249,14201 10245,14197 10240,14193 10236,14189 10232,14185 10228,14181 10224,14177 10220,14173 10216,14169 10212,14165 10208,14161 10204,14157 10201,14152 10197,14148 10193,14144 10190,14139 10186,14135 10183,14131 10179,14126 10176,14122 10173,14117 10170,14112 10167,14108 10163,14103 10160,14098 10157,14094 10154,14089 10152,14084 10149,14079 10146,14075 10143,14070 10141,14065 10138,14060 10136,14055 10133,14050 10131,14045 10128,14039 10126,14034 10124,14029 10122,14023 10119,14018 10117,14013 10115,14007 10113,14002 10111,13996 10109,13991 10108,13985 10106,13979 10104,13974 10103,13968 10102,13963 10100,13957 10099,13952 10097,13946 10096,13940 10095,13934 10094,13929 10093,13923 10092,13917 10092,13912 10091,13906 10090,13900 10089,13894 10089,13888 10088,13883 10088,13877 10088,13871 10087,13865 10087,13859 10087,13853 10087,13847 10087,13841 10087,13835 10087,13829 10088,13824 10088,13818 10088,13812 10089,13806 10089,13800 10090,13795 10091,13789 10092,13783 10092,13777 10093,13771 10094,13766 10095,13760 10096,13754 10097,13749 10099,13743 10100,13737 10102,13732 10103,13726 10104,13720 10106,13715 10108,13710 10109,13704 10111,13698 10113,13693 10115,13687 10117,13682 10119,13676 10122,13671 10124,13666 10126,13660 10128,13655 10131,13650 10133,13645 10136,13640 10138,13635 10141,13630 10143,13625 10146,13620 10149,13615 10152,13610 10154,13605 10157,13601 10160,13596 10163,13591 10167,13587 10170,13582 10173,13577 10176,13573 10179,13568 10183,13564 10186,13559 10190,13555 10193,13551 10197,13547 10201,13542 10204,13538 10208,13534 10212,13529 10216,13525 10220,13521 10224,13517 10228,13513 10232,13509 10236,13505 10240,13501 10245,13498 10249,13494 10253,13490 10257,13487 10262,13483 10266,13480 10270,13476 10275,13473 10280,13469 10284,13466 10289,13463 10293,13460 10298,13457 10303,13454 10307,13451 10312,13448 10317,13445 10322,13442 10327,13439 10332,13437 10336,13434 10342,13431 10347,13429 10352,13426 10357,13424 10362,13422 10367,13419 10372,13417 10378,13415 10383,13413 10389,13410 10394,13409 10400,13406 10405,13404 10411,13403 10416,13401 10422,13399 10427,13398 10433,13396 10438,13395 10444,13393 10450,13392 10455,13391 10461,13389 10467,13389 10472,13388 10478,13386 10484,13386 10489,13385 10495,13384 10501,13383 10507,13383 10513,13382 10519,13382 10525,13381 10530,13381 10536,13381 10542,13380 10548,13380 10554,13380 Z"/>
       </g>
      </g>
     </g>
    </g>
   </g>
  </g>
 </g>
</svg>