<?xml version="1.0" encoding="UTF-8"?>
<!DOCTYPE svg PUBLIC "-//W3C//DTD SVG 1.1//EN" "http://www.w3.org/Graphics/SVG/1.1/DTD/svg11.dtd">
<svg version="1.2" width="50.03mm" height="41.52mm" viewBox="8046 12832 5003 4152" preserveAspectRatio="xMidYMid" fill-rule="evenodd" stroke-width="28.222" stroke-linejoin="round" xmlns="http://www.w3.org/2000/svg" xmlns:ooo="http://xml.openoffice.org/svg/export" xmlns:xlink="http://www.w3.org/1999/xlink" xmlns:presentation="http://sun.com/xmlns/staroffice/presentation" xmlns:smil="http://www.w3.org/2001/SMIL20/" xmlns:anim="urn:oasis:names:tc:opendocument:xmlns:animation:1.0" xml:space="preserve">
 <defs class="ClipPathGroup">
  <clipPath id="presentation_clip_path" clipPathUnits="userSpaceOnUse">
   <rect x="8046" y="12832" width="5003" height="4152"/>
  </clipPath>
  <clipPath id="presentation_clip_path_shrink" clipPathUnits="userSpaceOnUse">
   <rect x="8051" y="12836" width="4993" height="4144"/>
  </clipPath>
 </defs>
 <defs class="TextShapeIndex">
  <g ooo:slide="id1" ooo:id-list="id3"/>
 </defs>
 <defs class="EmbeddedBulletChars">
  <g id="bullet-char-template-57356" transform="scale(0.00048828125,-0.00048828125)">
   <path d="M 580,1141 L 1163,571 580,0 -4,571 580,1141 Z"/>
  </g>
  <g id="bullet-char-template-57354" transform="scale(0.00048828125,-0.00048828125)">
   <path d="M 8,1128 L 1137,1128 1137,0 8,0 8,1128 Z"/>
  </g>
  <g id="bullet-char-template-10146" transform="scale(0.00048828125,-0.00048828125)">
   <path d="M 174,0 L 602,739 174,1481 1456,739 174,0 Z M 1358,739 L 309,1346 659,739 1358,739 Z"/>
  </g>
  <g id="bullet-char-template-10132" transform="scale(0.00048828125,-0.00048828125)">
   <path d="M 2015,739 L 1276,0 717,0 1260,543 174,543 174,936 1260,936 717,1481 1274,1481 2015,739 Z"/>
  </g>
  <g id="bullet-char-template-10007" transform="scale(0.00048828125,-0.00048828125)">
   <path d="M 0,-2 C -7,14 -16,27 -25,37 L 356,567 C 262,823 215,952 215,954 215,979 228,992 255,992 264,992 276,990 289,987 310,991 331,999 354,1012 L 381,999 492,748 772,1049 836,1024 860,1049 C 881,1039 901,1025 922,1006 886,937 835,863 770,784 769,783 710,716 594,584 L 774,223 C 774,196 753,168 711,139 L 727,119 C 717,90 699,76 672,76 641,76 570,178 457,381 L 164,-76 C 142,-110 111,-127 72,-127 30,-127 9,-110 8,-76 1,-67 -2,-52 -2,-32 -2,-23 -1,-13 0,-2 Z"/>
  </g>
  <g id="bullet-char-template-10004" transform="scale(0.00048828125,-0.00048828125)">
   <path d="M 285,-33 C 182,-33 111,30 74,156 52,228 41,333 41,471 41,549 55,616 82,672 116,743 169,778 240,778 293,778 328,747 346,684 L 369,508 C 377,444 397,411 428,410 L 1163,1116 C 1174,1127 1196,1133 1229,1133 1271,1133 1292,1118 1292,1087 L 1292,965 C 1292,929 1282,901 1262,881 L 442,47 C 390,-6 338,-33 285,-33 Z"/>
  </g>
  <g id="bullet-char-template-9679" transform="scale(0.00048828125,-0.00048828125)">
   <path d="M 813,0 C 632,0 489,54 383,161 276,268 223,411 223,592 223,773 276,916 383,1023 489,1130 632,1184 813,1184 992,1184 1136,1130 1245,1023 1353,916 1407,772 1407,592 1407,412 1353,268 1245,161 1136,54 992,0 813,0 Z"/>
  </g>
  <g id="bullet-char-template-8226" transform="scale(0.00048828125,-0.00048828125)">
   <path d="M 346,457 C 273,457 209,483 155,535 101,586 74,649 74,723 74,796 101,859 155,911 209,963 273,989 346,989 419,989 480,963 531,910 582,859 608,796 608,723 608,648 583,586 532,535 482,483 420,457 346,457 Z"/>
  </g>
  <g id="bullet-char-template-8211" transform="scale(0.00048828125,-0.00048828125)">
   <path d="M -4,459 L 1135,459 1135,606 -4,606 -4,459 Z"/>
  </g>
  <g id="bullet-char-template-61548" transform="scale(0.00048828125,-0.00048828125)">
   <path d="M 173,740 C 173,903 231,1043 346,1159 462,1274 601,1332 765,1332 928,1332 1067,1274 1183,1159 1299,1043 1357,903 1357,740 1357,577 1299,437 1183,322 1067,206 928,148 765,148 601,148 462,206 346,322 231,437 173,577 173,740 Z"/>
  </g>
 </defs>
 <defs class="TextEmbeddedBitmaps"/>
 <g class="SlideGroup">
  <g>
   <g id="container-id1">
    <g id="id1" class="Slide" clip-path="url(#presentation_clip_path)">
     <g class="Page">
      <g class="Graphic">
       <g id="id3">
        <rect class="BoundingBox" stroke="none" fill="none" x="8046" y="12832" width="5004" height="4153"/>
        <path fill="rgb(255,255,255)" stroke="none" d="M 12431,15490 L 10772,15490 10772,15071 12431,15071 12431,15490 Z"/>
        <path fill="rgb(255,255,255)" stroke="none" d="M 10239,15490 L 8579,15490 8579,15069 10239,15069 10239,15490 Z"/>
        <path fill="none" stroke="rgb(51,78,88)" stroke-width="0" stroke-linejoin="round" stroke-linecap="round" d="M 13046,16386 L 13046,15255"/>
        <path fill="none" stroke="rgb(51,78,88)" stroke-width="0" stroke-linejoin="round" stroke-linecap="round" d="M 12673,14879 L 12724,14883 12778,14894 12828,14913 12874,14939 12916,14972 12956,15009 12987,15051 13013,15100 13032,15150 13042,15201 13046,15255"/>
        <path fill="none" stroke="rgb(51,78,88)" stroke-width="0" stroke-linejoin="round" stroke-linecap="round" d="M 12673,14879 L 8425,14879"/>
        <path fill="none" stroke="rgb(51,78,88)" stroke-width="0" stroke-linejoin="round" stroke-linecap="round" d="M 8050,15255 L 8054,15201 8064,15150 8085,15100 8109,15051 8142,15009 8179,14972 8222,14939 8270,14913 8320,14894 8372,14883 8425,14879"/>
        <path fill="none" stroke="rgb(51,78,88)" stroke-width="0" stroke-linejoin="round" stroke-linecap="round" d="M 8050,15255 L 8050,16386"/>
        <path fill="none" stroke="rgb(51,78,88)" stroke-width="0" stroke-linejoin="round" stroke-linecap="round" d="M 8087,16386 L 8087,16981"/>
        <path fill="none" stroke="rgb(51,78,88)" stroke-width="0" stroke-linejoin="round" stroke-linecap="round" d="M 8050,16386 L 8050,16981"/>
        <path fill="none" stroke="rgb(51,78,88)" stroke-width="0" stroke-linejoin="round" stroke-linecap="round" d="M 8087,16386 L 8087,15255 8089,15207 8100,15159 8116,15114 8140,15072 8168,15033 8203,14998 8242,14968 8285,14946 8329,14929 8377,14918 8425,14915 12673,14915 12721,14918 12767,14929 12813,14946 12855,14968 12895,14998 12928,15033 12957,15072 12982,15114 12998,15159 13007,15207 13011,15255"/>
        <path fill="none" stroke="rgb(51,78,88)" stroke-width="0" stroke-linejoin="round" stroke-linecap="round" d="M 8087,16405 L 13011,16405"/>
        <path fill="none" stroke="rgb(51,78,88)" stroke-width="0" stroke-linejoin="round" stroke-linecap="round" d="M 8087,16368 L 13011,16368"/>
        <path fill="none" stroke="rgb(51,78,88)" stroke-width="0" stroke-linejoin="round" stroke-linecap="round" d="M 13046,16386 L 13046,16981"/>
        <path fill="none" stroke="rgb(51,78,88)" stroke-width="0" stroke-linejoin="round" stroke-linecap="round" d="M 13011,16981 L 13011,16386 13011,15255"/>
        <path fill="none" stroke="rgb(51,78,88)" stroke-width="0" stroke-linejoin="round" stroke-linecap="round" d="M 12654,14915 L 12654,16368"/>
        <path fill="none" stroke="rgb(51,78,88)" stroke-width="0" stroke-linejoin="round" stroke-linecap="round" d="M 12418,14915 L 12418,16368"/>
        <path fill="none" stroke="rgb(51,78,88)" stroke-width="0" stroke-linejoin="round" stroke-linecap="round" d="M 12455,14915 L 12455,16368"/>
        <path fill="none" stroke="rgb(51,78,88)" stroke-width="0" stroke-linejoin="round" stroke-linecap="round" d="M 12183,14915 L 12183,16368"/>
        <path fill="none" stroke="rgb(51,78,88)" stroke-width="0" stroke-linejoin="round" stroke-linecap="round" d="M 12218,14915 L 12218,16368"/>
        <path fill="none" stroke="rgb(51,78,88)" stroke-width="0" stroke-linejoin="round" stroke-linecap="round" d="M 11239,14915 L 11239,16368"/>
        <path fill="none" stroke="rgb(51,78,88)" stroke-width="0" stroke-linejoin="round" stroke-linecap="round" d="M 11274,14915 L 11274,16368"/>
        <path fill="none" stroke="rgb(51,78,88)" stroke-width="0" stroke-linejoin="round" stroke-linecap="round" d="M 11002,14915 L 11002,16368"/>
        <path fill="none" stroke="rgb(51,78,88)" stroke-width="0" stroke-linejoin="round" stroke-linecap="round" d="M 11039,14915 L 11039,16368"/>
        <path fill="none" stroke="rgb(51,78,88)" stroke-width="0" stroke-linejoin="round" stroke-linecap="round" d="M 10767,14915 L 10767,16368"/>
        <path fill="none" stroke="rgb(51,78,88)" stroke-width="0" stroke-linejoin="round" stroke-linecap="round" d="M 10802,14915 L 10802,16368"/>
        <path fill="none" stroke="rgb(51,78,88)" stroke-width="0" stroke-linejoin="round" stroke-linecap="round" d="M 10530,14915 L 10530,16368"/>
        <path fill="none" stroke="rgb(51,78,88)" stroke-width="0" stroke-linejoin="round" stroke-linecap="round" d="M 10567,14915 L 10567,16368"/>
        <path fill="none" stroke="rgb(51,78,88)" stroke-width="0" stroke-linejoin="round" stroke-linecap="round" d="M 10296,14915 L 10296,16368"/>
        <path fill="none" stroke="rgb(51,78,88)" stroke-width="0" stroke-linejoin="round" stroke-linecap="round" d="M 10331,14915 L 10331,16368"/>
        <path fill="none" stroke="rgb(51,78,88)" stroke-width="0" stroke-linejoin="round" stroke-linecap="round" d="M 10059,14915 L 10059,16368"/>
        <path fill="none" stroke="rgb(51,78,88)" stroke-width="0" stroke-linejoin="round" stroke-linecap="round" d="M 10094,14915 L 10094,16368"/>
        <path fill="none" stroke="rgb(51,78,88)" stroke-width="0" stroke-linejoin="round" stroke-linecap="round" d="M 9822,14915 L 9822,16368"/>
        <path fill="none" stroke="rgb(51,78,88)" stroke-width="0" stroke-linejoin="round" stroke-linecap="round" d="M 9859,14915 L 9859,16368"/>
        <path fill="none" stroke="rgb(51,78,88)" stroke-width="0" stroke-linejoin="round" stroke-linecap="round" d="M 9588,14915 L 9588,15072"/>
        <path fill="none" stroke="rgb(51,78,88)" stroke-width="0" stroke-linejoin="round" stroke-linecap="round" d="M 9623,14915 L 9623,15072"/>
        <path fill="none" stroke="rgb(51,78,88)" stroke-width="0" stroke-linejoin="round" stroke-linecap="round" d="M 8880,14915 L 8880,16368"/>
        <path fill="none" stroke="rgb(51,78,88)" stroke-width="0" stroke-linejoin="round" stroke-linecap="round" d="M 8915,14915 L 8915,16368"/>
        <path fill="none" stroke="rgb(51,78,88)" stroke-width="0" stroke-linejoin="round" stroke-linecap="round" d="M 8643,14915 L 8643,16368"/>
        <path fill="none" stroke="rgb(51,78,88)" stroke-width="0" stroke-linejoin="round" stroke-linecap="round" d="M 8678,14915 L 8678,16368"/>
        <path fill="none" stroke="rgb(51,78,88)" stroke-width="0" stroke-linejoin="round" stroke-linecap="round" d="M 8407,14915 L 8407,16368"/>
        <path fill="none" stroke="rgb(51,78,88)" stroke-width="0" stroke-linejoin="round" stroke-linecap="round" d="M 8444,14915 L 8444,16368"/>
        <path fill="none" stroke="rgb(51,78,88)" stroke-width="0" stroke-linejoin="round" stroke-linecap="round" d="M 8050,16981 L 8087,16981"/>
        <path fill="none" stroke="rgb(51,78,88)" stroke-width="0" stroke-linejoin="round" stroke-linecap="round" d="M 13011,16981 L 13046,16981"/>
        <path fill="rgb(38,46,52)" stroke="none" d="M 8050,16386 L 8087,16981 8050,16981 8050,16386 Z"/>
        <path fill="rgb(38,46,52)" stroke="none" d="M 13011,16386 L 13046,16981 13011,16981 13011,16386 Z"/>
        <path fill="rgb(38,46,52)" stroke="none" d="M 8087,16386 L 8087,16981 8050,16386 8087,16386 Z"/>
        <path fill="rgb(38,46,52)" stroke="none" d="M 13046,16386 L 13046,16981 13011,16386 13046,16386 Z"/>
        <path fill="rgb(38,46,52)" stroke="none" d="M 13011,15255 L 13046,16386 13011,16386 13011,15255 Z"/>
        <path fill="rgb(38,46,52)" stroke="none" d="M 8050,15255 L 8087,16386 8050,16386 8050,15255 Z"/>
        <path fill="rgb(38,46,52)" stroke="none" d="M 13046,15255 L 13046,16386 13011,15255 13046,15255 Z"/>
        <path fill="rgb(38,46,52)" stroke="none" d="M 8087,15255 L 8087,16386 8050,15255 8087,15255 Z"/>
        <path fill="rgb(38,46,52)" stroke="none" d="M 13007,15207 L 13046,15255 13011,15255 13007,15207 Z"/>
        <path fill="rgb(38,46,52)" stroke="none" d="M 8089,15207 L 8087,15255 8050,15255 8089,15207 Z"/>
        <path fill="rgb(38,46,52)" stroke="none" d="M 8054,15201 L 8089,15207 8050,15255 8054,15201 Z"/>
        <path fill="rgb(38,46,52)" stroke="none" d="M 13042,15201 L 13046,15255 13007,15207 13042,15201 Z"/>
        <path fill="rgb(38,46,52)" stroke="none" d="M 8100,15159 L 8089,15207 8054,15201 8100,15159 Z"/>
        <path fill="rgb(38,46,52)" stroke="none" d="M 12998,15159 L 13042,15201 13007,15207 12998,15159 Z"/>
        <path fill="rgb(38,46,52)" stroke="none" d="M 8064,15150 L 8100,15159 8054,15201 8064,15150 Z"/>
        <path fill="rgb(38,46,52)" stroke="none" d="M 13032,15150 L 13042,15201 12998,15159 13032,15150 Z"/>
        <path fill="rgb(38,46,52)" stroke="none" d="M 12982,15114 L 13032,15150 12998,15159 12982,15114 Z"/>
        <path fill="rgb(38,46,52)" stroke="none" d="M 8116,15114 L 8100,15159 8064,15150 8116,15114 Z"/>
        <path fill="rgb(38,46,52)" stroke="none" d="M 8085,15100 L 8116,15114 8064,15150 8085,15100 Z"/>
        <path fill="rgb(38,46,52)" stroke="none" d="M 13013,15100 L 13032,15150 12982,15114 13013,15100 Z"/>
        <path fill="rgb(38,46,52)" stroke="none" d="M 12957,15072 L 13013,15100 12982,15114 12957,15072 Z"/>
        <path fill="rgb(38,46,52)" stroke="none" d="M 8140,15072 L 8116,15114 8085,15100 8140,15072 Z"/>
        <path fill="rgb(38,46,52)" stroke="none" d="M 8109,15051 L 8140,15072 8085,15100 8109,15051 Z"/>
        <path fill="rgb(38,46,52)" stroke="none" d="M 12987,15051 L 13013,15100 12957,15072 12987,15051 Z"/>
        <path fill="rgb(38,46,52)" stroke="none" d="M 8168,15033 L 8140,15072 8109,15051 8168,15033 Z"/>
        <path fill="rgb(38,46,52)" stroke="none" d="M 12928,15033 L 12987,15051 12957,15072 12928,15033 Z"/>
        <path fill="rgb(38,46,52)" stroke="none" d="M 8142,15009 L 8168,15033 8109,15051 8142,15009 8142,15009 Z"/>
        <path fill="rgb(38,46,52)" stroke="none" d="M 12956,15009 L 12987,15051 12928,15033 12956,15009 Z"/>
        <path fill="rgb(38,46,52)" stroke="none" d="M 8203,14998 L 8168,15033 8142,15009 8203,14998 Z"/>
        <path fill="rgb(38,46,52)" stroke="none" d="M 12895,14998 L 12956,15009 12928,15033 12895,14998 Z"/>
        <path fill="rgb(38,46,52)" stroke="none" d="M 8179,14972 L 8203,14998 8142,15009 8179,14972 Z"/>
        <path fill="rgb(38,46,52)" stroke="none" d="M 12916,14972 L 12956,15009 12895,14998 12916,14972 Z"/>
        <path fill="rgb(38,46,52)" stroke="none" d="M 8242,14968 L 8203,14998 8179,14972 8242,14968 Z"/>
        <path fill="rgb(38,46,52)" stroke="none" d="M 12855,14968 L 12916,14972 12895,14998 12855,14968 Z"/>
        <path fill="rgb(38,46,52)" stroke="none" d="M 8285,14946 L 8242,14968 8179,14972 8285,14946 Z"/>
        <path fill="rgb(38,46,52)" stroke="none" d="M 12813,14946 L 12916,14972 12855,14968 12813,14946 Z"/>
        <path fill="rgb(38,46,52)" stroke="none" d="M 8222,14939 L 8285,14946 8179,14972 8222,14939 Z"/>
        <path fill="rgb(38,46,52)" stroke="none" d="M 12874,14939 L 12916,14972 12813,14946 12874,14939 Z"/>
        <path fill="rgb(38,46,52)" stroke="none" d="M 12767,14929 L 12874,14939 12813,14946 12767,14929 Z"/>
        <path fill="rgb(38,46,52)" stroke="none" d="M 8329,14929 L 8285,14946 8222,14939 8329,14929 Z"/>
        <path fill="rgb(38,46,52)" stroke="none" d="M 12721,14918 L 12874,14939 12767,14929 12721,14918 Z"/>
        <path fill="rgb(38,46,52)" stroke="none" d="M 8377,14918 L 8329,14929 8222,14939 8377,14918 Z"/>
        <path fill="rgb(38,46,52)" stroke="none" d="M 8270,14913 L 12673,14915 8425,14915 8270,14913 Z"/>
        <path fill="rgb(38,46,52)" stroke="none" d="M 8270,14913 L 8425,14915 8377,14918 8270,14913 Z"/>
        <path fill="rgb(38,46,52)" stroke="none" d="M 8270,14913 L 8377,14918 8222,14939 8270,14913 Z"/>
        <path fill="rgb(38,46,52)" stroke="none" d="M 12828,14913 L 12673,14915 8270,14913 12828,14913 Z"/>
        <path fill="rgb(38,46,52)" stroke="none" d="M 12828,14913 L 12721,14918 12673,14915 12828,14913 Z"/>
        <path fill="rgb(38,46,52)" stroke="none" d="M 12828,14913 L 12874,14939 12721,14918 12828,14913 Z"/>
        <path fill="rgb(38,46,52)" stroke="none" d="M 8320,14894 L 12828,14913 8270,14913 8320,14894 Z"/>
        <path fill="rgb(38,46,52)" stroke="none" d="M 12778,14894 L 12828,14913 8320,14894 12778,14894 Z"/>
        <path fill="rgb(38,46,52)" stroke="none" d="M 8372,14883 L 12778,14894 8320,14894 8372,14883 Z"/>
        <path fill="rgb(38,46,52)" stroke="none" d="M 12724,14883 L 12778,14894 8372,14883 12724,14883 Z"/>
        <path fill="rgb(38,46,52)" stroke="none" d="M 12724,14883 L 8425,14879 12673,14879 12724,14883 Z"/>
        <path fill="rgb(38,46,52)" stroke="none" d="M 8425,14879 L 12724,14883 8372,14883 8425,14879 Z"/>
        <path fill="rgb(38,46,52)" stroke="none" d="M 8087,16386 L 13011,16405 8087,16405 8087,16386 Z"/>
        <path fill="rgb(38,46,52)" stroke="none" d="M 13011,16386 L 13011,16405 8087,16386 13011,16386 Z"/>
        <path fill="rgb(38,46,52)" stroke="none" d="M 12654,16368 L 13011,16386 8087,16386 12654,16368 Z"/>
        <path fill="rgb(38,46,52)" stroke="none" d="M 10530,16368 L 12654,16368 8087,16386 10530,16368 Z"/>
        <path fill="rgb(38,46,52)" stroke="none" d="M 11710,16368 L 12654,16368 10530,16368 11710,16368 Z"/>
        <path fill="rgb(38,46,52)" stroke="none" d="M 12183,16368 L 12654,16368 11710,16368 12183,16368 Z"/>
        <path fill="rgb(38,46,52)" stroke="none" d="M 8407,16368 L 10530,16368 8087,16386 8407,16368 Z"/>
        <path fill="rgb(38,46,52)" stroke="none" d="M 10567,16368 L 11710,16368 10530,16368 10567,16368 Z"/>
        <path fill="rgb(38,46,52)" stroke="none" d="M 8444,16368 L 10530,16368 8407,16368 8444,16368 Z"/>
        <path fill="rgb(38,46,52)" stroke="none" d="M 11747,16368 L 12183,16368 11710,16368 11747,16368 Z"/>
        <path fill="rgb(38,46,52)" stroke="none" d="M 12218,16368 L 12654,16368 12183,16368 12218,16368 Z"/>
        <path fill="rgb(38,46,52)" stroke="none" d="M 12689,16368 L 13011,16386 12654,16368 12689,16368 Z"/>
        <path fill="rgb(38,46,52)" stroke="none" d="M 11946,16368 L 12183,16368 11747,16368 11946,16368 Z"/>
        <path fill="rgb(38,46,52)" stroke="none" d="M 12183,16368 L 11946,16368 11982,16368 12183,16368 Z"/>
        <path fill="rgb(38,46,52)" stroke="none" d="M 9623,16368 L 10530,16368 8444,16368 9623,16368 Z"/>
        <path fill="rgb(38,46,52)" stroke="none" d="M 10059,16368 L 10530,16368 9623,16368 10059,16368 Z"/>
        <path fill="rgb(38,46,52)" stroke="none" d="M 10530,16368 L 10059,16368 10094,16368 10530,16368 Z"/>
        <path fill="rgb(38,46,52)" stroke="none" d="M 8915,16368 L 9623,16368 8444,16368 8915,16368 Z"/>
        <path fill="rgb(38,46,52)" stroke="none" d="M 11475,16368 L 11710,16368 10567,16368 11475,16368 Z"/>
        <path fill="rgb(38,46,52)" stroke="none" d="M 11710,16368 L 11475,16368 11510,16368 11710,16368 Z"/>
        <path fill="rgb(38,46,52)" stroke="none" d="M 9351,16368 L 9623,16368 8915,16368 9351,16368 Z"/>
        <path fill="rgb(38,46,52)" stroke="none" d="M 9623,16368 L 9351,16368 9386,16368 9623,16368 Z"/>
        <path fill="rgb(38,46,52)" stroke="none" d="M 11039,16368 L 11475,16368 10567,16368 11039,16368 Z"/>
        <path fill="rgb(38,46,52)" stroke="none" d="M 8087,16368 L 8407,16368 8087,16386 8087,16368 Z"/>
        <path fill="rgb(38,46,52)" stroke="none" d="M 8880,16368 L 8915,16368 8444,16368 8880,16368 Z"/>
        <path fill="rgb(38,46,52)" stroke="none" d="M 9588,16368 L 9623,16368 9386,16368 9588,16368 Z"/>
        <path fill="rgb(38,46,52)" stroke="none" d="M 11002,16368 L 11039,16368 10567,16368 11002,16368 Z"/>
        <path fill="rgb(38,46,52)" stroke="none" d="M 8678,16368 L 8880,16368 8444,16368 8678,16368 Z"/>
        <path fill="rgb(38,46,52)" stroke="none" d="M 8444,16368 L 8643,16368 8678,16368 8444,16368 Z"/>
        <path fill="rgb(38,46,52)" stroke="none" d="M 12418,16368 L 12654,16368 12218,16368 12418,16368 Z"/>
        <path fill="rgb(38,46,52)" stroke="none" d="M 12654,16368 L 12418,16368 12455,16368 12654,16368 Z"/>
        <path fill="rgb(38,46,52)" stroke="none" d="M 9152,16368 L 9351,16368 8915,16368 9152,16368 Z"/>
        <path fill="rgb(38,46,52)" stroke="none" d="M 8915,16368 L 9114,16368 9152,16368 8915,16368 Z"/>
        <path fill="rgb(38,46,52)" stroke="none" d="M 10802,16368 L 11002,16368 10567,16368 10802,16368 Z"/>
        <path fill="rgb(38,46,52)" stroke="none" d="M 10567,16368 L 10767,16368 10802,16368 10567,16368 Z"/>
        <path fill="rgb(38,46,52)" stroke="none" d="M 9859,16368 L 10059,16368 9623,16368 9859,16368 Z"/>
        <path fill="rgb(38,46,52)" stroke="none" d="M 9623,16368 L 9822,16368 9859,16368 9623,16368 Z"/>
        <path fill="rgb(38,46,52)" stroke="none" d="M 10296,16368 L 10530,16368 10094,16368 10296,16368 Z"/>
        <path fill="rgb(38,46,52)" stroke="none" d="M 10530,16368 L 10296,16368 10331,16368 10530,16368 Z"/>
        <path fill="rgb(38,46,52)" stroke="none" d="M 11274,16368 L 11475,16368 11039,16368 11274,16368 Z"/>
        <path fill="rgb(38,46,52)" stroke="none" d="M 13011,16368 L 13011,16386 12689,16368 13011,16368 Z"/>
        <path fill="rgb(38,46,52)" stroke="none" d="M 12654,14915 L 12673,14915 12654,16368 12654,14915 Z"/>
        <path fill="rgb(38,46,52)" stroke="none" d="M 12680,14915 L 12654,16368 12673,14915 12680,14915 Z"/>
        <path fill="rgb(38,46,52)" stroke="none" d="M 12654,16368 L 12680,14915 12689,16368 12654,16368 Z"/>
        <path fill="rgb(38,46,52)" stroke="none" d="M 12689,14917 L 12689,16368 12680,14915 12689,14917 Z"/>
        <path fill="none" stroke="rgb(51,78,88)" stroke-width="0" stroke-linejoin="round" stroke-linecap="round" d="M 12689,14915 L 12689,16368"/>
        <path fill="none" stroke="rgb(51,78,88)" stroke-width="0" stroke-linejoin="round" stroke-linecap="round" d="M 10736,15072 L 12719,15072"/>
        <path fill="none" stroke="rgb(51,78,88)" stroke-width="0" stroke-linejoin="round" stroke-linecap="round" d="M 11397,15072 L 11397,15070"/>
        <path fill="none" stroke="rgb(51,78,88)" stroke-width="0" stroke-linejoin="round" stroke-linecap="round" d="M 12057,15072 L 12057,15488"/>
        <path fill="none" stroke="rgb(51,78,88)" stroke-width="0" stroke-linejoin="round" stroke-linecap="round" d="M 11397,15072 L 11397,15488"/>
        <path fill="rgb(213,51,42)" stroke="none" d="M 12388,15279 L 12057,15072 12719,15072 12388,15279 Z"/>
        <path fill="rgb(213,51,42)" stroke="none" d="M 12388,15279 L 12719,15072 12719,15488 12388,15279 Z"/>
        <path fill="rgb(213,51,42)" stroke="none" d="M 12388,15279 L 12719,15488 12057,15488 12388,15279 Z"/>
        <path fill="rgb(213,51,42)" stroke="none" d="M 12388,15279 L 12057,15488 12057,15072 12388,15279 Z"/>
        <path fill="rgb(213,51,42)" stroke="none" d="M 11066,15279 L 10736,15072 11397,15072 11066,15279 Z"/>
        <path fill="rgb(213,51,42)" stroke="none" d="M 11066,15279 L 11397,15072 11397,15488 11066,15279 Z"/>
        <path fill="rgb(213,51,42)" stroke="none" d="M 11066,15279 L 11397,15488 10736,15488 11066,15279 Z"/>
        <path fill="rgb(213,51,42)" stroke="none" d="M 11066,15279 L 10736,15488 10736,15072 11066,15279 Z"/>
        <path fill="none" stroke="rgb(51,78,88)" stroke-width="0" stroke-linejoin="round" stroke-linecap="round" d="M 12719,15072 L 10736,15072"/>
        <path fill="none" stroke="rgb(51,78,88)" stroke-width="0" stroke-linejoin="round" stroke-linecap="round" d="M 9037,15072 L 9037,15070"/>
        <path fill="none" stroke="rgb(51,78,88)" stroke-width="0" stroke-linejoin="round" stroke-linecap="round" d="M 9699,15072 L 9699,15488"/>
        <path fill="none" stroke="rgb(51,78,88)" stroke-width="0" stroke-linejoin="round" stroke-linecap="round" d="M 9037,15072 L 9037,15488"/>
        <path fill="rgb(213,51,42)" stroke="none" d="M 10029,15279 L 9699,15072 10360,15072 10029,15279 Z"/>
        <path fill="rgb(213,51,42)" stroke="none" d="M 10029,15279 L 10360,15072 10360,15488 10029,15279 Z"/>
        <path fill="rgb(213,51,42)" stroke="none" d="M 10029,15279 L 10360,15488 9699,15488 10029,15279 Z"/>
        <path fill="rgb(213,51,42)" stroke="none" d="M 10029,15279 L 9699,15488 9699,15072 10029,15279 Z"/>
        <path fill="rgb(213,51,42)" stroke="none" d="M 8706,15279 L 8375,15072 9037,15072 8706,15279 Z"/>
        <path fill="rgb(213,51,42)" stroke="none" d="M 8706,15279 L 9037,15072 9037,15488 8706,15279 Z"/>
        <path fill="rgb(213,51,42)" stroke="none" d="M 8706,15279 L 9037,15488 8375,15488 8706,15279 8706,15279 Z"/>
        <path fill="rgb(213,51,42)" stroke="none" d="M 8706,15279 L 8375,15488 8375,15072 8706,15279 Z"/>
        <path fill="none" stroke="rgb(51,78,88)" stroke-width="0" stroke-linejoin="round" stroke-linecap="round" d="M 9588,15488 L 9588,16368"/>
        <path fill="none" stroke="rgb(51,78,88)" stroke-width="0" stroke-linejoin="round" stroke-linecap="round" d="M 9623,15488 L 9623,16368"/>
        <path fill="none" stroke="rgb(51,78,88)" stroke-width="0" stroke-linejoin="round" stroke-linecap="round" d="M 9351,14915 L 9351,15072"/>
        <path fill="none" stroke="rgb(51,78,88)" stroke-width="0" stroke-linejoin="round" stroke-linecap="round" d="M 9386,14915 L 9386,15072"/>
        <path fill="none" stroke="rgb(51,78,88)" stroke-width="0" stroke-linejoin="round" stroke-linecap="round" d="M 9351,15488 L 9351,16368"/>
        <path fill="none" stroke="rgb(51,78,88)" stroke-width="0" stroke-linejoin="round" stroke-linecap="round" d="M 9386,15488 L 9386,16368"/>
        <path fill="none" stroke="rgb(51,78,88)" stroke-width="0" stroke-linejoin="round" stroke-linecap="round" d="M 9114,14915 L 9114,15072"/>
        <path fill="none" stroke="rgb(51,78,88)" stroke-width="0" stroke-linejoin="round" stroke-linecap="round" d="M 9152,14915 L 9152,15072"/>
        <path fill="none" stroke="rgb(51,78,88)" stroke-width="0" stroke-linejoin="round" stroke-linecap="round" d="M 9114,15488 L 9114,16368"/>
        <path fill="none" stroke="rgb(51,78,88)" stroke-width="0" stroke-linejoin="round" stroke-linecap="round" d="M 9152,15488 L 9152,16368"/>
        <path fill="none" stroke="rgb(51,78,88)" stroke-width="0" stroke-linejoin="round" stroke-linecap="round" d="M 11946,14915 L 11946,15072"/>
        <path fill="none" stroke="rgb(51,78,88)" stroke-width="0" stroke-linejoin="round" stroke-linecap="round" d="M 11982,14915 L 11982,15072"/>
        <path fill="none" stroke="rgb(51,78,88)" stroke-width="0" stroke-linejoin="round" stroke-linecap="round" d="M 11946,15488 L 11946,16368"/>
        <path fill="none" stroke="rgb(51,78,88)" stroke-width="0" stroke-linejoin="round" stroke-linecap="round" d="M 11982,15488 L 11982,16368"/>
        <path fill="none" stroke="rgb(51,78,88)" stroke-width="0" stroke-linejoin="round" stroke-linecap="round" d="M 11710,14915 L 11710,15072"/>
        <path fill="none" stroke="rgb(51,78,88)" stroke-width="0" stroke-linejoin="round" stroke-linecap="round" d="M 11747,14915 L 11747,15072"/>
        <path fill="none" stroke="rgb(51,78,88)" stroke-width="0" stroke-linejoin="round" stroke-linecap="round" d="M 11710,15488 L 11710,16368"/>
        <path fill="none" stroke="rgb(51,78,88)" stroke-width="0" stroke-linejoin="round" stroke-linecap="round" d="M 11747,15488 L 11747,16368"/>
        <path fill="none" stroke="rgb(51,78,88)" stroke-width="0" stroke-linejoin="round" stroke-linecap="round" d="M 11475,14915 L 11475,15072"/>
        <path fill="none" stroke="rgb(51,78,88)" stroke-width="0" stroke-linejoin="round" stroke-linecap="round" d="M 11510,14915 L 11510,15072"/>
        <path fill="none" stroke="rgb(51,78,88)" stroke-width="0" stroke-linejoin="round" stroke-linecap="round" d="M 11475,15488 L 11475,16368"/>
        <path fill="none" stroke="rgb(51,78,88)" stroke-width="0" stroke-linejoin="round" stroke-linecap="round" d="M 11510,15488 L 11510,16368"/>
        <path fill="rgb(38,46,52)" stroke="none" d="M 11747,16368 L 11710,15488 11747,15488 11747,16368 Z"/>
        <path fill="rgb(38,46,52)" stroke="none" d="M 11710,15488 L 11747,16368 11710,16368 11710,15488 Z"/>
        <path fill="rgb(38,46,52)" stroke="none" d="M 11946,16368 L 11946,15488 11982,15488 11946,16368 Z"/>
        <path fill="rgb(38,46,52)" stroke="none" d="M 11982,15488 L 11982,16368 11946,16368 11982,15488 Z"/>
        <path fill="rgb(38,46,52)" stroke="none" d="M 11475,15488 L 11510,16368 11475,16368 11475,15488 Z"/>
        <path fill="rgb(38,46,52)" stroke="none" d="M 11510,15488 L 11510,16368 11475,15488 11510,15488 Z"/>
        <path fill="rgb(38,46,52)" stroke="none" d="M 11747,14915 L 11747,15072 11710,15072 11747,14915 Z"/>
        <path fill="rgb(38,46,52)" stroke="none" d="M 11710,14915 L 11747,14915 11710,15072 11710,14915 Z"/>
        <path fill="rgb(38,46,52)" stroke="none" d="M 11946,15072 L 11946,14915 11982,14915 11946,15072 Z"/>
        <path fill="rgb(38,46,52)" stroke="none" d="M 11982,14915 L 11982,15072 11946,15072 11982,14915 Z"/>
        <path fill="rgb(38,46,52)" stroke="none" d="M 11510,14915 L 11510,15072 11475,15072 11510,14915 Z"/>
        <path fill="rgb(38,46,52)" stroke="none" d="M 11475,14915 L 11510,14915 11475,15072 11475,14915 Z"/>
        <path fill="rgb(38,46,52)" stroke="none" d="M 9152,15488 L 9152,16368 9114,16368 9152,15488 Z"/>
        <path fill="rgb(38,46,52)" stroke="none" d="M 9114,15488 L 9152,15488 9114,16368 9114,15488 Z"/>
        <path fill="rgb(38,46,52)" stroke="none" d="M 9351,16368 L 9351,15488 9386,15488 9351,16368 Z"/>
        <path fill="rgb(38,46,52)" stroke="none" d="M 9386,15488 L 9386,16368 9351,16368 9386,15488 Z"/>
        <path fill="rgb(38,46,52)" stroke="none" d="M 9588,15488 L 9623,16368 9588,16368 9588,15488 Z"/>
        <path fill="rgb(38,46,52)" stroke="none" d="M 9623,15488 L 9623,16368 9588,15488 9623,15488 Z"/>
        <path fill="rgb(38,46,52)" stroke="none" d="M 9588,14915 L 9623,15072 9588,15072 9588,14915 Z"/>
        <path fill="rgb(38,46,52)" stroke="none" d="M 9623,14915 L 9623,15072 9588,14915 9623,14915 Z"/>
        <path fill="rgb(38,46,52)" stroke="none" d="M 9114,14915 L 9152,15072 9114,15072 9114,14915 Z"/>
        <path fill="rgb(38,46,52)" stroke="none" d="M 9351,14915 L 9386,15072 9351,15072 9351,14915 Z"/>
        <path fill="rgb(38,46,52)" stroke="none" d="M 9152,14915 L 9152,15072 9114,14915 9152,14915 Z"/>
        <path fill="rgb(38,46,52)" stroke="none" d="M 9386,14915 L 9386,15072 9351,14915 9386,14915 Z"/>
        <path fill="rgb(38,46,52)" stroke="none" d="M 8444,15488 L 8444,16368 8407,16368 8444,15488 Z"/>
        <path fill="rgb(38,46,52)" stroke="none" d="M 8407,15488 L 8444,15488 8407,16368 8407,15488 Z"/>
        <path fill="rgb(38,46,52)" stroke="none" d="M 8880,15488 L 8915,16368 8880,16368 8880,15488 Z"/>
        <path fill="rgb(38,46,52)" stroke="none" d="M 8643,15488 L 8678,16368 8643,16368 8643,15488 Z"/>
        <path fill="rgb(38,46,52)" stroke="none" d="M 8678,15488 L 8678,16368 8643,15488 8678,15488 Z"/>
        <path fill="rgb(38,46,52)" stroke="none" d="M 8915,15488 L 8915,16368 8880,15488 8915,15488 Z"/>
        <path fill="rgb(38,46,52)" stroke="none" d="M 8407,14917 L 8444,15072 8407,15072 8407,14917 Z"/>
        <path fill="rgb(38,46,52)" stroke="none" d="M 8416,14915 L 8444,15072 8407,14917 8416,14915 Z"/>
        <path fill="rgb(38,46,52)" stroke="none" d="M 8678,15072 L 8643,14915 8678,14915 8678,15072 Z"/>
        <path fill="rgb(38,46,52)" stroke="none" d="M 8643,14915 L 8678,15072 8643,15072 8643,14915 Z"/>
        <path fill="rgb(38,46,52)" stroke="none" d="M 8880,14915 L 8915,15072 8880,15072 8880,14915 Z"/>
        <path fill="rgb(38,46,52)" stroke="none" d="M 8444,14915 L 8444,15072 8416,14915 8444,14915 Z"/>
        <path fill="rgb(38,46,52)" stroke="none" d="M 8425,14915 L 8444,14915 8416,14915 8425,14915 Z"/>
        <path fill="rgb(38,46,52)" stroke="none" d="M 8915,14915 L 8915,15072 8880,14915 8915,14915 Z"/>
        <path fill="none" stroke="rgb(51,78,88)" stroke-width="0" stroke-linejoin="round" stroke-linecap="round" d="M 12719,15072 L 12719,15488 10736,15488 10736,15072"/>
        <path fill="rgb(38,46,52)" stroke="none" d="M 12418,16368 L 12418,15488 12455,15488 12418,16368 Z"/>
        <path fill="rgb(38,46,52)" stroke="none" d="M 12455,15488 L 12455,16368 12418,16368 12455,15488 Z"/>
        <path fill="rgb(38,46,52)" stroke="none" d="M 12183,16368 L 12183,15488 12218,15488 12183,16368 Z"/>
        <path fill="rgb(38,46,52)" stroke="none" d="M 12218,15488 L 12218,16368 12183,16368 12218,15488 Z"/>
        <path fill="rgb(38,46,52)" stroke="none" d="M 12455,14915 L 12455,15072 12418,15072 12455,14915 Z"/>
        <path fill="rgb(38,46,52)" stroke="none" d="M 12418,14915 L 12455,14915 12418,15072 12418,14915 Z"/>
        <path fill="rgb(38,46,52)" stroke="none" d="M 12183,15072 L 12183,14915 12218,14915 12183,15072 Z"/>
        <path fill="rgb(38,46,52)" stroke="none" d="M 12218,14915 L 12218,15072 12183,15072 12218,14915 Z"/>
        <path fill="none" stroke="rgb(51,78,88)" stroke-width="0" stroke-linejoin="round" stroke-linecap="round" d="M 8375,15072 L 10360,15072 10360,15488 8375,15488 8375,15072 10360,15072"/>
        <path fill="rgb(38,46,52)" stroke="none" d="M 11274,16368 L 11239,15488 11274,15488 11274,16368 Z"/>
        <path fill="rgb(38,46,52)" stroke="none" d="M 11239,15488 L 11274,16368 11239,16368 11239,15488 Z"/>
        <path fill="rgb(38,46,52)" stroke="none" d="M 11002,15488 L 11039,16368 11002,16368 11002,15488 Z"/>
        <path fill="rgb(38,46,52)" stroke="none" d="M 11039,15488 L 11039,16368 11002,15488 11039,15488 Z"/>
        <path fill="rgb(38,46,52)" stroke="none" d="M 10767,15488 L 10802,16368 10767,16368 10767,15488 Z"/>
        <path fill="rgb(38,46,52)" stroke="none" d="M 10802,15488 L 10802,16368 10767,15488 10802,15488 Z"/>
        <path fill="rgb(38,46,52)" stroke="none" d="M 11239,15072 L 11239,14915 11274,14915 11239,15072 Z"/>
        <path fill="rgb(38,46,52)" stroke="none" d="M 11274,14915 L 11274,15072 11239,15072 11274,14915 Z"/>
        <path fill="rgb(38,46,52)" stroke="none" d="M 11039,15072 L 11002,14915 11039,14915 11039,15072 Z"/>
        <path fill="rgb(38,46,52)" stroke="none" d="M 11002,14915 L 11039,15072 11002,15072 11002,14915 Z"/>
        <path fill="rgb(38,46,52)" stroke="none" d="M 10767,15072 L 10767,14915 10802,14915 10767,15072 Z"/>
        <path fill="rgb(38,46,52)" stroke="none" d="M 10802,14915 L 10802,15072 10767,15072 10802,14915 Z"/>
        <path fill="rgb(38,46,52)" stroke="none" d="M 10296,16368 L 10296,15488 10331,15488 10296,16368 Z"/>
        <path fill="rgb(38,46,52)" stroke="none" d="M 10331,15488 L 10331,16368 10296,16368 10331,15488 Z"/>
        <path fill="rgb(38,46,52)" stroke="none" d="M 10059,15488 L 10094,16368 10059,16368 10059,15488 Z"/>
        <path fill="rgb(38,46,52)" stroke="none" d="M 9859,15488 L 9859,16368 9822,16368 9859,15488 Z"/>
        <path fill="rgb(38,46,52)" stroke="none" d="M 10094,15488 L 10094,16368 10059,15488 10094,15488 Z"/>
        <path fill="rgb(38,46,52)" stroke="none" d="M 9822,15488 L 9859,15488 9822,16368 9822,15488 Z"/>
        <path fill="rgb(38,46,52)" stroke="none" d="M 10059,15072 L 10059,14915 10094,14915 10059,15072 Z"/>
        <path fill="rgb(38,46,52)" stroke="none" d="M 10094,14915 L 10094,15072 10059,15072 10094,14915 Z"/>
        <path fill="rgb(38,46,52)" stroke="none" d="M 9822,14915 L 9859,15072 9822,15072 9822,14915 Z"/>
        <path fill="rgb(38,46,52)" stroke="none" d="M 10296,15072 L 10296,14915 10331,14915 10296,15072 Z"/>
        <path fill="rgb(38,46,52)" stroke="none" d="M 10331,14915 L 10331,15072 10296,15072 10331,14915 Z"/>
        <path fill="rgb(38,46,52)" stroke="none" d="M 9859,14915 L 9859,15072 9822,14915 9859,14915 Z"/>
        <path fill="rgb(38,46,52)" stroke="none" d="M 10549,15641 L 10530,14915 10567,14915 10549,15641 Z"/>
        <path fill="rgb(38,46,52)" stroke="none" d="M 10549,15641 L 10567,14915 10567,16368 10549,15641 Z"/>
        <path fill="rgb(38,46,52)" stroke="none" d="M 10549,15641 L 10567,16368 10530,16368 10549,15641 Z"/>
        <path fill="rgb(38,46,52)" stroke="none" d="M 10549,15641 L 10530,16368 10530,14915 10549,15641 Z"/>
        <path fill="rgb(47,70,76)" stroke="none" d="M 9308,14241 L 11270,14241 11809,14547 11270,14853 9308,14853 9308,14241 Z"/>
        <path fill="rgb(224,135,57)" stroke="none" d="M 9345,14277 L 11260,14277 11539,14547 11260,14817 9345,14817 9345,14277 Z"/>
        <path fill="rgb(215,67,51)" stroke="none" d="M 10905,12926 L 10935,12945 10965,12965 10993,12986 11020,13009 11045,13032 11069,13057 11092,13083 11113,13110 11133,13137 11151,13166 11168,13195 11184,13225 11198,13256 11210,13287 11221,13319 11231,13351 11239,13384 11245,13417 11250,13450 11253,13483 11255,13517 11255,13551 11253,13585 11249,13619 11244,13653 11238,13686 11229,13720 11219,13753 11207,13786 11194,13818 11178,13851 11161,13882 11142,13913 11122,13942 11100,13971 11078,13998 11054,14023 11029,14047 11004,14069 10977,14091 10949,14111 10920,14129 10891,14146 10861,14162 10831,14175 10799,14188 10768,14199 10736,14209 10703,14216 10670,14223 10637,14228 10603,14231 10569,14232 10535,14232 10501,14231 10468,14227 10434,14222 10400,14215 10367,14207 10333,14197 10301,14185 10268,14171 10236,14156 10204,14139 10173,14120 10144,14100 10116,14078 10089,14056 10064,14032 10039,14007 10017,13982 9995,13955 9976,13927 9957,13899 9940,13869 9925,13839 9911,13809 9898,13777 9887,13746 9878,13714 9870,13681 9863,13648 9859,13614 9856,13581 9854,13547 9854,13513 9856,13480 9859,13446 9864,13412 9871,13378 9879,13345 9890,13311 9902,13279 9915,13246 9931,13214 9948,13182 9967,13151 9987,13122 10008,13094 10031,13067 10054,13042 10079,13017 10105,12995 10132,12974 10159,12954 10188,12935 10217,12918 10247,12903 10278,12889 10309,12876 10341,12865 10373,12856 10406,12848 10439,12842 10472,12837 10505,12834 10539,12832 10573,12832 10607,12834 10641,12837 10675,12842 10708,12849 10742,12857 10775,12868 10808,12880 10840,12893 10873,12909 10905,12926 Z"/>
        <path fill="rgb(255,255,255)" stroke="none" d="M 10182,13251 L 10552,13465 10926,13249 10922,13245 10919,13240 10915,13236 10911,13231 10908,13227 10904,13223 10900,13218 10896,13214 10892,13210 10888,13206 10884,13202 10880,13198 10876,13194 10872,13190 10867,13186 10863,13182 10859,13178 10854,13174 10850,13171 10845,13167 10841,13163 10836,13160 10832,13157 10827,13153 10822,13150 10817,13147 10813,13143 10808,13140 10803,13137 10798,13134 10793,13131 10788,13128 10783,13125 10777,13122 10772,13119 10767,13117 10762,13114 10756,13111 10751,13109 10746,13107 10740,13104 10735,13102 10730,13100 10724,13098 10719,13095 10713,13093 10708,13091 10702,13089 10697,13087 10692,13086 10686,13084 10681,13082 10675,13081 10669,13080 10664,13078 10658,13077 10652,13076 10647,13074 10641,13073 10635,13072 10629,13071 10624,13070 10618,13070 10612,13069 10606,13068 10601,13067 10595,13067 10590,13067 10584,13066 10578,13066 10573,13066 10567,13065 10561,13065 10556,13065 10550,13065 10545,13065 10539,13066 10534,13066 10528,13066 10522,13067 10517,13067 10511,13067 10505,13068 10500,13068 10495,13069 10489,13070 10483,13071 10478,13072 10472,13073 10467,13074 10461,13075 10456,13076 10450,13077 10444,13078 10439,13080 10434,13081 10428,13083 10422,13084 10417,13086 10412,13088 10406,13089 10401,13091 10395,13093 10390,13095 10385,13097 10380,13099 10374,13101 10369,13103 10364,13106 10359,13108 10354,13110 10349,13113 10344,13115 10339,13118 10334,13120 10329,13123 10324,13126 10319,13129 10314,13132 10310,13134 10305,13137 10300,13140 10296,13143 10291,13147 10286,13150 10282,13153 10277,13156 10272,13160 10266,13165 10260,13170 10253,13175 10247,13180 10241,13186 10235,13191 10230,13197 10224,13202 10218,13208 10213,13214 10207,13220 10202,13226 10197,13232 10191,13238 10186,13244 10182,13251 Z"/>
        <path fill="rgb(255,255,255)" stroke="none" d="M 10497,13996 L 10497,13568 10123,13352 10120,13359 10117,13367 10115,13374 10112,13382 10110,13389 10107,13397 10105,13404 10103,13412 10101,13420 10099,13427 10097,13435 10096,13443 10094,13451 10093,13459 10092,13467 10091,13474 10090,13480 10090,13486 10089,13491 10089,13497 10088,13502 10088,13508 10088,13514 10087,13519 10087,13525 10087,13531 10087,13536 10087,13542 10087,13548 10088,13553 10088,13559 10088,13564 10089,13570 10089,13575 10090,13581 10090,13587 10091,13592 10092,13598 10093,13603 10094,13609 10095,13614 10095,13620 10097,13625 10098,13631 10099,13637 10100,13642 10102,13648 10103,13653 10105,13659 10106,13664 10108,13669 10110,13675 10111,13680 10113,13686 10115,13691 10117,13696 10119,13702 10121,13707 10123,13712 10125,13717 10128,13722 10130,13727 10132,13732 10135,13738 10137,13743 10140,13747 10142,13752 10145,13757 10148,13762 10150,13767 10153,13772 10156,13777 10159,13781 10162,13786 10166,13791 10169,13796 10172,13800 10175,13805 10178,13810 10182,13814 10185,13819 10189,13823 10192,13828 10196,13832 10200,13837 10204,13841 10208,13846 10212,13850 10216,13854 10220,13858 10224,13862 10228,13866 10232,13870 10236,13874 10241,13878 10245,13882 10249,13886 10254,13890 10258,13893 10262,13897 10267,13901 10272,13904 10277,13908 10281,13911 10286,13914 10291,13918 10296,13921 10301,13924 10306,13927 10311,13931 10316,13933 10321,13937 10326,13940 10331,13942 10336,13945 10342,13948 10347,13951 10352,13953 10357,13956 10363,13958 10368,13960 10373,13963 10379,13965 10384,13967 10389,13969 10395,13971 10400,13973 10406,13975 10411,13977 10417,13979 10422,13980 10428,13982 10434,13983 10439,13985 10445,13986 10450,13988 10456,13989 10462,13990 10468,13991 10473,13992 10479,13993 10485,13994 10491,13995 10496,13996 10497,13996 10497,13996 Z"/>
        <path fill="rgb(255,255,255)" stroke="none" d="M 10984,13350 L 10614,13564 10614,13995 10621,13994 10629,13993 10637,13992 10644,13990 10652,13989 10660,13987 10667,13985 10675,13983 10681,13982 10686,13980 10692,13978 10697,13977 10702,13975 10708,13973 10713,13971 10718,13969 10723,13968 10729,13965 10734,13963 10739,13961 10744,13959 10749,13957 10754,13954 10759,13952 10764,13949 10769,13947 10774,13944 10779,13941 10784,13939 10789,13936 10794,13933 10799,13930 10804,13927 10808,13924 10813,13921 10818,13918 10822,13915 10827,13911 10831,13908 10836,13905 10841,13901 10845,13897 10850,13894 10854,13890 10859,13886 10863,13882 10868,13879 10872,13875 10876,13871 10880,13867 10884,13863 10888,13859 10892,13854 10896,13850 10900,13846 10904,13841 10908,13837 10912,13833 10915,13828 10919,13824 10923,13819 10926,13815 10930,13810 10933,13805 10936,13801 10940,13796 10943,13791 10946,13786 10949,13781 10952,13776 10956,13771 10959,13765 10961,13760 10964,13755 10967,13750 10970,13745 10972,13740 10975,13734 10978,13729 10980,13724 10982,13719 10985,13713 10987,13708 10989,13702 10991,13697 10993,13691 10995,13686 10997,13680 10999,13675 11001,13669 11002,13664 11004,13659 11006,13653 11007,13647 11008,13642 11010,13636 11011,13630 11012,13625 11013,13619 11014,13613 11015,13608 11016,13602 11017,13596 11018,13590 11018,13584 11019,13579 11020,13573 11020,13568 11020,13562 11021,13556 11021,13551 11021,13545 11021,13539 11021,13534 11021,13528 11021,13522 11021,13517 11021,13512 11021,13506 11020,13500 11020,13495 11019,13489 11019,13483 11018,13478 11017,13472 11016,13467 11016,13461 11015,13456 11014,13450 11013,13445 11012,13439 11011,13434 11009,13428 11008,13422 11006,13417 11005,13411 11003,13404 11001,13396 10998,13388 10996,13380 10993,13373 10990,13365 10987,13358 10984,13350 Z"/>
        <path fill="rgb(34,41,42)" stroke="none" d="M 10252,13641 L 10226,13641 10226,13641 10226,13641 10226,13640 10226,13640 10226,13639 10227,13638 10228,13637 10229,13636 10230,13635 10231,13635 10231,13634 10232,13634 10233,13634 10234,13633 10236,13633 10237,13633 10238,13633 10239,13633 10240,13633 10241,13633 10242,13634 10243,13634 10244,13634 10245,13635 10247,13636 10248,13637 10249,13638 10251,13639 10252,13640 10252,13641 Z M 10204,13679 L 10209,13672 10209,13673 10210,13673 10211,13674 10211,13675 10212,13676 10212,13677 10213,13677 10213,13678 10213,13679 10214,13680 10214,13681 10214,13682 10214,13683 10214,13684 10214,13684 10214,13685 10214,13686 10214,13687 10214,13688 10214,13689 10214,13690 10213,13690 10213,13691 10213,13692 10212,13694 10211,13695 10210,13697 10209,13698 10208,13699 10207,13700 10206,13700 10206,13700 10205,13701 10204,13701 10203,13702 10202,13702 10201,13703 10201,13703 10200,13703 10199,13703 10197,13703 10195,13704 10194,13704 10193,13703 10192,13703 10191,13703 10191,13703 10190,13703 10189,13702 10188,13702 10187,13702 10186,13701 10186,13701 10185,13700 10184,13700 10183,13699 10182,13698 10182,13698 10181,13697 10181,13696 10180,13696 10180,13695 10179,13694 10179,13694 10178,13693 10178,13692 10177,13690 10177,13689 10177,13687 10177,13685 10177,13684 10177,13683 10177,13682 10177,13681 10177,13681 10177,13680 10178,13679 10178,13678 10178,13677 10179,13676 10179,13675 10180,13675 10180,13674 10181,13673 10181,13673 10182,13672 10183,13671 10184,13671 10185,13670 10186,13670 10188,13669 10190,13668 10193,13667 10194,13667 10195,13675 10194,13676 10193,13676 10191,13676 10190,13677 10190,13677 10189,13678 10188,13678 10188,13679 10187,13679 10187,13680 10186,13681 10186,13682 10186,13683 10186,13683 10186,13684 10186,13685 10186,13686 10186,13687 10186,13688 10186,13689 10186,13690 10187,13691 10187,13691 10188,13692 10189,13693 10190,13694 10190,13694 10191,13694 10192,13695 10193,13695 10194,13695 10195,13695 10197,13695 10198,13695 10199,13694 10200,13694 10201,13694 10201,13694 10202,13694 10202,13693 10203,13692 10204,13692 10204,13691 10205,13690 10205,13689 10205,13688 10206,13687 10205,13686 10205,13685 10205,13684 10205,13681 10205,13680 10204,13680 10204,13679 Z M 10267,13682 L 10256,13664 10256,13663 10256,13662 10255,13660 10255,13659 10255,13659 10256,13658 10256,13657 10256,13657 10256,13656 10257,13656 10257,13655 10257,13655 10257,13654 10258,13654 10258,13654 10258,13654 10259,13654 10259,13654 10260,13654 10260,13654 10261,13654 10261,13654 10262,13654 10262,13654 10263,13655 10264,13656 10265,13656 10265,13657 10266,13658 10266,13659 10267,13660 10268,13662 10268,13664 10268,13666 10269,13667 10269,13669 10269,13670 10268,13671 10268,13673 10268,13675 10268,13677 10268,13678 10267,13680 10267,13682 Z M 10327,13687 L 10315,13686 10316,13685 10317,13684 10318,13681 10318,13680 10319,13679 10320,13678 10320,13677 10321,13676 10323,13674 10325,13672 10327,13671 10328,13669 10329,13669 10331,13668 10333,13666 10336,13665 10327,13687 10330,13707 10268,13708 10267,13708 10266,13708 10266,13708 10265,13708 10263,13707 10263,13707 10262,13706 10261,13706 10261,13706 10261,13706 10260,13705 10260,13705 10260,13705 10260,13704 10259,13703 10259,13703 10259,13701 10259,13700 10260,13700 10260,13699 10261,13698 10261,13698 10261,13697 10262,13697 10262,13696 10263,13696 10263,13696 10264,13695 10249,13675 10249,13675 10248,13674 10248,13674 10247,13674 10247,13674 10247,13674 10246,13674 10246,13674 10246,13674 10245,13674 10245,13674 10245,13674 10245,13675 10244,13675 10244,13676 10244,13677 10244,13689 10244,13689 10244,13690 10244,13690 10243,13691 10243,13691 10243,13692 10243,13692 10243,13692 10243,13692 10243,13692 10242,13693 10241,13693 10240,13693 10239,13694 10238,13693 10238,13693 10238,13694 10237,13695 10237,13698 10236,13701 10235,13704 10233,13706 10232,13709 10230,13711 10228,13713 10226,13715 10224,13717 10222,13719 10220,13720 10217,13722 10215,13723 10212,13724 10210,13725 10207,13726 10204,13726 10201,13727 10199,13727 10196,13727 10193,13727 10190,13727 10188,13726 10185,13726 10182,13725 10180,13724 10177,13723 10174,13722 10172,13720 10170,13719 10167,13717 10165,13715 10164,13714 10163,13713 10162,13711 10161,13710 10160,13709 10159,13707 10158,13706 10157,13705 10156,13703 10155,13702 10155,13700 10154,13699 10154,13697 10153,13695 10153,13694 10152,13692 10152,13690 10152,13689 10152,13687 10152,13685 10152,13684 10152,13682 10152,13680 10152,13679 10152,13677 10153,13675 10153,13673 10154,13672 10155,13670 10155,13668 10156,13666 10157,13664 10158,13664 10158,13663 10159,13663 10159,13662 10157,13661 10157,13660 10156,13659 10156,13659 10156,13658 10157,13657 10157,13656 10157,13656 10157,13656 10158,13656 10158,13655 10160,13654 10161,13652 10162,13651 10163,13650 10164,13649 10165,13649 10166,13648 10167,13647 10169,13646 10170,13646 10172,13644 10175,13643 10176,13642 10178,13642 10179,13641 10181,13641 10182,13640 10184,13640 10185,13639 10186,13639 10188,13639 10189,13639 10190,13639 10192,13638 10193,13638 10194,13638 10196,13638 10197,13638 10199,13639 10200,13639 10202,13639 10203,13639 10203,13630 10203,13629 10203,13629 10203,13628 10203,13628 10204,13628 10204,13627 10204,13627 10205,13627 10205,13627 10206,13626 10206,13626 10206,13626 10207,13627 10207,13627 10208,13627 10210,13628 10211,13628 10211,13628 10212,13627 10213,13626 10214,13626 10214,13625 10215,13625 10216,13624 10216,13624 10217,13623 10218,13623 10219,13622 10220,13622 10221,13622 10221,13621 10222,13621 10224,13621 10226,13621 10227,13621 10229,13622 10230,13622 10232,13622 10233,13623 10235,13623 10240,13625 10241,13624 10243,13623 10244,13623 10246,13623 10247,13622 10247,13622 10248,13622 10249,13622 10250,13622 10252,13623 10254,13623 10257,13624 10261,13625 10263,13625 10263,13625 10263,13625 10264,13624 10264,13624 10262,13615 10261,13614 10261,13612 10260,13611 10260,13610 10259,13609 10259,13609 10259,13608 10259,13608 10258,13606 10258,13605 10258,13604 10258,13604 10257,13604 10257,13604 10256,13604 10255,13605 10255,13605 10254,13605 10254,13605 10253,13604 10252,13604 10252,13604 10252,13604 10252,13603 10252,13603 10251,13603 10251,13602 10251,13601 10251,13601 10250,13600 10249,13599 10249,13599 10248,13599 10248,13599 10247,13599 10247,13599 10246,13599 10245,13599 10245,13599 10244,13598 10243,13598 10243,13597 10243,13596 10243,13596 10243,13595 10243,13594 10243,13594 10242,13593 10242,13592 10239,13585 10239,13585 10239,13584 10238,13584 10238,13583 10238,13582 10238,13581 10238,13580 10238,13579 10238,13578 10239,13576 10239,13575 10240,13574 10240,13573 10241,13571 10242,13570 10243,13569 10244,13568 10245,13567 10246,13567 10247,13566 10248,13565 10249,13565 10251,13564 10252,13564 10254,13564 10255,13564 10256,13563 10257,13563 10258,13564 10260,13564 10262,13564 10263,13564 10264,13565 10265,13565 10266,13566 10267,13566 10267,13567 10268,13568 10269,13568 10270,13569 10271,13570 10272,13571 10272,13572 10272,13573 10273,13574 10273,13575 10274,13577 10274,13579 10274,13580 10274,13582 10274,13583 10274,13584 10276,13584 10279,13585 10282,13585 10284,13585 10286,13586 10289,13586 10292,13586 10294,13587 10295,13587 10297,13588 10298,13588 10301,13589 10302,13591 10304,13592 10306,13593 10307,13593 10309,13595 10311,13597 10313,13599 10316,13601 10319,13604 10322,13607 10325,13609 10327,13611 10328,13612 10330,13614 10331,13615 10332,13616 10333,13617 10335,13618 10336,13619 10338,13620 10339,13622 10342,13625 10345,13627 10347,13629 10348,13630 10349,13631 10350,13633 10350,13634 10351,13635 10352,13637 10352,13638 10352,13639 10353,13641 10353,13642 10353,13643 10353,13644 10353,13645 10353,13646 10352,13647 10352,13648 10352,13649 10352,13649 10352,13650 10351,13650 10351,13651 10351,13651 10351,13652 10350,13652 10366,13663 10367,13661 10368,13659 10370,13657 10372,13655 10374,13653 10374,13652 10375,13651 10376,13651 10377,13650 10377,13650 10377,13649 10377,13649 10378,13649 10378,13648 10377,13648 10377,13647 10377,13647 10377,13646 10376,13646 10376,13645 10375,13645 10374,13644 10374,13644 10373,13644 10372,13643 10371,13643 10370,13643 10369,13643 10368,13642 10362,13639 10361,13639 10361,13639 10360,13639 10360,13639 10360,13639 10360,13638 10359,13638 10359,13637 10359,13636 10359,13636 10359,13635 10359,13634 10359,13634 10360,13633 10361,13632 10362,13632 10427,13630 10436,13631 10437,13632 10438,13633 10439,13634 10439,13634 10439,13635 10439,13635 10439,13636 10439,13637 10439,13638 10439,13638 10439,13639 10439,13639 10439,13639 10439,13639 10438,13640 10438,13640 10436,13643 10436,13643 10435,13644 10435,13644 10434,13645 10434,13645 10434,13646 10434,13647 10435,13647 10435,13647 10435,13648 10436,13648 10437,13649 10438,13649 10438,13650 10439,13651 10440,13651 10442,13653 10443,13654 10444,13655 10444,13656 10445,13656 10446,13657 10447,13659 10448,13661 10448,13662 10449,13663 10449,13664 10450,13665 10450,13666 10450,13666 10450,13667 10450,13667 10451,13667 10452,13667 10452,13667 10453,13667 10453,13667 10454,13668 10454,13668 10454,13668 10454,13668 10455,13668 10455,13669 10455,13670 10455,13699 10455,13699 10455,13700 10454,13700 10454,13700 10454,13701 10453,13702 10452,13702 10451,13702 10450,13702 10449,13702 10449,13701 10448,13701 10448,13701 10447,13701 10447,13701 10447,13700 10447,13700 10446,13700 10446,13701 10446,13702 10445,13704 10445,13705 10444,13706 10443,13707 10443,13709 10442,13710 10441,13711 10440,13712 10439,13713 10438,13714 10437,13715 10435,13716 10434,13717 10433,13718 10432,13719 10431,13720 10429,13721 10428,13721 10427,13722 10426,13723 10424,13724 10423,13724 10421,13725 10420,13725 10419,13726 10417,13726 10415,13726 10414,13727 10413,13727 10411,13727 10409,13727 10408,13727 10406,13727 10404,13727 10403,13727 10401,13727 10399,13726 10397,13726 10396,13725 10394,13725 10392,13725 10391,13724 10389,13723 10388,13722 10386,13721 10384,13721 10383,13720 10382,13719 10380,13718 10379,13716 10378,13715 10376,13714 10375,13713 10374,13711 10373,13710 10372,13709 10371,13707 10370,13705 10369,13704 10368,13702 10368,13700 10367,13699 10367,13697 10366,13695 10366,13694 10365,13694 10330,13707 10327,13687 Z"/>
        <path fill="rgb(34,41,42)" stroke="none" d="M 10748,13677 L 10717,13677 10717,13678 10717,13679 10717,13679 10716,13680 10716,13681 10715,13682 10715,13682 10714,13683 10713,13683 10712,13684 10712,13684 10711,13684 10710,13685 10709,13685 10708,13685 10707,13685 10706,13685 10706,13685 10705,13685 10704,13685 10703,13684 10702,13684 10701,13683 10700,13682 10699,13681 10698,13680 10697,13679 10697,13678 10696,13677 10696,13677 10696,13676 10696,13675 10696,13675 10696,13674 10696,13673 10696,13673 10696,13672 10697,13672 10697,13671 10697,13670 10697,13670 10697,13670 10697,13669 10697,13669 10698,13669 10698,13668 10681,13643 10679,13645 10677,13647 10675,13649 10673,13651 10672,13654 10671,13656 10670,13659 10669,13661 10668,13664 10667,13666 10667,13668 10667,13671 10667,13674 10667,13676 10667,13679 10667,13681 10668,13684 10669,13686 10670,13689 10671,13691 10672,13693 10673,13695 10674,13698 10676,13700 10677,13702 10679,13704 10682,13705 10683,13707 10686,13709 10688,13710 10691,13711 10693,13712 10696,13713 10698,13714 10700,13714 10703,13715 10705,13715 10708,13715 10710,13715 10712,13715 10714,13714 10717,13714 10719,13713 10721,13712 10723,13712 10725,13711 10727,13710 10729,13708 10731,13707 10733,13706 10735,13704 10736,13703 10738,13701 10739,13699 10741,13697 10742,13695 10743,13694 10744,13691 10745,13689 10746,13687 10747,13685 10747,13682 10748,13680 10748,13677 Z M 10716,13668 L 10729,13640 10730,13641 10731,13642 10733,13643 10735,13644 10736,13645 10738,13647 10739,13649 10740,13650 10742,13652 10743,13654 10744,13655 10744,13657 10745,13659 10746,13661 10747,13664 10747,13666 10747,13668 10748,13669 10748,13670 10748,13671 10748,13671 10748,13672 10718,13673 10718,13672 10718,13672 10718,13671 10718,13670 10717,13669 10717,13669 10716,13669 10716,13668 Z M 10702,13665 L 10685,13640 10686,13640 10687,13639 10689,13638 10691,13637 10693,13636 10695,13636 10697,13635 10699,13634 10701,13634 10703,13634 10706,13634 10708,13634 10711,13634 10713,13634 10715,13634 10718,13635 10720,13635 10722,13636 10722,13637 10723,13637 10723,13637 10724,13637 10710,13665 10710,13664 10709,13664 10709,13664 10708,13664 10708,13664 10707,13664 10706,13664 10705,13664 10704,13664 10703,13664 10703,13665 10702,13665 Z M 10836,13659 L 10863,13598 10874,13623 10873,13624 10873,13624 10870,13626 10868,13627 10865,13629 10864,13630 10861,13632 10859,13634 10857,13636 10855,13638 10854,13640 10852,13642 10850,13644 10849,13647 10848,13648 10847,13649 10847,13651 10846,13652 10846,13653 10845,13655 10845,13656 10844,13657 10844,13658 10844,13659 10836,13659 Z M 10880,13638 L 10890,13659 10890,13659 10890,13659 10890,13659 10889,13659 10889,13660 10888,13660 10887,13661 10887,13661 10886,13662 10886,13663 10886,13664 10885,13664 10859,13664 10860,13663 10860,13662 10860,13660 10860,13659 10861,13658 10861,13657 10862,13656 10862,13654 10863,13652 10865,13650 10865,13649 10866,13648 10867,13647 10867,13646 10869,13644 10870,13643 10872,13642 10874,13641 10875,13640 10877,13639 10879,13638 10880,13638 Z M 10938,13669 L 10914,13669 10914,13669 10913,13668 10913,13667 10912,13666 10912,13664 10910,13663 10910,13662 10910,13661 10909,13661 10908,13660 10907,13659 10905,13659 10904,13658 10903,13658 10901,13658 10900,13657 10898,13657 10896,13657 10886,13635 10889,13635 10891,13634 10893,13634 10895,13634 10898,13634 10900,13634 10902,13634 10904,13634 10906,13634 10909,13635 10911,13636 10913,13636 10915,13637 10917,13638 10919,13639 10921,13641 10923,13642 10924,13643 10926,13645 10927,13646 10929,13648 10930,13649 10931,13651 10933,13653 10934,13655 10935,13657 10935,13659 10936,13661 10937,13663 10937,13665 10938,13667 10938,13669 Z M 10898,13691 L 10898,13694 10912,13694 10912,13698 10867,13698 10867,13699 10868,13699 10868,13700 10868,13700 10870,13701 10870,13703 10872,13704 10873,13705 10874,13706 10875,13707 10876,13708 10878,13709 10879,13709 10880,13710 10882,13711 10883,13711 10885,13712 10886,13712 10888,13713 10890,13713 10891,13713 10892,13714 10894,13714 10896,13714 10897,13714 10899,13714 10900,13714 10902,13714 10904,13713 10905,13713 10907,13713 10908,13712 10910,13712 10911,13711 10913,13711 10915,13710 10916,13710 10917,13709 10918,13708 10920,13708 10920,13707 10922,13706 10923,13705 10924,13705 10925,13704 10926,13703 10927,13702 10928,13701 10929,13700 10930,13699 10930,13698 10931,13697 10932,13696 10933,13694 10933,13693 10934,13692 10935,13691 10935,13690 10935,13689 10936,13687 10936,13686 10937,13685 10937,13683 10937,13682 10938,13681 10938,13679 10938,13678 10938,13677 10938,13675 10938,13674 10914,13674 10914,13676 10914,13678 10913,13679 10913,13681 10912,13682 10911,13684 10910,13685 10910,13686 10908,13687 10907,13689 10906,13689 10905,13690 10903,13690 10901,13691 10900,13691 10898,13691 10851,13698 10814,13699 10815,13712 10821,13712 10821,13716 10804,13716 10804,13712 10809,13712 10809,13699 10802,13699 10800,13699 10798,13699 10797,13699 10796,13698 10795,13698 10794,13698 10793,13697 10792,13697 10790,13696 10789,13695 10788,13694 10787,13694 10785,13693 10784,13692 10784,13690 10783,13689 10782,13688 10781,13687 10781,13685 10780,13684 10780,13683 10780,13681 10780,13680 10780,13679 10780,13678 10780,13677 10780,13675 10780,13674 10781,13674 10781,13672 10782,13671 10782,13670 10783,13669 10783,13669 10784,13668 10784,13667 10785,13666 10786,13665 10786,13665 10787,13664 10787,13664 10787,13664 10783,13657 10785,13654 10785,13652 10786,13651 10786,13650 10786,13649 10786,13649 10786,13648 10755,13629 10753,13628 10752,13627 10751,13626 10750,13625 10749,13625 10748,13624 10748,13623 10747,13622 10746,13621 10746,13620 10745,13619 10744,13617 10744,13616 10743,13614 10743,13613 10743,13613 10736,13625 10738,13626 10742,13629 10744,13631 10747,13634 10749,13636 10750,13637 10751,13638 10752,13639 10752,13640 10754,13642 10755,13644 10756,13646 10757,13648 10758,13649 10759,13651 10760,13653 10760,13654 10761,13656 10761,13658 10762,13659 10763,13661 10763,13663 10763,13665 10764,13669 10764,13672 10764,13672 10763,13673 10763,13673 10763,13674 10759,13674 10759,13677 10759,13680 10759,13684 10758,13687 10757,13690 10756,13693 10755,13696 10754,13699 10752,13701 10751,13704 10749,13707 10747,13709 10745,13711 10743,13713 10740,13715 10738,13717 10736,13719 10733,13720 10730,13722 10728,13723 10725,13724 10722,13725 10719,13726 10716,13726 10713,13727 10709,13727 10706,13727 10703,13727 10700,13726 10697,13726 10693,13725 10690,13724 10687,13723 10684,13721 10682,13720 10679,13718 10676,13716 10674,13715 10672,13712 10669,13710 10667,13708 10666,13705 10664,13703 10662,13700 10661,13698 10660,13695 10659,13692 10658,13689 10657,13686 10657,13684 10656,13680 10656,13677 10656,13674 10656,13671 10656,13668 10657,13665 10657,13662 10658,13659 10659,13656 10660,13654 10662,13651 10663,13648 10665,13645 10667,13642 10665,13641 10664,13640 10664,13640 10663,13640 10663,13639 10663,13639 10663,13639 10663,13638 10663,13638 10665,13636 10667,13634 10670,13631 10672,13630 10673,13629 10675,13628 10676,13627 10678,13625 10681,13624 10683,13623 10685,13622 10687,13621 10690,13620 10692,13619 10695,13619 10697,13619 10699,13618 10701,13618 10703,13618 10705,13618 10707,13618 10709,13618 10712,13618 10713,13618 10716,13618 10718,13619 10720,13619 10722,13619 10724,13620 10726,13621 10728,13621 10728,13621 10729,13622 10730,13622 10731,13622 10738,13606 10737,13606 10734,13607 10731,13607 10729,13608 10729,13608 10729,13608 10728,13608 10728,13607 10728,13607 10727,13607 10727,13606 10727,13606 10727,13593 10727,13594 10727,13593 10727,13593 10727,13592 10727,13591 10728,13591 10728,13590 10728,13590 10729,13590 10730,13589 10730,13589 10732,13589 10733,13590 10735,13590 10736,13590 10745,13592 10749,13584 10748,13584 10747,13583 10746,13583 10746,13583 10745,13583 10744,13582 10743,13581 10743,13581 10742,13580 10742,13579 10741,13578 10741,13577 10740,13576 10740,13575 10740,13574 10740,13573 10740,13572 10740,13570 10740,13569 10740,13569 10740,13568 10741,13567 10741,13567 10742,13566 10742,13566 10743,13565 10743,13565 10744,13564 10745,13564 10746,13564 10747,13564 10748,13564 10749,13564 10750,13564 10789,13564 10789,13569 10750,13569 10749,13569 10748,13569 10747,13570 10747,13570 10746,13571 10746,13572 10745,13572 10745,13572 10745,13573 10745,13573 10745,13574 10745,13575 10746,13576 10746,13576 10746,13576 10746,13577 10747,13577 10747,13578 10748,13578 10749,13578 10758,13580 10752,13593 10753,13593 10756,13593 10758,13592 10759,13592 10761,13592 10763,13592 10764,13592 10766,13593 10768,13593 10770,13594 10772,13594 10774,13595 10776,13597 10778,13598 10779,13598 10780,13599 10782,13600 10783,13602 10784,13603 10785,13604 10786,13605 10787,13606 10787,13608 10788,13609 10789,13610 10789,13611 10790,13613 10790,13614 10791,13615 10791,13616 10791,13626 10791,13628 10792,13629 10792,13631 10793,13633 10793,13633 10794,13634 10794,13635 10794,13636 10795,13636 10796,13637 10797,13638 10798,13638 10799,13640 10801,13641 10803,13642 10805,13643 10806,13644 10808,13644 10809,13645 10811,13645 10814,13646 10817,13647 10820,13647 10823,13648 10824,13648 10825,13648 10825,13648 10826,13648 10827,13648 10827,13648 10828,13648 10828,13647 10858,13589 10856,13589 10854,13588 10851,13587 10849,13587 10847,13586 10846,13585 10844,13584 10843,13584 10842,13583 10841,13583 10841,13582 10840,13582 10840,13581 10839,13580 10839,13580 10839,13579 10839,13578 10839,13578 10839,13577 10839,13577 10839,13576 10839,13575 10840,13575 10840,13574 10841,13573 10841,13573 10842,13573 10843,13573 10844,13572 10844,13572 10845,13572 10846,13573 10848,13573 10849,13573 10851,13573 10854,13574 10856,13574 10858,13575 10859,13575 10860,13575 10861,13575 10862,13575 10864,13576 10866,13575 10869,13575 10871,13575 10874,13575 10876,13575 10879,13575 10880,13574 10881,13575 10881,13575 10882,13575 10882,13575 10883,13575 10884,13576 10884,13577 10885,13578 10885,13578 10886,13579 10886,13580 10886,13581 10886,13582 10886,13583 10886,13584 10886,13585 10885,13586 10885,13587 10885,13588 10884,13588 10883,13589 10882,13590 10880,13591 10879,13591 10879,13592 10878,13592 10877,13592 10876,13592 10875,13593 10874,13593 10872,13593 10871,13593 10870,13592 10868,13592 10868,13592 10868,13592 10867,13592 10867,13592 10880,13620 10881,13620 10882,13620 10883,13619 10885,13619 10886,13619 10889,13618 10891,13618 10893,13618 10895,13618 10897,13618 10900,13618 10902,13618 10905,13618 10907,13619 10910,13619 10912,13620 10915,13620 10918,13621 10920,13623 10922,13624 10925,13625 10927,13626 10930,13628 10932,13629 10934,13631 10936,13633 10938,13635 10940,13637 10941,13639 10943,13640 10944,13642 10946,13644 10947,13646 10948,13649 10949,13651 10950,13653 10950,13654 10950,13655 10956,13655 10957,13655 10957,13655 10958,13655 10959,13656 10959,13656 10959,13657 10959,13657 10959,13658 10959,13681 10959,13682 10959,13683 10959,13683 10959,13683 10959,13683 10958,13684 10949,13685 10949,13687 10948,13689 10947,13691 10946,13693 10945,13695 10944,13697 10943,13699 10942,13700 10941,13702 10940,13704 10938,13705 10937,13707 10935,13708 10934,13710 10933,13711 10931,13712 10930,13713 10928,13715 10926,13716 10925,13717 10923,13718 10921,13719 10919,13720 10917,13720 10915,13721 10914,13722 10911,13722 10910,13723 10908,13723 10905,13724 10903,13724 10901,13724 10900,13724 10898,13724 10896,13724 10894,13724 10892,13724 10890,13724 10888,13723 10886,13723 10885,13722 10883,13722 10881,13721 10880,13721 10878,13720 10876,13720 10875,13719 10873,13718 10871,13717 10870,13716 10868,13715 10867,13714 10865,13713 10864,13712 10862,13711 10861,13710 10859,13708 10858,13707 10857,13705 10856,13704 10855,13703 10854,13701 10853,13700 10851,13698 10898,13691 Z"/>
        <path fill="rgb(34,41,42)" stroke="none" d="M 10432,13220 L 10433,13220 10434,13220 10435,13221 10436,13221 10438,13221 10440,13222 10441,13223 10443,13224 10445,13225 10446,13226 10447,13227 10449,13229 10449,13230 10450,13232 10451,13234 10451,13235 10451,13236 10452,13237 10452,13238 10452,13239 10452,13240 10452,13241 10452,13242 10451,13243 10451,13244 10451,13245 10450,13246 10450,13246 10450,13247 10449,13248 10449,13249 10449,13250 10448,13250 10447,13251 10447,13252 10446,13253 10445,13253 10444,13254 10444,13254 10443,13255 10442,13255 10441,13256 10441,13256 10440,13257 10439,13257 10438,13257 10437,13257 10436,13258 10435,13258 10434,13258 10433,13258 10432,13258 10431,13258 10430,13258 10429,13258 10428,13258 10427,13257 10426,13257 10426,13257 10425,13256 10424,13256 10423,13256 10422,13255 10421,13255 10421,13254 10420,13254 10419,13253 10419,13252 10418,13252 10418,13251 10417,13250 10416,13249 10416,13249 10415,13248 10415,13247 10415,13246 10414,13245 10414,13245 10414,13244 10414,13243 10414,13242 10413,13241 10413,13240 10413,13239 10413,13238 10413,13237 10414,13236 10414,13235 10414,13234 10414,13234 10414,13233 10415,13232 10415,13231 10416,13230 10416,13229 10417,13229 10418,13227 10419,13226 10420,13225 10422,13224 10423,13223 10425,13222 10426,13222 10427,13221 10428,13221 10429,13221 10429,13221 10430,13220 10431,13220 10432,13220 Z M 10517,13239 L 10517,13282 10461,13282 10460,13282 10459,13282 10458,13282 10458,13282 10457,13281 10456,13281 10456,13281 10455,13280 10454,13280 10454,13280 10454,13279 10453,13279 10453,13278 10453,13278 10453,13277 10452,13276 10452,13276 10452,13275 10453,13275 10453,13274 10453,13273 10454,13272 10471,13243 10471,13242 10472,13241 10473,13241 10473,13240 10474,13240 10475,13239 10475,13239 10476,13239 10477,13239 10478,13239 10480,13239 10517,13239 Z M 10521,13239 L 10588,13239 10588,13282 10521,13282 10521,13239 Z M 10592,13239 L 10628,13239 10628,13239 10629,13239 10630,13239 10631,13239 10632,13239 10633,13239 10634,13240 10634,13240 10635,13240 10636,13241 10636,13241 10637,13242 10637,13243 10638,13244 10655,13272 10656,13273 10656,13274 10656,13275 10656,13275 10656,13276 10656,13277 10656,13277 10656,13278 10656,13278 10656,13279 10655,13280 10655,13280 10654,13280 10654,13281 10653,13281 10652,13281 10652,13281 10651,13282 10651,13282 10650,13282 10648,13282 10648,13282 10592,13282 10592,13239 Z M 10676,13220 L 10677,13220 10678,13220 10679,13220 10680,13221 10682,13221 10684,13222 10685,13223 10687,13224 10688,13225 10690,13226 10691,13227 10692,13229 10693,13230 10694,13232 10694,13233 10694,13234 10695,13234 10695,13235 10695,13236 10695,13237 10695,13238 10695,13239 10695,13240 10695,13241 10695,13242 10695,13243 10695,13244 10694,13245 10694,13246 10694,13247 10693,13248 10693,13249 10692,13249 10692,13250 10691,13251 10691,13251 10690,13252 10689,13253 10688,13254 10687,13255 10686,13255 10685,13256 10684,13256 10683,13257 10682,13257 10681,13257 10680,13258 10679,13258 10678,13258 10677,13258 10677,13258 10676,13258 10675,13258 10673,13258 10672,13258 10672,13258 10671,13258 10670,13257 10669,13257 10668,13257 10667,13256 10667,13256 10666,13255 10665,13255 10664,13254 10663,13254 10662,13253 10662,13253 10661,13252 10661,13251 10660,13251 10660,13250 10659,13249 10659,13248 10658,13248 10658,13247 10657,13246 10657,13245 10657,13244 10657,13243 10657,13242 10657,13241 10656,13240 10656,13239 10656,13238 10657,13237 10657,13236 10657,13235 10657,13234 10657,13234 10657,13233 10658,13232 10658,13231 10659,13230 10659,13229 10660,13229 10660,13228 10661,13227 10662,13226 10662,13226 10663,13225 10663,13224 10664,13224 10665,13224 10667,13223 10668,13222 10669,13221 10670,13221 10671,13221 10672,13221 10673,13220 10674,13220 10675,13220 10676,13220 Z M 10670,13208 L 10669,13208 10668,13208 10667,13208 10667,13208 10611,13204 10608,13203 10605,13203 10601,13203 10597,13203 10593,13203 10589,13202 10585,13202 10580,13202 10576,13202 10571,13202 10567,13202 10563,13202 10559,13202 10556,13202 10552,13202 10549,13202 10543,13202 10536,13202 10529,13202 10521,13202 10514,13203 10506,13203 10499,13203 10493,13203 10442,13206 10441,13206 10440,13206 10439,13207 10439,13207 10474,13161 10475,13160 10475,13160 10476,13159 10476,13159 10477,13158 10478,13158 10478,13158 10479,13158 10480,13158 10480,13158 10481,13158 10483,13158 10625,13158 10627,13158 10628,13158 10629,13158 10631,13158 10631,13158 10632,13158 10632,13159 10632,13159 10633,13160 10634,13161 10670,13208 10684,13300 10684,13340 10684,13340 10684,13341 10684,13342 10684,13343 10684,13343 10684,13344 10683,13344 10683,13345 10682,13345 10682,13345 10681,13345 10679,13345 10664,13345 10663,13345 10662,13345 10661,13345 10661,13345 10660,13345 10660,13344 10660,13344 10659,13343 10659,13343 10659,13343 10659,13341 10659,13340 10659,13304 10658,13304 10657,13304 10656,13304 10656,13304 10653,13305 10650,13305 10647,13305 10644,13306 10637,13306 10630,13306 10623,13307 10616,13307 10610,13307 10604,13307 10600,13308 10594,13308 10586,13308 10578,13308 10570,13308 10563,13308 10556,13308 10552,13308 10546,13308 10540,13308 10534,13308 10528,13308 10522,13308 10515,13308 10509,13308 10503,13307 10498,13307 10491,13307 10485,13306 10478,13306 10472,13306 10465,13305 10459,13305 10453,13305 10450,13305 10450,13339 10450,13342 10450,13342 10449,13343 10449,13344 10449,13344 10448,13345 10448,13345 10447,13345 10447,13345 10446,13345 10445,13345 10444,13345 10444,13345 10429,13345 10429,13345 10428,13345 10427,13345 10426,13345 10426,13345 10425,13344 10425,13344 10425,13343 10424,13342 10424,13342 10424,13340 10424,13339 10424,13299 10414,13300 10413,13300 10411,13299 10411,13299 10410,13299 10410,13299 10409,13298 10409,13298 10409,13297 10408,13296 10408,13296 10408,13295 10408,13294 10408,13293 10408,13292 10408,13290 10408,13289 10408,13287 10408,13285 10408,13283 10408,13281 10408,13279 10408,13278 10408,13276 10408,13274 10407,13272 10407,13270 10407,13268 10407,13266 10407,13264 10407,13262 10407,13259 10406,13257 10406,13255 10405,13253 10405,13251 10405,13248 10404,13246 10404,13244 10403,13243 10403,13241 10403,13239 10402,13238 10402,13237 10402,13236 10402,13235 10402,13234 10402,13232 10402,13230 10403,13227 10404,13225 10404,13224 10404,13223 10405,13222 10405,13221 10406,13219 10407,13218 10408,13216 10409,13215 10411,13214 10412,13212 10414,13211 10415,13210 10416,13209 10417,13209 10419,13208 10420,13208 10421,13207 10422,13206 10424,13206 10425,13206 10426,13206 10427,13205 10469,13151 10469,13150 10470,13149 10471,13149 10471,13148 10472,13148 10472,13148 10473,13147 10474,13147 10475,13147 10476,13147 10477,13147 10478,13147 10630,13147 10631,13147 10632,13147 10633,13147 10634,13147 10635,13148 10635,13148 10636,13148 10637,13148 10637,13149 10638,13149 10638,13150 10639,13152 10682,13206 10683,13206 10684,13206 10685,13207 10685,13207 10687,13208 10689,13209 10692,13210 10693,13211 10695,13212 10696,13213 10697,13214 10698,13215 10699,13216 10700,13218 10701,13219 10702,13220 10702,13222 10703,13223 10704,13225 10704,13226 10705,13228 10705,13229 10705,13231 10706,13233 10706,13234 10705,13235 10705,13237 10705,13239 10704,13243 10704,13246 10703,13249 10703,13251 10702,13254 10702,13257 10702,13260 10701,13263 10701,13266 10701,13269 10701,13271 10700,13274 10700,13276 10700,13279 10700,13282 10700,13285 10700,13287 10700,13290 10701,13291 10701,13292 10701,13294 10701,13295 10701,13295 10700,13296 10700,13297 10700,13298 10699,13299 10699,13299 10698,13300 10697,13300 10696,13300 10695,13300 10684,13300 10670,13208 Z"/>
        <path fill="rgb(255,255,255)" stroke="none" d="M 10398,13681 L 10398,13682 10398,13683 10397,13684 10397,13685 10397,13686 10398,13687 10398,13688 10398,13689 10398,13690 10399,13691 10399,13691 10400,13692 10401,13693 10401,13693 10402,13694 10403,13694 10404,13694 10405,13694 10406,13695 10407,13695 10408,13695 10408,13695 10409,13694 10410,13694 10410,13694 10411,13694 10412,13694 10412,13693 10413,13693 10413,13692 10414,13692 10414,13691 10415,13690 10415,13690 10415,13689 10416,13689 10424,13693 10423,13694 10422,13695 10421,13696 10421,13697 10420,13698 10419,13699 10418,13700 10417,13700 10416,13701 10414,13702 10413,13702 10412,13703 10411,13703 10409,13703 10408,13703 10407,13704 10406,13704 10405,13703 10404,13703 10403,13703 10402,13703 10401,13703 10400,13702 10399,13702 10399,13702 10398,13701 10397,13701 10397,13700 10396,13700 10395,13700 10394,13699 10394,13698 10393,13698 10393,13697 10392,13696 10392,13696 10391,13694 10390,13693 10390,13692 10389,13691 10389,13690 10389,13689 10389,13688 10389,13687 10388,13686 10388,13685 10388,13684 10389,13683 10389,13682 10389,13681 10389,13680 10390,13679 10390,13678 10391,13677 10398,13681 Z"/>
        <path fill="rgb(255,255,255)" stroke="none" d="M 10416,13682 L 10418,13682 10424,13680 10424,13679 10423,13677 10422,13676 10422,13675 10421,13674 10420,13673 10419,13672 10418,13671 10416,13670 10415,13669 10414,13669 10413,13668 10411,13668 10410,13668 10409,13668 10407,13667 10405,13668 10404,13668 10402,13668 10401,13668 10404,13676 10406,13676 10407,13676 10408,13676 10408,13676 10409,13677 10410,13677 10410,13677 10411,13677 10412,13678 10412,13678 10413,13679 10414,13680 10415,13681 10416,13682 Z"/>
       </g>
      </g>
     </g>
    </g>
   </g>
  </g>
 </g>
</svg>