<?xml version="1.0" encoding="UTF-8"?>
<!DOCTYPE svg PUBLIC "-//W3C//DTD SVG 1.1//EN" "http://www.w3.org/Graphics/SVG/1.1/DTD/svg11.dtd">
<svg version="1.2" width="50mm" height="41.75mm" viewBox="8048 12820 5000 4175" preserveAspectRatio="xMidYMid" fill-rule="evenodd" stroke-width="28.222" stroke-linejoin="round" xmlns="http://www.w3.org/2000/svg" xmlns:ooo="http://xml.openoffice.org/svg/export" xmlns:xlink="http://www.w3.org/1999/xlink" xmlns:presentation="http://sun.com/xmlns/staroffice/presentation" xmlns:smil="http://www.w3.org/2001/SMIL20/" xmlns:anim="urn:oasis:names:tc:opendocument:xmlns:animation:1.0" xml:space="preserve">
 <defs class="ClipPathGroup">
  <clipPath id="presentation_clip_path" clipPathUnits="userSpaceOnUse">
   <rect x="8048" y="12820" width="5000" height="4175"/>
  </clipPath>
  <clipPath id="presentation_clip_path_shrink" clipPathUnits="userSpaceOnUse">
   <rect x="8053" y="12824" width="4990" height="4167"/>
  </clipPath>
 </defs>
 <defs class="TextShapeIndex">
  <g ooo:slide="id1" ooo:id-list="id3"/>
 </defs>
 <defs class="EmbeddedBulletChars">
  <g id="bullet-char-template-57356" transform="scale(0.00048828125,-0.00048828125)">
   <path d="M 580,1141 L 1163,571 580,0 -4,571 580,1141 Z"/>
  </g>
  <g id="bullet-char-template-57354" transform="scale(0.00048828125,-0.00048828125)">
   <path d="M 8,1128 L 1137,1128 1137,0 8,0 8,1128 Z"/>
  </g>
  <g id="bullet-char-template-10146" transform="scale(0.00048828125,-0.00048828125)">
   <path d="M 174,0 L 602,739 174,1481 1456,739 174,0 Z M 1358,739 L 309,1346 659,739 1358,739 Z"/>
  </g>
  <g id="bullet-char-template-10132" transform="scale(0.00048828125,-0.00048828125)">
   <path d="M 2015,739 L 1276,0 717,0 1260,543 174,543 174,936 1260,936 717,1481 1274,1481 2015,739 Z"/>
  </g>
  <g id="bullet-char-template-10007" transform="scale(0.00048828125,-0.00048828125)">
   <path d="M 0,-2 C -7,14 -16,27 -25,37 L 356,567 C 262,823 215,952 215,954 215,979 228,992 255,992 264,992 276,990 289,987 310,991 331,999 354,1012 L 381,999 492,748 772,1049 836,1024 860,1049 C 881,1039 901,1025 922,1006 886,937 835,863 770,784 769,783 710,716 594,584 L 774,223 C 774,196 753,168 711,139 L 727,119 C 717,90 699,76 672,76 641,76 570,178 457,381 L 164,-76 C 142,-110 111,-127 72,-127 30,-127 9,-110 8,-76 1,-67 -2,-52 -2,-32 -2,-23 -1,-13 0,-2 Z"/>
  </g>
  <g id="bullet-char-template-10004" transform="scale(0.00048828125,-0.00048828125)">
   <path d="M 285,-33 C 182,-33 111,30 74,156 52,228 41,333 41,471 41,549 55,616 82,672 116,743 169,778 240,778 293,778 328,747 346,684 L 369,508 C 377,444 397,411 428,410 L 1163,1116 C 1174,1127 1196,1133 1229,1133 1271,1133 1292,1118 1292,1087 L 1292,965 C 1292,929 1282,901 1262,881 L 442,47 C 390,-6 338,-33 285,-33 Z"/>
  </g>
  <g id="bullet-char-template-9679" transform="scale(0.00048828125,-0.00048828125)">
   <path d="M 813,0 C 632,0 489,54 383,161 276,268 223,411 223,592 223,773 276,916 383,1023 489,1130 632,1184 813,1184 992,1184 1136,1130 1245,1023 1353,916 1407,772 1407,592 1407,412 1353,268 1245,161 1136,54 992,0 813,0 Z"/>
  </g>
  <g id="bullet-char-template-8226" transform="scale(0.00048828125,-0.00048828125)">
   <path d="M 346,457 C 273,457 209,483 155,535 101,586 74,649 74,723 74,796 101,859 155,911 209,963 273,989 346,989 419,989 480,963 531,910 582,859 608,796 608,723 608,648 583,586 532,535 482,483 420,457 346,457 Z"/>
  </g>
  <g id="bullet-char-template-8211" transform="scale(0.00048828125,-0.00048828125)">
   <path d="M -4,459 L 1135,459 1135,606 -4,606 -4,459 Z"/>
  </g>
  <g id="bullet-char-template-61548" transform="scale(0.00048828125,-0.00048828125)">
   <path d="M 173,740 C 173,903 231,1043 346,1159 462,1274 601,1332 765,1332 928,1332 1067,1274 1183,1159 1299,1043 1357,903 1357,740 1357,577 1299,437 1183,322 1067,206 928,148 765,148 601,148 462,206 346,322 231,437 173,577 173,740 Z"/>
  </g>
 </defs>
 <defs class="TextEmbeddedBitmaps"/>
 <g class="SlideGroup">
  <g>
   <g id="container-id1">
    <g id="id1" class="Slide" clip-path="url(#presentation_clip_path)">
     <g class="Page">
      <g class="Graphic">
       <g id="id3">
        <rect class="BoundingBox" stroke="none" fill="none" x="8048" y="12820" width="5001" height="4176"/>
        <path fill="rgb(255,255,255)" stroke="none" d="M 12431,15502 L 10772,15502 10772,15083 12431,15083 12431,15502 Z"/>
        <path fill="rgb(255,255,255)" stroke="none" d="M 10239,15502 L 8581,15502 8581,15081 10239,15081 10239,15502 Z"/>
        <path fill="none" stroke="rgb(51,78,88)" stroke-width="8" stroke-linejoin="round" stroke-linecap="round" d="M 13045,16397 L 13045,15267"/>
        <path fill="none" stroke="rgb(51,78,88)" stroke-width="8" stroke-linejoin="round" stroke-linecap="round" d="M 12672,14892 L 12724,14895 12777,14906 12827,14925 12873,14951 12916,14984 12955,15021 12986,15063 13012,15112 13031,15162 13041,15213 13045,15267"/>
        <path fill="none" stroke="rgb(51,78,88)" stroke-width="8" stroke-linejoin="round" stroke-linecap="round" d="M 12672,14892 L 8427,14892"/>
        <path fill="none" stroke="rgb(51,78,88)" stroke-width="8" stroke-linejoin="round" stroke-linecap="round" d="M 8052,15267 L 8056,15213 8066,15162 8087,15112 8111,15063 8144,15021 8181,14984 8224,14951 8272,14925 8321,14906 8373,14895 8427,14892"/>
        <path fill="none" stroke="rgb(51,78,88)" stroke-width="8" stroke-linejoin="round" stroke-linecap="round" d="M 8052,15267 L 8052,16397"/>
        <path fill="none" stroke="rgb(51,78,88)" stroke-width="8" stroke-linejoin="round" stroke-linecap="round" d="M 8089,16397 L 8089,16992"/>
        <path fill="none" stroke="rgb(51,78,88)" stroke-width="8" stroke-linejoin="round" stroke-linecap="round" d="M 8052,16397 L 8052,16992"/>
        <path fill="none" stroke="rgb(51,78,88)" stroke-width="8" stroke-linejoin="round" stroke-linecap="round" d="M 8089,16397 L 8089,15267 8091,15219 8102,15171 8118,15126 8142,15084 8170,15045 8205,15010 8244,14980 8286,14958 8331,14942 8379,14930 8427,14927 12672,14927 12720,14930 12766,14942 12812,14958 12855,14980 12894,15010 12927,15045 12956,15084 12981,15126 12997,15171 13006,15219 13010,15267"/>
        <path fill="none" stroke="rgb(51,78,88)" stroke-width="8" stroke-linejoin="round" stroke-linecap="round" d="M 8089,16416 L 13010,16416"/>
        <path fill="none" stroke="rgb(51,78,88)" stroke-width="8" stroke-linejoin="round" stroke-linecap="round" d="M 8089,16379 L 13010,16379"/>
        <path fill="none" stroke="rgb(51,78,88)" stroke-width="8" stroke-linejoin="round" stroke-linecap="round" d="M 13045,16397 L 13045,16992"/>
        <path fill="none" stroke="rgb(51,78,88)" stroke-width="8" stroke-linejoin="round" stroke-linecap="round" d="M 13010,16992 L 13010,16397 13010,15267"/>
        <path fill="none" stroke="rgb(51,78,88)" stroke-width="8" stroke-linejoin="round" stroke-linecap="round" d="M 12653,14927 L 12653,16379"/>
        <path fill="none" stroke="rgb(51,78,88)" stroke-width="8" stroke-linejoin="round" stroke-linecap="round" d="M 12417,14927 L 12417,16379"/>
        <path fill="none" stroke="rgb(51,78,88)" stroke-width="8" stroke-linejoin="round" stroke-linecap="round" d="M 12454,14927 L 12454,16379"/>
        <path fill="none" stroke="rgb(51,78,88)" stroke-width="8" stroke-linejoin="round" stroke-linecap="round" d="M 12182,14927 L 12182,16379"/>
        <path fill="none" stroke="rgb(51,78,88)" stroke-width="8" stroke-linejoin="round" stroke-linecap="round" d="M 12218,14927 L 12218,16379"/>
        <path fill="none" stroke="rgb(51,78,88)" stroke-width="8" stroke-linejoin="round" stroke-linecap="round" d="M 11239,14927 L 11239,16379"/>
        <path fill="none" stroke="rgb(51,78,88)" stroke-width="8" stroke-linejoin="round" stroke-linecap="round" d="M 11274,14927 L 11274,16379"/>
        <path fill="none" stroke="rgb(51,78,88)" stroke-width="8" stroke-linejoin="round" stroke-linecap="round" d="M 11002,14927 L 11002,16379"/>
        <path fill="none" stroke="rgb(51,78,88)" stroke-width="8" stroke-linejoin="round" stroke-linecap="round" d="M 11039,14927 L 11039,16379"/>
        <path fill="none" stroke="rgb(51,78,88)" stroke-width="8" stroke-linejoin="round" stroke-linecap="round" d="M 10767,14927 L 10767,16379"/>
        <path fill="none" stroke="rgb(51,78,88)" stroke-width="8" stroke-linejoin="round" stroke-linecap="round" d="M 10803,14927 L 10803,16379"/>
        <path fill="none" stroke="rgb(51,78,88)" stroke-width="8" stroke-linejoin="round" stroke-linecap="round" d="M 10531,14927 L 10531,16379"/>
        <path fill="none" stroke="rgb(51,78,88)" stroke-width="8" stroke-linejoin="round" stroke-linecap="round" d="M 10568,14927 L 10568,16379"/>
        <path fill="none" stroke="rgb(51,78,88)" stroke-width="8" stroke-linejoin="round" stroke-linecap="round" d="M 10296,14927 L 10296,16379"/>
        <path fill="none" stroke="rgb(51,78,88)" stroke-width="8" stroke-linejoin="round" stroke-linecap="round" d="M 10331,14927 L 10331,16379"/>
        <path fill="none" stroke="rgb(51,78,88)" stroke-width="8" stroke-linejoin="round" stroke-linecap="round" d="M 10060,14927 L 10060,16379"/>
        <path fill="none" stroke="rgb(51,78,88)" stroke-width="8" stroke-linejoin="round" stroke-linecap="round" d="M 10095,14927 L 10095,16379"/>
        <path fill="none" stroke="rgb(51,78,88)" stroke-width="8" stroke-linejoin="round" stroke-linecap="round" d="M 9823,14927 L 9823,16379"/>
        <path fill="none" stroke="rgb(51,78,88)" stroke-width="8" stroke-linejoin="round" stroke-linecap="round" d="M 9860,14927 L 9860,16379"/>
        <path fill="none" stroke="rgb(51,78,88)" stroke-width="8" stroke-linejoin="round" stroke-linecap="round" d="M 9589,14927 L 9589,15084"/>
        <path fill="none" stroke="rgb(51,78,88)" stroke-width="8" stroke-linejoin="round" stroke-linecap="round" d="M 9624,14927 L 9624,15084"/>
        <path fill="none" stroke="rgb(51,78,88)" stroke-width="8" stroke-linejoin="round" stroke-linecap="round" d="M 8881,14927 L 8881,16379"/>
        <path fill="none" stroke="rgb(51,78,88)" stroke-width="8" stroke-linejoin="round" stroke-linecap="round" d="M 8917,14927 L 8917,16379"/>
        <path fill="none" stroke="rgb(51,78,88)" stroke-width="8" stroke-linejoin="round" stroke-linecap="round" d="M 8645,14927 L 8645,16379"/>
        <path fill="none" stroke="rgb(51,78,88)" stroke-width="8" stroke-linejoin="round" stroke-linecap="round" d="M 8680,14927 L 8680,16379"/>
        <path fill="none" stroke="rgb(51,78,88)" stroke-width="8" stroke-linejoin="round" stroke-linecap="round" d="M 8409,14927 L 8409,16379"/>
        <path fill="none" stroke="rgb(51,78,88)" stroke-width="8" stroke-linejoin="round" stroke-linecap="round" d="M 8446,14927 L 8446,16379"/>
        <path fill="none" stroke="rgb(51,78,88)" stroke-width="8" stroke-linejoin="round" stroke-linecap="round" d="M 8052,16992 L 8089,16992"/>
        <path fill="none" stroke="rgb(51,78,88)" stroke-width="8" stroke-linejoin="round" stroke-linecap="round" d="M 13010,16992 L 13045,16992"/>
        <path fill="rgb(38,46,52)" stroke="none" d="M 8052,16397 L 8089,16992 8052,16992 8052,16397 Z"/>
        <path fill="rgb(38,46,52)" stroke="none" d="M 13010,16397 L 13045,16992 13010,16992 13010,16397 Z"/>
        <path fill="rgb(38,46,52)" stroke="none" d="M 8089,16397 L 8089,16992 8052,16397 8089,16397 Z"/>
        <path fill="rgb(38,46,52)" stroke="none" d="M 13045,16397 L 13045,16992 13010,16397 13045,16397 Z"/>
        <path fill="rgb(38,46,52)" stroke="none" d="M 13010,15267 L 13045,16397 13010,16397 13010,15267 Z"/>
        <path fill="rgb(38,46,52)" stroke="none" d="M 8052,15267 L 8089,16397 8052,16397 8052,15267 Z"/>
        <path fill="rgb(38,46,52)" stroke="none" d="M 13045,15267 L 13045,16397 13010,15267 13045,15267 Z"/>
        <path fill="rgb(38,46,52)" stroke="none" d="M 8089,15267 L 8089,16397 8052,15267 8089,15267 Z"/>
        <path fill="rgb(38,46,52)" stroke="none" d="M 13006,15219 L 13045,15267 13010,15267 13006,15219 Z"/>
        <path fill="rgb(38,46,52)" stroke="none" d="M 8091,15219 L 8089,15267 8052,15267 8091,15219 Z"/>
        <path fill="rgb(38,46,52)" stroke="none" d="M 8056,15213 L 8091,15219 8052,15267 8056,15213 Z"/>
        <path fill="rgb(38,46,52)" stroke="none" d="M 13041,15213 L 13045,15267 13006,15219 13041,15213 Z"/>
        <path fill="rgb(38,46,52)" stroke="none" d="M 8102,15171 L 8091,15219 8056,15213 8102,15171 Z"/>
        <path fill="rgb(38,46,52)" stroke="none" d="M 12997,15171 L 13041,15213 13006,15219 12997,15171 Z"/>
        <path fill="rgb(38,46,52)" stroke="none" d="M 8066,15162 L 8102,15171 8056,15213 8066,15162 Z"/>
        <path fill="rgb(38,46,52)" stroke="none" d="M 13031,15162 L 13041,15213 12997,15171 13031,15162 Z"/>
        <path fill="rgb(38,46,52)" stroke="none" d="M 12981,15126 L 13031,15162 12997,15171 12981,15126 Z"/>
        <path fill="rgb(38,46,52)" stroke="none" d="M 8118,15126 L 8102,15171 8066,15162 8118,15126 Z"/>
        <path fill="rgb(38,46,52)" stroke="none" d="M 8087,15112 L 8118,15126 8066,15162 8087,15112 Z"/>
        <path fill="rgb(38,46,52)" stroke="none" d="M 13012,15112 L 13031,15162 12981,15126 13012,15112 Z"/>
        <path fill="rgb(38,46,52)" stroke="none" d="M 12956,15084 L 13012,15112 12981,15126 12956,15084 Z"/>
        <path fill="rgb(38,46,52)" stroke="none" d="M 8142,15084 L 8118,15126 8087,15112 8142,15084 Z"/>
        <path fill="rgb(38,46,52)" stroke="none" d="M 8111,15063 L 8142,15084 8087,15112 8111,15063 Z"/>
        <path fill="rgb(38,46,52)" stroke="none" d="M 12986,15063 L 13012,15112 12956,15084 12986,15063 Z"/>
        <path fill="rgb(38,46,52)" stroke="none" d="M 8170,15045 L 8142,15084 8111,15063 8170,15045 Z"/>
        <path fill="rgb(38,46,52)" stroke="none" d="M 12927,15045 L 12986,15063 12956,15084 12927,15045 Z"/>
        <path fill="rgb(38,46,52)" stroke="none" d="M 8144,15021 L 8170,15045 8111,15063 8144,15021 8144,15021 Z"/>
        <path fill="rgb(38,46,52)" stroke="none" d="M 12955,15021 L 12986,15063 12927,15045 12955,15021 Z"/>
        <path fill="rgb(38,46,52)" stroke="none" d="M 8205,15010 L 8170,15045 8144,15021 8205,15010 Z"/>
        <path fill="rgb(38,46,52)" stroke="none" d="M 12894,15010 L 12955,15021 12927,15045 12894,15010 Z"/>
        <path fill="rgb(38,46,52)" stroke="none" d="M 8181,14984 L 8205,15010 8144,15021 8181,14984 Z"/>
        <path fill="rgb(38,46,52)" stroke="none" d="M 12916,14984 L 12955,15021 12894,15010 12916,14984 Z"/>
        <path fill="rgb(38,46,52)" stroke="none" d="M 8244,14980 L 8205,15010 8181,14984 8244,14980 Z"/>
        <path fill="rgb(38,46,52)" stroke="none" d="M 12855,14980 L 12916,14984 12894,15010 12855,14980 Z"/>
        <path fill="rgb(38,46,52)" stroke="none" d="M 8286,14958 L 8244,14980 8181,14984 8286,14958 Z"/>
        <path fill="rgb(38,46,52)" stroke="none" d="M 12812,14958 L 12916,14984 12855,14980 12812,14958 Z"/>
        <path fill="rgb(38,46,52)" stroke="none" d="M 8224,14951 L 8286,14958 8181,14984 8224,14951 Z"/>
        <path fill="rgb(38,46,52)" stroke="none" d="M 12873,14951 L 12916,14984 12812,14958 12873,14951 Z"/>
        <path fill="rgb(38,46,52)" stroke="none" d="M 12766,14942 L 12873,14951 12812,14958 12766,14942 Z"/>
        <path fill="rgb(38,46,52)" stroke="none" d="M 8331,14942 L 8286,14958 8224,14951 8331,14942 Z"/>
        <path fill="rgb(38,46,52)" stroke="none" d="M 12720,14930 L 12873,14951 12766,14942 12720,14930 Z"/>
        <path fill="rgb(38,46,52)" stroke="none" d="M 8379,14930 L 8331,14942 8224,14951 8379,14930 Z"/>
        <path fill="rgb(38,46,52)" stroke="none" d="M 8272,14925 L 12672,14927 8427,14927 8272,14925 Z"/>
        <path fill="rgb(38,46,52)" stroke="none" d="M 8272,14925 L 8427,14927 8379,14930 8272,14925 Z"/>
        <path fill="rgb(38,46,52)" stroke="none" d="M 8272,14925 L 8379,14930 8224,14951 8272,14925 Z"/>
        <path fill="rgb(38,46,52)" stroke="none" d="M 12827,14925 L 12672,14927 8272,14925 12827,14925 Z"/>
        <path fill="rgb(38,46,52)" stroke="none" d="M 12827,14925 L 12720,14930 12672,14927 12827,14925 Z"/>
        <path fill="rgb(38,46,52)" stroke="none" d="M 12827,14925 L 12873,14951 12720,14930 12827,14925 Z"/>
        <path fill="rgb(38,46,52)" stroke="none" d="M 8321,14906 L 12827,14925 8272,14925 8321,14906 Z"/>
        <path fill="rgb(38,46,52)" stroke="none" d="M 12777,14906 L 12827,14925 8321,14906 12777,14906 Z"/>
        <path fill="rgb(38,46,52)" stroke="none" d="M 8373,14895 L 12777,14906 8321,14906 8373,14895 Z"/>
        <path fill="rgb(38,46,52)" stroke="none" d="M 12724,14895 L 12777,14906 8373,14895 12724,14895 Z"/>
        <path fill="rgb(38,46,52)" stroke="none" d="M 12724,14895 L 8427,14892 12672,14892 12724,14895 Z"/>
        <path fill="rgb(38,46,52)" stroke="none" d="M 8427,14892 L 12724,14895 8373,14895 8427,14892 Z"/>
        <path fill="rgb(38,46,52)" stroke="none" d="M 8089,16397 L 13010,16416 8089,16416 8089,16397 Z"/>
        <path fill="rgb(38,46,52)" stroke="none" d="M 13010,16397 L 13010,16416 8089,16397 13010,16397 Z"/>
        <path fill="rgb(38,46,52)" stroke="none" d="M 12653,16379 L 13010,16397 8089,16397 12653,16379 Z"/>
        <path fill="rgb(38,46,52)" stroke="none" d="M 10531,16379 L 12653,16379 8089,16397 10531,16379 Z"/>
        <path fill="rgb(38,46,52)" stroke="none" d="M 11709,16379 L 12653,16379 10531,16379 11709,16379 Z"/>
        <path fill="rgb(38,46,52)" stroke="none" d="M 12182,16379 L 12653,16379 11709,16379 12182,16379 Z"/>
        <path fill="rgb(38,46,52)" stroke="none" d="M 8409,16379 L 10531,16379 8089,16397 8409,16379 Z"/>
        <path fill="rgb(38,46,52)" stroke="none" d="M 10568,16379 L 11709,16379 10531,16379 10568,16379 Z"/>
        <path fill="rgb(38,46,52)" stroke="none" d="M 8446,16379 L 10531,16379 8409,16379 8446,16379 Z"/>
        <path fill="rgb(38,46,52)" stroke="none" d="M 11747,16379 L 12182,16379 11709,16379 11747,16379 Z"/>
        <path fill="rgb(38,46,52)" stroke="none" d="M 12218,16379 L 12653,16379 12182,16379 12218,16379 Z"/>
        <path fill="rgb(38,46,52)" stroke="none" d="M 12688,16379 L 13010,16397 12653,16379 12688,16379 Z"/>
        <path fill="rgb(38,46,52)" stroke="none" d="M 11946,16379 L 12182,16379 11747,16379 11946,16379 Z"/>
        <path fill="rgb(38,46,52)" stroke="none" d="M 12182,16379 L 11946,16379 11981,16379 12182,16379 Z"/>
        <path fill="rgb(38,46,52)" stroke="none" d="M 9624,16379 L 10531,16379 8446,16379 9624,16379 Z"/>
        <path fill="rgb(38,46,52)" stroke="none" d="M 10060,16379 L 10531,16379 9624,16379 10060,16379 Z"/>
        <path fill="rgb(38,46,52)" stroke="none" d="M 10531,16379 L 10060,16379 10095,16379 10531,16379 Z"/>
        <path fill="rgb(38,46,52)" stroke="none" d="M 8917,16379 L 9624,16379 8446,16379 8917,16379 Z"/>
        <path fill="rgb(38,46,52)" stroke="none" d="M 11475,16379 L 11709,16379 10568,16379 11475,16379 Z"/>
        <path fill="rgb(38,46,52)" stroke="none" d="M 11709,16379 L 11475,16379 11510,16379 11709,16379 Z"/>
        <path fill="rgb(38,46,52)" stroke="none" d="M 9352,16379 L 9624,16379 8917,16379 9352,16379 Z"/>
        <path fill="rgb(38,46,52)" stroke="none" d="M 9624,16379 L 9352,16379 9388,16379 9624,16379 Z"/>
        <path fill="rgb(38,46,52)" stroke="none" d="M 11039,16379 L 11475,16379 10568,16379 11039,16379 Z"/>
        <path fill="rgb(38,46,52)" stroke="none" d="M 8089,16379 L 8409,16379 8089,16397 8089,16379 Z"/>
        <path fill="rgb(38,46,52)" stroke="none" d="M 8881,16379 L 8917,16379 8446,16379 8881,16379 Z"/>
        <path fill="rgb(38,46,52)" stroke="none" d="M 9589,16379 L 9624,16379 9388,16379 9589,16379 Z"/>
        <path fill="rgb(38,46,52)" stroke="none" d="M 11002,16379 L 11039,16379 10568,16379 11002,16379 Z"/>
        <path fill="rgb(38,46,52)" stroke="none" d="M 8680,16379 L 8881,16379 8446,16379 8680,16379 Z"/>
        <path fill="rgb(38,46,52)" stroke="none" d="M 8446,16379 L 8645,16379 8680,16379 8446,16379 Z"/>
        <path fill="rgb(38,46,52)" stroke="none" d="M 12417,16379 L 12653,16379 12218,16379 12417,16379 Z"/>
        <path fill="rgb(38,46,52)" stroke="none" d="M 12653,16379 L 12417,16379 12454,16379 12653,16379 Z"/>
        <path fill="rgb(38,46,52)" stroke="none" d="M 9153,16379 L 9352,16379 8917,16379 9153,16379 Z"/>
        <path fill="rgb(38,46,52)" stroke="none" d="M 8917,16379 L 9116,16379 9153,16379 8917,16379 Z"/>
        <path fill="rgb(38,46,52)" stroke="none" d="M 10803,16379 L 11002,16379 10568,16379 10803,16379 Z"/>
        <path fill="rgb(38,46,52)" stroke="none" d="M 10568,16379 L 10767,16379 10803,16379 10568,16379 Z"/>
        <path fill="rgb(38,46,52)" stroke="none" d="M 9860,16379 L 10060,16379 9624,16379 9860,16379 Z"/>
        <path fill="rgb(38,46,52)" stroke="none" d="M 9624,16379 L 9823,16379 9860,16379 9624,16379 Z"/>
        <path fill="rgb(38,46,52)" stroke="none" d="M 10296,16379 L 10531,16379 10095,16379 10296,16379 Z"/>
        <path fill="rgb(38,46,52)" stroke="none" d="M 10531,16379 L 10296,16379 10331,16379 10531,16379 Z"/>
        <path fill="rgb(38,46,52)" stroke="none" d="M 11274,16379 L 11475,16379 11039,16379 11274,16379 Z"/>
        <path fill="rgb(38,46,52)" stroke="none" d="M 13010,16379 L 13010,16397 12688,16379 13010,16379 Z"/>
        <path fill="rgb(38,46,52)" stroke="none" d="M 12653,14927 L 12672,14927 12653,16379 12653,14927 Z"/>
        <path fill="rgb(38,46,52)" stroke="none" d="M 12679,14927 L 12653,16379 12672,14927 12679,14927 Z"/>
        <path fill="rgb(38,46,52)" stroke="none" d="M 12653,16379 L 12679,14927 12688,16379 12653,16379 Z"/>
        <path fill="rgb(38,46,52)" stroke="none" d="M 12688,14929 L 12688,16379 12679,14927 12688,14929 Z"/>
        <path fill="none" stroke="rgb(51,78,88)" stroke-width="8" stroke-linejoin="round" stroke-linecap="round" d="M 12688,14927 L 12688,16379"/>
        <path fill="none" stroke="rgb(51,78,88)" stroke-width="8" stroke-linejoin="round" stroke-linecap="round" d="M 10736,15084 L 12718,15084"/>
        <path fill="none" stroke="rgb(51,78,88)" stroke-width="8" stroke-linejoin="round" stroke-linecap="round" d="M 11397,15084 L 11397,15082"/>
        <path fill="none" stroke="rgb(51,78,88)" stroke-width="8" stroke-linejoin="round" stroke-linecap="round" d="M 12057,15084 L 12057,15500"/>
        <path fill="none" stroke="rgb(51,78,88)" stroke-width="8" stroke-linejoin="round" stroke-linecap="round" d="M 11397,15084 L 11397,15500"/>
        <path fill="rgb(213,51,42)" stroke="none" d="M 12387,15291 L 12057,15084 12718,15084 12387,15291 Z"/>
        <path fill="rgb(213,51,42)" stroke="none" d="M 12387,15291 L 12718,15084 12718,15500 12387,15291 Z"/>
        <path fill="rgb(213,51,42)" stroke="none" d="M 12387,15291 L 12718,15500 12057,15500 12387,15291 Z"/>
        <path fill="rgb(213,51,42)" stroke="none" d="M 12387,15291 L 12057,15500 12057,15084 12387,15291 Z"/>
        <path fill="rgb(213,51,42)" stroke="none" d="M 11066,15291 L 10736,15084 11397,15084 11066,15291 Z"/>
        <path fill="rgb(213,51,42)" stroke="none" d="M 11066,15291 L 11397,15084 11397,15500 11066,15291 Z"/>
        <path fill="rgb(213,51,42)" stroke="none" d="M 11066,15291 L 11397,15500 10736,15500 11066,15291 Z"/>
        <path fill="rgb(213,51,42)" stroke="none" d="M 11066,15291 L 10736,15500 10736,15084 11066,15291 Z"/>
        <path fill="none" stroke="rgb(51,78,88)" stroke-width="8" stroke-linejoin="round" stroke-linecap="round" d="M 12718,15084 L 10736,15084"/>
        <path fill="none" stroke="rgb(51,78,88)" stroke-width="8" stroke-linejoin="round" stroke-linecap="round" d="M 9039,15084 L 9039,15082"/>
        <path fill="none" stroke="rgb(51,78,88)" stroke-width="8" stroke-linejoin="round" stroke-linecap="round" d="M 9700,15084 L 9700,15500"/>
        <path fill="none" stroke="rgb(51,78,88)" stroke-width="8" stroke-linejoin="round" stroke-linecap="round" d="M 9039,15084 L 9039,15500"/>
        <path fill="rgb(213,51,42)" stroke="none" d="M 10030,15291 L 9700,15084 10361,15084 10030,15291 Z"/>
        <path fill="rgb(213,51,42)" stroke="none" d="M 10030,15291 L 10361,15084 10361,15500 10030,15291 Z"/>
        <path fill="rgb(213,51,42)" stroke="none" d="M 10030,15291 L 10361,15500 9700,15500 10030,15291 Z"/>
        <path fill="rgb(213,51,42)" stroke="none" d="M 10030,15291 L 9700,15500 9700,15084 10030,15291 Z"/>
        <path fill="rgb(213,51,42)" stroke="none" d="M 8708,15291 L 8377,15084 9039,15084 8708,15291 Z"/>
        <path fill="rgb(213,51,42)" stroke="none" d="M 8708,15291 L 9039,15084 9039,15500 8708,15291 Z"/>
        <path fill="rgb(213,51,42)" stroke="none" d="M 8708,15291 L 9039,15500 8377,15500 8708,15291 8708,15291 Z"/>
        <path fill="rgb(213,51,42)" stroke="none" d="M 8708,15291 L 8377,15500 8377,15084 8708,15291 Z"/>
        <path fill="none" stroke="rgb(51,78,88)" stroke-width="8" stroke-linejoin="round" stroke-linecap="round" d="M 9589,15500 L 9589,16379"/>
        <path fill="none" stroke="rgb(51,78,88)" stroke-width="8" stroke-linejoin="round" stroke-linecap="round" d="M 9624,15500 L 9624,16379"/>
        <path fill="none" stroke="rgb(51,78,88)" stroke-width="8" stroke-linejoin="round" stroke-linecap="round" d="M 9352,14927 L 9352,15084"/>
        <path fill="none" stroke="rgb(51,78,88)" stroke-width="8" stroke-linejoin="round" stroke-linecap="round" d="M 9388,14927 L 9388,15084"/>
        <path fill="none" stroke="rgb(51,78,88)" stroke-width="8" stroke-linejoin="round" stroke-linecap="round" d="M 9352,15500 L 9352,16379"/>
        <path fill="none" stroke="rgb(51,78,88)" stroke-width="8" stroke-linejoin="round" stroke-linecap="round" d="M 9388,15500 L 9388,16379"/>
        <path fill="none" stroke="rgb(51,78,88)" stroke-width="8" stroke-linejoin="round" stroke-linecap="round" d="M 9116,14927 L 9116,15084"/>
        <path fill="none" stroke="rgb(51,78,88)" stroke-width="8" stroke-linejoin="round" stroke-linecap="round" d="M 9153,14927 L 9153,15084"/>
        <path fill="none" stroke="rgb(51,78,88)" stroke-width="8" stroke-linejoin="round" stroke-linecap="round" d="M 9116,15500 L 9116,16379"/>
        <path fill="none" stroke="rgb(51,78,88)" stroke-width="8" stroke-linejoin="round" stroke-linecap="round" d="M 9153,15500 L 9153,16379"/>
        <path fill="none" stroke="rgb(51,78,88)" stroke-width="8" stroke-linejoin="round" stroke-linecap="round" d="M 11946,14927 L 11946,15084"/>
        <path fill="none" stroke="rgb(51,78,88)" stroke-width="8" stroke-linejoin="round" stroke-linecap="round" d="M 11981,14927 L 11981,15084"/>
        <path fill="none" stroke="rgb(51,78,88)" stroke-width="8" stroke-linejoin="round" stroke-linecap="round" d="M 11946,15500 L 11946,16379"/>
        <path fill="none" stroke="rgb(51,78,88)" stroke-width="8" stroke-linejoin="round" stroke-linecap="round" d="M 11981,15500 L 11981,16379"/>
        <path fill="none" stroke="rgb(51,78,88)" stroke-width="8" stroke-linejoin="round" stroke-linecap="round" d="M 11709,14927 L 11709,15084"/>
        <path fill="none" stroke="rgb(51,78,88)" stroke-width="8" stroke-linejoin="round" stroke-linecap="round" d="M 11747,14927 L 11747,15084"/>
        <path fill="none" stroke="rgb(51,78,88)" stroke-width="8" stroke-linejoin="round" stroke-linecap="round" d="M 11709,15500 L 11709,16379"/>
        <path fill="none" stroke="rgb(51,78,88)" stroke-width="8" stroke-linejoin="round" stroke-linecap="round" d="M 11747,15500 L 11747,16379"/>
        <path fill="none" stroke="rgb(51,78,88)" stroke-width="8" stroke-linejoin="round" stroke-linecap="round" d="M 11475,14927 L 11475,15084"/>
        <path fill="none" stroke="rgb(51,78,88)" stroke-width="8" stroke-linejoin="round" stroke-linecap="round" d="M 11510,14927 L 11510,15084"/>
        <path fill="none" stroke="rgb(51,78,88)" stroke-width="8" stroke-linejoin="round" stroke-linecap="round" d="M 11475,15500 L 11475,16379"/>
        <path fill="none" stroke="rgb(51,78,88)" stroke-width="8" stroke-linejoin="round" stroke-linecap="round" d="M 11510,15500 L 11510,16379"/>
        <path fill="rgb(38,46,52)" stroke="none" d="M 11747,16379 L 11709,15500 11747,15500 11747,16379 Z"/>
        <path fill="rgb(38,46,52)" stroke="none" d="M 11709,15500 L 11747,16379 11709,16379 11709,15500 Z"/>
        <path fill="rgb(38,46,52)" stroke="none" d="M 11946,16379 L 11946,15500 11981,15500 11946,16379 Z"/>
        <path fill="rgb(38,46,52)" stroke="none" d="M 11981,15500 L 11981,16379 11946,16379 11981,15500 Z"/>
        <path fill="rgb(38,46,52)" stroke="none" d="M 11475,15500 L 11510,16379 11475,16379 11475,15500 Z"/>
        <path fill="rgb(38,46,52)" stroke="none" d="M 11510,15500 L 11510,16379 11475,15500 11510,15500 Z"/>
        <path fill="rgb(38,46,52)" stroke="none" d="M 11747,14927 L 11747,15084 11709,15084 11747,14927 Z"/>
        <path fill="rgb(38,46,52)" stroke="none" d="M 11709,14927 L 11747,14927 11709,15084 11709,14927 Z"/>
        <path fill="rgb(38,46,52)" stroke="none" d="M 11946,15084 L 11946,14927 11981,14927 11946,15084 Z"/>
        <path fill="rgb(38,46,52)" stroke="none" d="M 11981,14927 L 11981,15084 11946,15084 11981,14927 Z"/>
        <path fill="rgb(38,46,52)" stroke="none" d="M 11510,14927 L 11510,15084 11475,15084 11510,14927 Z"/>
        <path fill="rgb(38,46,52)" stroke="none" d="M 11475,14927 L 11510,14927 11475,15084 11475,14927 Z"/>
        <path fill="rgb(38,46,52)" stroke="none" d="M 9153,15500 L 9153,16379 9116,16379 9153,15500 Z"/>
        <path fill="rgb(38,46,52)" stroke="none" d="M 9116,15500 L 9153,15500 9116,16379 9116,15500 Z"/>
        <path fill="rgb(38,46,52)" stroke="none" d="M 9352,16379 L 9352,15500 9388,15500 9352,16379 Z"/>
        <path fill="rgb(38,46,52)" stroke="none" d="M 9388,15500 L 9388,16379 9352,16379 9388,15500 Z"/>
        <path fill="rgb(38,46,52)" stroke="none" d="M 9589,15500 L 9624,16379 9589,16379 9589,15500 Z"/>
        <path fill="rgb(38,46,52)" stroke="none" d="M 9624,15500 L 9624,16379 9589,15500 9624,15500 Z"/>
        <path fill="rgb(38,46,52)" stroke="none" d="M 9589,14927 L 9624,15084 9589,15084 9589,14927 Z"/>
        <path fill="rgb(38,46,52)" stroke="none" d="M 9624,14927 L 9624,15084 9589,14927 9624,14927 Z"/>
        <path fill="rgb(38,46,52)" stroke="none" d="M 9116,14927 L 9153,15084 9116,15084 9116,14927 Z"/>
        <path fill="rgb(38,46,52)" stroke="none" d="M 9352,14927 L 9388,15084 9352,15084 9352,14927 Z"/>
        <path fill="rgb(38,46,52)" stroke="none" d="M 9153,14927 L 9153,15084 9116,14927 9153,14927 Z"/>
        <path fill="rgb(38,46,52)" stroke="none" d="M 9388,14927 L 9388,15084 9352,14927 9388,14927 Z"/>
        <path fill="rgb(38,46,52)" stroke="none" d="M 8446,15500 L 8446,16379 8409,16379 8446,15500 Z"/>
        <path fill="rgb(38,46,52)" stroke="none" d="M 8409,15500 L 8446,15500 8409,16379 8409,15500 Z"/>
        <path fill="rgb(38,46,52)" stroke="none" d="M 8881,15500 L 8917,16379 8881,16379 8881,15500 Z"/>
        <path fill="rgb(38,46,52)" stroke="none" d="M 8645,15500 L 8680,16379 8645,16379 8645,15500 Z"/>
        <path fill="rgb(38,46,52)" stroke="none" d="M 8680,15500 L 8680,16379 8645,15500 8680,15500 Z"/>
        <path fill="rgb(38,46,52)" stroke="none" d="M 8917,15500 L 8917,16379 8881,15500 8917,15500 Z"/>
        <path fill="rgb(38,46,52)" stroke="none" d="M 8409,14929 L 8446,15084 8409,15084 8409,14929 Z"/>
        <path fill="rgb(38,46,52)" stroke="none" d="M 8418,14927 L 8446,15084 8409,14929 8418,14927 Z"/>
        <path fill="rgb(38,46,52)" stroke="none" d="M 8680,15084 L 8645,14927 8680,14927 8680,15084 Z"/>
        <path fill="rgb(38,46,52)" stroke="none" d="M 8645,14927 L 8680,15084 8645,15084 8645,14927 Z"/>
        <path fill="rgb(38,46,52)" stroke="none" d="M 8881,14927 L 8917,15084 8881,15084 8881,14927 Z"/>
        <path fill="rgb(38,46,52)" stroke="none" d="M 8446,14927 L 8446,15084 8418,14927 8446,14927 Z"/>
        <path fill="rgb(38,46,52)" stroke="none" d="M 8427,14927 L 8446,14927 8418,14927 8427,14927 Z"/>
        <path fill="rgb(38,46,52)" stroke="none" d="M 8917,14927 L 8917,15084 8881,14927 8917,14927 Z"/>
        <path fill="none" stroke="rgb(51,78,88)" stroke-width="8" stroke-linejoin="round" stroke-linecap="round" d="M 12718,15084 L 12718,15500 10736,15500 10736,15084"/>
        <path fill="rgb(38,46,52)" stroke="none" d="M 12417,16379 L 12417,15500 12454,15500 12417,16379 Z"/>
        <path fill="rgb(38,46,52)" stroke="none" d="M 12454,15500 L 12454,16379 12417,16379 12454,15500 Z"/>
        <path fill="rgb(38,46,52)" stroke="none" d="M 12182,16379 L 12182,15500 12218,15500 12182,16379 Z"/>
        <path fill="rgb(38,46,52)" stroke="none" d="M 12218,15500 L 12218,16379 12182,16379 12218,15500 Z"/>
        <path fill="rgb(38,46,52)" stroke="none" d="M 12454,14927 L 12454,15084 12417,15084 12454,14927 Z"/>
        <path fill="rgb(38,46,52)" stroke="none" d="M 12417,14927 L 12454,14927 12417,15084 12417,14927 Z"/>
        <path fill="rgb(38,46,52)" stroke="none" d="M 12182,15084 L 12182,14927 12218,14927 12182,15084 Z"/>
        <path fill="rgb(38,46,52)" stroke="none" d="M 12218,14927 L 12218,15084 12182,15084 12218,14927 Z"/>
        <path fill="none" stroke="rgb(51,78,88)" stroke-width="8" stroke-linejoin="round" stroke-linecap="round" d="M 8377,15084 L 10361,15084 10361,15500 8377,15500 8377,15084 10361,15084"/>
        <path fill="rgb(38,46,52)" stroke="none" d="M 11274,16379 L 11239,15500 11274,15500 11274,16379 Z"/>
        <path fill="rgb(38,46,52)" stroke="none" d="M 11239,15500 L 11274,16379 11239,16379 11239,15500 Z"/>
        <path fill="rgb(38,46,52)" stroke="none" d="M 11002,15500 L 11039,16379 11002,16379 11002,15500 Z"/>
        <path fill="rgb(38,46,52)" stroke="none" d="M 11039,15500 L 11039,16379 11002,15500 11039,15500 Z"/>
        <path fill="rgb(38,46,52)" stroke="none" d="M 10767,15500 L 10803,16379 10767,16379 10767,15500 Z"/>
        <path fill="rgb(38,46,52)" stroke="none" d="M 10803,15500 L 10803,16379 10767,15500 10803,15500 Z"/>
        <path fill="rgb(38,46,52)" stroke="none" d="M 11239,15084 L 11239,14927 11274,14927 11239,15084 Z"/>
        <path fill="rgb(38,46,52)" stroke="none" d="M 11274,14927 L 11274,15084 11239,15084 11274,14927 Z"/>
        <path fill="rgb(38,46,52)" stroke="none" d="M 11039,15084 L 11002,14927 11039,14927 11039,15084 Z"/>
        <path fill="rgb(38,46,52)" stroke="none" d="M 11002,14927 L 11039,15084 11002,15084 11002,14927 Z"/>
        <path fill="rgb(38,46,52)" stroke="none" d="M 10767,15084 L 10767,14927 10803,14927 10767,15084 Z"/>
        <path fill="rgb(38,46,52)" stroke="none" d="M 10803,14927 L 10803,15084 10767,15084 10803,14927 Z"/>
        <path fill="rgb(38,46,52)" stroke="none" d="M 10296,16379 L 10296,15500 10331,15500 10296,16379 Z"/>
        <path fill="rgb(38,46,52)" stroke="none" d="M 10331,15500 L 10331,16379 10296,16379 10331,15500 Z"/>
        <path fill="rgb(38,46,52)" stroke="none" d="M 10060,15500 L 10095,16379 10060,16379 10060,15500 Z"/>
        <path fill="rgb(38,46,52)" stroke="none" d="M 9860,15500 L 9860,16379 9823,16379 9860,15500 Z"/>
        <path fill="rgb(38,46,52)" stroke="none" d="M 10095,15500 L 10095,16379 10060,15500 10095,15500 Z"/>
        <path fill="rgb(38,46,52)" stroke="none" d="M 9823,15500 L 9860,15500 9823,16379 9823,15500 Z"/>
        <path fill="rgb(38,46,52)" stroke="none" d="M 10060,15084 L 10060,14927 10095,14927 10060,15084 Z"/>
        <path fill="rgb(38,46,52)" stroke="none" d="M 10095,14927 L 10095,15084 10060,15084 10095,14927 Z"/>
        <path fill="rgb(38,46,52)" stroke="none" d="M 9823,14927 L 9860,15084 9823,15084 9823,14927 Z"/>
        <path fill="rgb(38,46,52)" stroke="none" d="M 10296,15084 L 10296,14927 10331,14927 10296,15084 Z"/>
        <path fill="rgb(38,46,52)" stroke="none" d="M 10331,14927 L 10331,15084 10296,15084 10331,14927 Z"/>
        <path fill="rgb(38,46,52)" stroke="none" d="M 9860,14927 L 9860,15084 9823,14927 9860,14927 Z"/>
        <path fill="rgb(38,46,52)" stroke="none" d="M 10549,15653 L 10531,14927 10568,14927 10549,15653 Z"/>
        <path fill="rgb(38,46,52)" stroke="none" d="M 10549,15653 L 10568,14927 10568,16379 10549,15653 Z"/>
        <path fill="rgb(38,46,52)" stroke="none" d="M 10549,15653 L 10568,16379 10531,16379 10549,15653 Z"/>
        <path fill="rgb(38,46,52)" stroke="none" d="M 10549,15653 L 10531,16379 10531,14927 10549,15653 Z"/>
        <path fill="rgb(47,70,76)" stroke="none" d="M 9310,14253 L 11270,14253 11809,14559 11270,14866 9310,14866 9310,14253 Z"/>
        <path fill="rgb(224,135,57)" stroke="none" d="M 9346,14290 L 11260,14290 11539,14559 11260,14829 9346,14829 9346,14290 Z"/>
        <path fill="rgb(255,255,255)" stroke="none" d="M 9839,14245 L 11260,14245 11260,12824 9839,12824 9839,14245 Z"/>
        <path fill="none" stroke="rgb(41,55,58)" stroke-width="8" stroke-linejoin="round" stroke-linecap="round" d="M 9839,14245 L 11260,14245 11260,12824 9839,12824 9839,14245 Z"/>
        <path fill="rgb(0,88,154)" stroke="none" d="M 10691,13506 L 10691,14216 11231,14216 11231,12852 9868,12852 9868,14216 10407,14216 10407,13506 10194,13506 10194,13222 10905,13222 10905,13506 10691,13506 Z"/>
        <path fill="rgb(215,67,51)" stroke="none" d="M 10223,13478 L 10876,13478 10876,13250 10223,13250 10223,13478 Z"/>
       </g>
      </g>
     </g>
    </g>
   </g>
  </g>
 </g>
</svg>