<?xml version="1.0" encoding="UTF-8"?>
<!DOCTYPE svg PUBLIC "-//W3C//DTD SVG 1.1//EN" "http://www.w3.org/Graphics/SVG/1.1/DTD/svg11.dtd">
<svg version="1.2" width="50.03mm" height="35.07mm" viewBox="8046 13154 5003 3507" preserveAspectRatio="xMidYMid" fill-rule="evenodd" stroke-width="28.222" stroke-linejoin="round" xmlns="http://www.w3.org/2000/svg" xmlns:ooo="http://xml.openoffice.org/svg/export" xmlns:xlink="http://www.w3.org/1999/xlink" xmlns:presentation="http://sun.com/xmlns/staroffice/presentation" xmlns:smil="http://www.w3.org/2001/SMIL20/" xmlns:anim="urn:oasis:names:tc:opendocument:xmlns:animation:1.0" xml:space="preserve">
 <defs class="ClipPathGroup">
  <clipPath id="presentation_clip_path" clipPathUnits="userSpaceOnUse">
   <rect x="8046" y="13154" width="5003" height="3507"/>
  </clipPath>
  <clipPath id="presentation_clip_path_shrink" clipPathUnits="userSpaceOnUse">
   <rect x="8051" y="13157" width="4993" height="3500"/>
  </clipPath>
 </defs>
 <defs class="TextShapeIndex">
  <g ooo:slide="id1" ooo:id-list="id3"/>
 </defs>
 <defs class="EmbeddedBulletChars">
  <g id="bullet-char-template-57356" transform="scale(0.00048828125,-0.00048828125)">
   <path d="M 580,1141 L 1163,571 580,0 -4,571 580,1141 Z"/>
  </g>
  <g id="bullet-char-template-57354" transform="scale(0.00048828125,-0.00048828125)">
   <path d="M 8,1128 L 1137,1128 1137,0 8,0 8,1128 Z"/>
  </g>
  <g id="bullet-char-template-10146" transform="scale(0.00048828125,-0.00048828125)">
   <path d="M 174,0 L 602,739 174,1481 1456,739 174,0 Z M 1358,739 L 309,1346 659,739 1358,739 Z"/>
  </g>
  <g id="bullet-char-template-10132" transform="scale(0.00048828125,-0.00048828125)">
   <path d="M 2015,739 L 1276,0 717,0 1260,543 174,543 174,936 1260,936 717,1481 1274,1481 2015,739 Z"/>
  </g>
  <g id="bullet-char-template-10007" transform="scale(0.00048828125,-0.00048828125)">
   <path d="M 0,-2 C -7,14 -16,27 -25,37 L 356,567 C 262,823 215,952 215,954 215,979 228,992 255,992 264,992 276,990 289,987 310,991 331,999 354,1012 L 381,999 492,748 772,1049 836,1024 860,1049 C 881,1039 901,1025 922,1006 886,937 835,863 770,784 769,783 710,716 594,584 L 774,223 C 774,196 753,168 711,139 L 727,119 C 717,90 699,76 672,76 641,76 570,178 457,381 L 164,-76 C 142,-110 111,-127 72,-127 30,-127 9,-110 8,-76 1,-67 -2,-52 -2,-32 -2,-23 -1,-13 0,-2 Z"/>
  </g>
  <g id="bullet-char-template-10004" transform="scale(0.00048828125,-0.00048828125)">
   <path d="M 285,-33 C 182,-33 111,30 74,156 52,228 41,333 41,471 41,549 55,616 82,672 116,743 169,778 240,778 293,778 328,747 346,684 L 369,508 C 377,444 397,411 428,410 L 1163,1116 C 1174,1127 1196,1133 1229,1133 1271,1133 1292,1118 1292,1087 L 1292,965 C 1292,929 1282,901 1262,881 L 442,47 C 390,-6 338,-33 285,-33 Z"/>
  </g>
  <g id="bullet-char-template-9679" transform="scale(0.00048828125,-0.00048828125)">
   <path d="M 813,0 C 632,0 489,54 383,161 276,268 223,411 223,592 223,773 276,916 383,1023 489,1130 632,1184 813,1184 992,1184 1136,1130 1245,1023 1353,916 1407,772 1407,592 1407,412 1353,268 1245,161 1136,54 992,0 813,0 Z"/>
  </g>
  <g id="bullet-char-template-8226" transform="scale(0.00048828125,-0.00048828125)">
   <path d="M 346,457 C 273,457 209,483 155,535 101,586 74,649 74,723 74,796 101,859 155,911 209,963 273,989 346,989 419,989 480,963 531,910 582,859 608,796 608,723 608,648 583,586 532,535 482,483 420,457 346,457 Z"/>
  </g>
  <g id="bullet-char-template-8211" transform="scale(0.00048828125,-0.00048828125)">
   <path d="M -4,459 L 1135,459 1135,606 -4,606 -4,459 Z"/>
  </g>
  <g id="bullet-char-template-61548" transform="scale(0.00048828125,-0.00048828125)">
   <path d="M 173,740 C 173,903 231,1043 346,1159 462,1274 601,1332 765,1332 928,1332 1067,1274 1183,1159 1299,1043 1357,903 1357,740 1357,577 1299,437 1183,322 1067,206 928,148 765,148 601,148 462,206 346,322 231,437 173,577 173,740 Z"/>
  </g>
 </defs>
 <defs class="TextEmbeddedBitmaps"/>
 <g class="SlideGroup">
  <g>
   <g id="container-id1">
    <g id="id1" class="Slide" clip-path="url(#presentation_clip_path)">
     <g class="Page">
      <g class="Graphic">
       <g id="id3">
        <rect class="BoundingBox" stroke="none" fill="none" x="8046" y="13154" width="5004" height="3508"/>
        <path fill="rgb(255,255,255)" stroke="none" d="M 8665,15168 L 10324,15168 10324,14748 8665,14748 8665,15168 Z"/>
        <path fill="rgb(255,255,255)" stroke="none" d="M 10857,15168 L 12517,15168 12517,14746 10857,14746 10857,15168 Z"/>
        <path fill="none" stroke="rgb(51,78,88)" stroke-width="0" stroke-linejoin="round" stroke-linecap="round" d="M 8050,16063 L 8050,14932"/>
        <path fill="none" stroke="rgb(51,78,88)" stroke-width="0" stroke-linejoin="round" stroke-linecap="round" d="M 8423,14557 L 8372,14561 8318,14572 8268,14590 8222,14616 8180,14649 8140,14686 8109,14729 8083,14777 8064,14827 8054,14879 8050,14932"/>
        <path fill="none" stroke="rgb(51,78,88)" stroke-width="0" stroke-linejoin="round" stroke-linecap="round" d="M 8423,14557 L 12671,14557"/>
        <path fill="none" stroke="rgb(51,78,88)" stroke-width="0" stroke-linejoin="round" stroke-linecap="round" d="M 13046,14932 L 13042,14879 13032,14827 13011,14777 12987,14729 12954,14687 12917,14649 12874,14616 12826,14590 12776,14572 12724,14561 12671,14557"/>
        <path fill="none" stroke="rgb(51,78,88)" stroke-width="0" stroke-linejoin="round" stroke-linecap="round" d="M 13046,14932 L 13046,16063"/>
        <path fill="none" stroke="rgb(51,78,88)" stroke-width="0" stroke-linejoin="round" stroke-linecap="round" d="M 13009,16063 L 13009,16658"/>
        <path fill="none" stroke="rgb(51,78,88)" stroke-width="0" stroke-linejoin="round" stroke-linecap="round" d="M 13046,16063 L 13046,16658"/>
        <path fill="none" stroke="rgb(51,78,88)" stroke-width="0" stroke-linejoin="round" stroke-linecap="round" d="M 13009,16063 L 13009,14932 13007,14884 12996,14836 12980,14792 12956,14749 12928,14710 12893,14675 12854,14646 12811,14623 12767,14607 12719,14596 12671,14592 8423,14592 8375,14596 8329,14607 8283,14623 8241,14646 8201,14675 8168,14710 8139,14749 8114,14792 8098,14836 8089,14884 8085,14932"/>
        <path fill="none" stroke="rgb(51,78,88)" stroke-width="0" stroke-linejoin="round" stroke-linecap="round" d="M 13009,16082 L 8085,16082"/>
        <path fill="none" stroke="rgb(51,78,88)" stroke-width="0" stroke-linejoin="round" stroke-linecap="round" d="M 13009,16045 L 8085,16045"/>
        <path fill="none" stroke="rgb(51,78,88)" stroke-width="0" stroke-linejoin="round" stroke-linecap="round" d="M 8050,16063 L 8050,16658"/>
        <path fill="none" stroke="rgb(51,78,88)" stroke-width="0" stroke-linejoin="round" stroke-linecap="round" d="M 8085,16658 L 8085,16063 8085,14932"/>
        <path fill="none" stroke="rgb(51,78,88)" stroke-width="0" stroke-linejoin="round" stroke-linecap="round" d="M 8442,14592 L 8442,16045"/>
        <path fill="none" stroke="rgb(51,78,88)" stroke-width="0" stroke-linejoin="round" stroke-linecap="round" d="M 8678,14592 L 8678,16045"/>
        <path fill="none" stroke="rgb(51,78,88)" stroke-width="0" stroke-linejoin="round" stroke-linecap="round" d="M 8641,14592 L 8641,16045"/>
        <path fill="none" stroke="rgb(51,78,88)" stroke-width="0" stroke-linejoin="round" stroke-linecap="round" d="M 8913,14592 L 8913,16045"/>
        <path fill="none" stroke="rgb(51,78,88)" stroke-width="0" stroke-linejoin="round" stroke-linecap="round" d="M 8878,14592 L 8878,16045"/>
        <path fill="none" stroke="rgb(51,78,88)" stroke-width="0" stroke-linejoin="round" stroke-linecap="round" d="M 9857,14592 L 9857,16045"/>
        <path fill="none" stroke="rgb(51,78,88)" stroke-width="0" stroke-linejoin="round" stroke-linecap="round" d="M 9822,14592 L 9822,16045"/>
        <path fill="none" stroke="rgb(51,78,88)" stroke-width="0" stroke-linejoin="round" stroke-linecap="round" d="M 10094,14592 L 10094,16045"/>
        <path fill="none" stroke="rgb(51,78,88)" stroke-width="0" stroke-linejoin="round" stroke-linecap="round" d="M 10057,14592 L 10057,16045"/>
        <path fill="none" stroke="rgb(51,78,88)" stroke-width="0" stroke-linejoin="round" stroke-linecap="round" d="M 10329,14592 L 10329,16045"/>
        <path fill="none" stroke="rgb(51,78,88)" stroke-width="0" stroke-linejoin="round" stroke-linecap="round" d="M 10294,14592 L 10294,16045"/>
        <path fill="none" stroke="rgb(51,78,88)" stroke-width="0" stroke-linejoin="round" stroke-linecap="round" d="M 10566,14592 L 10566,16045"/>
        <path fill="none" stroke="rgb(51,78,88)" stroke-width="0" stroke-linejoin="round" stroke-linecap="round" d="M 10529,14592 L 10529,16045"/>
        <path fill="none" stroke="rgb(51,78,88)" stroke-width="0" stroke-linejoin="round" stroke-linecap="round" d="M 10800,14592 L 10800,16045"/>
        <path fill="none" stroke="rgb(51,78,88)" stroke-width="0" stroke-linejoin="round" stroke-linecap="round" d="M 10765,14592 L 10765,16045"/>
        <path fill="none" stroke="rgb(51,78,88)" stroke-width="0" stroke-linejoin="round" stroke-linecap="round" d="M 11037,14592 L 11037,16045"/>
        <path fill="none" stroke="rgb(51,78,88)" stroke-width="0" stroke-linejoin="round" stroke-linecap="round" d="M 11002,14592 L 11002,16045"/>
        <path fill="none" stroke="rgb(51,78,88)" stroke-width="0" stroke-linejoin="round" stroke-linecap="round" d="M 11274,14592 L 11274,16045"/>
        <path fill="none" stroke="rgb(51,78,88)" stroke-width="0" stroke-linejoin="round" stroke-linecap="round" d="M 11237,14592 L 11237,16045"/>
        <path fill="none" stroke="rgb(51,78,88)" stroke-width="0" stroke-linejoin="round" stroke-linecap="round" d="M 11508,14592 L 11508,14749"/>
        <path fill="none" stroke="rgb(51,78,88)" stroke-width="0" stroke-linejoin="round" stroke-linecap="round" d="M 11473,14592 L 11473,14749"/>
        <path fill="none" stroke="rgb(51,78,88)" stroke-width="0" stroke-linejoin="round" stroke-linecap="round" d="M 12216,14592 L 12216,16045"/>
        <path fill="none" stroke="rgb(51,78,88)" stroke-width="0" stroke-linejoin="round" stroke-linecap="round" d="M 12181,14592 L 12181,16045"/>
        <path fill="none" stroke="rgb(51,78,88)" stroke-width="0" stroke-linejoin="round" stroke-linecap="round" d="M 12453,14592 L 12453,16045"/>
        <path fill="none" stroke="rgb(51,78,88)" stroke-width="0" stroke-linejoin="round" stroke-linecap="round" d="M 12418,14592 L 12418,16045"/>
        <path fill="none" stroke="rgb(51,78,88)" stroke-width="0" stroke-linejoin="round" stroke-linecap="round" d="M 12689,14592 L 12689,16045"/>
        <path fill="none" stroke="rgb(51,78,88)" stroke-width="0" stroke-linejoin="round" stroke-linecap="round" d="M 12652,14592 L 12652,16045"/>
        <path fill="none" stroke="rgb(51,78,88)" stroke-width="0" stroke-linejoin="round" stroke-linecap="round" d="M 13046,16658 L 13009,16658"/>
        <path fill="none" stroke="rgb(51,78,88)" stroke-width="0" stroke-linejoin="round" stroke-linecap="round" d="M 8085,16658 L 8050,16658"/>
        <path fill="rgb(38,46,52)" stroke="none" d="M 13046,16063 L 13009,16658 13046,16658 13046,16063 Z"/>
        <path fill="rgb(38,46,52)" stroke="none" d="M 8085,16063 L 8050,16658 8085,16658 8085,16063 Z"/>
        <path fill="rgb(38,46,52)" stroke="none" d="M 13009,16063 L 13009,16658 13046,16063 13009,16063 Z"/>
        <path fill="rgb(38,46,52)" stroke="none" d="M 8050,16063 L 8050,16658 8085,16063 8050,16063 Z"/>
        <path fill="rgb(38,46,52)" stroke="none" d="M 8085,14932 L 8050,16063 8085,16063 8085,14932 Z"/>
        <path fill="rgb(38,46,52)" stroke="none" d="M 13046,14932 L 13009,16063 13046,16063 13046,14932 Z"/>
        <path fill="rgb(38,46,52)" stroke="none" d="M 8050,14932 L 8050,16063 8085,14932 8050,14932 Z"/>
        <path fill="rgb(38,46,52)" stroke="none" d="M 13009,14932 L 13009,16063 13046,14932 13009,14932 Z"/>
        <path fill="rgb(38,46,52)" stroke="none" d="M 8089,14884 L 8050,14932 8085,14932 8089,14884 Z"/>
        <path fill="rgb(38,46,52)" stroke="none" d="M 13007,14884 L 13009,14932 13046,14932 13007,14884 Z"/>
        <path fill="rgb(38,46,52)" stroke="none" d="M 13042,14879 L 13007,14884 13046,14932 13042,14879 Z"/>
        <path fill="rgb(38,46,52)" stroke="none" d="M 8054,14879 L 8050,14932 8089,14884 8054,14879 Z"/>
        <path fill="rgb(38,46,52)" stroke="none" d="M 12996,14836 L 13007,14884 13042,14879 12996,14836 Z"/>
        <path fill="rgb(38,46,52)" stroke="none" d="M 8098,14836 L 8054,14879 8089,14884 8098,14836 Z"/>
        <path fill="rgb(38,46,52)" stroke="none" d="M 13032,14827 L 12996,14836 13042,14879 13032,14827 Z"/>
        <path fill="rgb(38,46,52)" stroke="none" d="M 8064,14827 L 8054,14879 8098,14836 8064,14827 Z"/>
        <path fill="rgb(38,46,52)" stroke="none" d="M 8114,14792 L 8064,14827 8098,14836 8114,14792 Z"/>
        <path fill="rgb(38,46,52)" stroke="none" d="M 12980,14792 L 12996,14836 13032,14827 12980,14792 Z"/>
        <path fill="rgb(38,46,52)" stroke="none" d="M 13011,14777 L 12980,14792 13032,14827 13011,14777 Z"/>
        <path fill="rgb(38,46,52)" stroke="none" d="M 8083,14777 L 8064,14827 8114,14792 8083,14777 Z"/>
        <path fill="rgb(38,46,52)" stroke="none" d="M 8139,14749 L 8083,14777 8114,14792 8139,14749 Z"/>
        <path fill="rgb(38,46,52)" stroke="none" d="M 12956,14749 L 12980,14792 13011,14777 12956,14749 Z"/>
        <path fill="rgb(38,46,52)" stroke="none" d="M 12987,14729 L 12956,14749 13011,14777 12987,14729 Z"/>
        <path fill="rgb(38,46,52)" stroke="none" d="M 8109,14729 L 8083,14777 8139,14749 8109,14729 Z"/>
        <path fill="rgb(38,46,52)" stroke="none" d="M 12928,14710 L 12956,14749 12987,14729 12928,14710 Z"/>
        <path fill="rgb(38,46,52)" stroke="none" d="M 8168,14710 L 8109,14729 8139,14749 8168,14710 Z"/>
        <path fill="rgb(38,46,52)" stroke="none" d="M 12954,14686 L 12928,14710 12987,14729 12954,14687 12954,14686 Z"/>
        <path fill="rgb(38,46,52)" stroke="none" d="M 8140,14686 L 8109,14729 8168,14710 8140,14686 Z"/>
        <path fill="rgb(38,46,52)" stroke="none" d="M 12893,14675 L 12928,14710 12954,14686 12893,14675 Z"/>
        <path fill="rgb(38,46,52)" stroke="none" d="M 8201,14675 L 8140,14686 8168,14710 8201,14675 Z"/>
        <path fill="rgb(38,46,52)" stroke="none" d="M 12917,14649 L 12893,14675 12954,14686 12917,14649 Z"/>
        <path fill="rgb(38,46,52)" stroke="none" d="M 8180,14649 L 8140,14686 8201,14675 8180,14649 Z"/>
        <path fill="rgb(38,46,52)" stroke="none" d="M 12854,14646 L 12893,14675 12917,14649 12854,14646 Z"/>
        <path fill="rgb(38,46,52)" stroke="none" d="M 8241,14646 L 8180,14649 8201,14675 8241,14646 Z"/>
        <path fill="rgb(38,46,52)" stroke="none" d="M 12811,14623 L 12854,14646 12917,14649 12811,14623 Z"/>
        <path fill="rgb(38,46,52)" stroke="none" d="M 8283,14623 L 8180,14649 8241,14646 8283,14623 Z"/>
        <path fill="rgb(38,46,52)" stroke="none" d="M 12874,14616 L 12811,14623 12917,14649 12874,14616 Z"/>
        <path fill="rgb(38,46,52)" stroke="none" d="M 8222,14616 L 8180,14649 8283,14623 8222,14616 Z"/>
        <path fill="rgb(38,46,52)" stroke="none" d="M 8329,14607 L 8222,14616 8283,14623 8329,14607 Z"/>
        <path fill="rgb(38,46,52)" stroke="none" d="M 12767,14607 L 12811,14623 12874,14616 12767,14607 Z"/>
        <path fill="rgb(38,46,52)" stroke="none" d="M 8375,14596 L 8222,14616 8329,14607 8375,14596 Z"/>
        <path fill="rgb(38,46,52)" stroke="none" d="M 12719,14596 L 12767,14607 12874,14616 12719,14596 Z"/>
        <path fill="rgb(38,46,52)" stroke="none" d="M 12826,14590 L 8423,14592 12671,14592 12826,14590 Z"/>
        <path fill="rgb(38,46,52)" stroke="none" d="M 12826,14590 L 12671,14592 12719,14596 12826,14590 Z"/>
        <path fill="rgb(38,46,52)" stroke="none" d="M 12826,14590 L 12719,14596 12874,14616 12826,14590 Z"/>
        <path fill="rgb(38,46,52)" stroke="none" d="M 8268,14590 L 8423,14592 12826,14590 8268,14590 Z"/>
        <path fill="rgb(38,46,52)" stroke="none" d="M 8268,14590 L 8375,14596 8423,14592 8268,14590 Z"/>
        <path fill="rgb(38,46,52)" stroke="none" d="M 8268,14590 L 8222,14616 8375,14596 8268,14590 Z"/>
        <path fill="rgb(38,46,52)" stroke="none" d="M 12776,14572 L 8268,14590 12826,14590 12776,14572 Z"/>
        <path fill="rgb(38,46,52)" stroke="none" d="M 8318,14572 L 8268,14590 12776,14572 8318,14572 Z"/>
        <path fill="rgb(38,46,52)" stroke="none" d="M 12724,14561 L 8318,14572 12776,14572 12724,14561 Z"/>
        <path fill="rgb(38,46,52)" stroke="none" d="M 8372,14561 L 8318,14572 12724,14561 8372,14561 Z"/>
        <path fill="rgb(38,46,52)" stroke="none" d="M 8372,14561 L 12671,14557 8423,14557 8372,14561 Z"/>
        <path fill="rgb(38,46,52)" stroke="none" d="M 12671,14557 L 8372,14561 12724,14561 12671,14557 Z"/>
        <path fill="rgb(38,46,52)" stroke="none" d="M 13009,16063 L 8085,16082 13009,16082 13009,16063 Z"/>
        <path fill="rgb(38,46,52)" stroke="none" d="M 8085,16063 L 8085,16082 13009,16063 8085,16063 Z"/>
        <path fill="rgb(38,46,52)" stroke="none" d="M 8442,16045 L 8085,16063 13009,16063 8442,16045 Z"/>
        <path fill="rgb(38,46,52)" stroke="none" d="M 10566,16045 L 8442,16045 13009,16063 10566,16045 Z"/>
        <path fill="rgb(38,46,52)" stroke="none" d="M 9386,16045 L 8442,16045 10566,16045 9386,16045 Z"/>
        <path fill="rgb(38,46,52)" stroke="none" d="M 8913,16045 L 8442,16045 9386,16045 8913,16045 Z"/>
        <path fill="rgb(38,46,52)" stroke="none" d="M 12689,16045 L 10566,16045 13009,16063 12689,16045 Z"/>
        <path fill="rgb(38,46,52)" stroke="none" d="M 10529,16045 L 9386,16045 10566,16045 10529,16045 Z"/>
        <path fill="rgb(38,46,52)" stroke="none" d="M 12652,16045 L 10566,16045 12689,16045 12652,16045 Z"/>
        <path fill="rgb(38,46,52)" stroke="none" d="M 9349,16045 L 8913,16045 9386,16045 9349,16045 Z"/>
        <path fill="rgb(38,46,52)" stroke="none" d="M 8878,16045 L 8442,16045 8913,16045 8878,16045 Z"/>
        <path fill="rgb(38,46,52)" stroke="none" d="M 8407,16045 L 8085,16063 8442,16045 8407,16045 Z"/>
        <path fill="rgb(38,46,52)" stroke="none" d="M 9150,16045 L 8913,16045 9349,16045 9150,16045 Z"/>
        <path fill="rgb(38,46,52)" stroke="none" d="M 8913,16045 L 9150,16045 9114,16045 8913,16045 Z"/>
        <path fill="rgb(38,46,52)" stroke="none" d="M 11473,16045 L 10566,16045 12652,16045 11473,16045 Z"/>
        <path fill="rgb(38,46,52)" stroke="none" d="M 11037,16045 L 10566,16045 11473,16045 11037,16045 Z"/>
        <path fill="rgb(38,46,52)" stroke="none" d="M 10566,16045 L 11037,16045 11002,16045 10566,16045 Z"/>
        <path fill="rgb(38,46,52)" stroke="none" d="M 12181,16045 L 11473,16045 12652,16045 12181,16045 Z"/>
        <path fill="rgb(38,46,52)" stroke="none" d="M 9621,16045 L 9386,16045 10529,16045 9621,16045 Z"/>
        <path fill="rgb(38,46,52)" stroke="none" d="M 9386,16045 L 9621,16045 9586,16045 9386,16045 Z"/>
        <path fill="rgb(38,46,52)" stroke="none" d="M 11745,16045 L 11473,16045 12181,16045 11745,16045 Z"/>
        <path fill="rgb(38,46,52)" stroke="none" d="M 11473,16045 L 11745,16045 11710,16045 11473,16045 Z"/>
        <path fill="rgb(38,46,52)" stroke="none" d="M 10057,16045 L 9621,16045 10529,16045 10057,16045 Z"/>
        <path fill="rgb(38,46,52)" stroke="none" d="M 13009,16045 L 12689,16045 13009,16063 13009,16045 Z"/>
        <path fill="rgb(38,46,52)" stroke="none" d="M 12216,16045 L 12181,16045 12652,16045 12216,16045 Z"/>
        <path fill="rgb(38,46,52)" stroke="none" d="M 11508,16045 L 11473,16045 11710,16045 11508,16045 Z"/>
        <path fill="rgb(38,46,52)" stroke="none" d="M 10094,16045 L 10057,16045 10529,16045 10094,16045 Z"/>
        <path fill="rgb(38,46,52)" stroke="none" d="M 12418,16045 L 12216,16045 12652,16045 12418,16045 Z"/>
        <path fill="rgb(38,46,52)" stroke="none" d="M 12652,16045 L 12453,16045 12418,16045 12652,16045 Z"/>
        <path fill="rgb(38,46,52)" stroke="none" d="M 8678,16045 L 8442,16045 8878,16045 8678,16045 Z"/>
        <path fill="rgb(38,46,52)" stroke="none" d="M 8442,16045 L 8678,16045 8641,16045 8442,16045 Z"/>
        <path fill="rgb(38,46,52)" stroke="none" d="M 11944,16045 L 11745,16045 12181,16045 11944,16045 Z"/>
        <path fill="rgb(38,46,52)" stroke="none" d="M 12181,16045 L 11982,16045 11944,16045 12181,16045 Z"/>
        <path fill="rgb(38,46,52)" stroke="none" d="M 10294,16045 L 10094,16045 10529,16045 10294,16045 Z"/>
        <path fill="rgb(38,46,52)" stroke="none" d="M 10529,16045 L 10329,16045 10294,16045 10529,16045 Z"/>
        <path fill="rgb(38,46,52)" stroke="none" d="M 11237,16045 L 11037,16045 11473,16045 11237,16045 Z"/>
        <path fill="rgb(38,46,52)" stroke="none" d="M 11473,16045 L 11274,16045 11237,16045 11473,16045 Z"/>
        <path fill="rgb(38,46,52)" stroke="none" d="M 10800,16045 L 10566,16045 11002,16045 10800,16045 Z"/>
        <path fill="rgb(38,46,52)" stroke="none" d="M 10566,16045 L 10800,16045 10765,16045 10566,16045 Z"/>
        <path fill="rgb(38,46,52)" stroke="none" d="M 9822,16045 L 9621,16045 10057,16045 9822,16045 Z"/>
        <path fill="rgb(38,46,52)" stroke="none" d="M 8085,16045 L 8085,16063 8407,16045 8085,16045 Z"/>
        <path fill="rgb(38,46,52)" stroke="none" d="M 8442,14592 L 8423,14592 8442,16045 8442,14592 Z"/>
        <path fill="rgb(38,46,52)" stroke="none" d="M 8416,14592 L 8442,16045 8423,14592 8416,14592 Z"/>
        <path fill="rgb(38,46,52)" stroke="none" d="M 8442,16045 L 8416,14592 8407,16045 8442,16045 Z"/>
        <path fill="rgb(38,46,52)" stroke="none" d="M 8407,14594 L 8407,16045 8416,14592 8407,14594 Z"/>
        <path fill="none" stroke="rgb(51,78,88)" stroke-width="0" stroke-linejoin="round" stroke-linecap="round" d="M 8407,14592 L 8407,16045"/>
        <path fill="none" stroke="rgb(51,78,88)" stroke-width="0" stroke-linejoin="round" stroke-linecap="round" d="M 10360,14749 L 8377,14749"/>
        <path fill="none" stroke="rgb(51,78,88)" stroke-width="0" stroke-linejoin="round" stroke-linecap="round" d="M 9699,14749 L 9699,14747"/>
        <path fill="none" stroke="rgb(51,78,88)" stroke-width="0" stroke-linejoin="round" stroke-linecap="round" d="M 9039,14749 L 9039,15165"/>
        <path fill="none" stroke="rgb(51,78,88)" stroke-width="0" stroke-linejoin="round" stroke-linecap="round" d="M 9699,14749 L 9699,15165"/>
        <path fill="rgb(213,51,42)" stroke="none" d="M 8708,14956 L 9039,14749 8377,14749 8708,14956 Z"/>
        <path fill="rgb(213,51,42)" stroke="none" d="M 8708,14956 L 8377,14749 8377,15165 8708,14956 Z"/>
        <path fill="rgb(213,51,42)" stroke="none" d="M 8708,14956 L 8377,15165 9039,15165 8708,14956 Z"/>
        <path fill="rgb(213,51,42)" stroke="none" d="M 8708,14956 L 9039,15165 9039,14749 8708,14956 Z"/>
        <path fill="rgb(213,51,42)" stroke="none" d="M 10030,14956 L 10360,14749 9699,14749 10030,14956 Z"/>
        <path fill="rgb(213,51,42)" stroke="none" d="M 10030,14956 L 9699,14749 9699,15165 10030,14956 Z"/>
        <path fill="rgb(213,51,42)" stroke="none" d="M 10030,14956 L 9699,15165 10360,15165 10030,14956 Z"/>
        <path fill="rgb(213,51,42)" stroke="none" d="M 10030,14956 L 10360,15165 10360,14749 10030,14956 Z"/>
        <path fill="none" stroke="rgb(51,78,88)" stroke-width="0" stroke-linejoin="round" stroke-linecap="round" d="M 8377,14749 L 10360,14749"/>
        <path fill="none" stroke="rgb(51,78,88)" stroke-width="0" stroke-linejoin="round" stroke-linecap="round" d="M 12059,14749 L 12059,14747"/>
        <path fill="none" stroke="rgb(51,78,88)" stroke-width="0" stroke-linejoin="round" stroke-linecap="round" d="M 11397,14749 L 11397,15165"/>
        <path fill="none" stroke="rgb(51,78,88)" stroke-width="0" stroke-linejoin="round" stroke-linecap="round" d="M 12059,14749 L 12059,15165"/>
        <path fill="rgb(213,51,42)" stroke="none" d="M 11067,14956 L 11397,14749 10736,14749 11067,14956 Z"/>
        <path fill="rgb(213,51,42)" stroke="none" d="M 11067,14956 L 10736,14749 10736,15165 11067,14956 Z"/>
        <path fill="rgb(213,51,42)" stroke="none" d="M 11067,14956 L 10736,15165 11397,15165 11067,14956 Z"/>
        <path fill="rgb(213,51,42)" stroke="none" d="M 11067,14956 L 11397,15165 11397,14749 11067,14956 Z"/>
        <path fill="rgb(213,51,42)" stroke="none" d="M 12390,14956 L 12721,14749 12059,14749 12390,14956 Z"/>
        <path fill="rgb(213,51,42)" stroke="none" d="M 12390,14956 L 12059,14749 12059,15165 12390,14956 Z"/>
        <path fill="rgb(213,51,42)" stroke="none" d="M 12390,14956 L 12059,15165 12721,15165 12390,14956 12390,14956 Z"/>
        <path fill="rgb(213,51,42)" stroke="none" d="M 12390,14956 L 12721,15165 12721,14749 12390,14956 Z"/>
        <path fill="none" stroke="rgb(51,78,88)" stroke-width="0" stroke-linejoin="round" stroke-linecap="round" d="M 11508,15165 L 11508,16045"/>
        <path fill="none" stroke="rgb(51,78,88)" stroke-width="0" stroke-linejoin="round" stroke-linecap="round" d="M 11473,15165 L 11473,16045"/>
        <path fill="none" stroke="rgb(51,78,88)" stroke-width="0" stroke-linejoin="round" stroke-linecap="round" d="M 11745,14592 L 11745,14749"/>
        <path fill="none" stroke="rgb(51,78,88)" stroke-width="0" stroke-linejoin="round" stroke-linecap="round" d="M 11710,14592 L 11710,14749"/>
        <path fill="none" stroke="rgb(51,78,88)" stroke-width="0" stroke-linejoin="round" stroke-linecap="round" d="M 11745,15165 L 11745,16045"/>
        <path fill="none" stroke="rgb(51,78,88)" stroke-width="0" stroke-linejoin="round" stroke-linecap="round" d="M 11710,15165 L 11710,16045"/>
        <path fill="none" stroke="rgb(51,78,88)" stroke-width="0" stroke-linejoin="round" stroke-linecap="round" d="M 11982,14592 L 11982,14749"/>
        <path fill="none" stroke="rgb(51,78,88)" stroke-width="0" stroke-linejoin="round" stroke-linecap="round" d="M 11944,14592 L 11944,14749"/>
        <path fill="none" stroke="rgb(51,78,88)" stroke-width="0" stroke-linejoin="round" stroke-linecap="round" d="M 11982,15165 L 11982,16045"/>
        <path fill="none" stroke="rgb(51,78,88)" stroke-width="0" stroke-linejoin="round" stroke-linecap="round" d="M 11944,15165 L 11944,16045"/>
        <path fill="none" stroke="rgb(51,78,88)" stroke-width="0" stroke-linejoin="round" stroke-linecap="round" d="M 9150,14592 L 9150,14749"/>
        <path fill="none" stroke="rgb(51,78,88)" stroke-width="0" stroke-linejoin="round" stroke-linecap="round" d="M 9114,14592 L 9114,14749"/>
        <path fill="none" stroke="rgb(51,78,88)" stroke-width="0" stroke-linejoin="round" stroke-linecap="round" d="M 9150,15165 L 9150,16045"/>
        <path fill="none" stroke="rgb(51,78,88)" stroke-width="0" stroke-linejoin="round" stroke-linecap="round" d="M 9114,15165 L 9114,16045"/>
        <path fill="none" stroke="rgb(51,78,88)" stroke-width="0" stroke-linejoin="round" stroke-linecap="round" d="M 9386,14592 L 9386,14749"/>
        <path fill="none" stroke="rgb(51,78,88)" stroke-width="0" stroke-linejoin="round" stroke-linecap="round" d="M 9349,14592 L 9349,14749"/>
        <path fill="none" stroke="rgb(51,78,88)" stroke-width="0" stroke-linejoin="round" stroke-linecap="round" d="M 9386,15165 L 9386,16045"/>
        <path fill="none" stroke="rgb(51,78,88)" stroke-width="0" stroke-linejoin="round" stroke-linecap="round" d="M 9349,15165 L 9349,16045"/>
        <path fill="none" stroke="rgb(51,78,88)" stroke-width="0" stroke-linejoin="round" stroke-linecap="round" d="M 9621,14592 L 9621,14749"/>
        <path fill="none" stroke="rgb(51,78,88)" stroke-width="0" stroke-linejoin="round" stroke-linecap="round" d="M 9586,14592 L 9586,14749"/>
        <path fill="none" stroke="rgb(51,78,88)" stroke-width="0" stroke-linejoin="round" stroke-linecap="round" d="M 9621,15165 L 9621,16045"/>
        <path fill="none" stroke="rgb(51,78,88)" stroke-width="0" stroke-linejoin="round" stroke-linecap="round" d="M 9586,15165 L 9586,16045"/>
        <path fill="rgb(38,46,52)" stroke="none" d="M 9349,16045 L 9386,15165 9349,15165 9349,16045 Z"/>
        <path fill="rgb(38,46,52)" stroke="none" d="M 9386,15165 L 9349,16045 9386,16045 9386,15165 Z"/>
        <path fill="rgb(38,46,52)" stroke="none" d="M 9150,16045 L 9150,15165 9114,15165 9150,16045 Z"/>
        <path fill="rgb(38,46,52)" stroke="none" d="M 9114,15165 L 9114,16045 9150,16045 9114,15165 Z"/>
        <path fill="rgb(38,46,52)" stroke="none" d="M 9621,15165 L 9586,16045 9621,16045 9621,15165 Z"/>
        <path fill="rgb(38,46,52)" stroke="none" d="M 9586,15165 L 9586,16045 9621,15165 9586,15165 Z"/>
        <path fill="rgb(38,46,52)" stroke="none" d="M 9349,14592 L 9349,14749 9386,14749 9349,14592 Z"/>
        <path fill="rgb(38,46,52)" stroke="none" d="M 9386,14592 L 9349,14592 9386,14749 9386,14592 Z"/>
        <path fill="rgb(38,46,52)" stroke="none" d="M 9150,14749 L 9150,14592 9114,14592 9150,14749 Z"/>
        <path fill="rgb(38,46,52)" stroke="none" d="M 9114,14592 L 9114,14749 9150,14749 9114,14592 Z"/>
        <path fill="rgb(38,46,52)" stroke="none" d="M 9586,14592 L 9586,14749 9621,14749 9586,14592 Z"/>
        <path fill="rgb(38,46,52)" stroke="none" d="M 9621,14592 L 9586,14592 9621,14749 9621,14592 Z"/>
        <path fill="rgb(38,46,52)" stroke="none" d="M 11944,15165 L 11944,16045 11982,16045 11944,15165 Z"/>
        <path fill="rgb(38,46,52)" stroke="none" d="M 11982,15165 L 11944,15165 11982,16045 11982,15165 Z"/>
        <path fill="rgb(38,46,52)" stroke="none" d="M 11745,16045 L 11745,15165 11710,15165 11745,16045 Z"/>
        <path fill="rgb(38,46,52)" stroke="none" d="M 11710,15165 L 11710,16045 11745,16045 11710,15165 Z"/>
        <path fill="rgb(38,46,52)" stroke="none" d="M 11508,15165 L 11473,16045 11508,16045 11508,15165 Z"/>
        <path fill="rgb(38,46,52)" stroke="none" d="M 11473,15165 L 11473,16045 11508,15165 11473,15165 Z"/>
        <path fill="rgb(38,46,52)" stroke="none" d="M 11508,14592 L 11473,14749 11508,14749 11508,14592 Z"/>
        <path fill="rgb(38,46,52)" stroke="none" d="M 11473,14592 L 11473,14749 11508,14592 11473,14592 Z"/>
        <path fill="rgb(38,46,52)" stroke="none" d="M 11982,14592 L 11944,14749 11982,14749 11982,14592 Z"/>
        <path fill="rgb(38,46,52)" stroke="none" d="M 11745,14592 L 11710,14749 11745,14749 11745,14592 Z"/>
        <path fill="rgb(38,46,52)" stroke="none" d="M 11944,14592 L 11944,14749 11982,14592 11944,14592 Z"/>
        <path fill="rgb(38,46,52)" stroke="none" d="M 11710,14592 L 11710,14749 11745,14592 11710,14592 Z"/>
        <path fill="rgb(38,46,52)" stroke="none" d="M 12652,15165 L 12652,16045 12689,16045 12652,15165 Z"/>
        <path fill="rgb(38,46,52)" stroke="none" d="M 12689,15165 L 12652,15165 12689,16045 12689,15165 Z"/>
        <path fill="rgb(38,46,52)" stroke="none" d="M 12216,15165 L 12181,16045 12216,16045 12216,15165 Z"/>
        <path fill="rgb(38,46,52)" stroke="none" d="M 12453,15165 L 12418,16045 12453,16045 12453,15165 Z"/>
        <path fill="rgb(38,46,52)" stroke="none" d="M 12418,15165 L 12418,16045 12453,15165 12418,15165 Z"/>
        <path fill="rgb(38,46,52)" stroke="none" d="M 12181,15165 L 12181,16045 12216,15165 12181,15165 Z"/>
        <path fill="rgb(38,46,52)" stroke="none" d="M 12689,14594 L 12652,14749 12689,14749 12689,14594 Z"/>
        <path fill="rgb(38,46,52)" stroke="none" d="M 12680,14592 L 12652,14749 12689,14594 12680,14592 Z"/>
        <path fill="rgb(38,46,52)" stroke="none" d="M 12418,14749 L 12453,14592 12418,14592 12418,14749 Z"/>
        <path fill="rgb(38,46,52)" stroke="none" d="M 12453,14592 L 12418,14749 12453,14749 12453,14592 Z"/>
        <path fill="rgb(38,46,52)" stroke="none" d="M 12216,14592 L 12181,14749 12216,14749 12216,14592 Z"/>
        <path fill="rgb(38,46,52)" stroke="none" d="M 12652,14592 L 12652,14749 12680,14592 12652,14592 Z"/>
        <path fill="rgb(38,46,52)" stroke="none" d="M 12671,14592 L 12652,14592 12680,14592 12671,14592 Z"/>
        <path fill="rgb(38,46,52)" stroke="none" d="M 12181,14592 L 12181,14749 12216,14592 12181,14592 Z"/>
        <path fill="none" stroke="rgb(51,78,88)" stroke-width="0" stroke-linejoin="round" stroke-linecap="round" d="M 8377,14749 L 8377,15165 10360,15165 10360,14749"/>
        <path fill="rgb(38,46,52)" stroke="none" d="M 8678,16045 L 8678,15165 8641,15165 8678,16045 Z"/>
        <path fill="rgb(38,46,52)" stroke="none" d="M 8641,15165 L 8641,16045 8678,16045 8641,15165 Z"/>
        <path fill="rgb(38,46,52)" stroke="none" d="M 8913,16045 L 8913,15165 8878,15165 8913,16045 Z"/>
        <path fill="rgb(38,46,52)" stroke="none" d="M 8878,15165 L 8878,16045 8913,16045 8878,15165 Z"/>
        <path fill="rgb(38,46,52)" stroke="none" d="M 8641,14592 L 8641,14749 8678,14749 8641,14592 Z"/>
        <path fill="rgb(38,46,52)" stroke="none" d="M 8678,14592 L 8641,14592 8678,14749 8678,14592 Z"/>
        <path fill="rgb(38,46,52)" stroke="none" d="M 8913,14749 L 8913,14592 8878,14592 8913,14749 Z"/>
        <path fill="rgb(38,46,52)" stroke="none" d="M 8878,14592 L 8878,14749 8913,14749 8878,14592 Z"/>
        <path fill="none" stroke="rgb(51,78,88)" stroke-width="0" stroke-linejoin="round" stroke-linecap="round" d="M 12721,14749 L 10736,14749 10736,15165 12721,15165 12721,14749 10736,14749"/>
        <path fill="rgb(38,46,52)" stroke="none" d="M 9822,16045 L 9857,15165 9822,15165 9822,16045 Z"/>
        <path fill="rgb(38,46,52)" stroke="none" d="M 9857,15165 L 9822,16045 9857,16045 9857,15165 Z"/>
        <path fill="rgb(38,46,52)" stroke="none" d="M 10094,15165 L 10057,16045 10094,16045 10094,15165 Z"/>
        <path fill="rgb(38,46,52)" stroke="none" d="M 10057,15165 L 10057,16045 10094,15165 10057,15165 Z"/>
        <path fill="rgb(38,46,52)" stroke="none" d="M 10329,15165 L 10294,16045 10329,16045 10329,15165 Z"/>
        <path fill="rgb(38,46,52)" stroke="none" d="M 10294,15165 L 10294,16045 10329,15165 10294,15165 Z"/>
        <path fill="rgb(38,46,52)" stroke="none" d="M 9857,14749 L 9857,14592 9822,14592 9857,14749 Z"/>
        <path fill="rgb(38,46,52)" stroke="none" d="M 9822,14592 L 9822,14749 9857,14749 9822,14592 Z"/>
        <path fill="rgb(38,46,52)" stroke="none" d="M 10057,14749 L 10094,14592 10057,14592 10057,14749 Z"/>
        <path fill="rgb(38,46,52)" stroke="none" d="M 10094,14592 L 10057,14749 10094,14749 10094,14592 Z"/>
        <path fill="rgb(38,46,52)" stroke="none" d="M 10329,14749 L 10329,14592 10294,14592 10329,14749 Z"/>
        <path fill="rgb(38,46,52)" stroke="none" d="M 10294,14592 L 10294,14749 10329,14749 10294,14592 Z"/>
        <path fill="rgb(38,46,52)" stroke="none" d="M 10800,16045 L 10800,15165 10765,15165 10800,16045 Z"/>
        <path fill="rgb(38,46,52)" stroke="none" d="M 10765,15165 L 10765,16045 10800,16045 10765,15165 Z"/>
        <path fill="rgb(38,46,52)" stroke="none" d="M 11037,15165 L 11002,16045 11037,16045 11037,15165 Z"/>
        <path fill="rgb(38,46,52)" stroke="none" d="M 11237,15165 L 11237,16045 11274,16045 11237,15165 Z"/>
        <path fill="rgb(38,46,52)" stroke="none" d="M 11002,15165 L 11002,16045 11037,15165 11002,15165 Z"/>
        <path fill="rgb(38,46,52)" stroke="none" d="M 11274,15165 L 11237,15165 11274,16045 11274,15165 Z"/>
        <path fill="rgb(38,46,52)" stroke="none" d="M 11037,14749 L 11037,14592 11002,14592 11037,14749 Z"/>
        <path fill="rgb(38,46,52)" stroke="none" d="M 11002,14592 L 11002,14749 11037,14749 11002,14592 Z"/>
        <path fill="rgb(38,46,52)" stroke="none" d="M 11274,14592 L 11237,14749 11274,14749 11274,14592 Z"/>
        <path fill="rgb(38,46,52)" stroke="none" d="M 10800,14749 L 10800,14592 10765,14592 10800,14749 Z"/>
        <path fill="rgb(38,46,52)" stroke="none" d="M 10765,14592 L 10765,14749 10800,14749 10765,14592 Z"/>
        <path fill="rgb(38,46,52)" stroke="none" d="M 11237,14592 L 11237,14749 11274,14592 11237,14592 Z"/>
        <path fill="rgb(38,46,52)" stroke="none" d="M 10547,15318 L 10566,14592 10529,14592 10547,15318 Z"/>
        <path fill="rgb(38,46,52)" stroke="none" d="M 10547,15318 L 10529,14592 10529,16045 10547,15318 Z"/>
        <path fill="rgb(38,46,52)" stroke="none" d="M 10547,15318 L 10529,16045 10566,16045 10547,15318 Z"/>
        <path fill="rgb(38,46,52)" stroke="none" d="M 10547,15318 L 10566,16045 10566,14592 10547,15318 Z"/>
        <path fill="rgb(215,67,51)" stroke="none" d="M 10904,13248 L 10935,13267 10964,13287 10992,13308 11019,13331 11045,13354 11069,13379 11092,13405 11113,13432 11133,13459 11151,13488 11168,13517 11184,13547 11198,13578 11210,13609 11221,13640 11230,13673 11238,13706 11245,13739 11249,13772 11253,13805 11254,13839 11254,13873 11253,13907 11249,13941 11244,13974 11237,14008 11229,14042 11219,14075 11207,14108 11193,14140 11178,14173 11161,14204 11142,14235 11122,14264 11100,14292 11078,14319 11054,14345 11029,14369 11003,14391 10976,14413 10949,14432 10920,14451 10891,14468 10861,14483 10830,14497 10799,14510 10768,14521 10735,14530 10702,14538 10670,14545 10636,14549 10603,14553 10569,14554 10535,14554 10501,14553 10467,14549 10434,14544 10400,14537 10366,14529 10333,14519 10300,14507 10268,14493 10236,14478 10204,14460 10173,14442 10144,14422 10115,14400 10089,14377 10063,14354 10039,14329 10017,14303 9995,14276 9975,14249 9957,14220 9940,14191 9925,14161 9911,14130 9898,14099 9887,14068 9877,14035 9870,14003 9863,13970 9858,13936 9855,13903 9854,13869 9854,13835 9856,13802 9859,13767 9864,13734 9871,13700 9879,13666 9889,13633 9901,13600 9915,13568 9930,13536 9948,13504 9966,13473 9986,13444 10008,13416 10030,13389 10054,13363 10079,13339 10105,13317 10131,13296 10159,13276 10188,13257 10217,13240 10247,13225 10277,13211 10309,13198 10341,13187 10373,13178 10405,13170 10439,13164 10472,13159 10505,13156 10539,13154 10573,13154 10607,13156 10641,13159 10674,13164 10708,13171 10742,13179 10775,13190 10808,13202 10840,13215 10873,13231 10904,13248 Z"/>
        <path fill="rgb(255,255,255)" stroke="none" d="M 10181,13573 L 10552,13787 10925,13571 10922,13567 10918,13562 10915,13558 10911,13553 10907,13549 10904,13545 10900,13540 10896,13536 10892,13532 10888,13528 10884,13524 10880,13519 10875,13515 10871,13512 10867,13508 10863,13504 10859,13500 10854,13496 10849,13493 10845,13489 10841,13485 10836,13482 10831,13479 10827,13475 10822,13472 10817,13469 10812,13465 10807,13462 10803,13459 10798,13456 10793,13453 10787,13450 10782,13447 10777,13444 10772,13441 10767,13439 10761,13436 10756,13433 10751,13431 10746,13429 10740,13426 10735,13424 10729,13422 10724,13419 10719,13417 10713,13415 10708,13413 10702,13411 10697,13409 10691,13408 10686,13406 10680,13404 10675,13403 10669,13402 10663,13400 10658,13399 10652,13398 10647,13396 10641,13395 10635,13394 10629,13393 10623,13392 10618,13392 10612,13391 10606,13390 10601,13389 10595,13389 10589,13388 10584,13388 10578,13388 10572,13388 10567,13387 10561,13387 10556,13387 10550,13387 10544,13387 10539,13388 10533,13388 10528,13388 10522,13388 10516,13389 10511,13389 10505,13390 10500,13390 10494,13391 10489,13392 10483,13393 10478,13394 10472,13395 10466,13396 10461,13397 10455,13398 10450,13399 10444,13400 10439,13402 10433,13403 10428,13405 10422,13406 10417,13408 10411,13410 10406,13411 10401,13413 10395,13415 10390,13417 10385,13419 10379,13421 10374,13423 10369,13425 10364,13428 10359,13430 10354,13432 10349,13435 10344,13437 10339,13440 10334,13442 10329,13445 10324,13448 10319,13451 10314,13454 10309,13456 10305,13459 10300,13462 10295,13465 10291,13469 10286,13472 10281,13475 10277,13479 10272,13482 10266,13487 10259,13492 10253,13497 10247,13502 10241,13508 10235,13513 10229,13519 10223,13524 10218,13530 10212,13536 10207,13542 10201,13548 10196,13554 10191,13560 10186,13566 10181,13573 Z"/>
        <path fill="rgb(255,255,255)" stroke="none" d="M 10497,14317 L 10497,13889 10123,13674 10120,13681 10117,13689 10115,13696 10112,13704 10109,13711 10107,13719 10105,13726 10103,13734 10101,13741 10099,13749 10097,13757 10095,13765 10094,13773 10093,13781 10092,13788 10090,13796 10090,13802 10089,13807 10089,13813 10088,13819 10088,13824 10088,13830 10087,13836 10087,13841 10087,13847 10087,13852 10087,13858 10087,13864 10087,13869 10087,13875 10088,13881 10088,13886 10089,13892 10089,13897 10090,13903 10090,13908 10091,13914 10092,13919 10092,13925 10093,13931 10094,13936 10095,13942 10096,13947 10098,13953 10099,13958 10100,13964 10102,13969 10103,13975 10105,13980 10106,13986 10108,13991 10110,13997 10111,14002 10113,14008 10115,14013 10117,14018 10119,14023 10121,14028 10123,14034 10125,14039 10127,14044 10130,14049 10132,14054 10135,14059 10137,14064 10140,14069 10142,14074 10145,14079 10147,14084 10150,14089 10153,14094 10156,14099 10159,14103 10162,14108 10165,14113 10168,14118 10171,14122 10175,14127 10178,14131 10181,14136 10185,14140 10189,14145 10192,14150 10196,14154 10200,14159 10204,14163 10207,14167 10211,14171 10216,14176 10219,14180 10223,14184 10228,14188 10232,14192 10236,14196 10240,14200 10245,14204 10249,14208 10253,14211 10258,14215 10262,14219 10267,14222 10272,14226 10276,14230 10281,14233 10286,14236 10291,14240 10295,14243 10300,14246 10305,14249 10310,14252 10315,14255 10321,14258 10326,14261 10331,14264 10336,14267 10341,14270 10347,14272 10352,14275 10357,14277 10363,14280 10368,14282 10373,14285 10378,14287 10384,14289 10389,14291 10395,14293 10400,14295 10406,14297 10411,14299 10417,14301 10422,14302 10428,14304 10433,14305 10439,14307 10444,14308 10450,14309 10456,14311 10462,14312 10467,14313 10473,14314 10479,14315 10485,14316 10490,14317 10496,14317 10496,14317 10497,14317 Z"/>
        <path fill="rgb(255,255,255)" stroke="none" d="M 10984,13672 L 10613,13886 10613,14317 10621,14316 10629,14315 10637,14314 10644,14312 10652,14311 10660,14309 10667,14307 10675,14305 10680,14303 10686,14302 10691,14300 10697,14299 10702,14297 10708,14295 10713,14293 10718,14291 10723,14289 10728,14287 10734,14285 10739,14283 10744,14280 10749,14278 10754,14276 10759,14274 10764,14271 10769,14268 10774,14266 10779,14263 10784,14260 10789,14258 10794,14255 10799,14252 10803,14249 10808,14246 10813,14243 10817,14240 10822,14236 10827,14233 10831,14230 10836,14226 10840,14223 10845,14219 10849,14216 10854,14212 10859,14208 10863,14204 10867,14200 10872,14197 10876,14193 10880,14189 10884,14185 10888,14180 10892,14176 10896,14172 10900,14168 10904,14163 10908,14159 10911,14154 10915,14150 10919,14146 10922,14141 10926,14136 10929,14132 10933,14127 10936,14122 10940,14118 10943,14113 10946,14108 10949,14103 10952,14098 10955,14093 10958,14088 10961,14082 10964,14077 10967,14072 10970,14067 10972,14061 10975,14056 10977,14051 10980,14046 10982,14040 10985,14035 10987,14030 10989,14024 10991,14019 10993,14013 10995,14008 10997,14002 10999,13997 11001,13991 11002,13986 11004,13980 11005,13975 11007,13969 11008,13963 11009,13958 11011,13952 11012,13947 11013,13941 11014,13935 11015,13929 11016,13923 11017,13918 11017,13912 11018,13906 11019,13901 11019,13895 11020,13889 11020,13884 11020,13878 11021,13872 11021,13867 11021,13861 11021,13856 11021,13850 11021,13845 11021,13839 11021,13833 11020,13828 11020,13822 11020,13817 11019,13811 11018,13805 11018,13800 11017,13794 11016,13789 11016,13783 11015,13777 11014,13772 11013,13766 11011,13761 11010,13756 11009,13750 11008,13744 11006,13739 11005,13733 11003,13726 11001,13718 10998,13710 10996,13702 10993,13695 10990,13687 10987,13680 10984,13672 Z"/>
        <path fill="rgb(34,41,42)" stroke="none" d="M 10252,13963 L 10226,13963 10226,13963 10226,13963 10226,13962 10226,13962 10226,13961 10227,13960 10228,13959 10229,13958 10230,13957 10231,13957 10231,13956 10232,13955 10233,13955 10234,13955 10236,13955 10237,13955 10238,13955 10239,13955 10240,13955 10241,13955 10242,13955 10243,13956 10244,13956 10245,13957 10246,13958 10248,13959 10249,13960 10251,13961 10252,13962 10252,13963 Z M 10203,14001 L 10208,13993 10209,13994 10210,13995 10211,13996 10211,13997 10211,13998 10212,13998 10212,13999 10213,14000 10213,14001 10213,14002 10214,14003 10214,14003 10214,14004 10214,14005 10214,14006 10214,14007 10214,14008 10214,14009 10214,14010 10214,14011 10213,14012 10213,14012 10213,14013 10212,14014 10212,14016 10211,14017 10210,14018 10208,14020 10208,14021 10207,14021 10206,14022 10206,14022 10205,14023 10204,14023 10203,14024 10202,14024 10201,14024 10201,14025 10200,14025 10199,14025 10197,14025 10195,14025 10194,14025 10193,14025 10192,14025 10191,14025 10190,14025 10190,14024 10189,14024 10188,14024 10187,14023 10186,14023 10185,14023 10184,14022 10184,14022 10183,14021 10182,14020 10181,14019 10181,14019 10180,14018 10180,14018 10179,14017 10179,14016 10179,14015 10178,14014 10178,14014 10177,14012 10177,14010 10176,14009 10176,14007 10176,14006 10176,14005 10176,14004 10177,14003 10177,14003 10177,14002 10177,14001 10178,14000 10178,13999 10178,13998 10179,13998 10180,13997 10180,13996 10181,13995 10181,13994 10182,13993 10183,13993 10183,13993 10184,13992 10185,13992 10187,13991 10189,13990 10193,13989 10194,13989 10195,13998 10194,13998 10192,13998 10191,13998 10190,13998 10189,13999 10189,14000 10188,14000 10188,14001 10187,14001 10187,14002 10186,14003 10186,14003 10186,14004 10186,14005 10186,14006 10185,14007 10185,14008 10186,14009 10186,14010 10186,14011 10186,14012 10186,14013 10187,14013 10188,14014 10189,14015 10189,14015 10190,14016 10191,14016 10192,14017 10193,14017 10194,14017 10195,14017 10196,14017 10198,14017 10199,14017 10200,14016 10200,14016 10201,14016 10202,14015 10202,14015 10203,14014 10203,14013 10204,14013 10204,14012 10205,14011 10205,14010 10205,14009 10205,14008 10205,14007 10205,14005 10204,14003 10204,14002 10204,14002 10203,14001 Z M 10267,14004 L 10256,13986 10256,13985 10255,13983 10255,13982 10255,13981 10255,13980 10255,13980 10256,13979 10256,13979 10256,13978 10256,13978 10257,13977 10257,13977 10257,13976 10257,13976 10258,13976 10258,13976 10259,13976 10259,13976 10260,13975 10260,13975 10261,13976 10261,13976 10262,13976 10262,13976 10263,13977 10264,13978 10265,13978 10265,13979 10266,13980 10266,13980 10267,13982 10267,13984 10268,13986 10268,13988 10268,13989 10269,13990 10268,13992 10268,13993 10268,13995 10268,13997 10268,13998 10267,14000 10267,14002 10267,14004 Z M 10327,14009 L 10315,14008 10316,14007 10317,14005 10317,14003 10318,14002 10319,14001 10319,14000 10320,13999 10321,13998 10323,13996 10325,13993 10327,13993 10328,13991 10329,13990 10331,13990 10333,13988 10336,13987 10327,14009 10330,14029 10268,14029 10267,14029 10266,14029 10265,14029 10265,14029 10263,14029 10262,14028 10262,14028 10261,14028 10261,14028 10260,14028 10260,14027 10260,14027 10260,14026 10259,14026 10259,14025 10259,14024 10259,14023 10259,14022 10259,14021 10260,14021 10260,14020 10261,14019 10261,14019 10262,14019 10262,14018 10262,14018 10263,14018 10264,14017 10249,13997 10249,13997 10248,13996 10248,13996 10247,13996 10247,13996 10247,13996 10246,13996 10246,13996 10245,13996 10245,13996 10245,13996 10245,13996 10244,13997 10244,13997 10244,13998 10244,13998 10243,14011 10243,14011 10243,14012 10243,14012 10243,14013 10243,14013 10243,14013 10243,14014 10243,14014 10243,14014 10243,14014 10242,14014 10241,14015 10240,14015 10239,14015 10238,14015 10238,14015 10237,14016 10237,14017 10237,14020 10236,14023 10234,14025 10233,14028 10231,14030 10230,14033 10228,14035 10226,14037 10224,14039 10222,14040 10220,14042 10217,14044 10215,14045 10212,14046 10209,14047 10207,14048 10204,14048 10201,14049 10198,14049 10196,14049 10193,14049 10190,14049 10187,14048 10185,14048 10182,14047 10179,14046 10177,14045 10174,14044 10172,14042 10169,14041 10167,14039 10165,14037 10164,14036 10163,14034 10161,14033 10161,14032 10160,14031 10158,14029 10158,14028 10157,14026 10156,14025 10155,14023 10155,14022 10154,14020 10153,14019 10153,14017 10152,14015 10152,14014 10152,14012 10152,14011 10151,14009 10151,14007 10151,14006 10151,14004 10152,14002 10152,14000 10152,13998 10153,13997 10153,13995 10154,13993 10155,13992 10155,13990 10156,13988 10157,13987 10157,13986 10158,13985 10158,13984 10159,13984 10157,13983 10156,13982 10156,13981 10156,13980 10156,13979 10156,13979 10157,13978 10157,13978 10157,13978 10157,13978 10158,13977 10160,13975 10161,13974 10162,13973 10163,13972 10164,13971 10165,13971 10166,13970 10167,13969 10168,13968 10170,13968 10172,13966 10175,13965 10176,13964 10178,13963 10179,13963 10181,13963 10182,13962 10183,13962 10185,13961 10186,13961 10188,13961 10189,13961 10190,13960 10191,13960 10193,13960 10194,13960 10196,13960 10197,13960 10198,13960 10200,13960 10202,13961 10203,13961 10203,13952 10203,13951 10203,13951 10203,13950 10203,13950 10203,13949 10204,13949 10204,13949 10204,13948 10205,13948 10206,13948 10206,13948 10206,13948 10207,13948 10207,13948 10208,13949 10210,13949 10211,13950 10211,13950 10212,13949 10213,13948 10214,13948 10214,13947 10215,13947 10215,13946 10216,13946 10217,13945 10217,13944 10218,13944 10219,13944 10220,13943 10221,13943 10222,13943 10224,13943 10226,13943 10227,13943 10229,13943 10230,13944 10231,13944 10233,13944 10235,13945 10240,13947 10241,13946 10243,13945 10244,13945 10245,13944 10246,13944 10247,13944 10248,13944 10249,13944 10250,13944 10251,13944 10253,13945 10257,13946 10261,13947 10262,13947 10263,13947 10263,13947 10264,13946 10264,13946 10262,13937 10261,13935 10260,13934 10260,13933 10259,13932 10259,13931 10259,13931 10259,13930 10259,13929 10258,13928 10258,13927 10258,13926 10258,13926 10257,13926 10256,13926 10256,13926 10255,13927 10254,13927 10254,13927 10253,13927 10252,13927 10252,13926 10252,13926 10252,13926 10252,13925 10251,13925 10251,13924 10251,13924 10251,13923 10250,13923 10250,13922 10249,13921 10248,13921 10248,13921 10248,13921 10247,13921 10247,13921 10245,13921 10245,13921 10244,13921 10244,13920 10243,13920 10243,13919 10243,13918 10243,13918 10243,13917 10243,13916 10243,13916 10242,13915 10242,13913 10239,13907 10239,13907 10238,13906 10238,13906 10238,13905 10238,13904 10238,13903 10238,13902 10238,13901 10238,13899 10238,13898 10239,13897 10239,13896 10240,13894 10241,13893 10242,13892 10242,13891 10243,13890 10245,13889 10246,13888 10247,13887 10248,13887 10249,13887 10251,13886 10252,13886 10253,13886 10255,13886 10256,13886 10257,13886 10258,13886 10260,13886 10261,13886 10262,13886 10264,13887 10265,13887 10266,13887 10267,13888 10267,13888 10268,13889 10269,13890 10270,13891 10271,13892 10271,13893 10272,13894 10272,13895 10273,13896 10273,13897 10273,13899 10274,13901 10274,13902 10274,13903 10274,13905 10274,13906 10276,13906 10278,13907 10281,13907 10283,13907 10286,13908 10289,13908 10292,13908 10294,13908 10295,13909 10297,13910 10298,13910 10300,13911 10302,13913 10304,13913 10306,13914 10307,13915 10308,13917 10311,13918 10313,13921 10316,13923 10319,13926 10322,13928 10324,13931 10327,13933 10328,13934 10329,13935 10331,13937 10332,13938 10333,13939 10335,13940 10336,13941 10337,13942 10339,13944 10342,13947 10345,13949 10347,13951 10348,13952 10348,13953 10349,13954 10350,13956 10351,13957 10351,13958 10352,13960 10352,13961 10352,13963 10352,13963 10353,13965 10353,13966 10352,13967 10352,13968 10352,13969 10352,13970 10352,13971 10352,13971 10351,13972 10351,13972 10351,13973 10351,13973 10350,13973 10350,13974 10366,13984 10367,13983 10368,13981 10370,13979 10372,13977 10373,13975 10374,13974 10375,13973 10376,13973 10376,13972 10377,13972 10377,13971 10377,13971 10377,13970 10377,13970 10377,13969 10377,13969 10377,13968 10376,13968 10376,13968 10375,13967 10375,13967 10374,13966 10373,13966 10373,13966 10372,13965 10371,13965 10370,13965 10369,13964 10368,13964 10361,13961 10361,13961 10360,13961 10360,13961 10360,13961 10360,13960 10359,13960 10359,13960 10359,13959 10359,13958 10358,13958 10359,13957 10359,13956 10359,13955 10359,13955 10361,13954 10362,13953 10427,13952 10436,13953 10437,13954 10438,13955 10438,13956 10439,13956 10439,13957 10439,13957 10439,13958 10439,13959 10439,13960 10439,13960 10439,13961 10439,13961 10439,13961 10439,13961 10438,13962 10438,13962 10436,13964 10435,13965 10435,13965 10435,13966 10434,13967 10434,13967 10434,13968 10434,13968 10434,13969 10434,13969 10435,13969 10436,13970 10436,13971 10437,13971 10438,13972 10439,13973 10440,13973 10441,13975 10443,13976 10444,13977 10444,13978 10445,13978 10445,13979 10446,13981 10447,13983 10448,13984 10449,13985 10449,13986 10449,13987 10449,13988 10449,13988 10450,13989 10450,13989 10451,13989 10452,13989 10452,13989 10453,13989 10453,13989 10453,13989 10454,13989 10454,13990 10454,13990 10454,13990 10454,13991 10454,13993 10454,14020 10454,14021 10454,14021 10454,14022 10454,14022 10454,14023 10453,14024 10452,14024 10451,14024 10450,14024 10449,14024 10449,14023 10448,14023 10448,14023 10447,14023 10447,14023 10447,14023 10446,14022 10446,14022 10446,14023 10446,14024 10445,14025 10444,14027 10444,14028 10443,14029 10442,14030 10441,14031 10440,14033 10439,14034 10439,14035 10438,14036 10436,14037 10435,14038 10434,14039 10433,14040 10432,14041 10431,14042 10429,14043 10428,14043 10427,14044 10425,14045 10424,14045 10423,14046 10421,14047 10420,14047 10418,14048 10417,14048 10415,14048 10414,14049 10412,14049 10411,14049 10409,14049 10408,14049 10406,14049 10404,14049 10402,14049 10401,14049 10399,14048 10397,14048 10395,14047 10394,14047 10392,14046 10390,14046 10389,14045 10387,14044 10386,14043 10384,14043 10383,14042 10381,14040 10380,14039 10378,14039 10377,14037 10376,14036 10375,14034 10374,14033 10373,14032 10372,14030 10371,14029 10370,14027 10369,14026 10368,14024 10368,14022 10367,14021 10366,14019 10366,14017 10365,14016 10365,14015 10330,14029 10327,14009 Z"/>
        <path fill="rgb(34,41,42)" stroke="none" d="M 10748,13999 L 10717,13999 10717,14000 10717,14001 10717,14001 10716,14002 10716,14003 10715,14003 10714,14004 10714,14005 10713,14005 10712,14006 10711,14006 10710,14006 10709,14007 10708,14007 10708,14007 10707,14007 10706,14007 10705,14007 10705,14007 10704,14007 10702,14006 10702,14006 10700,14005 10699,14004 10698,14003 10697,14002 10697,14001 10696,14000 10696,13999 10696,13998 10696,13998 10696,13997 10696,13997 10696,13996 10696,13995 10696,13995 10696,13994 10696,13993 10697,13993 10697,13992 10697,13992 10697,13992 10697,13991 10697,13991 10698,13990 10698,13990 10681,13965 10679,13967 10677,13969 10675,13971 10673,13973 10672,13976 10671,13978 10670,13980 10669,13983 10668,13985 10667,13988 10667,13990 10667,13993 10667,13995 10667,13998 10667,14000 10667,14003 10668,14005 10668,14008 10669,14010 10670,14013 10672,14015 10673,14017 10674,14019 10676,14022 10677,14023 10679,14025 10681,14027 10683,14029 10686,14030 10688,14032 10691,14033 10693,14034 10696,14035 10698,14035 10700,14036 10702,14036 10705,14037 10707,14037 10710,14037 10712,14036 10714,14036 10716,14036 10719,14035 10721,14034 10723,14034 10725,14033 10727,14031 10729,14030 10731,14029 10733,14028 10734,14026 10736,14024 10738,14023 10739,14021 10740,14019 10742,14017 10743,14015 10744,14013 10745,14011 10746,14009 10746,14007 10747,14004 10747,14002 10748,13999 Z M 10716,13990 L 10729,13962 10730,13963 10731,13963 10733,13964 10734,13966 10736,13967 10738,13969 10739,13970 10740,13972 10741,13974 10743,13975 10743,13977 10744,13979 10745,13981 10746,13983 10746,13985 10747,13988 10747,13989 10747,13991 10748,13992 10748,13993 10748,13993 10748,13993 10718,13994 10718,13994 10718,13993 10718,13993 10717,13992 10717,13991 10716,13991 10716,13990 10716,13990 Z M 10702,13987 L 10685,13962 10686,13962 10687,13961 10688,13960 10691,13959 10692,13958 10695,13958 10697,13957 10699,13956 10701,13956 10703,13956 10706,13955 10708,13955 10710,13955 10713,13956 10715,13956 10717,13957 10719,13957 10722,13958 10722,13958 10723,13959 10723,13959 10723,13959 10710,13987 10710,13987 10709,13986 10708,13986 10708,13986 10707,13986 10707,13986 10706,13986 10704,13986 10704,13986 10703,13986 10703,13987 10702,13987 Z M 10836,13980 L 10863,13920 10874,13945 10873,13946 10872,13946 10870,13948 10868,13949 10865,13950 10863,13952 10861,13954 10859,13955 10857,13958 10855,13959 10854,13962 10852,13964 10850,13966 10849,13969 10848,13970 10847,13971 10846,13973 10846,13974 10845,13975 10845,13977 10844,13978 10844,13979 10844,13980 10844,13981 10836,13980 Z M 10880,13959 L 10890,13981 10890,13981 10889,13981 10889,13981 10889,13981 10889,13982 10888,13982 10887,13983 10887,13983 10886,13984 10886,13984 10885,13985 10885,13986 10859,13986 10859,13985 10860,13983 10860,13982 10860,13981 10861,13980 10861,13978 10861,13978 10862,13976 10863,13974 10864,13972 10865,13971 10866,13970 10866,13969 10867,13968 10869,13966 10870,13965 10872,13964 10873,13963 10875,13962 10877,13961 10879,13960 10880,13959 Z M 10938,13991 L 10914,13991 10913,13990 10913,13990 10913,13988 10912,13988 10911,13986 10910,13985 10910,13984 10909,13983 10909,13983 10908,13982 10906,13981 10905,13981 10904,13980 10902,13980 10901,13979 10899,13979 10898,13979 10896,13979 10886,13957 10889,13957 10891,13956 10893,13956 10895,13955 10897,13955 10900,13955 10902,13955 10904,13956 10906,13956 10908,13957 10910,13958 10913,13958 10915,13959 10917,13960 10919,13961 10920,13963 10922,13964 10924,13965 10926,13967 10927,13968 10929,13970 10930,13971 10931,13973 10932,13975 10934,13977 10935,13979 10935,13981 10936,13983 10937,13985 10937,13987 10937,13989 10938,13991 Z M 10898,14013 L 10898,14016 10912,14016 10912,14020 10867,14020 10867,14020 10868,14021 10868,14022 10868,14022 10869,14023 10870,14024 10871,14026 10872,14027 10874,14028 10875,14029 10876,14030 10878,14030 10879,14031 10880,14032 10882,14033 10883,14033 10885,14034 10886,14034 10888,14034 10889,14035 10891,14035 10892,14035 10894,14035 10895,14036 10897,14036 10899,14036 10900,14035 10902,14035 10903,14035 10905,14035 10906,14034 10908,14034 10910,14034 10911,14033 10913,14033 10914,14032 10915,14031 10917,14031 10918,14030 10919,14029 10920,14028 10921,14028 10923,14027 10924,14026 10925,14025 10926,14024 10927,14024 10928,14023 10929,14022 10929,14021 10930,14020 10931,14018 10932,14018 10932,14016 10933,14015 10934,14014 10934,14013 10935,14012 10935,14010 10936,14009 10936,14008 10937,14007 10937,14005 10937,14004 10937,14003 10938,14001 10938,14000 10938,13998 10938,13997 10938,13996 10914,13996 10914,13998 10914,14000 10913,14001 10913,14003 10912,14004 10911,14006 10910,14007 10909,14008 10908,14009 10907,14010 10906,14011 10904,14012 10903,14012 10901,14013 10900,14013 10898,14013 10851,14020 10814,14020 10814,14034 10821,14034 10821,14038 10804,14039 10804,14034 10809,14034 10809,14020 10801,14020 10799,14020 10798,14020 10797,14020 10796,14020 10795,14020 10794,14020 10793,14019 10792,14018 10790,14018 10789,14017 10788,14016 10786,14015 10785,14014 10784,14013 10784,14012 10783,14011 10782,14010 10781,14008 10780,14007 10780,14006 10780,14004 10779,14003 10779,14002 10779,14001 10780,13999 10780,13998 10780,13998 10780,13996 10781,13995 10781,13994 10781,13993 10782,13992 10782,13991 10783,13990 10784,13989 10784,13989 10785,13988 10786,13987 10786,13987 10786,13986 10787,13986 10787,13986 10782,13979 10784,13975 10785,13974 10785,13973 10786,13972 10786,13971 10786,13971 10786,13970 10754,13951 10753,13950 10752,13949 10751,13948 10750,13947 10749,13947 10748,13946 10747,13945 10747,13944 10746,13943 10745,13942 10745,13941 10744,13939 10743,13938 10743,13936 10743,13935 10743,13934 10736,13947 10738,13948 10741,13951 10744,13953 10747,13955 10749,13958 10749,13958 10750,13959 10751,13960 10752,13962 10754,13964 10755,13966 10756,13968 10757,13969 10758,13971 10759,13973 10759,13974 10760,13976 10761,13978 10761,13980 10762,13981 10762,13983 10763,13985 10763,13987 10763,13990 10764,13994 10764,13994 10763,13995 10763,13995 10762,13995 10759,13996 10759,13999 10759,14002 10758,14006 10758,14009 10757,14012 10756,14015 10755,14018 10753,14021 10752,14023 10750,14026 10749,14028 10747,14031 10745,14033 10743,14035 10740,14037 10738,14039 10735,14041 10733,14042 10730,14044 10727,14045 10724,14046 10721,14047 10718,14048 10715,14048 10712,14049 10709,14049 10706,14049 10703,14049 10700,14048 10697,14048 10693,14047 10690,14046 10687,14044 10684,14043 10681,14042 10678,14040 10676,14038 10674,14036 10671,14034 10669,14032 10667,14030 10665,14027 10664,14025 10662,14022 10661,14019 10660,14017 10658,14014 10657,14011 10657,14008 10656,14005 10656,14002 10656,13999 10656,13996 10656,13993 10656,13990 10656,13987 10657,13984 10658,13981 10659,13978 10660,13975 10661,13973 10663,13970 10665,13967 10667,13964 10664,13963 10664,13962 10664,13962 10663,13962 10663,13961 10663,13961 10663,13960 10663,13960 10663,13960 10665,13958 10667,13956 10670,13953 10672,13952 10673,13951 10675,13949 10676,13948 10678,13947 10680,13946 10682,13945 10685,13944 10687,13943 10690,13942 10692,13941 10694,13941 10697,13940 10699,13940 10701,13940 10703,13939 10705,13939 10707,13939 10709,13939 10711,13939 10713,13940 10715,13940 10718,13940 10719,13941 10722,13941 10723,13942 10726,13943 10728,13943 10728,13943 10729,13943 10730,13944 10730,13944 10738,13928 10737,13928 10734,13928 10731,13929 10729,13929 10729,13929 10728,13929 10728,13929 10728,13929 10727,13929 10727,13928 10727,13928 10727,13928 10727,13915 10727,13916 10727,13916 10727,13914 10727,13914 10727,13913 10727,13913 10728,13912 10728,13912 10729,13912 10729,13911 10730,13911 10732,13911 10733,13912 10735,13912 10736,13912 10745,13914 10748,13906 10748,13906 10747,13905 10746,13905 10745,13905 10745,13904 10744,13904 10743,13903 10743,13902 10742,13902 10741,13901 10741,13900 10740,13899 10740,13898 10740,13897 10739,13896 10739,13895 10739,13894 10740,13892 10740,13891 10740,13891 10740,13890 10740,13889 10741,13888 10741,13888 10742,13887 10742,13887 10743,13887 10743,13886 10744,13886 10745,13886 10746,13886 10748,13886 10749,13886 10750,13886 10789,13886 10789,13891 10750,13891 10749,13891 10748,13891 10747,13892 10746,13892 10746,13893 10745,13893 10745,13894 10745,13894 10745,13894 10745,13895 10745,13896 10745,13897 10745,13897 10745,13898 10746,13898 10746,13898 10747,13899 10747,13899 10748,13900 10748,13900 10758,13902 10752,13916 10753,13915 10756,13914 10758,13914 10759,13914 10761,13914 10762,13914 10764,13914 10766,13914 10768,13915 10770,13916 10772,13916 10774,13917 10776,13918 10778,13920 10779,13920 10780,13921 10781,13922 10782,13923 10784,13924 10784,13926 10785,13927 10786,13928 10787,13929 10788,13931 10789,13932 10789,13933 10789,13935 10790,13936 10790,13937 10791,13938 10791,13948 10791,13950 10791,13951 10792,13953 10792,13954 10793,13955 10793,13956 10794,13957 10794,13958 10795,13958 10796,13959 10796,13959 10797,13960 10799,13962 10801,13963 10803,13964 10805,13965 10806,13966 10807,13966 10809,13967 10810,13967 10814,13968 10817,13968 10819,13969 10823,13970 10824,13970 10824,13970 10825,13970 10826,13970 10827,13970 10827,13970 10827,13970 10828,13969 10858,13911 10856,13911 10854,13910 10850,13909 10848,13908 10847,13908 10845,13907 10844,13906 10843,13906 10842,13905 10841,13905 10841,13904 10840,13903 10840,13903 10839,13902 10839,13902 10839,13901 10839,13900 10839,13900 10839,13899 10839,13898 10839,13898 10839,13897 10840,13897 10840,13896 10841,13895 10841,13895 10842,13895 10843,13894 10843,13894 10844,13894 10845,13894 10845,13894 10847,13894 10849,13895 10851,13895 10853,13896 10855,13896 10858,13897 10859,13897 10860,13897 10861,13897 10862,13897 10864,13897 10866,13897 10869,13897 10871,13897 10874,13897 10876,13897 10878,13897 10880,13897 10880,13897 10881,13897 10882,13897 10882,13897 10883,13897 10884,13898 10884,13898 10885,13899 10885,13900 10885,13901 10886,13902 10886,13903 10886,13904 10886,13905 10886,13906 10885,13907 10885,13908 10885,13908 10884,13909 10884,13910 10883,13911 10882,13912 10880,13913 10879,13913 10878,13913 10878,13914 10877,13914 10876,13914 10875,13914 10874,13914 10872,13914 10871,13914 10869,13914 10868,13914 10868,13914 10867,13914 10867,13913 10867,13913 10880,13942 10881,13942 10882,13942 10883,13941 10884,13941 10886,13940 10888,13940 10890,13940 10893,13939 10895,13939 10897,13939 10899,13939 10901,13939 10904,13940 10907,13940 10910,13941 10912,13942 10915,13942 10917,13943 10920,13944 10922,13945 10925,13947 10927,13948 10929,13950 10931,13951 10934,13953 10935,13955 10938,13957 10940,13958 10941,13960 10943,13962 10944,13964 10946,13966 10947,13968 10948,13970 10949,13973 10949,13975 10950,13976 10950,13977 10956,13977 10956,13977 10957,13977 10958,13977 10959,13978 10959,13978 10959,13978 10959,13979 10959,13979 10959,14003 10959,14004 10959,14004 10959,14005 10959,14005 10958,14005 10958,14005 10949,14007 10948,14009 10948,14011 10947,14013 10946,14015 10945,14017 10944,14019 10943,14020 10942,14022 10941,14024 10940,14025 10938,14027 10937,14028 10935,14030 10934,14031 10932,14033 10931,14034 10929,14035 10928,14036 10926,14038 10924,14039 10923,14039 10921,14040 10919,14041 10917,14042 10915,14043 10913,14044 10911,14044 10909,14044 10907,14045 10905,14045 10903,14046 10901,14046 10899,14046 10897,14046 10895,14046 10894,14046 10892,14045 10890,14045 10888,14045 10886,14045 10885,14044 10883,14044 10881,14043 10879,14043 10878,14042 10876,14041 10874,14040 10873,14040 10871,14039 10870,14038 10868,14037 10866,14036 10865,14035 10864,14034 10862,14033 10861,14031 10859,14030 10858,14028 10857,14027 10856,14026 10854,14024 10853,14023 10852,14021 10851,14020 10898,14013 Z"/>
        <path fill="rgb(34,41,42)" stroke="none" d="M 10432,13542 L 10433,13542 10434,13542 10435,13543 10436,13543 10438,13543 10439,13544 10441,13545 10443,13545 10444,13547 10446,13548 10447,13549 10448,13550 10449,13552 10450,13554 10451,13555 10451,13557 10451,13558 10451,13559 10452,13560 10452,13561 10452,13562 10451,13563 10451,13564 10451,13565 10451,13566 10451,13567 10450,13568 10450,13569 10449,13569 10449,13570 10449,13571 10448,13572 10448,13572 10447,13573 10446,13574 10446,13575 10445,13575 10444,13576 10444,13576 10443,13577 10442,13577 10441,13578 10440,13578 10439,13579 10439,13579 10438,13579 10437,13580 10436,13580 10435,13580 10434,13580 10433,13580 10432,13580 10431,13580 10430,13580 10429,13580 10428,13580 10427,13579 10426,13579 10425,13579 10424,13578 10424,13578 10423,13578 10422,13577 10421,13577 10420,13576 10420,13575 10419,13575 10419,13574 10418,13574 10417,13573 10417,13572 10416,13571 10416,13571 10415,13570 10415,13569 10414,13568 10414,13567 10414,13567 10414,13566 10413,13565 10413,13564 10413,13563 10413,13562 10413,13561 10413,13560 10413,13559 10413,13558 10414,13557 10414,13556 10414,13555 10414,13555 10414,13554 10415,13553 10415,13552 10416,13551 10416,13550 10417,13549 10419,13548 10420,13547 10422,13545 10423,13545 10425,13544 10425,13544 10426,13543 10427,13543 10428,13543 10429,13543 10430,13542 10431,13542 10432,13542 Z M 10516,13561 L 10516,13604 10461,13604 10460,13604 10459,13604 10458,13604 10457,13604 10457,13603 10456,13603 10455,13603 10455,13602 10454,13602 10454,13601 10453,13601 10453,13600 10453,13600 10453,13600 10452,13599 10452,13598 10452,13598 10452,13597 10452,13596 10453,13596 10453,13595 10453,13594 10471,13565 10471,13564 10472,13563 10472,13563 10473,13562 10474,13562 10475,13561 10475,13561 10476,13561 10477,13561 10478,13561 10480,13561 10516,13561 Z M 10521,13561 L 10587,13561 10587,13604 10521,13604 10521,13561 Z M 10592,13561 L 10627,13561 10628,13561 10629,13561 10630,13561 10631,13561 10632,13561 10632,13561 10633,13562 10634,13562 10635,13562 10636,13563 10636,13563 10637,13564 10637,13565 10638,13565 10655,13594 10655,13595 10656,13596 10656,13597 10656,13597 10656,13598 10656,13599 10656,13599 10656,13600 10656,13600 10655,13601 10655,13601 10655,13602 10654,13602 10653,13603 10653,13603 10652,13603 10652,13603 10651,13604 10651,13604 10649,13604 10648,13604 10647,13604 10592,13604 10592,13561 Z M 10676,13542 L 10677,13542 10678,13542 10679,13542 10680,13543 10682,13543 10683,13544 10685,13545 10687,13545 10688,13547 10689,13548 10691,13549 10692,13551 10693,13552 10693,13554 10694,13555 10694,13556 10694,13556 10695,13557 10695,13558 10695,13559 10695,13560 10695,13561 10695,13562 10695,13563 10695,13564 10694,13565 10694,13566 10694,13567 10694,13568 10693,13569 10693,13570 10692,13570 10692,13571 10692,13572 10691,13573 10690,13573 10690,13574 10689,13575 10688,13576 10686,13577 10685,13577 10685,13578 10684,13578 10683,13579 10682,13579 10681,13580 10680,13580 10679,13580 10678,13580 10677,13580 10676,13580 10675,13580 10674,13580 10673,13580 10672,13580 10672,13580 10670,13580 10670,13579 10669,13579 10668,13579 10667,13578 10666,13578 10665,13577 10665,13577 10664,13576 10663,13576 10662,13575 10662,13575 10661,13574 10661,13573 10660,13573 10659,13572 10659,13571 10658,13570 10658,13570 10657,13569 10657,13568 10657,13567 10657,13566 10657,13565 10656,13564 10656,13563 10656,13562 10656,13561 10656,13560 10656,13559 10656,13558 10657,13557 10657,13556 10657,13555 10657,13555 10658,13554 10658,13553 10658,13552 10659,13551 10659,13550 10660,13550 10661,13549 10661,13548 10662,13548 10662,13547 10663,13546 10664,13546 10665,13545 10667,13545 10668,13544 10669,13543 10670,13543 10671,13543 10672,13543 10673,13542 10674,13542 10675,13542 10676,13542 Z M 10670,13529 L 10669,13529 10668,13529 10667,13529 10667,13529 10611,13525 10608,13525 10604,13525 10601,13525 10597,13524 10593,13524 10588,13524 10584,13524 10580,13524 10576,13524 10571,13524 10567,13524 10563,13524 10559,13524 10556,13524 10552,13524 10548,13524 10543,13524 10536,13524 10529,13524 10521,13524 10513,13524 10506,13524 10499,13525 10493,13525 10441,13528 10441,13528 10440,13528 10439,13529 10439,13529 10474,13483 10475,13482 10475,13482 10475,13481 10476,13481 10477,13480 10477,13480 10478,13480 10479,13480 10479,13480 10480,13479 10481,13479 10482,13479 10625,13479 10626,13479 10628,13479 10629,13480 10630,13480 10631,13480 10632,13481 10632,13481 10632,13481 10633,13482 10634,13483 10670,13529 10684,13621 10684,13661 10684,13662 10684,13664 10684,13664 10684,13665 10684,13665 10683,13666 10683,13666 10682,13667 10682,13667 10682,13667 10680,13667 10679,13667 10663,13667 10662,13667 10662,13667 10661,13667 10661,13667 10660,13666 10660,13666 10659,13666 10659,13665 10659,13665 10659,13665 10659,13663 10659,13662 10659,13626 10658,13626 10657,13626 10656,13626 10655,13626 10653,13626 10650,13627 10647,13627 10643,13628 10637,13628 10630,13629 10623,13629 10616,13629 10610,13629 10604,13629 10600,13630 10594,13630 10586,13630 10578,13630 10570,13630 10562,13630 10556,13630 10552,13630 10546,13630 10540,13630 10534,13630 10527,13630 10521,13630 10515,13630 10509,13630 10503,13629 10497,13629 10491,13629 10485,13628 10478,13628 10471,13628 10465,13627 10459,13627 10453,13627 10449,13627 10449,13661 10449,13664 10449,13664 10449,13665 10449,13666 10449,13666 10448,13666 10448,13667 10447,13667 10447,13667 10446,13667 10445,13667 10444,13667 10444,13667 10429,13667 10428,13667 10427,13667 10427,13667 10426,13667 10425,13666 10425,13666 10425,13666 10424,13665 10424,13664 10424,13664 10424,13662 10424,13661 10424,13621 10414,13621 10413,13621 10411,13621 10411,13621 10410,13621 10409,13620 10409,13620 10409,13620 10408,13619 10408,13618 10408,13618 10408,13617 10408,13616 10408,13615 10408,13614 10408,13612 10408,13610 10408,13609 10408,13607 10408,13605 10408,13603 10408,13601 10408,13600 10407,13598 10407,13596 10407,13594 10407,13592 10407,13590 10407,13588 10407,13586 10407,13584 10406,13582 10406,13579 10406,13577 10405,13575 10405,13573 10404,13570 10404,13568 10404,13566 10403,13565 10403,13563 10402,13561 10402,13560 10402,13559 10402,13558 10402,13557 10402,13556 10402,13554 10402,13552 10403,13550 10403,13547 10404,13546 10404,13545 10404,13544 10405,13543 10406,13541 10407,13540 10408,13538 10409,13537 10411,13535 10412,13534 10413,13533 10415,13532 10416,13531 10417,13530 10418,13530 10419,13529 10421,13529 10422,13528 10423,13528 10424,13528 10426,13528 10427,13527 10469,13473 10469,13472 10470,13471 10470,13471 10471,13470 10471,13470 10472,13469 10473,13469 10474,13469 10475,13469 10475,13469 10477,13469 10478,13469 10629,13469 10631,13469 10632,13469 10633,13469 10633,13469 10634,13469 10635,13470 10636,13470 10636,13470 10637,13471 10637,13471 10638,13472 10639,13474 10682,13528 10683,13528 10683,13528 10684,13529 10685,13529 10687,13529 10689,13530 10691,13532 10693,13533 10694,13534 10696,13535 10697,13536 10698,13537 10699,13538 10700,13540 10701,13541 10702,13542 10702,13544 10703,13545 10704,13547 10704,13548 10705,13550 10705,13551 10705,13553 10705,13555 10705,13556 10705,13558 10705,13559 10705,13561 10704,13565 10704,13568 10703,13570 10703,13573 10702,13576 10702,13579 10702,13582 10701,13585 10701,13588 10700,13591 10700,13593 10700,13596 10700,13599 10700,13601 10700,13604 10700,13607 10700,13610 10700,13612 10700,13613 10700,13614 10700,13615 10700,13616 10700,13617 10700,13618 10700,13619 10699,13620 10699,13620 10698,13621 10698,13621 10697,13621 10696,13622 10695,13622 10684,13621 10670,13529 Z"/>
        <path fill="rgb(255,255,255)" stroke="none" d="M 10398,14003 L 10398,14004 10397,14005 10397,14006 10397,14007 10397,14008 10397,14009 10398,14010 10398,14011 10398,14012 10399,14013 10399,14013 10400,14014 10400,14014 10401,14015 10402,14015 10403,14016 10404,14016 10404,14017 10406,14017 10407,14017 10407,14017 10408,14017 10409,14016 10409,14016 10410,14016 10411,14016 10411,14015 10412,14015 10413,14014 10413,14014 10414,14013 10414,14013 10414,14012 10415,14012 10415,14011 10415,14011 10423,14014 10423,14016 10422,14017 10421,14018 10420,14019 10419,14020 10419,14021 10418,14022 10417,14022 10415,14023 10414,14023 10413,14024 10412,14024 10411,14025 10409,14025 10408,14025 10406,14025 10406,14025 10404,14025 10404,14025 10403,14025 10402,14025 10401,14024 10400,14024 10399,14024 10399,14023 10398,14023 10397,14023 10396,14022 10396,14022 10395,14021 10394,14021 10394,14020 10393,14019 10393,14019 10392,14018 10391,14018 10391,14016 10390,14014 10389,14013 10389,14013 10389,14012 10389,14011 10388,14010 10388,14009 10388,14008 10388,14007 10388,14006 10388,14005 10388,14004 10389,14003 10389,14002 10389,14001 10390,14000 10390,13999 10398,14003 Z"/>
        <path fill="rgb(255,255,255)" stroke="none" d="M 10415,14004 L 10417,14003 10424,14002 10424,14000 10423,13999 10422,13998 10421,13997 10420,13996 10419,13995 10419,13994 10417,13993 10416,13992 10415,13991 10414,13991 10413,13990 10411,13990 10410,13989 10408,13989 10407,13989 10405,13989 10404,13989 10402,13990 10401,13990 10404,13998 10405,13998 10407,13998 10407,13998 10408,13998 10409,13998 10409,13998 10410,13999 10411,13999 10411,13999 10412,14000 10413,14001 10414,14002 10415,14003 10415,14004 Z"/>
       </g>
      </g>
     </g>
    </g>
   </g>
  </g>
 </g>
</svg>