<?xml version="1.0" encoding="UTF-8"?>
<!DOCTYPE svg PUBLIC "-//W3C//DTD SVG 1.1//EN" "http://www.w3.org/Graphics/SVG/1.1/DTD/svg11.dtd">
<svg version="1.2" width="50.03mm" height="35.09mm" viewBox="8140 13153 5003 3509" preserveAspectRatio="xMidYMid" fill-rule="evenodd" stroke-width="28.222" stroke-linejoin="round" xmlns="http://www.w3.org/2000/svg" xmlns:ooo="http://xml.openoffice.org/svg/export" xmlns:xlink="http://www.w3.org/1999/xlink" xmlns:presentation="http://sun.com/xmlns/staroffice/presentation" xmlns:smil="http://www.w3.org/2001/SMIL20/" xmlns:anim="urn:oasis:names:tc:opendocument:xmlns:animation:1.0" xml:space="preserve">
 <defs class="ClipPathGroup">
  <clipPath id="presentation_clip_path" clipPathUnits="userSpaceOnUse">
   <rect x="8140" y="13153" width="5003" height="3509"/>
  </clipPath>
  <clipPath id="presentation_clip_path_shrink" clipPathUnits="userSpaceOnUse">
   <rect x="8145" y="13156" width="4993" height="3502"/>
  </clipPath>
 </defs>
 <defs class="TextShapeIndex">
  <g ooo:slide="id1" ooo:id-list="id3"/>
 </defs>
 <defs class="EmbeddedBulletChars">
  <g id="bullet-char-template-57356" transform="scale(0.00048828125,-0.00048828125)">
   <path d="M 580,1141 L 1163,571 580,0 -4,571 580,1141 Z"/>
  </g>
  <g id="bullet-char-template-57354" transform="scale(0.00048828125,-0.00048828125)">
   <path d="M 8,1128 L 1137,1128 1137,0 8,0 8,1128 Z"/>
  </g>
  <g id="bullet-char-template-10146" transform="scale(0.00048828125,-0.00048828125)">
   <path d="M 174,0 L 602,739 174,1481 1456,739 174,0 Z M 1358,739 L 309,1346 659,739 1358,739 Z"/>
  </g>
  <g id="bullet-char-template-10132" transform="scale(0.00048828125,-0.00048828125)">
   <path d="M 2015,739 L 1276,0 717,0 1260,543 174,543 174,936 1260,936 717,1481 1274,1481 2015,739 Z"/>
  </g>
  <g id="bullet-char-template-10007" transform="scale(0.00048828125,-0.00048828125)">
   <path d="M 0,-2 C -7,14 -16,27 -25,37 L 356,567 C 262,823 215,952 215,954 215,979 228,992 255,992 264,992 276,990 289,987 310,991 331,999 354,1012 L 381,999 492,748 772,1049 836,1024 860,1049 C 881,1039 901,1025 922,1006 886,937 835,863 770,784 769,783 710,716 594,584 L 774,223 C 774,196 753,168 711,139 L 727,119 C 717,90 699,76 672,76 641,76 570,178 457,381 L 164,-76 C 142,-110 111,-127 72,-127 30,-127 9,-110 8,-76 1,-67 -2,-52 -2,-32 -2,-23 -1,-13 0,-2 Z"/>
  </g>
  <g id="bullet-char-template-10004" transform="scale(0.00048828125,-0.00048828125)">
   <path d="M 285,-33 C 182,-33 111,30 74,156 52,228 41,333 41,471 41,549 55,616 82,672 116,743 169,778 240,778 293,778 328,747 346,684 L 369,508 C 377,444 397,411 428,410 L 1163,1116 C 1174,1127 1196,1133 1229,1133 1271,1133 1292,1118 1292,1087 L 1292,965 C 1292,929 1282,901 1262,881 L 442,47 C 390,-6 338,-33 285,-33 Z"/>
  </g>
  <g id="bullet-char-template-9679" transform="scale(0.00048828125,-0.00048828125)">
   <path d="M 813,0 C 632,0 489,54 383,161 276,268 223,411 223,592 223,773 276,916 383,1023 489,1130 632,1184 813,1184 992,1184 1136,1130 1245,1023 1353,916 1407,772 1407,592 1407,412 1353,268 1245,161 1136,54 992,0 813,0 Z"/>
  </g>
  <g id="bullet-char-template-8226" transform="scale(0.00048828125,-0.00048828125)">
   <path d="M 346,457 C 273,457 209,483 155,535 101,586 74,649 74,723 74,796 101,859 155,911 209,963 273,989 346,989 419,989 480,963 531,910 582,859 608,796 608,723 608,648 583,586 532,535 482,483 420,457 346,457 Z"/>
  </g>
  <g id="bullet-char-template-8211" transform="scale(0.00048828125,-0.00048828125)">
   <path d="M -4,459 L 1135,459 1135,606 -4,606 -4,459 Z"/>
  </g>
  <g id="bullet-char-template-61548" transform="scale(0.00048828125,-0.00048828125)">
   <path d="M 173,740 C 173,903 231,1043 346,1159 462,1274 601,1332 765,1332 928,1332 1067,1274 1183,1159 1299,1043 1357,903 1357,740 1357,577 1299,437 1183,322 1067,206 928,148 765,148 601,148 462,206 346,322 231,437 173,577 173,740 Z"/>
  </g>
 </defs>
 <defs class="TextEmbeddedBitmaps"/>
 <g class="SlideGroup">
  <g>
   <g id="container-id1">
    <g id="id1" class="Slide" clip-path="url(#presentation_clip_path)">
     <g class="Page">
      <g class="Graphic">
       <g id="id3">
        <rect class="BoundingBox" stroke="none" fill="none" x="8140" y="13153" width="5004" height="3510"/>
        <path fill="rgb(255,255,255)" stroke="none" d="M 8759,15169 L 10418,15169 10418,14750 8759,14750 8759,15169 Z"/>
        <path fill="rgb(255,255,255)" stroke="none" d="M 10951,15169 L 12611,15169 12611,14748 10951,14748 10951,15169 Z"/>
        <path fill="none" stroke="rgb(51,78,88)" stroke-width="0" stroke-linejoin="round" stroke-linecap="round" d="M 8144,16064 L 8144,14934"/>
        <path fill="none" stroke="rgb(51,78,88)" stroke-width="0" stroke-linejoin="round" stroke-linecap="round" d="M 8517,14559 L 8466,14562 8412,14573 8362,14592 8316,14618 8274,14651 8234,14688 8203,14730 8177,14779 8158,14829 8148,14880 8144,14934"/>
        <path fill="none" stroke="rgb(51,78,88)" stroke-width="0" stroke-linejoin="round" stroke-linecap="round" d="M 8517,14559 L 12765,14559"/>
        <path fill="none" stroke="rgb(51,78,88)" stroke-width="0" stroke-linejoin="round" stroke-linecap="round" d="M 13140,14934 L 13136,14880 13126,14829 13105,14779 13081,14730 13048,14688 13011,14651 12968,14618 12920,14592 12870,14573 12818,14562 12765,14559"/>
        <path fill="none" stroke="rgb(51,78,88)" stroke-width="0" stroke-linejoin="round" stroke-linecap="round" d="M 13140,14934 L 13140,16064"/>
        <path fill="none" stroke="rgb(51,78,88)" stroke-width="0" stroke-linejoin="round" stroke-linecap="round" d="M 13103,16064 L 13103,16659"/>
        <path fill="none" stroke="rgb(51,78,88)" stroke-width="0" stroke-linejoin="round" stroke-linecap="round" d="M 13140,16064 L 13140,16659"/>
        <path fill="none" stroke="rgb(51,78,88)" stroke-width="0" stroke-linejoin="round" stroke-linecap="round" d="M 13103,16064 L 13103,14934 13101,14886 13090,14838 13074,14793 13050,14751 13022,14712 12987,14677 12948,14647 12905,14625 12861,14609 12813,14597 12765,14594 8517,14594 8469,14597 8423,14609 8377,14625 8335,14647 8295,14677 8262,14712 8233,14751 8208,14793 8192,14838 8183,14886 8179,14934"/>
        <path fill="none" stroke="rgb(51,78,88)" stroke-width="0" stroke-linejoin="round" stroke-linecap="round" d="M 13103,16083 L 8179,16083"/>
        <path fill="none" stroke="rgb(51,78,88)" stroke-width="0" stroke-linejoin="round" stroke-linecap="round" d="M 13103,16046 L 8179,16046"/>
        <path fill="none" stroke="rgb(51,78,88)" stroke-width="0" stroke-linejoin="round" stroke-linecap="round" d="M 8144,16064 L 8144,16659"/>
        <path fill="none" stroke="rgb(51,78,88)" stroke-width="0" stroke-linejoin="round" stroke-linecap="round" d="M 8179,16659 L 8179,16064 8179,14934"/>
        <path fill="none" stroke="rgb(51,78,88)" stroke-width="0" stroke-linejoin="round" stroke-linecap="round" d="M 8536,14594 L 8536,16046"/>
        <path fill="none" stroke="rgb(51,78,88)" stroke-width="0" stroke-linejoin="round" stroke-linecap="round" d="M 8772,14594 L 8772,16046"/>
        <path fill="none" stroke="rgb(51,78,88)" stroke-width="0" stroke-linejoin="round" stroke-linecap="round" d="M 8735,14594 L 8735,16046"/>
        <path fill="none" stroke="rgb(51,78,88)" stroke-width="0" stroke-linejoin="round" stroke-linecap="round" d="M 9007,14594 L 9007,16046"/>
        <path fill="none" stroke="rgb(51,78,88)" stroke-width="0" stroke-linejoin="round" stroke-linecap="round" d="M 8972,14594 L 8972,16046"/>
        <path fill="none" stroke="rgb(51,78,88)" stroke-width="0" stroke-linejoin="round" stroke-linecap="round" d="M 9951,14594 L 9951,16046"/>
        <path fill="none" stroke="rgb(51,78,88)" stroke-width="0" stroke-linejoin="round" stroke-linecap="round" d="M 9916,14594 L 9916,16046"/>
        <path fill="none" stroke="rgb(51,78,88)" stroke-width="0" stroke-linejoin="round" stroke-linecap="round" d="M 10188,14594 L 10188,16046"/>
        <path fill="none" stroke="rgb(51,78,88)" stroke-width="0" stroke-linejoin="round" stroke-linecap="round" d="M 10151,14594 L 10151,16046"/>
        <path fill="none" stroke="rgb(51,78,88)" stroke-width="0" stroke-linejoin="round" stroke-linecap="round" d="M 10423,14594 L 10423,16046"/>
        <path fill="none" stroke="rgb(51,78,88)" stroke-width="0" stroke-linejoin="round" stroke-linecap="round" d="M 10388,14594 L 10388,16046"/>
        <path fill="none" stroke="rgb(51,78,88)" stroke-width="0" stroke-linejoin="round" stroke-linecap="round" d="M 10660,14594 L 10660,16046"/>
        <path fill="none" stroke="rgb(51,78,88)" stroke-width="0" stroke-linejoin="round" stroke-linecap="round" d="M 10623,14594 L 10623,16046"/>
        <path fill="none" stroke="rgb(51,78,88)" stroke-width="0" stroke-linejoin="round" stroke-linecap="round" d="M 10894,14594 L 10894,16046"/>
        <path fill="none" stroke="rgb(51,78,88)" stroke-width="0" stroke-linejoin="round" stroke-linecap="round" d="M 10859,14594 L 10859,16046"/>
        <path fill="none" stroke="rgb(51,78,88)" stroke-width="0" stroke-linejoin="round" stroke-linecap="round" d="M 11131,14594 L 11131,16046"/>
        <path fill="none" stroke="rgb(51,78,88)" stroke-width="0" stroke-linejoin="round" stroke-linecap="round" d="M 11096,14594 L 11096,16046"/>
        <path fill="none" stroke="rgb(51,78,88)" stroke-width="0" stroke-linejoin="round" stroke-linecap="round" d="M 11368,14594 L 11368,16046"/>
        <path fill="none" stroke="rgb(51,78,88)" stroke-width="0" stroke-linejoin="round" stroke-linecap="round" d="M 11331,14594 L 11331,16046"/>
        <path fill="none" stroke="rgb(51,78,88)" stroke-width="0" stroke-linejoin="round" stroke-linecap="round" d="M 11602,14594 L 11602,14751"/>
        <path fill="none" stroke="rgb(51,78,88)" stroke-width="0" stroke-linejoin="round" stroke-linecap="round" d="M 11567,14594 L 11567,14751"/>
        <path fill="none" stroke="rgb(51,78,88)" stroke-width="0" stroke-linejoin="round" stroke-linecap="round" d="M 12310,14594 L 12310,16046"/>
        <path fill="none" stroke="rgb(51,78,88)" stroke-width="0" stroke-linejoin="round" stroke-linecap="round" d="M 12275,14594 L 12275,16046"/>
        <path fill="none" stroke="rgb(51,78,88)" stroke-width="0" stroke-linejoin="round" stroke-linecap="round" d="M 12547,14594 L 12547,16046"/>
        <path fill="none" stroke="rgb(51,78,88)" stroke-width="0" stroke-linejoin="round" stroke-linecap="round" d="M 12512,14594 L 12512,16046"/>
        <path fill="none" stroke="rgb(51,78,88)" stroke-width="0" stroke-linejoin="round" stroke-linecap="round" d="M 12783,14594 L 12783,16046"/>
        <path fill="none" stroke="rgb(51,78,88)" stroke-width="0" stroke-linejoin="round" stroke-linecap="round" d="M 12746,14594 L 12746,16046"/>
        <path fill="none" stroke="rgb(51,78,88)" stroke-width="0" stroke-linejoin="round" stroke-linecap="round" d="M 13140,16659 L 13103,16659"/>
        <path fill="none" stroke="rgb(51,78,88)" stroke-width="0" stroke-linejoin="round" stroke-linecap="round" d="M 8179,16659 L 8144,16659"/>
        <path fill="rgb(38,46,52)" stroke="none" d="M 13140,16064 L 13103,16659 13140,16659 13140,16064 Z"/>
        <path fill="rgb(38,46,52)" stroke="none" d="M 8179,16064 L 8144,16659 8179,16659 8179,16064 Z"/>
        <path fill="rgb(38,46,52)" stroke="none" d="M 13103,16064 L 13103,16659 13140,16064 13103,16064 Z"/>
        <path fill="rgb(38,46,52)" stroke="none" d="M 8144,16064 L 8144,16659 8179,16064 8144,16064 Z"/>
        <path fill="rgb(38,46,52)" stroke="none" d="M 8179,14934 L 8144,16064 8179,16064 8179,14934 Z"/>
        <path fill="rgb(38,46,52)" stroke="none" d="M 13140,14934 L 13103,16064 13140,16064 13140,14934 Z"/>
        <path fill="rgb(38,46,52)" stroke="none" d="M 8144,14934 L 8144,16064 8179,14934 8144,14934 Z"/>
        <path fill="rgb(38,46,52)" stroke="none" d="M 13103,14934 L 13103,16064 13140,14934 13103,14934 Z"/>
        <path fill="rgb(38,46,52)" stroke="none" d="M 8183,14886 L 8144,14934 8179,14934 8183,14886 Z"/>
        <path fill="rgb(38,46,52)" stroke="none" d="M 13101,14886 L 13103,14934 13140,14934 13101,14886 Z"/>
        <path fill="rgb(38,46,52)" stroke="none" d="M 13136,14880 L 13101,14886 13140,14934 13136,14880 Z"/>
        <path fill="rgb(38,46,52)" stroke="none" d="M 8148,14880 L 8144,14934 8183,14886 8148,14880 Z"/>
        <path fill="rgb(38,46,52)" stroke="none" d="M 13090,14838 L 13101,14886 13136,14880 13090,14838 Z"/>
        <path fill="rgb(38,46,52)" stroke="none" d="M 8192,14838 L 8148,14880 8183,14886 8192,14838 Z"/>
        <path fill="rgb(38,46,52)" stroke="none" d="M 13126,14829 L 13090,14838 13136,14880 13126,14829 Z"/>
        <path fill="rgb(38,46,52)" stroke="none" d="M 8158,14829 L 8148,14880 8192,14838 8158,14829 Z"/>
        <path fill="rgb(38,46,52)" stroke="none" d="M 8208,14793 L 8158,14829 8192,14838 8208,14793 Z"/>
        <path fill="rgb(38,46,52)" stroke="none" d="M 13074,14793 L 13090,14838 13126,14829 13074,14793 Z"/>
        <path fill="rgb(38,46,52)" stroke="none" d="M 13105,14779 L 13074,14793 13126,14829 13105,14779 Z"/>
        <path fill="rgb(38,46,52)" stroke="none" d="M 8177,14779 L 8158,14829 8208,14793 8177,14779 Z"/>
        <path fill="rgb(38,46,52)" stroke="none" d="M 8233,14751 L 8177,14779 8208,14793 8233,14751 Z"/>
        <path fill="rgb(38,46,52)" stroke="none" d="M 13050,14751 L 13074,14793 13105,14779 13050,14751 Z"/>
        <path fill="rgb(38,46,52)" stroke="none" d="M 13081,14730 L 13050,14751 13105,14779 13081,14730 Z"/>
        <path fill="rgb(38,46,52)" stroke="none" d="M 8203,14730 L 8177,14779 8233,14751 8203,14730 Z"/>
        <path fill="rgb(38,46,52)" stroke="none" d="M 13022,14712 L 13050,14751 13081,14730 13022,14712 Z"/>
        <path fill="rgb(38,46,52)" stroke="none" d="M 8262,14712 L 8203,14730 8233,14751 8262,14712 Z"/>
        <path fill="rgb(38,46,52)" stroke="none" d="M 13048,14688 L 13022,14712 13081,14730 13048,14688 13048,14688 Z"/>
        <path fill="rgb(38,46,52)" stroke="none" d="M 8234,14688 L 8203,14730 8262,14712 8234,14688 Z"/>
        <path fill="rgb(38,46,52)" stroke="none" d="M 12987,14677 L 13022,14712 13048,14688 12987,14677 Z"/>
        <path fill="rgb(38,46,52)" stroke="none" d="M 8295,14677 L 8234,14688 8262,14712 8295,14677 Z"/>
        <path fill="rgb(38,46,52)" stroke="none" d="M 13011,14651 L 12987,14677 13048,14688 13011,14651 Z"/>
        <path fill="rgb(38,46,52)" stroke="none" d="M 8274,14651 L 8234,14688 8295,14677 8274,14651 Z"/>
        <path fill="rgb(38,46,52)" stroke="none" d="M 12948,14647 L 12987,14677 13011,14651 12948,14647 Z"/>
        <path fill="rgb(38,46,52)" stroke="none" d="M 8335,14647 L 8274,14651 8295,14677 8335,14647 Z"/>
        <path fill="rgb(38,46,52)" stroke="none" d="M 12905,14625 L 12948,14647 13011,14651 12905,14625 Z"/>
        <path fill="rgb(38,46,52)" stroke="none" d="M 8377,14625 L 8274,14651 8335,14647 8377,14625 Z"/>
        <path fill="rgb(38,46,52)" stroke="none" d="M 12968,14618 L 12905,14625 13011,14651 12968,14618 Z"/>
        <path fill="rgb(38,46,52)" stroke="none" d="M 8316,14618 L 8274,14651 8377,14625 8316,14618 Z"/>
        <path fill="rgb(38,46,52)" stroke="none" d="M 8423,14609 L 8316,14618 8377,14625 8423,14609 Z"/>
        <path fill="rgb(38,46,52)" stroke="none" d="M 12861,14609 L 12905,14625 12968,14618 12861,14609 Z"/>
        <path fill="rgb(38,46,52)" stroke="none" d="M 8469,14597 L 8316,14618 8423,14609 8469,14597 Z"/>
        <path fill="rgb(38,46,52)" stroke="none" d="M 12813,14597 L 12861,14609 12968,14618 12813,14597 Z"/>
        <path fill="rgb(38,46,52)" stroke="none" d="M 12920,14592 L 8517,14594 12765,14594 12920,14592 Z"/>
        <path fill="rgb(38,46,52)" stroke="none" d="M 12920,14592 L 12765,14594 12813,14597 12920,14592 Z"/>
        <path fill="rgb(38,46,52)" stroke="none" d="M 12920,14592 L 12813,14597 12968,14618 12920,14592 Z"/>
        <path fill="rgb(38,46,52)" stroke="none" d="M 8362,14592 L 8517,14594 12920,14592 8362,14592 Z"/>
        <path fill="rgb(38,46,52)" stroke="none" d="M 8362,14592 L 8469,14597 8517,14594 8362,14592 Z"/>
        <path fill="rgb(38,46,52)" stroke="none" d="M 8362,14592 L 8316,14618 8469,14597 8362,14592 Z"/>
        <path fill="rgb(38,46,52)" stroke="none" d="M 12870,14573 L 8362,14592 12920,14592 12870,14573 Z"/>
        <path fill="rgb(38,46,52)" stroke="none" d="M 8412,14573 L 8362,14592 12870,14573 8412,14573 Z"/>
        <path fill="rgb(38,46,52)" stroke="none" d="M 12818,14562 L 8412,14573 12870,14573 12818,14562 Z"/>
        <path fill="rgb(38,46,52)" stroke="none" d="M 8466,14562 L 8412,14573 12818,14562 8466,14562 Z"/>
        <path fill="rgb(38,46,52)" stroke="none" d="M 8466,14562 L 12765,14559 8517,14559 8466,14562 Z"/>
        <path fill="rgb(38,46,52)" stroke="none" d="M 12765,14559 L 8466,14562 12818,14562 12765,14559 Z"/>
        <path fill="rgb(38,46,52)" stroke="none" d="M 13103,16064 L 8179,16083 13103,16083 13103,16064 Z"/>
        <path fill="rgb(38,46,52)" stroke="none" d="M 8179,16064 L 8179,16083 13103,16064 8179,16064 Z"/>
        <path fill="rgb(38,46,52)" stroke="none" d="M 8536,16046 L 8179,16064 13103,16064 8536,16046 Z"/>
        <path fill="rgb(38,46,52)" stroke="none" d="M 10660,16046 L 8536,16046 13103,16064 10660,16046 Z"/>
        <path fill="rgb(38,46,52)" stroke="none" d="M 9480,16046 L 8536,16046 10660,16046 9480,16046 Z"/>
        <path fill="rgb(38,46,52)" stroke="none" d="M 9007,16046 L 8536,16046 9480,16046 9007,16046 Z"/>
        <path fill="rgb(38,46,52)" stroke="none" d="M 12783,16046 L 10660,16046 13103,16064 12783,16046 Z"/>
        <path fill="rgb(38,46,52)" stroke="none" d="M 10623,16046 L 9480,16046 10660,16046 10623,16046 Z"/>
        <path fill="rgb(38,46,52)" stroke="none" d="M 12746,16046 L 10660,16046 12783,16046 12746,16046 Z"/>
        <path fill="rgb(38,46,52)" stroke="none" d="M 9443,16046 L 9007,16046 9480,16046 9443,16046 Z"/>
        <path fill="rgb(38,46,52)" stroke="none" d="M 8972,16046 L 8536,16046 9007,16046 8972,16046 Z"/>
        <path fill="rgb(38,46,52)" stroke="none" d="M 8501,16046 L 8179,16064 8536,16046 8501,16046 Z"/>
        <path fill="rgb(38,46,52)" stroke="none" d="M 9244,16046 L 9007,16046 9443,16046 9244,16046 Z"/>
        <path fill="rgb(38,46,52)" stroke="none" d="M 9007,16046 L 9244,16046 9208,16046 9007,16046 Z"/>
        <path fill="rgb(38,46,52)" stroke="none" d="M 11567,16046 L 10660,16046 12746,16046 11567,16046 Z"/>
        <path fill="rgb(38,46,52)" stroke="none" d="M 11131,16046 L 10660,16046 11567,16046 11131,16046 Z"/>
        <path fill="rgb(38,46,52)" stroke="none" d="M 10660,16046 L 11131,16046 11096,16046 10660,16046 Z"/>
        <path fill="rgb(38,46,52)" stroke="none" d="M 12275,16046 L 11567,16046 12746,16046 12275,16046 Z"/>
        <path fill="rgb(38,46,52)" stroke="none" d="M 9715,16046 L 9480,16046 10623,16046 9715,16046 Z"/>
        <path fill="rgb(38,46,52)" stroke="none" d="M 9480,16046 L 9715,16046 9680,16046 9480,16046 Z"/>
        <path fill="rgb(38,46,52)" stroke="none" d="M 11839,16046 L 11567,16046 12275,16046 11839,16046 Z"/>
        <path fill="rgb(38,46,52)" stroke="none" d="M 11567,16046 L 11839,16046 11804,16046 11567,16046 Z"/>
        <path fill="rgb(38,46,52)" stroke="none" d="M 10151,16046 L 9715,16046 10623,16046 10151,16046 Z"/>
        <path fill="rgb(38,46,52)" stroke="none" d="M 13103,16046 L 12783,16046 13103,16064 13103,16046 Z"/>
        <path fill="rgb(38,46,52)" stroke="none" d="M 12310,16046 L 12275,16046 12746,16046 12310,16046 Z"/>
        <path fill="rgb(38,46,52)" stroke="none" d="M 11602,16046 L 11567,16046 11804,16046 11602,16046 Z"/>
        <path fill="rgb(38,46,52)" stroke="none" d="M 10188,16046 L 10151,16046 10623,16046 10188,16046 Z"/>
        <path fill="rgb(38,46,52)" stroke="none" d="M 12512,16046 L 12310,16046 12746,16046 12512,16046 Z"/>
        <path fill="rgb(38,46,52)" stroke="none" d="M 12746,16046 L 12547,16046 12512,16046 12746,16046 Z"/>
        <path fill="rgb(38,46,52)" stroke="none" d="M 8772,16046 L 8536,16046 8972,16046 8772,16046 Z"/>
        <path fill="rgb(38,46,52)" stroke="none" d="M 8536,16046 L 8772,16046 8735,16046 8536,16046 Z"/>
        <path fill="rgb(38,46,52)" stroke="none" d="M 12038,16046 L 11839,16046 12275,16046 12038,16046 Z"/>
        <path fill="rgb(38,46,52)" stroke="none" d="M 12275,16046 L 12076,16046 12038,16046 12275,16046 Z"/>
        <path fill="rgb(38,46,52)" stroke="none" d="M 10388,16046 L 10188,16046 10623,16046 10388,16046 Z"/>
        <path fill="rgb(38,46,52)" stroke="none" d="M 10623,16046 L 10423,16046 10388,16046 10623,16046 Z"/>
        <path fill="rgb(38,46,52)" stroke="none" d="M 11331,16046 L 11131,16046 11567,16046 11331,16046 Z"/>
        <path fill="rgb(38,46,52)" stroke="none" d="M 11567,16046 L 11368,16046 11331,16046 11567,16046 Z"/>
        <path fill="rgb(38,46,52)" stroke="none" d="M 10894,16046 L 10660,16046 11096,16046 10894,16046 Z"/>
        <path fill="rgb(38,46,52)" stroke="none" d="M 10660,16046 L 10894,16046 10859,16046 10660,16046 Z"/>
        <path fill="rgb(38,46,52)" stroke="none" d="M 9916,16046 L 9715,16046 10151,16046 9916,16046 Z"/>
        <path fill="rgb(38,46,52)" stroke="none" d="M 8179,16046 L 8179,16064 8501,16046 8179,16046 Z"/>
        <path fill="rgb(38,46,52)" stroke="none" d="M 8536,14594 L 8517,14594 8536,16046 8536,14594 Z"/>
        <path fill="rgb(38,46,52)" stroke="none" d="M 8510,14594 L 8536,16046 8517,14594 8510,14594 Z"/>
        <path fill="rgb(38,46,52)" stroke="none" d="M 8536,16046 L 8510,14594 8501,16046 8536,16046 Z"/>
        <path fill="rgb(38,46,52)" stroke="none" d="M 8501,14596 L 8501,16046 8510,14594 8501,14596 Z"/>
        <path fill="none" stroke="rgb(51,78,88)" stroke-width="0" stroke-linejoin="round" stroke-linecap="round" d="M 8501,14594 L 8501,16046"/>
        <path fill="none" stroke="rgb(51,78,88)" stroke-width="0" stroke-linejoin="round" stroke-linecap="round" d="M 10454,14751 L 8471,14751"/>
        <path fill="none" stroke="rgb(51,78,88)" stroke-width="0" stroke-linejoin="round" stroke-linecap="round" d="M 9793,14751 L 9793,14749"/>
        <path fill="none" stroke="rgb(51,78,88)" stroke-width="0" stroke-linejoin="round" stroke-linecap="round" d="M 9133,14751 L 9133,15166"/>
        <path fill="none" stroke="rgb(51,78,88)" stroke-width="0" stroke-linejoin="round" stroke-linecap="round" d="M 9793,14751 L 9793,15166"/>
        <path fill="rgb(213,51,42)" stroke="none" d="M 8802,14958 L 9133,14751 8471,14751 8802,14958 Z"/>
        <path fill="rgb(213,51,42)" stroke="none" d="M 8802,14958 L 8471,14751 8471,15166 8802,14958 Z"/>
        <path fill="rgb(213,51,42)" stroke="none" d="M 8802,14958 L 8471,15166 9133,15166 8802,14958 Z"/>
        <path fill="rgb(213,51,42)" stroke="none" d="M 8802,14958 L 9133,15166 9133,14751 8802,14958 Z"/>
        <path fill="rgb(213,51,42)" stroke="none" d="M 10124,14958 L 10454,14751 9793,14751 10124,14958 Z"/>
        <path fill="rgb(213,51,42)" stroke="none" d="M 10124,14958 L 9793,14751 9793,15166 10124,14958 Z"/>
        <path fill="rgb(213,51,42)" stroke="none" d="M 10124,14958 L 9793,15166 10454,15166 10124,14958 Z"/>
        <path fill="rgb(213,51,42)" stroke="none" d="M 10124,14958 L 10454,15166 10454,14751 10124,14958 Z"/>
        <path fill="none" stroke="rgb(51,78,88)" stroke-width="0" stroke-linejoin="round" stroke-linecap="round" d="M 8471,14751 L 10454,14751"/>
        <path fill="none" stroke="rgb(51,78,88)" stroke-width="0" stroke-linejoin="round" stroke-linecap="round" d="M 12153,14751 L 12153,14749"/>
        <path fill="none" stroke="rgb(51,78,88)" stroke-width="0" stroke-linejoin="round" stroke-linecap="round" d="M 11491,14751 L 11491,15166"/>
        <path fill="none" stroke="rgb(51,78,88)" stroke-width="0" stroke-linejoin="round" stroke-linecap="round" d="M 12153,14751 L 12153,15166"/>
        <path fill="rgb(213,51,42)" stroke="none" d="M 11161,14958 L 11491,14751 10830,14751 11161,14958 Z"/>
        <path fill="rgb(213,51,42)" stroke="none" d="M 11161,14958 L 10830,14751 10830,15166 11161,14958 Z"/>
        <path fill="rgb(213,51,42)" stroke="none" d="M 11161,14958 L 10830,15166 11491,15166 11161,14958 Z"/>
        <path fill="rgb(213,51,42)" stroke="none" d="M 11161,14958 L 11491,15166 11491,14751 11161,14958 Z"/>
        <path fill="rgb(213,51,42)" stroke="none" d="M 12484,14958 L 12815,14751 12153,14751 12484,14958 Z"/>
        <path fill="rgb(213,51,42)" stroke="none" d="M 12484,14958 L 12153,14751 12153,15166 12484,14958 Z"/>
        <path fill="rgb(213,51,42)" stroke="none" d="M 12484,14958 L 12153,15166 12815,15166 12484,14958 12484,14958 Z"/>
        <path fill="rgb(213,51,42)" stroke="none" d="M 12484,14958 L 12815,15166 12815,14751 12484,14958 Z"/>
        <path fill="none" stroke="rgb(51,78,88)" stroke-width="0" stroke-linejoin="round" stroke-linecap="round" d="M 11602,15166 L 11602,16046"/>
        <path fill="none" stroke="rgb(51,78,88)" stroke-width="0" stroke-linejoin="round" stroke-linecap="round" d="M 11567,15166 L 11567,16046"/>
        <path fill="none" stroke="rgb(51,78,88)" stroke-width="0" stroke-linejoin="round" stroke-linecap="round" d="M 11839,14594 L 11839,14751"/>
        <path fill="none" stroke="rgb(51,78,88)" stroke-width="0" stroke-linejoin="round" stroke-linecap="round" d="M 11804,14594 L 11804,14751"/>
        <path fill="none" stroke="rgb(51,78,88)" stroke-width="0" stroke-linejoin="round" stroke-linecap="round" d="M 11839,15166 L 11839,16046"/>
        <path fill="none" stroke="rgb(51,78,88)" stroke-width="0" stroke-linejoin="round" stroke-linecap="round" d="M 11804,15166 L 11804,16046"/>
        <path fill="none" stroke="rgb(51,78,88)" stroke-width="0" stroke-linejoin="round" stroke-linecap="round" d="M 12076,14594 L 12076,14751"/>
        <path fill="none" stroke="rgb(51,78,88)" stroke-width="0" stroke-linejoin="round" stroke-linecap="round" d="M 12038,14594 L 12038,14751"/>
        <path fill="none" stroke="rgb(51,78,88)" stroke-width="0" stroke-linejoin="round" stroke-linecap="round" d="M 12076,15166 L 12076,16046"/>
        <path fill="none" stroke="rgb(51,78,88)" stroke-width="0" stroke-linejoin="round" stroke-linecap="round" d="M 12038,15166 L 12038,16046"/>
        <path fill="none" stroke="rgb(51,78,88)" stroke-width="0" stroke-linejoin="round" stroke-linecap="round" d="M 9244,14594 L 9244,14751"/>
        <path fill="none" stroke="rgb(51,78,88)" stroke-width="0" stroke-linejoin="round" stroke-linecap="round" d="M 9208,14594 L 9208,14751"/>
        <path fill="none" stroke="rgb(51,78,88)" stroke-width="0" stroke-linejoin="round" stroke-linecap="round" d="M 9244,15166 L 9244,16046"/>
        <path fill="none" stroke="rgb(51,78,88)" stroke-width="0" stroke-linejoin="round" stroke-linecap="round" d="M 9208,15166 L 9208,16046"/>
        <path fill="none" stroke="rgb(51,78,88)" stroke-width="0" stroke-linejoin="round" stroke-linecap="round" d="M 9480,14594 L 9480,14751"/>
        <path fill="none" stroke="rgb(51,78,88)" stroke-width="0" stroke-linejoin="round" stroke-linecap="round" d="M 9443,14594 L 9443,14751"/>
        <path fill="none" stroke="rgb(51,78,88)" stroke-width="0" stroke-linejoin="round" stroke-linecap="round" d="M 9480,15166 L 9480,16046"/>
        <path fill="none" stroke="rgb(51,78,88)" stroke-width="0" stroke-linejoin="round" stroke-linecap="round" d="M 9443,15166 L 9443,16046"/>
        <path fill="none" stroke="rgb(51,78,88)" stroke-width="0" stroke-linejoin="round" stroke-linecap="round" d="M 9715,14594 L 9715,14751"/>
        <path fill="none" stroke="rgb(51,78,88)" stroke-width="0" stroke-linejoin="round" stroke-linecap="round" d="M 9680,14594 L 9680,14751"/>
        <path fill="none" stroke="rgb(51,78,88)" stroke-width="0" stroke-linejoin="round" stroke-linecap="round" d="M 9715,15166 L 9715,16046"/>
        <path fill="none" stroke="rgb(51,78,88)" stroke-width="0" stroke-linejoin="round" stroke-linecap="round" d="M 9680,15166 L 9680,16046"/>
        <path fill="rgb(38,46,52)" stroke="none" d="M 9443,16046 L 9480,15166 9443,15166 9443,16046 Z"/>
        <path fill="rgb(38,46,52)" stroke="none" d="M 9480,15166 L 9443,16046 9480,16046 9480,15166 Z"/>
        <path fill="rgb(38,46,52)" stroke="none" d="M 9244,16046 L 9244,15166 9208,15166 9244,16046 Z"/>
        <path fill="rgb(38,46,52)" stroke="none" d="M 9208,15166 L 9208,16046 9244,16046 9208,15166 Z"/>
        <path fill="rgb(38,46,52)" stroke="none" d="M 9715,15166 L 9680,16046 9715,16046 9715,15166 Z"/>
        <path fill="rgb(38,46,52)" stroke="none" d="M 9680,15166 L 9680,16046 9715,15166 9680,15166 Z"/>
        <path fill="rgb(38,46,52)" stroke="none" d="M 9443,14594 L 9443,14751 9480,14751 9443,14594 Z"/>
        <path fill="rgb(38,46,52)" stroke="none" d="M 9480,14594 L 9443,14594 9480,14751 9480,14594 Z"/>
        <path fill="rgb(38,46,52)" stroke="none" d="M 9244,14751 L 9244,14594 9208,14594 9244,14751 Z"/>
        <path fill="rgb(38,46,52)" stroke="none" d="M 9208,14594 L 9208,14751 9244,14751 9208,14594 Z"/>
        <path fill="rgb(38,46,52)" stroke="none" d="M 9680,14594 L 9680,14751 9715,14751 9680,14594 Z"/>
        <path fill="rgb(38,46,52)" stroke="none" d="M 9715,14594 L 9680,14594 9715,14751 9715,14594 Z"/>
        <path fill="rgb(38,46,52)" stroke="none" d="M 12038,15166 L 12038,16046 12076,16046 12038,15166 Z"/>
        <path fill="rgb(38,46,52)" stroke="none" d="M 12076,15166 L 12038,15166 12076,16046 12076,15166 Z"/>
        <path fill="rgb(38,46,52)" stroke="none" d="M 11839,16046 L 11839,15166 11804,15166 11839,16046 Z"/>
        <path fill="rgb(38,46,52)" stroke="none" d="M 11804,15166 L 11804,16046 11839,16046 11804,15166 Z"/>
        <path fill="rgb(38,46,52)" stroke="none" d="M 11602,15166 L 11567,16046 11602,16046 11602,15166 Z"/>
        <path fill="rgb(38,46,52)" stroke="none" d="M 11567,15166 L 11567,16046 11602,15166 11567,15166 Z"/>
        <path fill="rgb(38,46,52)" stroke="none" d="M 11602,14594 L 11567,14751 11602,14751 11602,14594 Z"/>
        <path fill="rgb(38,46,52)" stroke="none" d="M 11567,14594 L 11567,14751 11602,14594 11567,14594 Z"/>
        <path fill="rgb(38,46,52)" stroke="none" d="M 12076,14594 L 12038,14751 12076,14751 12076,14594 Z"/>
        <path fill="rgb(38,46,52)" stroke="none" d="M 11839,14594 L 11804,14751 11839,14751 11839,14594 Z"/>
        <path fill="rgb(38,46,52)" stroke="none" d="M 12038,14594 L 12038,14751 12076,14594 12038,14594 Z"/>
        <path fill="rgb(38,46,52)" stroke="none" d="M 11804,14594 L 11804,14751 11839,14594 11804,14594 Z"/>
        <path fill="rgb(38,46,52)" stroke="none" d="M 12746,15166 L 12746,16046 12783,16046 12746,15166 Z"/>
        <path fill="rgb(38,46,52)" stroke="none" d="M 12783,15166 L 12746,15166 12783,16046 12783,15166 Z"/>
        <path fill="rgb(38,46,52)" stroke="none" d="M 12310,15166 L 12275,16046 12310,16046 12310,15166 Z"/>
        <path fill="rgb(38,46,52)" stroke="none" d="M 12547,15166 L 12512,16046 12547,16046 12547,15166 Z"/>
        <path fill="rgb(38,46,52)" stroke="none" d="M 12512,15166 L 12512,16046 12547,15166 12512,15166 Z"/>
        <path fill="rgb(38,46,52)" stroke="none" d="M 12275,15166 L 12275,16046 12310,15166 12275,15166 Z"/>
        <path fill="rgb(38,46,52)" stroke="none" d="M 12783,14596 L 12746,14751 12783,14751 12783,14596 Z"/>
        <path fill="rgb(38,46,52)" stroke="none" d="M 12774,14594 L 12746,14751 12783,14596 12774,14594 Z"/>
        <path fill="rgb(38,46,52)" stroke="none" d="M 12512,14751 L 12547,14594 12512,14594 12512,14751 Z"/>
        <path fill="rgb(38,46,52)" stroke="none" d="M 12547,14594 L 12512,14751 12547,14751 12547,14594 Z"/>
        <path fill="rgb(38,46,52)" stroke="none" d="M 12310,14594 L 12275,14751 12310,14751 12310,14594 Z"/>
        <path fill="rgb(38,46,52)" stroke="none" d="M 12746,14594 L 12746,14751 12774,14594 12746,14594 Z"/>
        <path fill="rgb(38,46,52)" stroke="none" d="M 12765,14594 L 12746,14594 12774,14594 12765,14594 Z"/>
        <path fill="rgb(38,46,52)" stroke="none" d="M 12275,14594 L 12275,14751 12310,14594 12275,14594 Z"/>
        <path fill="none" stroke="rgb(51,78,88)" stroke-width="0" stroke-linejoin="round" stroke-linecap="round" d="M 8471,14751 L 8471,15166 10454,15166 10454,14751"/>
        <path fill="rgb(38,46,52)" stroke="none" d="M 8772,16046 L 8772,15166 8735,15166 8772,16046 Z"/>
        <path fill="rgb(38,46,52)" stroke="none" d="M 8735,15166 L 8735,16046 8772,16046 8735,15166 Z"/>
        <path fill="rgb(38,46,52)" stroke="none" d="M 9007,16046 L 9007,15166 8972,15166 9007,16046 Z"/>
        <path fill="rgb(38,46,52)" stroke="none" d="M 8972,15166 L 8972,16046 9007,16046 8972,15166 Z"/>
        <path fill="rgb(38,46,52)" stroke="none" d="M 8735,14594 L 8735,14751 8772,14751 8735,14594 Z"/>
        <path fill="rgb(38,46,52)" stroke="none" d="M 8772,14594 L 8735,14594 8772,14751 8772,14594 Z"/>
        <path fill="rgb(38,46,52)" stroke="none" d="M 9007,14751 L 9007,14594 8972,14594 9007,14751 Z"/>
        <path fill="rgb(38,46,52)" stroke="none" d="M 8972,14594 L 8972,14751 9007,14751 8972,14594 Z"/>
        <path fill="none" stroke="rgb(51,78,88)" stroke-width="0" stroke-linejoin="round" stroke-linecap="round" d="M 12815,14751 L 10830,14751 10830,15166 12815,15166 12815,14751 10830,14751"/>
        <path fill="rgb(38,46,52)" stroke="none" d="M 9916,16046 L 9951,15166 9916,15166 9916,16046 Z"/>
        <path fill="rgb(38,46,52)" stroke="none" d="M 9951,15166 L 9916,16046 9951,16046 9951,15166 Z"/>
        <path fill="rgb(38,46,52)" stroke="none" d="M 10188,15166 L 10151,16046 10188,16046 10188,15166 Z"/>
        <path fill="rgb(38,46,52)" stroke="none" d="M 10151,15166 L 10151,16046 10188,15166 10151,15166 Z"/>
        <path fill="rgb(38,46,52)" stroke="none" d="M 10423,15166 L 10388,16046 10423,16046 10423,15166 Z"/>
        <path fill="rgb(38,46,52)" stroke="none" d="M 10388,15166 L 10388,16046 10423,15166 10388,15166 Z"/>
        <path fill="rgb(38,46,52)" stroke="none" d="M 9951,14751 L 9951,14594 9916,14594 9951,14751 Z"/>
        <path fill="rgb(38,46,52)" stroke="none" d="M 9916,14594 L 9916,14751 9951,14751 9916,14594 Z"/>
        <path fill="rgb(38,46,52)" stroke="none" d="M 10151,14751 L 10188,14594 10151,14594 10151,14751 Z"/>
        <path fill="rgb(38,46,52)" stroke="none" d="M 10188,14594 L 10151,14751 10188,14751 10188,14594 Z"/>
        <path fill="rgb(38,46,52)" stroke="none" d="M 10423,14751 L 10423,14594 10388,14594 10423,14751 Z"/>
        <path fill="rgb(38,46,52)" stroke="none" d="M 10388,14594 L 10388,14751 10423,14751 10388,14594 Z"/>
        <path fill="rgb(38,46,52)" stroke="none" d="M 10894,16046 L 10894,15166 10859,15166 10894,16046 Z"/>
        <path fill="rgb(38,46,52)" stroke="none" d="M 10859,15166 L 10859,16046 10894,16046 10859,15166 Z"/>
        <path fill="rgb(38,46,52)" stroke="none" d="M 11131,15166 L 11096,16046 11131,16046 11131,15166 Z"/>
        <path fill="rgb(38,46,52)" stroke="none" d="M 11331,15166 L 11331,16046 11368,16046 11331,15166 Z"/>
        <path fill="rgb(38,46,52)" stroke="none" d="M 11096,15166 L 11096,16046 11131,15166 11096,15166 Z"/>
        <path fill="rgb(38,46,52)" stroke="none" d="M 11368,15166 L 11331,15166 11368,16046 11368,15166 Z"/>
        <path fill="rgb(38,46,52)" stroke="none" d="M 11131,14751 L 11131,14594 11096,14594 11131,14751 Z"/>
        <path fill="rgb(38,46,52)" stroke="none" d="M 11096,14594 L 11096,14751 11131,14751 11096,14594 Z"/>
        <path fill="rgb(38,46,52)" stroke="none" d="M 11368,14594 L 11331,14751 11368,14751 11368,14594 Z"/>
        <path fill="rgb(38,46,52)" stroke="none" d="M 10894,14751 L 10894,14594 10859,14594 10894,14751 Z"/>
        <path fill="rgb(38,46,52)" stroke="none" d="M 10859,14594 L 10859,14751 10894,14751 10859,14594 Z"/>
        <path fill="rgb(38,46,52)" stroke="none" d="M 11331,14594 L 11331,14751 11368,14594 11331,14594 Z"/>
        <path fill="rgb(38,46,52)" stroke="none" d="M 10641,15320 L 10660,14594 10623,14594 10641,15320 Z"/>
        <path fill="rgb(38,46,52)" stroke="none" d="M 10641,15320 L 10623,14594 10623,16046 10641,15320 Z"/>
        <path fill="rgb(38,46,52)" stroke="none" d="M 10641,15320 L 10623,16046 10660,16046 10641,15320 Z"/>
        <path fill="rgb(38,46,52)" stroke="none" d="M 10641,15320 L 10660,16046 10660,14594 10641,15320 Z"/>
        <path fill="rgb(215,67,51)" stroke="none" d="M 10645,13153 L 10681,13154 10716,13156 10751,13161 10786,13167 10820,13175 10853,13185 10886,13196 10918,13208 10948,13222 10979,13237 11008,13254 11036,13272 11064,13292 11090,13313 11116,13335 11140,13358 11163,13382 11185,13408 11206,13434 11226,13461 11244,13490 11261,13519 11276,13549 11290,13581 11303,13612 11314,13645 11323,13678 11331,13712 11337,13746 11342,13781 11344,13817 11345,13853 11344,13889 11342,13924 11337,13959 11331,13994 11323,14028 11314,14061 11303,14093 11290,14125 11276,14156 11261,14186 11244,14216 11226,14244 11206,14272 11185,14298 11163,14324 11140,14348 11116,14371 11090,14393 11064,14414 11036,14433 11008,14451 10979,14468 10948,14484 10918,14498 10886,14510 10853,14521 10820,14531 10786,14539 10751,14544 10716,14549 10681,14552 10645,14553 10609,14552 10573,14549 10538,14544 10504,14539 10470,14531 10437,14521 10404,14510 10372,14498 10341,14484 10311,14468 10282,14451 10253,14433 10226,14414 10199,14393 10174,14371 10150,14348 10127,14324 10105,14298 10084,14272 10064,14244 10046,14216 10029,14186 10014,14156 10000,14125 9987,14093 9976,14061 9967,14028 9959,13994 9953,13959 9948,13924 9946,13889 9945,13853 9946,13817 9948,13781 9953,13746 9959,13712 9967,13678 9976,13645 9987,13612 10000,13581 10014,13549 10029,13519 10046,13490 10064,13461 10084,13434 10105,13408 10127,13382 10150,13358 10174,13335 10199,13313 10226,13292 10253,13272 10282,13254 10311,13237 10341,13222 10372,13208 10404,13196 10437,13185 10470,13175 10504,13167 10538,13161 10573,13156 10609,13154 10645,13153 Z"/>
        <path fill="rgb(255,255,255)" stroke="none" d="M 10182,13794 L 11108,13794 11107,13787 11106,13779 11105,13771 11103,13763 11102,13755 11100,13747 11098,13740 11096,13732 11094,13724 11092,13717 11089,13709 11087,13701 11084,13694 11081,13686 11078,13679 11075,13671 11073,13666 11070,13661 11068,13656 11066,13651 11064,13646 11061,13641 11058,13636 11056,13631 11053,13626 11050,13621 11047,13616 11045,13611 11042,13607 11039,13602 11035,13597 11032,13592 11029,13588 11026,13583 11023,13579 11019,13574 11016,13570 11013,13565 11009,13561 11006,13557 11002,13552 10998,13548 10994,13544 10991,13539 10987,13535 10983,13531 10979,13527 10975,13523 10971,13519 10967,13515 10963,13511 10959,13507 10954,13503 10950,13500 10946,13496 10942,13492 10937,13489 10933,13485 10928,13482 10924,13478 10919,13475 10915,13472 10910,13469 10906,13466 10901,13462 10896,13459 10892,13456 10887,13453 10882,13451 10877,13448 10872,13445 10867,13442 10862,13440 10857,13437 10852,13435 10847,13432 10842,13430 10837,13427 10832,13425 10827,13423 10821,13421 10816,13418 10810,13416 10805,13414 10799,13412 10794,13411 10788,13409 10783,13407 10777,13405 10772,13404 10766,13402 10761,13401 10755,13399 10749,13398 10744,13396 10738,13396 10732,13394 10726,13393 10721,13392 10715,13391 10709,13391 10704,13390 10698,13389 10692,13389 10686,13388 10680,13388 10675,13387 10669,13387 10663,13387 10657,13386 10651,13386 10645,13386 10639,13386 10633,13386 10627,13387 10621,13387 10615,13387 10609,13388 10604,13388 10598,13389 10592,13389 10586,13390 10580,13391 10575,13391 10569,13392 10563,13393 10558,13394 10552,13396 10546,13396 10541,13398 10535,13399 10529,13401 10524,13402 10518,13404 10513,13405 10507,13407 10502,13409 10496,13411 10491,13412 10485,13414 10480,13416 10474,13418 10469,13421 10463,13423 10458,13425 10453,13427 10448,13430 10443,13432 10437,13435 10432,13437 10427,13440 10422,13442 10418,13445 10413,13448 10408,13451 10403,13453 10398,13456 10394,13459 10389,13462 10384,13466 10380,13469 10375,13472 10371,13475 10366,13478 10361,13482 10357,13485 10353,13489 10348,13492 10344,13496 10340,13500 10336,13503 10331,13507 10327,13511 10323,13515 10319,13519 10315,13523 10311,13527 10307,13531 10303,13535 10299,13539 10295,13544 10291,13548 10288,13552 10284,13557 10281,13561 10277,13565 10274,13570 10270,13574 10267,13579 10264,13583 10260,13588 10257,13592 10255,13597 10251,13602 10248,13607 10245,13611 10243,13616 10240,13621 10237,13626 10234,13631 10232,13636 10229,13641 10226,13646 10224,13651 10222,13656 10219,13661 10217,13666 10215,13671 10212,13679 10209,13686 10206,13694 10203,13701 10201,13709 10198,13717 10196,13724 10194,13732 10192,13740 10190,13747 10188,13755 10187,13763 10185,13771 10184,13779 10183,13787 10182,13794 Z"/>
        <path fill="rgb(255,255,255)" stroke="none" d="M 11108,13911 L 10182,13911 10183,13919 10184,13927 10185,13935 10187,13943 10188,13951 10190,13958 10192,13966 10194,13974 10196,13982 10198,13989 10201,13997 10203,14004 10206,14012 10209,14019 10212,14027 10215,14034 10217,14040 10219,14045 10222,14050 10224,14055 10226,14060 10229,14065 10232,14070 10234,14075 10237,14080 10240,14085 10243,14090 10245,14094 10248,14099 10251,14104 10255,14108 10257,14113 10260,14118 10264,14123 10267,14127 10270,14132 10274,14136 10277,14140 10281,14145 10284,14149 10288,14153 10291,14158 10295,14162 10299,14166 10303,14170 10307,14175 10311,14179 10315,14183 10319,14187 10323,14191 10327,14195 10331,14198 10336,14202 10340,14206 10344,14210 10348,14213 10353,14217 10357,14220 10361,14224 10366,14227 10371,14230 10375,14234 10380,14237 10384,14240 10389,14243 10394,14246 10398,14249 10403,14252 10408,14255 10413,14258 10418,14261 10422,14263 10427,14266 10432,14269 10437,14271 10443,14274 10448,14276 10453,14278 10458,14281 10463,14283 10469,14285 10474,14287 10480,14289 10485,14291 10491,14294 10496,14295 10502,14297 10507,14299 10513,14301 10518,14302 10524,14304 10529,14305 10535,14307 10541,14308 10546,14309 10552,14310 10558,14311 10563,14312 10569,14314 10575,14314 10580,14315 10586,14316 10592,14317 10598,14317 10604,14318 10609,14318 10615,14319 10621,14319 10627,14319 10633,14319 10639,14319 10645,14319 10651,14319 10657,14319 10663,14319 10669,14319 10675,14319 10680,14318 10686,14318 10692,14317 10698,14317 10704,14316 10709,14315 10715,14314 10721,14314 10726,14312 10732,14311 10738,14310 10744,14309 10749,14308 10755,14307 10761,14305 10766,14304 10772,14302 10777,14301 10783,14299 10788,14297 10794,14295 10799,14294 10805,14291 10810,14289 10816,14287 10821,14285 10827,14283 10832,14281 10837,14278 10842,14276 10847,14274 10852,14271 10857,14269 10862,14266 10867,14263 10872,14261 10877,14258 10882,14255 10887,14252 10892,14249 10896,14246 10901,14243 10906,14240 10910,14237 10915,14234 10919,14230 10924,14227 10928,14224 10933,14220 10937,14217 10942,14213 10946,14210 10950,14206 10954,14202 10959,14198 10963,14195 10967,14191 10971,14187 10975,14183 10979,14179 10983,14175 10987,14170 10991,14166 10994,14162 10998,14158 11002,14153 11006,14149 11009,14145 11013,14140 11016,14136 11019,14132 11023,14127 11026,14123 11029,14118 11032,14113 11035,14108 11039,14104 11042,14099 11045,14094 11047,14090 11050,14085 11053,14080 11056,14075 11058,14070 11061,14065 11064,14060 11066,14055 11068,14050 11070,14045 11073,14040 11075,14034 11078,14027 11081,14019 11084,14012 11087,14004 11089,13997 11092,13989 11094,13982 11096,13974 11098,13966 11100,13958 11102,13951 11103,13943 11105,13935 11106,13927 11107,13919 11108,13911 Z"/>
        <path fill="rgb(34,41,42)" stroke="none" d="M 10836,13681 L 10836,13739 10836,13740 10836,13741 10836,13742 10836,13742 10836,13743 10836,13744 10835,13745 10835,13746 10834,13746 10834,13747 10833,13747 10832,13747 10831,13748 10830,13748 10829,13748 10828,13748 10806,13748 10805,13748 10804,13748 10803,13748 10803,13747 10802,13747 10801,13747 10801,13747 10801,13747 10800,13746 10800,13746 10800,13746 10799,13745 10799,13744 10799,13744 10799,13743 10799,13742 10799,13741 10799,13740 10799,13687 10797,13687 10796,13687 10795,13688 10794,13688 10790,13688 10786,13689 10781,13690 10776,13690 10771,13690 10766,13691 10761,13691 10756,13691 10751,13692 10746,13692 10741,13692 10736,13692 10732,13692 10727,13692 10723,13692 10719,13692 10716,13692 10713,13693 10709,13693 10704,13693 10698,13693 10693,13693 10687,13693 10681,13693 10675,13693 10669,13693 10663,13694 10658,13694 10653,13694 10649,13694 10645,13694 10643,13694 10638,13694 10634,13694 10629,13694 10625,13694 10620,13694 10616,13694 10611,13693 10607,13693 10602,13693 10598,13693 10594,13693 10589,13693 10584,13693 10580,13693 10576,13692 10571,13692 10567,13692 10563,13692 10558,13692 10554,13692 10549,13691 10544,13691 10539,13691 10535,13691 10530,13691 10525,13690 10520,13690 10516,13690 10511,13690 10507,13689 10502,13689 10498,13689 10493,13688 10493,13739 10493,13742 10493,13743 10493,13744 10492,13745 10492,13746 10491,13747 10490,13747 10490,13747 10489,13748 10488,13748 10487,13748 10485,13748 10485,13748 10463,13748 10463,13748 10462,13748 10461,13748 10461,13748 10460,13747 10459,13747 10458,13747 10458,13747 10458,13746 10457,13746 10457,13746 10457,13745 10457,13745 10457,13744 10456,13743 10456,13742 10456,13742 10456,13741 10456,13740 10456,13739 10456,13681 10441,13681 10440,13681 10439,13681 10438,13681 10437,13681 10436,13680 10435,13680 10434,13679 10434,13679 10433,13678 10432,13677 10432,13677 10432,13676 10432,13674 10432,13673 10432,13671 10432,13670 10432,13667 10432,13665 10432,13662 10432,13660 10432,13657 10432,13654 10432,13652 10432,13649 10432,13647 10431,13644 10431,13641 10431,13638 10431,13635 10431,13632 10430,13629 10430,13626 10430,13623 10429,13620 10429,13616 10428,13613 10428,13610 10427,13607 10427,13603 10426,13600 10425,13598 10425,13596 10424,13593 10424,13592 10423,13590 10423,13588 10423,13587 10423,13585 10423,13584 10423,13582 10424,13581 10424,13579 10424,13577 10424,13576 10425,13574 10425,13573 10426,13571 10427,13569 10427,13568 10428,13566 10429,13565 10429,13564 10430,13563 10431,13562 10432,13560 10434,13557 10436,13556 10438,13554 10440,13552 10442,13551 10444,13550 10446,13548 10447,13548 10449,13547 10451,13546 10453,13545 10455,13545 10457,13544 10457,13544 10458,13544 10459,13544 10460,13544 10521,13464 10522,13463 10523,13462 10523,13461 10524,13461 10525,13460 10526,13460 10527,13459 10528,13459 10530,13459 10531,13459 10532,13459 10533,13459 10533,13459 10534,13459 10756,13459 10757,13459 10758,13459 10759,13459 10760,13459 10761,13459 10762,13459 10763,13459 10764,13460 10765,13460 10766,13461 10767,13461 10768,13462 10768,13463 10769,13464 10770,13465 10770,13465 10833,13544 10834,13545 10835,13545 10836,13546 10837,13546 10839,13547 10840,13547 10842,13548 10843,13548 10845,13549 10846,13550 10848,13551 10849,13552 10851,13553 10853,13555 10854,13556 10856,13558 10857,13560 10859,13562 10860,13563 10861,13565 10862,13567 10863,13570 10864,13572 10865,13574 10866,13577 10866,13579 10867,13581 10867,13583 10867,13585 10867,13588 10866,13590 10866,13593 10866,13596 10865,13598 10865,13601 10864,13602 10864,13605 10864,13607 10863,13608 10863,13611 10862,13613 10862,13615 10862,13617 10862,13619 10862,13621 10861,13623 10861,13625 10861,13627 10860,13630 10860,13632 10860,13634 10860,13636 10859,13638 10859,13640 10859,13642 10859,13644 10859,13646 10859,13647 10859,13649 10859,13651 10859,13653 10859,13655 10859,13657 10859,13659 10859,13662 10859,13663 10859,13666 10859,13667 10859,13669 10859,13671 10860,13672 10860,13674 10859,13675 10859,13676 10859,13677 10859,13677 10858,13678 10858,13679 10858,13679 10857,13679 10857,13680 10857,13680 10856,13681 10856,13681 10855,13681 10855,13681 10854,13681 10853,13681 10852,13681 10851,13681 10836,13681 Z"/>
        <path fill="rgb(34,41,42)" stroke="none" d="M 10684,14174 L 10594,14175 10592,14175 10591,14175 10590,14175 10589,14175 10588,14174 10587,14174 10586,14174 10586,14173 10584,14173 10584,14173 10583,14173 10583,14172 10582,14172 10582,14171 10582,14170 10581,14169 10581,14168 10581,14168 10581,14167 10581,14166 10581,14165 10581,14164 10581,14163 10582,14162 10582,14162 10583,14160 10583,14160 10584,14160 10584,14160 10584,14159 10585,14159 10585,14159 10585,14159 10586,14159 10587,14158 10588,14157 10566,14129 10566,14128 10565,14127 10564,14127 10564,14127 10563,14127 10563,14127 10563,14126 10562,14126 10562,14127 10561,14127 10561,14127 10560,14127 10560,14127 10560,14128 10559,14128 10559,14129 10559,14130 10558,14131 10558,14148 10558,14149 10558,14149 10558,14150 10558,14150 10558,14151 10558,14151 10558,14152 10557,14152 10557,14152 10557,14153 10557,14153 10557,14153 10556,14153 10556,14153 10555,14153 10554,14154 10553,14154 10553,14154 10552,14154 10551,14154 10550,14154 10549,14154 10549,14155 10549,14155 10549,14156 10549,14157 10548,14161 10546,14165 10544,14169 10543,14173 10540,14176 10538,14179 10535,14183 10533,14185 10529,14188 10526,14190 10523,14193 10519,14195 10516,14197 10512,14198 10508,14199 10504,14200 10500,14201 10496,14202 10492,14203 10488,14203 10484,14203 10480,14202 10476,14202 10472,14201 10468,14200 10464,14199 10460,14197 10457,14195 10453,14193 10450,14191 10446,14188 10443,14186 10442,14184 10440,14182 10438,14180 10437,14178 10435,14177 10434,14174 10432,14173 10431,14170 10430,14168 10429,14166 10428,14164 10427,14162 10426,14159 10426,14157 10425,14155 10424,14153 10424,14150 10424,14148 10423,14146 10423,14143 10423,14141 10424,14138 10424,14136 10424,14133 10425,14131 10425,14128 10426,14126 10427,14123 10428,14121 10429,14118 10430,14116 10432,14113 10432,14113 10433,14112 10433,14111 10434,14111 10434,14110 10435,14110 10432,14108 10431,14107 10430,14106 10430,14105 10430,14103 10431,14103 10431,14102 10432,14102 10432,14101 10432,14101 10433,14100 10434,14099 10435,14098 10437,14097 10438,14095 10439,14094 10441,14093 10442,14092 10443,14091 10445,14090 10447,14088 10448,14087 10450,14086 10452,14085 10454,14084 10456,14083 10458,14083 10460,14082 10462,14081 10464,14080 10466,14079 10468,14078 10470,14078 10472,14078 10474,14077 10476,14077 10478,14076 10480,14076 10482,14076 10484,14076 10486,14076 10488,14076 10490,14076 10492,14076 10495,14076 10497,14077 10498,14077 10498,14064 10498,14063 10499,14062 10499,14062 10499,14061 10499,14060 10500,14060 10500,14059 10501,14059 10502,14059 10502,14059 10503,14059 10504,14059 10504,14059 10505,14059 10506,14060 10508,14060 10510,14061 10511,14061 10512,14060 10513,14059 10514,14058 10515,14057 10516,14056 10517,14056 10518,14055 10519,14054 10520,14053 10521,14053 10523,14053 10524,14052 10525,14052 10527,14052 10529,14052 10532,14052 10534,14052 10536,14052 10538,14052 10541,14053 10543,14053 10545,14054 10553,14056 10553,14056 10554,14056 10556,14055 10557,14054 10559,14054 10561,14053 10562,14053 10563,14053 10564,14053 10566,14053 10567,14053 10568,14053 10568,14053 10569,14053 10570,14054 10573,14054 10575,14055 10578,14055 10580,14056 10583,14057 10585,14057 10586,14057 10586,14057 10587,14057 10588,14056 10588,14056 10584,14042 10584,14041 10583,14038 10582,14037 10581,14036 10581,14035 10580,14034 10580,14033 10580,14033 10580,14033 10580,14032 10580,14031 10579,14030 10579,14029 10579,14028 10579,14028 10579,14027 10578,14027 10577,14027 10575,14028 10575,14028 10574,14028 10573,14028 10572,14028 10571,14028 10570,14027 10570,14027 10570,14027 10570,14026 10569,14026 10569,14025 10569,14024 10569,14024 10569,14023 10569,14023 10568,14022 10567,14021 10566,14020 10565,14019 10565,14019 10564,14019 10563,14019 10563,14019 10560,14019 10560,14019 10559,14019 10558,14019 10558,14018 10558,14017 10558,14016 10558,14015 10557,14014 10557,14013 10557,14012 10557,14012 10556,14012 10556,14012 10556,14011 10556,14010 10556,14009 10551,14000 10551,14000 10551,13999 10550,13998 10550,13998 10550,13996 10550,13994 10550,13993 10550,13991 10550,13989 10551,13988 10551,13986 10552,13984 10553,13982 10554,13980 10555,13979 10556,13977 10558,13976 10559,13974 10561,13973 10563,13972 10564,13972 10566,13971 10568,13970 10570,13970 10571,13970 10572,13969 10574,13969 10575,13969 10576,13969 10578,13969 10579,13969 10582,13970 10584,13970 10586,13970 10588,13971 10589,13971 10590,13972 10592,13973 10592,13973 10593,13974 10594,13974 10594,13975 10596,13976 10597,13977 10598,13978 10599,13980 10599,13981 10600,13983 10601,13984 10601,13985 10602,13988 10602,13991 10602,13993 10603,13995 10603,13997 10603,13999 10604,13999 10605,13999 10607,13999 10609,13999 10611,14000 10613,14000 10615,14000 10616,14000 10618,14001 10619,14001 10622,14001 10624,14001 10627,14001 10629,14002 10631,14002 10632,14002 10633,14003 10635,14004 10638,14005 10641,14006 10644,14008 10647,14009 10649,14011 10651,14012 10653,14014 10656,14016 10660,14020 10664,14023 10668,14027 10672,14031 10676,14034 10680,14037 10681,14039 10684,14040 10685,14042 10687,14044 10689,14046 10691,14048 10693,14049 10695,14050 10696,14051 10698,14053 10700,14055 10702,14057 10704,14058 10706,14060 10707,14062 10709,14063 10710,14064 10711,14066 10713,14068 10714,14069 10715,14070 10715,14071 10715,14073 10715,14073 10716,14076 10716,14078 10717,14078 10717,14079 10717,14080 10717,14081 10717,14083 10717,14084 10717,14086 10717,14087 10716,14088 10716,14090 10716,14091 10716,14092 10715,14093 10715,14093 10715,14094 10715,14094 10714,14095 10713,14096 10737,14111 10738,14109 10741,14106 10743,14102 10744,14101 10746,14099 10747,14098 10748,14097 10748,14096 10749,14096 10749,14095 10750,14094 10751,14093 10752,14093 10752,14092 10753,14092 10753,14091 10753,14090 10753,14089 10753,14089 10753,14088 10753,14088 10753,14088 10753,14088 10752,14087 10751,14086 10751,14086 10750,14085 10749,14085 10748,14084 10747,14083 10745,14083 10744,14083 10743,14082 10742,14082 10741,14081 10730,14078 10729,14078 10729,14077 10728,14077 10728,14077 10728,14076 10728,14076 10727,14076 10727,14075 10727,14075 10726,14074 10726,14074 10726,14073 10726,14073 10726,14072 10726,14071 10726,14070 10727,14069 10727,14069 10727,14069 10728,14068 10728,14068 10729,14068 10730,14067 10731,14067 10827,14065 10839,14065 10841,14067 10842,14068 10842,14070 10843,14070 10843,14071 10844,14072 10844,14072 10844,14073 10844,14073 10844,14074 10844,14074 10844,14075 10844,14076 10844,14076 10844,14076 10843,14077 10843,14077 10843,14078 10842,14078 10842,14079 10839,14082 10839,14082 10838,14083 10838,14083 10838,14083 10837,14084 10837,14085 10837,14086 10837,14087 10837,14088 10837,14088 10837,14088 10837,14089 10837,14089 10837,14089 10839,14090 10840,14091 10841,14092 10842,14093 10843,14093 10845,14094 10847,14097 10849,14099 10850,14100 10851,14101 10852,14102 10853,14103 10854,14105 10856,14108 10857,14110 10858,14111 10858,14113 10859,14115 10859,14115 10859,14116 10859,14116 10859,14117 10859,14117 10860,14117 10861,14117 10862,14117 10863,14117 10863,14117 10864,14117 10864,14117 10864,14118 10865,14118 10865,14118 10865,14118 10866,14118 10867,14119 10867,14120 10867,14121 10867,14122 10867,14122 10867,14162 10867,14162 10866,14163 10866,14164 10866,14164 10866,14164 10866,14165 10865,14166 10864,14167 10863,14167 10862,14167 10862,14167 10861,14167 10860,14167 10858,14167 10857,14166 10857,14166 10857,14165 10856,14165 10856,14165 10855,14165 10855,14165 10855,14165 10855,14165 10855,14165 10855,14165 10854,14165 10854,14166 10853,14167 10852,14169 10852,14171 10851,14173 10850,14174 10848,14176 10847,14178 10846,14179 10844,14181 10843,14183 10842,14184 10840,14186 10838,14187 10837,14188 10835,14190 10833,14191 10832,14192 10829,14193 10827,14195 10826,14196 10824,14197 10822,14198 10820,14198 10817,14199 10816,14200 10813,14201 10811,14201 10809,14202 10807,14202 10805,14203 10802,14203 10800,14203 10798,14203 10796,14203 10793,14203 10790,14202 10788,14202 10785,14202 10783,14201 10780,14200 10778,14200 10775,14199 10773,14198 10771,14197 10768,14196 10766,14195 10764,14193 10761,14192 10759,14191 10757,14189 10756,14188 10754,14186 10752,14184 10750,14182 10748,14180 10747,14178 10745,14176 10744,14174 10742,14172 10741,14169 10740,14167 10739,14165 10738,14162 10737,14159 10737,14157 10736,14156 10736,14154 10684,14174 Z"/>
        <path fill="rgb(255,255,255)" stroke="none" d="M 10467,13566 L 10469,13566 10470,13566 10472,13566 10473,13566 10474,13567 10476,13567 10477,13567 10478,13568 10479,13568 10481,13569 10482,13570 10483,13570 10484,13571 10485,13572 10486,13573 10487,13573 10488,13574 10489,13576 10490,13577 10491,13577 10491,13579 10492,13580 10493,13581 10493,13582 10494,13583 10494,13585 10495,13586 10495,13587 10495,13589 10495,13590 10496,13592 10496,13593 10496,13594 10496,13596 10495,13597 10495,13598 10495,13600 10494,13601 10494,13602 10493,13604 10493,13605 10492,13606 10491,13607 10491,13608 10490,13610 10489,13611 10488,13612 10487,13612 10486,13613 10485,13614 10484,13615 10483,13616 10482,13617 10481,13617 10479,13618 10478,13618 10477,13619 10475,13619 10474,13620 10473,13620 10471,13620 10470,13620 10468,13621 10467,13621 10465,13620 10464,13620 10462,13620 10461,13620 10460,13620 10459,13619 10457,13619 10456,13618 10455,13617 10454,13617 10452,13617 10452,13616 10450,13615 10449,13614 10448,13613 10447,13612 10447,13611 10446,13610 10445,13609 10444,13608 10443,13607 10442,13606 10442,13605 10442,13603 10441,13602 10441,13601 10440,13600 10440,13598 10440,13597 10439,13596 10439,13594 10439,13593 10439,13592 10440,13590 10440,13589 10440,13587 10440,13586 10441,13585 10441,13584 10442,13582 10442,13581 10443,13580 10443,13579 10444,13578 10445,13577 10446,13576 10447,13575 10448,13574 10449,13573 10450,13572 10451,13571 10452,13570 10453,13570 10454,13569 10455,13568 10457,13568 10458,13567 10459,13567 10460,13567 10462,13566 10463,13566 10464,13566 10466,13566 10467,13566 Z"/>
        <path fill="rgb(255,255,255)" stroke="none" d="M 10591,13593 L 10591,13655 10509,13655 10509,13655 10508,13655 10507,13655 10506,13655 10505,13655 10504,13655 10503,13654 10502,13654 10501,13654 10500,13653 10499,13652 10499,13652 10498,13651 10498,13651 10497,13650 10497,13649 10497,13648 10497,13647 10497,13646 10497,13645 10497,13644 10497,13643 10498,13642 10498,13641 10524,13598 10524,13598 10524,13597 10525,13597 10525,13596 10526,13595 10527,13594 10528,13594 10529,13593 10530,13593 10532,13593 10533,13593 10534,13593 10538,13593 10591,13593 Z"/>
        <path fill="rgb(255,255,255)" stroke="none" d="M 10597,13593 L 10694,13593 10694,13655 10597,13655 10597,13593 Z"/>
        <path fill="rgb(255,255,255)" stroke="none" d="M 10701,13593 L 10753,13593 10754,13593 10755,13593 10756,13593 10757,13593 10759,13593 10760,13593 10761,13593 10761,13594 10762,13594 10763,13594 10764,13595 10765,13595 10766,13596 10766,13597 10767,13598 10768,13599 10793,13641 10793,13642 10794,13642 10794,13643 10794,13644 10795,13645 10795,13646 10795,13647 10795,13647 10795,13648 10794,13649 10794,13650 10793,13651 10793,13652 10792,13652 10791,13653 10791,13653 10790,13654 10789,13654 10788,13655 10787,13655 10786,13655 10785,13655 10783,13655 10782,13655 10701,13655 10701,13593 Z"/>
        <path fill="rgb(255,255,255)" stroke="none" d="M 10824,13566 L 10825,13566 10827,13566 10828,13566 10829,13566 10831,13567 10832,13567 10833,13567 10835,13568 10836,13568 10837,13569 10838,13570 10839,13570 10840,13571 10842,13572 10842,13573 10843,13574 10844,13575 10845,13576 10846,13577 10847,13578 10847,13579 10848,13580 10849,13581 10849,13582 10850,13584 10850,13585 10851,13587 10851,13588 10851,13589 10852,13590 10852,13592 10852,13593 10852,13595 10851,13596 10851,13597 10851,13599 10851,13600 10850,13602 10850,13603 10849,13604 10849,13605 10848,13607 10847,13608 10847,13609 10846,13610 10845,13611 10844,13612 10843,13613 10842,13614 10841,13615 10840,13616 10839,13616 10837,13617 10836,13617 10835,13618 10834,13619 10832,13619 10831,13620 10830,13620 10828,13620 10827,13620 10826,13621 10824,13621 10823,13621 10821,13621 10820,13621 10818,13620 10817,13620 10816,13620 10814,13619 10813,13619 10812,13618 10811,13618 10809,13617 10808,13617 10807,13616 10806,13615 10805,13614 10804,13613 10803,13613 10802,13612 10801,13611 10800,13610 10800,13609 10799,13607 10798,13606 10797,13605 10797,13604 10796,13603 10796,13602 10796,13600 10795,13599 10795,13597 10795,13596 10795,13595 10795,13593 10795,13592 10795,13590 10795,13589 10795,13587 10796,13586 10796,13585 10796,13584 10797,13582 10797,13581 10798,13580 10799,13579 10800,13578 10800,13577 10801,13576 10802,13574 10803,13573 10804,13572 10805,13572 10806,13571 10807,13570 10809,13569 10810,13569 10811,13568 10812,13567 10814,13567 10815,13567 10817,13566 10818,13566 10819,13566 10821,13566 10822,13566 10824,13566 Z"/>
        <path fill="rgb(255,255,255)" stroke="none" d="M 10815,13547 L 10813,13547 10812,13547 10811,13547 10810,13547 10729,13541 10725,13540 10719,13540 10714,13540 10708,13540 10702,13539 10696,13539 10690,13539 10683,13539 10677,13539 10671,13539 10665,13539 10659,13539 10653,13539 10648,13539 10642,13539 10637,13539 10633,13539 10629,13539 10624,13539 10619,13539 10614,13539 10608,13539 10603,13539 10597,13539 10591,13539 10586,13540 10580,13540 10575,13540 10570,13540 10565,13540 10561,13540 10557,13540 10481,13545 10480,13545 10479,13545 10478,13545 10477,13545 10528,13479 10529,13478 10530,13477 10531,13476 10532,13476 10533,13475 10533,13475 10534,13475 10535,13474 10536,13474 10538,13474 10538,13474 10539,13474 10540,13474 10541,13474 10749,13474 10750,13474 10751,13474 10752,13474 10753,13474 10754,13474 10755,13474 10756,13475 10757,13475 10758,13475 10758,13476 10759,13476 10760,13476 10761,13477 10762,13479 10815,13547 Z"/>
        <path fill="rgb(255,255,255)" stroke="none" d="M 10571,14080 L 10532,14080 10532,14080 10532,14079 10532,14079 10532,14079 10532,14079 10532,14078 10533,14078 10534,14076 10535,14075 10536,14073 10538,14072 10539,14071 10539,14070 10540,14070 10541,14070 10541,14069 10543,14069 10544,14068 10545,14068 10546,14068 10548,14068 10549,14068 10550,14068 10551,14068 10553,14068 10554,14069 10556,14069 10557,14069 10558,14070 10560,14071 10562,14072 10564,14074 10566,14075 10568,14077 10569,14078 10571,14080 Z"/>
        <path fill="rgb(255,255,255)" stroke="none" d="M 10500,14134 L 10507,14124 10508,14125 10509,14126 10510,14127 10511,14128 10512,14129 10512,14130 10513,14132 10513,14133 10514,14134 10514,14135 10514,14137 10515,14138 10515,14139 10515,14140 10515,14142 10515,14143 10515,14144 10515,14145 10515,14147 10514,14148 10514,14149 10514,14150 10513,14152 10513,14153 10512,14154 10512,14155 10511,14156 10510,14157 10510,14158 10509,14159 10508,14160 10507,14161 10506,14162 10505,14163 10504,14164 10503,14165 10502,14165 10500,14166 10499,14167 10498,14167 10497,14168 10495,14168 10494,14168 10493,14168 10491,14169 10490,14169 10489,14169 10488,14169 10486,14169 10485,14169 10483,14169 10482,14168 10480,14168 10479,14168 10478,14167 10477,14167 10475,14166 10474,14166 10473,14165 10472,14164 10471,14163 10470,14163 10469,14162 10468,14160 10467,14160 10466,14159 10465,14158 10464,14157 10464,14156 10463,14154 10462,14153 10462,14152 10462,14151 10461,14150 10461,14149 10461,14148 10461,14146 10460,14145 10460,14144 10460,14143 10460,14141 10460,14140 10460,14139 10461,14138 10461,14136 10461,14135 10462,14134 10462,14133 10462,14131 10463,14130 10464,14129 10465,14128 10466,14127 10466,14126 10467,14125 10468,14124 10469,14123 10471,14122 10472,14121 10473,14121 10475,14120 10476,14119 10477,14119 10479,14118 10482,14118 10484,14118 10486,14117 10486,14117 10487,14129 10486,14129 10484,14130 10482,14130 10480,14131 10479,14132 10478,14132 10478,14133 10477,14133 10477,14133 10477,14134 10476,14135 10475,14136 10475,14137 10474,14138 10474,14139 10473,14140 10473,14141 10473,14143 10473,14144 10473,14145 10473,14147 10474,14148 10474,14148 10474,14149 10475,14150 10475,14151 10475,14151 10476,14152 10476,14152 10477,14153 10477,14153 10478,14154 10478,14154 10479,14155 10480,14155 10480,14155 10481,14156 10482,14156 10483,14157 10484,14157 10486,14157 10488,14157 10488,14157 10490,14157 10491,14157 10492,14157 10493,14156 10494,14156 10495,14156 10496,14155 10497,14154 10498,14154 10499,14153 10500,14152 10500,14151 10501,14150 10502,14148 10502,14147 10502,14145 10502,14144 10502,14142 10502,14141 10501,14138 10501,14136 10500,14135 10500,14134 Z"/>
        <path fill="rgb(255,255,255)" stroke="none" d="M 10593,14138 L 10576,14113 10576,14112 10576,14111 10575,14110 10575,14109 10575,14108 10575,14108 10575,14107 10575,14106 10575,14105 10575,14104 10575,14103 10576,14102 10576,14102 10577,14101 10577,14100 10578,14099 10578,14099 10579,14098 10579,14098 10580,14098 10580,14098 10581,14098 10582,14098 10582,14098 10583,14098 10584,14098 10584,14098 10585,14098 10586,14099 10587,14099 10587,14100 10588,14100 10589,14102 10590,14103 10590,14104 10591,14105 10592,14106 10592,14108 10593,14109 10593,14110 10594,14113 10594,14115 10595,14117 10595,14119 10595,14121 10594,14123 10594,14125 10594,14128 10594,14130 10593,14133 10593,14136 10593,14138 Z"/>
        <path fill="rgb(255,255,255)" stroke="none" d="M 10680,14146 L 10663,14144 10664,14143 10665,14140 10666,14138 10667,14136 10668,14135 10668,14134 10669,14133 10669,14133 10670,14131 10671,14130 10675,14127 10678,14124 10680,14122 10681,14121 10684,14119 10685,14118 10687,14117 10689,14116 10691,14115 10693,14113 10680,14146 Z"/>
        <path fill="rgb(255,255,255)" stroke="none" d="M 10784,14137 L 10784,14138 10783,14138 10783,14139 10783,14140 10783,14141 10783,14141 10782,14142 10782,14143 10782,14144 10783,14146 10783,14147 10784,14148 10784,14149 10785,14151 10786,14152 10786,14153 10787,14153 10789,14154 10790,14155 10791,14155 10792,14156 10794,14156 10795,14156 10796,14157 10797,14157 10799,14156 10800,14156 10801,14156 10802,14156 10802,14155 10803,14154 10804,14154 10805,14153 10806,14153 10807,14152 10807,14151 10808,14150 10808,14149 10809,14149 10809,14148 10821,14153 10820,14155 10819,14157 10818,14158 10817,14159 10816,14161 10814,14162 10813,14163 10811,14164 10810,14165 10808,14166 10806,14167 10804,14168 10802,14168 10800,14168 10798,14169 10796,14169 10795,14169 10794,14169 10792,14168 10791,14168 10790,14168 10788,14168 10787,14167 10786,14167 10785,14166 10784,14166 10782,14165 10781,14164 10781,14164 10780,14163 10778,14162 10777,14161 10777,14160 10776,14159 10775,14158 10774,14158 10774,14157 10773,14156 10772,14154 10772,14153 10771,14152 10771,14151 10771,14150 10771,14148 10770,14147 10770,14146 10770,14145 10770,14143 10770,14142 10770,14140 10770,14138 10771,14137 10771,14135 10771,14134 10772,14133 10773,14131 10784,14137 Z"/>
        <path fill="rgb(255,255,255)" stroke="none" d="M 10809,14138 L 10812,14138 10822,14135 10821,14133 10820,14132 10819,14130 10818,14128 10817,14127 10815,14125 10814,14124 10812,14123 10811,14121 10809,14120 10807,14119 10805,14119 10803,14118 10801,14118 10799,14118 10796,14117 10794,14118 10792,14118 10790,14118 10788,14118 10793,14130 10794,14130 10795,14130 10796,14130 10796,14130 10798,14130 10799,14130 10800,14130 10801,14131 10802,14131 10802,14131 10803,14132 10804,14132 10805,14133 10806,14133 10807,14134 10807,14135 10808,14136 10808,14137 10809,14137 10809,14138 Z"/>
       </g>
      </g>
     </g>
    </g>
   </g>
  </g>
 </g>
</svg>