<?xml version="1.0" encoding="UTF-8"?>
<!DOCTYPE svg PUBLIC "-//W3C//DTD SVG 1.1//EN" "http://www.w3.org/Graphics/SVG/1.1/DTD/svg11.dtd">
<svg version="1.2" width="50.03mm" height="41.49mm" viewBox="8046 12833 5003 4149" preserveAspectRatio="xMidYMid" fill-rule="evenodd" stroke-width="28.222" stroke-linejoin="round" xmlns="http://www.w3.org/2000/svg" xmlns:ooo="http://xml.openoffice.org/svg/export" xmlns:xlink="http://www.w3.org/1999/xlink" xmlns:presentation="http://sun.com/xmlns/staroffice/presentation" xmlns:smil="http://www.w3.org/2001/SMIL20/" xmlns:anim="urn:oasis:names:tc:opendocument:xmlns:animation:1.0" xml:space="preserve">
 <defs class="ClipPathGroup">
  <clipPath id="presentation_clip_path" clipPathUnits="userSpaceOnUse">
   <rect x="8046" y="12833" width="5003" height="4149"/>
  </clipPath>
  <clipPath id="presentation_clip_path_shrink" clipPathUnits="userSpaceOnUse">
   <rect x="8051" y="12837" width="4993" height="4141"/>
  </clipPath>
 </defs>
 <defs class="TextShapeIndex">
  <g ooo:slide="id1" ooo:id-list="id3"/>
 </defs>
 <defs class="EmbeddedBulletChars">
  <g id="bullet-char-template-57356" transform="scale(0.00048828125,-0.00048828125)">
   <path d="M 580,1141 L 1163,571 580,0 -4,571 580,1141 Z"/>
  </g>
  <g id="bullet-char-template-57354" transform="scale(0.00048828125,-0.00048828125)">
   <path d="M 8,1128 L 1137,1128 1137,0 8,0 8,1128 Z"/>
  </g>
  <g id="bullet-char-template-10146" transform="scale(0.00048828125,-0.00048828125)">
   <path d="M 174,0 L 602,739 174,1481 1456,739 174,0 Z M 1358,739 L 309,1346 659,739 1358,739 Z"/>
  </g>
  <g id="bullet-char-template-10132" transform="scale(0.00048828125,-0.00048828125)">
   <path d="M 2015,739 L 1276,0 717,0 1260,543 174,543 174,936 1260,936 717,1481 1274,1481 2015,739 Z"/>
  </g>
  <g id="bullet-char-template-10007" transform="scale(0.00048828125,-0.00048828125)">
   <path d="M 0,-2 C -7,14 -16,27 -25,37 L 356,567 C 262,823 215,952 215,954 215,979 228,992 255,992 264,992 276,990 289,987 310,991 331,999 354,1012 L 381,999 492,748 772,1049 836,1024 860,1049 C 881,1039 901,1025 922,1006 886,937 835,863 770,784 769,783 710,716 594,584 L 774,223 C 774,196 753,168 711,139 L 727,119 C 717,90 699,76 672,76 641,76 570,178 457,381 L 164,-76 C 142,-110 111,-127 72,-127 30,-127 9,-110 8,-76 1,-67 -2,-52 -2,-32 -2,-23 -1,-13 0,-2 Z"/>
  </g>
  <g id="bullet-char-template-10004" transform="scale(0.00048828125,-0.00048828125)">
   <path d="M 285,-33 C 182,-33 111,30 74,156 52,228 41,333 41,471 41,549 55,616 82,672 116,743 169,778 240,778 293,778 328,747 346,684 L 369,508 C 377,444 397,411 428,410 L 1163,1116 C 1174,1127 1196,1133 1229,1133 1271,1133 1292,1118 1292,1087 L 1292,965 C 1292,929 1282,901 1262,881 L 442,47 C 390,-6 338,-33 285,-33 Z"/>
  </g>
  <g id="bullet-char-template-9679" transform="scale(0.00048828125,-0.00048828125)">
   <path d="M 813,0 C 632,0 489,54 383,161 276,268 223,411 223,592 223,773 276,916 383,1023 489,1130 632,1184 813,1184 992,1184 1136,1130 1245,1023 1353,916 1407,772 1407,592 1407,412 1353,268 1245,161 1136,54 992,0 813,0 Z"/>
  </g>
  <g id="bullet-char-template-8226" transform="scale(0.00048828125,-0.00048828125)">
   <path d="M 346,457 C 273,457 209,483 155,535 101,586 74,649 74,723 74,796 101,859 155,911 209,963 273,989 346,989 419,989 480,963 531,910 582,859 608,796 608,723 608,648 583,586 532,535 482,483 420,457 346,457 Z"/>
  </g>
  <g id="bullet-char-template-8211" transform="scale(0.00048828125,-0.00048828125)">
   <path d="M -4,459 L 1135,459 1135,606 -4,606 -4,459 Z"/>
  </g>
  <g id="bullet-char-template-61548" transform="scale(0.00048828125,-0.00048828125)">
   <path d="M 173,740 C 173,903 231,1043 346,1159 462,1274 601,1332 765,1332 928,1332 1067,1274 1183,1159 1299,1043 1357,903 1357,740 1357,577 1299,437 1183,322 1067,206 928,148 765,148 601,148 462,206 346,322 231,437 173,577 173,740 Z"/>
  </g>
 </defs>
 <defs class="TextEmbeddedBitmaps"/>
 <g class="SlideGroup">
  <g>
   <g id="container-id1">
    <g id="id1" class="Slide" clip-path="url(#presentation_clip_path)">
     <g class="Page">
      <g class="Graphic">
       <g id="id3">
        <rect class="BoundingBox" stroke="none" fill="none" x="8046" y="12833" width="5004" height="4150"/>
        <path fill="rgb(255,255,255)" stroke="none" d="M 12431,15488 L 10772,15488 10772,15069 12431,15069 12431,15488 Z"/>
        <path fill="rgb(255,255,255)" stroke="none" d="M 10239,15488 L 8579,15488 8579,15067 10239,15067 10239,15488 Z"/>
        <path fill="none" stroke="rgb(51,78,88)" stroke-width="0" stroke-linejoin="round" stroke-linecap="round" d="M 13046,16384 L 13046,15253"/>
        <path fill="none" stroke="rgb(51,78,88)" stroke-width="0" stroke-linejoin="round" stroke-linecap="round" d="M 12673,14878 L 12724,14881 12778,14892 12828,14911 12874,14937 12916,14970 12956,15007 12987,15050 13013,15098 13032,15148 13042,15199 13046,15253"/>
        <path fill="none" stroke="rgb(51,78,88)" stroke-width="0" stroke-linejoin="round" stroke-linecap="round" d="M 12673,14878 L 8425,14878"/>
        <path fill="none" stroke="rgb(51,78,88)" stroke-width="0" stroke-linejoin="round" stroke-linecap="round" d="M 8050,15253 L 8054,15199 8064,15148 8085,15098 8109,15050 8142,15007 8179,14970 8222,14937 8270,14911 8320,14892 8372,14881 8425,14878"/>
        <path fill="none" stroke="rgb(51,78,88)" stroke-width="0" stroke-linejoin="round" stroke-linecap="round" d="M 8050,15253 L 8050,16384"/>
        <path fill="none" stroke="rgb(51,78,88)" stroke-width="0" stroke-linejoin="round" stroke-linecap="round" d="M 8087,16384 L 8087,16979"/>
        <path fill="none" stroke="rgb(51,78,88)" stroke-width="0" stroke-linejoin="round" stroke-linecap="round" d="M 8050,16384 L 8050,16979"/>
        <path fill="none" stroke="rgb(51,78,88)" stroke-width="0" stroke-linejoin="round" stroke-linecap="round" d="M 8087,16384 L 8087,15253 8089,15205 8100,15157 8116,15112 8140,15070 8168,15031 8203,14996 8242,14966 8285,14944 8329,14928 8377,14916 8425,14913 12673,14913 12721,14916 12767,14928 12813,14944 12855,14966 12895,14996 12928,15031 12957,15070 12982,15112 12998,15157 13007,15205 13011,15253"/>
        <path fill="none" stroke="rgb(51,78,88)" stroke-width="0" stroke-linejoin="round" stroke-linecap="round" d="M 8087,16403 L 13011,16403"/>
        <path fill="none" stroke="rgb(51,78,88)" stroke-width="0" stroke-linejoin="round" stroke-linecap="round" d="M 8087,16366 L 13011,16366"/>
        <path fill="none" stroke="rgb(51,78,88)" stroke-width="0" stroke-linejoin="round" stroke-linecap="round" d="M 13046,16384 L 13046,16979"/>
        <path fill="none" stroke="rgb(51,78,88)" stroke-width="0" stroke-linejoin="round" stroke-linecap="round" d="M 13011,16979 L 13011,16384 13011,15253"/>
        <path fill="none" stroke="rgb(51,78,88)" stroke-width="0" stroke-linejoin="round" stroke-linecap="round" d="M 12654,14913 L 12654,16366"/>
        <path fill="none" stroke="rgb(51,78,88)" stroke-width="0" stroke-linejoin="round" stroke-linecap="round" d="M 12418,14913 L 12418,16366"/>
        <path fill="none" stroke="rgb(51,78,88)" stroke-width="0" stroke-linejoin="round" stroke-linecap="round" d="M 12455,14913 L 12455,16366"/>
        <path fill="none" stroke="rgb(51,78,88)" stroke-width="0" stroke-linejoin="round" stroke-linecap="round" d="M 12183,14913 L 12183,16366"/>
        <path fill="none" stroke="rgb(51,78,88)" stroke-width="0" stroke-linejoin="round" stroke-linecap="round" d="M 12218,14913 L 12218,16366"/>
        <path fill="none" stroke="rgb(51,78,88)" stroke-width="0" stroke-linejoin="round" stroke-linecap="round" d="M 11239,14913 L 11239,16366"/>
        <path fill="none" stroke="rgb(51,78,88)" stroke-width="0" stroke-linejoin="round" stroke-linecap="round" d="M 11274,14913 L 11274,16366"/>
        <path fill="none" stroke="rgb(51,78,88)" stroke-width="0" stroke-linejoin="round" stroke-linecap="round" d="M 11002,14913 L 11002,16366"/>
        <path fill="none" stroke="rgb(51,78,88)" stroke-width="0" stroke-linejoin="round" stroke-linecap="round" d="M 11039,14913 L 11039,16366"/>
        <path fill="none" stroke="rgb(51,78,88)" stroke-width="0" stroke-linejoin="round" stroke-linecap="round" d="M 10767,14913 L 10767,16366"/>
        <path fill="none" stroke="rgb(51,78,88)" stroke-width="0" stroke-linejoin="round" stroke-linecap="round" d="M 10802,14913 L 10802,16366"/>
        <path fill="none" stroke="rgb(51,78,88)" stroke-width="0" stroke-linejoin="round" stroke-linecap="round" d="M 10530,14913 L 10530,16366"/>
        <path fill="none" stroke="rgb(51,78,88)" stroke-width="0" stroke-linejoin="round" stroke-linecap="round" d="M 10567,14913 L 10567,16366"/>
        <path fill="none" stroke="rgb(51,78,88)" stroke-width="0" stroke-linejoin="round" stroke-linecap="round" d="M 10296,14913 L 10296,16366"/>
        <path fill="none" stroke="rgb(51,78,88)" stroke-width="0" stroke-linejoin="round" stroke-linecap="round" d="M 10331,14913 L 10331,16366"/>
        <path fill="none" stroke="rgb(51,78,88)" stroke-width="0" stroke-linejoin="round" stroke-linecap="round" d="M 10059,14913 L 10059,16366"/>
        <path fill="none" stroke="rgb(51,78,88)" stroke-width="0" stroke-linejoin="round" stroke-linecap="round" d="M 10094,14913 L 10094,16366"/>
        <path fill="none" stroke="rgb(51,78,88)" stroke-width="0" stroke-linejoin="round" stroke-linecap="round" d="M 9822,14913 L 9822,16366"/>
        <path fill="none" stroke="rgb(51,78,88)" stroke-width="0" stroke-linejoin="round" stroke-linecap="round" d="M 9859,14913 L 9859,16366"/>
        <path fill="none" stroke="rgb(51,78,88)" stroke-width="0" stroke-linejoin="round" stroke-linecap="round" d="M 9588,14913 L 9588,15070"/>
        <path fill="none" stroke="rgb(51,78,88)" stroke-width="0" stroke-linejoin="round" stroke-linecap="round" d="M 9623,14913 L 9623,15070"/>
        <path fill="none" stroke="rgb(51,78,88)" stroke-width="0" stroke-linejoin="round" stroke-linecap="round" d="M 8880,14913 L 8880,16366"/>
        <path fill="none" stroke="rgb(51,78,88)" stroke-width="0" stroke-linejoin="round" stroke-linecap="round" d="M 8915,14913 L 8915,16366"/>
        <path fill="none" stroke="rgb(51,78,88)" stroke-width="0" stroke-linejoin="round" stroke-linecap="round" d="M 8643,14913 L 8643,16366"/>
        <path fill="none" stroke="rgb(51,78,88)" stroke-width="0" stroke-linejoin="round" stroke-linecap="round" d="M 8678,14913 L 8678,16366"/>
        <path fill="none" stroke="rgb(51,78,88)" stroke-width="0" stroke-linejoin="round" stroke-linecap="round" d="M 8407,14913 L 8407,16366"/>
        <path fill="none" stroke="rgb(51,78,88)" stroke-width="0" stroke-linejoin="round" stroke-linecap="round" d="M 8444,14913 L 8444,16366"/>
        <path fill="none" stroke="rgb(51,78,88)" stroke-width="0" stroke-linejoin="round" stroke-linecap="round" d="M 8050,16979 L 8087,16979"/>
        <path fill="none" stroke="rgb(51,78,88)" stroke-width="0" stroke-linejoin="round" stroke-linecap="round" d="M 13011,16979 L 13046,16979"/>
        <path fill="rgb(38,46,52)" stroke="none" d="M 8050,16384 L 8087,16979 8050,16979 8050,16384 Z"/>
        <path fill="rgb(38,46,52)" stroke="none" d="M 13011,16384 L 13046,16979 13011,16979 13011,16384 Z"/>
        <path fill="rgb(38,46,52)" stroke="none" d="M 8087,16384 L 8087,16979 8050,16384 8087,16384 Z"/>
        <path fill="rgb(38,46,52)" stroke="none" d="M 13046,16384 L 13046,16979 13011,16384 13046,16384 Z"/>
        <path fill="rgb(38,46,52)" stroke="none" d="M 13011,15253 L 13046,16384 13011,16384 13011,15253 Z"/>
        <path fill="rgb(38,46,52)" stroke="none" d="M 8050,15253 L 8087,16384 8050,16384 8050,15253 Z"/>
        <path fill="rgb(38,46,52)" stroke="none" d="M 13046,15253 L 13046,16384 13011,15253 13046,15253 Z"/>
        <path fill="rgb(38,46,52)" stroke="none" d="M 8087,15253 L 8087,16384 8050,15253 8087,15253 Z"/>
        <path fill="rgb(38,46,52)" stroke="none" d="M 13007,15205 L 13046,15253 13011,15253 13007,15205 Z"/>
        <path fill="rgb(38,46,52)" stroke="none" d="M 8089,15205 L 8087,15253 8050,15253 8089,15205 Z"/>
        <path fill="rgb(38,46,52)" stroke="none" d="M 8054,15199 L 8089,15205 8050,15253 8054,15199 Z"/>
        <path fill="rgb(38,46,52)" stroke="none" d="M 13042,15199 L 13046,15253 13007,15205 13042,15199 Z"/>
        <path fill="rgb(38,46,52)" stroke="none" d="M 8100,15157 L 8089,15205 8054,15199 8100,15157 Z"/>
        <path fill="rgb(38,46,52)" stroke="none" d="M 12998,15157 L 13042,15199 13007,15205 12998,15157 Z"/>
        <path fill="rgb(38,46,52)" stroke="none" d="M 8064,15148 L 8100,15157 8054,15199 8064,15148 Z"/>
        <path fill="rgb(38,46,52)" stroke="none" d="M 13032,15148 L 13042,15199 12998,15157 13032,15148 Z"/>
        <path fill="rgb(38,46,52)" stroke="none" d="M 12982,15112 L 13032,15148 12998,15157 12982,15112 Z"/>
        <path fill="rgb(38,46,52)" stroke="none" d="M 8116,15112 L 8100,15157 8064,15148 8116,15112 Z"/>
        <path fill="rgb(38,46,52)" stroke="none" d="M 8085,15098 L 8116,15112 8064,15148 8085,15098 Z"/>
        <path fill="rgb(38,46,52)" stroke="none" d="M 13013,15098 L 13032,15148 12982,15112 13013,15098 Z"/>
        <path fill="rgb(38,46,52)" stroke="none" d="M 12957,15070 L 13013,15098 12982,15112 12957,15070 Z"/>
        <path fill="rgb(38,46,52)" stroke="none" d="M 8140,15070 L 8116,15112 8085,15098 8140,15070 Z"/>
        <path fill="rgb(38,46,52)" stroke="none" d="M 8109,15050 L 8140,15070 8085,15098 8109,15050 Z"/>
        <path fill="rgb(38,46,52)" stroke="none" d="M 12987,15050 L 13013,15098 12957,15070 12987,15050 Z"/>
        <path fill="rgb(38,46,52)" stroke="none" d="M 8168,15031 L 8140,15070 8109,15050 8168,15031 Z"/>
        <path fill="rgb(38,46,52)" stroke="none" d="M 12928,15031 L 12987,15050 12957,15070 12928,15031 Z"/>
        <path fill="rgb(38,46,52)" stroke="none" d="M 8142,15007 L 8168,15031 8109,15050 8142,15007 8142,15007 Z"/>
        <path fill="rgb(38,46,52)" stroke="none" d="M 12956,15007 L 12987,15050 12928,15031 12956,15007 Z"/>
        <path fill="rgb(38,46,52)" stroke="none" d="M 8203,14996 L 8168,15031 8142,15007 8203,14996 Z"/>
        <path fill="rgb(38,46,52)" stroke="none" d="M 12895,14996 L 12956,15007 12928,15031 12895,14996 Z"/>
        <path fill="rgb(38,46,52)" stroke="none" d="M 8179,14970 L 8203,14996 8142,15007 8179,14970 Z"/>
        <path fill="rgb(38,46,52)" stroke="none" d="M 12916,14970 L 12956,15007 12895,14996 12916,14970 Z"/>
        <path fill="rgb(38,46,52)" stroke="none" d="M 8242,14966 L 8203,14996 8179,14970 8242,14966 Z"/>
        <path fill="rgb(38,46,52)" stroke="none" d="M 12855,14966 L 12916,14970 12895,14996 12855,14966 Z"/>
        <path fill="rgb(38,46,52)" stroke="none" d="M 8285,14944 L 8242,14966 8179,14970 8285,14944 Z"/>
        <path fill="rgb(38,46,52)" stroke="none" d="M 12813,14944 L 12916,14970 12855,14966 12813,14944 Z"/>
        <path fill="rgb(38,46,52)" stroke="none" d="M 8222,14937 L 8285,14944 8179,14970 8222,14937 Z"/>
        <path fill="rgb(38,46,52)" stroke="none" d="M 12874,14937 L 12916,14970 12813,14944 12874,14937 Z"/>
        <path fill="rgb(38,46,52)" stroke="none" d="M 12767,14928 L 12874,14937 12813,14944 12767,14928 Z"/>
        <path fill="rgb(38,46,52)" stroke="none" d="M 8329,14928 L 8285,14944 8222,14937 8329,14928 Z"/>
        <path fill="rgb(38,46,52)" stroke="none" d="M 12721,14916 L 12874,14937 12767,14928 12721,14916 Z"/>
        <path fill="rgb(38,46,52)" stroke="none" d="M 8377,14916 L 8329,14928 8222,14937 8377,14916 Z"/>
        <path fill="rgb(38,46,52)" stroke="none" d="M 8270,14911 L 12673,14913 8425,14913 8270,14911 Z"/>
        <path fill="rgb(38,46,52)" stroke="none" d="M 8270,14911 L 8425,14913 8377,14916 8270,14911 Z"/>
        <path fill="rgb(38,46,52)" stroke="none" d="M 8270,14911 L 8377,14916 8222,14937 8270,14911 Z"/>
        <path fill="rgb(38,46,52)" stroke="none" d="M 12828,14911 L 12673,14913 8270,14911 12828,14911 Z"/>
        <path fill="rgb(38,46,52)" stroke="none" d="M 12828,14911 L 12721,14916 12673,14913 12828,14911 Z"/>
        <path fill="rgb(38,46,52)" stroke="none" d="M 12828,14911 L 12874,14937 12721,14916 12828,14911 Z"/>
        <path fill="rgb(38,46,52)" stroke="none" d="M 8320,14892 L 12828,14911 8270,14911 8320,14892 Z"/>
        <path fill="rgb(38,46,52)" stroke="none" d="M 12778,14892 L 12828,14911 8320,14892 12778,14892 Z"/>
        <path fill="rgb(38,46,52)" stroke="none" d="M 8372,14881 L 12778,14892 8320,14892 8372,14881 Z"/>
        <path fill="rgb(38,46,52)" stroke="none" d="M 12724,14881 L 12778,14892 8372,14881 12724,14881 Z"/>
        <path fill="rgb(38,46,52)" stroke="none" d="M 12724,14881 L 8425,14878 12673,14878 12724,14881 Z"/>
        <path fill="rgb(38,46,52)" stroke="none" d="M 8425,14878 L 12724,14881 8372,14881 8425,14878 Z"/>
        <path fill="rgb(38,46,52)" stroke="none" d="M 8087,16384 L 13011,16403 8087,16403 8087,16384 Z"/>
        <path fill="rgb(38,46,52)" stroke="none" d="M 13011,16384 L 13011,16403 8087,16384 13011,16384 Z"/>
        <path fill="rgb(38,46,52)" stroke="none" d="M 12654,16366 L 13011,16384 8087,16384 12654,16366 Z"/>
        <path fill="rgb(38,46,52)" stroke="none" d="M 10530,16366 L 12654,16366 8087,16384 10530,16366 Z"/>
        <path fill="rgb(38,46,52)" stroke="none" d="M 11710,16366 L 12654,16366 10530,16366 11710,16366 Z"/>
        <path fill="rgb(38,46,52)" stroke="none" d="M 12183,16366 L 12654,16366 11710,16366 12183,16366 Z"/>
        <path fill="rgb(38,46,52)" stroke="none" d="M 8407,16366 L 10530,16366 8087,16384 8407,16366 Z"/>
        <path fill="rgb(38,46,52)" stroke="none" d="M 10567,16366 L 11710,16366 10530,16366 10567,16366 Z"/>
        <path fill="rgb(38,46,52)" stroke="none" d="M 8444,16366 L 10530,16366 8407,16366 8444,16366 Z"/>
        <path fill="rgb(38,46,52)" stroke="none" d="M 11747,16366 L 12183,16366 11710,16366 11747,16366 Z"/>
        <path fill="rgb(38,46,52)" stroke="none" d="M 12218,16366 L 12654,16366 12183,16366 12218,16366 Z"/>
        <path fill="rgb(38,46,52)" stroke="none" d="M 12689,16366 L 13011,16384 12654,16366 12689,16366 Z"/>
        <path fill="rgb(38,46,52)" stroke="none" d="M 11946,16366 L 12183,16366 11747,16366 11946,16366 Z"/>
        <path fill="rgb(38,46,52)" stroke="none" d="M 12183,16366 L 11946,16366 11982,16366 12183,16366 Z"/>
        <path fill="rgb(38,46,52)" stroke="none" d="M 9623,16366 L 10530,16366 8444,16366 9623,16366 Z"/>
        <path fill="rgb(38,46,52)" stroke="none" d="M 10059,16366 L 10530,16366 9623,16366 10059,16366 Z"/>
        <path fill="rgb(38,46,52)" stroke="none" d="M 10530,16366 L 10059,16366 10094,16366 10530,16366 Z"/>
        <path fill="rgb(38,46,52)" stroke="none" d="M 8915,16366 L 9623,16366 8444,16366 8915,16366 Z"/>
        <path fill="rgb(38,46,52)" stroke="none" d="M 11475,16366 L 11710,16366 10567,16366 11475,16366 Z"/>
        <path fill="rgb(38,46,52)" stroke="none" d="M 11710,16366 L 11475,16366 11510,16366 11710,16366 Z"/>
        <path fill="rgb(38,46,52)" stroke="none" d="M 9351,16366 L 9623,16366 8915,16366 9351,16366 Z"/>
        <path fill="rgb(38,46,52)" stroke="none" d="M 9623,16366 L 9351,16366 9386,16366 9623,16366 Z"/>
        <path fill="rgb(38,46,52)" stroke="none" d="M 11039,16366 L 11475,16366 10567,16366 11039,16366 Z"/>
        <path fill="rgb(38,46,52)" stroke="none" d="M 8087,16366 L 8407,16366 8087,16384 8087,16366 Z"/>
        <path fill="rgb(38,46,52)" stroke="none" d="M 8880,16366 L 8915,16366 8444,16366 8880,16366 Z"/>
        <path fill="rgb(38,46,52)" stroke="none" d="M 9588,16366 L 9623,16366 9386,16366 9588,16366 Z"/>
        <path fill="rgb(38,46,52)" stroke="none" d="M 11002,16366 L 11039,16366 10567,16366 11002,16366 Z"/>
        <path fill="rgb(38,46,52)" stroke="none" d="M 8678,16366 L 8880,16366 8444,16366 8678,16366 Z"/>
        <path fill="rgb(38,46,52)" stroke="none" d="M 8444,16366 L 8643,16366 8678,16366 8444,16366 Z"/>
        <path fill="rgb(38,46,52)" stroke="none" d="M 12418,16366 L 12654,16366 12218,16366 12418,16366 Z"/>
        <path fill="rgb(38,46,52)" stroke="none" d="M 12654,16366 L 12418,16366 12455,16366 12654,16366 Z"/>
        <path fill="rgb(38,46,52)" stroke="none" d="M 9152,16366 L 9351,16366 8915,16366 9152,16366 Z"/>
        <path fill="rgb(38,46,52)" stroke="none" d="M 8915,16366 L 9114,16366 9152,16366 8915,16366 Z"/>
        <path fill="rgb(38,46,52)" stroke="none" d="M 10802,16366 L 11002,16366 10567,16366 10802,16366 Z"/>
        <path fill="rgb(38,46,52)" stroke="none" d="M 10567,16366 L 10767,16366 10802,16366 10567,16366 Z"/>
        <path fill="rgb(38,46,52)" stroke="none" d="M 9859,16366 L 10059,16366 9623,16366 9859,16366 Z"/>
        <path fill="rgb(38,46,52)" stroke="none" d="M 9623,16366 L 9822,16366 9859,16366 9623,16366 Z"/>
        <path fill="rgb(38,46,52)" stroke="none" d="M 10296,16366 L 10530,16366 10094,16366 10296,16366 Z"/>
        <path fill="rgb(38,46,52)" stroke="none" d="M 10530,16366 L 10296,16366 10331,16366 10530,16366 Z"/>
        <path fill="rgb(38,46,52)" stroke="none" d="M 11274,16366 L 11475,16366 11039,16366 11274,16366 Z"/>
        <path fill="rgb(38,46,52)" stroke="none" d="M 13011,16366 L 13011,16384 12689,16366 13011,16366 Z"/>
        <path fill="rgb(38,46,52)" stroke="none" d="M 12654,14913 L 12673,14913 12654,16366 12654,14913 Z"/>
        <path fill="rgb(38,46,52)" stroke="none" d="M 12680,14913 L 12654,16366 12673,14913 12680,14913 Z"/>
        <path fill="rgb(38,46,52)" stroke="none" d="M 12654,16366 L 12680,14913 12689,16366 12654,16366 Z"/>
        <path fill="rgb(38,46,52)" stroke="none" d="M 12689,14915 L 12689,16366 12680,14913 12689,14915 Z"/>
        <path fill="none" stroke="rgb(51,78,88)" stroke-width="0" stroke-linejoin="round" stroke-linecap="round" d="M 12689,14913 L 12689,16366"/>
        <path fill="none" stroke="rgb(51,78,88)" stroke-width="0" stroke-linejoin="round" stroke-linecap="round" d="M 10736,15070 L 12719,15070"/>
        <path fill="none" stroke="rgb(51,78,88)" stroke-width="0" stroke-linejoin="round" stroke-linecap="round" d="M 11397,15070 L 11397,15068"/>
        <path fill="none" stroke="rgb(51,78,88)" stroke-width="0" stroke-linejoin="round" stroke-linecap="round" d="M 12057,15070 L 12057,15486"/>
        <path fill="none" stroke="rgb(51,78,88)" stroke-width="0" stroke-linejoin="round" stroke-linecap="round" d="M 11397,15070 L 11397,15486"/>
        <path fill="rgb(213,51,42)" stroke="none" d="M 12388,15277 L 12057,15070 12719,15070 12388,15277 Z"/>
        <path fill="rgb(213,51,42)" stroke="none" d="M 12388,15277 L 12719,15070 12719,15486 12388,15277 Z"/>
        <path fill="rgb(213,51,42)" stroke="none" d="M 12388,15277 L 12719,15486 12057,15486 12388,15277 Z"/>
        <path fill="rgb(213,51,42)" stroke="none" d="M 12388,15277 L 12057,15486 12057,15070 12388,15277 Z"/>
        <path fill="rgb(213,51,42)" stroke="none" d="M 11066,15277 L 10736,15070 11397,15070 11066,15277 Z"/>
        <path fill="rgb(213,51,42)" stroke="none" d="M 11066,15277 L 11397,15070 11397,15486 11066,15277 Z"/>
        <path fill="rgb(213,51,42)" stroke="none" d="M 11066,15277 L 11397,15486 10736,15486 11066,15277 Z"/>
        <path fill="rgb(213,51,42)" stroke="none" d="M 11066,15277 L 10736,15486 10736,15070 11066,15277 Z"/>
        <path fill="none" stroke="rgb(51,78,88)" stroke-width="0" stroke-linejoin="round" stroke-linecap="round" d="M 12719,15070 L 10736,15070"/>
        <path fill="none" stroke="rgb(51,78,88)" stroke-width="0" stroke-linejoin="round" stroke-linecap="round" d="M 9037,15070 L 9037,15068"/>
        <path fill="none" stroke="rgb(51,78,88)" stroke-width="0" stroke-linejoin="round" stroke-linecap="round" d="M 9699,15070 L 9699,15486"/>
        <path fill="none" stroke="rgb(51,78,88)" stroke-width="0" stroke-linejoin="round" stroke-linecap="round" d="M 9037,15070 L 9037,15486"/>
        <path fill="rgb(213,51,42)" stroke="none" d="M 10029,15277 L 9699,15070 10360,15070 10029,15277 Z"/>
        <path fill="rgb(213,51,42)" stroke="none" d="M 10029,15277 L 10360,15070 10360,15486 10029,15277 Z"/>
        <path fill="rgb(213,51,42)" stroke="none" d="M 10029,15277 L 10360,15486 9699,15486 10029,15277 Z"/>
        <path fill="rgb(213,51,42)" stroke="none" d="M 10029,15277 L 9699,15486 9699,15070 10029,15277 Z"/>
        <path fill="rgb(213,51,42)" stroke="none" d="M 8706,15277 L 8375,15070 9037,15070 8706,15277 Z"/>
        <path fill="rgb(213,51,42)" stroke="none" d="M 8706,15277 L 9037,15070 9037,15486 8706,15277 Z"/>
        <path fill="rgb(213,51,42)" stroke="none" d="M 8706,15277 L 9037,15486 8375,15486 8706,15277 8706,15277 Z"/>
        <path fill="rgb(213,51,42)" stroke="none" d="M 8706,15277 L 8375,15486 8375,15070 8706,15277 Z"/>
        <path fill="none" stroke="rgb(51,78,88)" stroke-width="0" stroke-linejoin="round" stroke-linecap="round" d="M 9588,15486 L 9588,16366"/>
        <path fill="none" stroke="rgb(51,78,88)" stroke-width="0" stroke-linejoin="round" stroke-linecap="round" d="M 9623,15486 L 9623,16366"/>
        <path fill="none" stroke="rgb(51,78,88)" stroke-width="0" stroke-linejoin="round" stroke-linecap="round" d="M 9351,14913 L 9351,15070"/>
        <path fill="none" stroke="rgb(51,78,88)" stroke-width="0" stroke-linejoin="round" stroke-linecap="round" d="M 9386,14913 L 9386,15070"/>
        <path fill="none" stroke="rgb(51,78,88)" stroke-width="0" stroke-linejoin="round" stroke-linecap="round" d="M 9351,15486 L 9351,16366"/>
        <path fill="none" stroke="rgb(51,78,88)" stroke-width="0" stroke-linejoin="round" stroke-linecap="round" d="M 9386,15486 L 9386,16366"/>
        <path fill="none" stroke="rgb(51,78,88)" stroke-width="0" stroke-linejoin="round" stroke-linecap="round" d="M 9114,14913 L 9114,15070"/>
        <path fill="none" stroke="rgb(51,78,88)" stroke-width="0" stroke-linejoin="round" stroke-linecap="round" d="M 9152,14913 L 9152,15070"/>
        <path fill="none" stroke="rgb(51,78,88)" stroke-width="0" stroke-linejoin="round" stroke-linecap="round" d="M 9114,15486 L 9114,16366"/>
        <path fill="none" stroke="rgb(51,78,88)" stroke-width="0" stroke-linejoin="round" stroke-linecap="round" d="M 9152,15486 L 9152,16366"/>
        <path fill="none" stroke="rgb(51,78,88)" stroke-width="0" stroke-linejoin="round" stroke-linecap="round" d="M 11946,14913 L 11946,15070"/>
        <path fill="none" stroke="rgb(51,78,88)" stroke-width="0" stroke-linejoin="round" stroke-linecap="round" d="M 11982,14913 L 11982,15070"/>
        <path fill="none" stroke="rgb(51,78,88)" stroke-width="0" stroke-linejoin="round" stroke-linecap="round" d="M 11946,15486 L 11946,16366"/>
        <path fill="none" stroke="rgb(51,78,88)" stroke-width="0" stroke-linejoin="round" stroke-linecap="round" d="M 11982,15486 L 11982,16366"/>
        <path fill="none" stroke="rgb(51,78,88)" stroke-width="0" stroke-linejoin="round" stroke-linecap="round" d="M 11710,14913 L 11710,15070"/>
        <path fill="none" stroke="rgb(51,78,88)" stroke-width="0" stroke-linejoin="round" stroke-linecap="round" d="M 11747,14913 L 11747,15070"/>
        <path fill="none" stroke="rgb(51,78,88)" stroke-width="0" stroke-linejoin="round" stroke-linecap="round" d="M 11710,15486 L 11710,16366"/>
        <path fill="none" stroke="rgb(51,78,88)" stroke-width="0" stroke-linejoin="round" stroke-linecap="round" d="M 11747,15486 L 11747,16366"/>
        <path fill="none" stroke="rgb(51,78,88)" stroke-width="0" stroke-linejoin="round" stroke-linecap="round" d="M 11475,14913 L 11475,15070"/>
        <path fill="none" stroke="rgb(51,78,88)" stroke-width="0" stroke-linejoin="round" stroke-linecap="round" d="M 11510,14913 L 11510,15070"/>
        <path fill="none" stroke="rgb(51,78,88)" stroke-width="0" stroke-linejoin="round" stroke-linecap="round" d="M 11475,15486 L 11475,16366"/>
        <path fill="none" stroke="rgb(51,78,88)" stroke-width="0" stroke-linejoin="round" stroke-linecap="round" d="M 11510,15486 L 11510,16366"/>
        <path fill="rgb(38,46,52)" stroke="none" d="M 11747,16366 L 11710,15486 11747,15486 11747,16366 Z"/>
        <path fill="rgb(38,46,52)" stroke="none" d="M 11710,15486 L 11747,16366 11710,16366 11710,15486 Z"/>
        <path fill="rgb(38,46,52)" stroke="none" d="M 11946,16366 L 11946,15486 11982,15486 11946,16366 Z"/>
        <path fill="rgb(38,46,52)" stroke="none" d="M 11982,15486 L 11982,16366 11946,16366 11982,15486 Z"/>
        <path fill="rgb(38,46,52)" stroke="none" d="M 11475,15486 L 11510,16366 11475,16366 11475,15486 Z"/>
        <path fill="rgb(38,46,52)" stroke="none" d="M 11510,15486 L 11510,16366 11475,15486 11510,15486 Z"/>
        <path fill="rgb(38,46,52)" stroke="none" d="M 11747,14913 L 11747,15070 11710,15070 11747,14913 Z"/>
        <path fill="rgb(38,46,52)" stroke="none" d="M 11710,14913 L 11747,14913 11710,15070 11710,14913 Z"/>
        <path fill="rgb(38,46,52)" stroke="none" d="M 11946,15070 L 11946,14913 11982,14913 11946,15070 Z"/>
        <path fill="rgb(38,46,52)" stroke="none" d="M 11982,14913 L 11982,15070 11946,15070 11982,14913 Z"/>
        <path fill="rgb(38,46,52)" stroke="none" d="M 11510,14913 L 11510,15070 11475,15070 11510,14913 Z"/>
        <path fill="rgb(38,46,52)" stroke="none" d="M 11475,14913 L 11510,14913 11475,15070 11475,14913 Z"/>
        <path fill="rgb(38,46,52)" stroke="none" d="M 9152,15486 L 9152,16366 9114,16366 9152,15486 Z"/>
        <path fill="rgb(38,46,52)" stroke="none" d="M 9114,15486 L 9152,15486 9114,16366 9114,15486 Z"/>
        <path fill="rgb(38,46,52)" stroke="none" d="M 9351,16366 L 9351,15486 9386,15486 9351,16366 Z"/>
        <path fill="rgb(38,46,52)" stroke="none" d="M 9386,15486 L 9386,16366 9351,16366 9386,15486 Z"/>
        <path fill="rgb(38,46,52)" stroke="none" d="M 9588,15486 L 9623,16366 9588,16366 9588,15486 Z"/>
        <path fill="rgb(38,46,52)" stroke="none" d="M 9623,15486 L 9623,16366 9588,15486 9623,15486 Z"/>
        <path fill="rgb(38,46,52)" stroke="none" d="M 9588,14913 L 9623,15070 9588,15070 9588,14913 Z"/>
        <path fill="rgb(38,46,52)" stroke="none" d="M 9623,14913 L 9623,15070 9588,14913 9623,14913 Z"/>
        <path fill="rgb(38,46,52)" stroke="none" d="M 9114,14913 L 9152,15070 9114,15070 9114,14913 Z"/>
        <path fill="rgb(38,46,52)" stroke="none" d="M 9351,14913 L 9386,15070 9351,15070 9351,14913 Z"/>
        <path fill="rgb(38,46,52)" stroke="none" d="M 9152,14913 L 9152,15070 9114,14913 9152,14913 Z"/>
        <path fill="rgb(38,46,52)" stroke="none" d="M 9386,14913 L 9386,15070 9351,14913 9386,14913 Z"/>
        <path fill="rgb(38,46,52)" stroke="none" d="M 8444,15486 L 8444,16366 8407,16366 8444,15486 Z"/>
        <path fill="rgb(38,46,52)" stroke="none" d="M 8407,15486 L 8444,15486 8407,16366 8407,15486 Z"/>
        <path fill="rgb(38,46,52)" stroke="none" d="M 8880,15486 L 8915,16366 8880,16366 8880,15486 Z"/>
        <path fill="rgb(38,46,52)" stroke="none" d="M 8643,15486 L 8678,16366 8643,16366 8643,15486 Z"/>
        <path fill="rgb(38,46,52)" stroke="none" d="M 8678,15486 L 8678,16366 8643,15486 8678,15486 Z"/>
        <path fill="rgb(38,46,52)" stroke="none" d="M 8915,15486 L 8915,16366 8880,15486 8915,15486 Z"/>
        <path fill="rgb(38,46,52)" stroke="none" d="M 8407,14915 L 8444,15070 8407,15070 8407,14915 Z"/>
        <path fill="rgb(38,46,52)" stroke="none" d="M 8416,14913 L 8444,15070 8407,14915 8416,14913 Z"/>
        <path fill="rgb(38,46,52)" stroke="none" d="M 8678,15070 L 8643,14913 8678,14913 8678,15070 Z"/>
        <path fill="rgb(38,46,52)" stroke="none" d="M 8643,14913 L 8678,15070 8643,15070 8643,14913 Z"/>
        <path fill="rgb(38,46,52)" stroke="none" d="M 8880,14913 L 8915,15070 8880,15070 8880,14913 Z"/>
        <path fill="rgb(38,46,52)" stroke="none" d="M 8444,14913 L 8444,15070 8416,14913 8444,14913 Z"/>
        <path fill="rgb(38,46,52)" stroke="none" d="M 8425,14913 L 8444,14913 8416,14913 8425,14913 Z"/>
        <path fill="rgb(38,46,52)" stroke="none" d="M 8915,14913 L 8915,15070 8880,14913 8915,14913 Z"/>
        <path fill="none" stroke="rgb(51,78,88)" stroke-width="0" stroke-linejoin="round" stroke-linecap="round" d="M 12719,15070 L 12719,15486 10736,15486 10736,15070"/>
        <path fill="rgb(38,46,52)" stroke="none" d="M 12418,16366 L 12418,15486 12455,15486 12418,16366 Z"/>
        <path fill="rgb(38,46,52)" stroke="none" d="M 12455,15486 L 12455,16366 12418,16366 12455,15486 Z"/>
        <path fill="rgb(38,46,52)" stroke="none" d="M 12183,16366 L 12183,15486 12218,15486 12183,16366 Z"/>
        <path fill="rgb(38,46,52)" stroke="none" d="M 12218,15486 L 12218,16366 12183,16366 12218,15486 Z"/>
        <path fill="rgb(38,46,52)" stroke="none" d="M 12455,14913 L 12455,15070 12418,15070 12455,14913 Z"/>
        <path fill="rgb(38,46,52)" stroke="none" d="M 12418,14913 L 12455,14913 12418,15070 12418,14913 Z"/>
        <path fill="rgb(38,46,52)" stroke="none" d="M 12183,15070 L 12183,14913 12218,14913 12183,15070 Z"/>
        <path fill="rgb(38,46,52)" stroke="none" d="M 12218,14913 L 12218,15070 12183,15070 12218,14913 Z"/>
        <path fill="none" stroke="rgb(51,78,88)" stroke-width="0" stroke-linejoin="round" stroke-linecap="round" d="M 8375,15070 L 10360,15070 10360,15486 8375,15486 8375,15070 10360,15070"/>
        <path fill="rgb(38,46,52)" stroke="none" d="M 11274,16366 L 11239,15486 11274,15486 11274,16366 Z"/>
        <path fill="rgb(38,46,52)" stroke="none" d="M 11239,15486 L 11274,16366 11239,16366 11239,15486 Z"/>
        <path fill="rgb(38,46,52)" stroke="none" d="M 11002,15486 L 11039,16366 11002,16366 11002,15486 Z"/>
        <path fill="rgb(38,46,52)" stroke="none" d="M 11039,15486 L 11039,16366 11002,15486 11039,15486 Z"/>
        <path fill="rgb(38,46,52)" stroke="none" d="M 10767,15486 L 10802,16366 10767,16366 10767,15486 Z"/>
        <path fill="rgb(38,46,52)" stroke="none" d="M 10802,15486 L 10802,16366 10767,15486 10802,15486 Z"/>
        <path fill="rgb(38,46,52)" stroke="none" d="M 11239,15070 L 11239,14913 11274,14913 11239,15070 Z"/>
        <path fill="rgb(38,46,52)" stroke="none" d="M 11274,14913 L 11274,15070 11239,15070 11274,14913 Z"/>
        <path fill="rgb(38,46,52)" stroke="none" d="M 11039,15070 L 11002,14913 11039,14913 11039,15070 Z"/>
        <path fill="rgb(38,46,52)" stroke="none" d="M 11002,14913 L 11039,15070 11002,15070 11002,14913 Z"/>
        <path fill="rgb(38,46,52)" stroke="none" d="M 10767,15070 L 10767,14913 10802,14913 10767,15070 Z"/>
        <path fill="rgb(38,46,52)" stroke="none" d="M 10802,14913 L 10802,15070 10767,15070 10802,14913 Z"/>
        <path fill="rgb(38,46,52)" stroke="none" d="M 10296,16366 L 10296,15486 10331,15486 10296,16366 Z"/>
        <path fill="rgb(38,46,52)" stroke="none" d="M 10331,15486 L 10331,16366 10296,16366 10331,15486 Z"/>
        <path fill="rgb(38,46,52)" stroke="none" d="M 10059,15486 L 10094,16366 10059,16366 10059,15486 Z"/>
        <path fill="rgb(38,46,52)" stroke="none" d="M 9859,15486 L 9859,16366 9822,16366 9859,15486 Z"/>
        <path fill="rgb(38,46,52)" stroke="none" d="M 10094,15486 L 10094,16366 10059,15486 10094,15486 Z"/>
        <path fill="rgb(38,46,52)" stroke="none" d="M 9822,15486 L 9859,15486 9822,16366 9822,15486 Z"/>
        <path fill="rgb(38,46,52)" stroke="none" d="M 10059,15070 L 10059,14913 10094,14913 10059,15070 Z"/>
        <path fill="rgb(38,46,52)" stroke="none" d="M 10094,14913 L 10094,15070 10059,15070 10094,14913 Z"/>
        <path fill="rgb(38,46,52)" stroke="none" d="M 9822,14913 L 9859,15070 9822,15070 9822,14913 Z"/>
        <path fill="rgb(38,46,52)" stroke="none" d="M 10296,15070 L 10296,14913 10331,14913 10296,15070 Z"/>
        <path fill="rgb(38,46,52)" stroke="none" d="M 10331,14913 L 10331,15070 10296,15070 10331,14913 Z"/>
        <path fill="rgb(38,46,52)" stroke="none" d="M 9859,14913 L 9859,15070 9822,14913 9859,14913 Z"/>
        <path fill="rgb(38,46,52)" stroke="none" d="M 10549,15639 L 10530,14913 10567,14913 10549,15639 Z"/>
        <path fill="rgb(38,46,52)" stroke="none" d="M 10549,15639 L 10567,14913 10567,16366 10549,15639 Z"/>
        <path fill="rgb(38,46,52)" stroke="none" d="M 10549,15639 L 10567,16366 10530,16366 10549,15639 Z"/>
        <path fill="rgb(38,46,52)" stroke="none" d="M 10549,15639 L 10530,16366 10530,14913 10549,15639 Z"/>
        <path fill="rgb(47,70,76)" stroke="none" d="M 11809,14239 L 9848,14239 9308,14545 9848,14852 11809,14852 11809,14239 Z"/>
        <path fill="rgb(224,135,57)" stroke="none" d="M 11772,14276 L 9857,14276 9578,14545 9857,14815 11772,14815 11772,14276 Z"/>
        <path fill="rgb(215,67,51)" stroke="none" d="M 10553,12833 L 10589,12834 10624,12836 10659,12841 10694,12847 10728,12855 10761,12865 10794,12876 10825,12888 10856,12902 10886,12917 10916,12934 10944,12952 10971,12972 10998,12993 11023,13015 11048,13038 11071,13063 11093,13088 11114,13114 11133,13142 11152,13170 11168,13199 11184,13229 11198,13261 11210,13292 11221,13325 11231,13358 11239,13392 11245,13426 11249,13462 11252,13497 11253,13533 11252,13569 11249,13605 11245,13640 11239,13674 11231,13708 11221,13741 11210,13774 11198,13806 11184,13837 11168,13867 11152,13896 11133,13925 11114,13952 11093,13979 11071,14004 11048,14028 11023,14052 10998,14073 10971,14094 10944,14114 10916,14132 10886,14149 10856,14164 10825,14178 10794,14191 10761,14202 10728,14211 10694,14219 10659,14225 10624,14230 10589,14232 10553,14233 10517,14232 10481,14230 10446,14225 10412,14219 10378,14211 10344,14202 10312,14191 10280,14178 10249,14164 10219,14149 10190,14132 10161,14114 10134,14094 10107,14073 10082,14052 10058,14028 10034,14004 10012,13979 9992,13952 9972,13925 9954,13896 9937,13867 9922,13837 9907,13806 9895,13774 9884,13741 9874,13708 9867,13674 9861,13640 9856,13605 9853,13569 9852,13533 9853,13497 9856,13462 9861,13426 9867,13392 9874,13358 9884,13325 9895,13292 9907,13261 9922,13229 9937,13199 9954,13170 9972,13142 9992,13114 10012,13088 10034,13063 10058,13038 10082,13015 10107,12993 10134,12972 10161,12952 10190,12934 10219,12917 10249,12902 10280,12888 10312,12876 10344,12865 10378,12855 10412,12847 10446,12841 10481,12836 10517,12834 10553,12833 Z"/>
        <path fill="rgb(255,255,255)" stroke="none" d="M 10090,13475 L 11016,13475 11015,13467 11014,13459 11012,13451 11011,13443 11009,13436 11008,13428 11006,13420 11004,13412 11001,13405 10999,13397 10997,13389 10995,13381 10992,13374 10989,13366 10986,13359 10983,13351 10981,13346 10978,13341 10976,13336 10974,13331 10971,13326 10969,13321 10966,13316 10963,13311 10961,13306 10958,13301 10955,13296 10952,13291 10949,13287 10946,13282 10943,13277 10940,13273 10937,13268 10934,13264 10930,13259 10927,13254 10924,13250 10920,13245 10917,13241 10913,13237 10910,13232 10906,13228 10902,13224 10899,13219 10895,13215 10891,13211 10887,13207 10883,13203 10879,13199 10875,13195 10870,13191 10866,13187 10862,13184 10858,13180 10854,13176 10849,13173 10845,13169 10840,13165 10836,13162 10832,13159 10827,13155 10823,13152 10818,13149 10813,13146 10809,13143 10804,13139 10799,13137 10794,13133 10790,13131 10785,13128 10780,13125 10775,13123 10770,13120 10765,13117 10760,13115 10755,13112 10750,13110 10745,13108 10739,13105 10734,13103 10729,13101 10723,13098 10718,13096 10713,13094 10707,13093 10702,13091 10696,13089 10691,13087 10685,13085 10679,13084 10674,13082 10668,13081 10662,13079 10657,13078 10651,13077 10646,13076 10640,13074 10634,13073 10629,13073 10623,13072 10617,13071 10611,13070 10606,13069 10600,13069 10594,13068 10588,13068 10582,13067 10576,13067 10571,13067 10565,13067 10559,13066 10553,13066 10547,13066 10541,13067 10535,13067 10529,13067 10523,13067 10517,13068 10511,13068 10505,13069 10500,13069 10494,13070 10488,13071 10482,13072 10477,13073 10471,13073 10465,13074 10460,13076 10454,13077 10448,13078 10443,13079 10437,13081 10432,13082 10426,13084 10420,13085 10415,13087 10409,13089 10404,13091 10398,13093 10393,13094 10387,13096 10382,13098 10376,13101 10371,13103 10366,13105 10361,13108 10355,13110 10350,13112 10345,13115 10340,13117 10335,13120 10330,13123 10325,13125 10321,13128 10316,13131 10311,13133 10306,13137 10301,13139 10297,13143 10292,13146 10287,13149 10283,13152 10278,13155 10274,13159 10269,13162 10265,13165 10261,13169 10256,13173 10252,13176 10247,13180 10243,13184 10239,13187 10235,13191 10231,13195 10226,13199 10222,13203 10219,13207 10215,13211 10211,13215 10207,13219 10203,13224 10199,13228 10196,13232 10192,13237 10188,13241 10185,13245 10181,13250 10178,13254 10175,13259 10171,13264 10168,13268 10165,13273 10162,13277 10159,13282 10156,13287 10153,13291 10150,13296 10147,13301 10145,13306 10142,13311 10139,13316 10137,13321 10134,13326 10132,13331 10129,13336 10127,13341 10125,13346 10122,13351 10119,13359 10116,13366 10114,13374 10111,13381 10108,13389 10106,13397 10104,13405 10101,13412 10100,13420 10098,13428 10096,13436 10094,13443 10093,13451 10092,13459 10090,13467 10090,13475 Z"/>
        <path fill="rgb(255,255,255)" stroke="none" d="M 11016,13592 L 10090,13592 10090,13599 10092,13608 10093,13615 10094,13623 10096,13631 10098,13639 10100,13646 10101,13654 10104,13662 10106,13669 10108,13677 10111,13685 10114,13692 10116,13700 10119,13707 10122,13715 10125,13720 10127,13725 10129,13730 10132,13735 10134,13740 10137,13745 10139,13750 10142,13755 10145,13760 10147,13765 10150,13770 10153,13775 10156,13780 10159,13785 10162,13789 10165,13794 10168,13798 10171,13803 10175,13808 10178,13812 10181,13816 10185,13821 10188,13825 10192,13830 10196,13834 10199,13838 10203,13843 10207,13847 10211,13851 10215,13855 10219,13859 10222,13863 10226,13867 10231,13871 10235,13875 10239,13879 10243,13883 10247,13886 10252,13890 10256,13894 10261,13897 10265,13901 10269,13904 10274,13908 10278,13911 10283,13914 10287,13917 10292,13921 10297,13924 10301,13927 10306,13930 10311,13933 10316,13936 10321,13938 10325,13941 10330,13944 10335,13946 10340,13949 10345,13951 10350,13954 10355,13956 10361,13959 10366,13961 10371,13963 10376,13966 10382,13968 10387,13970 10393,13972 10398,13974 10404,13976 10409,13977 10415,13979 10420,13981 10426,13983 10432,13984 10437,13986 10443,13987 10448,13988 10454,13990 10460,13991 10465,13992 10471,13993 10477,13994 10482,13995 10488,13996 10494,13997 10500,13997 10505,13998 10511,13998 10517,13999 10523,13999 10529,13999 10535,14000 10541,14000 10547,14000 10553,14000 10559,14000 10565,14000 10571,14000 10576,13999 10582,13999 10588,13999 10594,13998 10600,13998 10606,13997 10611,13997 10617,13996 10623,13995 10629,13994 10634,13993 10640,13992 10646,13991 10651,13990 10657,13988 10662,13987 10668,13986 10674,13984 10679,13983 10685,13981 10691,13979 10696,13977 10702,13976 10707,13974 10713,13972 10718,13970 10723,13968 10729,13966 10734,13963 10739,13961 10745,13959 10750,13956 10755,13954 10760,13951 10765,13949 10770,13946 10775,13944 10780,13941 10785,13938 10790,13936 10794,13933 10799,13930 10804,13927 10809,13924 10813,13921 10818,13917 10823,13914 10827,13911 10832,13908 10836,13904 10840,13901 10845,13897 10849,13894 10854,13890 10858,13886 10862,13883 10866,13879 10870,13875 10875,13871 10879,13867 10883,13863 10887,13859 10891,13855 10895,13851 10899,13847 10902,13843 10906,13838 10910,13834 10913,13830 10917,13825 10920,13821 10924,13816 10927,13812 10930,13808 10934,13803 10937,13798 10940,13794 10943,13789 10946,13785 10949,13780 10952,13775 10955,13770 10958,13765 10961,13760 10963,13755 10966,13750 10969,13745 10971,13740 10974,13735 10976,13730 10978,13725 10981,13720 10983,13715 10986,13707 10989,13700 10992,13692 10995,13685 10997,13677 10999,13669 11001,13662 11004,13654 11006,13646 11008,13639 11009,13631 11011,13623 11012,13615 11014,13608 11015,13599 11016,13592 Z"/>
        <path fill="rgb(34,41,42)" stroke="none" d="M 10744,13361 L 10744,13420 10744,13420 10744,13421 10743,13422 10743,13423 10743,13423 10743,13424 10743,13425 10743,13426 10742,13427 10741,13427 10741,13427 10740,13428 10739,13428 10738,13428 10737,13428 10736,13428 10713,13428 10713,13428 10712,13428 10711,13428 10710,13428 10710,13428 10709,13427 10708,13427 10708,13427 10708,13426 10708,13426 10707,13426 10707,13425 10707,13425 10707,13424 10707,13423 10707,13422 10706,13421 10706,13420 10706,13367 10705,13368 10704,13368 10702,13368 10702,13368 10697,13369 10693,13369 10689,13370 10684,13370 10679,13371 10674,13371 10669,13371 10664,13371 10659,13372 10654,13372 10649,13372 10644,13372 10640,13372 10635,13373 10631,13373 10627,13373 10624,13373 10621,13373 10616,13373 10611,13373 10606,13373 10600,13373 10595,13373 10588,13374 10582,13374 10576,13374 10571,13374 10566,13374 10561,13374 10556,13374 10553,13374 10550,13374 10546,13374 10541,13374 10537,13374 10533,13374 10528,13374 10524,13374 10519,13374 10515,13374 10510,13374 10506,13373 10501,13373 10497,13373 10492,13373 10488,13373 10484,13373 10479,13373 10475,13372 10470,13372 10466,13372 10461,13372 10457,13371 10452,13371 10447,13371 10442,13371 10438,13371 10433,13371 10428,13370 10423,13370 10419,13370 10414,13370 10410,13369 10406,13369 10401,13369 10401,13419 10401,13423 10401,13424 10400,13425 10400,13426 10399,13426 10399,13427 10398,13427 10397,13428 10397,13428 10396,13428 10394,13428 10393,13428 10393,13428 10371,13428 10371,13428 10370,13428 10369,13428 10368,13428 10368,13428 10367,13427 10366,13427 10366,13427 10365,13427 10365,13426 10365,13426 10364,13426 10364,13425 10364,13425 10364,13424 10364,13423 10364,13422 10364,13421 10364,13420 10364,13419 10364,13361 10348,13361 10348,13361 10347,13361 10345,13361 10345,13361 10344,13361 10343,13360 10342,13360 10341,13359 10341,13358 10340,13358 10340,13357 10340,13356 10339,13355 10339,13353 10339,13351 10339,13350 10339,13348 10340,13345 10340,13343 10340,13340 10339,13337 10339,13335 10339,13332 10339,13330 10339,13327 10339,13324 10339,13321 10339,13318 10338,13315 10338,13312 10338,13309 10338,13306 10338,13303 10337,13300 10337,13296 10336,13293 10336,13290 10335,13287 10334,13283 10333,13280 10333,13278 10332,13276 10332,13274 10331,13272 10331,13270 10331,13269 10331,13267 10331,13265 10331,13264 10331,13262 10331,13261 10332,13259 10332,13258 10332,13256 10333,13255 10333,13253 10334,13251 10334,13250 10335,13248 10336,13247 10336,13245 10337,13244 10338,13243 10338,13242 10340,13240 10342,13238 10344,13236 10346,13234 10348,13232 10350,13231 10352,13230 10353,13229 10355,13228 10357,13227 10359,13226 10361,13225 10363,13225 10364,13224 10365,13224 10366,13224 10367,13224 10368,13224 10429,13144 10429,13143 10431,13142 10431,13141 10432,13141 10433,13140 10434,13140 10435,13139 10436,13139 10437,13139 10439,13139 10439,13139 10440,13139 10441,13139 10442,13139 10663,13139 10664,13139 10665,13139 10667,13139 10667,13139 10668,13139 10670,13139 10671,13139 10672,13140 10673,13140 10674,13141 10675,13141 10675,13142 10676,13143 10677,13144 10677,13145 10678,13145 10741,13225 10742,13225 10743,13225 10744,13226 10745,13226 10747,13227 10748,13227 10749,13228 10751,13229 10753,13229 10754,13230 10755,13231 10757,13232 10759,13234 10760,13235 10762,13236 10763,13238 10765,13240 10766,13242 10768,13244 10769,13245 10770,13248 10771,13250 10772,13252 10773,13254 10773,13257 10774,13259 10774,13261 10774,13264 10774,13266 10774,13268 10774,13270 10773,13273 10773,13276 10773,13278 10773,13281 10772,13283 10772,13285 10771,13287 10771,13289 10771,13291 10770,13293 10770,13295 10770,13297 10770,13299 10769,13301 10769,13303 10769,13305 10768,13308 10768,13310 10768,13312 10768,13314 10768,13316 10767,13318 10767,13320 10767,13322 10767,13324 10767,13326 10767,13328 10767,13330 10766,13331 10766,13334 10766,13335 10766,13338 10766,13340 10767,13342 10767,13344 10767,13346 10767,13348 10767,13349 10767,13351 10767,13353 10767,13354 10767,13355 10767,13356 10767,13357 10766,13358 10766,13358 10766,13359 10766,13359 10765,13360 10765,13360 10764,13361 10764,13361 10763,13361 10763,13361 10763,13361 10762,13361 10761,13361 10760,13361 10759,13361 10744,13361 Z"/>
        <path fill="rgb(34,41,42)" stroke="none" d="M 10592,13855 L 10501,13855 10500,13855 10499,13855 10498,13855 10496,13855 10495,13855 10495,13855 10494,13855 10493,13854 10492,13854 10491,13853 10491,13853 10490,13852 10490,13852 10490,13852 10489,13851 10489,13850 10489,13849 10489,13848 10489,13847 10489,13846 10489,13845 10489,13845 10489,13844 10490,13843 10490,13842 10491,13841 10491,13841 10491,13840 10492,13840 10492,13840 10492,13840 10493,13839 10493,13839 10493,13839 10494,13838 10495,13837 10474,13809 10474,13809 10472,13808 10472,13808 10472,13807 10471,13807 10471,13807 10470,13807 10470,13807 10469,13807 10469,13807 10468,13807 10468,13807 10468,13808 10467,13808 10467,13809 10467,13809 10466,13811 10466,13811 10466,13829 10466,13829 10466,13830 10465,13830 10465,13831 10465,13831 10465,13831 10465,13832 10465,13833 10465,13833 10465,13833 10465,13833 10464,13833 10464,13834 10464,13834 10463,13834 10462,13834 10461,13835 10460,13835 10459,13835 10459,13835 10458,13835 10457,13835 10457,13835 10457,13836 10457,13837 10457,13837 10455,13842 10454,13846 10452,13850 10450,13853 10448,13857 10446,13860 10443,13863 10440,13866 10437,13869 10434,13871 10431,13873 10427,13875 10424,13877 10420,13879 10416,13880 10412,13881 10408,13882 10404,13882 10400,13883 10396,13883 10392,13883 10388,13883 10384,13882 10380,13881 10376,13880 10372,13879 10368,13878 10364,13876 10361,13874 10357,13871 10354,13869 10351,13866 10349,13864 10348,13863 10346,13861 10344,13859 10343,13857 10342,13855 10340,13853 10339,13851 10338,13849 10337,13847 10336,13845 10335,13842 10334,13840 10333,13838 10333,13835 10332,13833 10332,13831 10332,13828 10331,13826 10331,13824 10331,13821 10331,13819 10332,13816 10332,13814 10332,13811 10333,13809 10334,13806 10334,13804 10336,13801 10337,13799 10338,13796 10339,13794 10340,13793 10341,13792 10341,13791 10341,13791 10342,13791 10342,13790 10339,13789 10339,13787 10338,13786 10338,13785 10338,13784 10338,13783 10339,13782 10339,13782 10340,13781 10340,13781 10341,13781 10342,13780 10343,13778 10344,13777 10345,13776 10347,13775 10348,13773 10349,13772 10351,13771 10353,13770 10354,13769 10356,13768 10358,13767 10360,13766 10362,13765 10363,13764 10366,13763 10368,13762 10369,13761 10372,13760 10374,13760 10376,13759 10378,13759 10380,13758 10382,13758 10384,13757 10386,13757 10388,13756 10390,13756 10392,13756 10394,13756 10396,13756 10398,13756 10399,13756 10402,13757 10405,13757 10406,13757 10406,13744 10406,13744 10406,13743 10407,13742 10407,13741 10407,13741 10407,13740 10408,13740 10409,13740 10409,13739 10410,13739 10411,13739 10411,13739 10412,13739 10412,13740 10414,13740 10416,13741 10418,13741 10419,13742 10420,13740 10421,13739 10422,13738 10423,13737 10424,13737 10424,13736 10426,13735 10427,13734 10428,13734 10429,13734 10430,13733 10432,13733 10433,13732 10434,13732 10437,13732 10439,13732 10442,13732 10444,13732 10446,13733 10448,13733 10451,13734 10453,13734 10460,13737 10461,13736 10462,13736 10463,13735 10465,13735 10467,13734 10468,13734 10470,13734 10471,13733 10472,13733 10474,13733 10475,13734 10475,13734 10476,13734 10477,13734 10478,13734 10480,13734 10483,13735 10485,13736 10488,13736 10491,13737 10492,13737 10493,13737 10494,13737 10495,13737 10495,13737 10496,13736 10492,13723 10491,13721 10490,13719 10490,13717 10489,13716 10489,13715 10488,13714 10488,13714 10488,13713 10488,13713 10488,13712 10488,13712 10487,13710 10487,13710 10487,13709 10487,13708 10487,13707 10485,13707 10484,13708 10483,13708 10482,13709 10482,13709 10481,13709 10480,13709 10479,13708 10478,13708 10478,13707 10478,13707 10477,13706 10477,13706 10477,13705 10476,13705 10476,13704 10476,13704 10476,13704 10475,13703 10475,13702 10474,13701 10473,13700 10473,13700 10472,13700 10471,13700 10471,13700 10468,13700 10467,13700 10467,13700 10466,13699 10465,13699 10465,13698 10465,13696 10465,13695 10465,13694 10465,13694 10464,13693 10464,13693 10464,13692 10464,13692 10464,13691 10464,13691 10463,13690 10459,13681 10459,13680 10458,13679 10458,13679 10458,13678 10458,13676 10458,13675 10458,13673 10458,13671 10458,13669 10459,13668 10459,13666 10460,13664 10461,13662 10461,13661 10463,13659 10464,13658 10465,13656 10467,13655 10469,13654 10470,13653 10472,13652 10474,13651 10476,13651 10478,13650 10479,13650 10480,13650 10481,13650 10482,13650 10484,13650 10485,13650 10487,13650 10490,13650 10492,13650 10494,13651 10495,13651 10496,13652 10498,13653 10499,13653 10500,13654 10501,13654 10501,13655 10502,13655 10503,13657 10504,13658 10505,13659 10506,13660 10507,13661 10508,13663 10508,13664 10509,13666 10510,13669 10510,13671 10510,13673 10510,13675 10510,13677 10511,13679 10511,13679 10513,13679 10515,13680 10517,13680 10519,13680 10521,13680 10523,13681 10524,13681 10525,13681 10527,13681 10529,13681 10532,13682 10534,13682 10536,13682 10538,13682 10540,13683 10541,13683 10543,13684 10546,13685 10549,13687 10552,13688 10555,13690 10557,13691 10559,13692 10561,13694 10564,13697 10567,13700 10571,13704 10576,13707 10580,13711 10584,13714 10587,13718 10589,13719 10591,13721 10593,13723 10595,13724 10597,13726 10599,13728 10601,13729 10603,13731 10604,13732 10605,13733 10607,13735 10610,13737 10612,13739 10614,13740 10615,13742 10616,13743 10618,13745 10619,13746 10621,13748 10622,13750 10622,13751 10623,13752 10623,13753 10623,13754 10624,13756 10624,13758 10624,13759 10625,13760 10625,13760 10625,13761 10625,13763 10625,13765 10625,13766 10624,13767 10624,13769 10624,13770 10624,13771 10623,13772 10623,13773 10623,13774 10623,13774 10622,13775 10622,13775 10621,13776 10645,13791 10646,13789 10648,13786 10651,13783 10652,13781 10653,13780 10654,13779 10656,13777 10656,13777 10657,13776 10657,13775 10658,13775 10659,13774 10660,13773 10660,13773 10661,13772 10661,13771 10661,13771 10661,13770 10661,13769 10661,13769 10661,13769 10661,13769 10660,13768 10660,13768 10659,13767 10659,13766 10658,13765 10657,13765 10656,13764 10654,13764 10653,13764 10652,13763 10651,13763 10650,13762 10648,13762 10638,13758 10637,13758 10637,13758 10636,13757 10636,13757 10636,13757 10635,13756 10635,13756 10635,13756 10634,13755 10634,13755 10634,13754 10634,13754 10634,13753 10634,13753 10634,13751 10634,13750 10634,13750 10635,13749 10635,13749 10635,13749 10636,13748 10637,13748 10637,13747 10638,13747 10734,13745 10747,13746 10748,13747 10750,13749 10750,13750 10751,13751 10751,13752 10751,13752 10752,13753 10752,13753 10752,13754 10752,13754 10752,13755 10752,13755 10752,13756 10751,13756 10751,13757 10751,13757 10751,13758 10751,13758 10750,13759 10749,13759 10747,13762 10747,13763 10746,13763 10746,13763 10746,13764 10745,13764 10745,13765 10745,13766 10745,13767 10745,13768 10745,13769 10745,13769 10745,13769 10745,13769 10745,13770 10747,13770 10748,13771 10749,13772 10750,13773 10751,13774 10753,13775 10755,13777 10757,13779 10758,13780 10759,13781 10760,13782 10761,13783 10762,13786 10764,13789 10765,13790 10765,13792 10766,13793 10767,13795 10767,13796 10767,13796 10767,13797 10767,13797 10767,13797 10767,13797 10769,13797 10770,13797 10771,13797 10771,13798 10772,13798 10772,13798 10772,13798 10772,13798 10773,13798 10773,13799 10773,13799 10774,13799 10774,13800 10774,13801 10774,13802 10774,13802 10774,13842 10774,13843 10774,13844 10774,13844 10774,13845 10774,13845 10773,13845 10773,13846 10772,13847 10771,13847 10770,13847 10769,13847 10768,13847 10767,13847 10766,13847 10765,13846 10765,13846 10764,13846 10764,13846 10763,13846 10763,13846 10763,13845 10763,13845 10763,13845 10763,13845 10762,13845 10762,13845 10762,13846 10761,13848 10760,13849 10759,13851 10758,13853 10757,13855 10756,13856 10755,13858 10753,13860 10752,13861 10751,13863 10749,13865 10748,13866 10746,13867 10744,13869 10743,13870 10741,13871 10739,13873 10737,13874 10735,13875 10733,13876 10731,13877 10729,13878 10728,13879 10725,13880 10723,13881 10721,13881 10719,13882 10717,13882 10715,13882 10713,13883 10710,13883 10708,13883 10706,13883 10703,13883 10701,13883 10698,13883 10695,13882 10693,13882 10690,13881 10688,13881 10685,13880 10683,13879 10681,13878 10678,13877 10676,13876 10673,13875 10671,13874 10669,13872 10667,13871 10665,13870 10663,13868 10661,13866 10659,13865 10658,13863 10656,13861 10654,13859 10653,13857 10652,13855 10650,13852 10649,13850 10648,13848 10647,13845 10646,13843 10645,13840 10645,13837 10644,13836 10643,13835 10592,13855 Z"/>
        <path fill="rgb(255,255,255)" stroke="none" d="M 10375,13246 L 10376,13246 10378,13246 10379,13246 10381,13246 10382,13247 10383,13247 10385,13248 10386,13248 10387,13249 10388,13249 10390,13250 10391,13250 10392,13251 10393,13252 10394,13253 10395,13254 10396,13255 10397,13256 10398,13257 10399,13258 10399,13259 10400,13260 10400,13261 10401,13262 10402,13264 10402,13265 10402,13266 10403,13268 10403,13269 10403,13270 10403,13272 10403,13273 10403,13275 10403,13276 10403,13277 10403,13279 10403,13280 10402,13281 10402,13283 10401,13284 10401,13285 10400,13286 10399,13288 10399,13289 10398,13290 10397,13291 10396,13292 10395,13293 10394,13294 10393,13295 10392,13295 10391,13296 10389,13297 10388,13297 10387,13298 10386,13299 10384,13299 10383,13300 10382,13300 10380,13300 10379,13300 10378,13300 10376,13301 10375,13301 10373,13300 10372,13300 10370,13300 10369,13300 10368,13300 10366,13300 10365,13299 10364,13298 10363,13298 10361,13297 10360,13297 10359,13296 10358,13295 10357,13294 10356,13293 10355,13292 10354,13291 10353,13290 10353,13290 10352,13288 10351,13287 10350,13286 10350,13285 10349,13284 10349,13283 10348,13281 10348,13280 10348,13279 10347,13277 10347,13276 10347,13275 10347,13273 10347,13272 10347,13270 10348,13269 10348,13268 10348,13266 10348,13265 10349,13264 10349,13263 10350,13261 10350,13260 10351,13259 10352,13258 10353,13257 10353,13256 10354,13255 10355,13254 10356,13253 10357,13252 10358,13251 10359,13250 10361,13250 10362,13249 10363,13249 10364,13248 10365,13248 10367,13247 10368,13247 10369,13246 10371,13246 10372,13246 10373,13246 10375,13246 Z"/>
        <path fill="rgb(255,255,255)" stroke="none" d="M 10498,13273 L 10498,13335 10417,13335 10416,13335 10415,13335 10414,13335 10414,13335 10413,13335 10412,13335 10411,13335 10410,13334 10409,13334 10408,13333 10407,13333 10407,13332 10406,13331 10405,13331 10405,13330 10405,13329 10404,13328 10404,13327 10404,13326 10404,13326 10405,13325 10405,13324 10405,13322 10406,13321 10431,13279 10432,13278 10432,13277 10433,13277 10433,13276 10434,13275 10435,13275 10436,13274 10437,13274 10438,13273 10439,13273 10440,13273 10442,13273 10445,13273 10498,13273 Z"/>
        <path fill="rgb(255,255,255)" stroke="none" d="M 10505,13273 L 10602,13273 10602,13335 10505,13335 10505,13273 Z"/>
        <path fill="rgb(255,255,255)" stroke="none" d="M 10609,13273 L 10661,13273 10662,13273 10663,13273 10664,13273 10665,13273 10667,13273 10668,13274 10669,13274 10669,13274 10670,13274 10671,13274 10672,13275 10672,13275 10673,13276 10674,13277 10675,13278 10675,13280 10701,13321 10701,13322 10702,13323 10702,13324 10702,13324 10702,13325 10702,13326 10702,13327 10702,13328 10702,13329 10702,13330 10702,13330 10701,13331 10701,13332 10700,13332 10699,13333 10699,13334 10698,13334 10697,13335 10696,13335 10695,13335 10694,13335 10692,13335 10691,13335 10690,13335 10609,13335 10609,13273 Z"/>
        <path fill="rgb(255,255,255)" stroke="none" d="M 10731,13246 L 10733,13246 10734,13246 10736,13246 10737,13246 10738,13247 10740,13247 10741,13247 10742,13248 10743,13249 10745,13249 10746,13250 10747,13250 10748,13251 10749,13252 10750,13253 10751,13254 10752,13255 10753,13256 10754,13257 10755,13258 10755,13259 10756,13260 10757,13261 10757,13263 10758,13264 10758,13265 10758,13267 10759,13268 10759,13269 10759,13270 10759,13272 10759,13273 10759,13275 10759,13276 10759,13278 10759,13279 10758,13280 10758,13282 10758,13283 10757,13284 10756,13285 10756,13287 10755,13288 10754,13289 10753,13290 10753,13291 10752,13292 10751,13293 10750,13294 10749,13295 10748,13296 10747,13296 10745,13297 10744,13298 10743,13298 10742,13299 10740,13300 10739,13300 10738,13300 10736,13300 10735,13300 10733,13301 10732,13301 10730,13301 10729,13301 10728,13301 10726,13300 10725,13300 10723,13300 10722,13300 10721,13299 10720,13299 10718,13298 10717,13298 10716,13297 10715,13296 10714,13295 10713,13295 10712,13294 10711,13293 10710,13292 10709,13291 10708,13290 10707,13289 10707,13288 10706,13286 10705,13285 10705,13284 10704,13283 10704,13282 10703,13280 10703,13279 10703,13278 10702,13276 10702,13275 10702,13274 10702,13272 10702,13270 10703,13269 10703,13268 10703,13266 10704,13265 10704,13264 10705,13263 10705,13261 10706,13260 10707,13259 10708,13258 10708,13257 10709,13256 10710,13255 10711,13254 10712,13253 10713,13252 10714,13251 10715,13250 10716,13250 10718,13249 10719,13248 10720,13248 10722,13247 10723,13247 10724,13246 10726,13246 10727,13246 10728,13246 10730,13246 10731,13246 Z"/>
        <path fill="rgb(255,255,255)" stroke="none" d="M 10722,13227 L 10721,13227 10720,13227 10719,13227 10718,13227 10637,13221 10632,13220 10627,13220 10621,13220 10616,13220 10610,13219 10604,13219 10597,13219 10591,13219 10585,13219 10579,13219 10572,13219 10566,13219 10561,13219 10555,13219 10550,13219 10545,13219 10541,13219 10536,13219 10532,13219 10527,13219 10521,13219 10516,13219 10510,13219 10505,13219 10499,13219 10494,13220 10488,13220 10483,13220 10478,13220 10473,13220 10469,13220 10464,13220 10388,13225 10388,13225 10386,13225 10385,13225 10384,13225 10436,13159 10437,13158 10438,13157 10439,13156 10439,13156 10440,13155 10441,13155 10442,13155 10443,13154 10444,13154 10445,13154 10446,13154 10447,13154 10448,13154 10449,13154 10657,13154 10658,13154 10659,13154 10660,13154 10661,13154 10662,13154 10663,13154 10664,13155 10665,13155 10665,13155 10666,13156 10667,13156 10668,13157 10669,13158 10670,13159 10722,13227 Z"/>
        <path fill="rgb(255,255,255)" stroke="none" d="M 10479,13760 L 10440,13760 10440,13760 10440,13760 10440,13760 10440,13760 10440,13759 10440,13759 10441,13758 10442,13756 10443,13755 10444,13754 10445,13752 10447,13751 10447,13751 10448,13750 10449,13750 10449,13750 10450,13749 10451,13749 10453,13749 10454,13749 10455,13749 10456,13749 10458,13749 10459,13749 10461,13749 10462,13749 10463,13749 10465,13750 10466,13750 10468,13751 10470,13753 10472,13754 10474,13756 10476,13758 10477,13759 10479,13760 Z"/>
        <path fill="rgb(255,255,255)" stroke="none" d="M 10407,13815 L 10415,13804 10416,13805 10417,13806 10418,13807 10419,13808 10419,13810 10420,13811 10420,13812 10421,13813 10422,13815 10422,13816 10422,13817 10423,13818 10423,13820 10423,13821 10423,13822 10423,13823 10423,13825 10423,13826 10422,13827 10422,13829 10422,13830 10421,13831 10421,13832 10421,13833 10420,13835 10419,13835 10419,13837 10418,13838 10417,13839 10416,13840 10416,13841 10415,13841 10414,13843 10413,13844 10411,13844 10410,13845 10409,13846 10408,13846 10407,13847 10406,13848 10404,13848 10403,13848 10402,13849 10400,13849 10399,13849 10398,13849 10396,13849 10395,13849 10394,13849 10392,13849 10391,13849 10390,13849 10388,13849 10387,13848 10386,13848 10384,13847 10383,13847 10382,13846 10381,13845 10379,13845 10378,13844 10378,13843 10376,13842 10375,13841 10374,13840 10374,13839 10373,13838 10372,13837 10372,13836 10371,13835 10370,13834 10370,13833 10369,13832 10369,13830 10369,13829 10368,13828 10368,13827 10368,13826 10368,13825 10368,13823 10368,13822 10368,13820 10368,13819 10368,13818 10368,13817 10369,13815 10369,13814 10370,13813 10370,13812 10371,13810 10372,13810 10372,13808 10373,13807 10374,13806 10375,13805 10376,13804 10377,13803 10378,13802 10379,13802 10381,13801 10382,13800 10384,13800 10385,13800 10387,13799 10389,13798 10392,13798 10393,13798 10394,13798 10394,13810 10393,13810 10391,13810 10389,13811 10388,13811 10387,13812 10386,13813 10386,13813 10385,13813 10385,13814 10385,13814 10384,13815 10383,13816 10383,13817 10382,13818 10382,13820 10381,13820 10381,13822 10381,13823 10381,13825 10381,13826 10381,13827 10382,13829 10382,13829 10382,13830 10383,13830 10383,13831 10383,13832 10383,13832 10384,13833 10385,13833 10385,13834 10386,13834 10386,13835 10387,13835 10388,13835 10388,13836 10389,13836 10389,13836 10391,13837 10392,13837 10394,13837 10395,13837 10396,13837 10397,13837 10399,13837 10400,13837 10401,13837 10402,13836 10403,13836 10404,13835 10405,13835 10406,13834 10407,13833 10407,13832 10408,13831 10409,13830 10409,13829 10410,13827 10410,13826 10410,13824 10410,13823 10409,13821 10409,13818 10409,13816 10408,13815 10407,13815 Z"/>
        <path fill="rgb(255,255,255)" stroke="none" d="M 10501,13819 L 10484,13793 10484,13792 10484,13791 10483,13790 10483,13790 10483,13789 10483,13788 10483,13787 10483,13786 10483,13785 10483,13785 10483,13784 10484,13783 10484,13782 10484,13781 10485,13780 10485,13780 10486,13780 10486,13779 10487,13779 10487,13779 10488,13778 10489,13778 10490,13778 10490,13778 10491,13778 10491,13778 10492,13779 10493,13779 10494,13780 10495,13780 10495,13780 10496,13781 10497,13782 10497,13783 10498,13784 10499,13785 10500,13786 10500,13788 10500,13789 10501,13790 10502,13793 10502,13795 10502,13798 10503,13800 10502,13801 10502,13804 10502,13806 10502,13808 10501,13811 10501,13813 10501,13816 10501,13819 Z"/>
        <path fill="rgb(255,255,255)" stroke="none" d="M 10588,13826 L 10571,13825 10571,13823 10573,13821 10574,13818 10575,13816 10575,13815 10576,13815 10576,13814 10577,13813 10578,13812 10579,13810 10582,13807 10586,13804 10587,13802 10589,13801 10591,13800 10593,13799 10595,13797 10597,13796 10599,13795 10601,13794 10588,13826 Z"/>
        <path fill="rgb(255,255,255)" stroke="none" d="M 10692,13817 L 10692,13818 10691,13819 10691,13820 10691,13820 10691,13821 10690,13822 10690,13823 10690,13824 10690,13825 10691,13826 10691,13827 10691,13829 10692,13830 10692,13831 10693,13832 10694,13833 10695,13834 10696,13835 10697,13835 10699,13836 10700,13836 10701,13837 10703,13837 10704,13837 10705,13837 10706,13837 10708,13837 10708,13836 10709,13836 10710,13835 10711,13835 10712,13835 10713,13834 10714,13833 10714,13832 10715,13832 10716,13831 10716,13830 10717,13829 10717,13828 10729,13834 10728,13835 10727,13837 10726,13839 10724,13840 10723,13841 10722,13843 10720,13844 10719,13845 10717,13846 10716,13847 10714,13848 10712,13848 10710,13849 10708,13849 10706,13849 10704,13849 10703,13849 10701,13849 10700,13849 10699,13849 10697,13849 10696,13848 10695,13848 10694,13847 10692,13847 10692,13846 10690,13845 10689,13845 10688,13844 10687,13844 10686,13843 10685,13842 10684,13841 10684,13840 10683,13839 10682,13838 10682,13837 10681,13836 10680,13835 10680,13834 10679,13833 10679,13831 10678,13830 10678,13829 10678,13828 10678,13826 10678,13825 10678,13824 10678,13822 10678,13820 10678,13819 10678,13817 10679,13816 10679,13815 10680,13813 10681,13812 10692,13817 Z"/>
        <path fill="rgb(255,255,255)" stroke="none" d="M 10717,13819 L 10720,13818 10729,13816 10729,13814 10728,13812 10727,13810 10726,13809 10724,13807 10723,13805 10722,13804 10720,13803 10718,13802 10716,13801 10714,13800 10713,13799 10711,13799 10708,13798 10706,13798 10704,13798 10702,13798 10700,13798 10697,13799 10696,13799 10701,13810 10702,13810 10702,13810 10703,13810 10704,13810 10705,13810 10706,13810 10708,13811 10708,13811 10709,13811 10710,13812 10711,13812 10712,13813 10713,13813 10713,13814 10714,13815 10715,13815 10716,13816 10716,13817 10717,13818 10717,13819 Z"/>
       </g>
      </g>
     </g>
    </g>
   </g>
  </g>
 </g>
</svg>