<?xml version="1.0" encoding="UTF-8"?>
<!DOCTYPE svg PUBLIC "-//W3C//DTD SVG 1.1//EN" "http://www.w3.org/Graphics/SVG/1.1/DTD/svg11.dtd">
<svg version="1.2" width="50.03mm" height="35.25mm" viewBox="8046 13145 5003 3525" preserveAspectRatio="xMidYMid" fill-rule="evenodd" stroke-width="28.222" stroke-linejoin="round" xmlns="http://www.w3.org/2000/svg" xmlns:ooo="http://xml.openoffice.org/svg/export" xmlns:xlink="http://www.w3.org/1999/xlink" xmlns:presentation="http://sun.com/xmlns/staroffice/presentation" xmlns:smil="http://www.w3.org/2001/SMIL20/" xmlns:anim="urn:oasis:names:tc:opendocument:xmlns:animation:1.0" xml:space="preserve">
 <defs class="ClipPathGroup">
  <clipPath id="presentation_clip_path" clipPathUnits="userSpaceOnUse">
   <rect x="8046" y="13145" width="5003" height="3525"/>
  </clipPath>
  <clipPath id="presentation_clip_path_shrink" clipPathUnits="userSpaceOnUse">
   <rect x="8051" y="13148" width="4993" height="3518"/>
  </clipPath>
 </defs>
 <defs class="TextShapeIndex">
  <g ooo:slide="id1" ooo:id-list="id3"/>
 </defs>
 <defs class="EmbeddedBulletChars">
  <g id="bullet-char-template-57356" transform="scale(0.00048828125,-0.00048828125)">
   <path d="M 580,1141 L 1163,571 580,0 -4,571 580,1141 Z"/>
  </g>
  <g id="bullet-char-template-57354" transform="scale(0.00048828125,-0.00048828125)">
   <path d="M 8,1128 L 1137,1128 1137,0 8,0 8,1128 Z"/>
  </g>
  <g id="bullet-char-template-10146" transform="scale(0.00048828125,-0.00048828125)">
   <path d="M 174,0 L 602,739 174,1481 1456,739 174,0 Z M 1358,739 L 309,1346 659,739 1358,739 Z"/>
  </g>
  <g id="bullet-char-template-10132" transform="scale(0.00048828125,-0.00048828125)">
   <path d="M 2015,739 L 1276,0 717,0 1260,543 174,543 174,936 1260,936 717,1481 1274,1481 2015,739 Z"/>
  </g>
  <g id="bullet-char-template-10007" transform="scale(0.00048828125,-0.00048828125)">
   <path d="M 0,-2 C -7,14 -16,27 -25,37 L 356,567 C 262,823 215,952 215,954 215,979 228,992 255,992 264,992 276,990 289,987 310,991 331,999 354,1012 L 381,999 492,748 772,1049 836,1024 860,1049 C 881,1039 901,1025 922,1006 886,937 835,863 770,784 769,783 710,716 594,584 L 774,223 C 774,196 753,168 711,139 L 727,119 C 717,90 699,76 672,76 641,76 570,178 457,381 L 164,-76 C 142,-110 111,-127 72,-127 30,-127 9,-110 8,-76 1,-67 -2,-52 -2,-32 -2,-23 -1,-13 0,-2 Z"/>
  </g>
  <g id="bullet-char-template-10004" transform="scale(0.00048828125,-0.00048828125)">
   <path d="M 285,-33 C 182,-33 111,30 74,156 52,228 41,333 41,471 41,549 55,616 82,672 116,743 169,778 240,778 293,778 328,747 346,684 L 369,508 C 377,444 397,411 428,410 L 1163,1116 C 1174,1127 1196,1133 1229,1133 1271,1133 1292,1118 1292,1087 L 1292,965 C 1292,929 1282,901 1262,881 L 442,47 C 390,-6 338,-33 285,-33 Z"/>
  </g>
  <g id="bullet-char-template-9679" transform="scale(0.00048828125,-0.00048828125)">
   <path d="M 813,0 C 632,0 489,54 383,161 276,268 223,411 223,592 223,773 276,916 383,1023 489,1130 632,1184 813,1184 992,1184 1136,1130 1245,1023 1353,916 1407,772 1407,592 1407,412 1353,268 1245,161 1136,54 992,0 813,0 Z"/>
  </g>
  <g id="bullet-char-template-8226" transform="scale(0.00048828125,-0.00048828125)">
   <path d="M 346,457 C 273,457 209,483 155,535 101,586 74,649 74,723 74,796 101,859 155,911 209,963 273,989 346,989 419,989 480,963 531,910 582,859 608,796 608,723 608,648 583,586 532,535 482,483 420,457 346,457 Z"/>
  </g>
  <g id="bullet-char-template-8211" transform="scale(0.00048828125,-0.00048828125)">
   <path d="M -4,459 L 1135,459 1135,606 -4,606 -4,459 Z"/>
  </g>
  <g id="bullet-char-template-61548" transform="scale(0.00048828125,-0.00048828125)">
   <path d="M 173,740 C 173,903 231,1043 346,1159 462,1274 601,1332 765,1332 928,1332 1067,1274 1183,1159 1299,1043 1357,903 1357,740 1357,577 1299,437 1183,322 1067,206 928,148 765,148 601,148 462,206 346,322 231,437 173,577 173,740 Z"/>
  </g>
 </defs>
 <defs class="TextEmbeddedBitmaps"/>
 <g class="SlideGroup">
  <g>
   <g id="container-id1">
    <g id="id1" class="Slide" clip-path="url(#presentation_clip_path)">
     <g class="Page">
      <g class="Graphic">
       <g id="id3">
        <rect class="BoundingBox" stroke="none" fill="none" x="8046" y="13145" width="5004" height="3526"/>
        <path fill="rgb(255,255,255)" stroke="none" d="M 8665,15176 L 10324,15176 10324,14757 8665,14757 8665,15176 Z"/>
        <path fill="rgb(255,255,255)" stroke="none" d="M 10857,15176 L 12517,15176 12517,14755 10857,14755 10857,15176 Z"/>
        <path fill="none" stroke="rgb(51,78,88)" stroke-width="0" stroke-linejoin="round" stroke-linecap="round" d="M 8050,16072 L 8050,14941"/>
        <path fill="none" stroke="rgb(51,78,88)" stroke-width="0" stroke-linejoin="round" stroke-linecap="round" d="M 8423,14566 L 8372,14570 8318,14580 8268,14599 8222,14625 8180,14658 8140,14695 8109,14738 8083,14786 8064,14836 8054,14888 8050,14941"/>
        <path fill="none" stroke="rgb(51,78,88)" stroke-width="0" stroke-linejoin="round" stroke-linecap="round" d="M 8423,14566 L 12671,14566"/>
        <path fill="none" stroke="rgb(51,78,88)" stroke-width="0" stroke-linejoin="round" stroke-linecap="round" d="M 13046,14941 L 13042,14888 13032,14836 13011,14786 12987,14738 12954,14696 12917,14658 12874,14625 12826,14599 12776,14580 12724,14570 12671,14566"/>
        <path fill="none" stroke="rgb(51,78,88)" stroke-width="0" stroke-linejoin="round" stroke-linecap="round" d="M 13046,14941 L 13046,16072"/>
        <path fill="none" stroke="rgb(51,78,88)" stroke-width="0" stroke-linejoin="round" stroke-linecap="round" d="M 13009,16072 L 13009,16667"/>
        <path fill="none" stroke="rgb(51,78,88)" stroke-width="0" stroke-linejoin="round" stroke-linecap="round" d="M 13046,16072 L 13046,16667"/>
        <path fill="none" stroke="rgb(51,78,88)" stroke-width="0" stroke-linejoin="round" stroke-linecap="round" d="M 13009,16072 L 13009,14941 13007,14893 12996,14845 12980,14801 12956,14758 12928,14719 12893,14684 12854,14655 12811,14632 12767,14616 12719,14605 12671,14601 8423,14601 8375,14605 8329,14616 8283,14632 8241,14655 8201,14684 8168,14719 8139,14758 8114,14801 8098,14845 8089,14893 8085,14941"/>
        <path fill="none" stroke="rgb(51,78,88)" stroke-width="0" stroke-linejoin="round" stroke-linecap="round" d="M 13009,16091 L 8085,16091"/>
        <path fill="none" stroke="rgb(51,78,88)" stroke-width="0" stroke-linejoin="round" stroke-linecap="round" d="M 13009,16054 L 8085,16054"/>
        <path fill="none" stroke="rgb(51,78,88)" stroke-width="0" stroke-linejoin="round" stroke-linecap="round" d="M 8050,16072 L 8050,16667"/>
        <path fill="none" stroke="rgb(51,78,88)" stroke-width="0" stroke-linejoin="round" stroke-linecap="round" d="M 8085,16667 L 8085,16072 8085,14941"/>
        <path fill="none" stroke="rgb(51,78,88)" stroke-width="0" stroke-linejoin="round" stroke-linecap="round" d="M 8442,14601 L 8442,16054"/>
        <path fill="none" stroke="rgb(51,78,88)" stroke-width="0" stroke-linejoin="round" stroke-linecap="round" d="M 8678,14601 L 8678,16054"/>
        <path fill="none" stroke="rgb(51,78,88)" stroke-width="0" stroke-linejoin="round" stroke-linecap="round" d="M 8641,14601 L 8641,16054"/>
        <path fill="none" stroke="rgb(51,78,88)" stroke-width="0" stroke-linejoin="round" stroke-linecap="round" d="M 8913,14601 L 8913,16054"/>
        <path fill="none" stroke="rgb(51,78,88)" stroke-width="0" stroke-linejoin="round" stroke-linecap="round" d="M 8878,14601 L 8878,16054"/>
        <path fill="none" stroke="rgb(51,78,88)" stroke-width="0" stroke-linejoin="round" stroke-linecap="round" d="M 9857,14601 L 9857,16054"/>
        <path fill="none" stroke="rgb(51,78,88)" stroke-width="0" stroke-linejoin="round" stroke-linecap="round" d="M 9822,14601 L 9822,16054"/>
        <path fill="none" stroke="rgb(51,78,88)" stroke-width="0" stroke-linejoin="round" stroke-linecap="round" d="M 10094,14601 L 10094,16054"/>
        <path fill="none" stroke="rgb(51,78,88)" stroke-width="0" stroke-linejoin="round" stroke-linecap="round" d="M 10057,14601 L 10057,16054"/>
        <path fill="none" stroke="rgb(51,78,88)" stroke-width="0" stroke-linejoin="round" stroke-linecap="round" d="M 10329,14601 L 10329,16054"/>
        <path fill="none" stroke="rgb(51,78,88)" stroke-width="0" stroke-linejoin="round" stroke-linecap="round" d="M 10294,14601 L 10294,16054"/>
        <path fill="none" stroke="rgb(51,78,88)" stroke-width="0" stroke-linejoin="round" stroke-linecap="round" d="M 10566,14601 L 10566,16054"/>
        <path fill="none" stroke="rgb(51,78,88)" stroke-width="0" stroke-linejoin="round" stroke-linecap="round" d="M 10529,14601 L 10529,16054"/>
        <path fill="none" stroke="rgb(51,78,88)" stroke-width="0" stroke-linejoin="round" stroke-linecap="round" d="M 10800,14601 L 10800,16054"/>
        <path fill="none" stroke="rgb(51,78,88)" stroke-width="0" stroke-linejoin="round" stroke-linecap="round" d="M 10765,14601 L 10765,16054"/>
        <path fill="none" stroke="rgb(51,78,88)" stroke-width="0" stroke-linejoin="round" stroke-linecap="round" d="M 11037,14601 L 11037,16054"/>
        <path fill="none" stroke="rgb(51,78,88)" stroke-width="0" stroke-linejoin="round" stroke-linecap="round" d="M 11002,14601 L 11002,16054"/>
        <path fill="none" stroke="rgb(51,78,88)" stroke-width="0" stroke-linejoin="round" stroke-linecap="round" d="M 11274,14601 L 11274,16054"/>
        <path fill="none" stroke="rgb(51,78,88)" stroke-width="0" stroke-linejoin="round" stroke-linecap="round" d="M 11237,14601 L 11237,16054"/>
        <path fill="none" stroke="rgb(51,78,88)" stroke-width="0" stroke-linejoin="round" stroke-linecap="round" d="M 11508,14601 L 11508,14758"/>
        <path fill="none" stroke="rgb(51,78,88)" stroke-width="0" stroke-linejoin="round" stroke-linecap="round" d="M 11473,14601 L 11473,14758"/>
        <path fill="none" stroke="rgb(51,78,88)" stroke-width="0" stroke-linejoin="round" stroke-linecap="round" d="M 12216,14601 L 12216,16054"/>
        <path fill="none" stroke="rgb(51,78,88)" stroke-width="0" stroke-linejoin="round" stroke-linecap="round" d="M 12181,14601 L 12181,16054"/>
        <path fill="none" stroke="rgb(51,78,88)" stroke-width="0" stroke-linejoin="round" stroke-linecap="round" d="M 12453,14601 L 12453,16054"/>
        <path fill="none" stroke="rgb(51,78,88)" stroke-width="0" stroke-linejoin="round" stroke-linecap="round" d="M 12418,14601 L 12418,16054"/>
        <path fill="none" stroke="rgb(51,78,88)" stroke-width="0" stroke-linejoin="round" stroke-linecap="round" d="M 12689,14601 L 12689,16054"/>
        <path fill="none" stroke="rgb(51,78,88)" stroke-width="0" stroke-linejoin="round" stroke-linecap="round" d="M 12652,14601 L 12652,16054"/>
        <path fill="none" stroke="rgb(51,78,88)" stroke-width="0" stroke-linejoin="round" stroke-linecap="round" d="M 13046,16667 L 13009,16667"/>
        <path fill="none" stroke="rgb(51,78,88)" stroke-width="0" stroke-linejoin="round" stroke-linecap="round" d="M 8085,16667 L 8050,16667"/>
        <path fill="rgb(38,46,52)" stroke="none" d="M 13046,16072 L 13009,16667 13046,16667 13046,16072 Z"/>
        <path fill="rgb(38,46,52)" stroke="none" d="M 8085,16072 L 8050,16667 8085,16667 8085,16072 Z"/>
        <path fill="rgb(38,46,52)" stroke="none" d="M 13009,16072 L 13009,16667 13046,16072 13009,16072 Z"/>
        <path fill="rgb(38,46,52)" stroke="none" d="M 8050,16072 L 8050,16667 8085,16072 8050,16072 Z"/>
        <path fill="rgb(38,46,52)" stroke="none" d="M 8085,14941 L 8050,16072 8085,16072 8085,14941 Z"/>
        <path fill="rgb(38,46,52)" stroke="none" d="M 13046,14941 L 13009,16072 13046,16072 13046,14941 Z"/>
        <path fill="rgb(38,46,52)" stroke="none" d="M 8050,14941 L 8050,16072 8085,14941 8050,14941 Z"/>
        <path fill="rgb(38,46,52)" stroke="none" d="M 13009,14941 L 13009,16072 13046,14941 13009,14941 Z"/>
        <path fill="rgb(38,46,52)" stroke="none" d="M 8089,14893 L 8050,14941 8085,14941 8089,14893 Z"/>
        <path fill="rgb(38,46,52)" stroke="none" d="M 13007,14893 L 13009,14941 13046,14941 13007,14893 Z"/>
        <path fill="rgb(38,46,52)" stroke="none" d="M 13042,14888 L 13007,14893 13046,14941 13042,14888 Z"/>
        <path fill="rgb(38,46,52)" stroke="none" d="M 8054,14888 L 8050,14941 8089,14893 8054,14888 Z"/>
        <path fill="rgb(38,46,52)" stroke="none" d="M 12996,14845 L 13007,14893 13042,14888 12996,14845 Z"/>
        <path fill="rgb(38,46,52)" stroke="none" d="M 8098,14845 L 8054,14888 8089,14893 8098,14845 Z"/>
        <path fill="rgb(38,46,52)" stroke="none" d="M 13032,14836 L 12996,14845 13042,14888 13032,14836 Z"/>
        <path fill="rgb(38,46,52)" stroke="none" d="M 8064,14836 L 8054,14888 8098,14845 8064,14836 Z"/>
        <path fill="rgb(38,46,52)" stroke="none" d="M 8114,14801 L 8064,14836 8098,14845 8114,14801 Z"/>
        <path fill="rgb(38,46,52)" stroke="none" d="M 12980,14801 L 12996,14845 13032,14836 12980,14801 Z"/>
        <path fill="rgb(38,46,52)" stroke="none" d="M 13011,14786 L 12980,14801 13032,14836 13011,14786 Z"/>
        <path fill="rgb(38,46,52)" stroke="none" d="M 8083,14786 L 8064,14836 8114,14801 8083,14786 Z"/>
        <path fill="rgb(38,46,52)" stroke="none" d="M 8139,14758 L 8083,14786 8114,14801 8139,14758 Z"/>
        <path fill="rgb(38,46,52)" stroke="none" d="M 12956,14758 L 12980,14801 13011,14786 12956,14758 Z"/>
        <path fill="rgb(38,46,52)" stroke="none" d="M 12987,14738 L 12956,14758 13011,14786 12987,14738 Z"/>
        <path fill="rgb(38,46,52)" stroke="none" d="M 8109,14738 L 8083,14786 8139,14758 8109,14738 Z"/>
        <path fill="rgb(38,46,52)" stroke="none" d="M 12928,14719 L 12956,14758 12987,14738 12928,14719 Z"/>
        <path fill="rgb(38,46,52)" stroke="none" d="M 8168,14719 L 8109,14738 8139,14758 8168,14719 Z"/>
        <path fill="rgb(38,46,52)" stroke="none" d="M 12954,14695 L 12928,14719 12987,14738 12954,14696 12954,14695 Z"/>
        <path fill="rgb(38,46,52)" stroke="none" d="M 8140,14695 L 8109,14738 8168,14719 8140,14695 Z"/>
        <path fill="rgb(38,46,52)" stroke="none" d="M 12893,14684 L 12928,14719 12954,14695 12893,14684 Z"/>
        <path fill="rgb(38,46,52)" stroke="none" d="M 8201,14684 L 8140,14695 8168,14719 8201,14684 Z"/>
        <path fill="rgb(38,46,52)" stroke="none" d="M 12917,14658 L 12893,14684 12954,14695 12917,14658 Z"/>
        <path fill="rgb(38,46,52)" stroke="none" d="M 8180,14658 L 8140,14695 8201,14684 8180,14658 Z"/>
        <path fill="rgb(38,46,52)" stroke="none" d="M 12854,14655 L 12893,14684 12917,14658 12854,14655 Z"/>
        <path fill="rgb(38,46,52)" stroke="none" d="M 8241,14655 L 8180,14658 8201,14684 8241,14655 Z"/>
        <path fill="rgb(38,46,52)" stroke="none" d="M 12811,14632 L 12854,14655 12917,14658 12811,14632 Z"/>
        <path fill="rgb(38,46,52)" stroke="none" d="M 8283,14632 L 8180,14658 8241,14655 8283,14632 Z"/>
        <path fill="rgb(38,46,52)" stroke="none" d="M 12874,14625 L 12811,14632 12917,14658 12874,14625 Z"/>
        <path fill="rgb(38,46,52)" stroke="none" d="M 8222,14625 L 8180,14658 8283,14632 8222,14625 Z"/>
        <path fill="rgb(38,46,52)" stroke="none" d="M 8329,14616 L 8222,14625 8283,14632 8329,14616 Z"/>
        <path fill="rgb(38,46,52)" stroke="none" d="M 12767,14616 L 12811,14632 12874,14625 12767,14616 Z"/>
        <path fill="rgb(38,46,52)" stroke="none" d="M 8375,14605 L 8222,14625 8329,14616 8375,14605 Z"/>
        <path fill="rgb(38,46,52)" stroke="none" d="M 12719,14605 L 12767,14616 12874,14625 12719,14605 Z"/>
        <path fill="rgb(38,46,52)" stroke="none" d="M 12826,14599 L 8423,14601 12671,14601 12826,14599 Z"/>
        <path fill="rgb(38,46,52)" stroke="none" d="M 12826,14599 L 12671,14601 12719,14605 12826,14599 Z"/>
        <path fill="rgb(38,46,52)" stroke="none" d="M 12826,14599 L 12719,14605 12874,14625 12826,14599 Z"/>
        <path fill="rgb(38,46,52)" stroke="none" d="M 8268,14599 L 8423,14601 12826,14599 8268,14599 Z"/>
        <path fill="rgb(38,46,52)" stroke="none" d="M 8268,14599 L 8375,14605 8423,14601 8268,14599 Z"/>
        <path fill="rgb(38,46,52)" stroke="none" d="M 8268,14599 L 8222,14625 8375,14605 8268,14599 Z"/>
        <path fill="rgb(38,46,52)" stroke="none" d="M 12776,14580 L 8268,14599 12826,14599 12776,14580 Z"/>
        <path fill="rgb(38,46,52)" stroke="none" d="M 8318,14580 L 8268,14599 12776,14580 8318,14580 Z"/>
        <path fill="rgb(38,46,52)" stroke="none" d="M 12724,14570 L 8318,14580 12776,14580 12724,14570 Z"/>
        <path fill="rgb(38,46,52)" stroke="none" d="M 8372,14570 L 8318,14580 12724,14570 8372,14570 Z"/>
        <path fill="rgb(38,46,52)" stroke="none" d="M 8372,14570 L 12671,14566 8423,14566 8372,14570 Z"/>
        <path fill="rgb(38,46,52)" stroke="none" d="M 12671,14566 L 8372,14570 12724,14570 12671,14566 Z"/>
        <path fill="rgb(38,46,52)" stroke="none" d="M 13009,16072 L 8085,16091 13009,16091 13009,16072 Z"/>
        <path fill="rgb(38,46,52)" stroke="none" d="M 8085,16072 L 8085,16091 13009,16072 8085,16072 Z"/>
        <path fill="rgb(38,46,52)" stroke="none" d="M 8442,16054 L 8085,16072 13009,16072 8442,16054 Z"/>
        <path fill="rgb(38,46,52)" stroke="none" d="M 10566,16054 L 8442,16054 13009,16072 10566,16054 Z"/>
        <path fill="rgb(38,46,52)" stroke="none" d="M 9386,16054 L 8442,16054 10566,16054 9386,16054 Z"/>
        <path fill="rgb(38,46,52)" stroke="none" d="M 8913,16054 L 8442,16054 9386,16054 8913,16054 Z"/>
        <path fill="rgb(38,46,52)" stroke="none" d="M 12689,16054 L 10566,16054 13009,16072 12689,16054 Z"/>
        <path fill="rgb(38,46,52)" stroke="none" d="M 10529,16054 L 9386,16054 10566,16054 10529,16054 Z"/>
        <path fill="rgb(38,46,52)" stroke="none" d="M 12652,16054 L 10566,16054 12689,16054 12652,16054 Z"/>
        <path fill="rgb(38,46,52)" stroke="none" d="M 9349,16054 L 8913,16054 9386,16054 9349,16054 Z"/>
        <path fill="rgb(38,46,52)" stroke="none" d="M 8878,16054 L 8442,16054 8913,16054 8878,16054 Z"/>
        <path fill="rgb(38,46,52)" stroke="none" d="M 8407,16054 L 8085,16072 8442,16054 8407,16054 Z"/>
        <path fill="rgb(38,46,52)" stroke="none" d="M 9150,16054 L 8913,16054 9349,16054 9150,16054 Z"/>
        <path fill="rgb(38,46,52)" stroke="none" d="M 8913,16054 L 9150,16054 9114,16054 8913,16054 Z"/>
        <path fill="rgb(38,46,52)" stroke="none" d="M 11473,16054 L 10566,16054 12652,16054 11473,16054 Z"/>
        <path fill="rgb(38,46,52)" stroke="none" d="M 11037,16054 L 10566,16054 11473,16054 11037,16054 Z"/>
        <path fill="rgb(38,46,52)" stroke="none" d="M 10566,16054 L 11037,16054 11002,16054 10566,16054 Z"/>
        <path fill="rgb(38,46,52)" stroke="none" d="M 12181,16054 L 11473,16054 12652,16054 12181,16054 Z"/>
        <path fill="rgb(38,46,52)" stroke="none" d="M 9621,16054 L 9386,16054 10529,16054 9621,16054 Z"/>
        <path fill="rgb(38,46,52)" stroke="none" d="M 9386,16054 L 9621,16054 9586,16054 9386,16054 Z"/>
        <path fill="rgb(38,46,52)" stroke="none" d="M 11745,16054 L 11473,16054 12181,16054 11745,16054 Z"/>
        <path fill="rgb(38,46,52)" stroke="none" d="M 11473,16054 L 11745,16054 11710,16054 11473,16054 Z"/>
        <path fill="rgb(38,46,52)" stroke="none" d="M 10057,16054 L 9621,16054 10529,16054 10057,16054 Z"/>
        <path fill="rgb(38,46,52)" stroke="none" d="M 13009,16054 L 12689,16054 13009,16072 13009,16054 Z"/>
        <path fill="rgb(38,46,52)" stroke="none" d="M 12216,16054 L 12181,16054 12652,16054 12216,16054 Z"/>
        <path fill="rgb(38,46,52)" stroke="none" d="M 11508,16054 L 11473,16054 11710,16054 11508,16054 Z"/>
        <path fill="rgb(38,46,52)" stroke="none" d="M 10094,16054 L 10057,16054 10529,16054 10094,16054 Z"/>
        <path fill="rgb(38,46,52)" stroke="none" d="M 12418,16054 L 12216,16054 12652,16054 12418,16054 Z"/>
        <path fill="rgb(38,46,52)" stroke="none" d="M 12652,16054 L 12453,16054 12418,16054 12652,16054 Z"/>
        <path fill="rgb(38,46,52)" stroke="none" d="M 8678,16054 L 8442,16054 8878,16054 8678,16054 Z"/>
        <path fill="rgb(38,46,52)" stroke="none" d="M 8442,16054 L 8678,16054 8641,16054 8442,16054 Z"/>
        <path fill="rgb(38,46,52)" stroke="none" d="M 11944,16054 L 11745,16054 12181,16054 11944,16054 Z"/>
        <path fill="rgb(38,46,52)" stroke="none" d="M 12181,16054 L 11982,16054 11944,16054 12181,16054 Z"/>
        <path fill="rgb(38,46,52)" stroke="none" d="M 10294,16054 L 10094,16054 10529,16054 10294,16054 Z"/>
        <path fill="rgb(38,46,52)" stroke="none" d="M 10529,16054 L 10329,16054 10294,16054 10529,16054 Z"/>
        <path fill="rgb(38,46,52)" stroke="none" d="M 11237,16054 L 11037,16054 11473,16054 11237,16054 Z"/>
        <path fill="rgb(38,46,52)" stroke="none" d="M 11473,16054 L 11274,16054 11237,16054 11473,16054 Z"/>
        <path fill="rgb(38,46,52)" stroke="none" d="M 10800,16054 L 10566,16054 11002,16054 10800,16054 Z"/>
        <path fill="rgb(38,46,52)" stroke="none" d="M 10566,16054 L 10800,16054 10765,16054 10566,16054 Z"/>
        <path fill="rgb(38,46,52)" stroke="none" d="M 9822,16054 L 9621,16054 10057,16054 9822,16054 Z"/>
        <path fill="rgb(38,46,52)" stroke="none" d="M 8085,16054 L 8085,16072 8407,16054 8085,16054 Z"/>
        <path fill="rgb(38,46,52)" stroke="none" d="M 8442,14601 L 8423,14601 8442,16054 8442,14601 Z"/>
        <path fill="rgb(38,46,52)" stroke="none" d="M 8416,14601 L 8442,16054 8423,14601 8416,14601 Z"/>
        <path fill="rgb(38,46,52)" stroke="none" d="M 8442,16054 L 8416,14601 8407,16054 8442,16054 Z"/>
        <path fill="rgb(38,46,52)" stroke="none" d="M 8407,14603 L 8407,16054 8416,14601 8407,14603 Z"/>
        <path fill="none" stroke="rgb(51,78,88)" stroke-width="0" stroke-linejoin="round" stroke-linecap="round" d="M 8407,14601 L 8407,16054"/>
        <path fill="none" stroke="rgb(51,78,88)" stroke-width="0" stroke-linejoin="round" stroke-linecap="round" d="M 10360,14758 L 8377,14758"/>
        <path fill="none" stroke="rgb(51,78,88)" stroke-width="0" stroke-linejoin="round" stroke-linecap="round" d="M 9699,14758 L 9699,14756"/>
        <path fill="none" stroke="rgb(51,78,88)" stroke-width="0" stroke-linejoin="round" stroke-linecap="round" d="M 9039,14758 L 9039,15174"/>
        <path fill="none" stroke="rgb(51,78,88)" stroke-width="0" stroke-linejoin="round" stroke-linecap="round" d="M 9699,14758 L 9699,15174"/>
        <path fill="rgb(213,51,42)" stroke="none" d="M 8708,14965 L 9039,14758 8377,14758 8708,14965 Z"/>
        <path fill="rgb(213,51,42)" stroke="none" d="M 8708,14965 L 8377,14758 8377,15174 8708,14965 Z"/>
        <path fill="rgb(213,51,42)" stroke="none" d="M 8708,14965 L 8377,15174 9039,15174 8708,14965 Z"/>
        <path fill="rgb(213,51,42)" stroke="none" d="M 8708,14965 L 9039,15174 9039,14758 8708,14965 Z"/>
        <path fill="rgb(213,51,42)" stroke="none" d="M 10030,14965 L 10360,14758 9699,14758 10030,14965 Z"/>
        <path fill="rgb(213,51,42)" stroke="none" d="M 10030,14965 L 9699,14758 9699,15174 10030,14965 Z"/>
        <path fill="rgb(213,51,42)" stroke="none" d="M 10030,14965 L 9699,15174 10360,15174 10030,14965 Z"/>
        <path fill="rgb(213,51,42)" stroke="none" d="M 10030,14965 L 10360,15174 10360,14758 10030,14965 Z"/>
        <path fill="none" stroke="rgb(51,78,88)" stroke-width="0" stroke-linejoin="round" stroke-linecap="round" d="M 8377,14758 L 10360,14758"/>
        <path fill="none" stroke="rgb(51,78,88)" stroke-width="0" stroke-linejoin="round" stroke-linecap="round" d="M 12059,14758 L 12059,14756"/>
        <path fill="none" stroke="rgb(51,78,88)" stroke-width="0" stroke-linejoin="round" stroke-linecap="round" d="M 11397,14758 L 11397,15174"/>
        <path fill="none" stroke="rgb(51,78,88)" stroke-width="0" stroke-linejoin="round" stroke-linecap="round" d="M 12059,14758 L 12059,15174"/>
        <path fill="rgb(213,51,42)" stroke="none" d="M 11067,14965 L 11397,14758 10736,14758 11067,14965 Z"/>
        <path fill="rgb(213,51,42)" stroke="none" d="M 11067,14965 L 10736,14758 10736,15174 11067,14965 Z"/>
        <path fill="rgb(213,51,42)" stroke="none" d="M 11067,14965 L 10736,15174 11397,15174 11067,14965 Z"/>
        <path fill="rgb(213,51,42)" stroke="none" d="M 11067,14965 L 11397,15174 11397,14758 11067,14965 Z"/>
        <path fill="rgb(213,51,42)" stroke="none" d="M 12390,14965 L 12721,14758 12059,14758 12390,14965 Z"/>
        <path fill="rgb(213,51,42)" stroke="none" d="M 12390,14965 L 12059,14758 12059,15174 12390,14965 Z"/>
        <path fill="rgb(213,51,42)" stroke="none" d="M 12390,14965 L 12059,15174 12721,15174 12390,14965 12390,14965 Z"/>
        <path fill="rgb(213,51,42)" stroke="none" d="M 12390,14965 L 12721,15174 12721,14758 12390,14965 Z"/>
        <path fill="none" stroke="rgb(51,78,88)" stroke-width="0" stroke-linejoin="round" stroke-linecap="round" d="M 11508,15174 L 11508,16054"/>
        <path fill="none" stroke="rgb(51,78,88)" stroke-width="0" stroke-linejoin="round" stroke-linecap="round" d="M 11473,15174 L 11473,16054"/>
        <path fill="none" stroke="rgb(51,78,88)" stroke-width="0" stroke-linejoin="round" stroke-linecap="round" d="M 11745,14601 L 11745,14758"/>
        <path fill="none" stroke="rgb(51,78,88)" stroke-width="0" stroke-linejoin="round" stroke-linecap="round" d="M 11710,14601 L 11710,14758"/>
        <path fill="none" stroke="rgb(51,78,88)" stroke-width="0" stroke-linejoin="round" stroke-linecap="round" d="M 11745,15174 L 11745,16054"/>
        <path fill="none" stroke="rgb(51,78,88)" stroke-width="0" stroke-linejoin="round" stroke-linecap="round" d="M 11710,15174 L 11710,16054"/>
        <path fill="none" stroke="rgb(51,78,88)" stroke-width="0" stroke-linejoin="round" stroke-linecap="round" d="M 11982,14601 L 11982,14758"/>
        <path fill="none" stroke="rgb(51,78,88)" stroke-width="0" stroke-linejoin="round" stroke-linecap="round" d="M 11944,14601 L 11944,14758"/>
        <path fill="none" stroke="rgb(51,78,88)" stroke-width="0" stroke-linejoin="round" stroke-linecap="round" d="M 11982,15174 L 11982,16054"/>
        <path fill="none" stroke="rgb(51,78,88)" stroke-width="0" stroke-linejoin="round" stroke-linecap="round" d="M 11944,15174 L 11944,16054"/>
        <path fill="none" stroke="rgb(51,78,88)" stroke-width="0" stroke-linejoin="round" stroke-linecap="round" d="M 9150,14601 L 9150,14758"/>
        <path fill="none" stroke="rgb(51,78,88)" stroke-width="0" stroke-linejoin="round" stroke-linecap="round" d="M 9114,14601 L 9114,14758"/>
        <path fill="none" stroke="rgb(51,78,88)" stroke-width="0" stroke-linejoin="round" stroke-linecap="round" d="M 9150,15174 L 9150,16054"/>
        <path fill="none" stroke="rgb(51,78,88)" stroke-width="0" stroke-linejoin="round" stroke-linecap="round" d="M 9114,15174 L 9114,16054"/>
        <path fill="none" stroke="rgb(51,78,88)" stroke-width="0" stroke-linejoin="round" stroke-linecap="round" d="M 9386,14601 L 9386,14758"/>
        <path fill="none" stroke="rgb(51,78,88)" stroke-width="0" stroke-linejoin="round" stroke-linecap="round" d="M 9349,14601 L 9349,14758"/>
        <path fill="none" stroke="rgb(51,78,88)" stroke-width="0" stroke-linejoin="round" stroke-linecap="round" d="M 9386,15174 L 9386,16054"/>
        <path fill="none" stroke="rgb(51,78,88)" stroke-width="0" stroke-linejoin="round" stroke-linecap="round" d="M 9349,15174 L 9349,16054"/>
        <path fill="none" stroke="rgb(51,78,88)" stroke-width="0" stroke-linejoin="round" stroke-linecap="round" d="M 9621,14601 L 9621,14758"/>
        <path fill="none" stroke="rgb(51,78,88)" stroke-width="0" stroke-linejoin="round" stroke-linecap="round" d="M 9586,14601 L 9586,14758"/>
        <path fill="none" stroke="rgb(51,78,88)" stroke-width="0" stroke-linejoin="round" stroke-linecap="round" d="M 9621,15174 L 9621,16054"/>
        <path fill="none" stroke="rgb(51,78,88)" stroke-width="0" stroke-linejoin="round" stroke-linecap="round" d="M 9586,15174 L 9586,16054"/>
        <path fill="rgb(38,46,52)" stroke="none" d="M 9349,16054 L 9386,15174 9349,15174 9349,16054 Z"/>
        <path fill="rgb(38,46,52)" stroke="none" d="M 9386,15174 L 9349,16054 9386,16054 9386,15174 Z"/>
        <path fill="rgb(38,46,52)" stroke="none" d="M 9150,16054 L 9150,15174 9114,15174 9150,16054 Z"/>
        <path fill="rgb(38,46,52)" stroke="none" d="M 9114,15174 L 9114,16054 9150,16054 9114,15174 Z"/>
        <path fill="rgb(38,46,52)" stroke="none" d="M 9621,15174 L 9586,16054 9621,16054 9621,15174 Z"/>
        <path fill="rgb(38,46,52)" stroke="none" d="M 9586,15174 L 9586,16054 9621,15174 9586,15174 Z"/>
        <path fill="rgb(38,46,52)" stroke="none" d="M 9349,14601 L 9349,14758 9386,14758 9349,14601 Z"/>
        <path fill="rgb(38,46,52)" stroke="none" d="M 9386,14601 L 9349,14601 9386,14758 9386,14601 Z"/>
        <path fill="rgb(38,46,52)" stroke="none" d="M 9150,14758 L 9150,14601 9114,14601 9150,14758 Z"/>
        <path fill="rgb(38,46,52)" stroke="none" d="M 9114,14601 L 9114,14758 9150,14758 9114,14601 Z"/>
        <path fill="rgb(38,46,52)" stroke="none" d="M 9586,14601 L 9586,14758 9621,14758 9586,14601 Z"/>
        <path fill="rgb(38,46,52)" stroke="none" d="M 9621,14601 L 9586,14601 9621,14758 9621,14601 Z"/>
        <path fill="rgb(38,46,52)" stroke="none" d="M 11944,15174 L 11944,16054 11982,16054 11944,15174 Z"/>
        <path fill="rgb(38,46,52)" stroke="none" d="M 11982,15174 L 11944,15174 11982,16054 11982,15174 Z"/>
        <path fill="rgb(38,46,52)" stroke="none" d="M 11745,16054 L 11745,15174 11710,15174 11745,16054 Z"/>
        <path fill="rgb(38,46,52)" stroke="none" d="M 11710,15174 L 11710,16054 11745,16054 11710,15174 Z"/>
        <path fill="rgb(38,46,52)" stroke="none" d="M 11508,15174 L 11473,16054 11508,16054 11508,15174 Z"/>
        <path fill="rgb(38,46,52)" stroke="none" d="M 11473,15174 L 11473,16054 11508,15174 11473,15174 Z"/>
        <path fill="rgb(38,46,52)" stroke="none" d="M 11508,14601 L 11473,14758 11508,14758 11508,14601 Z"/>
        <path fill="rgb(38,46,52)" stroke="none" d="M 11473,14601 L 11473,14758 11508,14601 11473,14601 Z"/>
        <path fill="rgb(38,46,52)" stroke="none" d="M 11982,14601 L 11944,14758 11982,14758 11982,14601 Z"/>
        <path fill="rgb(38,46,52)" stroke="none" d="M 11745,14601 L 11710,14758 11745,14758 11745,14601 Z"/>
        <path fill="rgb(38,46,52)" stroke="none" d="M 11944,14601 L 11944,14758 11982,14601 11944,14601 Z"/>
        <path fill="rgb(38,46,52)" stroke="none" d="M 11710,14601 L 11710,14758 11745,14601 11710,14601 Z"/>
        <path fill="rgb(38,46,52)" stroke="none" d="M 12652,15174 L 12652,16054 12689,16054 12652,15174 Z"/>
        <path fill="rgb(38,46,52)" stroke="none" d="M 12689,15174 L 12652,15174 12689,16054 12689,15174 Z"/>
        <path fill="rgb(38,46,52)" stroke="none" d="M 12216,15174 L 12181,16054 12216,16054 12216,15174 Z"/>
        <path fill="rgb(38,46,52)" stroke="none" d="M 12453,15174 L 12418,16054 12453,16054 12453,15174 Z"/>
        <path fill="rgb(38,46,52)" stroke="none" d="M 12418,15174 L 12418,16054 12453,15174 12418,15174 Z"/>
        <path fill="rgb(38,46,52)" stroke="none" d="M 12181,15174 L 12181,16054 12216,15174 12181,15174 Z"/>
        <path fill="rgb(38,46,52)" stroke="none" d="M 12689,14603 L 12652,14758 12689,14758 12689,14603 Z"/>
        <path fill="rgb(38,46,52)" stroke="none" d="M 12680,14601 L 12652,14758 12689,14603 12680,14601 Z"/>
        <path fill="rgb(38,46,52)" stroke="none" d="M 12418,14758 L 12453,14601 12418,14601 12418,14758 Z"/>
        <path fill="rgb(38,46,52)" stroke="none" d="M 12453,14601 L 12418,14758 12453,14758 12453,14601 Z"/>
        <path fill="rgb(38,46,52)" stroke="none" d="M 12216,14601 L 12181,14758 12216,14758 12216,14601 Z"/>
        <path fill="rgb(38,46,52)" stroke="none" d="M 12652,14601 L 12652,14758 12680,14601 12652,14601 Z"/>
        <path fill="rgb(38,46,52)" stroke="none" d="M 12671,14601 L 12652,14601 12680,14601 12671,14601 Z"/>
        <path fill="rgb(38,46,52)" stroke="none" d="M 12181,14601 L 12181,14758 12216,14601 12181,14601 Z"/>
        <path fill="none" stroke="rgb(51,78,88)" stroke-width="0" stroke-linejoin="round" stroke-linecap="round" d="M 8377,14758 L 8377,15174 10360,15174 10360,14758"/>
        <path fill="rgb(38,46,52)" stroke="none" d="M 8678,16054 L 8678,15174 8641,15174 8678,16054 Z"/>
        <path fill="rgb(38,46,52)" stroke="none" d="M 8641,15174 L 8641,16054 8678,16054 8641,15174 Z"/>
        <path fill="rgb(38,46,52)" stroke="none" d="M 8913,16054 L 8913,15174 8878,15174 8913,16054 Z"/>
        <path fill="rgb(38,46,52)" stroke="none" d="M 8878,15174 L 8878,16054 8913,16054 8878,15174 Z"/>
        <path fill="rgb(38,46,52)" stroke="none" d="M 8641,14601 L 8641,14758 8678,14758 8641,14601 Z"/>
        <path fill="rgb(38,46,52)" stroke="none" d="M 8678,14601 L 8641,14601 8678,14758 8678,14601 Z"/>
        <path fill="rgb(38,46,52)" stroke="none" d="M 8913,14758 L 8913,14601 8878,14601 8913,14758 Z"/>
        <path fill="rgb(38,46,52)" stroke="none" d="M 8878,14601 L 8878,14758 8913,14758 8878,14601 Z"/>
        <path fill="none" stroke="rgb(51,78,88)" stroke-width="0" stroke-linejoin="round" stroke-linecap="round" d="M 12721,14758 L 10736,14758 10736,15174 12721,15174 12721,14758 10736,14758"/>
        <path fill="rgb(38,46,52)" stroke="none" d="M 9822,16054 L 9857,15174 9822,15174 9822,16054 Z"/>
        <path fill="rgb(38,46,52)" stroke="none" d="M 9857,15174 L 9822,16054 9857,16054 9857,15174 Z"/>
        <path fill="rgb(38,46,52)" stroke="none" d="M 10094,15174 L 10057,16054 10094,16054 10094,15174 Z"/>
        <path fill="rgb(38,46,52)" stroke="none" d="M 10057,15174 L 10057,16054 10094,15174 10057,15174 Z"/>
        <path fill="rgb(38,46,52)" stroke="none" d="M 10329,15174 L 10294,16054 10329,16054 10329,15174 Z"/>
        <path fill="rgb(38,46,52)" stroke="none" d="M 10294,15174 L 10294,16054 10329,15174 10294,15174 Z"/>
        <path fill="rgb(38,46,52)" stroke="none" d="M 9857,14758 L 9857,14601 9822,14601 9857,14758 Z"/>
        <path fill="rgb(38,46,52)" stroke="none" d="M 9822,14601 L 9822,14758 9857,14758 9822,14601 Z"/>
        <path fill="rgb(38,46,52)" stroke="none" d="M 10057,14758 L 10094,14601 10057,14601 10057,14758 Z"/>
        <path fill="rgb(38,46,52)" stroke="none" d="M 10094,14601 L 10057,14758 10094,14758 10094,14601 Z"/>
        <path fill="rgb(38,46,52)" stroke="none" d="M 10329,14758 L 10329,14601 10294,14601 10329,14758 Z"/>
        <path fill="rgb(38,46,52)" stroke="none" d="M 10294,14601 L 10294,14758 10329,14758 10294,14601 Z"/>
        <path fill="rgb(38,46,52)" stroke="none" d="M 10800,16054 L 10800,15174 10765,15174 10800,16054 Z"/>
        <path fill="rgb(38,46,52)" stroke="none" d="M 10765,15174 L 10765,16054 10800,16054 10765,15174 Z"/>
        <path fill="rgb(38,46,52)" stroke="none" d="M 11037,15174 L 11002,16054 11037,16054 11037,15174 Z"/>
        <path fill="rgb(38,46,52)" stroke="none" d="M 11237,15174 L 11237,16054 11274,16054 11237,15174 Z"/>
        <path fill="rgb(38,46,52)" stroke="none" d="M 11002,15174 L 11002,16054 11037,15174 11002,15174 Z"/>
        <path fill="rgb(38,46,52)" stroke="none" d="M 11274,15174 L 11237,15174 11274,16054 11274,15174 Z"/>
        <path fill="rgb(38,46,52)" stroke="none" d="M 11037,14758 L 11037,14601 11002,14601 11037,14758 Z"/>
        <path fill="rgb(38,46,52)" stroke="none" d="M 11002,14601 L 11002,14758 11037,14758 11002,14601 Z"/>
        <path fill="rgb(38,46,52)" stroke="none" d="M 11274,14601 L 11237,14758 11274,14758 11274,14601 Z"/>
        <path fill="rgb(38,46,52)" stroke="none" d="M 10800,14758 L 10800,14601 10765,14601 10800,14758 Z"/>
        <path fill="rgb(38,46,52)" stroke="none" d="M 10765,14601 L 10765,14758 10800,14758 10765,14601 Z"/>
        <path fill="rgb(38,46,52)" stroke="none" d="M 11237,14601 L 11237,14758 11274,14601 11237,14601 Z"/>
        <path fill="rgb(38,46,52)" stroke="none" d="M 10547,15327 L 10566,14601 10529,14601 10547,15327 Z"/>
        <path fill="rgb(38,46,52)" stroke="none" d="M 10547,15327 L 10529,14601 10529,16054 10547,15327 Z"/>
        <path fill="rgb(38,46,52)" stroke="none" d="M 10547,15327 L 10529,16054 10566,16054 10547,15327 Z"/>
        <path fill="rgb(38,46,52)" stroke="none" d="M 10547,15327 L 10566,16054 10566,14601 10547,15327 Z"/>
        <path fill="rgb(255,255,255)" stroke="none" d="M 12701,13352 L 12726,13379 12749,13405 12771,13434 12791,13462 12809,13492 12826,13522 12841,13553 12855,13584 12867,13616 12877,13648 12886,13681 12893,13714 12899,13747 12903,13780 12905,13814 12906,13847 12905,13881 12903,13914 12899,13948 12893,13981 12886,14014 12877,14047 12867,14079 12855,14111 12841,14142 12826,14173 12809,14203 12791,14232 12771,14262 12749,14289 12726,14316 12701,14343 12675,14367 12647,14391 12620,14412 12591,14432 12561,14451 12531,14467 12500,14483 12469,14496 12437,14508 12405,14519 12372,14527 12339,14535 12306,14540 12273,14544 12239,14547 12206,14547 12172,14547 12139,14544 12105,14540 12072,14535 12039,14527 12006,14519 11974,14508 11942,14496 11911,14483 11880,14467 11850,14451 11820,14432 11791,14412 11764,14391 11736,14367 11710,14343 11686,14316 11662,14289 11641,14262 11621,14232 11602,14203 11585,14173 11570,14142 11557,14111 11545,14079 11534,14047 11525,14014 11518,13981 11513,13948 11508,13914 11506,13881 11505,13847 11506,13814 11508,13780 11513,13747 11518,13714 11525,13681 11534,13648 11545,13616 11557,13584 11570,13553 11585,13522 11602,13492 11621,13462 11641,13434 11662,13405 11686,13379 11710,13352 11736,13328 11764,13304 11791,13283 11820,13263 11850,13244 11880,13228 11911,13212 11942,13198 11974,13187 12006,13176 12039,13167 12072,13160 12105,13154 12139,13151 12172,13148 12206,13147 12239,13148 12273,13151 12306,13154 12339,13160 12372,13167 12405,13176 12437,13187 12469,13198 12500,13212 12531,13228 12561,13244 12591,13263 12620,13283 12647,13304 12675,13328 12701,13352 Z"/>
        <path fill="none" stroke="rgb(41,55,58)" stroke-width="0" stroke-linejoin="round" stroke-linecap="round" d="M 12701,13352 L 12726,13379 12749,13405 12771,13434 12791,13462 12809,13492 12826,13522 12841,13553 12855,13584 12867,13616 12877,13648 12886,13681 12893,13714 12899,13747 12903,13780 12905,13814 12906,13847 12905,13881 12903,13914 12899,13948 12893,13981 12886,14014 12877,14047 12867,14079 12855,14111 12841,14142 12826,14173 12809,14203 12791,14232 12771,14262 12749,14289 12726,14316 12701,14343 12675,14367 12647,14391 12620,14412 12591,14432 12561,14451 12531,14467 12500,14483 12469,14496 12437,14508 12405,14519 12372,14527 12339,14535 12306,14540 12273,14544 12239,14547 12206,14547 12172,14547 12139,14544 12105,14540 12072,14535 12039,14527 12006,14519 11974,14508 11942,14496 11911,14483 11880,14467 11850,14451 11820,14432 11791,14412 11764,14391 11736,14367 11710,14343 11686,14316 11662,14289 11641,14262 11621,14232 11602,14203 11585,14173 11570,14142 11557,14111 11545,14079 11534,14047 11525,14014 11518,13981 11513,13948 11508,13914 11506,13881 11505,13847 11506,13814 11508,13780 11513,13747 11518,13714 11525,13681 11534,13648 11545,13616 11557,13584 11570,13553 11585,13522 11602,13492 11621,13462 11641,13434 11662,13405 11686,13379 11710,13352 11736,13328 11764,13304 11791,13283 11820,13263 11850,13244 11880,13228 11911,13212 11942,13198 11974,13187 12006,13176 12039,13167 12072,13160 12105,13154 12139,13151 12172,13148 12206,13147 12239,13148 12273,13151 12306,13154 12339,13160 12372,13167 12405,13176 12437,13187 12469,13198 12500,13212 12531,13228 12561,13244 12591,13263 12620,13283 12647,13304 12675,13328 12701,13352 Z"/>
        <path fill="rgb(0,88,154)" stroke="none" d="M 12684,13369 L 12690,13375 12696,13381 12702,13387 12708,13394 12714,13400 12719,13406 12725,13413 12730,13419 12736,13426 12741,13433 12746,13439 12751,13446 12756,13453 12761,13460 12766,13467 12770,13474 12775,13480 12779,13488 12784,13495 12788,13502 12792,13509 12796,13516 12801,13524 12804,13531 12809,13539 12812,13546 12816,13554 12820,13561 12823,13569 12827,13577 12830,13585 12833,13593 12836,13600 12839,13608 12842,13616 12845,13623 12847,13631 12850,13639 12852,13647 12855,13654 12857,13662 12859,13670 12861,13678 12863,13686 12865,13694 12867,13702 12869,13710 12870,13718 12872,13725 12873,13733 12875,13742 12876,13749 12877,13758 12878,13766 12879,13774 12880,13782 12880,13790 12881,13798 12881,13806 12882,13814 12882,13823 12882,13831 12883,13839 12883,13847 12883,13856 12882,13864 12882,13872 12882,13880 12881,13889 12881,13897 12880,13905 12880,13913 12879,13921 12878,13929 12877,13937 12876,13945 12875,13953 12873,13961 12872,13970 12870,13977 12869,13985 12867,13993 12865,14001 12863,14009 12861,14017 12859,14025 12857,14032 12855,14040 12852,14048 12850,14056 12847,14064 12845,14071 12842,14079 12839,14087 12836,14095 12833,14102 12830,14110 12827,14118 12823,14126 12820,14133 12816,14141 12812,14148 12809,14156 12804,14163 12801,14171 12796,14178 12792,14186 12788,14193 12784,14200 12779,14207 12775,14214 12770,14221 12766,14228 12761,14235 12756,14242 12751,14249 12746,14256 12741,14262 12736,14269 12730,14275 12725,14282 12719,14288 12714,14295 12708,14301 12702,14308 12696,14314 12690,14320 12684,14326 12678,14332 12672,14338 12666,14344 12660,14349 12653,14355 12647,14361 12640,14366 12634,14372 12627,14377 12621,14382 12614,14388 12607,14393 12601,14398 12594,14402 12587,14407 12580,14412 12573,14416 12566,14421 12558,14425 12551,14430 12544,14434 12537,14438 12529,14442 12522,14446 12514,14450 12507,14454 12499,14458 12492,14461 12484,14464 12476,14468 12468,14471 12460,14474 12453,14478 12445,14481 12437,14484 12430,14486 12422,14489 12414,14491 12407,14494 12399,14496 12391,14499 12383,14501 12375,14503 12367,14505 12359,14507 12352,14509 12344,14510 12336,14512 12328,14513 12320,14515 12312,14516 12304,14517 12296,14518 12288,14520 12279,14520 12271,14521 12263,14522 12255,14522 12247,14523 12239,14524 12231,14524 12222,14524 12214,14524 12206,14524 12197,14524 12189,14524 12181,14524 12173,14524 12165,14523 12156,14522 12148,14522 12140,14521 12132,14520 12124,14520 12116,14518 12108,14517 12100,14516 12092,14515 12084,14513 12076,14512 12068,14510 12060,14509 12052,14507 12044,14505 12036,14503 12028,14501 12020,14499 12013,14496 12005,14494 11997,14491 11989,14489 11982,14486 11974,14484 11966,14481 11959,14478 11951,14474 11943,14471 11935,14468 11928,14464 11920,14461 11912,14458 11905,14454 11897,14450 11890,14446 11882,14442 11875,14438 11867,14434 11860,14430 11853,14425 11846,14421 11839,14416 11832,14412 11825,14407 11818,14402 11811,14398 11804,14393 11797,14388 11791,14382 11784,14377 11778,14372 11771,14366 11765,14361 11758,14355 11752,14349 11746,14344 11739,14338 11733,14332 11727,14326 11721,14320 11715,14314 11709,14308 11704,14301 11698,14295 11692,14288 11687,14282 11681,14275 11676,14269 11671,14262 11665,14256 11660,14249 11655,14242 11651,14235 11646,14228 11641,14221 11637,14214 11632,14207 11628,14200 11623,14193 11619,14186 11615,14178 11611,14171 11607,14163 11603,14156 11599,14148 11595,14141 11592,14133 11588,14126 11585,14118 11582,14110 11578,14102 11575,14095 11572,14087 11569,14079 11567,14071 11564,14064 11562,14056 11559,14048 11557,14040 11554,14032 11552,14025 11550,14017 11548,14009 11546,14001 11544,13993 11543,13985 11541,13977 11540,13970 11538,13961 11537,13953 11536,13945 11535,13937 11533,13929 11533,13921 11532,13913 11531,13905 11531,13897 11530,13889 11529,13880 11529,13872 11529,13864 11529,13856 11529,13847 11529,13839 11529,13831 11529,13823 11529,13814 11530,13806 11531,13798 11531,13790 11532,13782 11533,13774 11533,13766 11535,13758 11536,13749 11537,13742 11538,13733 11540,13725 11541,13718 11543,13710 11544,13702 11546,13694 11548,13686 11550,13678 11552,13670 11554,13662 11557,13654 11559,13647 11562,13639 11564,13631 11567,13623 11569,13616 11572,13608 11575,13600 11578,13593 11582,13585 11585,13577 11588,13569 11592,13561 11595,13554 11599,13546 11603,13539 11607,13531 11611,13524 11615,13516 11619,13509 11623,13502 11628,13495 11632,13488 11637,13480 11641,13474 11646,13467 11651,13460 11655,13453 11660,13446 11665,13439 11671,13433 11676,13426 11681,13419 11687,13413 11692,13406 11698,13400 11704,13394 11709,13387 11715,13381 11721,13375 11727,13369 11733,13363 11739,13357 11746,13351 11752,13345 11758,13339 11765,13334 11771,13329 11778,13323 11784,13318 11791,13313 11797,13307 11804,13302 11811,13297 11818,13293 11825,13288 11832,13283 11839,13279 11846,13274 11853,13269 11860,13265 11867,13261 11875,13257 11882,13253 11890,13249 11897,13245 11905,13241 11912,13237 11920,13234 11928,13230 11935,13227 11943,13223 11951,13220 11959,13217 11966,13214 11974,13211 11982,13208 11989,13206 11997,13203 12005,13201 12013,13198 12020,13196 12028,13194 12036,13192 12044,13190 12052,13188 12060,13186 12068,13185 12076,13183 12084,13182 12092,13180 12100,13179 12108,13178 12116,13177 12124,13176 12132,13174 12140,13174 12148,13173 12156,13172 12165,13172 12173,13171 12181,13171 12189,13171 12197,13171 12206,13171 12214,13171 12222,13171 12231,13171 12239,13171 12247,13172 12255,13172 12263,13173 12271,13174 12279,13174 12288,13176 12296,13177 12304,13178 12312,13179 12320,13180 12328,13182 12336,13183 12344,13185 12352,13186 12359,13188 12367,13190 12375,13192 12383,13194 12391,13196 12399,13198 12407,13201 12414,13203 12422,13206 12430,13208 12437,13211 12445,13214 12453,13217 12460,13220 12468,13223 12476,13227 12484,13230 12492,13234 12499,13237 12507,13241 12514,13245 12522,13249 12529,13253 12537,13257 12544,13261 12551,13265 12558,13269 12566,13274 12573,13279 12580,13283 12587,13288 12594,13293 12601,13297 12607,13302 12614,13307 12621,13313 12627,13318 12634,13323 12640,13329 12647,13334 12653,13339 12660,13345 12666,13351 12672,13357 12678,13363 12684,13369 Z"/>
        <path fill="rgb(255,255,255)" stroke="none" d="M 12627,14268 L 12627,14267 12628,14266 12629,14265 12630,14264 12631,14262 12631,14261 12632,14260 12632,14258 12632,14257 12633,14256 12633,14254 12633,14253 12633,14252 12633,14250 12633,14249 12633,14247 12550,13801 12549,13799 12549,13798 12548,13796 12548,13795 12547,13793 12546,13792 12545,13790 12544,13789 12543,13788 12542,13788 12541,13787 12540,13786 12539,13786 12538,13785 12537,13785 12536,13784 12535,13784 12534,13783 12533,13783 12532,13783 12531,13783 12530,13783 12529,13783 12528,13783 12526,13783 12526,13783 12524,13783 12523,13783 12522,13783 12521,13784 12520,13784 12519,13784 12518,13785 12517,13785 12516,13786 12515,13787 12514,13787 12513,13788 12512,13788 12511,13789 12511,13790 12510,13792 12509,13793 12508,13794 12412,13931 11900,13344 11702,13542 12290,14053 12152,14150 12151,14151 12150,14151 12149,14152 12148,14153 12147,14154 12146,14155 12146,14156 12145,14157 12144,14158 12144,14159 12143,14160 12143,14161 12142,14162 12142,14163 12142,14164 12141,14165 12141,14166 12141,14167 12141,14168 12141,14169 12141,14170 12141,14172 12141,14172 12141,14174 12141,14175 12142,14176 12142,14177 12142,14178 12143,14179 12143,14180 12144,14181 12145,14182 12145,14183 12146,14184 12147,14185 12147,14185 12149,14187 12150,14187 12151,14188 12153,14189 12155,14190 12156,14191 12158,14191 12159,14192 12606,14275 12607,14275 12609,14275 12610,14275 12612,14275 12613,14275 12614,14275 12616,14274 12617,14274 12618,14274 12619,14273 12621,14272 12622,14272 12623,14271 12624,14270 12625,14269 12627,14268 Z"/>
       </g>
      </g>
     </g>
    </g>
   </g>
  </g>
 </g>
</svg>