<?xml version="1.0" encoding="UTF-8"?>
<!DOCTYPE svg PUBLIC "-//W3C//DTD SVG 1.1//EN" "http://www.w3.org/Graphics/SVG/1.1/DTD/svg11.dtd">
<svg version="1.2" width="50mm" height="41.52mm" viewBox="8048 12832 5000 4152" preserveAspectRatio="xMidYMid" fill-rule="evenodd" stroke-width="28.222" stroke-linejoin="round" xmlns="http://www.w3.org/2000/svg" xmlns:ooo="http://xml.openoffice.org/svg/export" xmlns:xlink="http://www.w3.org/1999/xlink" xmlns:presentation="http://sun.com/xmlns/staroffice/presentation" xmlns:smil="http://www.w3.org/2001/SMIL20/" xmlns:anim="urn:oasis:names:tc:opendocument:xmlns:animation:1.0" xml:space="preserve">
 <defs class="ClipPathGroup">
  <clipPath id="presentation_clip_path" clipPathUnits="userSpaceOnUse">
   <rect x="8048" y="12832" width="5000" height="4152"/>
  </clipPath>
  <clipPath id="presentation_clip_path_shrink" clipPathUnits="userSpaceOnUse">
   <rect x="8053" y="12836" width="4990" height="4144"/>
  </clipPath>
 </defs>
 <defs class="TextShapeIndex">
  <g ooo:slide="id1" ooo:id-list="id3"/>
 </defs>
 <defs class="EmbeddedBulletChars">
  <g id="bullet-char-template-57356" transform="scale(0.00048828125,-0.00048828125)">
   <path d="M 580,1141 L 1163,571 580,0 -4,571 580,1141 Z"/>
  </g>
  <g id="bullet-char-template-57354" transform="scale(0.00048828125,-0.00048828125)">
   <path d="M 8,1128 L 1137,1128 1137,0 8,0 8,1128 Z"/>
  </g>
  <g id="bullet-char-template-10146" transform="scale(0.00048828125,-0.00048828125)">
   <path d="M 174,0 L 602,739 174,1481 1456,739 174,0 Z M 1358,739 L 309,1346 659,739 1358,739 Z"/>
  </g>
  <g id="bullet-char-template-10132" transform="scale(0.00048828125,-0.00048828125)">
   <path d="M 2015,739 L 1276,0 717,0 1260,543 174,543 174,936 1260,936 717,1481 1274,1481 2015,739 Z"/>
  </g>
  <g id="bullet-char-template-10007" transform="scale(0.00048828125,-0.00048828125)">
   <path d="M 0,-2 C -7,14 -16,27 -25,37 L 356,567 C 262,823 215,952 215,954 215,979 228,992 255,992 264,992 276,990 289,987 310,991 331,999 354,1012 L 381,999 492,748 772,1049 836,1024 860,1049 C 881,1039 901,1025 922,1006 886,937 835,863 770,784 769,783 710,716 594,584 L 774,223 C 774,196 753,168 711,139 L 727,119 C 717,90 699,76 672,76 641,76 570,178 457,381 L 164,-76 C 142,-110 111,-127 72,-127 30,-127 9,-110 8,-76 1,-67 -2,-52 -2,-32 -2,-23 -1,-13 0,-2 Z"/>
  </g>
  <g id="bullet-char-template-10004" transform="scale(0.00048828125,-0.00048828125)">
   <path d="M 285,-33 C 182,-33 111,30 74,156 52,228 41,333 41,471 41,549 55,616 82,672 116,743 169,778 240,778 293,778 328,747 346,684 L 369,508 C 377,444 397,411 428,410 L 1163,1116 C 1174,1127 1196,1133 1229,1133 1271,1133 1292,1118 1292,1087 L 1292,965 C 1292,929 1282,901 1262,881 L 442,47 C 390,-6 338,-33 285,-33 Z"/>
  </g>
  <g id="bullet-char-template-9679" transform="scale(0.00048828125,-0.00048828125)">
   <path d="M 813,0 C 632,0 489,54 383,161 276,268 223,411 223,592 223,773 276,916 383,1023 489,1130 632,1184 813,1184 992,1184 1136,1130 1245,1023 1353,916 1407,772 1407,592 1407,412 1353,268 1245,161 1136,54 992,0 813,0 Z"/>
  </g>
  <g id="bullet-char-template-8226" transform="scale(0.00048828125,-0.00048828125)">
   <path d="M 346,457 C 273,457 209,483 155,535 101,586 74,649 74,723 74,796 101,859 155,911 209,963 273,989 346,989 419,989 480,963 531,910 582,859 608,796 608,723 608,648 583,586 532,535 482,483 420,457 346,457 Z"/>
  </g>
  <g id="bullet-char-template-8211" transform="scale(0.00048828125,-0.00048828125)">
   <path d="M -4,459 L 1135,459 1135,606 -4,606 -4,459 Z"/>
  </g>
  <g id="bullet-char-template-61548" transform="scale(0.00048828125,-0.00048828125)">
   <path d="M 173,740 C 173,903 231,1043 346,1159 462,1274 601,1332 765,1332 928,1332 1067,1274 1183,1159 1299,1043 1357,903 1357,740 1357,577 1299,437 1183,322 1067,206 928,148 765,148 601,148 462,206 346,322 231,437 173,577 173,740 Z"/>
  </g>
 </defs>
 <defs class="TextEmbeddedBitmaps"/>
 <g class="SlideGroup">
  <g>
   <g id="container-id1">
    <g id="id1" class="Slide" clip-path="url(#presentation_clip_path)">
     <g class="Page">
      <g class="Graphic">
       <g id="id3">
        <rect class="BoundingBox" stroke="none" fill="none" x="8048" y="12832" width="5001" height="4153"/>
        <path fill="rgb(255,255,255)" stroke="none" d="M 12431,15491 L 10772,15491 10772,15072 12431,15072 12431,15491 Z"/>
        <path fill="rgb(255,255,255)" stroke="none" d="M 10239,15491 L 8581,15491 8581,15070 10239,15070 10239,15491 Z"/>
        <path fill="none" stroke="rgb(48,90,105)" stroke-width="0" stroke-linejoin="round" stroke-linecap="round" d="M 13045,16386 L 13045,15256"/>
        <path fill="none" stroke="rgb(48,90,105)" stroke-width="0" stroke-linejoin="round" stroke-linecap="round" d="M 12672,14881 L 12724,14884 12777,14895 12827,14914 12873,14940 12916,14973 12955,15010 12986,15052 13012,15101 13031,15151 13041,15202 13045,15256"/>
        <path fill="none" stroke="rgb(48,90,105)" stroke-width="0" stroke-linejoin="round" stroke-linecap="round" d="M 12672,14881 L 8427,14881"/>
        <path fill="none" stroke="rgb(48,90,105)" stroke-width="0" stroke-linejoin="round" stroke-linecap="round" d="M 8052,15256 L 8056,15202 8066,15151 8087,15101 8111,15052 8144,15010 8181,14973 8224,14940 8272,14914 8321,14895 8373,14884 8427,14881"/>
        <path fill="none" stroke="rgb(48,90,105)" stroke-width="0" stroke-linejoin="round" stroke-linecap="round" d="M 8052,15256 L 8052,16386"/>
        <path fill="none" stroke="rgb(48,90,105)" stroke-width="0" stroke-linejoin="round" stroke-linecap="round" d="M 8089,16386 L 8089,16981"/>
        <path fill="none" stroke="rgb(48,90,105)" stroke-width="0" stroke-linejoin="round" stroke-linecap="round" d="M 8052,16386 L 8052,16981"/>
        <path fill="none" stroke="rgb(48,90,105)" stroke-width="0" stroke-linejoin="round" stroke-linecap="round" d="M 8089,16386 L 8089,15256 8091,15208 8102,15160 8118,15115 8142,15073 8170,15034 8205,14999 8244,14969 8286,14947 8331,14931 8379,14919 8427,14916 12672,14916 12720,14919 12766,14931 12812,14947 12855,14969 12894,14999 12927,15034 12956,15073 12981,15115 12997,15160 13006,15208 13010,15256"/>
        <path fill="none" stroke="rgb(48,90,105)" stroke-width="0" stroke-linejoin="round" stroke-linecap="round" d="M 8089,16405 L 13010,16405"/>
        <path fill="none" stroke="rgb(48,90,105)" stroke-width="0" stroke-linejoin="round" stroke-linecap="round" d="M 8089,16368 L 13010,16368"/>
        <path fill="none" stroke="rgb(48,90,105)" stroke-width="0" stroke-linejoin="round" stroke-linecap="round" d="M 13045,16386 L 13045,16981"/>
        <path fill="none" stroke="rgb(48,90,105)" stroke-width="0" stroke-linejoin="round" stroke-linecap="round" d="M 13010,16981 L 13010,16386 13010,15256"/>
        <path fill="none" stroke="rgb(48,90,105)" stroke-width="0" stroke-linejoin="round" stroke-linecap="round" d="M 12653,14916 L 12653,16368"/>
        <path fill="none" stroke="rgb(48,90,105)" stroke-width="0" stroke-linejoin="round" stroke-linecap="round" d="M 12417,14916 L 12417,16368"/>
        <path fill="none" stroke="rgb(48,90,105)" stroke-width="0" stroke-linejoin="round" stroke-linecap="round" d="M 12454,14916 L 12454,16368"/>
        <path fill="none" stroke="rgb(48,90,105)" stroke-width="0" stroke-linejoin="round" stroke-linecap="round" d="M 12182,14916 L 12182,16368"/>
        <path fill="none" stroke="rgb(48,90,105)" stroke-width="0" stroke-linejoin="round" stroke-linecap="round" d="M 12218,14916 L 12218,16368"/>
        <path fill="none" stroke="rgb(48,90,105)" stroke-width="0" stroke-linejoin="round" stroke-linecap="round" d="M 11239,14916 L 11239,16368"/>
        <path fill="none" stroke="rgb(48,90,105)" stroke-width="0" stroke-linejoin="round" stroke-linecap="round" d="M 11274,14916 L 11274,16368"/>
        <path fill="none" stroke="rgb(48,90,105)" stroke-width="0" stroke-linejoin="round" stroke-linecap="round" d="M 11002,14916 L 11002,16368"/>
        <path fill="none" stroke="rgb(48,90,105)" stroke-width="0" stroke-linejoin="round" stroke-linecap="round" d="M 11039,14916 L 11039,16368"/>
        <path fill="none" stroke="rgb(48,90,105)" stroke-width="0" stroke-linejoin="round" stroke-linecap="round" d="M 10767,14916 L 10767,16368"/>
        <path fill="none" stroke="rgb(48,90,105)" stroke-width="0" stroke-linejoin="round" stroke-linecap="round" d="M 10803,14916 L 10803,16368"/>
        <path fill="none" stroke="rgb(48,90,105)" stroke-width="0" stroke-linejoin="round" stroke-linecap="round" d="M 10531,14916 L 10531,16368"/>
        <path fill="none" stroke="rgb(48,90,105)" stroke-width="0" stroke-linejoin="round" stroke-linecap="round" d="M 10568,14916 L 10568,16368"/>
        <path fill="none" stroke="rgb(48,90,105)" stroke-width="0" stroke-linejoin="round" stroke-linecap="round" d="M 10296,14916 L 10296,16368"/>
        <path fill="none" stroke="rgb(48,90,105)" stroke-width="0" stroke-linejoin="round" stroke-linecap="round" d="M 10331,14916 L 10331,16368"/>
        <path fill="none" stroke="rgb(48,90,105)" stroke-width="0" stroke-linejoin="round" stroke-linecap="round" d="M 10060,14916 L 10060,16368"/>
        <path fill="none" stroke="rgb(48,90,105)" stroke-width="0" stroke-linejoin="round" stroke-linecap="round" d="M 10095,14916 L 10095,16368"/>
        <path fill="none" stroke="rgb(48,90,105)" stroke-width="0" stroke-linejoin="round" stroke-linecap="round" d="M 9823,14916 L 9823,16368"/>
        <path fill="none" stroke="rgb(48,90,105)" stroke-width="0" stroke-linejoin="round" stroke-linecap="round" d="M 9860,14916 L 9860,16368"/>
        <path fill="none" stroke="rgb(48,90,105)" stroke-width="0" stroke-linejoin="round" stroke-linecap="round" d="M 9589,14916 L 9589,15073"/>
        <path fill="none" stroke="rgb(48,90,105)" stroke-width="0" stroke-linejoin="round" stroke-linecap="round" d="M 9624,14916 L 9624,15073"/>
        <path fill="none" stroke="rgb(48,90,105)" stroke-width="0" stroke-linejoin="round" stroke-linecap="round" d="M 8881,14916 L 8881,16368"/>
        <path fill="none" stroke="rgb(48,90,105)" stroke-width="0" stroke-linejoin="round" stroke-linecap="round" d="M 8917,14916 L 8917,16368"/>
        <path fill="none" stroke="rgb(48,90,105)" stroke-width="0" stroke-linejoin="round" stroke-linecap="round" d="M 8645,14916 L 8645,16368"/>
        <path fill="none" stroke="rgb(48,90,105)" stroke-width="0" stroke-linejoin="round" stroke-linecap="round" d="M 8680,14916 L 8680,16368"/>
        <path fill="none" stroke="rgb(48,90,105)" stroke-width="0" stroke-linejoin="round" stroke-linecap="round" d="M 8409,14916 L 8409,16368"/>
        <path fill="none" stroke="rgb(48,90,105)" stroke-width="0" stroke-linejoin="round" stroke-linecap="round" d="M 8446,14916 L 8446,16368"/>
        <path fill="none" stroke="rgb(48,90,105)" stroke-width="0" stroke-linejoin="round" stroke-linecap="round" d="M 8052,16981 L 8089,16981"/>
        <path fill="none" stroke="rgb(48,90,105)" stroke-width="0" stroke-linejoin="round" stroke-linecap="round" d="M 13010,16981 L 13045,16981"/>
        <path fill="rgb(44,56,64)" stroke="none" d="M 8052,16386 L 8089,16981 8052,16981 8052,16386 Z"/>
        <path fill="rgb(44,56,64)" stroke="none" d="M 13010,16386 L 13045,16981 13010,16981 13010,16386 Z"/>
        <path fill="rgb(44,56,64)" stroke="none" d="M 8089,16386 L 8089,16981 8052,16386 8089,16386 Z"/>
        <path fill="rgb(44,56,64)" stroke="none" d="M 13045,16386 L 13045,16981 13010,16386 13045,16386 Z"/>
        <path fill="rgb(44,56,64)" stroke="none" d="M 13010,15256 L 13045,16386 13010,16386 13010,15256 Z"/>
        <path fill="rgb(44,56,64)" stroke="none" d="M 8052,15256 L 8089,16386 8052,16386 8052,15256 Z"/>
        <path fill="rgb(44,56,64)" stroke="none" d="M 13045,15256 L 13045,16386 13010,15256 13045,15256 Z"/>
        <path fill="rgb(44,56,64)" stroke="none" d="M 8089,15256 L 8089,16386 8052,15256 8089,15256 Z"/>
        <path fill="rgb(44,56,64)" stroke="none" d="M 13006,15208 L 13045,15256 13010,15256 13006,15208 Z"/>
        <path fill="rgb(44,56,64)" stroke="none" d="M 8091,15208 L 8089,15256 8052,15256 8091,15208 Z"/>
        <path fill="rgb(44,56,64)" stroke="none" d="M 8056,15202 L 8091,15208 8052,15256 8056,15202 Z"/>
        <path fill="rgb(44,56,64)" stroke="none" d="M 13041,15202 L 13045,15256 13006,15208 13041,15202 Z"/>
        <path fill="rgb(44,56,64)" stroke="none" d="M 8102,15160 L 8091,15208 8056,15202 8102,15160 Z"/>
        <path fill="rgb(44,56,64)" stroke="none" d="M 12997,15160 L 13041,15202 13006,15208 12997,15160 Z"/>
        <path fill="rgb(44,56,64)" stroke="none" d="M 8066,15151 L 8102,15160 8056,15202 8066,15151 Z"/>
        <path fill="rgb(44,56,64)" stroke="none" d="M 13031,15151 L 13041,15202 12997,15160 13031,15151 Z"/>
        <path fill="rgb(44,56,64)" stroke="none" d="M 12981,15115 L 13031,15151 12997,15160 12981,15115 Z"/>
        <path fill="rgb(44,56,64)" stroke="none" d="M 8118,15115 L 8102,15160 8066,15151 8118,15115 Z"/>
        <path fill="rgb(44,56,64)" stroke="none" d="M 8087,15101 L 8118,15115 8066,15151 8087,15101 Z"/>
        <path fill="rgb(44,56,64)" stroke="none" d="M 13012,15101 L 13031,15151 12981,15115 13012,15101 Z"/>
        <path fill="rgb(44,56,64)" stroke="none" d="M 12956,15073 L 13012,15101 12981,15115 12956,15073 Z"/>
        <path fill="rgb(44,56,64)" stroke="none" d="M 8142,15073 L 8118,15115 8087,15101 8142,15073 Z"/>
        <path fill="rgb(44,56,64)" stroke="none" d="M 8111,15052 L 8142,15073 8087,15101 8111,15052 Z"/>
        <path fill="rgb(44,56,64)" stroke="none" d="M 12986,15052 L 13012,15101 12956,15073 12986,15052 Z"/>
        <path fill="rgb(44,56,64)" stroke="none" d="M 8170,15034 L 8142,15073 8111,15052 8170,15034 Z"/>
        <path fill="rgb(44,56,64)" stroke="none" d="M 12927,15034 L 12986,15052 12956,15073 12927,15034 Z"/>
        <path fill="rgb(44,56,64)" stroke="none" d="M 8144,15010 L 8170,15034 8111,15052 8144,15010 8144,15010 Z"/>
        <path fill="rgb(44,56,64)" stroke="none" d="M 12955,15010 L 12986,15052 12927,15034 12955,15010 Z"/>
        <path fill="rgb(44,56,64)" stroke="none" d="M 8205,14999 L 8170,15034 8144,15010 8205,14999 Z"/>
        <path fill="rgb(44,56,64)" stroke="none" d="M 12894,14999 L 12955,15010 12927,15034 12894,14999 Z"/>
        <path fill="rgb(44,56,64)" stroke="none" d="M 8181,14973 L 8205,14999 8144,15010 8181,14973 Z"/>
        <path fill="rgb(44,56,64)" stroke="none" d="M 12916,14973 L 12955,15010 12894,14999 12916,14973 Z"/>
        <path fill="rgb(44,56,64)" stroke="none" d="M 8244,14969 L 8205,14999 8181,14973 8244,14969 Z"/>
        <path fill="rgb(44,56,64)" stroke="none" d="M 12855,14969 L 12916,14973 12894,14999 12855,14969 Z"/>
        <path fill="rgb(44,56,64)" stroke="none" d="M 8286,14947 L 8244,14969 8181,14973 8286,14947 Z"/>
        <path fill="rgb(44,56,64)" stroke="none" d="M 12812,14947 L 12916,14973 12855,14969 12812,14947 Z"/>
        <path fill="rgb(44,56,64)" stroke="none" d="M 8224,14940 L 8286,14947 8181,14973 8224,14940 Z"/>
        <path fill="rgb(44,56,64)" stroke="none" d="M 12873,14940 L 12916,14973 12812,14947 12873,14940 Z"/>
        <path fill="rgb(44,56,64)" stroke="none" d="M 12766,14931 L 12873,14940 12812,14947 12766,14931 Z"/>
        <path fill="rgb(44,56,64)" stroke="none" d="M 8331,14931 L 8286,14947 8224,14940 8331,14931 Z"/>
        <path fill="rgb(44,56,64)" stroke="none" d="M 12720,14919 L 12873,14940 12766,14931 12720,14919 Z"/>
        <path fill="rgb(44,56,64)" stroke="none" d="M 8379,14919 L 8331,14931 8224,14940 8379,14919 Z"/>
        <path fill="rgb(44,56,64)" stroke="none" d="M 8272,14914 L 12672,14916 8427,14916 8272,14914 Z"/>
        <path fill="rgb(44,56,64)" stroke="none" d="M 8272,14914 L 8427,14916 8379,14919 8272,14914 Z"/>
        <path fill="rgb(44,56,64)" stroke="none" d="M 8272,14914 L 8379,14919 8224,14940 8272,14914 Z"/>
        <path fill="rgb(44,56,64)" stroke="none" d="M 12827,14914 L 12672,14916 8272,14914 12827,14914 Z"/>
        <path fill="rgb(44,56,64)" stroke="none" d="M 12827,14914 L 12720,14919 12672,14916 12827,14914 Z"/>
        <path fill="rgb(44,56,64)" stroke="none" d="M 12827,14914 L 12873,14940 12720,14919 12827,14914 Z"/>
        <path fill="rgb(44,56,64)" stroke="none" d="M 8321,14895 L 12827,14914 8272,14914 8321,14895 Z"/>
        <path fill="rgb(44,56,64)" stroke="none" d="M 12777,14895 L 12827,14914 8321,14895 12777,14895 Z"/>
        <path fill="rgb(44,56,64)" stroke="none" d="M 8373,14884 L 12777,14895 8321,14895 8373,14884 Z"/>
        <path fill="rgb(44,56,64)" stroke="none" d="M 12724,14884 L 12777,14895 8373,14884 12724,14884 Z"/>
        <path fill="rgb(44,56,64)" stroke="none" d="M 12724,14884 L 8427,14881 12672,14881 12724,14884 Z"/>
        <path fill="rgb(44,56,64)" stroke="none" d="M 8427,14881 L 12724,14884 8373,14884 8427,14881 Z"/>
        <path fill="rgb(44,56,64)" stroke="none" d="M 8089,16386 L 13010,16405 8089,16405 8089,16386 Z"/>
        <path fill="rgb(44,56,64)" stroke="none" d="M 13010,16386 L 13010,16405 8089,16386 13010,16386 Z"/>
        <path fill="rgb(44,56,64)" stroke="none" d="M 12653,16368 L 13010,16386 8089,16386 12653,16368 Z"/>
        <path fill="rgb(44,56,64)" stroke="none" d="M 10531,16368 L 12653,16368 8089,16386 10531,16368 Z"/>
        <path fill="rgb(44,56,64)" stroke="none" d="M 11709,16368 L 12653,16368 10531,16368 11709,16368 Z"/>
        <path fill="rgb(44,56,64)" stroke="none" d="M 12182,16368 L 12653,16368 11709,16368 12182,16368 Z"/>
        <path fill="rgb(44,56,64)" stroke="none" d="M 8409,16368 L 10531,16368 8089,16386 8409,16368 Z"/>
        <path fill="rgb(44,56,64)" stroke="none" d="M 10568,16368 L 11709,16368 10531,16368 10568,16368 Z"/>
        <path fill="rgb(44,56,64)" stroke="none" d="M 8446,16368 L 10531,16368 8409,16368 8446,16368 Z"/>
        <path fill="rgb(44,56,64)" stroke="none" d="M 11747,16368 L 12182,16368 11709,16368 11747,16368 Z"/>
        <path fill="rgb(44,56,64)" stroke="none" d="M 12218,16368 L 12653,16368 12182,16368 12218,16368 Z"/>
        <path fill="rgb(44,56,64)" stroke="none" d="M 12688,16368 L 13010,16386 12653,16368 12688,16368 Z"/>
        <path fill="rgb(44,56,64)" stroke="none" d="M 11946,16368 L 12182,16368 11747,16368 11946,16368 Z"/>
        <path fill="rgb(44,56,64)" stroke="none" d="M 12182,16368 L 11946,16368 11981,16368 12182,16368 Z"/>
        <path fill="rgb(44,56,64)" stroke="none" d="M 9624,16368 L 10531,16368 8446,16368 9624,16368 Z"/>
        <path fill="rgb(44,56,64)" stroke="none" d="M 10060,16368 L 10531,16368 9624,16368 10060,16368 Z"/>
        <path fill="rgb(44,56,64)" stroke="none" d="M 10531,16368 L 10060,16368 10095,16368 10531,16368 Z"/>
        <path fill="rgb(44,56,64)" stroke="none" d="M 8917,16368 L 9624,16368 8446,16368 8917,16368 Z"/>
        <path fill="rgb(44,56,64)" stroke="none" d="M 11475,16368 L 11709,16368 10568,16368 11475,16368 Z"/>
        <path fill="rgb(44,56,64)" stroke="none" d="M 11709,16368 L 11475,16368 11510,16368 11709,16368 Z"/>
        <path fill="rgb(44,56,64)" stroke="none" d="M 9352,16368 L 9624,16368 8917,16368 9352,16368 Z"/>
        <path fill="rgb(44,56,64)" stroke="none" d="M 9624,16368 L 9352,16368 9388,16368 9624,16368 Z"/>
        <path fill="rgb(44,56,64)" stroke="none" d="M 11039,16368 L 11475,16368 10568,16368 11039,16368 Z"/>
        <path fill="rgb(44,56,64)" stroke="none" d="M 8089,16368 L 8409,16368 8089,16386 8089,16368 Z"/>
        <path fill="rgb(44,56,64)" stroke="none" d="M 8881,16368 L 8917,16368 8446,16368 8881,16368 Z"/>
        <path fill="rgb(44,56,64)" stroke="none" d="M 9589,16368 L 9624,16368 9388,16368 9589,16368 Z"/>
        <path fill="rgb(44,56,64)" stroke="none" d="M 11002,16368 L 11039,16368 10568,16368 11002,16368 Z"/>
        <path fill="rgb(44,56,64)" stroke="none" d="M 8680,16368 L 8881,16368 8446,16368 8680,16368 Z"/>
        <path fill="rgb(44,56,64)" stroke="none" d="M 8446,16368 L 8645,16368 8680,16368 8446,16368 Z"/>
        <path fill="rgb(44,56,64)" stroke="none" d="M 12417,16368 L 12653,16368 12218,16368 12417,16368 Z"/>
        <path fill="rgb(44,56,64)" stroke="none" d="M 12653,16368 L 12417,16368 12454,16368 12653,16368 Z"/>
        <path fill="rgb(44,56,64)" stroke="none" d="M 9153,16368 L 9352,16368 8917,16368 9153,16368 Z"/>
        <path fill="rgb(44,56,64)" stroke="none" d="M 8917,16368 L 9116,16368 9153,16368 8917,16368 Z"/>
        <path fill="rgb(44,56,64)" stroke="none" d="M 10803,16368 L 11002,16368 10568,16368 10803,16368 Z"/>
        <path fill="rgb(44,56,64)" stroke="none" d="M 10568,16368 L 10767,16368 10803,16368 10568,16368 Z"/>
        <path fill="rgb(44,56,64)" stroke="none" d="M 9860,16368 L 10060,16368 9624,16368 9860,16368 Z"/>
        <path fill="rgb(44,56,64)" stroke="none" d="M 9624,16368 L 9823,16368 9860,16368 9624,16368 Z"/>
        <path fill="rgb(44,56,64)" stroke="none" d="M 10296,16368 L 10531,16368 10095,16368 10296,16368 Z"/>
        <path fill="rgb(44,56,64)" stroke="none" d="M 10531,16368 L 10296,16368 10331,16368 10531,16368 Z"/>
        <path fill="rgb(44,56,64)" stroke="none" d="M 11274,16368 L 11475,16368 11039,16368 11274,16368 Z"/>
        <path fill="rgb(44,56,64)" stroke="none" d="M 13010,16368 L 13010,16386 12688,16368 13010,16368 Z"/>
        <path fill="rgb(44,56,64)" stroke="none" d="M 12653,14916 L 12672,14916 12653,16368 12653,14916 Z"/>
        <path fill="rgb(44,56,64)" stroke="none" d="M 12679,14916 L 12653,16368 12672,14916 12679,14916 Z"/>
        <path fill="rgb(44,56,64)" stroke="none" d="M 12653,16368 L 12679,14916 12688,16368 12653,16368 Z"/>
        <path fill="rgb(44,56,64)" stroke="none" d="M 12688,14918 L 12688,16368 12679,14916 12688,14918 Z"/>
        <path fill="none" stroke="rgb(48,90,105)" stroke-width="0" stroke-linejoin="round" stroke-linecap="round" d="M 12688,14916 L 12688,16368"/>
        <path fill="none" stroke="rgb(48,90,105)" stroke-width="0" stroke-linejoin="round" stroke-linecap="round" d="M 10736,15073 L 12718,15073"/>
        <path fill="none" stroke="rgb(48,90,105)" stroke-width="0" stroke-linejoin="round" stroke-linecap="round" d="M 11397,15073 L 11397,15071"/>
        <path fill="none" stroke="rgb(48,90,105)" stroke-width="0" stroke-linejoin="round" stroke-linecap="round" d="M 12057,15073 L 12057,15488"/>
        <path fill="none" stroke="rgb(48,90,105)" stroke-width="0" stroke-linejoin="round" stroke-linecap="round" d="M 11397,15073 L 11397,15488"/>
        <path fill="rgb(212,54,44)" stroke="none" d="M 12387,15280 L 12057,15073 12718,15073 12387,15280 Z"/>
        <path fill="rgb(212,54,44)" stroke="none" d="M 12387,15280 L 12718,15073 12718,15488 12387,15280 Z"/>
        <path fill="rgb(212,54,44)" stroke="none" d="M 12387,15280 L 12718,15488 12057,15488 12387,15280 Z"/>
        <path fill="rgb(212,54,44)" stroke="none" d="M 12387,15280 L 12057,15488 12057,15073 12387,15280 Z"/>
        <path fill="rgb(212,54,44)" stroke="none" d="M 11066,15280 L 10736,15073 11397,15073 11066,15280 Z"/>
        <path fill="rgb(212,54,44)" stroke="none" d="M 11066,15280 L 11397,15073 11397,15488 11066,15280 Z"/>
        <path fill="rgb(212,54,44)" stroke="none" d="M 11066,15280 L 11397,15488 10736,15488 11066,15280 Z"/>
        <path fill="rgb(212,54,44)" stroke="none" d="M 11066,15280 L 10736,15488 10736,15073 11066,15280 Z"/>
        <path fill="none" stroke="rgb(48,90,105)" stroke-width="0" stroke-linejoin="round" stroke-linecap="round" d="M 12718,15073 L 10736,15073"/>
        <path fill="none" stroke="rgb(48,90,105)" stroke-width="0" stroke-linejoin="round" stroke-linecap="round" d="M 9039,15073 L 9039,15071"/>
        <path fill="none" stroke="rgb(48,90,105)" stroke-width="0" stroke-linejoin="round" stroke-linecap="round" d="M 9700,15073 L 9700,15488"/>
        <path fill="none" stroke="rgb(48,90,105)" stroke-width="0" stroke-linejoin="round" stroke-linecap="round" d="M 9039,15073 L 9039,15488"/>
        <path fill="rgb(212,54,44)" stroke="none" d="M 10030,15280 L 9700,15073 10361,15073 10030,15280 Z"/>
        <path fill="rgb(212,54,44)" stroke="none" d="M 10030,15280 L 10361,15073 10361,15488 10030,15280 Z"/>
        <path fill="rgb(212,54,44)" stroke="none" d="M 10030,15280 L 10361,15488 9700,15488 10030,15280 Z"/>
        <path fill="rgb(212,54,44)" stroke="none" d="M 10030,15280 L 9700,15488 9700,15073 10030,15280 Z"/>
        <path fill="rgb(212,54,44)" stroke="none" d="M 8708,15280 L 8377,15073 9039,15073 8708,15280 Z"/>
        <path fill="rgb(212,54,44)" stroke="none" d="M 8708,15280 L 9039,15073 9039,15488 8708,15280 Z"/>
        <path fill="rgb(212,54,44)" stroke="none" d="M 8708,15280 L 9039,15488 8377,15488 8708,15280 8708,15280 Z"/>
        <path fill="rgb(212,54,44)" stroke="none" d="M 8708,15280 L 8377,15488 8377,15073 8708,15280 Z"/>
        <path fill="none" stroke="rgb(48,90,105)" stroke-width="0" stroke-linejoin="round" stroke-linecap="round" d="M 9589,15488 L 9589,16368"/>
        <path fill="none" stroke="rgb(48,90,105)" stroke-width="0" stroke-linejoin="round" stroke-linecap="round" d="M 9624,15488 L 9624,16368"/>
        <path fill="none" stroke="rgb(48,90,105)" stroke-width="0" stroke-linejoin="round" stroke-linecap="round" d="M 9352,14916 L 9352,15073"/>
        <path fill="none" stroke="rgb(48,90,105)" stroke-width="0" stroke-linejoin="round" stroke-linecap="round" d="M 9388,14916 L 9388,15073"/>
        <path fill="none" stroke="rgb(48,90,105)" stroke-width="0" stroke-linejoin="round" stroke-linecap="round" d="M 9352,15488 L 9352,16368"/>
        <path fill="none" stroke="rgb(48,90,105)" stroke-width="0" stroke-linejoin="round" stroke-linecap="round" d="M 9388,15488 L 9388,16368"/>
        <path fill="none" stroke="rgb(48,90,105)" stroke-width="0" stroke-linejoin="round" stroke-linecap="round" d="M 9116,14916 L 9116,15073"/>
        <path fill="none" stroke="rgb(48,90,105)" stroke-width="0" stroke-linejoin="round" stroke-linecap="round" d="M 9153,14916 L 9153,15073"/>
        <path fill="none" stroke="rgb(48,90,105)" stroke-width="0" stroke-linejoin="round" stroke-linecap="round" d="M 9116,15488 L 9116,16368"/>
        <path fill="none" stroke="rgb(48,90,105)" stroke-width="0" stroke-linejoin="round" stroke-linecap="round" d="M 9153,15488 L 9153,16368"/>
        <path fill="none" stroke="rgb(48,90,105)" stroke-width="0" stroke-linejoin="round" stroke-linecap="round" d="M 11946,14916 L 11946,15073"/>
        <path fill="none" stroke="rgb(48,90,105)" stroke-width="0" stroke-linejoin="round" stroke-linecap="round" d="M 11981,14916 L 11981,15073"/>
        <path fill="none" stroke="rgb(48,90,105)" stroke-width="0" stroke-linejoin="round" stroke-linecap="round" d="M 11946,15488 L 11946,16368"/>
        <path fill="none" stroke="rgb(48,90,105)" stroke-width="0" stroke-linejoin="round" stroke-linecap="round" d="M 11981,15488 L 11981,16368"/>
        <path fill="none" stroke="rgb(48,90,105)" stroke-width="0" stroke-linejoin="round" stroke-linecap="round" d="M 11709,14916 L 11709,15073"/>
        <path fill="none" stroke="rgb(48,90,105)" stroke-width="0" stroke-linejoin="round" stroke-linecap="round" d="M 11747,14916 L 11747,15073"/>
        <path fill="none" stroke="rgb(48,90,105)" stroke-width="0" stroke-linejoin="round" stroke-linecap="round" d="M 11709,15488 L 11709,16368"/>
        <path fill="none" stroke="rgb(48,90,105)" stroke-width="0" stroke-linejoin="round" stroke-linecap="round" d="M 11747,15488 L 11747,16368"/>
        <path fill="none" stroke="rgb(48,90,105)" stroke-width="0" stroke-linejoin="round" stroke-linecap="round" d="M 11475,14916 L 11475,15073"/>
        <path fill="none" stroke="rgb(48,90,105)" stroke-width="0" stroke-linejoin="round" stroke-linecap="round" d="M 11510,14916 L 11510,15073"/>
        <path fill="none" stroke="rgb(48,90,105)" stroke-width="0" stroke-linejoin="round" stroke-linecap="round" d="M 11475,15488 L 11475,16368"/>
        <path fill="none" stroke="rgb(48,90,105)" stroke-width="0" stroke-linejoin="round" stroke-linecap="round" d="M 11510,15488 L 11510,16368"/>
        <path fill="rgb(44,56,64)" stroke="none" d="M 11747,16368 L 11709,15488 11747,15488 11747,16368 Z"/>
        <path fill="rgb(44,56,64)" stroke="none" d="M 11709,15488 L 11747,16368 11709,16368 11709,15488 Z"/>
        <path fill="rgb(44,56,64)" stroke="none" d="M 11946,16368 L 11946,15488 11981,15488 11946,16368 Z"/>
        <path fill="rgb(44,56,64)" stroke="none" d="M 11981,15488 L 11981,16368 11946,16368 11981,15488 Z"/>
        <path fill="rgb(44,56,64)" stroke="none" d="M 11475,15488 L 11510,16368 11475,16368 11475,15488 Z"/>
        <path fill="rgb(44,56,64)" stroke="none" d="M 11510,15488 L 11510,16368 11475,15488 11510,15488 Z"/>
        <path fill="rgb(44,56,64)" stroke="none" d="M 11747,14916 L 11747,15073 11709,15073 11747,14916 Z"/>
        <path fill="rgb(44,56,64)" stroke="none" d="M 11709,14916 L 11747,14916 11709,15073 11709,14916 Z"/>
        <path fill="rgb(44,56,64)" stroke="none" d="M 11946,15073 L 11946,14916 11981,14916 11946,15073 Z"/>
        <path fill="rgb(44,56,64)" stroke="none" d="M 11981,14916 L 11981,15073 11946,15073 11981,14916 Z"/>
        <path fill="rgb(44,56,64)" stroke="none" d="M 11510,14916 L 11510,15073 11475,15073 11510,14916 Z"/>
        <path fill="rgb(44,56,64)" stroke="none" d="M 11475,14916 L 11510,14916 11475,15073 11475,14916 Z"/>
        <path fill="rgb(44,56,64)" stroke="none" d="M 9153,15488 L 9153,16368 9116,16368 9153,15488 Z"/>
        <path fill="rgb(44,56,64)" stroke="none" d="M 9116,15488 L 9153,15488 9116,16368 9116,15488 Z"/>
        <path fill="rgb(44,56,64)" stroke="none" d="M 9352,16368 L 9352,15488 9388,15488 9352,16368 Z"/>
        <path fill="rgb(44,56,64)" stroke="none" d="M 9388,15488 L 9388,16368 9352,16368 9388,15488 Z"/>
        <path fill="rgb(44,56,64)" stroke="none" d="M 9589,15488 L 9624,16368 9589,16368 9589,15488 Z"/>
        <path fill="rgb(44,56,64)" stroke="none" d="M 9624,15488 L 9624,16368 9589,15488 9624,15488 Z"/>
        <path fill="rgb(44,56,64)" stroke="none" d="M 9589,14916 L 9624,15073 9589,15073 9589,14916 Z"/>
        <path fill="rgb(44,56,64)" stroke="none" d="M 9624,14916 L 9624,15073 9589,14916 9624,14916 Z"/>
        <path fill="rgb(44,56,64)" stroke="none" d="M 9116,14916 L 9153,15073 9116,15073 9116,14916 Z"/>
        <path fill="rgb(44,56,64)" stroke="none" d="M 9352,14916 L 9388,15073 9352,15073 9352,14916 Z"/>
        <path fill="rgb(44,56,64)" stroke="none" d="M 9153,14916 L 9153,15073 9116,14916 9153,14916 Z"/>
        <path fill="rgb(44,56,64)" stroke="none" d="M 9388,14916 L 9388,15073 9352,14916 9388,14916 Z"/>
        <path fill="rgb(44,56,64)" stroke="none" d="M 8446,15488 L 8446,16368 8409,16368 8446,15488 Z"/>
        <path fill="rgb(44,56,64)" stroke="none" d="M 8409,15488 L 8446,15488 8409,16368 8409,15488 Z"/>
        <path fill="rgb(44,56,64)" stroke="none" d="M 8881,15488 L 8917,16368 8881,16368 8881,15488 Z"/>
        <path fill="rgb(44,56,64)" stroke="none" d="M 8645,15488 L 8680,16368 8645,16368 8645,15488 Z"/>
        <path fill="rgb(44,56,64)" stroke="none" d="M 8680,15488 L 8680,16368 8645,15488 8680,15488 Z"/>
        <path fill="rgb(44,56,64)" stroke="none" d="M 8917,15488 L 8917,16368 8881,15488 8917,15488 Z"/>
        <path fill="rgb(44,56,64)" stroke="none" d="M 8409,14918 L 8446,15073 8409,15073 8409,14918 Z"/>
        <path fill="rgb(44,56,64)" stroke="none" d="M 8418,14916 L 8446,15073 8409,14918 8418,14916 Z"/>
        <path fill="rgb(44,56,64)" stroke="none" d="M 8680,15073 L 8645,14916 8680,14916 8680,15073 Z"/>
        <path fill="rgb(44,56,64)" stroke="none" d="M 8645,14916 L 8680,15073 8645,15073 8645,14916 Z"/>
        <path fill="rgb(44,56,64)" stroke="none" d="M 8881,14916 L 8917,15073 8881,15073 8881,14916 Z"/>
        <path fill="rgb(44,56,64)" stroke="none" d="M 8446,14916 L 8446,15073 8418,14916 8446,14916 Z"/>
        <path fill="rgb(44,56,64)" stroke="none" d="M 8427,14916 L 8446,14916 8418,14916 8427,14916 Z"/>
        <path fill="rgb(44,56,64)" stroke="none" d="M 8917,14916 L 8917,15073 8881,14916 8917,14916 Z"/>
        <path fill="none" stroke="rgb(48,90,105)" stroke-width="0" stroke-linejoin="round" stroke-linecap="round" d="M 12718,15073 L 12718,15488 10736,15488 10736,15073"/>
        <path fill="rgb(44,56,64)" stroke="none" d="M 12417,16368 L 12417,15488 12454,15488 12417,16368 Z"/>
        <path fill="rgb(44,56,64)" stroke="none" d="M 12454,15488 L 12454,16368 12417,16368 12454,15488 Z"/>
        <path fill="rgb(44,56,64)" stroke="none" d="M 12182,16368 L 12182,15488 12218,15488 12182,16368 Z"/>
        <path fill="rgb(44,56,64)" stroke="none" d="M 12218,15488 L 12218,16368 12182,16368 12218,15488 Z"/>
        <path fill="rgb(44,56,64)" stroke="none" d="M 12454,14916 L 12454,15073 12417,15073 12454,14916 Z"/>
        <path fill="rgb(44,56,64)" stroke="none" d="M 12417,14916 L 12454,14916 12417,15073 12417,14916 Z"/>
        <path fill="rgb(44,56,64)" stroke="none" d="M 12182,15073 L 12182,14916 12218,14916 12182,15073 Z"/>
        <path fill="rgb(44,56,64)" stroke="none" d="M 12218,14916 L 12218,15073 12182,15073 12218,14916 Z"/>
        <path fill="none" stroke="rgb(48,90,105)" stroke-width="0" stroke-linejoin="round" stroke-linecap="round" d="M 8377,15073 L 10361,15073 10361,15488 8377,15488 8377,15073 10361,15073"/>
        <path fill="rgb(44,56,64)" stroke="none" d="M 11274,16368 L 11239,15488 11274,15488 11274,16368 Z"/>
        <path fill="rgb(44,56,64)" stroke="none" d="M 11239,15488 L 11274,16368 11239,16368 11239,15488 Z"/>
        <path fill="rgb(44,56,64)" stroke="none" d="M 11002,15488 L 11039,16368 11002,16368 11002,15488 Z"/>
        <path fill="rgb(44,56,64)" stroke="none" d="M 11039,15488 L 11039,16368 11002,15488 11039,15488 Z"/>
        <path fill="rgb(44,56,64)" stroke="none" d="M 10767,15488 L 10803,16368 10767,16368 10767,15488 Z"/>
        <path fill="rgb(44,56,64)" stroke="none" d="M 10803,15488 L 10803,16368 10767,15488 10803,15488 Z"/>
        <path fill="rgb(44,56,64)" stroke="none" d="M 11239,15073 L 11239,14916 11274,14916 11239,15073 Z"/>
        <path fill="rgb(44,56,64)" stroke="none" d="M 11274,14916 L 11274,15073 11239,15073 11274,14916 Z"/>
        <path fill="rgb(44,56,64)" stroke="none" d="M 11039,15073 L 11002,14916 11039,14916 11039,15073 Z"/>
        <path fill="rgb(44,56,64)" stroke="none" d="M 11002,14916 L 11039,15073 11002,15073 11002,14916 Z"/>
        <path fill="rgb(44,56,64)" stroke="none" d="M 10767,15073 L 10767,14916 10803,14916 10767,15073 Z"/>
        <path fill="rgb(44,56,64)" stroke="none" d="M 10803,14916 L 10803,15073 10767,15073 10803,14916 Z"/>
        <path fill="rgb(44,56,64)" stroke="none" d="M 10296,16368 L 10296,15488 10331,15488 10296,16368 Z"/>
        <path fill="rgb(44,56,64)" stroke="none" d="M 10331,15488 L 10331,16368 10296,16368 10331,15488 Z"/>
        <path fill="rgb(44,56,64)" stroke="none" d="M 10060,15488 L 10095,16368 10060,16368 10060,15488 Z"/>
        <path fill="rgb(44,56,64)" stroke="none" d="M 9860,15488 L 9860,16368 9823,16368 9860,15488 Z"/>
        <path fill="rgb(44,56,64)" stroke="none" d="M 10095,15488 L 10095,16368 10060,15488 10095,15488 Z"/>
        <path fill="rgb(44,56,64)" stroke="none" d="M 9823,15488 L 9860,15488 9823,16368 9823,15488 Z"/>
        <path fill="rgb(44,56,64)" stroke="none" d="M 10060,15073 L 10060,14916 10095,14916 10060,15073 Z"/>
        <path fill="rgb(44,56,64)" stroke="none" d="M 10095,14916 L 10095,15073 10060,15073 10095,14916 Z"/>
        <path fill="rgb(44,56,64)" stroke="none" d="M 9823,14916 L 9860,15073 9823,15073 9823,14916 Z"/>
        <path fill="rgb(44,56,64)" stroke="none" d="M 10296,15073 L 10296,14916 10331,14916 10296,15073 Z"/>
        <path fill="rgb(44,56,64)" stroke="none" d="M 10331,14916 L 10331,15073 10296,15073 10331,14916 Z"/>
        <path fill="rgb(44,56,64)" stroke="none" d="M 9860,14916 L 9860,15073 9823,14916 9860,14916 Z"/>
        <path fill="rgb(44,56,64)" stroke="none" d="M 10549,15642 L 10531,14916 10568,14916 10549,15642 Z"/>
        <path fill="rgb(44,56,64)" stroke="none" d="M 10549,15642 L 10568,14916 10568,16368 10549,15642 Z"/>
        <path fill="rgb(44,56,64)" stroke="none" d="M 10549,15642 L 10568,16368 10531,16368 10549,15642 Z"/>
        <path fill="rgb(44,56,64)" stroke="none" d="M 10549,15642 L 10531,16368 10531,14916 10549,15642 Z"/>
        <path fill="rgb(49,78,85)" stroke="none" d="M 9310,14242 L 11270,14242 11809,14548 11270,14855 9310,14855 9310,14242 Z"/>
        <path fill="rgb(223,133,55)" stroke="none" d="M 9346,14279 L 11260,14279 11539,14548 11260,14818 9346,14818 9346,14279 Z"/>
        <path fill="rgb(215,67,51)" stroke="none" d="M 10548,12832 L 10584,12833 10619,12835 10654,12840 10689,12846 10723,12854 10756,12864 10788,12875 10820,12887 10851,12901 10881,12916 10911,12933 10939,12952 10966,12971 10993,12992 11018,13014 11043,13037 11066,13061 11088,13087 11109,13113 11128,13141 11146,13169 11163,13198 11179,13229 11193,13260 11205,13291 11216,13324 11226,13357 11234,13391 11240,13426 11244,13461 11247,13496 11248,13532 11247,13568 11244,13604 11240,13639 11234,13673 11226,13707 11216,13740 11205,13773 11193,13805 11179,13836 11163,13866 11146,13895 11128,13924 11109,13951 11088,13978 11066,14003 11043,14027 11018,14050 10993,14073 10966,14093 10939,14113 10911,14131 10881,14148 10851,14163 10820,14177 10788,14190 10756,14201 10723,14210 10689,14218 10654,14224 10619,14229 10584,14231 10548,14232 10512,14231 10476,14229 10441,14224 10407,14218 10373,14210 10339,14201 10307,14190 10275,14177 10244,14163 10214,14148 10185,14131 10156,14113 10129,14093 10102,14073 10077,14050 10052,14027 10029,14003 10007,13978 9987,13951 9967,13924 9949,13895 9932,13866 9916,13836 9902,13805 9890,13773 9879,13740 9870,13707 9862,13673 9856,13639 9851,13604 9848,13568 9847,13532 9848,13496 9851,13461 9856,13426 9862,13391 9870,13357 9879,13324 9890,13291 9902,13260 9916,13229 9932,13198 9949,13169 9967,13141 9987,13113 10007,13087 10029,13061 10052,13037 10077,13014 10102,12992 10129,12971 10156,12952 10185,12933 10214,12916 10244,12901 10275,12887 10307,12875 10339,12864 10373,12854 10407,12846 10441,12840 10476,12835 10512,12833 10548,12832 Z"/>
        <path fill="rgb(255,255,255)" stroke="none" d="M 10548,13065 L 10554,13065 10559,13065 10565,13066 10571,13066 10577,13066 10583,13067 10589,13067 10595,13068 10600,13068 10606,13069 10612,13070 10618,13070 10624,13071 10629,13072 10635,13073 10641,13075 10646,13076 10652,13077 10658,13078 10663,13080 10669,13081 10674,13083 10680,13084 10685,13086 10691,13088 10697,13090 10702,13091 10708,13093 10713,13095 10719,13097 10724,13100 10729,13102 10734,13104 10739,13106 10745,13109 10750,13111 10755,13114 10760,13116 10765,13119 10770,13121 10775,13124 10780,13127 10784,13130 10789,13133 10794,13135 10799,13139 10804,13141 10808,13145 10813,13148 10817,13151 10822,13154 10826,13158 10831,13161 10835,13165 10840,13168 10844,13171 10849,13175 10853,13179 10857,13182 10861,13186 10865,13190 10870,13194 10874,13198 10878,13202 10882,13206 10886,13210 10890,13214 10893,13219 10897,13223 10901,13227 10905,13231 10908,13236 10912,13240 10915,13244 10919,13249 10922,13253 10925,13258 10929,13262 10932,13267 10935,13271 10938,13276 10941,13281 10944,13286 10947,13290 10950,13295 10953,13300 10956,13305 10958,13310 10961,13315 10964,13320 10966,13325 10969,13330 10971,13335 10973,13340 10975,13345 10978,13351 10980,13356 10982,13361 10985,13367 10986,13372 10988,13378 10990,13383 10992,13389 10994,13394 10995,13400 10997,13406 10999,13411 11000,13416 11001,13422 11003,13428 11004,13433 11005,13439 11006,13445 11007,13451 11008,13456 11009,13462 11010,13468 11011,13474 11011,13479 11012,13485 11013,13491 11013,13497 11014,13503 11014,13508 11014,13514 11014,13520 11014,13526 11015,13532 11014,13538 11014,13544 11014,13550 11014,13556 11014,13562 11013,13567 11013,13573 11012,13579 11011,13585 11011,13591 11010,13597 11009,13602 11008,13608 11007,13614 11006,13619 11005,13625 11004,13631 11003,13637 11001,13642 11000,13647 10999,13653 10997,13659 10995,13664 10994,13670 10992,13676 10990,13681 10988,13687 10986,13692 10985,13697 10982,13703 10980,13708 10978,13714 10975,13719 10973,13724 10971,13729 10969,13734 10966,13739 10964,13744 10961,13749 10958,13754 10956,13759 10953,13764 10950,13769 10947,13774 10944,13779 10941,13783 10938,13788 10935,13793 10932,13798 10929,13802 10925,13807 10922,13811 10919,13816 10915,13820 10912,13824 10908,13829 10905,13833 10901,13837 10897,13842 10893,13846 10890,13850 10886,13854 10882,13858 10878,13862 10874,13866 10870,13870 10865,13874 10861,13878 10857,13882 10853,13885 10849,13889 10844,13893 10840,13896 10835,13900 10831,13903 10826,13907 10822,13910 10817,13913 10813,13916 10808,13920 10804,13923 10799,13926 10794,13929 10789,13932 10784,13934 10780,13937 10775,13940 10770,13943 10765,13945 10760,13948 10755,13951 10750,13953 10745,13955 10739,13958 10734,13960 10729,13962 10724,13964 10719,13967 10713,13969 10708,13971 10702,13973 10697,13975 10691,13977 10685,13978 10680,13980 10674,13982 10669,13983 10663,13985 10658,13986 10652,13987 10646,13988 10641,13990 10635,13991 10629,13992 10624,13993 10618,13994 10612,13994 10606,13995 10600,13996 10595,13997 10589,13997 10583,13998 10577,13998 10571,13998 10565,13998 10559,13999 10554,13999 10548,13999 10542,13999 10536,13999 10530,13998 10524,13998 10518,13998 10512,13998 10506,13997 10501,13997 10495,13996 10489,13995 10483,13994 10478,13994 10472,13993 10466,13992 10460,13991 10455,13990 10449,13988 10443,13987 10438,13986 10432,13985 10427,13983 10421,13982 10415,13980 10410,13978 10404,13977 10399,13975 10393,13973 10388,13971 10382,13969 10377,13967 10371,13964 10366,13962 10361,13960 10356,13958 10351,13955 10345,13953 10340,13951 10335,13948 10330,13945 10325,13943 10320,13940 10316,13937 10311,13934 10306,13932 10301,13929 10296,13926 10292,13923 10287,13920 10283,13916 10278,13913 10273,13910 10269,13907 10264,13903 10260,13900 10255,13896 10251,13893 10247,13889 10243,13885 10238,13882 10234,13878 10230,13874 10226,13870 10222,13866 10217,13862 10214,13858 10210,13854 10206,13850 10202,13846 10198,13842 10194,13837 10191,13833 10187,13829 10183,13824 10180,13820 10177,13816 10173,13811 10170,13807 10167,13802 10163,13798 10160,13793 10157,13788 10154,13783 10151,13779 10148,13774 10145,13769 10142,13764 10140,13759 10137,13754 10134,13749 10132,13744 10129,13739 10127,13734 10124,13729 10122,13724 10120,13719 10117,13714 10115,13708 10113,13703 10111,13697 10109,13692 10107,13687 10105,13681 10103,13676 10102,13670 10100,13664 10098,13659 10097,13653 10095,13647 10094,13642 10092,13637 10091,13631 10090,13625 10089,13619 10088,13614 10087,13608 10086,13602 10085,13597 10084,13591 10084,13585 10083,13579 10082,13573 10082,13567 10082,13562 10082,13556 10081,13550 10081,13544 10081,13538 10081,13532 10081,13526 10081,13520 10081,13514 10082,13508 10082,13503 10082,13497 10082,13491 10083,13485 10084,13479 10084,13474 10085,13468 10086,13462 10087,13456 10088,13451 10089,13445 10090,13439 10091,13433 10092,13428 10094,13422 10095,13416 10097,13411 10098,13406 10100,13400 10102,13394 10103,13389 10105,13383 10107,13378 10109,13372 10111,13367 10113,13361 10115,13356 10117,13351 10120,13345 10122,13340 10124,13335 10127,13330 10129,13325 10132,13320 10134,13315 10137,13310 10140,13305 10142,13300 10145,13295 10148,13290 10151,13286 10154,13281 10157,13276 10160,13271 10163,13267 10167,13262 10170,13258 10173,13253 10177,13249 10180,13244 10183,13240 10187,13236 10191,13231 10194,13227 10198,13223 10202,13219 10206,13214 10210,13210 10214,13206 10217,13202 10222,13198 10226,13194 10230,13190 10234,13186 10238,13182 10243,13179 10247,13175 10251,13171 10255,13168 10260,13165 10264,13161 10269,13158 10273,13154 10278,13151 10283,13148 10287,13145 10292,13141 10296,13139 10301,13135 10306,13133 10311,13130 10316,13127 10320,13124 10325,13121 10330,13119 10335,13116 10340,13114 10345,13111 10351,13109 10356,13106 10361,13104 10366,13102 10371,13100 10377,13097 10382,13095 10388,13093 10393,13091 10399,13090 10404,13088 10410,13086 10415,13084 10421,13083 10427,13081 10432,13080 10438,13078 10443,13077 10449,13076 10455,13075 10460,13073 10466,13072 10472,13071 10478,13070 10483,13070 10489,13069 10495,13068 10501,13068 10506,13067 10512,13067 10518,13066 10524,13066 10530,13066 10536,13065 10542,13065 10548,13065 Z"/>
        <path fill="rgb(48,51,53)" stroke="none" d="M 10829,13633 L 10829,13718 10829,13719 10829,13720 10829,13721 10829,13722 10829,13723 10829,13723 10829,13724 10828,13725 10828,13726 10828,13726 10827,13727 10827,13727 10827,13728 10826,13728 10826,13728 10826,13729 10825,13729 10824,13729 10824,13729 10824,13729 10823,13730 10822,13730 10821,13730 10820,13730 10819,13731 10818,13731 10785,13731 10783,13731 10782,13731 10781,13731 10780,13731 10779,13730 10778,13729 10777,13729 10777,13728 10776,13728 10776,13727 10776,13727 10776,13727 10775,13727 10775,13727 10775,13727 10775,13726 10775,13725 10775,13724 10774,13724 10774,13723 10774,13722 10774,13722 10774,13720 10774,13719 10774,13642 10773,13642 10772,13642 10771,13643 10770,13643 10768,13643 10767,13643 10761,13644 10755,13645 10748,13646 10741,13646 10734,13647 10727,13647 10719,13648 10712,13648 10704,13649 10697,13649 10690,13649 10683,13650 10676,13650 10669,13650 10663,13650 10657,13651 10653,13651 10647,13651 10641,13651 10634,13651 10626,13651 10618,13651 10609,13652 10600,13652 10591,13652 10583,13652 10574,13652 10566,13652 10559,13652 10553,13652 10548,13652 10544,13652 10537,13652 10531,13652 10524,13652 10518,13652 10511,13652 10504,13652 10498,13652 10491,13652 10485,13652 10478,13652 10471,13651 10465,13651 10458,13651 10452,13650 10445,13650 10439,13649 10433,13649 10426,13649 10420,13649 10413,13648 10406,13648 10399,13648 10392,13647 10385,13647 10378,13647 10371,13647 10364,13647 10357,13646 10351,13646 10344,13646 10338,13645 10332,13645 10324,13644 10324,13717 10324,13723 10324,13723 10324,13724 10323,13725 10323,13725 10323,13727 10322,13728 10321,13729 10320,13730 10319,13730 10319,13730 10318,13730 10317,13731 10312,13731 10280,13731 10276,13731 10276,13730 10275,13730 10274,13730 10273,13730 10272,13729 10271,13728 10270,13727 10270,13727 10270,13726 10270,13725 10270,13724 10270,13723 10270,13722 10270,13720 10270,13718 10270,13718 10270,13633 10246,13633 10246,13633 10244,13633 10242,13633 10241,13633 10240,13633 10239,13632 10238,13631 10237,13630 10236,13630 10236,13629 10235,13629 10235,13628 10235,13627 10234,13627 10234,13627 10234,13626 10234,13625 10233,13624 10233,13623 10233,13622 10233,13619 10233,13617 10233,13616 10233,13614 10233,13612 10233,13610 10233,13607 10233,13602 10233,13599 10233,13595 10233,13591 10233,13587 10233,13584 10233,13580 10233,13575 10232,13571 10232,13567 10232,13562 10231,13558 10231,13553 10230,13549 10230,13544 10229,13539 10228,13534 10227,13530 10227,13525 10225,13521 10224,13516 10224,13515 10224,13513 10223,13512 10223,13510 10223,13508 10222,13506 10222,13505 10222,13503 10222,13502 10222,13499 10221,13497 10221,13495 10221,13492 10222,13490 10222,13488 10222,13485 10222,13483 10223,13481 10224,13478 10224,13476 10225,13474 10226,13471 10227,13469 10227,13467 10229,13465 10230,13464 10231,13462 10232,13460 10233,13459 10235,13457 10236,13456 10238,13454 10239,13453 10240,13452 10242,13450 10243,13449 10245,13448 10247,13447 10248,13446 10250,13445 10252,13443 10254,13441 10257,13440 10259,13439 10262,13437 10264,13436 10266,13436 10267,13436 10268,13435 10270,13435 10271,13435 10272,13435 10273,13435 10274,13435 10274,13434 10275,13434 10365,13319 10366,13318 10366,13317 10367,13316 10368,13316 10369,13315 10370,13314 10370,13313 10371,13313 10372,13313 10372,13312 10374,13312 10376,13311 10377,13311 10377,13311 10378,13311 10379,13311 10380,13311 10382,13311 10383,13311 10384,13311 10711,13311 10712,13311 10714,13311 10715,13311 10716,13311 10717,13311 10718,13311 10719,13311 10719,13311 10720,13311 10721,13312 10722,13312 10723,13312 10724,13313 10724,13313 10725,13313 10726,13314 10726,13314 10727,13315 10728,13315 10729,13316 10732,13320 10825,13435 10825,13436 10826,13436 10827,13436 10827,13436 10828,13437 10829,13437 10830,13437 10830,13437 10833,13438 10835,13439 10837,13440 10839,13441 10842,13442 10844,13443 10846,13445 10848,13446 10849,13447 10851,13448 10852,13449 10853,13450 10854,13451 10856,13452 10857,13453 10858,13455 10859,13456 10860,13457 10861,13459 10862,13460 10863,13461 10864,13463 10865,13464 10865,13466 10866,13467 10868,13469 10868,13471 10869,13472 10870,13474 10870,13475 10871,13477 10872,13478 10873,13482 10873,13485 10874,13488 10875,13492 10874,13495 10874,13498 10874,13502 10873,13506 10873,13510 10872,13513 10871,13517 10871,13519 10870,13522 10870,13525 10869,13528 10869,13531 10868,13534 10868,13537 10867,13540 10867,13543 10866,13546 10866,13549 10865,13552 10865,13556 10865,13559 10865,13562 10865,13565 10865,13568 10864,13571 10864,13574 10863,13577 10863,13580 10863,13582 10862,13585 10862,13588 10862,13591 10862,13594 10862,13597 10862,13599 10862,13602 10863,13605 10863,13608 10863,13611 10863,13614 10863,13616 10863,13618 10863,13621 10863,13623 10863,13624 10863,13625 10863,13626 10863,13627 10863,13627 10862,13628 10862,13629 10862,13629 10861,13630 10861,13630 10860,13631 10859,13632 10859,13633 10858,13633 10858,13633 10858,13633 10857,13633 10857,13633 10855,13633 10854,13633 10852,13633 10851,13633 10829,13633 Z"/>
        <path fill="rgb(255,255,255)" stroke="none" d="M 10286,13466 L 10288,13466 10290,13467 10292,13467 10294,13467 10296,13468 10298,13468 10300,13469 10302,13470 10303,13470 10305,13471 10307,13472 10308,13473 10310,13474 10312,13475 10313,13477 10314,13478 10316,13479 10317,13481 10318,13482 10319,13484 10321,13485 10322,13487 10323,13489 10323,13490 10324,13492 10325,13494 10325,13496 10326,13498 10326,13500 10327,13502 10327,13504 10327,13506 10327,13508 10327,13510 10326,13512 10326,13514 10325,13516 10325,13518 10324,13520 10323,13522 10323,13523 10322,13525 10321,13527 10319,13529 10318,13530 10317,13532 10316,13533 10314,13534 10313,13536 10311,13537 10310,13538 10308,13539 10306,13540 10305,13541 10303,13542 10301,13543 10299,13544 10297,13544 10295,13545 10293,13545 10291,13545 10289,13545 10287,13546 10285,13545 10283,13545 10281,13545 10278,13545 10277,13545 10274,13544 10273,13544 10271,13543 10269,13542 10267,13542 10265,13541 10263,13540 10262,13539 10260,13537 10259,13536 10257,13535 10256,13534 10254,13532 10253,13531 10252,13529 10251,13528 10250,13526 10249,13525 10248,13523 10247,13521 10246,13519 10246,13517 10245,13516 10245,13514 10244,13512 10244,13510 10244,13508 10244,13506 10244,13504 10244,13502 10244,13500 10245,13498 10245,13496 10246,13494 10247,13493 10248,13491 10248,13489 10249,13487 10250,13486 10251,13484 10253,13482 10254,13481 10255,13480 10257,13478 10258,13477 10259,13476 10261,13475 10263,13473 10264,13472 10266,13472 10268,13471 10269,13470 10271,13469 10273,13468 10275,13468 10277,13467 10279,13467 10282,13467 10283,13466 10286,13466 Z"/>
        <path fill="rgb(255,255,255)" stroke="none" d="M 10467,13506 L 10467,13595 10348,13595 10347,13595 10345,13595 10344,13595 10343,13595 10342,13595 10340,13595 10338,13595 10337,13594 10336,13594 10336,13594 10335,13593 10334,13593 10334,13593 10333,13592 10333,13592 10332,13591 10331,13590 10331,13589 10330,13588 10330,13587 10329,13586 10329,13585 10329,13583 10329,13582 10329,13581 10329,13580 10329,13579 10330,13578 10330,13578 10330,13577 10331,13577 10331,13576 10369,13514 10369,13514 10369,13513 10369,13513 10369,13512 10370,13512 10370,13511 10371,13511 10371,13510 10372,13509 10374,13508 10374,13507 10375,13507 10376,13507 10376,13507 10377,13507 10378,13506 10379,13506 10380,13506 10382,13506 10384,13506 10388,13506 10467,13506 Z"/>
        <path fill="rgb(255,255,255)" stroke="none" d="M 10476,13506 L 10620,13506 10620,13595 10476,13595 10476,13506 Z"/>
        <path fill="rgb(255,255,255)" stroke="none" d="M 10630,13506 L 10706,13506 10708,13506 10710,13506 10711,13506 10713,13506 10714,13506 10714,13506 10715,13506 10716,13507 10719,13507 10720,13508 10721,13508 10722,13508 10723,13509 10724,13509 10725,13510 10726,13511 10726,13512 10726,13512 10726,13513 10727,13513 10727,13514 10727,13515 10728,13515 10728,13516 10766,13575 10766,13576 10766,13577 10767,13578 10767,13579 10767,13581 10767,13582 10768,13584 10767,13585 10767,13586 10767,13588 10766,13589 10766,13590 10765,13591 10765,13591 10765,13592 10764,13592 10764,13593 10764,13593 10763,13593 10763,13594 10762,13594 10761,13595 10761,13595 10760,13595 10759,13595 10759,13595 10758,13595 10757,13595 10755,13595 10753,13595 10751,13595 10749,13595 10630,13595 10630,13506 Z"/>
        <path fill="rgb(255,255,255)" stroke="none" d="M 10810,13466 L 10812,13466 10814,13467 10816,13467 10818,13467 10820,13468 10822,13468 10824,13469 10826,13470 10828,13471 10830,13472 10832,13472 10833,13473 10835,13475 10837,13476 10838,13477 10839,13478 10841,13480 10842,13481 10844,13482 10845,13484 10846,13486 10847,13487 10848,13489 10849,13491 10849,13493 10850,13494 10850,13496 10851,13498 10851,13500 10852,13502 10852,13504 10852,13506 10852,13508 10851,13510 10851,13512 10851,13514 10850,13516 10849,13518 10849,13520 10848,13522 10847,13523 10846,13525 10845,13527 10844,13529 10843,13530 10841,13532 10840,13533 10839,13535 10837,13536 10836,13537 10834,13538 10832,13540 10831,13541 10829,13542 10827,13542 10825,13543 10823,13544 10821,13545 10819,13545 10817,13546 10815,13546 10813,13546 10811,13547 10809,13547 10807,13547 10804,13546 10803,13546 10801,13546 10799,13545 10797,13545 10795,13544 10793,13543 10791,13542 10789,13542 10788,13541 10786,13540 10784,13538 10783,13537 10781,13536 10780,13535 10779,13533 10777,13532 10776,13531 10775,13529 10774,13527 10773,13526 10772,13524 10771,13522 10770,13520 10770,13519 10769,13517 10769,13515 10768,13513 10768,13511 10768,13509 10768,13507 10768,13505 10768,13503 10768,13501 10769,13498 10769,13497 10770,13494 10770,13492 10771,13491 10772,13489 10773,13487 10774,13485 10775,13484 10776,13482 10777,13481 10779,13479 10780,13477 10782,13476 10783,13475 10785,13474 10786,13473 10788,13472 10790,13471 10792,13470 10794,13469 10795,13468 10797,13468 10799,13467 10801,13467 10804,13467 10806,13466 10808,13466 10810,13466 Z"/>
        <path fill="rgb(255,255,255)" stroke="none" d="M 10796,13439 L 10795,13439 10794,13439 10792,13439 10790,13439 10672,13430 10664,13430 10656,13429 10648,13429 10640,13428 10631,13428 10622,13428 10613,13428 10604,13428 10594,13427 10585,13427 10576,13427 10567,13427 10559,13428 10551,13428 10543,13428 10535,13428 10529,13428 10523,13428 10516,13428 10508,13428 10501,13428 10493,13428 10484,13428 10476,13428 10468,13428 10460,13428 10452,13428 10444,13429 10437,13429 10430,13429 10423,13429 10417,13429 10306,13436 10299,13436 10375,13341 10376,13340 10377,13339 10377,13339 10377,13338 10377,13338 10377,13337 10379,13337 10380,13336 10382,13335 10383,13334 10384,13334 10385,13334 10386,13333 10387,13333 10388,13333 10388,13333 10390,13333 10391,13333 10393,13333 10394,13333 10700,13333 10702,13333 10704,13333 10705,13333 10706,13333 10707,13333 10707,13333 10708,13333 10709,13334 10710,13334 10711,13334 10712,13334 10713,13334 10713,13335 10713,13335 10714,13335 10714,13335 10715,13336 10717,13336 10718,13337 10719,13338 10719,13340 10720,13341 10796,13439 Z"/>
       </g>
      </g>
     </g>
    </g>
   </g>
  </g>
 </g>
</svg>