<?xml version="1.0" encoding="UTF-8"?>
<!DOCTYPE svg PUBLIC "-//W3C//DTD SVG 1.1//EN" "http://www.w3.org/Graphics/SVG/1.1/DTD/svg11.dtd">
<svg version="1.2" width="50.03mm" height="35.19mm" viewBox="8046 13148 5003 3519" preserveAspectRatio="xMidYMid" fill-rule="evenodd" stroke-width="28.222" stroke-linejoin="round" xmlns="http://www.w3.org/2000/svg" xmlns:ooo="http://xml.openoffice.org/svg/export" xmlns:xlink="http://www.w3.org/1999/xlink" xmlns:presentation="http://sun.com/xmlns/staroffice/presentation" xmlns:smil="http://www.w3.org/2001/SMIL20/" xmlns:anim="urn:oasis:names:tc:opendocument:xmlns:animation:1.0" xml:space="preserve">
 <defs class="ClipPathGroup">
  <clipPath id="presentation_clip_path" clipPathUnits="userSpaceOnUse">
   <rect x="8046" y="13148" width="5003" height="3519"/>
  </clipPath>
  <clipPath id="presentation_clip_path_shrink" clipPathUnits="userSpaceOnUse">
   <rect x="8051" y="13151" width="4993" height="3512"/>
  </clipPath>
 </defs>
 <defs class="TextShapeIndex">
  <g ooo:slide="id1" ooo:id-list="id3"/>
 </defs>
 <defs class="EmbeddedBulletChars">
  <g id="bullet-char-template-57356" transform="scale(0.00048828125,-0.00048828125)">
   <path d="M 580,1141 L 1163,571 580,0 -4,571 580,1141 Z"/>
  </g>
  <g id="bullet-char-template-57354" transform="scale(0.00048828125,-0.00048828125)">
   <path d="M 8,1128 L 1137,1128 1137,0 8,0 8,1128 Z"/>
  </g>
  <g id="bullet-char-template-10146" transform="scale(0.00048828125,-0.00048828125)">
   <path d="M 174,0 L 602,739 174,1481 1456,739 174,0 Z M 1358,739 L 309,1346 659,739 1358,739 Z"/>
  </g>
  <g id="bullet-char-template-10132" transform="scale(0.00048828125,-0.00048828125)">
   <path d="M 2015,739 L 1276,0 717,0 1260,543 174,543 174,936 1260,936 717,1481 1274,1481 2015,739 Z"/>
  </g>
  <g id="bullet-char-template-10007" transform="scale(0.00048828125,-0.00048828125)">
   <path d="M 0,-2 C -7,14 -16,27 -25,37 L 356,567 C 262,823 215,952 215,954 215,979 228,992 255,992 264,992 276,990 289,987 310,991 331,999 354,1012 L 381,999 492,748 772,1049 836,1024 860,1049 C 881,1039 901,1025 922,1006 886,937 835,863 770,784 769,783 710,716 594,584 L 774,223 C 774,196 753,168 711,139 L 727,119 C 717,90 699,76 672,76 641,76 570,178 457,381 L 164,-76 C 142,-110 111,-127 72,-127 30,-127 9,-110 8,-76 1,-67 -2,-52 -2,-32 -2,-23 -1,-13 0,-2 Z"/>
  </g>
  <g id="bullet-char-template-10004" transform="scale(0.00048828125,-0.00048828125)">
   <path d="M 285,-33 C 182,-33 111,30 74,156 52,228 41,333 41,471 41,549 55,616 82,672 116,743 169,778 240,778 293,778 328,747 346,684 L 369,508 C 377,444 397,411 428,410 L 1163,1116 C 1174,1127 1196,1133 1229,1133 1271,1133 1292,1118 1292,1087 L 1292,965 C 1292,929 1282,901 1262,881 L 442,47 C 390,-6 338,-33 285,-33 Z"/>
  </g>
  <g id="bullet-char-template-9679" transform="scale(0.00048828125,-0.00048828125)">
   <path d="M 813,0 C 632,0 489,54 383,161 276,268 223,411 223,592 223,773 276,916 383,1023 489,1130 632,1184 813,1184 992,1184 1136,1130 1245,1023 1353,916 1407,772 1407,592 1407,412 1353,268 1245,161 1136,54 992,0 813,0 Z"/>
  </g>
  <g id="bullet-char-template-8226" transform="scale(0.00048828125,-0.00048828125)">
   <path d="M 346,457 C 273,457 209,483 155,535 101,586 74,649 74,723 74,796 101,859 155,911 209,963 273,989 346,989 419,989 480,963 531,910 582,859 608,796 608,723 608,648 583,586 532,535 482,483 420,457 346,457 Z"/>
  </g>
  <g id="bullet-char-template-8211" transform="scale(0.00048828125,-0.00048828125)">
   <path d="M -4,459 L 1135,459 1135,606 -4,606 -4,459 Z"/>
  </g>
  <g id="bullet-char-template-61548" transform="scale(0.00048828125,-0.00048828125)">
   <path d="M 173,740 C 173,903 231,1043 346,1159 462,1274 601,1332 765,1332 928,1332 1067,1274 1183,1159 1299,1043 1357,903 1357,740 1357,577 1299,437 1183,322 1067,206 928,148 765,148 601,148 462,206 346,322 231,437 173,577 173,740 Z"/>
  </g>
 </defs>
 <defs class="TextEmbeddedBitmaps"/>
 <g class="SlideGroup">
  <g>
   <g id="container-id1">
    <g id="id1" class="Slide" clip-path="url(#presentation_clip_path)">
     <g class="Page">
      <g class="Graphic">
       <g id="id3">
        <rect class="BoundingBox" stroke="none" fill="none" x="8046" y="13148" width="5004" height="3520"/>
        <path fill="rgb(255,255,255)" stroke="none" d="M 8665,15173 L 10324,15173 10324,14754 8665,14754 8665,15173 Z"/>
        <path fill="rgb(255,255,255)" stroke="none" d="M 10857,15173 L 12517,15173 12517,14752 10857,14752 10857,15173 Z"/>
        <path fill="none" stroke="rgb(51,78,88)" stroke-width="0" stroke-linejoin="round" stroke-linecap="round" d="M 8050,16069 L 8050,14938"/>
        <path fill="none" stroke="rgb(51,78,88)" stroke-width="0" stroke-linejoin="round" stroke-linecap="round" d="M 8423,14563 L 8372,14567 8318,14578 8268,14596 8222,14622 8180,14655 8140,14692 8109,14735 8083,14783 8064,14833 8054,14885 8050,14938"/>
        <path fill="none" stroke="rgb(51,78,88)" stroke-width="0" stroke-linejoin="round" stroke-linecap="round" d="M 8423,14563 L 12671,14563"/>
        <path fill="none" stroke="rgb(51,78,88)" stroke-width="0" stroke-linejoin="round" stroke-linecap="round" d="M 13046,14938 L 13042,14885 13032,14833 13011,14783 12987,14735 12954,14693 12917,14655 12874,14622 12826,14596 12776,14578 12724,14567 12671,14563"/>
        <path fill="none" stroke="rgb(51,78,88)" stroke-width="0" stroke-linejoin="round" stroke-linecap="round" d="M 13046,14938 L 13046,16069"/>
        <path fill="none" stroke="rgb(51,78,88)" stroke-width="0" stroke-linejoin="round" stroke-linecap="round" d="M 13009,16069 L 13009,16664"/>
        <path fill="none" stroke="rgb(51,78,88)" stroke-width="0" stroke-linejoin="round" stroke-linecap="round" d="M 13046,16069 L 13046,16664"/>
        <path fill="none" stroke="rgb(51,78,88)" stroke-width="0" stroke-linejoin="round" stroke-linecap="round" d="M 13009,16069 L 13009,14938 13007,14890 12996,14842 12980,14798 12956,14755 12928,14716 12893,14681 12854,14652 12811,14629 12767,14613 12719,14602 12671,14598 8423,14598 8375,14602 8329,14613 8283,14629 8241,14652 8201,14681 8168,14716 8139,14755 8114,14798 8098,14842 8089,14890 8085,14938"/>
        <path fill="none" stroke="rgb(51,78,88)" stroke-width="0" stroke-linejoin="round" stroke-linecap="round" d="M 13009,16088 L 8085,16088"/>
        <path fill="none" stroke="rgb(51,78,88)" stroke-width="0" stroke-linejoin="round" stroke-linecap="round" d="M 13009,16051 L 8085,16051"/>
        <path fill="none" stroke="rgb(51,78,88)" stroke-width="0" stroke-linejoin="round" stroke-linecap="round" d="M 8050,16069 L 8050,16664"/>
        <path fill="none" stroke="rgb(51,78,88)" stroke-width="0" stroke-linejoin="round" stroke-linecap="round" d="M 8085,16664 L 8085,16069 8085,14938"/>
        <path fill="none" stroke="rgb(51,78,88)" stroke-width="0" stroke-linejoin="round" stroke-linecap="round" d="M 8442,14598 L 8442,16051"/>
        <path fill="none" stroke="rgb(51,78,88)" stroke-width="0" stroke-linejoin="round" stroke-linecap="round" d="M 8678,14598 L 8678,16051"/>
        <path fill="none" stroke="rgb(51,78,88)" stroke-width="0" stroke-linejoin="round" stroke-linecap="round" d="M 8641,14598 L 8641,16051"/>
        <path fill="none" stroke="rgb(51,78,88)" stroke-width="0" stroke-linejoin="round" stroke-linecap="round" d="M 8913,14598 L 8913,16051"/>
        <path fill="none" stroke="rgb(51,78,88)" stroke-width="0" stroke-linejoin="round" stroke-linecap="round" d="M 8878,14598 L 8878,16051"/>
        <path fill="none" stroke="rgb(51,78,88)" stroke-width="0" stroke-linejoin="round" stroke-linecap="round" d="M 9857,14598 L 9857,16051"/>
        <path fill="none" stroke="rgb(51,78,88)" stroke-width="0" stroke-linejoin="round" stroke-linecap="round" d="M 9822,14598 L 9822,16051"/>
        <path fill="none" stroke="rgb(51,78,88)" stroke-width="0" stroke-linejoin="round" stroke-linecap="round" d="M 10094,14598 L 10094,16051"/>
        <path fill="none" stroke="rgb(51,78,88)" stroke-width="0" stroke-linejoin="round" stroke-linecap="round" d="M 10057,14598 L 10057,16051"/>
        <path fill="none" stroke="rgb(51,78,88)" stroke-width="0" stroke-linejoin="round" stroke-linecap="round" d="M 10329,14598 L 10329,16051"/>
        <path fill="none" stroke="rgb(51,78,88)" stroke-width="0" stroke-linejoin="round" stroke-linecap="round" d="M 10294,14598 L 10294,16051"/>
        <path fill="none" stroke="rgb(51,78,88)" stroke-width="0" stroke-linejoin="round" stroke-linecap="round" d="M 10566,14598 L 10566,16051"/>
        <path fill="none" stroke="rgb(51,78,88)" stroke-width="0" stroke-linejoin="round" stroke-linecap="round" d="M 10529,14598 L 10529,16051"/>
        <path fill="none" stroke="rgb(51,78,88)" stroke-width="0" stroke-linejoin="round" stroke-linecap="round" d="M 10800,14598 L 10800,16051"/>
        <path fill="none" stroke="rgb(51,78,88)" stroke-width="0" stroke-linejoin="round" stroke-linecap="round" d="M 10765,14598 L 10765,16051"/>
        <path fill="none" stroke="rgb(51,78,88)" stroke-width="0" stroke-linejoin="round" stroke-linecap="round" d="M 11037,14598 L 11037,16051"/>
        <path fill="none" stroke="rgb(51,78,88)" stroke-width="0" stroke-linejoin="round" stroke-linecap="round" d="M 11002,14598 L 11002,16051"/>
        <path fill="none" stroke="rgb(51,78,88)" stroke-width="0" stroke-linejoin="round" stroke-linecap="round" d="M 11274,14598 L 11274,16051"/>
        <path fill="none" stroke="rgb(51,78,88)" stroke-width="0" stroke-linejoin="round" stroke-linecap="round" d="M 11237,14598 L 11237,16051"/>
        <path fill="none" stroke="rgb(51,78,88)" stroke-width="0" stroke-linejoin="round" stroke-linecap="round" d="M 11508,14598 L 11508,14755"/>
        <path fill="none" stroke="rgb(51,78,88)" stroke-width="0" stroke-linejoin="round" stroke-linecap="round" d="M 11473,14598 L 11473,14755"/>
        <path fill="none" stroke="rgb(51,78,88)" stroke-width="0" stroke-linejoin="round" stroke-linecap="round" d="M 12216,14598 L 12216,16051"/>
        <path fill="none" stroke="rgb(51,78,88)" stroke-width="0" stroke-linejoin="round" stroke-linecap="round" d="M 12181,14598 L 12181,16051"/>
        <path fill="none" stroke="rgb(51,78,88)" stroke-width="0" stroke-linejoin="round" stroke-linecap="round" d="M 12453,14598 L 12453,16051"/>
        <path fill="none" stroke="rgb(51,78,88)" stroke-width="0" stroke-linejoin="round" stroke-linecap="round" d="M 12418,14598 L 12418,16051"/>
        <path fill="none" stroke="rgb(51,78,88)" stroke-width="0" stroke-linejoin="round" stroke-linecap="round" d="M 12689,14598 L 12689,16051"/>
        <path fill="none" stroke="rgb(51,78,88)" stroke-width="0" stroke-linejoin="round" stroke-linecap="round" d="M 12652,14598 L 12652,16051"/>
        <path fill="none" stroke="rgb(51,78,88)" stroke-width="0" stroke-linejoin="round" stroke-linecap="round" d="M 13046,16664 L 13009,16664"/>
        <path fill="none" stroke="rgb(51,78,88)" stroke-width="0" stroke-linejoin="round" stroke-linecap="round" d="M 8085,16664 L 8050,16664"/>
        <path fill="rgb(38,46,52)" stroke="none" d="M 13046,16069 L 13009,16664 13046,16664 13046,16069 Z"/>
        <path fill="rgb(38,46,52)" stroke="none" d="M 8085,16069 L 8050,16664 8085,16664 8085,16069 Z"/>
        <path fill="rgb(38,46,52)" stroke="none" d="M 13009,16069 L 13009,16664 13046,16069 13009,16069 Z"/>
        <path fill="rgb(38,46,52)" stroke="none" d="M 8050,16069 L 8050,16664 8085,16069 8050,16069 Z"/>
        <path fill="rgb(38,46,52)" stroke="none" d="M 8085,14938 L 8050,16069 8085,16069 8085,14938 Z"/>
        <path fill="rgb(38,46,52)" stroke="none" d="M 13046,14938 L 13009,16069 13046,16069 13046,14938 Z"/>
        <path fill="rgb(38,46,52)" stroke="none" d="M 8050,14938 L 8050,16069 8085,14938 8050,14938 Z"/>
        <path fill="rgb(38,46,52)" stroke="none" d="M 13009,14938 L 13009,16069 13046,14938 13009,14938 Z"/>
        <path fill="rgb(38,46,52)" stroke="none" d="M 8089,14890 L 8050,14938 8085,14938 8089,14890 Z"/>
        <path fill="rgb(38,46,52)" stroke="none" d="M 13007,14890 L 13009,14938 13046,14938 13007,14890 Z"/>
        <path fill="rgb(38,46,52)" stroke="none" d="M 13042,14885 L 13007,14890 13046,14938 13042,14885 Z"/>
        <path fill="rgb(38,46,52)" stroke="none" d="M 8054,14885 L 8050,14938 8089,14890 8054,14885 Z"/>
        <path fill="rgb(38,46,52)" stroke="none" d="M 12996,14842 L 13007,14890 13042,14885 12996,14842 Z"/>
        <path fill="rgb(38,46,52)" stroke="none" d="M 8098,14842 L 8054,14885 8089,14890 8098,14842 Z"/>
        <path fill="rgb(38,46,52)" stroke="none" d="M 13032,14833 L 12996,14842 13042,14885 13032,14833 Z"/>
        <path fill="rgb(38,46,52)" stroke="none" d="M 8064,14833 L 8054,14885 8098,14842 8064,14833 Z"/>
        <path fill="rgb(38,46,52)" stroke="none" d="M 8114,14798 L 8064,14833 8098,14842 8114,14798 Z"/>
        <path fill="rgb(38,46,52)" stroke="none" d="M 12980,14798 L 12996,14842 13032,14833 12980,14798 Z"/>
        <path fill="rgb(38,46,52)" stroke="none" d="M 13011,14783 L 12980,14798 13032,14833 13011,14783 Z"/>
        <path fill="rgb(38,46,52)" stroke="none" d="M 8083,14783 L 8064,14833 8114,14798 8083,14783 Z"/>
        <path fill="rgb(38,46,52)" stroke="none" d="M 8139,14755 L 8083,14783 8114,14798 8139,14755 Z"/>
        <path fill="rgb(38,46,52)" stroke="none" d="M 12956,14755 L 12980,14798 13011,14783 12956,14755 Z"/>
        <path fill="rgb(38,46,52)" stroke="none" d="M 12987,14735 L 12956,14755 13011,14783 12987,14735 Z"/>
        <path fill="rgb(38,46,52)" stroke="none" d="M 8109,14735 L 8083,14783 8139,14755 8109,14735 Z"/>
        <path fill="rgb(38,46,52)" stroke="none" d="M 12928,14716 L 12956,14755 12987,14735 12928,14716 Z"/>
        <path fill="rgb(38,46,52)" stroke="none" d="M 8168,14716 L 8109,14735 8139,14755 8168,14716 Z"/>
        <path fill="rgb(38,46,52)" stroke="none" d="M 12954,14692 L 12928,14716 12987,14735 12954,14693 12954,14692 Z"/>
        <path fill="rgb(38,46,52)" stroke="none" d="M 8140,14692 L 8109,14735 8168,14716 8140,14692 Z"/>
        <path fill="rgb(38,46,52)" stroke="none" d="M 12893,14681 L 12928,14716 12954,14692 12893,14681 Z"/>
        <path fill="rgb(38,46,52)" stroke="none" d="M 8201,14681 L 8140,14692 8168,14716 8201,14681 Z"/>
        <path fill="rgb(38,46,52)" stroke="none" d="M 12917,14655 L 12893,14681 12954,14692 12917,14655 Z"/>
        <path fill="rgb(38,46,52)" stroke="none" d="M 8180,14655 L 8140,14692 8201,14681 8180,14655 Z"/>
        <path fill="rgb(38,46,52)" stroke="none" d="M 12854,14652 L 12893,14681 12917,14655 12854,14652 Z"/>
        <path fill="rgb(38,46,52)" stroke="none" d="M 8241,14652 L 8180,14655 8201,14681 8241,14652 Z"/>
        <path fill="rgb(38,46,52)" stroke="none" d="M 12811,14629 L 12854,14652 12917,14655 12811,14629 Z"/>
        <path fill="rgb(38,46,52)" stroke="none" d="M 8283,14629 L 8180,14655 8241,14652 8283,14629 Z"/>
        <path fill="rgb(38,46,52)" stroke="none" d="M 12874,14622 L 12811,14629 12917,14655 12874,14622 Z"/>
        <path fill="rgb(38,46,52)" stroke="none" d="M 8222,14622 L 8180,14655 8283,14629 8222,14622 Z"/>
        <path fill="rgb(38,46,52)" stroke="none" d="M 8329,14613 L 8222,14622 8283,14629 8329,14613 Z"/>
        <path fill="rgb(38,46,52)" stroke="none" d="M 12767,14613 L 12811,14629 12874,14622 12767,14613 Z"/>
        <path fill="rgb(38,46,52)" stroke="none" d="M 8375,14602 L 8222,14622 8329,14613 8375,14602 Z"/>
        <path fill="rgb(38,46,52)" stroke="none" d="M 12719,14602 L 12767,14613 12874,14622 12719,14602 Z"/>
        <path fill="rgb(38,46,52)" stroke="none" d="M 12826,14596 L 8423,14598 12671,14598 12826,14596 Z"/>
        <path fill="rgb(38,46,52)" stroke="none" d="M 12826,14596 L 12671,14598 12719,14602 12826,14596 Z"/>
        <path fill="rgb(38,46,52)" stroke="none" d="M 12826,14596 L 12719,14602 12874,14622 12826,14596 Z"/>
        <path fill="rgb(38,46,52)" stroke="none" d="M 8268,14596 L 8423,14598 12826,14596 8268,14596 Z"/>
        <path fill="rgb(38,46,52)" stroke="none" d="M 8268,14596 L 8375,14602 8423,14598 8268,14596 Z"/>
        <path fill="rgb(38,46,52)" stroke="none" d="M 8268,14596 L 8222,14622 8375,14602 8268,14596 Z"/>
        <path fill="rgb(38,46,52)" stroke="none" d="M 12776,14578 L 8268,14596 12826,14596 12776,14578 Z"/>
        <path fill="rgb(38,46,52)" stroke="none" d="M 8318,14578 L 8268,14596 12776,14578 8318,14578 Z"/>
        <path fill="rgb(38,46,52)" stroke="none" d="M 12724,14567 L 8318,14578 12776,14578 12724,14567 Z"/>
        <path fill="rgb(38,46,52)" stroke="none" d="M 8372,14567 L 8318,14578 12724,14567 8372,14567 Z"/>
        <path fill="rgb(38,46,52)" stroke="none" d="M 8372,14567 L 12671,14563 8423,14563 8372,14567 Z"/>
        <path fill="rgb(38,46,52)" stroke="none" d="M 12671,14563 L 8372,14567 12724,14567 12671,14563 Z"/>
        <path fill="rgb(38,46,52)" stroke="none" d="M 13009,16069 L 8085,16088 13009,16088 13009,16069 Z"/>
        <path fill="rgb(38,46,52)" stroke="none" d="M 8085,16069 L 8085,16088 13009,16069 8085,16069 Z"/>
        <path fill="rgb(38,46,52)" stroke="none" d="M 8442,16051 L 8085,16069 13009,16069 8442,16051 Z"/>
        <path fill="rgb(38,46,52)" stroke="none" d="M 10566,16051 L 8442,16051 13009,16069 10566,16051 Z"/>
        <path fill="rgb(38,46,52)" stroke="none" d="M 9386,16051 L 8442,16051 10566,16051 9386,16051 Z"/>
        <path fill="rgb(38,46,52)" stroke="none" d="M 8913,16051 L 8442,16051 9386,16051 8913,16051 Z"/>
        <path fill="rgb(38,46,52)" stroke="none" d="M 12689,16051 L 10566,16051 13009,16069 12689,16051 Z"/>
        <path fill="rgb(38,46,52)" stroke="none" d="M 10529,16051 L 9386,16051 10566,16051 10529,16051 Z"/>
        <path fill="rgb(38,46,52)" stroke="none" d="M 12652,16051 L 10566,16051 12689,16051 12652,16051 Z"/>
        <path fill="rgb(38,46,52)" stroke="none" d="M 9349,16051 L 8913,16051 9386,16051 9349,16051 Z"/>
        <path fill="rgb(38,46,52)" stroke="none" d="M 8878,16051 L 8442,16051 8913,16051 8878,16051 Z"/>
        <path fill="rgb(38,46,52)" stroke="none" d="M 8407,16051 L 8085,16069 8442,16051 8407,16051 Z"/>
        <path fill="rgb(38,46,52)" stroke="none" d="M 9150,16051 L 8913,16051 9349,16051 9150,16051 Z"/>
        <path fill="rgb(38,46,52)" stroke="none" d="M 8913,16051 L 9150,16051 9114,16051 8913,16051 Z"/>
        <path fill="rgb(38,46,52)" stroke="none" d="M 11473,16051 L 10566,16051 12652,16051 11473,16051 Z"/>
        <path fill="rgb(38,46,52)" stroke="none" d="M 11037,16051 L 10566,16051 11473,16051 11037,16051 Z"/>
        <path fill="rgb(38,46,52)" stroke="none" d="M 10566,16051 L 11037,16051 11002,16051 10566,16051 Z"/>
        <path fill="rgb(38,46,52)" stroke="none" d="M 12181,16051 L 11473,16051 12652,16051 12181,16051 Z"/>
        <path fill="rgb(38,46,52)" stroke="none" d="M 9621,16051 L 9386,16051 10529,16051 9621,16051 Z"/>
        <path fill="rgb(38,46,52)" stroke="none" d="M 9386,16051 L 9621,16051 9586,16051 9386,16051 Z"/>
        <path fill="rgb(38,46,52)" stroke="none" d="M 11745,16051 L 11473,16051 12181,16051 11745,16051 Z"/>
        <path fill="rgb(38,46,52)" stroke="none" d="M 11473,16051 L 11745,16051 11710,16051 11473,16051 Z"/>
        <path fill="rgb(38,46,52)" stroke="none" d="M 10057,16051 L 9621,16051 10529,16051 10057,16051 Z"/>
        <path fill="rgb(38,46,52)" stroke="none" d="M 13009,16051 L 12689,16051 13009,16069 13009,16051 Z"/>
        <path fill="rgb(38,46,52)" stroke="none" d="M 12216,16051 L 12181,16051 12652,16051 12216,16051 Z"/>
        <path fill="rgb(38,46,52)" stroke="none" d="M 11508,16051 L 11473,16051 11710,16051 11508,16051 Z"/>
        <path fill="rgb(38,46,52)" stroke="none" d="M 10094,16051 L 10057,16051 10529,16051 10094,16051 Z"/>
        <path fill="rgb(38,46,52)" stroke="none" d="M 12418,16051 L 12216,16051 12652,16051 12418,16051 Z"/>
        <path fill="rgb(38,46,52)" stroke="none" d="M 12652,16051 L 12453,16051 12418,16051 12652,16051 Z"/>
        <path fill="rgb(38,46,52)" stroke="none" d="M 8678,16051 L 8442,16051 8878,16051 8678,16051 Z"/>
        <path fill="rgb(38,46,52)" stroke="none" d="M 8442,16051 L 8678,16051 8641,16051 8442,16051 Z"/>
        <path fill="rgb(38,46,52)" stroke="none" d="M 11944,16051 L 11745,16051 12181,16051 11944,16051 Z"/>
        <path fill="rgb(38,46,52)" stroke="none" d="M 12181,16051 L 11982,16051 11944,16051 12181,16051 Z"/>
        <path fill="rgb(38,46,52)" stroke="none" d="M 10294,16051 L 10094,16051 10529,16051 10294,16051 Z"/>
        <path fill="rgb(38,46,52)" stroke="none" d="M 10529,16051 L 10329,16051 10294,16051 10529,16051 Z"/>
        <path fill="rgb(38,46,52)" stroke="none" d="M 11237,16051 L 11037,16051 11473,16051 11237,16051 Z"/>
        <path fill="rgb(38,46,52)" stroke="none" d="M 11473,16051 L 11274,16051 11237,16051 11473,16051 Z"/>
        <path fill="rgb(38,46,52)" stroke="none" d="M 10800,16051 L 10566,16051 11002,16051 10800,16051 Z"/>
        <path fill="rgb(38,46,52)" stroke="none" d="M 10566,16051 L 10800,16051 10765,16051 10566,16051 Z"/>
        <path fill="rgb(38,46,52)" stroke="none" d="M 9822,16051 L 9621,16051 10057,16051 9822,16051 Z"/>
        <path fill="rgb(38,46,52)" stroke="none" d="M 8085,16051 L 8085,16069 8407,16051 8085,16051 Z"/>
        <path fill="rgb(38,46,52)" stroke="none" d="M 8442,14598 L 8423,14598 8442,16051 8442,14598 Z"/>
        <path fill="rgb(38,46,52)" stroke="none" d="M 8416,14598 L 8442,16051 8423,14598 8416,14598 Z"/>
        <path fill="rgb(38,46,52)" stroke="none" d="M 8442,16051 L 8416,14598 8407,16051 8442,16051 Z"/>
        <path fill="rgb(38,46,52)" stroke="none" d="M 8407,14600 L 8407,16051 8416,14598 8407,14600 Z"/>
        <path fill="none" stroke="rgb(51,78,88)" stroke-width="0" stroke-linejoin="round" stroke-linecap="round" d="M 8407,14598 L 8407,16051"/>
        <path fill="none" stroke="rgb(51,78,88)" stroke-width="0" stroke-linejoin="round" stroke-linecap="round" d="M 10360,14755 L 8377,14755"/>
        <path fill="none" stroke="rgb(51,78,88)" stroke-width="0" stroke-linejoin="round" stroke-linecap="round" d="M 9699,14755 L 9699,14753"/>
        <path fill="none" stroke="rgb(51,78,88)" stroke-width="0" stroke-linejoin="round" stroke-linecap="round" d="M 9039,14755 L 9039,15171"/>
        <path fill="none" stroke="rgb(51,78,88)" stroke-width="0" stroke-linejoin="round" stroke-linecap="round" d="M 9699,14755 L 9699,15171"/>
        <path fill="rgb(213,51,42)" stroke="none" d="M 8708,14962 L 9039,14755 8377,14755 8708,14962 Z"/>
        <path fill="rgb(213,51,42)" stroke="none" d="M 8708,14962 L 8377,14755 8377,15171 8708,14962 Z"/>
        <path fill="rgb(213,51,42)" stroke="none" d="M 8708,14962 L 8377,15171 9039,15171 8708,14962 Z"/>
        <path fill="rgb(213,51,42)" stroke="none" d="M 8708,14962 L 9039,15171 9039,14755 8708,14962 Z"/>
        <path fill="rgb(213,51,42)" stroke="none" d="M 10030,14962 L 10360,14755 9699,14755 10030,14962 Z"/>
        <path fill="rgb(213,51,42)" stroke="none" d="M 10030,14962 L 9699,14755 9699,15171 10030,14962 Z"/>
        <path fill="rgb(213,51,42)" stroke="none" d="M 10030,14962 L 9699,15171 10360,15171 10030,14962 Z"/>
        <path fill="rgb(213,51,42)" stroke="none" d="M 10030,14962 L 10360,15171 10360,14755 10030,14962 Z"/>
        <path fill="none" stroke="rgb(51,78,88)" stroke-width="0" stroke-linejoin="round" stroke-linecap="round" d="M 8377,14755 L 10360,14755"/>
        <path fill="none" stroke="rgb(51,78,88)" stroke-width="0" stroke-linejoin="round" stroke-linecap="round" d="M 12059,14755 L 12059,14753"/>
        <path fill="none" stroke="rgb(51,78,88)" stroke-width="0" stroke-linejoin="round" stroke-linecap="round" d="M 11397,14755 L 11397,15171"/>
        <path fill="none" stroke="rgb(51,78,88)" stroke-width="0" stroke-linejoin="round" stroke-linecap="round" d="M 12059,14755 L 12059,15171"/>
        <path fill="rgb(213,51,42)" stroke="none" d="M 11067,14962 L 11397,14755 10736,14755 11067,14962 Z"/>
        <path fill="rgb(213,51,42)" stroke="none" d="M 11067,14962 L 10736,14755 10736,15171 11067,14962 Z"/>
        <path fill="rgb(213,51,42)" stroke="none" d="M 11067,14962 L 10736,15171 11397,15171 11067,14962 Z"/>
        <path fill="rgb(213,51,42)" stroke="none" d="M 11067,14962 L 11397,15171 11397,14755 11067,14962 Z"/>
        <path fill="rgb(213,51,42)" stroke="none" d="M 12390,14962 L 12721,14755 12059,14755 12390,14962 Z"/>
        <path fill="rgb(213,51,42)" stroke="none" d="M 12390,14962 L 12059,14755 12059,15171 12390,14962 Z"/>
        <path fill="rgb(213,51,42)" stroke="none" d="M 12390,14962 L 12059,15171 12721,15171 12390,14962 12390,14962 Z"/>
        <path fill="rgb(213,51,42)" stroke="none" d="M 12390,14962 L 12721,15171 12721,14755 12390,14962 Z"/>
        <path fill="none" stroke="rgb(51,78,88)" stroke-width="0" stroke-linejoin="round" stroke-linecap="round" d="M 11508,15171 L 11508,16051"/>
        <path fill="none" stroke="rgb(51,78,88)" stroke-width="0" stroke-linejoin="round" stroke-linecap="round" d="M 11473,15171 L 11473,16051"/>
        <path fill="none" stroke="rgb(51,78,88)" stroke-width="0" stroke-linejoin="round" stroke-linecap="round" d="M 11745,14598 L 11745,14755"/>
        <path fill="none" stroke="rgb(51,78,88)" stroke-width="0" stroke-linejoin="round" stroke-linecap="round" d="M 11710,14598 L 11710,14755"/>
        <path fill="none" stroke="rgb(51,78,88)" stroke-width="0" stroke-linejoin="round" stroke-linecap="round" d="M 11745,15171 L 11745,16051"/>
        <path fill="none" stroke="rgb(51,78,88)" stroke-width="0" stroke-linejoin="round" stroke-linecap="round" d="M 11710,15171 L 11710,16051"/>
        <path fill="none" stroke="rgb(51,78,88)" stroke-width="0" stroke-linejoin="round" stroke-linecap="round" d="M 11982,14598 L 11982,14755"/>
        <path fill="none" stroke="rgb(51,78,88)" stroke-width="0" stroke-linejoin="round" stroke-linecap="round" d="M 11944,14598 L 11944,14755"/>
        <path fill="none" stroke="rgb(51,78,88)" stroke-width="0" stroke-linejoin="round" stroke-linecap="round" d="M 11982,15171 L 11982,16051"/>
        <path fill="none" stroke="rgb(51,78,88)" stroke-width="0" stroke-linejoin="round" stroke-linecap="round" d="M 11944,15171 L 11944,16051"/>
        <path fill="none" stroke="rgb(51,78,88)" stroke-width="0" stroke-linejoin="round" stroke-linecap="round" d="M 9150,14598 L 9150,14755"/>
        <path fill="none" stroke="rgb(51,78,88)" stroke-width="0" stroke-linejoin="round" stroke-linecap="round" d="M 9114,14598 L 9114,14755"/>
        <path fill="none" stroke="rgb(51,78,88)" stroke-width="0" stroke-linejoin="round" stroke-linecap="round" d="M 9150,15171 L 9150,16051"/>
        <path fill="none" stroke="rgb(51,78,88)" stroke-width="0" stroke-linejoin="round" stroke-linecap="round" d="M 9114,15171 L 9114,16051"/>
        <path fill="none" stroke="rgb(51,78,88)" stroke-width="0" stroke-linejoin="round" stroke-linecap="round" d="M 9386,14598 L 9386,14755"/>
        <path fill="none" stroke="rgb(51,78,88)" stroke-width="0" stroke-linejoin="round" stroke-linecap="round" d="M 9349,14598 L 9349,14755"/>
        <path fill="none" stroke="rgb(51,78,88)" stroke-width="0" stroke-linejoin="round" stroke-linecap="round" d="M 9386,15171 L 9386,16051"/>
        <path fill="none" stroke="rgb(51,78,88)" stroke-width="0" stroke-linejoin="round" stroke-linecap="round" d="M 9349,15171 L 9349,16051"/>
        <path fill="none" stroke="rgb(51,78,88)" stroke-width="0" stroke-linejoin="round" stroke-linecap="round" d="M 9621,14598 L 9621,14755"/>
        <path fill="none" stroke="rgb(51,78,88)" stroke-width="0" stroke-linejoin="round" stroke-linecap="round" d="M 9586,14598 L 9586,14755"/>
        <path fill="none" stroke="rgb(51,78,88)" stroke-width="0" stroke-linejoin="round" stroke-linecap="round" d="M 9621,15171 L 9621,16051"/>
        <path fill="none" stroke="rgb(51,78,88)" stroke-width="0" stroke-linejoin="round" stroke-linecap="round" d="M 9586,15171 L 9586,16051"/>
        <path fill="rgb(38,46,52)" stroke="none" d="M 9349,16051 L 9386,15171 9349,15171 9349,16051 Z"/>
        <path fill="rgb(38,46,52)" stroke="none" d="M 9386,15171 L 9349,16051 9386,16051 9386,15171 Z"/>
        <path fill="rgb(38,46,52)" stroke="none" d="M 9150,16051 L 9150,15171 9114,15171 9150,16051 Z"/>
        <path fill="rgb(38,46,52)" stroke="none" d="M 9114,15171 L 9114,16051 9150,16051 9114,15171 Z"/>
        <path fill="rgb(38,46,52)" stroke="none" d="M 9621,15171 L 9586,16051 9621,16051 9621,15171 Z"/>
        <path fill="rgb(38,46,52)" stroke="none" d="M 9586,15171 L 9586,16051 9621,15171 9586,15171 Z"/>
        <path fill="rgb(38,46,52)" stroke="none" d="M 9349,14598 L 9349,14755 9386,14755 9349,14598 Z"/>
        <path fill="rgb(38,46,52)" stroke="none" d="M 9386,14598 L 9349,14598 9386,14755 9386,14598 Z"/>
        <path fill="rgb(38,46,52)" stroke="none" d="M 9150,14755 L 9150,14598 9114,14598 9150,14755 Z"/>
        <path fill="rgb(38,46,52)" stroke="none" d="M 9114,14598 L 9114,14755 9150,14755 9114,14598 Z"/>
        <path fill="rgb(38,46,52)" stroke="none" d="M 9586,14598 L 9586,14755 9621,14755 9586,14598 Z"/>
        <path fill="rgb(38,46,52)" stroke="none" d="M 9621,14598 L 9586,14598 9621,14755 9621,14598 Z"/>
        <path fill="rgb(38,46,52)" stroke="none" d="M 11944,15171 L 11944,16051 11982,16051 11944,15171 Z"/>
        <path fill="rgb(38,46,52)" stroke="none" d="M 11982,15171 L 11944,15171 11982,16051 11982,15171 Z"/>
        <path fill="rgb(38,46,52)" stroke="none" d="M 11745,16051 L 11745,15171 11710,15171 11745,16051 Z"/>
        <path fill="rgb(38,46,52)" stroke="none" d="M 11710,15171 L 11710,16051 11745,16051 11710,15171 Z"/>
        <path fill="rgb(38,46,52)" stroke="none" d="M 11508,15171 L 11473,16051 11508,16051 11508,15171 Z"/>
        <path fill="rgb(38,46,52)" stroke="none" d="M 11473,15171 L 11473,16051 11508,15171 11473,15171 Z"/>
        <path fill="rgb(38,46,52)" stroke="none" d="M 11508,14598 L 11473,14755 11508,14755 11508,14598 Z"/>
        <path fill="rgb(38,46,52)" stroke="none" d="M 11473,14598 L 11473,14755 11508,14598 11473,14598 Z"/>
        <path fill="rgb(38,46,52)" stroke="none" d="M 11982,14598 L 11944,14755 11982,14755 11982,14598 Z"/>
        <path fill="rgb(38,46,52)" stroke="none" d="M 11745,14598 L 11710,14755 11745,14755 11745,14598 Z"/>
        <path fill="rgb(38,46,52)" stroke="none" d="M 11944,14598 L 11944,14755 11982,14598 11944,14598 Z"/>
        <path fill="rgb(38,46,52)" stroke="none" d="M 11710,14598 L 11710,14755 11745,14598 11710,14598 Z"/>
        <path fill="rgb(38,46,52)" stroke="none" d="M 12652,15171 L 12652,16051 12689,16051 12652,15171 Z"/>
        <path fill="rgb(38,46,52)" stroke="none" d="M 12689,15171 L 12652,15171 12689,16051 12689,15171 Z"/>
        <path fill="rgb(38,46,52)" stroke="none" d="M 12216,15171 L 12181,16051 12216,16051 12216,15171 Z"/>
        <path fill="rgb(38,46,52)" stroke="none" d="M 12453,15171 L 12418,16051 12453,16051 12453,15171 Z"/>
        <path fill="rgb(38,46,52)" stroke="none" d="M 12418,15171 L 12418,16051 12453,15171 12418,15171 Z"/>
        <path fill="rgb(38,46,52)" stroke="none" d="M 12181,15171 L 12181,16051 12216,15171 12181,15171 Z"/>
        <path fill="rgb(38,46,52)" stroke="none" d="M 12689,14600 L 12652,14755 12689,14755 12689,14600 Z"/>
        <path fill="rgb(38,46,52)" stroke="none" d="M 12680,14598 L 12652,14755 12689,14600 12680,14598 Z"/>
        <path fill="rgb(38,46,52)" stroke="none" d="M 12418,14755 L 12453,14598 12418,14598 12418,14755 Z"/>
        <path fill="rgb(38,46,52)" stroke="none" d="M 12453,14598 L 12418,14755 12453,14755 12453,14598 Z"/>
        <path fill="rgb(38,46,52)" stroke="none" d="M 12216,14598 L 12181,14755 12216,14755 12216,14598 Z"/>
        <path fill="rgb(38,46,52)" stroke="none" d="M 12652,14598 L 12652,14755 12680,14598 12652,14598 Z"/>
        <path fill="rgb(38,46,52)" stroke="none" d="M 12671,14598 L 12652,14598 12680,14598 12671,14598 Z"/>
        <path fill="rgb(38,46,52)" stroke="none" d="M 12181,14598 L 12181,14755 12216,14598 12181,14598 Z"/>
        <path fill="none" stroke="rgb(51,78,88)" stroke-width="0" stroke-linejoin="round" stroke-linecap="round" d="M 8377,14755 L 8377,15171 10360,15171 10360,14755"/>
        <path fill="rgb(38,46,52)" stroke="none" d="M 8678,16051 L 8678,15171 8641,15171 8678,16051 Z"/>
        <path fill="rgb(38,46,52)" stroke="none" d="M 8641,15171 L 8641,16051 8678,16051 8641,15171 Z"/>
        <path fill="rgb(38,46,52)" stroke="none" d="M 8913,16051 L 8913,15171 8878,15171 8913,16051 Z"/>
        <path fill="rgb(38,46,52)" stroke="none" d="M 8878,15171 L 8878,16051 8913,16051 8878,15171 Z"/>
        <path fill="rgb(38,46,52)" stroke="none" d="M 8641,14598 L 8641,14755 8678,14755 8641,14598 Z"/>
        <path fill="rgb(38,46,52)" stroke="none" d="M 8678,14598 L 8641,14598 8678,14755 8678,14598 Z"/>
        <path fill="rgb(38,46,52)" stroke="none" d="M 8913,14755 L 8913,14598 8878,14598 8913,14755 Z"/>
        <path fill="rgb(38,46,52)" stroke="none" d="M 8878,14598 L 8878,14755 8913,14755 8878,14598 Z"/>
        <path fill="none" stroke="rgb(51,78,88)" stroke-width="0" stroke-linejoin="round" stroke-linecap="round" d="M 12721,14755 L 10736,14755 10736,15171 12721,15171 12721,14755 10736,14755"/>
        <path fill="rgb(38,46,52)" stroke="none" d="M 9822,16051 L 9857,15171 9822,15171 9822,16051 Z"/>
        <path fill="rgb(38,46,52)" stroke="none" d="M 9857,15171 L 9822,16051 9857,16051 9857,15171 Z"/>
        <path fill="rgb(38,46,52)" stroke="none" d="M 10094,15171 L 10057,16051 10094,16051 10094,15171 Z"/>
        <path fill="rgb(38,46,52)" stroke="none" d="M 10057,15171 L 10057,16051 10094,15171 10057,15171 Z"/>
        <path fill="rgb(38,46,52)" stroke="none" d="M 10329,15171 L 10294,16051 10329,16051 10329,15171 Z"/>
        <path fill="rgb(38,46,52)" stroke="none" d="M 10294,15171 L 10294,16051 10329,15171 10294,15171 Z"/>
        <path fill="rgb(38,46,52)" stroke="none" d="M 9857,14755 L 9857,14598 9822,14598 9857,14755 Z"/>
        <path fill="rgb(38,46,52)" stroke="none" d="M 9822,14598 L 9822,14755 9857,14755 9822,14598 Z"/>
        <path fill="rgb(38,46,52)" stroke="none" d="M 10057,14755 L 10094,14598 10057,14598 10057,14755 Z"/>
        <path fill="rgb(38,46,52)" stroke="none" d="M 10094,14598 L 10057,14755 10094,14755 10094,14598 Z"/>
        <path fill="rgb(38,46,52)" stroke="none" d="M 10329,14755 L 10329,14598 10294,14598 10329,14755 Z"/>
        <path fill="rgb(38,46,52)" stroke="none" d="M 10294,14598 L 10294,14755 10329,14755 10294,14598 Z"/>
        <path fill="rgb(38,46,52)" stroke="none" d="M 10800,16051 L 10800,15171 10765,15171 10800,16051 Z"/>
        <path fill="rgb(38,46,52)" stroke="none" d="M 10765,15171 L 10765,16051 10800,16051 10765,15171 Z"/>
        <path fill="rgb(38,46,52)" stroke="none" d="M 11037,15171 L 11002,16051 11037,16051 11037,15171 Z"/>
        <path fill="rgb(38,46,52)" stroke="none" d="M 11237,15171 L 11237,16051 11274,16051 11237,15171 Z"/>
        <path fill="rgb(38,46,52)" stroke="none" d="M 11002,15171 L 11002,16051 11037,15171 11002,15171 Z"/>
        <path fill="rgb(38,46,52)" stroke="none" d="M 11274,15171 L 11237,15171 11274,16051 11274,15171 Z"/>
        <path fill="rgb(38,46,52)" stroke="none" d="M 11037,14755 L 11037,14598 11002,14598 11037,14755 Z"/>
        <path fill="rgb(38,46,52)" stroke="none" d="M 11002,14598 L 11002,14755 11037,14755 11002,14598 Z"/>
        <path fill="rgb(38,46,52)" stroke="none" d="M 11274,14598 L 11237,14755 11274,14755 11274,14598 Z"/>
        <path fill="rgb(38,46,52)" stroke="none" d="M 10800,14755 L 10800,14598 10765,14598 10800,14755 Z"/>
        <path fill="rgb(38,46,52)" stroke="none" d="M 10765,14598 L 10765,14755 10800,14755 10765,14598 Z"/>
        <path fill="rgb(38,46,52)" stroke="none" d="M 11237,14598 L 11237,14755 11274,14598 11237,14598 Z"/>
        <path fill="rgb(38,46,52)" stroke="none" d="M 10547,15324 L 10566,14598 10529,14598 10547,15324 Z"/>
        <path fill="rgb(38,46,52)" stroke="none" d="M 10547,15324 L 10529,14598 10529,16051 10547,15324 Z"/>
        <path fill="rgb(38,46,52)" stroke="none" d="M 10547,15324 L 10529,16051 10566,16051 10547,15324 Z"/>
        <path fill="rgb(38,46,52)" stroke="none" d="M 10547,15324 L 10566,16051 10566,14598 10547,15324 Z"/>
        <path fill="rgb(215,67,51)" stroke="none" d="M 10554,13148 L 10590,13149 10626,13151 10661,13156 10695,13162 10729,13170 10763,13180 10795,13191 10827,13203 10858,13217 10888,13232 10917,13249 10946,13268 10973,13287 11000,13308 11025,13330 11049,13353 11072,13377 11095,13403 11115,13429 11135,13457 11153,13485 11170,13514 11185,13545 11199,13576 11212,13607 11223,13640 11233,13673 11240,13707 11246,13741 11251,13776 11254,13812 11255,13848 11254,13884 11251,13920 11246,13955 11240,13989 11233,14023 11223,14056 11212,14089 11199,14120 11185,14151 11170,14182 11153,14211 11135,14240 11115,14267 11095,14293 11072,14319 11049,14343 11025,14366 11000,14388 10973,14409 10946,14429 10917,14447 10888,14464 10858,14479 10827,14493 10795,14506 10763,14517 10729,14526 10695,14534 10661,14540 10626,14545 10590,14547 10554,14548 10518,14547 10483,14545 10448,14540 10413,14534 10379,14526 10346,14517 10313,14506 10282,14493 10251,14479 10221,14464 10191,14447 10163,14429 10135,14409 10109,14388 10084,14366 10059,14343 10036,14319 10014,14293 9993,14267 9974,14240 9955,14211 9938,14182 9923,14151 9909,14120 9897,14089 9886,14056 9876,14023 9868,13989 9862,13955 9857,13920 9855,13884 9854,13848 9855,13812 9857,13776 9862,13741 9868,13707 9876,13673 9886,13640 9897,13607 9909,13576 9923,13545 9938,13514 9955,13485 9974,13457 9993,13429 10014,13403 10036,13377 10059,13353 10084,13330 10109,13308 10135,13287 10163,13268 10191,13249 10221,13232 10251,13217 10282,13203 10313,13191 10346,13180 10379,13170 10413,13162 10448,13156 10483,13151 10518,13149 10554,13148 Z"/>
        <path fill="rgb(255,255,255)" stroke="none" d="M 9928,13988 L 11181,13988 11183,13979 11184,13971 11186,13962 11188,13954 11189,13945 11190,13937 11191,13928 11192,13919 11193,13910 11194,13902 11195,13892 11195,13884 11196,13875 11196,13866 11196,13857 11196,13848 11196,13839 11196,13830 11196,13821 11195,13812 11195,13804 11194,13795 11193,13786 11192,13777 11191,13768 11190,13760 11189,13751 11188,13742 11186,13734 11185,13725 11183,13717 11181,13708 9928,13708 9926,13717 9924,13725 9923,13734 9921,13742 9920,13751 9918,13760 9917,13768 9916,13777 9915,13786 9915,13795 9914,13804 9913,13812 9913,13821 9913,13830 9912,13839 9912,13848 9912,13857 9913,13866 9913,13875 9913,13884 9914,13892 9915,13902 9915,13910 9916,13919 9917,13928 9918,13937 9920,13945 9921,13954 9923,13962 9924,13971 9926,13979 9928,13988 Z"/>
       </g>
      </g>
     </g>
    </g>
   </g>
  </g>
 </g>
</svg>