<?xml version="1.0" encoding="UTF-8"?>
<!DOCTYPE svg PUBLIC "-//W3C//DTD SVG 1.1//EN" "http://www.w3.org/Graphics/SVG/1.1/DTD/svg11.dtd">
<svg version="1.2" width="29.99mm" height="60.26mm" viewBox="9142 11895 2999 6026" preserveAspectRatio="xMidYMid" fill-rule="evenodd" stroke-width="28.222" stroke-linejoin="round" xmlns="http://www.w3.org/2000/svg" xmlns:ooo="http://xml.openoffice.org/svg/export" xmlns:xlink="http://www.w3.org/1999/xlink" xmlns:presentation="http://sun.com/xmlns/staroffice/presentation" xmlns:smil="http://www.w3.org/2001/SMIL20/" xmlns:anim="urn:oasis:names:tc:opendocument:xmlns:animation:1.0" xml:space="preserve">
 <defs class="ClipPathGroup">
  <clipPath id="presentation_clip_path" clipPathUnits="userSpaceOnUse">
   <rect x="9142" y="11895" width="2999" height="6026"/>
  </clipPath>
  <clipPath id="presentation_clip_path_shrink" clipPathUnits="userSpaceOnUse">
   <rect x="9144" y="11901" width="2994" height="6014"/>
  </clipPath>
 </defs>
 <defs class="TextShapeIndex">
  <g ooo:slide="id1" ooo:id-list="id3"/>
 </defs>
 <defs class="EmbeddedBulletChars">
  <g id="bullet-char-template-57356" transform="scale(0.00048828125,-0.00048828125)">
   <path d="M 580,1141 L 1163,571 580,0 -4,571 580,1141 Z"/>
  </g>
  <g id="bullet-char-template-57354" transform="scale(0.00048828125,-0.00048828125)">
   <path d="M 8,1128 L 1137,1128 1137,0 8,0 8,1128 Z"/>
  </g>
  <g id="bullet-char-template-10146" transform="scale(0.00048828125,-0.00048828125)">
   <path d="M 174,0 L 602,739 174,1481 1456,739 174,0 Z M 1358,739 L 309,1346 659,739 1358,739 Z"/>
  </g>
  <g id="bullet-char-template-10132" transform="scale(0.00048828125,-0.00048828125)">
   <path d="M 2015,739 L 1276,0 717,0 1260,543 174,543 174,936 1260,936 717,1481 1274,1481 2015,739 Z"/>
  </g>
  <g id="bullet-char-template-10007" transform="scale(0.00048828125,-0.00048828125)">
   <path d="M 0,-2 C -7,14 -16,27 -25,37 L 356,567 C 262,823 215,952 215,954 215,979 228,992 255,992 264,992 276,990 289,987 310,991 331,999 354,1012 L 381,999 492,748 772,1049 836,1024 860,1049 C 881,1039 901,1025 922,1006 886,937 835,863 770,784 769,783 710,716 594,584 L 774,223 C 774,196 753,168 711,139 L 727,119 C 717,90 699,76 672,76 641,76 570,178 457,381 L 164,-76 C 142,-110 111,-127 72,-127 30,-127 9,-110 8,-76 1,-67 -2,-52 -2,-32 -2,-23 -1,-13 0,-2 Z"/>
  </g>
  <g id="bullet-char-template-10004" transform="scale(0.00048828125,-0.00048828125)">
   <path d="M 285,-33 C 182,-33 111,30 74,156 52,228 41,333 41,471 41,549 55,616 82,672 116,743 169,778 240,778 293,778 328,747 346,684 L 369,508 C 377,444 397,411 428,410 L 1163,1116 C 1174,1127 1196,1133 1229,1133 1271,1133 1292,1118 1292,1087 L 1292,965 C 1292,929 1282,901 1262,881 L 442,47 C 390,-6 338,-33 285,-33 Z"/>
  </g>
  <g id="bullet-char-template-9679" transform="scale(0.00048828125,-0.00048828125)">
   <path d="M 813,0 C 632,0 489,54 383,161 276,268 223,411 223,592 223,773 276,916 383,1023 489,1130 632,1184 813,1184 992,1184 1136,1130 1245,1023 1353,916 1407,772 1407,592 1407,412 1353,268 1245,161 1136,54 992,0 813,0 Z"/>
  </g>
  <g id="bullet-char-template-8226" transform="scale(0.00048828125,-0.00048828125)">
   <path d="M 346,457 C 273,457 209,483 155,535 101,586 74,649 74,723 74,796 101,859 155,911 209,963 273,989 346,989 419,989 480,963 531,910 582,859 608,796 608,723 608,648 583,586 532,535 482,483 420,457 346,457 Z"/>
  </g>
  <g id="bullet-char-template-8211" transform="scale(0.00048828125,-0.00048828125)">
   <path d="M -4,459 L 1135,459 1135,606 -4,606 -4,459 Z"/>
  </g>
  <g id="bullet-char-template-61548" transform="scale(0.00048828125,-0.00048828125)">
   <path d="M 173,740 C 173,903 231,1043 346,1159 462,1274 601,1332 765,1332 928,1332 1067,1274 1183,1159 1299,1043 1357,903 1357,740 1357,577 1299,437 1183,322 1067,206 928,148 765,148 601,148 462,206 346,322 231,437 173,577 173,740 Z"/>
  </g>
 </defs>
 <defs class="TextEmbeddedBitmaps"/>
 <g class="SlideGroup">
  <g>
   <g id="container-id1">
    <g id="id1" class="Slide" clip-path="url(#presentation_clip_path)">
     <g class="Page">
      <g class="Graphic">
       <g id="id3">
        <rect class="BoundingBox" stroke="none" fill="none" x="9142" y="11895" width="3000" height="6027"/>
        <path fill="rgb(42,40,40)" stroke="none" d="M 11435,12267 L 11461,12288 11487,12309 11512,12331 11536,12354 11558,12377 11580,12401 11600,12425 11619,12450 11637,12475 11654,12500 11669,12526 11684,12552 11696,12578 11708,12604 11719,12630 11728,12656 11736,12683 11742,12709 11747,12735 11751,12761 11754,12787 11755,12812 11754,12837 11752,12862 11749,12886 11745,12910 11739,12934 11731,12957 11722,12979 11711,13000 11699,13021 11685,13041 11670,13060 11654,13078 11636,13095 11618,13110 11598,13124 11578,13137 11556,13148 11534,13159 11511,13168 11487,13175 11462,13182 11437,13187 11411,13192 11384,13194 11358,13196 11330,13196 11302,13195 11274,13193 11246,13189 11217,13185 11188,13179 11159,13172 11130,13163 11101,13154 11071,13143 11042,13130 11013,13117 10984,13102 10956,13086 10928,13069 10900,13051 10872,13031 10845,13011 10819,12989 10794,12967 10770,12944 10748,12921 10727,12898 10706,12873 10687,12849 10669,12824 10653,12798 10637,12773 10623,12747 10610,12721 10598,12695 10588,12668 10579,12642 10571,12616 10564,12590 10559,12564 10555,12538 10553,12512 10552,12487 10552,12462 10554,12437 10557,12412 10562,12388 10568,12365 10575,12342 10585,12320 10595,12298 10607,12278 10621,12257 10636,12238 10653,12220 10670,12204 10689,12188 10708,12175 10729,12162 10750,12150 10772,12140 10796,12131 10819,12123 10844,12116 10870,12111 10895,12107 10922,12104 10949,12103 10976,12103 11004,12104 11032,12106 11061,12109 11089,12114 11118,12120 11147,12127 11177,12135 11206,12145 11235,12156 11264,12168 11293,12182 11322,12196 11351,12212 11379,12229 11407,12248 11435,12267 Z"/>
        <path fill="none" stroke="rgb(52,55,56)" stroke-width="0" stroke-linejoin="round" stroke-linecap="round" d="M 11435,12267 L 11461,12288 11487,12309 11512,12331 11536,12354 11558,12377 11580,12401 11600,12425 11619,12450 11637,12475 11654,12500 11669,12526 11684,12552 11696,12578 11708,12604 11719,12630 11728,12656 11736,12683 11742,12709 11747,12735 11751,12761 11754,12787 11755,12812 11754,12837 11752,12862 11749,12886 11745,12910 11739,12934 11731,12957 11722,12979 11711,13000 11699,13021 11685,13041 11670,13060 11654,13078 11636,13095 11618,13110 11598,13124 11578,13137 11556,13148 11534,13159 11511,13168 11487,13175 11462,13182 11437,13187 11411,13192 11384,13194 11358,13196 11330,13196 11302,13195 11274,13193 11246,13189 11217,13185 11188,13179 11159,13172 11130,13163 11101,13154 11071,13143 11042,13130 11013,13117 10984,13102 10956,13086 10928,13069 10900,13051 10872,13031 10845,13011 10819,12989 10794,12967 10770,12944 10748,12921 10727,12898 10706,12873 10687,12849 10669,12824 10653,12798 10637,12773 10623,12747 10610,12721 10598,12695 10588,12668 10579,12642 10571,12616 10564,12590 10559,12564 10555,12538 10553,12512 10552,12487 10552,12462 10554,12437 10557,12412 10562,12388 10568,12365 10575,12342 10585,12320 10595,12298 10607,12278 10621,12257 10636,12238 10653,12220 10670,12204 10689,12188 10708,12175 10729,12162 10750,12150 10772,12140 10796,12131 10819,12123 10844,12116 10870,12111 10895,12107 10922,12104 10949,12103 10976,12103 11004,12104 11032,12106 11061,12109 11089,12114 11118,12120 11147,12127 11177,12135 11206,12145 11235,12156 11264,12168 11293,12182 11322,12196 11351,12212 11379,12229 11407,12248 11435,12267 Z"/>
        <path fill="rgb(44,56,64)" stroke="none" d="M 11600,14009 L 11600,13403 10653,13603 10653,14009 11600,14009 Z"/>
        <path fill="rgb(44,56,64)" stroke="none" d="M 11843,13957 L 11772,13928 11704,13906 11634,13890 11572,13879 11514,13874 11472,13871 11443,13867 11433,13867 10708,13874 10702,13874 10688,13874 10663,13874 10631,13877 10596,13879 10550,13883 10505,13890 10456,13900 10376,13906 10305,13909 10244,13913 10185,13916 10132,13916 10083,13916 10037,13916 9996,13913 9899,13890 9822,13844 9754,13783 9703,13716 9660,13647 9635,13590 9618,13551 9612,13535 9647,13442 9671,13341 9686,13262 9689,13228 9692,13210 9692,13187 9684,13164 9671,13151 9645,13146 9622,13146 9599,13151 9577,13157 9558,13167 9545,13178 9535,13184 9532,13187 9532,12991 9529,12987 9519,12974 9506,12957 9484,12939 9457,12922 9425,12907 9383,12897 9339,12894 9302,12900 9267,12919 9235,12945 9203,12974 9177,13003 9158,13030 9145,13048 9142,13055 9145,13080 9158,13146 9174,13238 9190,13344 9209,13455 9226,13548 9235,13615 9241,13642 9248,13664 9270,13719 9309,13805 9358,13909 9425,14026 9502,14145 9599,14254 9706,14351 9754,14386 9800,14418 9847,14447 9892,14476 9938,14499 9983,14525 10025,14547 10067,14567 10108,14583 10147,14602 10185,14614 10222,14628 10254,14641 10286,14650 10318,14660 10344,14670 10344,15254 10337,15266 10318,15304 10289,15370 10257,15456 10222,15563 10192,15695 10167,15843 10153,16011 10153,16216 10173,16472 10199,16752 10234,17029 10269,17287 10298,17500 10321,17644 10332,17697 10544,17693 10530,17697 10495,17703 10444,17719 10389,17739 10332,17771 10283,17809 10251,17861 10241,17922 11008,17922 11001,17897 10986,17861 10959,17823 10934,17784 10908,17745 10882,17712 10866,17690 10860,17683 10979,17683 10979,17591 10986,17370 10988,17129 10988,16955 10998,16807 11021,16620 11040,16458 11050,16391 11060,16468 11079,16649 11099,16836 11104,16948 11095,17091 11082,17338 11069,17577 11063,17683 11181,17683 11179,17690 11166,17712 11146,17745 11127,17780 11107,17823 11088,17861 11075,17893 11072,17919 11881,17919 11881,17861 11849,17812 11800,17771 11743,17739 11681,17712 11627,17693 11588,17683 11572,17680 11785,17683 11792,17633 11814,17493 11843,17290 11878,17042 11913,16771 11943,16504 11965,16255 11975,16053 11965,15936 11936,15807 11898,15672 11853,15543 11807,15424 11765,15331 11736,15266 11726,15243 11726,14808 11739,14805 11778,14798 11829,14783 11894,14757 11959,14721 12023,14676 12075,14614 12110,14537 12139,14418 12142,14315 12130,14227 12094,14154 12046,14096 11987,14041 11917,13995 11843,13957 Z"/>
        <path fill="rgb(245,197,146)" stroke="none" d="M 11466,14022 L 11466,13635 10772,13635 10772,14022 11466,14022 Z"/>
        <path fill="rgb(44,56,64)" stroke="none" d="M 11711,12651 L 11704,12646 11691,12630 11669,12601 11637,12565 11600,12523 11556,12475 11504,12426 11449,12372 11392,12320 11327,12271 11262,12224 11195,12182 11127,12146 11056,12116 10988,12101 10920,12094 10831,12097 10747,12110 10663,12133 10582,12162 10505,12200 10434,12243 10367,12294 10305,12349 10251,12411 10199,12478 10157,12549 10118,12626 10089,12707 10067,12791 10054,12875 10051,12964 10054,13055 10067,13142 10089,13225 10118,13306 10157,13380 10199,13455 10251,13522 10305,13583 10367,13639 10434,13690 10505,13731 10582,13770 10663,13800 10747,13822 10831,13835 10920,13839 10986,13835 11047,13829 11107,13819 11166,13802 11224,13783 11282,13761 11333,13735 11385,13703 11437,13671 11482,13635 11526,13593 11568,13551 11604,13506 11639,13457 11672,13406 11701,13354 11707,13354 11714,13354 11720,13358 11726,13358 11768,13351 11814,13339 11862,13316 11907,13280 11948,13231 11982,13167 12004,13087 12014,12987 12007,12913 11994,12848 11968,12791 11933,12739 11891,12700 11839,12671 11778,12655 11711,12651 Z"/>
        <path fill="rgb(245,197,146)" stroke="none" d="M 11746,12774 L 11730,12774 11716,12781 11701,12787 11688,12794 11675,12804 11662,12816 11649,12826 11639,12836 11627,12770 11604,12713 11581,12651 11553,12598 11517,12545 11479,12494 11437,12449 11388,12407 11339,12368 11285,12333 11230,12304 11173,12278 11111,12259 11047,12246 10983,12236 10914,12233 10840,12236 10766,12249 10699,12265 10631,12291 10566,12323 10505,12358 10451,12401 10399,12449 10350,12500 10308,12555 10269,12616 10241,12681 10215,12749 10199,12819 10185,12894 10183,12967 10185,13042 10199,13116 10215,13187 10241,13255 10269,13319 10308,13380 10350,13435 10399,13487 10451,13535 10505,13577 10566,13612 10631,13645 10699,13671 10766,13686 10840,13699 10914,13703 10979,13699 11040,13693 11099,13680 11156,13661 11215,13642 11265,13612 11317,13583 11366,13548 11410,13509 11452,13471 11491,13425 11526,13378 11556,13326 11581,13271 11604,13216 11624,13157 11637,13171 11649,13184 11662,13193 11678,13203 11691,13210 11707,13216 11723,13219 11739,13219 11775,13216 11804,13203 11832,13184 11859,13154 11878,13126 11894,13087 11904,13048 11907,13006 11904,12961 11894,12919 11881,12880 11862,12845 11836,12816 11811,12794 11778,12781 11746,12774 Z"/>
        <path fill="rgb(44,56,64)" stroke="none" d="M 10528,12735 L 10564,12729 10592,12710 10611,12681 10618,12646 10611,12611 10592,12581 10564,12562 10528,12555 10492,12562 10463,12581 10444,12611 10437,12646 10444,12681 10463,12710 10492,12729 10528,12735 Z"/>
        <path fill="rgb(44,56,64)" stroke="none" d="M 11114,12770 L 11137,12767 11156,12762 11173,12752 11188,12739 11201,12723 11211,12707 11217,12688 11220,12665 11217,12643 11211,12623 11201,12607 11188,12591 11173,12577 11156,12569 11137,12562 11114,12558 11092,12562 11072,12569 11056,12577 11040,12591 11027,12607 11018,12623 11011,12643 11008,12665 11011,12688 11018,12707 11027,12723 11040,12739 11056,12752 11072,12762 11092,12767 11114,12770 Z"/>
        <path fill="rgb(44,56,64)" stroke="none" d="M 10621,13023 L 10796,12697 10801,12572 10512,13100 10917,13100 10917,13023 10621,13023 Z"/>
        <path fill="rgb(242,227,0)" stroke="none" d="M 11962,14180 L 11940,14154 11913,14132 11888,14108 11862,14090 11836,14070 11811,14054 11782,14038 11753,14022 11720,14009 11688,13999 11653,13990 11617,13980 11575,13973 11533,13967 11488,13963 11440,13960 10643,13960 10628,13960 10602,13963 10569,13970 10528,13973 10483,13980 10431,13987 10379,13992 10321,13995 10266,13999 10209,14002 10150,14006 10096,14006 10041,14002 9992,13995 9951,13990 9913,13977 9876,13960 9835,13941 9786,13913 9738,13874 9686,13829 9641,13773 9603,13709 9571,13635 9358,13680 9386,13767 9428,13858 9480,13948 9541,14034 9606,14118 9674,14189 9738,14254 9800,14302 9835,14325 9871,14347 9909,14370 9948,14392 9990,14414 10034,14434 10076,14456 10121,14473 10167,14492 10209,14512 10254,14528 10296,14540 10335,14557 10373,14567 10409,14579 10444,14589 10444,15218 11627,15220 11627,14705 11634,14705 11656,14705 11688,14702 11726,14699 11772,14689 11817,14676 11866,14653 11907,14628 11959,14579 11997,14525 12021,14467 12032,14406 12032,14344 12021,14287 11997,14227 11962,14180 Z"/>
        <path fill="rgb(245,197,146)" stroke="none" d="M 9457,13058 L 9455,13055 9452,13045 9441,13033 9428,13016 9413,13003 9396,12991 9377,12987 9358,12987 9339,12994 9316,13010 9297,13026 9277,13042 9258,13058 9244,13074 9235,13084 9231,13087 9325,13593 9535,13545 9554,13425 9573,13332 9586,13267 9586,13242 9577,13242 9561,13245 9545,13258 9529,13274 9512,13287 9499,13303 9490,13312 9487,13316 9457,13058 Z"/>
        <path fill="rgb(26,67,136)" stroke="none" d="M 10453,15315 L 10447,15324 10428,15356 10402,15411 10373,15483 10340,15575 10311,15684 10286,15811 10269,15952 10266,16146 10283,16388 10311,16655 10344,16926 10379,17180 10412,17387 10434,17532 10444,17584 10879,17584 10875,17496 10873,17296 10866,17074 10863,16916 10870,16755 10888,16591 10917,16433 10952,16285 10992,16159 11021,16059 11043,15994 11053,15972 11060,15994 11079,16056 11107,16146 11140,16265 11173,16404 11201,16556 11220,16711 11230,16865 11227,17022 11215,17255 11201,17468 11195,17560 11678,17560 11688,17503 11711,17348 11739,17126 11775,16862 11811,16584 11836,16320 11853,16100 11853,15949 11832,15830 11804,15715 11765,15607 11726,15511 11685,15430 11653,15370 11630,15328 11620,15315 10453,15315 Z"/>
        <path fill="rgb(44,56,64)" stroke="none" d="M 11733,13174 L 11753,13171 11772,13157 11785,13139 11788,13116 11785,13097 11772,13077 11753,13065 11733,13062 11711,13065 11691,13077 11678,13097 11675,13116 11678,13139 11691,13157 11711,13171 11733,13174 Z"/>
        <path fill="rgb(44,56,64)" stroke="none" d="M 11526,13957 L 11526,13871 10882,13871 10920,13957 11526,13957 Z"/>
        <path fill="rgb(44,56,64)" stroke="none" d="M 10786,13512 L 10808,13509 10828,13506 10847,13496 10866,13484 10879,13471 10888,13455 10895,13439 10899,13418 10895,13399 10888,13383 10879,13367 10866,13354 10847,13344 10828,13335 10808,13332 10786,13329 10763,13332 10744,13335 10724,13344 10708,13354 10695,13367 10685,13383 10680,13399 10676,13418 10680,13439 10685,13455 10695,13471 10708,13484 10724,13496 10744,13506 10763,13509 10786,13512 Z"/>
        <path fill="rgb(0,149,68)" stroke="none" d="M 10445,14977 L 11627,14977 11627,14888 10445,14888 10445,14977 Z"/>
        <path fill="rgb(44,56,64)" stroke="none" d="M 10653,13290 L 10615,13300 10560,13329 10492,13374 10418,13425 10350,13477 10292,13519 10254,13551 10237,13564 10237,13651 10414,13696 10421,13693 10437,13680 10463,13661 10492,13642 10521,13626 10547,13609 10566,13600 10579,13600 10611,13626 10643,13635 10682,13639 10718,13629 10750,13612 10779,13590 10801,13561 10818,13532 10824,13496 10828,13461 10821,13422 10808,13383 10783,13348 10750,13319 10708,13300 10653,13290 Z"/>
        <path fill="rgb(196,200,207)" stroke="none" d="M 10669,13358 L 10641,13364 10589,13386 10530,13422 10466,13464 10405,13509 10353,13545 10315,13573 10301,13583 10424,13618 10431,13615 10447,13607 10473,13590 10498,13573 10528,13558 10553,13545 10572,13538 10582,13538 10604,13561 10628,13577 10653,13580 10676,13580 10699,13573 10720,13561 10737,13541 10747,13519 10754,13494 10754,13471 10750,13445 10740,13422 10727,13403 10712,13383 10692,13367 10669,13358 Z"/>
        <path fill="rgb(44,56,64)" stroke="none" d="M 10460,13548 L 10492,13519 10399,13494 10367,13516 10460,13548 Z"/>
        <path fill="rgb(44,56,64)" stroke="none" d="M 11733,14138 L 11726,14141 11707,14147 11675,14157 11634,14167 11581,14173 11517,14177 11447,14170 11369,14157 11314,14145 11253,14125 11192,14100 11131,14068 11069,14031 11008,13987 10947,13935 10892,13874 10902,13826 10895,13777 10882,13731 10866,13693 10847,13661 10828,13639 10815,13622 10808,13615 10631,13455 10389,13639 10396,13645 10409,13658 10431,13677 10456,13703 10486,13731 10512,13761 10534,13790 10550,13812 10576,13864 10596,13922 10608,13970 10611,13990 10641,14034 10666,14079 10692,14122 10718,14164 10740,14202 10766,14241 10792,14280 10821,14315 10853,14354 10892,14389 10931,14428 10979,14470 11030,14508 11092,14554 11156,14596 11233,14644 11339,14702 11437,14744 11520,14769 11595,14786 11653,14796 11698,14796 11723,14796 11733,14796 11733,14138 Z"/>
        <path fill="rgb(44,56,64)" stroke="none" d="M 11047,14431 L 11037,14418 11024,14409 11005,14406 10988,14409 10944,14428 10895,14444 10843,14456 10796,14463 10747,14463 10699,14453 10656,14434 10618,14406 10579,14347 10557,14283 10547,14222 10550,14154 10564,14090 10576,14022 10596,13957 10611,13893 10615,13867 10618,13839 10615,13809 10615,13783 10611,13767 10602,13754 10589,13745 10572,13741 10553,13745 10540,13754 10530,13767 10528,13783 10528,13809 10530,13839 10528,13867 10525,13893 10505,13960 10486,14031 10473,14103 10466,14177 10469,14244 10483,14315 10505,14379 10544,14441 10592,14487 10647,14519 10705,14537 10769,14540 10834,14537 10902,14528 10963,14512 11024,14490 11037,14480 11047,14463 11050,14447 11047,14431 Z"/>
        <path fill="rgb(44,56,64)" stroke="none" d="M 11716,13805 L 11649,13819 11581,13839 11520,13867 11459,13900 11401,13938 11346,13980 11292,14026 11243,14076 11227,14087 11205,14103 11181,14122 11176,14141 11181,14157 11192,14167 11208,14177 11224,14177 11243,14173 11259,14170 11275,14160 11292,14147 11336,14103 11388,14061 11437,14019 11491,13983 11546,13951 11600,13925 11662,13906 11726,13893 11743,13886 11755,13877 11765,13861 11765,13844 11758,13829 11749,13815 11733,13805 11716,13805 Z"/>
        <path fill="rgb(245,197,146)" stroke="none" d="M 10808,13883 L 10815,13871 10821,13832 10818,13780 10796,13719 10772,13690 10747,13658 10720,13629 10695,13603 10669,13577 10650,13561 10637,13548 10634,13545 10492,13639 10495,13642 10508,13654 10528,13671 10550,13690 10572,13713 10596,13738 10615,13763 10628,13786 10647,13841 10666,13893 10680,13932 10682,13948 10808,13883 Z"/>
        <path fill="rgb(242,227,0)" stroke="none" d="M 10724,14019 L 10747,14058 10772,14096 10798,14135 10828,14173 10856,14212 10888,14247 10920,14283 10952,14319 10988,14351 11024,14382 11063,14414 11102,14444 11140,14473 11179,14499 11217,14525 11259,14547 11331,14586 11388,14618 11437,14644 11485,14663 11530,14680 11578,14689 11634,14695 11698,14699 11726,14695 11753,14692 11778,14686 11804,14680 11829,14673 11853,14663 11875,14650 11894,14634 11778,14238 11746,14241 11716,14247 11688,14251 11656,14258 11627,14261 11598,14263 11565,14263 11533,14266 11501,14263 11466,14261 11427,14258 11388,14251 11346,14238 11301,14224 11253,14209 11201,14189 11159,14170 11117,14147 11072,14122 11027,14093 10986,14061 10940,14029 10899,13990 10860,13948 10724,14019 Z"/>
        <path fill="rgb(0,149,68)" stroke="none" d="M 11244,11995 L 11289,12007 11333,12019 11377,12032 11419,12045 11460,12058 11501,12072 11540,12087 11578,12101 11615,12116 11651,12131 11685,12147 11718,12162 11750,12178 11780,12194 11809,12210 11836,12226 11861,12242 11885,12258 11908,12274 11928,12290 11947,12306 11963,12322 11979,12338 11992,12353 12003,12369 12012,12384 12018,12399 12023,12414 12026,12428 12026,12442 12024,12456 12020,12469 12013,12482 12005,12494 11994,12505 11981,12515 11966,12525 11949,12534 11930,12542 11909,12550 11887,12556 11863,12562 11837,12567 11810,12572 11781,12576 11751,12579 11719,12581 11686,12582 11652,12583 11617,12583 11580,12582 11542,12580 11504,12578 11464,12575 11424,12570 11383,12566 11341,12560 11298,12554 11255,12547 11211,12539 11167,12530 11122,12521 11077,12511 11032,12500 10986,12488 10942,12476 10899,12463 10856,12450 10815,12436 10774,12422 10735,12408 10697,12394 10660,12379 10624,12364 10590,12348 10557,12333 10525,12317 10495,12301 10466,12285 10439,12269 10414,12253 10390,12237 10367,12221 10347,12205 10328,12189 10311,12173 10297,12157 10283,12141 10272,12126 10263,12111 10257,12096 10252,12081 10249,12067 10249,12053 10251,12039 10255,12026 10262,12013 10271,12001 10282,11990 10294,11980 10309,11970 10326,11961 10345,11953 10366,11945 10388,11939 10412,11933 10438,11927 10465,11923 10494,11919 10524,11916 10556,11914 10589,11913 10623,11912 10659,11912 10695,11913 10733,11915 10771,11917 10811,11920 10851,11924 10892,11929 10934,11935 10977,11941 11020,11948 11064,11956 11108,11965 11153,11974 11198,11984 11244,11995 Z"/>
        <path fill="rgb(42,40,40)" stroke="none" d="M 11248,11979 L 11293,11990 11336,12002 11380,12015 11422,12028 11463,12042 11503,12055 11542,12070 11580,12084 11617,12099 11653,12115 11687,12130 11720,12145 11752,12161 11782,12178 11811,12194 11839,12210 11865,12226 11889,12243 11912,12259 11933,12275 11953,12292 11970,12308 11986,12324 12000,12341 12012,12356 12022,12372 12030,12388 12037,12403 12041,12418 12043,12433 12043,12447 12040,12461 12007,12453 12009,12441 12009,12428 12007,12415 12003,12402 11996,12388 11988,12374 11978,12360 11966,12346 11953,12331 11937,12317 11920,12302 11901,12287 11880,12272 11858,12257 11834,12242 11809,12228 11783,12213 11755,12198 11725,12183 11694,12168 11662,12154 11629,12139 11595,12126 11559,12112 11523,12098 11485,12085 11446,12072 11407,12059 11366,12046 11325,12035 11282,12023 11239,12012 11248,11979 Z M 12040,12461 L 12040,12465 12038,12469 12037,12472 12036,12475 12004,12462 12006,12458 12007,12453 12040,12461 Z M 12036,12475 L 12113,12292 12036,12475 12020,12469 12036,12475 Z M 12036,12475 L 12032,12483 12029,12489 12024,12496 12019,12503 12014,12509 12008,12515 12001,12521 11994,12526 11986,12532 11978,12537 11969,12542 11960,12547 11950,12551 11940,12556 11930,12560 11919,12564 11907,12568 11895,12571 11883,12575 11870,12578 11857,12581 11843,12583 11829,12586 11815,12588 11800,12590 11785,12592 11769,12594 11754,12595 11737,12597 11721,12598 11704,12599 11687,12599 11685,12565 11702,12564 11717,12564 11733,12563 11748,12562 11762,12560 11777,12559 11791,12557 11804,12556 11818,12553 11830,12552 11843,12549 11855,12547 11867,12544 11878,12541 11889,12538 11900,12535 11910,12532 11919,12529 11928,12525 11937,12521 11945,12517 11953,12513 11961,12509 11968,12504 11974,12500 11980,12495 11985,12490 11990,12485 11994,12479 11998,12474 12001,12468 12004,12462 12036,12475 Z M 11687,12599 L 11670,12600 11652,12600 11635,12600 11617,12600 11598,12599 11580,12599 11561,12598 11542,12597 11503,12595 11463,12591 11423,12588 11381,12583 11339,12577 11296,12571 11252,12564 11208,12556 11164,12547 11119,12538 11073,12527 11027,12516 11036,12483 11081,12494 11126,12504 11170,12514 11214,12522 11258,12530 11300,12537 11343,12543 11384,12549 11426,12553 11465,12558 11505,12561 11543,12563 11580,12565 11617,12566 11634,12566 11652,12566 11669,12566 11685,12565 11687,12599 Z M 11027,12516 L 10983,12504 10939,12492 10896,12480 10853,12467 10812,12453 10772,12439 10733,12425 10695,12411 10658,12396 10622,12381 10588,12365 10555,12349 10523,12333 10493,12318 10464,12301 10436,12285 10410,12269 10386,12252 10363,12236 10342,12219 10323,12203 10305,12187 10289,12171 10275,12155 10263,12138 10253,12123 10245,12107 10238,12092 10234,12077 10232,12062 10232,12048 10235,12034 10268,12042 10266,12054 10266,12067 10268,12080 10272,12093 10278,12107 10287,12121 10297,12135 10309,12149 10323,12164 10338,12178 10355,12193 10374,12208 10395,12223 10417,12238 10440,12252 10466,12268 10492,12282 10520,12297 10550,12312 10581,12327 10613,12341 10646,12355 10680,12369 10716,12383 10752,12397 10790,12410 10829,12423 10868,12436 10909,12448 10951,12460 10993,12472 11036,12483 11027,12516 Z M 10235,12034 L 10236,12030 10237,12026 10238,12023 10239,12019 10271,12032 10269,12037 10268,12042 10235,12034 Z M 10239,12019 L 10176,12170 10239,12019 10255,12026 10239,12019 Z M 10239,12019 L 10243,12012 10246,12005 10251,11999 10256,11992 10262,11986 10268,11980 10274,11974 10282,11969 10289,11963 10297,11958 10306,11953 10315,11948 10324,11944 10335,11939 10345,11935 10356,11931 10368,11927 10380,11924 10392,11920 10405,11917 10418,11914 10432,11912 10446,11909 10460,11907 10475,11904 10490,11903 10506,11901 10521,11900 10538,11898 10554,11897 10571,11897 10589,11896 10590,11930 10558,11931 10527,11933 10513,11935 10498,11936 10484,11938 10471,11939 10457,11941 10445,11944 10432,11946 10420,11948 10408,11951 10397,11954 10386,11957 10375,11960 10366,11963 10356,11967 10347,11970 10338,11974 10329,11978 10322,11982 10314,11987 10307,11991 10301,11996 10295,12000 10290,12005 10285,12010 10281,12016 10277,12021 10274,12027 10271,12032 10239,12019 Z M 10589,11896 L 10605,11895 10623,11895 10640,11895 10659,11895 10695,11896 10733,11898 10772,11900 10812,11903 10853,11907 10894,11912 10936,11918 10979,11924 11023,11931 11067,11939 11111,11948 11157,11957 11202,11968 11248,11979 11239,12012 11194,12001 11149,11991 11105,11981 11061,11973 11018,11965 10975,11958 10932,11952 10891,11946 10850,11941 10810,11938 10770,11934 10732,11932 10695,11930 10659,11929 10641,11929 10624,11929 10606,11930 10590,11930 10589,11896 Z"/>
       </g>
      </g>
     </g>
    </g>
   </g>
  </g>
 </g>
</svg>