<?xml version="1.0" encoding="UTF-8"?>
<!DOCTYPE svg PUBLIC "-//W3C//DTD SVG 1.1//EN" "http://www.w3.org/Graphics/SVG/1.1/DTD/svg11.dtd">
<svg version="1.2" width="29.99mm" height="64.13mm" viewBox="9095 11701 2999 6413" preserveAspectRatio="xMidYMid" fill-rule="evenodd" stroke-width="28.222" stroke-linejoin="round" xmlns="http://www.w3.org/2000/svg" xmlns:ooo="http://xml.openoffice.org/svg/export" xmlns:xlink="http://www.w3.org/1999/xlink" xmlns:presentation="http://sun.com/xmlns/staroffice/presentation" xmlns:smil="http://www.w3.org/2001/SMIL20/" xmlns:anim="urn:oasis:names:tc:opendocument:xmlns:animation:1.0" xml:space="preserve">
 <defs class="ClipPathGroup">
  <clipPath id="presentation_clip_path" clipPathUnits="userSpaceOnUse">
   <rect x="9095" y="11701" width="2999" height="6413"/>
  </clipPath>
  <clipPath id="presentation_clip_path_shrink" clipPathUnits="userSpaceOnUse">
   <rect x="9097" y="11707" width="2994" height="6401"/>
  </clipPath>
 </defs>
 <defs class="TextShapeIndex">
  <g ooo:slide="id1" ooo:id-list="id3"/>
 </defs>
 <defs class="EmbeddedBulletChars">
  <g id="bullet-char-template-57356" transform="scale(0.00048828125,-0.00048828125)">
   <path d="M 580,1141 L 1163,571 580,0 -4,571 580,1141 Z"/>
  </g>
  <g id="bullet-char-template-57354" transform="scale(0.00048828125,-0.00048828125)">
   <path d="M 8,1128 L 1137,1128 1137,0 8,0 8,1128 Z"/>
  </g>
  <g id="bullet-char-template-10146" transform="scale(0.00048828125,-0.00048828125)">
   <path d="M 174,0 L 602,739 174,1481 1456,739 174,0 Z M 1358,739 L 309,1346 659,739 1358,739 Z"/>
  </g>
  <g id="bullet-char-template-10132" transform="scale(0.00048828125,-0.00048828125)">
   <path d="M 2015,739 L 1276,0 717,0 1260,543 174,543 174,936 1260,936 717,1481 1274,1481 2015,739 Z"/>
  </g>
  <g id="bullet-char-template-10007" transform="scale(0.00048828125,-0.00048828125)">
   <path d="M 0,-2 C -7,14 -16,27 -25,37 L 356,567 C 262,823 215,952 215,954 215,979 228,992 255,992 264,992 276,990 289,987 310,991 331,999 354,1012 L 381,999 492,748 772,1049 836,1024 860,1049 C 881,1039 901,1025 922,1006 886,937 835,863 770,784 769,783 710,716 594,584 L 774,223 C 774,196 753,168 711,139 L 727,119 C 717,90 699,76 672,76 641,76 570,178 457,381 L 164,-76 C 142,-110 111,-127 72,-127 30,-127 9,-110 8,-76 1,-67 -2,-52 -2,-32 -2,-23 -1,-13 0,-2 Z"/>
  </g>
  <g id="bullet-char-template-10004" transform="scale(0.00048828125,-0.00048828125)">
   <path d="M 285,-33 C 182,-33 111,30 74,156 52,228 41,333 41,471 41,549 55,616 82,672 116,743 169,778 240,778 293,778 328,747 346,684 L 369,508 C 377,444 397,411 428,410 L 1163,1116 C 1174,1127 1196,1133 1229,1133 1271,1133 1292,1118 1292,1087 L 1292,965 C 1292,929 1282,901 1262,881 L 442,47 C 390,-6 338,-33 285,-33 Z"/>
  </g>
  <g id="bullet-char-template-9679" transform="scale(0.00048828125,-0.00048828125)">
   <path d="M 813,0 C 632,0 489,54 383,161 276,268 223,411 223,592 223,773 276,916 383,1023 489,1130 632,1184 813,1184 992,1184 1136,1130 1245,1023 1353,916 1407,772 1407,592 1407,412 1353,268 1245,161 1136,54 992,0 813,0 Z"/>
  </g>
  <g id="bullet-char-template-8226" transform="scale(0.00048828125,-0.00048828125)">
   <path d="M 346,457 C 273,457 209,483 155,535 101,586 74,649 74,723 74,796 101,859 155,911 209,963 273,989 346,989 419,989 480,963 531,910 582,859 608,796 608,723 608,648 583,586 532,535 482,483 420,457 346,457 Z"/>
  </g>
  <g id="bullet-char-template-8211" transform="scale(0.00048828125,-0.00048828125)">
   <path d="M -4,459 L 1135,459 1135,606 -4,606 -4,459 Z"/>
  </g>
  <g id="bullet-char-template-61548" transform="scale(0.00048828125,-0.00048828125)">
   <path d="M 173,740 C 173,903 231,1043 346,1159 462,1274 601,1332 765,1332 928,1332 1067,1274 1183,1159 1299,1043 1357,903 1357,740 1357,577 1299,437 1183,322 1067,206 928,148 765,148 601,148 462,206 346,322 231,437 173,577 173,740 Z"/>
  </g>
 </defs>
 <defs class="TextEmbeddedBitmaps"/>
 <g class="SlideGroup">
  <g>
   <g id="container-id1">
    <g id="id1" class="Slide" clip-path="url(#presentation_clip_path)">
     <g class="Page">
      <g class="Graphic">
       <g id="id3">
        <rect class="BoundingBox" stroke="none" fill="none" x="9095" y="11701" width="3000" height="6414"/>
        <path fill="rgb(38,46,52)" stroke="none" d="M 11553,14202 L 11553,13597 10606,13797 10606,14202 11553,14202 Z"/>
        <path fill="rgb(38,46,52)" stroke="none" d="M 11796,14150 L 11725,14121 11657,14099 11587,14083 11525,14073 11467,14067 11425,14064 11396,14061 11387,14061 10661,14067 10655,14067 10641,14067 10616,14067 10584,14071 10549,14073 10503,14076 10458,14083 10409,14093 10329,14099 10258,14103 10197,14106 10139,14109 10084,14109 10036,14109 9990,14109 9949,14106 9852,14083 9775,14038 9707,13977 9655,13909 9613,13841 9588,13784 9571,13745 9565,13728 9600,13635 9623,13535 9639,13455 9642,13422 9645,13403 9645,13381 9637,13358 9623,13345 9598,13339 9575,13339 9552,13345 9530,13351 9511,13361 9498,13371 9487,13378 9485,13381 9485,13184 9482,13181 9472,13168 9459,13151 9437,13133 9410,13116 9378,13100 9336,13090 9292,13087 9255,13094 9220,13112 9188,13139 9156,13168 9130,13196 9111,13223 9098,13242 9095,13248 9098,13274 9111,13339 9127,13432 9143,13538 9162,13648 9179,13741 9188,13809 9194,13835 9201,13857 9223,13913 9262,13999 9311,14103 9378,14219 9455,14338 9552,14448 9659,14544 9707,14579 9753,14611 9800,14641 9846,14670 9891,14692 9936,14718 9978,14740 10020,14760 10061,14776 10100,14796 10139,14808 10175,14821 10207,14835 10239,14843 10271,14853 10297,14863 10297,15447 10290,15459 10271,15498 10242,15563 10210,15649 10175,15756 10145,15888 10120,16036 10106,16204 10106,16410 10126,16665 10152,16946 10187,17222 10222,17480 10251,17693 10274,17838 10284,17890 10497,17886 10483,17890 10448,17896 10397,17912 10342,17931 10284,17963 10236,18002 10204,18054 10194,18115 10961,18115 10954,18090 10939,18054 10912,18016 10887,17977 10861,17938 10835,17905 10819,17883 10813,17876 10932,17876 10932,17783 10939,17563 10941,17322 10941,17148 10951,17000 10974,16813 10993,16651 11003,16584 11013,16661 11032,16842 11051,17029 11057,17141 11048,17284 11035,17531 11022,17770 11016,17876 11134,17876 11132,17883 11119,17905 11099,17938 11080,17973 11060,18016 11041,18054 11028,18086 11025,18112 11834,18112 11834,18054 11802,18006 11753,17963 11696,17931 11634,17905 11580,17886 11541,17876 11525,17873 11738,17876 11745,17826 11767,17686 11796,17483 11831,17235 11866,16964 11896,16697 11918,16448 11928,16246 11918,16130 11889,16000 11851,15866 11806,15737 11760,15617 11718,15524 11689,15459 11679,15437 11679,15001 11692,14998 11731,14991 11782,14976 11847,14950 11911,14914 11976,14870 12028,14808 12063,14730 12092,14611 12095,14508 12083,14421 12047,14347 11999,14289 11940,14234 11870,14189 11796,14150 Z"/>
        <path fill="rgb(245,197,146)" stroke="none" d="M 11419,14216 L 11419,13829 10725,13829 10725,14216 11419,14216 Z"/>
        <path fill="rgb(38,46,52)" stroke="none" d="M 11664,12845 L 11657,12839 11644,12823 11622,12794 11590,12759 11553,12717 11509,12668 11457,12619 11402,12565 11344,12514 11280,12465 11215,12417 11148,12375 11080,12340 11009,12310 10941,12295 10873,12288 10784,12291 10700,12304 10616,12327 10535,12355 10458,12394 10387,12436 10320,12488 10258,12542 10204,12604 10152,12672 10110,12742 10071,12819 10042,12900 10020,12984 10007,13068 10003,13158 10007,13248 10020,13336 10042,13419 10071,13499 10110,13573 10152,13648 10204,13716 10258,13777 10320,13832 10387,13883 10458,13925 10535,13964 10616,13993 10700,14016 10784,14029 10873,14032 10939,14029 11000,14022 11060,14012 11119,13996 11177,13977 11235,13955 11286,13928 11338,13896 11390,13864 11435,13829 11479,13787 11521,13745 11557,13699 11592,13651 11625,13600 11654,13548 11660,13548 11667,13548 11673,13551 11679,13551 11721,13545 11767,13533 11815,13509 11860,13474 11901,13425 11935,13361 11957,13280 11967,13181 11960,13107 11947,13042 11921,12984 11886,12932 11844,12894 11792,12865 11731,12848 11664,12845 Z"/>
        <path fill="rgb(245,197,146)" stroke="none" d="M 11699,12968 L 11683,12968 11669,12974 11654,12981 11641,12987 11628,12997 11615,13010 11602,13019 11592,13029 11580,12964 11557,12907 11535,12845 11506,12791 11470,12739 11432,12688 11390,12643 11341,12601 11292,12562 11238,12527 11183,12498 11126,12471 11064,12453 11000,12439 10936,12429 10867,12426 10793,12429 10719,12443 10651,12459 10584,12485 10519,12517 10458,12552 10404,12594 10352,12643 10303,12694 10261,12749 10222,12809 10194,12875 10168,12942 10152,13013 10139,13087 10136,13161 10139,13235 10152,13309 10168,13381 10194,13448 10222,13513 10261,13573 10303,13629 10352,13681 10404,13728 10458,13770 10519,13806 10584,13838 10651,13864 10719,13879 10793,13893 10867,13896 10932,13893 10993,13886 11051,13874 11109,13854 11168,13835 11219,13806 11270,13777 11319,13741 11363,13703 11405,13664 11444,13619 11479,13571 11509,13519 11535,13464 11557,13410 11577,13351 11590,13365 11602,13378 11615,13387 11631,13397 11644,13403 11660,13410 11676,13413 11692,13413 11728,13410 11757,13397 11785,13378 11812,13348 11831,13319 11847,13280 11857,13242 11860,13200 11857,13155 11847,13112 11834,13074 11815,13038 11789,13010 11763,12987 11731,12974 11699,12968 Z"/>
        <path fill="rgb(38,46,52)" stroke="none" d="M 10481,12929 L 10517,12922 10545,12904 10564,12875 10571,12839 10564,12804 10545,12774 10517,12755 10481,12749 10445,12755 10416,12774 10397,12804 10390,12839 10397,12875 10416,12904 10445,12922 10481,12929 Z"/>
        <path fill="rgb(38,46,52)" stroke="none" d="M 11067,12964 L 11090,12961 11109,12955 11126,12946 11141,12932 11154,12917 11164,12900 11170,12882 11173,12858 11170,12836 11164,12816 11154,12801 11141,12784 11126,12771 11109,12762 11090,12755 11067,12752 11045,12755 11025,12762 11009,12771 10993,12784 10980,12801 10971,12816 10964,12836 10961,12858 10964,12882 10971,12900 10980,12917 10993,12932 11009,12946 11025,12955 11045,12961 11067,12964 Z"/>
        <path fill="rgb(38,46,52)" stroke="none" d="M 10574,13216 L 10749,12890 10754,12765 10465,13294 10870,13294 10870,13216 10574,13216 Z"/>
        <path fill="rgb(223,112,42)" stroke="none" d="M 11915,14374 L 11893,14347 11866,14325 11841,14302 11815,14283 11789,14263 11763,14248 11735,14231 11706,14216 11673,14202 11641,14192 11605,14184 11570,14174 11528,14167 11486,14160 11441,14157 11393,14154 10596,14154 10581,14154 10555,14157 10522,14164 10481,14167 10436,14174 10384,14180 10332,14186 10274,14189 10219,14192 10162,14196 10103,14199 10049,14199 9994,14196 9945,14189 9904,14184 9866,14170 9829,14154 9788,14135 9739,14106 9691,14067 9639,14022 9595,13967 9556,13903 9524,13829 9311,13874 9339,13960 9381,14051 9433,14142 9494,14228 9559,14311 9627,14382 9691,14448 9753,14495 9788,14518 9823,14540 9862,14564 9901,14586 9943,14608 9987,14628 10029,14650 10074,14667 10120,14685 10162,14705 10207,14722 10249,14734 10288,14750 10327,14760 10362,14773 10397,14783 10397,15411 11580,15414 11580,14899 11587,14899 11609,14899 11641,14895 11679,14892 11725,14882 11770,14870 11819,14847 11860,14821 11911,14773 11950,14718 11974,14660 11986,14599 11986,14537 11974,14480 11950,14421 11915,14374 Z"/>
        <path fill="rgb(255,255,255)" stroke="none" d="M 9410,13252 L 9408,13248 9405,13238 9394,13226 9381,13210 9366,13196 9349,13184 9330,13181 9311,13181 9292,13187 9269,13203 9250,13220 9230,13235 9211,13252 9198,13267 9188,13277 9184,13280 9279,13787 9487,13738 9507,13619 9526,13526 9539,13460 9539,13435 9530,13435 9514,13438 9498,13452 9482,13467 9465,13480 9452,13496 9443,13506 9440,13509 9410,13252 Z"/>
        <path fill="rgb(89,105,114)" stroke="none" d="M 10406,15508 L 10400,15518 10381,15550 10355,15604 10327,15676 10293,15768 10264,15878 10239,16004 10222,16146 10219,16339 10236,16581 10264,16848 10297,17119 10332,17373 10365,17580 10387,17725 10397,17777 10832,17777 10828,17689 10826,17489 10819,17267 10816,17109 10823,16948 10841,16784 10870,16626 10906,16478 10944,16352 10974,16253 10996,16187 11006,16165 11013,16187 11032,16249 11060,16339 11094,16458 11126,16597 11154,16749 11173,16904 11183,17058 11180,17215 11168,17448 11154,17661 11148,17753 11631,17753 11641,17696 11664,17541 11692,17319 11728,17055 11763,16778 11789,16514 11806,16293 11806,16142 11785,16024 11757,15908 11718,15800 11679,15705 11638,15624 11605,15563 11583,15521 11573,15508 10406,15508 Z"/>
        <path fill="rgb(38,46,52)" stroke="none" d="M 11686,13368 L 11706,13365 11725,13351 11738,13333 11741,13309 11738,13290 11725,13270 11706,13258 11686,13255 11664,13258 11644,13270 11631,13290 11628,13309 11631,13333 11644,13351 11664,13365 11686,13368 Z"/>
        <path fill="rgb(38,46,52)" stroke="none" d="M 11625,12978 L 11660,12952 11686,12910 11708,12855 11725,12791 11731,12723 11728,12653 11711,12581 11686,12517 11651,12461 11605,12417 11557,12385 11509,12362 11454,12352 11405,12349 11358,12355 11319,12372 11286,12394 11264,12429 11247,12471 11241,12523 11241,12581 11251,12639 11270,12700 11299,12765 11334,12823 11373,12875 11415,12920 11457,12952 11502,12974 11548,12987 11587,12991 11625,12978 Z"/>
        <path fill="rgb(38,46,52)" stroke="none" d="M 11479,14150 L 11479,14064 10835,14064 10873,14150 11479,14150 Z"/>
        <path fill="rgb(38,46,52)" stroke="none" d="M 10739,13706 L 10761,13703 10781,13699 10800,13689 10819,13677 10832,13664 10841,13648 10848,13632 10851,13612 10848,13593 10841,13577 10832,13561 10819,13548 10800,13538 10781,13529 10761,13526 10739,13523 10715,13526 10697,13529 10677,13538 10661,13548 10648,13561 10638,13577 10632,13593 10629,13612 10632,13632 10638,13648 10648,13664 10661,13677 10677,13689 10697,13699 10715,13703 10739,13706 Z"/>
        <path fill="rgb(38,46,52)" stroke="none" d="M 10606,13484 L 10568,13494 10513,13523 10445,13568 10371,13619 10303,13670 10246,13713 10207,13745 10190,13758 10190,13844 10367,13889 10374,13886 10390,13874 10416,13854 10445,13835 10475,13819 10500,13802 10519,13793 10532,13793 10564,13819 10596,13829 10635,13832 10671,13822 10703,13806 10732,13784 10754,13755 10771,13726 10777,13689 10781,13654 10774,13615 10761,13577 10736,13541 10703,13513 10661,13494 10606,13484 Z"/>
        <path fill="rgb(201,203,209)" stroke="none" d="M 10622,13551 L 10594,13558 10542,13580 10483,13615 10419,13657 10358,13703 10307,13738 10268,13767 10254,13777 10377,13812 10384,13809 10400,13800 10426,13784 10451,13767 10481,13751 10507,13738 10525,13731 10535,13731 10558,13755 10581,13770 10606,13774 10629,13774 10651,13767 10673,13755 10690,13735 10700,13713 10707,13687 10707,13664 10703,13638 10693,13615 10680,13597 10665,13577 10645,13561 10622,13551 Z"/>
        <path fill="rgb(38,46,52)" stroke="none" d="M 10413,13741 L 10445,13713 10352,13687 10320,13709 10413,13741 Z"/>
        <path fill="rgb(38,46,52)" stroke="none" d="M 11686,14332 L 11679,14335 11660,14340 11628,14350 11587,14360 11535,14367 11470,14370 11400,14364 11322,14350 11267,14338 11206,14318 11144,14293 11084,14261 11022,14225 10961,14180 10900,14128 10845,14067 10855,14019 10848,13970 10835,13925 10819,13886 10800,13854 10781,13832 10768,13816 10761,13809 10584,13648 10342,13832 10349,13838 10362,13851 10384,13871 10409,13896 10439,13925 10465,13955 10487,13984 10503,14006 10529,14057 10549,14115 10561,14164 10564,14184 10594,14228 10619,14273 10645,14315 10671,14357 10693,14396 10719,14435 10745,14473 10774,14508 10806,14547 10845,14582 10883,14621 10932,14663 10983,14702 11045,14747 11109,14789 11187,14838 11292,14895 11390,14937 11474,14963 11548,14979 11605,14989 11651,14989 11676,14989 11686,14989 11686,14332 Z"/>
        <path fill="rgb(38,46,52)" stroke="none" d="M 10900,15369 L 11028,15272 10990,14118 10823,14118 10784,15262 10900,15369 Z"/>
        <path fill="rgb(38,46,52)" stroke="none" d="M 11528,12471 L 11745,12291 11502,11933 10613,11701 10175,11998 10081,12233 10197,12359 10190,12475 11528,12471 Z"/>
        <path fill="rgb(38,46,52)" stroke="none" d="M 10687,12694 L 10764,12694 10841,12691 10919,12688 10990,12682 11057,12675 11122,12668 11183,12658 11241,12649 11289,12639 11338,12629 11377,12619 11409,12607 11438,12594 11457,12584 11470,12572 11474,12559 11470,12545 11460,12533 11441,12520 11419,12507 11387,12495 11351,12482 11309,12468 11264,12456 11209,12446 11154,12433 11094,12426 11028,12417 10958,12411 10887,12404 10809,12401 10732,12401 10651,12401 10574,12404 10493,12411 10416,12417 10342,12426 10271,12433 10200,12446 10139,12456 10078,12468 10026,12482 9978,12495 9939,12507 9906,12520 9881,12533 9868,12545 9862,12559 9866,12572 9881,12584 9901,12594 9930,12607 9968,12619 10010,12629 10059,12639 10117,12649 10175,12658 10239,12668 10307,12675 10377,12682 10451,12688 10529,12691 10606,12694 10687,12694 Z"/>
        <path fill="rgb(89,105,114)" stroke="none" d="M 10622,11795 L 10268,12046 10187,12227 10290,12323 10293,12323 10310,12327 10332,12330 10367,12333 10413,12336 10471,12340 10542,12346 10629,12352 10693,12355 10761,12359 10832,12359 10902,12359 10977,12355 11051,12355 11122,12352 11190,12349 11254,12346 11312,12340 11367,12336 11412,12333 11451,12330 11479,12330 11496,12327 11502,12327 11599,12249 11435,12014 10622,11795 Z"/>
        <path fill="rgb(38,46,52)" stroke="none" d="M 10790,12207 L 10816,12155 10816,12120 10800,12091 10774,12066 10764,12039 10781,12014 10803,11995 10816,11988 10632,11863 10481,11978 10487,11988 10500,12010 10507,12039 10490,12066 10454,12111 10451,12153 10468,12194 10490,12221 10519,12236 10558,12246 10600,12253 10648,12253 10693,12249 10736,12239 10771,12224 10790,12207 Z"/>
        <path fill="rgb(38,46,52)" stroke="none" d="M 10838,12298 L 10838,12233 10442,12233 10442,12298 10838,12298 Z"/>
        <path fill="rgb(235,223,169)" stroke="none" d="M 10745,12172 L 10764,12133 10758,12108 10739,12091 10715,12072 10715,12039 10722,12017 10732,12004 10736,11998 10635,11924 10535,11998 10542,12004 10552,12024 10558,12046 10549,12069 10522,12098 10513,12130 10519,12155 10535,12175 10555,12188 10584,12197 10613,12204 10645,12204 10677,12200 10707,12194 10729,12185 10745,12172 Z"/>
        <path fill="rgb(38,46,52)" stroke="none" d="M 11000,14625 L 10990,14611 10977,14603 10958,14599 10941,14603 10897,14621 10848,14638 10796,14650 10749,14657 10700,14657 10651,14647 10609,14628 10571,14599 10532,14540 10510,14476 10500,14416 10503,14347 10517,14283 10529,14216 10549,14150 10564,14086 10568,14061 10571,14032 10568,14002 10568,13977 10564,13960 10555,13948 10542,13938 10525,13935 10507,13938 10493,13948 10483,13960 10481,13977 10481,14002 10483,14032 10481,14061 10478,14086 10458,14154 10439,14225 10426,14296 10419,14370 10422,14438 10436,14508 10458,14572 10497,14635 10545,14680 10600,14712 10658,14730 10722,14734 10787,14730 10855,14722 10916,14705 10977,14683 10990,14673 11000,14657 11003,14641 11000,14625 Z"/>
        <path fill="rgb(38,46,52)" stroke="none" d="M 11669,13999 L 11602,14012 11535,14032 11474,14061 11412,14093 11355,14132 11299,14174 11245,14219 11196,14270 11180,14280 11158,14296 11134,14315 11129,14335 11134,14350 11144,14360 11161,14370 11177,14370 11196,14367 11212,14364 11228,14354 11245,14340 11289,14296 11341,14254 11390,14212 11444,14177 11499,14145 11553,14118 11615,14099 11679,14086 11696,14079 11708,14071 11718,14054 11718,14038 11711,14022 11703,14009 11686,13999 11669,13999 Z"/>
        <path fill="rgb(255,255,255)" stroke="none" d="M 10761,14076 L 10768,14064 10774,14025 10771,13974 10749,13913 10725,13883 10700,13851 10673,13822 10648,13797 10622,13770 10603,13755 10590,13741 10587,13738 10445,13832 10448,13835 10461,13847 10481,13864 10503,13883 10525,13906 10549,13931 10568,13957 10581,13980 10600,14034 10619,14086 10632,14125 10635,14142 10761,14076 Z"/>
        <path fill="rgb(223,112,42)" stroke="none" d="M 10677,14212 L 10700,14251 10725,14289 10751,14328 10781,14367 10809,14406 10841,14441 10873,14476 10906,14512 10941,14544 10977,14576 11016,14608 11055,14638 11094,14667 11132,14692 11170,14718 11212,14740 11284,14779 11341,14811 11390,14838 11438,14857 11483,14873 11531,14882 11587,14889 11651,14892 11679,14889 11706,14885 11731,14879 11757,14873 11782,14867 11806,14857 11828,14843 11847,14828 11731,14431 11699,14435 11669,14441 11641,14444 11609,14451 11580,14454 11551,14457 11518,14457 11486,14460 11454,14457 11419,14454 11380,14451 11341,14444 11299,14431 11254,14418 11206,14402 11154,14382 11112,14364 11070,14340 11025,14315 10980,14286 10939,14254 10893,14222 10851,14184 10813,14142 10677,14212 Z"/>
       </g>
      </g>
     </g>
    </g>
   </g>
  </g>
 </g>
</svg>