<?xml version="1.0" encoding="UTF-8"?>
<!DOCTYPE svg PUBLIC "-//W3C//DTD SVG 1.1//EN" "http://www.w3.org/Graphics/SVG/1.1/DTD/svg11.dtd">
<svg version="1.2" width="29.99mm" height="64.07mm" viewBox="4126 11704 2999 6407" preserveAspectRatio="xMidYMid" fill-rule="evenodd" stroke-width="28.222" stroke-linejoin="round" xmlns="http://www.w3.org/2000/svg" xmlns:ooo="http://xml.openoffice.org/svg/export" xmlns:xlink="http://www.w3.org/1999/xlink" xmlns:presentation="http://sun.com/xmlns/staroffice/presentation" xmlns:smil="http://www.w3.org/2001/SMIL20/" xmlns:anim="urn:oasis:names:tc:opendocument:xmlns:animation:1.0" xml:space="preserve">
 <defs class="ClipPathGroup">
  <clipPath id="presentation_clip_path" clipPathUnits="userSpaceOnUse">
   <rect x="4126" y="11704" width="2999" height="6407"/>
  </clipPath>
  <clipPath id="presentation_clip_path_shrink" clipPathUnits="userSpaceOnUse">
   <rect x="4128" y="11710" width="2994" height="6395"/>
  </clipPath>
 </defs>
 <defs class="TextShapeIndex">
  <g ooo:slide="id1" ooo:id-list="id3"/>
 </defs>
 <defs class="EmbeddedBulletChars">
  <g id="bullet-char-template-57356" transform="scale(0.00048828125,-0.00048828125)">
   <path d="M 580,1141 L 1163,571 580,0 -4,571 580,1141 Z"/>
  </g>
  <g id="bullet-char-template-57354" transform="scale(0.00048828125,-0.00048828125)">
   <path d="M 8,1128 L 1137,1128 1137,0 8,0 8,1128 Z"/>
  </g>
  <g id="bullet-char-template-10146" transform="scale(0.00048828125,-0.00048828125)">
   <path d="M 174,0 L 602,739 174,1481 1456,739 174,0 Z M 1358,739 L 309,1346 659,739 1358,739 Z"/>
  </g>
  <g id="bullet-char-template-10132" transform="scale(0.00048828125,-0.00048828125)">
   <path d="M 2015,739 L 1276,0 717,0 1260,543 174,543 174,936 1260,936 717,1481 1274,1481 2015,739 Z"/>
  </g>
  <g id="bullet-char-template-10007" transform="scale(0.00048828125,-0.00048828125)">
   <path d="M 0,-2 C -7,14 -16,27 -25,37 L 356,567 C 262,823 215,952 215,954 215,979 228,992 255,992 264,992 276,990 289,987 310,991 331,999 354,1012 L 381,999 492,748 772,1049 836,1024 860,1049 C 881,1039 901,1025 922,1006 886,937 835,863 770,784 769,783 710,716 594,584 L 774,223 C 774,196 753,168 711,139 L 727,119 C 717,90 699,76 672,76 641,76 570,178 457,381 L 164,-76 C 142,-110 111,-127 72,-127 30,-127 9,-110 8,-76 1,-67 -2,-52 -2,-32 -2,-23 -1,-13 0,-2 Z"/>
  </g>
  <g id="bullet-char-template-10004" transform="scale(0.00048828125,-0.00048828125)">
   <path d="M 285,-33 C 182,-33 111,30 74,156 52,228 41,333 41,471 41,549 55,616 82,672 116,743 169,778 240,778 293,778 328,747 346,684 L 369,508 C 377,444 397,411 428,410 L 1163,1116 C 1174,1127 1196,1133 1229,1133 1271,1133 1292,1118 1292,1087 L 1292,965 C 1292,929 1282,901 1262,881 L 442,47 C 390,-6 338,-33 285,-33 Z"/>
  </g>
  <g id="bullet-char-template-9679" transform="scale(0.00048828125,-0.00048828125)">
   <path d="M 813,0 C 632,0 489,54 383,161 276,268 223,411 223,592 223,773 276,916 383,1023 489,1130 632,1184 813,1184 992,1184 1136,1130 1245,1023 1353,916 1407,772 1407,592 1407,412 1353,268 1245,161 1136,54 992,0 813,0 Z"/>
  </g>
  <g id="bullet-char-template-8226" transform="scale(0.00048828125,-0.00048828125)">
   <path d="M 346,457 C 273,457 209,483 155,535 101,586 74,649 74,723 74,796 101,859 155,911 209,963 273,989 346,989 419,989 480,963 531,910 582,859 608,796 608,723 608,648 583,586 532,535 482,483 420,457 346,457 Z"/>
  </g>
  <g id="bullet-char-template-8211" transform="scale(0.00048828125,-0.00048828125)">
   <path d="M -4,459 L 1135,459 1135,606 -4,606 -4,459 Z"/>
  </g>
  <g id="bullet-char-template-61548" transform="scale(0.00048828125,-0.00048828125)">
   <path d="M 173,740 C 173,903 231,1043 346,1159 462,1274 601,1332 765,1332 928,1332 1067,1274 1183,1159 1299,1043 1357,903 1357,740 1357,577 1299,437 1183,322 1067,206 928,148 765,148 601,148 462,206 346,322 231,437 173,577 173,740 Z"/>
  </g>
 </defs>
 <defs class="TextEmbeddedBitmaps"/>
 <g class="SlideGroup">
  <g>
   <g id="container-id1">
    <g id="id1" class="Slide" clip-path="url(#presentation_clip_path)">
     <g class="Page">
      <g class="Graphic">
       <g id="id3">
        <rect class="BoundingBox" stroke="none" fill="none" x="4126" y="11704" width="3000" height="6408"/>
        <path fill="rgb(30,34,38)" stroke="none" d="M 6585,14203 L 6585,13598 5637,13797 5637,14203 6585,14203 Z"/>
        <path fill="rgb(30,34,38)" stroke="none" d="M 6826,14151 L 6755,14122 6688,14100 6617,14084 6556,14074 6498,14068 6456,14064 6427,14061 6417,14061 5692,14068 5686,14068 5673,14068 5647,14068 5615,14071 5579,14074 5534,14077 5489,14084 5441,14093 5360,14100 5289,14103 5228,14106 5170,14109 5115,14109 5067,14109 5022,14109 4980,14106 4883,14084 4806,14039 4738,13977 4687,13910 4645,13842 4619,13784 4603,13745 4597,13729 4632,13636 4655,13536 4671,13456 4674,13423 4677,13404 4677,13382 4667,13359 4655,13346 4629,13340 4606,13340 4584,13346 4561,13353 4542,13362 4529,13372 4519,13378 4516,13382 4516,13185 4513,13182 4503,13169 4490,13153 4467,13134 4442,13118 4409,13101 4368,13092 4322,13089 4287,13095 4252,13115 4219,13140 4187,13169 4161,13198 4142,13224 4129,13243 4126,13250 4129,13276 4142,13340 4158,13433 4174,13539 4194,13649 4210,13742 4219,13810 4226,13836 4232,13858 4255,13913 4294,14000 4342,14103 4409,14219 4487,14338 4584,14447 4690,14544 4738,14580 4783,14612 4832,14641 4877,14670 4922,14692 4967,14718 5009,14741 5051,14760 5093,14776 5131,14795 5170,14808 5205,14821 5238,14834 5270,14844 5302,14853 5328,14863 5328,15446 5322,15459 5302,15497 5273,15562 5241,15649 5205,15755 5177,15887 5151,16035 5138,16202 5138,16409 5157,16663 5183,16943 5218,17220 5254,17478 5283,17690 5306,17835 5315,17887 5528,17883 5515,17887 5480,17893 5428,17909 5373,17929 5315,17961 5267,17999 5235,18051 5225,18112 5992,18112 5985,18086 5969,18051 5943,18012 5918,17973 5892,17935 5866,17903 5850,17880 5843,17874 5963,17874 5963,17780 5969,17561 5972,17320 5972,17146 5982,16998 6005,16811 6024,16650 6034,16582 6043,16660 6063,16840 6082,17027 6088,17140 6079,17281 6066,17529 6053,17768 6047,17874 6166,17874 6162,17880 6150,17903 6130,17935 6111,17970 6092,18012 6072,18051 6059,18083 6056,18109 6865,18109 6865,18051 6833,18003 6785,17961 6726,17929 6665,17903 6611,17883 6572,17874 6556,17870 6768,17874 6775,17822 6797,17684 6826,17481 6862,17233 6897,16963 6926,16695 6949,16447 6958,16244 6949,16128 6920,16000 6881,15864 6836,15735 6791,15616 6749,15523 6720,15459 6710,15436 6710,15001 6723,14998 6762,14992 6813,14976 6878,14950 6942,14914 7007,14870 7058,14808 7094,14731 7123,14612 7126,14509 7113,14422 7078,14348 7029,14290 6971,14235 6900,14190 6826,14151 Z"/>
        <path fill="rgb(245,197,146)" stroke="none" d="M 6449,14216 L 6449,13829 5756,13829 5756,14216 6449,14216 Z"/>
        <path fill="rgb(30,34,38)" stroke="none" d="M 6694,12847 L 6688,12841 6675,12825 6652,12796 6620,12760 6585,12718 6540,12670 6488,12622 6433,12567 6375,12515 6311,12467 6246,12419 6179,12377 6111,12342 6040,12313 5972,12296 5905,12290 5815,12293 5731,12306 5647,12329 5566,12358 5489,12396 5418,12438 5350,12490 5289,12544 5235,12606 5183,12673 5141,12744 5102,12821 5073,12902 5051,12986 5038,13069 5035,13159 5038,13250 5051,13336 5073,13420 5102,13501 5141,13575 5183,13649 5235,13717 5289,13778 5350,13833 5418,13884 5489,13926 5566,13964 5647,13994 5731,14016 5815,14029 5905,14032 5969,14029 6030,14022 6092,14013 6150,13997 6208,13977 6265,13955 6317,13929 6369,13897 6420,13865 6465,13829 6510,13787 6552,13745 6588,13700 6623,13652 6655,13601 6685,13549 6691,13549 6698,13549 6704,13552 6710,13552 6752,13546 6797,13533 6846,13511 6891,13475 6933,13427 6965,13362 6987,13282 6997,13182 6991,13108 6978,13044 6952,12986 6916,12934 6875,12895 6823,12867 6762,12850 6694,12847 Z"/>
        <path fill="rgb(245,197,146)" stroke="none" d="M 6730,12970 L 6714,12970 6701,12976 6685,12982 6671,12989 6659,12998 6646,13011 6633,13021 6623,13031 6611,12966 6588,12908 6565,12847 6536,12793 6501,12741 6462,12689 6420,12644 6372,12602 6324,12564 6269,12528 6214,12499 6156,12474 6095,12454 6030,12441 5966,12432 5898,12429 5824,12432 5750,12445 5682,12461 5615,12487 5550,12519 5489,12554 5434,12596 5383,12644 5334,12696 5292,12751 5254,12812 5225,12876 5199,12944 5183,13014 5170,13089 5167,13163 5170,13237 5183,13311 5199,13382 5225,13449 5254,13514 5292,13575 5334,13630 5383,13681 5434,13729 5489,13771 5550,13807 5615,13839 5682,13865 5750,13881 5824,13894 5898,13897 5963,13894 6024,13887 6082,13874 6140,13855 6198,13836 6249,13807 6301,13778 6349,13742 6395,13704 6436,13665 6475,13620 6510,13572 6540,13520 6565,13465 6588,13411 6607,13353 6620,13366 6633,13378 6646,13388 6662,13398 6675,13404 6691,13411 6707,13414 6723,13414 6758,13411 6788,13398 6817,13378 6843,13350 6862,13320 6878,13282 6888,13243 6891,13201 6888,13156 6878,13115 6865,13076 6846,13040 6820,13011 6794,12989 6762,12976 6730,12970 Z"/>
        <path fill="rgb(30,34,38)" stroke="none" d="M 5512,12931 L 5547,12924 5576,12905 5595,12876 5602,12841 5595,12805 5576,12776 5547,12757 5512,12751 5476,12757 5447,12776 5428,12805 5421,12841 5428,12876 5447,12905 5476,12924 5512,12931 Z"/>
        <path fill="rgb(30,34,38)" stroke="none" d="M 6098,12966 L 6121,12963 6140,12957 6156,12947 6172,12934 6185,12918 6195,12902 6201,12883 6205,12860 6201,12837 6195,12818 6185,12802 6172,12786 6156,12773 6140,12763 6121,12757 6098,12754 6075,12757 6056,12763 6040,12773 6024,12786 6011,12802 6001,12818 5995,12837 5992,12860 5995,12883 6001,12902 6011,12918 6024,12934 6040,12947 6056,12957 6075,12963 6098,12966 Z"/>
        <path fill="rgb(30,34,38)" stroke="none" d="M 5605,13217 L 5779,12892 5785,12767 5496,13295 5902,13295 5902,13217 5605,13217 Z"/>
        <path fill="rgb(0,124,195)" stroke="none" d="M 6946,14373 L 6923,14348 6897,14325 6871,14302 6846,14283 6820,14264 6794,14248 6765,14232 6736,14216 6704,14203 6671,14193 6636,14183 6601,14174 6559,14167 6517,14161 6472,14158 6421,14132 5704,14146 5611,14155 5586,14158 5554,14164 5512,14167 5467,14174 5415,14180 5363,14187 5306,14190 5251,14193 5193,14196 5134,14200 5080,14200 5025,14196 4977,14190 4935,14183 4896,14171 4861,14155 4819,14135 4770,14106 4722,14068 4671,14022 4625,13968 4587,13903 4554,13829 4342,13874 4371,13961 4413,14051 4464,14141 4526,14229 4590,14312 4658,14383 4722,14447 4783,14496 4819,14518 4854,14541 4893,14564 4932,14586 4973,14608 5019,14628 5061,14650 5106,14666 5151,14686 5193,14705 5238,14721 5280,14734 5318,14750 5357,14760 5393,14773 5428,14782 5428,15410 6611,15413 6611,14898 6617,14898 6639,14898 6671,14895 6710,14892 6755,14882 6801,14870 6849,14847 6891,14821 6942,14773 6981,14718 7003,14660 7017,14599 7017,14538 7003,14480 6981,14422 6946,14373 Z"/>
        <path fill="rgb(255,255,255)" stroke="none" d="M 4442,13253 L 4439,13250 4435,13240 4426,13227 4413,13211 4397,13198 4381,13185 4361,13182 4342,13182 4322,13189 4300,13205 4281,13221 4261,13237 4242,13253 4229,13269 4219,13279 4216,13282 4310,13787 4519,13739 4538,13620 4558,13527 4570,13462 4570,13437 4561,13437 4545,13440 4529,13453 4513,13469 4497,13481 4484,13497 4474,13507 4471,13511 4442,13253 Z"/>
        <path fill="rgb(89,100,107)" stroke="none" d="M 5437,15507 L 5431,15517 5412,15549 5386,15604 5357,15675 5325,15768 5296,15877 5270,16003 5254,16144 5251,16338 5267,16579 5296,16846 5328,17117 5363,17371 5396,17577 5418,17722 5428,17774 5863,17774 5859,17687 5856,17487 5850,17265 5847,17107 5853,16946 5873,16782 5902,16624 5937,16476 5976,16351 6005,16251 6027,16186 6037,16164 6043,16186 6063,16248 6092,16338 6124,16457 6156,16595 6185,16747 6205,16901 6214,17056 6211,17214 6198,17446 6185,17658 6179,17751 6662,17751 6671,17693 6694,17539 6723,17317 6758,17053 6794,16776 6820,16512 6836,16293 6836,16141 6817,16022 6788,15906 6749,15800 6710,15703 6668,15623 6636,15562 6614,15520 6604,15507 5437,15507 Z"/>
        <path fill="rgb(30,34,38)" stroke="none" d="M 6717,13369 L 6736,13366 6755,13353 6768,13333 6772,13311 6768,13292 6755,13272 6736,13259 6717,13256 6694,13259 6675,13272 6662,13292 6659,13311 6662,13333 6675,13353 6694,13366 6717,13369 Z"/>
        <path fill="rgb(30,34,38)" stroke="none" d="M 6655,12979 L 6691,12954 6717,12912 6739,12857 6755,12793 6762,12725 6758,12654 6742,12583 6717,12519 6682,12464 6636,12419 6588,12387 6540,12364 6485,12354 6436,12351 6388,12358 6349,12374 6317,12396 6295,12432 6279,12474 6272,12525 6272,12583 6282,12641 6301,12702 6330,12767 6366,12825 6404,12876 6446,12921 6488,12954 6533,12976 6578,12989 6617,12992 6655,12979 Z"/>
        <path fill="rgb(30,34,38)" stroke="none" d="M 6510,14151 L 6510,14064 5866,14064 5905,14151 6510,14151 Z"/>
        <path fill="rgb(30,34,38)" stroke="none" d="M 5769,13707 L 5792,13704 5811,13700 5831,13691 5850,13678 5863,13665 5873,13649 5879,13633 5882,13614 5879,13594 5873,13578 5863,13562 5850,13549 5831,13539 5811,13530 5792,13527 5769,13523 5747,13527 5728,13530 5708,13539 5692,13549 5679,13562 5669,13578 5663,13594 5660,13614 5663,13633 5669,13649 5679,13665 5692,13678 5708,13691 5728,13700 5747,13704 5769,13707 Z"/>
        <path fill="rgb(30,34,38)" stroke="none" d="M 5637,13485 L 5599,13494 5544,13523 5476,13568 5402,13620 5334,13672 5276,13713 5238,13745 5222,13759 5222,13845 5399,13890 5405,13887 5421,13874 5447,13855 5476,13836 5505,13819 5531,13803 5550,13794 5563,13794 5595,13819 5628,13829 5666,13833 5702,13823 5734,13807 5763,13784 5785,13755 5802,13726 5808,13691 5811,13655 5805,13617 5792,13578 5766,13543 5734,13514 5692,13494 5637,13485 Z"/>
        <path fill="rgb(204,205,210)" stroke="none" d="M 5653,13552 L 5624,13559 5573,13581 5515,13617 5450,13658 5389,13704 5338,13739 5299,13768 5286,13778 5409,13813 5415,13810 5431,13800 5457,13784 5483,13768 5512,13752 5537,13739 5557,13733 5566,13733 5589,13755 5611,13771 5637,13775 5660,13775 5682,13768 5705,13755 5721,13736 5731,13713 5737,13688 5737,13665 5734,13639 5724,13617 5712,13598 5695,13578 5676,13562 5653,13552 Z"/>
        <path fill="rgb(30,34,38)" stroke="none" d="M 5444,13742 L 5476,13713 5383,13688 5350,13710 5444,13742 Z"/>
        <path fill="rgb(30,34,38)" stroke="none" d="M 6717,14332 L 6710,14335 6691,14341 6659,14351 6617,14361 6565,14367 6501,14370 6430,14364 6352,14351 6298,14338 6237,14319 6175,14293 6114,14261 6053,14225 5992,14180 5930,14129 5876,14068 5886,14019 5879,13971 5866,13926 5850,13887 5831,13855 5811,13833 5799,13816 5792,13810 5615,13649 5373,13833 5379,13839 5393,13852 5415,13871 5441,13897 5470,13926 5496,13955 5518,13984 5534,14006 5560,14058 5579,14116 5592,14164 5595,14183 5624,14229 5650,14274 5676,14316 5702,14357 5724,14396 5750,14435 5776,14473 5805,14509 5837,14547 5876,14583 5914,14621 5963,14663 6014,14702 6075,14747 6140,14789 6217,14837 6324,14895 6420,14937 6504,14963 6578,14979 6636,14989 6682,14989 6707,14989 6717,14989 6717,14332 Z"/>
        <path fill="rgb(30,34,38)" stroke="none" d="M 5930,15369 L 6059,15272 6021,14119 5853,14119 5815,15262 5930,15369 Z"/>
        <path fill="rgb(30,34,38)" stroke="none" d="M 6559,12474 L 6775,12293 6533,11936 5644,11704 5205,12000 5112,12235 5228,12361 5222,12477 6559,12474 Z"/>
        <path fill="rgb(30,34,38)" stroke="none" d="M 5718,12696 L 5795,12696 5873,12692 5950,12689 6021,12683 6088,12676 6153,12670 6214,12660 6272,12651 6320,12641 6369,12632 6407,12622 6440,12609 6469,12596 6488,12586 6501,12573 6504,12561 6501,12548 6491,12535 6472,12522 6449,12509 6417,12496 6382,12483 6340,12471 6295,12457 6240,12448 6185,12435 6124,12429 6059,12419 5989,12412 5918,12406 5840,12403 5763,12403 5682,12403 5605,12406 5524,12412 5447,12419 5373,12429 5302,12435 5231,12448 5170,12457 5109,12471 5057,12483 5009,12496 4970,12509 4938,12522 4912,12535 4900,12548 4893,12561 4896,12573 4912,12586 4932,12596 4960,12609 4999,12622 5041,12632 5090,12641 5148,12651 5205,12660 5270,12670 5338,12676 5409,12683 5483,12689 5560,12692 5637,12696 5718,12696 Z"/>
        <path fill="rgb(89,100,107)" stroke="none" d="M 5653,11797 L 5299,12048 5218,12229 5322,12326 5325,12326 5341,12329 5363,12332 5399,12335 5444,12338 5502,12342 5573,12348 5660,12354 5724,12358 5792,12361 5863,12361 5934,12361 6008,12358 6082,12358 6153,12354 6221,12351 6285,12348 6343,12342 6398,12338 6443,12335 6482,12332 6510,12332 6527,12329 6533,12329 6630,12251 6465,12016 5653,11797 Z"/>
        <path fill="rgb(30,34,38)" stroke="none" d="M 5821,12209 L 5847,12158 5847,12123 5831,12094 5805,12068 5795,12042 5811,12016 5834,11997 5847,11991 5663,11865 5512,11981 5518,11991 5531,12013 5537,12042 5521,12068 5486,12113 5483,12155 5499,12197 5521,12222 5550,12239 5589,12248 5631,12255 5679,12255 5724,12251 5766,12242 5802,12226 5821,12209 Z"/>
        <path fill="rgb(30,34,38)" stroke="none" d="M 5869,12300 L 5869,12235 5473,12235 5473,12300 5869,12300 Z"/>
        <path fill="rgb(238,225,173)" stroke="none" d="M 5776,12174 L 5795,12135 5789,12110 5769,12094 5747,12074 5747,12042 5753,12020 5763,12007 5766,12000 5666,11926 5566,12000 5573,12007 5583,12026 5589,12048 5579,12071 5554,12100 5544,12132 5550,12158 5566,12177 5586,12190 5615,12200 5644,12206 5676,12206 5708,12203 5737,12197 5760,12187 5776,12174 Z"/>
        <path fill="rgb(30,34,38)" stroke="none" d="M 6030,14624 L 6021,14612 6008,14602 5989,14599 5972,14602 5927,14621 5879,14638 5827,14650 5779,14657 5731,14657 5682,14647 5641,14628 5602,14599 5563,14541 5540,14477 5531,14415 5534,14348 5547,14283 5560,14216 5579,14151 5595,14087 5599,14061 5602,14032 5599,14003 5599,13977 5595,13961 5586,13948 5573,13939 5557,13936 5537,13939 5524,13948 5515,13961 5512,13977 5512,14003 5515,14032 5512,14061 5508,14087 5489,14155 5470,14225 5457,14296 5450,14370 5453,14438 5467,14509 5489,14573 5528,14634 5576,14679 5631,14712 5689,14731 5753,14734 5818,14731 5886,14721 5946,14705 6008,14683 6021,14673 6030,14657 6034,14641 6030,14624 Z"/>
        <path fill="rgb(30,34,38)" stroke="none" d="M 6701,14000 L 6633,14013 6565,14032 6504,14061 6443,14093 6385,14132 6330,14174 6275,14219 6227,14270 6211,14280 6188,14296 6166,14316 6159,14335 6166,14351 6175,14361 6191,14370 6208,14370 6227,14367 6243,14364 6259,14354 6275,14341 6320,14296 6372,14254 6420,14212 6475,14177 6530,14145 6585,14119 6646,14100 6710,14087 6726,14081 6739,14071 6749,14055 6749,14039 6742,14022 6733,14010 6717,14000 6701,14000 Z"/>
        <path fill="rgb(255,255,255)" stroke="none" d="M 5792,14077 L 5799,14064 5805,14026 5802,13974 5779,13913 5756,13884 5731,13852 5705,13823 5679,13797 5653,13771 5634,13755 5621,13742 5618,13739 5476,13833 5480,13836 5492,13849 5512,13865 5534,13884 5557,13906 5579,13932 5599,13958 5611,13980 5631,14035 5650,14087 5663,14125 5666,14141 5792,14077 Z"/>
        <path fill="rgb(0,124,195)" stroke="none" d="M 5708,14212 L 5731,14251 5756,14290 5782,14328 5811,14367 5840,14406 5873,14441 5905,14477 5937,14512 5972,14544 6008,14576 6047,14608 6085,14638 6124,14666 6162,14692 6201,14718 6243,14741 6314,14779 6372,14811 6420,14837 6469,14856 6514,14873 6562,14882 6617,14889 6682,14892 6710,14889 6736,14886 6762,14879 6788,14873 6813,14866 6836,14856 6859,14844 6878,14827 6762,14431 6730,14435 6701,14441 6671,14444 6639,14451 6611,14454 6581,14457 6549,14457 6517,14460 6485,14457 6449,14454 6411,14451 6372,14444 6330,14431 6285,14419 6237,14403 6185,14383 6143,14364 6101,14341 6056,14316 6011,14286 5969,14254 5924,14222 5882,14183 5843,14141 5708,14212 Z"/>
        <path fill="rgb(255,255,255)" stroke="none" d="M 6252,15336 L 6252,15057 6343,15057 6355,15057 6366,15057 6376,15058 6385,15058 6393,15059 6400,15060 6405,15061 6410,15061 6416,15063 6421,15065 6427,15068 6432,15071 6437,15075 6441,15079 6446,15084 6450,15089 6454,15094 6457,15100 6460,15106 6462,15113 6464,15120 6465,15127 6466,15135 6466,15143 6466,15150 6465,15156 6465,15161 6464,15167 6463,15172 6461,15177 6459,15182 6457,15186 6454,15190 6452,15194 6449,15198 6446,15202 6443,15205 6440,15208 6437,15211 6433,15214 6426,15218 6419,15222 6415,15224 6411,15225 6408,15226 6404,15227 6393,15229 6379,15230 6363,15231 6345,15231 6309,15231 6309,15336 6252,15336 Z M 6309,15105 L 6309,15184 6340,15184 6355,15183 6367,15182 6372,15182 6377,15181 6381,15180 6384,15179 6387,15178 6389,15177 6392,15175 6394,15174 6396,15172 6398,15170 6400,15168 6402,15166 6403,15163 6405,15161 6405,15158 6407,15156 6407,15153 6408,15150 6408,15147 6408,15144 6408,15140 6407,15137 6407,15133 6406,15130 6405,15127 6403,15124 6401,15121 6399,15119 6397,15116 6395,15114 6392,15112 6389,15111 6386,15109 6383,15108 6380,15107 6377,15106 6370,15105 6361,15105 6350,15105 6336,15105 6309,15105 Z"/>
       </g>
      </g>
     </g>
    </g>
   </g>
  </g>
 </g>
</svg>