<?xml version="1.0" encoding="UTF-8"?>
<!DOCTYPE svg PUBLIC "-//W3C//DTD SVG 1.1//EN" "http://www.w3.org/Graphics/SVG/1.1/DTD/svg11.dtd">
<svg version="1.2" width="29.99mm" height="64.13mm" viewBox="10923 11701 2999 6413" preserveAspectRatio="xMidYMid" fill-rule="evenodd" stroke-width="28.222" stroke-linejoin="round" xmlns="http://www.w3.org/2000/svg" xmlns:ooo="http://xml.openoffice.org/svg/export" xmlns:xlink="http://www.w3.org/1999/xlink" xmlns:presentation="http://sun.com/xmlns/staroffice/presentation" xmlns:smil="http://www.w3.org/2001/SMIL20/" xmlns:anim="urn:oasis:names:tc:opendocument:xmlns:animation:1.0" xml:space="preserve">
 <defs class="ClipPathGroup">
  <clipPath id="presentation_clip_path" clipPathUnits="userSpaceOnUse">
   <rect x="10923" y="11701" width="2999" height="6413"/>
  </clipPath>
  <clipPath id="presentation_clip_path_shrink" clipPathUnits="userSpaceOnUse">
   <rect x="10925" y="11707" width="2994" height="6401"/>
  </clipPath>
 </defs>
 <defs class="TextShapeIndex">
  <g ooo:slide="id1" ooo:id-list="id3"/>
 </defs>
 <defs class="EmbeddedBulletChars">
  <g id="bullet-char-template-57356" transform="scale(0.00048828125,-0.00048828125)">
   <path d="M 580,1141 L 1163,571 580,0 -4,571 580,1141 Z"/>
  </g>
  <g id="bullet-char-template-57354" transform="scale(0.00048828125,-0.00048828125)">
   <path d="M 8,1128 L 1137,1128 1137,0 8,0 8,1128 Z"/>
  </g>
  <g id="bullet-char-template-10146" transform="scale(0.00048828125,-0.00048828125)">
   <path d="M 174,0 L 602,739 174,1481 1456,739 174,0 Z M 1358,739 L 309,1346 659,739 1358,739 Z"/>
  </g>
  <g id="bullet-char-template-10132" transform="scale(0.00048828125,-0.00048828125)">
   <path d="M 2015,739 L 1276,0 717,0 1260,543 174,543 174,936 1260,936 717,1481 1274,1481 2015,739 Z"/>
  </g>
  <g id="bullet-char-template-10007" transform="scale(0.00048828125,-0.00048828125)">
   <path d="M 0,-2 C -7,14 -16,27 -25,37 L 356,567 C 262,823 215,952 215,954 215,979 228,992 255,992 264,992 276,990 289,987 310,991 331,999 354,1012 L 381,999 492,748 772,1049 836,1024 860,1049 C 881,1039 901,1025 922,1006 886,937 835,863 770,784 769,783 710,716 594,584 L 774,223 C 774,196 753,168 711,139 L 727,119 C 717,90 699,76 672,76 641,76 570,178 457,381 L 164,-76 C 142,-110 111,-127 72,-127 30,-127 9,-110 8,-76 1,-67 -2,-52 -2,-32 -2,-23 -1,-13 0,-2 Z"/>
  </g>
  <g id="bullet-char-template-10004" transform="scale(0.00048828125,-0.00048828125)">
   <path d="M 285,-33 C 182,-33 111,30 74,156 52,228 41,333 41,471 41,549 55,616 82,672 116,743 169,778 240,778 293,778 328,747 346,684 L 369,508 C 377,444 397,411 428,410 L 1163,1116 C 1174,1127 1196,1133 1229,1133 1271,1133 1292,1118 1292,1087 L 1292,965 C 1292,929 1282,901 1262,881 L 442,47 C 390,-6 338,-33 285,-33 Z"/>
  </g>
  <g id="bullet-char-template-9679" transform="scale(0.00048828125,-0.00048828125)">
   <path d="M 813,0 C 632,0 489,54 383,161 276,268 223,411 223,592 223,773 276,916 383,1023 489,1130 632,1184 813,1184 992,1184 1136,1130 1245,1023 1353,916 1407,772 1407,592 1407,412 1353,268 1245,161 1136,54 992,0 813,0 Z"/>
  </g>
  <g id="bullet-char-template-8226" transform="scale(0.00048828125,-0.00048828125)">
   <path d="M 346,457 C 273,457 209,483 155,535 101,586 74,649 74,723 74,796 101,859 155,911 209,963 273,989 346,989 419,989 480,963 531,910 582,859 608,796 608,723 608,648 583,586 532,535 482,483 420,457 346,457 Z"/>
  </g>
  <g id="bullet-char-template-8211" transform="scale(0.00048828125,-0.00048828125)">
   <path d="M -4,459 L 1135,459 1135,606 -4,606 -4,459 Z"/>
  </g>
  <g id="bullet-char-template-61548" transform="scale(0.00048828125,-0.00048828125)">
   <path d="M 173,740 C 173,903 231,1043 346,1159 462,1274 601,1332 765,1332 928,1332 1067,1274 1183,1159 1299,1043 1357,903 1357,740 1357,577 1299,437 1183,322 1067,206 928,148 765,148 601,148 462,206 346,322 231,437 173,577 173,740 Z"/>
  </g>
 </defs>
 <defs class="TextEmbeddedBitmaps"/>
 <g class="SlideGroup">
  <g>
   <g id="container-id1">
    <g id="id1" class="Slide" clip-path="url(#presentation_clip_path)">
     <g class="Page">
      <g class="Graphic">
       <g id="id3">
        <rect class="BoundingBox" stroke="none" fill="none" x="10923" y="11701" width="3000" height="6414"/>
        <path fill="rgb(30,34,38)" stroke="none" d="M 13382,14202 L 13382,13596 12434,13796 12434,14202 13382,14202 Z"/>
        <path fill="rgb(30,34,38)" stroke="none" d="M 13623,14151 L 13552,14121 13485,14099 13414,14083 13353,14073 13295,14067 13253,14063 13224,14060 13214,14060 12489,14067 12483,14067 12470,14067 12444,14067 12412,14070 12376,14073 12331,14077 12286,14083 12238,14093 12157,14099 12086,14102 12025,14105 11967,14109 11912,14109 11864,14109 11819,14109 11777,14105 11680,14083 11603,14038 11535,13976 11484,13909 11442,13841 11416,13783 11400,13744 11394,13728 11429,13635 11452,13535 11468,13454 11471,13422 11474,13403 11474,13380 11464,13358 11452,13345 11426,13338 11403,13338 11381,13345 11358,13351 11339,13361 11326,13371 11316,13377 11313,13380 11313,13183 11310,13180 11300,13167 11287,13151 11264,13132 11239,13116 11206,13100 11165,13090 11119,13087 11084,13093 11049,13113 11016,13139 10984,13167 10958,13197 10939,13222 10926,13242 10923,13248 10926,13274 10939,13338 10955,13432 10971,13538 10991,13648 11007,13741 11016,13809 11023,13835 11029,13857 11052,13912 11091,13999 11139,14102 11206,14218 11284,14338 11381,14447 11487,14544 11535,14579 11580,14611 11629,14641 11674,14669 11719,14692 11764,14718 11806,14740 11848,14760 11890,14776 11928,14795 11967,14808 12002,14821 12035,14834 12067,14843 12099,14853 12125,14863 12125,15446 12119,15459 12099,15498 12070,15562 12038,15649 12002,15756 11974,15888 11948,16036 11935,16204 11935,16410 11954,16665 11980,16945 12015,17222 12051,17480 12080,17693 12103,17838 12112,17889 12325,17886 12312,17889 12277,17896 12225,17912 12170,17931 12112,17963 12064,18002 12032,18054 12022,18115 12789,18115 12782,18089 12766,18054 12740,18015 12715,17976 12689,17938 12663,17905 12647,17883 12640,17876 12760,17876 12760,17783 12766,17564 12769,17322 12769,17148 12779,17000 12802,16813 12821,16652 12831,16584 12840,16661 12860,16842 12879,17029 12885,17142 12876,17284 12863,17532 12850,17770 12844,17876 12963,17876 12959,17883 12947,17905 12927,17938 12908,17973 12889,18015 12869,18054 12856,18086 12853,18112 13662,18112 13662,18054 13630,18006 13582,17963 13523,17931 13462,17905 13408,17886 13369,17876 13353,17873 13565,17876 13572,17825 13594,17686 13623,17483 13659,17235 13694,16964 13723,16697 13746,16449 13755,16246 13746,16129 13717,16001 13678,15865 13633,15736 13588,15617 13546,15524 13517,15459 13507,15437 13507,15001 13520,14998 13559,14992 13610,14976 13675,14950 13739,14914 13804,14870 13855,14808 13891,14731 13920,14611 13923,14508 13910,14421 13875,14347 13826,14289 13768,14235 13697,14189 13623,14151 Z"/>
        <path fill="rgb(245,197,146)" stroke="none" d="M 13246,14215 L 13246,13828 12553,13828 12553,14215 13246,14215 Z"/>
        <path fill="rgb(30,34,38)" stroke="none" d="M 13491,12845 L 13485,12839 13472,12823 13449,12794 13417,12758 13382,12716 13337,12668 13285,12619 13230,12565 13172,12513 13108,12465 13043,12417 12976,12374 12908,12339 12837,12310 12769,12294 12702,12287 12612,12291 12528,12304 12444,12326 12363,12355 12286,12394 12215,12436 12147,12488 12086,12542 12032,12603 11980,12671 11938,12742 11899,12819 11870,12900 11848,12984 11835,13068 11832,13158 11835,13248 11848,13335 11870,13419 11899,13499 11938,13573 11980,13648 12032,13715 12086,13777 12147,13832 12215,13883 12286,13925 12363,13964 12444,13993 12528,14015 12612,14028 12702,14031 12766,14028 12827,14022 12889,14012 12947,13996 13005,13976 13062,13954 13114,13928 13166,13896 13217,13864 13262,13828 13307,13786 13349,13744 13385,13699 13420,13651 13452,13600 13482,13548 13488,13548 13495,13548 13501,13551 13507,13551 13549,13545 13594,13532 13643,13509 13688,13474 13730,13426 13762,13361 13784,13280 13794,13180 13788,13106 13775,13042 13749,12984 13713,12932 13672,12894 13620,12865 13559,12848 13491,12845 Z"/>
        <path fill="rgb(245,197,146)" stroke="none" d="M 13527,12968 L 13511,12968 13498,12974 13482,12981 13468,12987 13456,12997 13443,13009 13430,13019 13420,13029 13408,12965 13385,12906 13362,12845 13333,12791 13298,12739 13259,12687 13217,12642 13169,12600 13121,12562 13066,12526 13011,12497 12953,12471 12892,12452 12827,12439 12763,12429 12695,12426 12621,12429 12547,12442 12479,12458 12412,12484 12347,12516 12286,12552 12231,12594 12180,12642 12131,12694 12089,12748 12051,12810 12022,12874 11996,12942 11980,13013 11967,13087 11964,13161 11967,13235 11980,13309 11996,13380 12022,13448 12051,13513 12089,13573 12131,13628 12180,13680 12231,13728 12286,13770 12347,13806 12412,13838 12479,13864 12547,13880 12621,13893 12695,13896 12760,13893 12821,13886 12879,13873 12937,13854 12995,13835 13046,13806 13098,13777 13146,13741 13192,13703 13233,13664 13272,13619 13307,13570 13337,13519 13362,13464 13385,13409 13404,13351 13417,13364 13430,13377 13443,13387 13459,13396 13472,13403 13488,13409 13504,13412 13520,13412 13555,13409 13585,13396 13614,13377 13640,13348 13659,13319 13675,13280 13685,13242 13688,13200 13685,13155 13675,13113 13662,13074 13643,13039 13617,13009 13591,12987 13559,12974 13527,12968 Z"/>
        <path fill="rgb(30,34,38)" stroke="none" d="M 12309,12929 L 12344,12922 12373,12903 12392,12874 12399,12839 12392,12803 12373,12774 12344,12755 12309,12748 12273,12755 12244,12774 12225,12803 12218,12839 12225,12874 12244,12903 12273,12922 12309,12929 Z"/>
        <path fill="rgb(30,34,38)" stroke="none" d="M 12895,12965 L 12918,12961 12937,12955 12953,12945 12969,12932 12982,12916 12992,12900 12998,12881 13002,12858 12998,12835 12992,12816 12982,12800 12969,12784 12953,12771 12937,12761 12918,12755 12895,12752 12872,12755 12853,12761 12837,12771 12821,12784 12808,12800 12798,12816 12792,12835 12789,12858 12792,12881 12798,12900 12808,12916 12821,12932 12837,12945 12853,12955 12872,12961 12895,12965 Z"/>
        <path fill="rgb(30,34,38)" stroke="none" d="M 12402,13216 L 12576,12890 12582,12765 12293,13293 12699,13293 12699,13216 12402,13216 Z"/>
        <path fill="rgb(140,172,209)" stroke="none" d="M 13743,14373 L 13720,14347 13694,14325 13668,14302 13643,14283 13617,14263 13591,14247 13562,14231 13533,14215 13501,14202 13468,14192 13433,14183 13398,14173 13356,14167 13314,14160 13269,14157 13220,14154 12425,14154 12408,14154 12383,14157 12351,14164 12309,14167 12264,14173 12212,14180 12160,14186 12103,14189 12048,14192 11990,14196 11931,14199 11877,14199 11822,14196 11774,14189 11732,14183 11693,14170 11658,14154 11616,14134 11567,14105 11519,14067 11468,14022 11422,13967 11384,13902 11351,13828 11139,13873 11168,13960 11210,14051 11261,14141 11323,14228 11387,14312 11455,14382 11519,14447 11580,14495 11616,14518 11651,14540 11690,14563 11729,14586 11770,14608 11816,14628 11858,14650 11903,14666 11948,14686 11990,14705 12035,14721 12077,14734 12115,14750 12154,14760 12190,14773 12225,14782 12225,15411 13408,15414 13408,14898 13414,14898 13436,14898 13468,14895 13507,14892 13552,14882 13598,14870 13646,14847 13688,14821 13739,14773 13778,14718 13800,14660 13814,14599 13814,14537 13800,14479 13778,14421 13743,14373 Z"/>
        <path fill="rgb(255,255,255)" stroke="none" d="M 11239,13251 L 11236,13248 11232,13238 11223,13226 11210,13209 11194,13197 11178,13183 11158,13180 11139,13180 11119,13187 11097,13203 11078,13219 11058,13235 11039,13251 11026,13268 11016,13277 11013,13280 11107,13786 11316,13738 11335,13619 11355,13525 11367,13461 11367,13435 11358,13435 11342,13438 11326,13451 11310,13467 11294,13480 11281,13496 11271,13506 11268,13509 11239,13251 Z"/>
        <path fill="rgb(89,100,107)" stroke="none" d="M 12234,15507 L 12228,15517 12209,15549 12183,15604 12154,15675 12122,15769 12093,15878 12067,16004 12051,16146 12048,16339 12064,16581 12093,16848 12125,17119 12160,17374 12193,17580 12215,17725 12225,17777 12660,17777 12656,17690 12653,17490 12647,17267 12644,17109 12650,16948 12670,16784 12699,16626 12734,16478 12773,16352 12802,16252 12824,16188 12834,16165 12840,16188 12860,16249 12889,16339 12921,16458 12953,16597 12982,16748 13002,16903 13011,17058 13008,17216 12995,17448 12982,17660 12976,17754 13459,17754 13468,17696 13491,17541 13520,17319 13555,17055 13591,16777 13617,16513 13633,16294 13633,16142 13614,16023 13585,15907 13546,15801 13507,15704 13465,15624 13433,15562 13411,15521 13401,15507 12234,15507 Z"/>
        <path fill="rgb(30,34,38)" stroke="none" d="M 13514,13367 L 13533,13364 13552,13351 13565,13332 13569,13309 13565,13290 13552,13271 13533,13258 13514,13254 13491,13258 13472,13271 13459,13290 13456,13309 13459,13332 13472,13351 13491,13364 13514,13367 Z"/>
        <path fill="rgb(30,34,38)" stroke="none" d="M 13452,12977 L 13488,12952 13514,12910 13536,12855 13552,12791 13559,12723 13555,12652 13539,12581 13514,12516 13479,12461 13433,12417 13385,12384 13337,12362 13282,12352 13233,12349 13185,12355 13146,12371 13114,12394 13092,12429 13076,12471 13069,12523 13069,12581 13079,12639 13098,12700 13127,12765 13163,12823 13201,12874 13243,12919 13285,12952 13330,12974 13375,12987 13414,12990 13452,12977 Z"/>
        <path fill="rgb(30,34,38)" stroke="none" d="M 13307,14151 L 13307,14063 12663,14063 12702,14151 13307,14151 Z"/>
        <path fill="rgb(30,34,38)" stroke="none" d="M 12566,13706 L 12589,13703 12608,13699 12628,13690 12647,13677 12660,13664 12670,13648 12676,13632 12679,13612 12676,13593 12670,13577 12660,13561 12647,13548 12628,13538 12608,13529 12589,13525 12566,13522 12544,13525 12525,13529 12505,13538 12489,13548 12476,13561 12466,13577 12460,13593 12457,13612 12460,13632 12466,13648 12476,13664 12489,13677 12505,13690 12525,13699 12544,13703 12566,13706 Z"/>
        <path fill="rgb(30,34,38)" stroke="none" d="M 12434,13483 L 12396,13493 12341,13522 12273,13567 12199,13619 12131,13670 12073,13712 12035,13744 12019,13757 12019,13844 12196,13889 12202,13886 12218,13873 12244,13854 12273,13835 12302,13818 12328,13802 12347,13793 12360,13793 12392,13818 12425,13828 12463,13832 12499,13822 12531,13806 12560,13783 12582,13754 12599,13725 12605,13690 12608,13654 12602,13616 12589,13577 12563,13541 12531,13513 12489,13493 12434,13483 Z"/>
        <path fill="rgb(204,205,210)" stroke="none" d="M 12450,13551 L 12421,13557 12370,13580 12312,13616 12247,13657 12186,13703 12135,13738 12096,13767 12083,13777 12206,13812 12212,13809 12228,13799 12254,13783 12280,13767 12309,13751 12334,13738 12354,13731 12363,13731 12386,13754 12408,13770 12434,13774 12457,13774 12479,13767 12502,13754 12518,13735 12528,13712 12534,13687 12534,13664 12531,13638 12521,13616 12509,13596 12492,13577 12473,13561 12450,13551 Z"/>
        <path fill="rgb(30,34,38)" stroke="none" d="M 12241,13741 L 12273,13712 12180,13687 12147,13709 12241,13741 Z"/>
        <path fill="rgb(30,34,38)" stroke="none" d="M 13514,14331 L 13507,14334 13488,14341 13456,14350 13414,14360 13362,14366 13298,14370 13227,14363 13149,14350 13095,14338 13034,14318 12972,14292 12911,14260 12850,14225 12789,14180 12727,14128 12673,14067 12683,14018 12676,13970 12663,13925 12647,13886 12628,13854 12608,13832 12596,13815 12589,13809 12412,13648 12170,13832 12176,13838 12190,13851 12212,13870 12238,13896 12267,13925 12293,13954 12315,13983 12331,14006 12357,14057 12376,14115 12389,14164 12392,14183 12421,14228 12447,14273 12473,14315 12499,14357 12521,14396 12547,14434 12573,14473 12602,14508 12634,14547 12673,14582 12711,14621 12760,14663 12811,14702 12872,14747 12937,14789 13014,14837 13121,14895 13217,14937 13301,14963 13375,14979 13433,14989 13479,14989 13504,14989 13514,14989 13514,14331 Z"/>
        <path fill="rgb(30,34,38)" stroke="none" d="M 12727,15369 L 12856,15272 12818,14118 12650,14118 12612,15262 12727,15369 Z"/>
        <path fill="rgb(30,34,38)" stroke="none" d="M 13356,12471 L 13572,12291 13330,11933 12441,11701 12002,11998 11909,12233 12025,12358 12019,12475 13356,12471 Z"/>
        <path fill="rgb(30,34,38)" stroke="none" d="M 12515,12694 L 12592,12694 12670,12690 12747,12687 12818,12681 12885,12674 12950,12668 13011,12658 13069,12649 13117,12639 13166,12629 13204,12619 13237,12607 13266,12594 13285,12584 13298,12571 13301,12558 13298,12546 13288,12532 13269,12520 13246,12507 13214,12494 13179,12481 13137,12468 13092,12455 13037,12445 12982,12433 12921,12426 12856,12417 12786,12410 12715,12404 12637,12401 12560,12401 12479,12401 12402,12404 12321,12410 12244,12417 12170,12426 12099,12433 12028,12445 11967,12455 11906,12468 11854,12481 11806,12494 11767,12507 11735,12520 11709,12532 11697,12546 11690,12558 11693,12571 11709,12584 11729,12594 11757,12607 11796,12619 11838,12629 11887,12639 11945,12649 12002,12658 12067,12668 12135,12674 12206,12681 12280,12687 12357,12690 12434,12694 12515,12694 Z"/>
        <path fill="rgb(89,100,107)" stroke="none" d="M 12450,11794 L 12096,12046 12015,12227 12119,12323 12122,12323 12138,12326 12160,12330 12196,12333 12241,12336 12299,12339 12370,12346 12457,12352 12521,12355 12589,12358 12660,12358 12731,12358 12805,12355 12879,12355 12950,12352 13018,12349 13082,12346 13140,12339 13195,12336 13240,12333 13279,12330 13307,12330 13324,12326 13330,12326 13427,12249 13262,12014 12450,11794 Z"/>
        <path fill="rgb(30,34,38)" stroke="none" d="M 12618,12207 L 12644,12156 12644,12120 12628,12091 12602,12065 12592,12039 12608,12014 12631,11994 12644,11988 12460,11862 12309,11978 12315,11988 12328,12010 12334,12039 12318,12065 12283,12110 12280,12152 12296,12194 12318,12220 12347,12236 12386,12246 12428,12252 12476,12252 12521,12249 12563,12239 12599,12223 12618,12207 Z"/>
        <path fill="rgb(30,34,38)" stroke="none" d="M 12666,12297 L 12666,12233 12270,12233 12270,12297 12666,12297 Z"/>
        <path fill="rgb(238,225,173)" stroke="none" d="M 12573,12172 L 12592,12133 12586,12107 12566,12091 12544,12072 12544,12039 12550,12017 12560,12004 12563,11998 12463,11923 12363,11998 12370,12004 12380,12023 12386,12046 12376,12069 12351,12097 12341,12130 12347,12156 12363,12175 12383,12188 12412,12197 12441,12204 12473,12204 12505,12200 12534,12194 12557,12184 12573,12172 Z"/>
        <path fill="rgb(30,34,38)" stroke="none" d="M 12827,14624 L 12818,14611 12805,14602 12786,14599 12769,14602 12724,14621 12676,14637 12624,14650 12576,14657 12528,14657 12479,14647 12438,14628 12399,14599 12360,14540 12337,14476 12328,14415 12331,14347 12344,14283 12357,14215 12376,14151 12392,14086 12396,14060 12399,14031 12396,14002 12396,13976 12392,13960 12383,13948 12370,13938 12354,13935 12334,13938 12321,13948 12312,13960 12309,13976 12309,14002 12312,14031 12309,14060 12305,14086 12286,14154 12267,14225 12254,14295 12247,14370 12250,14437 12264,14508 12286,14573 12325,14634 12373,14679 12428,14712 12486,14731 12550,14734 12615,14731 12683,14721 12743,14705 12805,14682 12818,14673 12827,14657 12831,14641 12827,14624 Z"/>
        <path fill="rgb(30,34,38)" stroke="none" d="M 13498,13999 L 13430,14012 13362,14031 13301,14060 13240,14093 13182,14131 13127,14173 13072,14218 13024,14270 13008,14279 12985,14295 12963,14315 12956,14334 12963,14350 12972,14360 12988,14370 13005,14370 13024,14366 13040,14363 13056,14354 13072,14341 13117,14295 13169,14254 13217,14212 13272,14176 13327,14144 13382,14118 13443,14099 13507,14086 13523,14080 13536,14070 13546,14054 13546,14038 13539,14022 13530,14009 13514,13999 13498,13999 Z"/>
        <path fill="rgb(255,255,255)" stroke="none" d="M 12589,14077 L 12596,14063 12602,14025 12599,13973 12576,13912 12553,13883 12528,13851 12502,13822 12476,13796 12450,13770 12431,13754 12418,13741 12415,13738 12273,13832 12277,13835 12289,13848 12309,13864 12331,13883 12354,13905 12376,13931 12396,13957 12408,13980 12428,14034 12447,14086 12460,14125 12463,14141 12589,14077 Z"/>
        <path fill="rgb(140,172,209)" stroke="none" d="M 12505,14212 L 12528,14251 12553,14289 12579,14328 12608,14366 12637,14405 12670,14441 12702,14476 12734,14512 12769,14544 12805,14576 12844,14608 12882,14637 12921,14666 12959,14692 12998,14718 13040,14740 13111,14779 13169,14811 13217,14837 13266,14856 13311,14873 13359,14882 13414,14889 13479,14892 13507,14889 13533,14886 13559,14879 13585,14873 13610,14866 13633,14856 13656,14843 13675,14827 13559,14431 13527,14434 13498,14441 13468,14444 13436,14450 13408,14453 13378,14457 13346,14457 13314,14460 13282,14457 13246,14453 13208,14450 13169,14444 13127,14431 13082,14418 13034,14402 12982,14382 12940,14363 12898,14341 12853,14315 12808,14286 12766,14254 12721,14221 12679,14183 12640,14141 12505,14212 Z"/>
       </g>
      </g>
     </g>
    </g>
   </g>
  </g>
 </g>
</svg>