<?xml version="1.0" encoding="UTF-8"?>
<!DOCTYPE svg PUBLIC "-//W3C//DTD SVG 1.1//EN" "http://www.w3.org/Graphics/SVG/1.1/DTD/svg11.dtd">
<svg version="1.2" width="29.99mm" height="64.07mm" viewBox="9095 11704 2999 6407" preserveAspectRatio="xMidYMid" fill-rule="evenodd" stroke-width="28.222" stroke-linejoin="round" xmlns="http://www.w3.org/2000/svg" xmlns:ooo="http://xml.openoffice.org/svg/export" xmlns:xlink="http://www.w3.org/1999/xlink" xmlns:presentation="http://sun.com/xmlns/staroffice/presentation" xmlns:smil="http://www.w3.org/2001/SMIL20/" xmlns:anim="urn:oasis:names:tc:opendocument:xmlns:animation:1.0" xml:space="preserve">
 <defs class="ClipPathGroup">
  <clipPath id="presentation_clip_path" clipPathUnits="userSpaceOnUse">
   <rect x="9095" y="11704" width="2999" height="6407"/>
  </clipPath>
  <clipPath id="presentation_clip_path_shrink" clipPathUnits="userSpaceOnUse">
   <rect x="9097" y="11710" width="2994" height="6395"/>
  </clipPath>
 </defs>
 <defs class="TextShapeIndex">
  <g ooo:slide="id1" ooo:id-list="id3"/>
 </defs>
 <defs class="EmbeddedBulletChars">
  <g id="bullet-char-template-57356" transform="scale(0.00048828125,-0.00048828125)">
   <path d="M 580,1141 L 1163,571 580,0 -4,571 580,1141 Z"/>
  </g>
  <g id="bullet-char-template-57354" transform="scale(0.00048828125,-0.00048828125)">
   <path d="M 8,1128 L 1137,1128 1137,0 8,0 8,1128 Z"/>
  </g>
  <g id="bullet-char-template-10146" transform="scale(0.00048828125,-0.00048828125)">
   <path d="M 174,0 L 602,739 174,1481 1456,739 174,0 Z M 1358,739 L 309,1346 659,739 1358,739 Z"/>
  </g>
  <g id="bullet-char-template-10132" transform="scale(0.00048828125,-0.00048828125)">
   <path d="M 2015,739 L 1276,0 717,0 1260,543 174,543 174,936 1260,936 717,1481 1274,1481 2015,739 Z"/>
  </g>
  <g id="bullet-char-template-10007" transform="scale(0.00048828125,-0.00048828125)">
   <path d="M 0,-2 C -7,14 -16,27 -25,37 L 356,567 C 262,823 215,952 215,954 215,979 228,992 255,992 264,992 276,990 289,987 310,991 331,999 354,1012 L 381,999 492,748 772,1049 836,1024 860,1049 C 881,1039 901,1025 922,1006 886,937 835,863 770,784 769,783 710,716 594,584 L 774,223 C 774,196 753,168 711,139 L 727,119 C 717,90 699,76 672,76 641,76 570,178 457,381 L 164,-76 C 142,-110 111,-127 72,-127 30,-127 9,-110 8,-76 1,-67 -2,-52 -2,-32 -2,-23 -1,-13 0,-2 Z"/>
  </g>
  <g id="bullet-char-template-10004" transform="scale(0.00048828125,-0.00048828125)">
   <path d="M 285,-33 C 182,-33 111,30 74,156 52,228 41,333 41,471 41,549 55,616 82,672 116,743 169,778 240,778 293,778 328,747 346,684 L 369,508 C 377,444 397,411 428,410 L 1163,1116 C 1174,1127 1196,1133 1229,1133 1271,1133 1292,1118 1292,1087 L 1292,965 C 1292,929 1282,901 1262,881 L 442,47 C 390,-6 338,-33 285,-33 Z"/>
  </g>
  <g id="bullet-char-template-9679" transform="scale(0.00048828125,-0.00048828125)">
   <path d="M 813,0 C 632,0 489,54 383,161 276,268 223,411 223,592 223,773 276,916 383,1023 489,1130 632,1184 813,1184 992,1184 1136,1130 1245,1023 1353,916 1407,772 1407,592 1407,412 1353,268 1245,161 1136,54 992,0 813,0 Z"/>
  </g>
  <g id="bullet-char-template-8226" transform="scale(0.00048828125,-0.00048828125)">
   <path d="M 346,457 C 273,457 209,483 155,535 101,586 74,649 74,723 74,796 101,859 155,911 209,963 273,989 346,989 419,989 480,963 531,910 582,859 608,796 608,723 608,648 583,586 532,535 482,483 420,457 346,457 Z"/>
  </g>
  <g id="bullet-char-template-8211" transform="scale(0.00048828125,-0.00048828125)">
   <path d="M -4,459 L 1135,459 1135,606 -4,606 -4,459 Z"/>
  </g>
  <g id="bullet-char-template-61548" transform="scale(0.00048828125,-0.00048828125)">
   <path d="M 173,740 C 173,903 231,1043 346,1159 462,1274 601,1332 765,1332 928,1332 1067,1274 1183,1159 1299,1043 1357,903 1357,740 1357,577 1299,437 1183,322 1067,206 928,148 765,148 601,148 462,206 346,322 231,437 173,577 173,740 Z"/>
  </g>
 </defs>
 <defs class="TextEmbeddedBitmaps"/>
 <g class="SlideGroup">
  <g>
   <g id="container-id1">
    <g id="id1" class="Slide" clip-path="url(#presentation_clip_path)">
     <g class="Page">
      <g class="Graphic">
       <g id="id3">
        <rect class="BoundingBox" stroke="none" fill="none" x="9095" y="11704" width="3000" height="6408"/>
        <path fill="rgb(38,46,52)" stroke="none" d="M 11553,14203 L 11553,13598 10606,13798 10606,14203 11553,14203 Z"/>
        <path fill="rgb(38,46,52)" stroke="none" d="M 11796,14151 L 11725,14122 11657,14100 11587,14084 11525,14074 11467,14068 11425,14065 11396,14062 11387,14062 10661,14068 10655,14068 10641,14068 10616,14068 10584,14071 10549,14074 10503,14077 10458,14084 10409,14094 10329,14100 10258,14103 10197,14107 10139,14110 10084,14110 10036,14110 9990,14110 9949,14107 9852,14084 9775,14039 9707,13978 9655,13910 9613,13842 9588,13785 9571,13746 9565,13729 9600,13636 9623,13536 9639,13457 9642,13423 9645,13405 9645,13382 9637,13359 9623,13346 9598,13340 9575,13340 9552,13346 9530,13352 9511,13362 9498,13372 9487,13379 9485,13382 9485,13186 9482,13183 9472,13169 9459,13153 9437,13134 9410,13117 9378,13102 9336,13092 9292,13089 9255,13095 9220,13114 9188,13141 9156,13169 9130,13198 9111,13225 9098,13244 9095,13250 9098,13275 9111,13340 9127,13433 9143,13539 9162,13650 9179,13743 9188,13810 9194,13836 9201,13858 9223,13914 9262,14000 9311,14103 9378,14220 9455,14339 9552,14448 9659,14544 9707,14580 9753,14612 9800,14641 9846,14670 9891,14692 9936,14719 9978,14741 10020,14761 10061,14776 10100,14796 10139,14808 10175,14821 10207,14835 10239,14844 10271,14854 10297,14863 10297,15446 10290,15458 10271,15497 10242,15562 10210,15649 10175,15755 10145,15887 10120,16035 10106,16203 10106,16408 10126,16663 10152,16944 10187,17220 10222,17478 10251,17690 10274,17835 10284,17887 10497,17883 10483,17887 10448,17893 10397,17909 10342,17929 10284,17961 10236,17999 10204,18051 10194,18112 10961,18112 10954,18087 10939,18051 10912,18013 10887,17974 10861,17935 10835,17902 10819,17880 10813,17873 10932,17873 10932,17781 10939,17561 10941,17320 10941,17146 10951,16998 10974,16811 10993,16650 11003,16582 11013,16660 11032,16840 11051,17027 11057,17139 11048,17282 11035,17529 11022,17768 11016,17873 11134,17873 11132,17880 11119,17902 11099,17935 11080,17971 11060,18013 11041,18051 11028,18083 11025,18109 11834,18109 11834,18051 11802,18003 11753,17961 11696,17929 11634,17902 11580,17883 11541,17873 11525,17870 11738,17873 11745,17823 11767,17683 11796,17480 11831,17233 11866,16963 11896,16695 11918,16447 11928,16245 11918,16129 11889,15999 11851,15865 11806,15736 11760,15616 11718,15524 11689,15458 11679,15436 11679,15001 11692,14998 11731,14991 11782,14976 11847,14950 11911,14914 11976,14870 12028,14808 12063,14731 12092,14612 12095,14509 12083,14421 12047,14348 11999,14290 11940,14235 11870,14190 11796,14151 Z"/>
        <path fill="rgb(245,197,146)" stroke="none" d="M 11419,14216 L 11419,13830 10725,13830 10725,14216 11419,14216 Z"/>
        <path fill="rgb(38,46,52)" stroke="none" d="M 11664,12847 L 11657,12841 11644,12825 11622,12796 11590,12761 11553,12719 11509,12670 11457,12622 11402,12567 11344,12516 11280,12467 11215,12420 11148,12378 11080,12342 11009,12312 10941,12297 10873,12290 10784,12294 10700,12307 10616,12329 10535,12358 10458,12396 10387,12439 10320,12490 10258,12544 10204,12606 10152,12674 10110,12744 10071,12821 10042,12902 10020,12986 10007,13070 10003,13159 10007,13250 10020,13337 10042,13420 10071,13501 10110,13575 10152,13650 10204,13717 10258,13778 10320,13833 10387,13884 10458,13926 10535,13964 10616,13994 10700,14016 10784,14030 10873,14033 10939,14030 11000,14023 11060,14013 11119,13996 11177,13978 11235,13956 11286,13929 11338,13897 11390,13865 11435,13830 11479,13788 11521,13746 11557,13700 11592,13652 11625,13601 11654,13549 11660,13549 11667,13549 11673,13553 11679,13553 11721,13546 11767,13534 11815,13511 11860,13475 11901,13427 11935,13362 11957,13282 11967,13183 11960,13109 11947,13043 11921,12986 11886,12934 11844,12895 11792,12867 11731,12850 11664,12847 Z"/>
        <path fill="rgb(245,197,146)" stroke="none" d="M 11699,12970 L 11683,12970 11669,12976 11654,12983 11641,12989 11628,12999 11615,13012 11602,13021 11592,13031 11580,12966 11557,12909 11535,12847 11506,12793 11470,12741 11432,12690 11390,12645 11341,12603 11292,12564 11238,12529 11183,12500 11126,12474 11064,12455 11000,12442 10936,12432 10867,12429 10793,12432 10719,12445 10651,12461 10584,12487 10519,12519 10458,12554 10404,12596 10352,12645 10303,12696 10261,12751 10222,12811 10194,12877 10168,12944 10152,13015 10139,13089 10136,13163 10139,13237 10152,13311 10168,13382 10194,13450 10222,13514 10261,13575 10303,13630 10352,13682 10404,13729 10458,13771 10519,13807 10584,13839 10651,13865 10719,13880 10793,13894 10867,13897 10932,13894 10993,13887 11051,13875 11109,13855 11168,13836 11219,13807 11270,13778 11319,13743 11363,13704 11405,13665 11444,13620 11479,13572 11509,13521 11535,13465 11557,13411 11577,13352 11590,13366 11602,13379 11615,13388 11631,13398 11644,13405 11660,13411 11676,13415 11692,13415 11728,13411 11757,13398 11785,13379 11812,13349 11831,13321 11847,13282 11857,13244 11860,13201 11857,13156 11847,13114 11834,13075 11815,13040 11789,13012 11763,12989 11731,12976 11699,12970 Z"/>
        <path fill="rgb(38,46,52)" stroke="none" d="M 10481,12931 L 10517,12924 10545,12906 10564,12877 10571,12841 10564,12806 10545,12776 10517,12757 10481,12751 10445,12757 10416,12776 10397,12806 10390,12841 10397,12877 10416,12906 10445,12924 10481,12931 Z"/>
        <path fill="rgb(38,46,52)" stroke="none" d="M 11067,12966 L 11090,12963 11109,12957 11126,12948 11141,12934 11154,12919 11164,12902 11170,12883 11173,12860 11170,12838 11164,12818 11154,12803 11141,12786 11126,12773 11109,12764 11090,12757 11067,12754 11045,12757 11025,12764 11009,12773 10993,12786 10980,12803 10971,12818 10964,12838 10961,12860 10964,12883 10971,12902 10980,12919 10993,12934 11009,12948 11025,12957 11045,12963 11067,12966 Z"/>
        <path fill="rgb(38,46,52)" stroke="none" d="M 10574,13218 L 10749,12892 10754,12767 10465,13295 10870,13295 10870,13218 10574,13218 Z"/>
        <path fill="rgb(255,0,0)" stroke="none" d="M 11915,14374 L 11893,14348 11866,14326 11841,14302 11815,14284 11789,14264 11763,14248 11735,14232 11706,14216 11673,14203 11641,14193 11605,14184 11570,14174 11528,14167 11486,14161 11441,14157 11393,14154 10596,14154 10581,14154 10555,14157 10522,14164 10481,14167 10436,14174 10384,14181 10332,14186 10274,14190 10219,14193 10162,14196 10103,14200 10049,14200 9994,14196 9945,14190 9904,14184 9866,14171 9829,14154 9788,14135 9739,14107 9691,14068 9639,14023 9595,13968 9556,13904 9524,13830 9311,13875 9339,13961 9381,14052 9433,14142 9494,14228 9559,14312 9627,14383 9691,14448 9753,14495 9788,14519 9823,14541 9862,14564 9901,14586 9943,14608 9987,14628 10029,14650 10074,14667 10120,14685 10162,14705 10207,14722 10249,14734 10288,14751 10327,14761 10362,14773 10397,14783 10397,15411 11580,15413 11580,14899 11587,14899 11609,14899 11641,14895 11679,14892 11725,14882 11770,14870 11819,14847 11860,14821 11911,14773 11950,14719 11974,14660 11986,14599 11986,14538 11974,14480 11950,14421 11915,14374 Z"/>
        <path fill="rgb(255,255,255)" stroke="none" d="M 9410,13253 L 9408,13250 9405,13240 9394,13228 9381,13211 9366,13198 9349,13186 9330,13183 9311,13183 9292,13189 9269,13205 9250,13221 9230,13237 9211,13253 9198,13269 9188,13279 9184,13282 9279,13788 9487,13739 9507,13620 9526,13527 9539,13462 9539,13437 9530,13437 9514,13440 9498,13453 9482,13469 9465,13482 9452,13497 9443,13507 9440,13511 9410,13253 Z"/>
        <path fill="rgb(89,105,114)" stroke="none" d="M 10406,15507 L 10400,15517 10381,15549 10355,15603 10327,15675 10293,15767 10264,15877 10239,16003 10222,16144 10219,16337 10236,16579 10264,16846 10297,17117 10332,17371 10365,17578 10387,17722 10397,17774 10832,17774 10828,17687 10826,17487 10819,17265 10816,17107 10823,16946 10841,16782 10870,16625 10906,16477 10944,16351 10974,16251 10996,16186 11006,16164 11013,16186 11032,16248 11060,16337 11094,16457 11126,16596 11154,16747 11173,16902 11183,17056 11180,17213 11168,17445 11154,17658 11148,17751 11631,17751 11641,17693 11664,17539 11692,17317 11728,17053 11763,16776 11789,16512 11806,16292 11806,16141 11785,16023 11757,15907 11718,15800 11679,15704 11638,15623 11605,15562 11583,15520 11573,15507 10406,15507 Z"/>
        <path fill="rgb(38,46,52)" stroke="none" d="M 11686,13369 L 11706,13366 11725,13352 11738,13334 11741,13311 11738,13292 11725,13272 11706,13260 11686,13257 11664,13260 11644,13272 11631,13292 11628,13311 11631,13334 11644,13352 11664,13366 11686,13369 Z"/>
        <path fill="rgb(38,46,52)" stroke="none" d="M 11625,12980 L 11660,12954 11686,12912 11708,12857 11725,12793 11731,12725 11728,12655 11711,12583 11686,12519 11651,12464 11605,12420 11557,12388 11509,12364 11454,12354 11405,12351 11358,12358 11319,12374 11286,12396 11264,12432 11247,12474 11241,12525 11241,12583 11251,12642 11270,12702 11299,12767 11334,12825 11373,12877 11415,12922 11457,12954 11502,12976 11548,12989 11587,12993 11625,12980 Z"/>
        <path fill="rgb(38,46,52)" stroke="none" d="M 11479,14151 L 11479,14065 10835,14065 10873,14151 11479,14151 Z"/>
        <path fill="rgb(38,46,52)" stroke="none" d="M 10739,13707 L 10761,13704 10781,13700 10800,13690 10819,13678 10832,13665 10841,13650 10848,13633 10851,13613 10848,13594 10841,13578 10832,13562 10819,13549 10800,13539 10781,13530 10761,13527 10739,13524 10715,13527 10697,13530 10677,13539 10661,13549 10648,13562 10638,13578 10632,13594 10629,13613 10632,13633 10638,13650 10648,13665 10661,13678 10677,13690 10697,13700 10715,13704 10739,13707 Z"/>
        <path fill="rgb(38,46,52)" stroke="none" d="M 10606,13485 L 10568,13495 10513,13524 10445,13569 10371,13620 10303,13672 10246,13714 10207,13746 10190,13759 10190,13845 10367,13890 10374,13887 10390,13875 10416,13855 10445,13836 10475,13820 10500,13803 10519,13794 10532,13794 10564,13820 10596,13830 10635,13833 10671,13823 10703,13807 10732,13785 10754,13756 10771,13727 10777,13690 10781,13655 10774,13616 10761,13578 10736,13543 10703,13514 10661,13495 10606,13485 Z"/>
        <path fill="rgb(201,203,209)" stroke="none" d="M 10622,13553 L 10594,13559 10542,13581 10483,13616 10419,13658 10358,13704 10307,13739 10268,13768 10254,13778 10377,13813 10384,13810 10400,13801 10426,13785 10451,13768 10481,13753 10507,13739 10525,13733 10535,13733 10558,13756 10581,13771 10606,13775 10629,13775 10651,13768 10673,13756 10690,13736 10700,13714 10707,13688 10707,13665 10703,13640 10693,13616 10680,13598 10665,13578 10645,13562 10622,13553 Z"/>
        <path fill="rgb(38,46,52)" stroke="none" d="M 10413,13743 L 10445,13714 10352,13688 10320,13711 10413,13743 Z"/>
        <path fill="rgb(38,46,52)" stroke="none" d="M 11686,14332 L 11679,14335 11660,14341 11628,14351 11587,14361 11535,14367 11470,14371 11400,14364 11322,14351 11267,14339 11206,14319 11144,14294 11084,14262 11022,14225 10961,14181 10900,14129 10845,14068 10855,14020 10848,13971 10835,13926 10819,13887 10800,13855 10781,13833 10768,13817 10761,13810 10584,13650 10342,13833 10349,13839 10362,13852 10384,13872 10409,13897 10439,13926 10465,13956 10487,13984 10503,14006 10529,14058 10549,14116 10561,14164 10564,14184 10594,14228 10619,14274 10645,14316 10671,14358 10693,14396 10719,14435 10745,14473 10774,14509 10806,14548 10845,14583 10883,14622 10932,14663 10983,14702 11045,14747 11109,14789 11187,14838 11292,14895 11390,14937 11474,14962 11548,14979 11605,14989 11651,14989 11676,14989 11686,14989 11686,14332 Z"/>
        <path fill="rgb(38,46,52)" stroke="none" d="M 10900,15369 L 11028,15272 10990,14119 10823,14119 10784,15262 10900,15369 Z"/>
        <path fill="rgb(38,46,52)" stroke="none" d="M 11528,12474 L 11745,12294 11502,11936 10613,11704 10175,12001 10081,12235 10197,12361 10190,12477 11528,12474 Z"/>
        <path fill="rgb(38,46,52)" stroke="none" d="M 10687,12696 L 10764,12696 10841,12693 10919,12690 10990,12684 11057,12677 11122,12670 11183,12660 11241,12652 11289,12642 11338,12632 11377,12622 11409,12610 11438,12596 11457,12586 11470,12574 11474,12561 11470,12547 11460,12535 11441,12522 11419,12509 11387,12497 11351,12484 11309,12470 11264,12458 11209,12448 11154,12435 11094,12429 11028,12420 10958,12413 10887,12406 10809,12403 10732,12403 10651,12403 10574,12406 10493,12413 10416,12420 10342,12429 10271,12435 10200,12448 10139,12458 10078,12470 10026,12484 9978,12497 9939,12509 9906,12522 9881,12535 9868,12547 9862,12561 9866,12574 9881,12586 9901,12596 9930,12610 9968,12622 10010,12632 10059,12642 10117,12652 10175,12660 10239,12670 10307,12677 10377,12684 10451,12690 10529,12693 10606,12696 10687,12696 Z"/>
        <path fill="rgb(89,105,114)" stroke="none" d="M 10622,11798 L 10268,12048 10187,12229 10290,12326 10293,12326 10310,12329 10332,12332 10367,12336 10413,12339 10471,12342 10542,12349 10629,12354 10693,12358 10761,12361 10832,12361 10902,12361 10977,12358 11051,12358 11122,12354 11190,12351 11254,12349 11312,12342 11367,12339 11412,12336 11451,12332 11479,12332 11496,12329 11502,12329 11599,12252 11435,12016 10622,11798 Z"/>
        <path fill="rgb(38,46,52)" stroke="none" d="M 10790,12210 L 10816,12158 10816,12123 10800,12094 10774,12068 10764,12042 10781,12016 10803,11998 10816,11991 10632,11865 10481,11981 10487,11991 10500,12013 10507,12042 10490,12068 10454,12114 10451,12156 10468,12197 10490,12223 10519,12238 10558,12248 10600,12255 10648,12255 10693,12252 10736,12242 10771,12226 10790,12210 Z"/>
        <path fill="rgb(38,46,52)" stroke="none" d="M 10838,12300 L 10838,12235 10442,12235 10442,12300 10838,12300 Z"/>
        <path fill="rgb(235,223,169)" stroke="none" d="M 10745,12175 L 10764,12136 10758,12111 10739,12094 10715,12075 10715,12042 10722,12020 10732,12006 10736,12001 10635,11927 10535,12001 10542,12006 10552,12026 10558,12048 10549,12072 10522,12100 10513,12133 10519,12158 10535,12178 10555,12191 10584,12200 10613,12207 10645,12207 10677,12203 10707,12197 10729,12188 10745,12175 Z"/>
        <path fill="rgb(38,46,52)" stroke="none" d="M 11000,14625 L 10990,14612 10977,14603 10958,14599 10941,14603 10897,14622 10848,14638 10796,14650 10749,14657 10700,14657 10651,14647 10609,14628 10571,14599 10532,14541 10510,14477 10500,14416 10503,14348 10517,14284 10529,14216 10549,14151 10564,14087 10568,14062 10571,14033 10568,14003 10568,13978 10564,13961 10555,13949 10542,13939 10525,13936 10507,13939 10493,13949 10483,13961 10481,13978 10481,14003 10483,14033 10481,14062 10478,14087 10458,14154 10439,14225 10426,14297 10419,14371 10422,14438 10436,14509 10458,14573 10497,14635 10545,14680 10600,14712 10658,14731 10722,14734 10787,14731 10855,14722 10916,14705 10977,14683 10990,14673 11000,14657 11003,14641 11000,14625 Z"/>
        <path fill="rgb(38,46,52)" stroke="none" d="M 11669,14000 L 11602,14013 11535,14033 11474,14062 11412,14094 11355,14132 11299,14174 11245,14220 11196,14270 11180,14280 11158,14297 11134,14316 11129,14335 11134,14351 11144,14361 11161,14371 11177,14371 11196,14367 11212,14364 11228,14354 11245,14341 11289,14297 11341,14255 11390,14213 11444,14177 11499,14145 11553,14119 11615,14100 11679,14087 11696,14080 11708,14071 11718,14055 11718,14039 11711,14023 11703,14010 11686,14000 11669,14000 Z"/>
        <path fill="rgb(255,255,255)" stroke="none" d="M 10761,14077 L 10768,14065 10774,14026 10771,13974 10749,13914 10725,13884 10700,13852 10673,13823 10648,13798 10622,13771 10603,13756 10590,13743 10587,13739 10445,13833 10448,13836 10461,13848 10481,13865 10503,13884 10525,13907 10549,13932 10568,13958 10581,13981 10600,14035 10619,14087 10632,14126 10635,14142 10761,14077 Z"/>
        <path fill="rgb(255,0,0)" stroke="none" d="M 10677,14213 L 10700,14252 10725,14290 10751,14329 10781,14367 10809,14406 10841,14441 10873,14477 10906,14512 10941,14544 10977,14576 11016,14608 11055,14638 11094,14667 11132,14692 11170,14719 11212,14741 11284,14779 11341,14811 11390,14838 11438,14857 11483,14873 11531,14882 11587,14889 11651,14892 11679,14889 11706,14885 11731,14879 11757,14873 11782,14867 11806,14857 11828,14844 11847,14828 11731,14431 11699,14435 11669,14441 11641,14445 11609,14451 11580,14455 11551,14457 11518,14457 11486,14460 11454,14457 11419,14455 11380,14451 11341,14445 11299,14431 11254,14418 11206,14403 11154,14383 11112,14364 11070,14341 11025,14316 10980,14287 10939,14255 10893,14223 10851,14184 10813,14142 10677,14213 Z"/>
       </g>
      </g>
     </g>
    </g>
   </g>
  </g>
 </g>
</svg>