<?xml version="1.0" encoding="UTF-8"?>
<!DOCTYPE svg PUBLIC "-//W3C//DTD SVG 1.1//EN" "http://www.w3.org/Graphics/SVG/1.1/DTD/svg11.dtd">
<svg version="1.2" width="42.44mm" height="37.24mm" viewBox="8378 12988 4244 3724" preserveAspectRatio="xMidYMid" fill-rule="evenodd" stroke-width="28.222" stroke-linejoin="round" xmlns="http://www.w3.org/2000/svg" xmlns:ooo="http://xml.openoffice.org/svg/export" xmlns:xlink="http://www.w3.org/1999/xlink" xmlns:presentation="http://sun.com/xmlns/staroffice/presentation" xmlns:smil="http://www.w3.org/2001/SMIL20/" xmlns:anim="urn:oasis:names:tc:opendocument:xmlns:animation:1.0" xml:space="preserve">
 <defs class="EmbeddedBulletChars">
  <g id="bullet-char-template-57356" transform="scale(0.00048828125,-0.00048828125)">
   <path d="M 580,1141 L 1163,571 580,0 -4,571 580,1141 Z"/>
  </g>
  <g id="bullet-char-template-57354" transform="scale(0.00048828125,-0.00048828125)">
   <path d="M 8,1128 L 1137,1128 1137,0 8,0 8,1128 Z"/>
  </g>
  <g id="bullet-char-template-10146" transform="scale(0.00048828125,-0.00048828125)">
   <path d="M 174,0 L 602,739 174,1481 1456,739 174,0 Z M 1358,739 L 309,1346 659,739 1358,739 Z"/>
  </g>
  <g id="bullet-char-template-10132" transform="scale(0.00048828125,-0.00048828125)">
   <path d="M 2015,739 L 1276,0 717,0 1260,543 174,543 174,936 1260,936 717,1481 1274,1481 2015,739 Z"/>
  </g>
  <g id="bullet-char-template-10007" transform="scale(0.00048828125,-0.00048828125)">
   <path d="M 0,-2 C -7,14 -16,27 -25,37 L 356,567 C 262,823 215,952 215,954 215,979 228,992 255,992 264,992 276,990 289,987 310,991 331,999 354,1012 L 381,999 492,748 772,1049 836,1024 860,1049 C 881,1039 901,1025 922,1006 886,937 835,863 770,784 769,783 710,716 594,584 L 774,223 C 774,196 753,168 711,139 L 727,119 C 717,90 699,76 672,76 641,76 570,178 457,381 L 164,-76 C 142,-110 111,-127 72,-127 30,-127 9,-110 8,-76 1,-67 -2,-52 -2,-32 -2,-23 -1,-13 0,-2 Z"/>
  </g>
  <g id="bullet-char-template-10004" transform="scale(0.00048828125,-0.00048828125)">
   <path d="M 285,-33 C 182,-33 111,30 74,156 52,228 41,333 41,471 41,549 55,616 82,672 116,743 169,778 240,778 293,778 328,747 346,684 L 369,508 C 377,444 397,411 428,410 L 1163,1116 C 1174,1127 1196,1133 1229,1133 1271,1133 1292,1118 1292,1087 L 1292,965 C 1292,929 1282,901 1262,881 L 442,47 C 390,-6 338,-33 285,-33 Z"/>
  </g>
  <g id="bullet-char-template-9679" transform="scale(0.00048828125,-0.00048828125)">
   <path d="M 813,0 C 632,0 489,54 383,161 276,268 223,411 223,592 223,773 276,916 383,1023 489,1130 632,1184 813,1184 992,1184 1136,1130 1245,1023 1353,916 1407,772 1407,592 1407,412 1353,268 1245,161 1136,54 992,0 813,0 Z"/>
  </g>
  <g id="bullet-char-template-8226" transform="scale(0.00048828125,-0.00048828125)">
   <path d="M 346,457 C 273,457 209,483 155,535 101,586 74,649 74,723 74,796 101,859 155,911 209,963 273,989 346,989 419,989 480,963 531,910 582,859 608,796 608,723 608,648 583,586 532,535 482,483 420,457 346,457 Z"/>
  </g>
  <g id="bullet-char-template-8211" transform="scale(0.00048828125,-0.00048828125)">
   <path d="M -4,459 L 1135,459 1135,606 -4,606 -4,459 Z"/>
  </g>
  <g id="bullet-char-template-61548" transform="scale(0.00048828125,-0.00048828125)">
   <path d="M 173,740 C 173,903 231,1043 346,1159 462,1274 601,1332 765,1332 928,1332 1067,1274 1183,1159 1299,1043 1357,903 1357,740 1357,577 1299,437 1183,322 1067,206 928,148 765,148 601,148 462,206 346,322 231,437 173,577 173,740 Z"/>
  </g>
 </defs>
 <g class="Page">
  <g class="Graphic">
   <g id="id3">
    <rect class="BoundingBox" stroke="none" fill="none" x="8378" y="12988" width="4244" height="3724"/>
    <defs>
     <clipPath id="clip_path_1" clipPathUnits="userSpaceOnUse">
      <path d="M 8378,12988 L 12621,12988 12621,16711 8378,16711 8378,12988 Z"/>
     </clipPath>
    </defs>
    <g clip-path="url(#clip_path_1)">
     <path fill="rgb(218,68,53)" stroke="none" d="M 8553,16712 L 12447,16712 12459,16711 12471,16710 12483,16708 12495,16706 12506,16702 12516,16698 12527,16693 12537,16687 12546,16681 12555,16675 12564,16667 12572,16660 12579,16651 12586,16643 12593,16634 12598,16624 12603,16615 12608,16605 12612,16594 12615,16584 12618,16573 12620,16562 12621,16551 12622,16540 12622,16528 12621,16517 12619,16506 12617,16494 12613,16483 12609,16472 12604,16460 12598,16449 10651,13076 10645,13065 10638,13055 10630,13046 10622,13037 10613,13029 10604,13022 10595,13016 10585,13010 10575,13005 10565,13000 10554,12996 10544,12994 10533,12991 10522,12989 10511,12988 10500,12988 10489,12988 10478,12989 10467,12991 10456,12994 10446,12996 10435,13000 10425,13005 10415,13010 10405,13016 10396,13022 10387,13029 10378,13037 10370,13046 10362,13055 10355,13065 10349,13076 8402,16449 8396,16460 8391,16472 8386,16483 8383,16494 8381,16506 8379,16517 8378,16528 8378,16540 8379,16551 8380,16562 8382,16573 8385,16584 8388,16594 8392,16605 8397,16615 8402,16624 8407,16634 8414,16643 8421,16651 8428,16660 8436,16667 8445,16675 8454,16681 8463,16687 8473,16693 8484,16698 8494,16702 8505,16706 8517,16708 8529,16710 8541,16711 8553,16712 Z"/>
     <path fill="rgb(255,255,255)" stroke="none" d="M 8856,16362 L 12144,16362 10500,13513 8856,16362 Z"/>
     <path fill="rgb(26,28,26)" stroke="none" d="M 9248,15847 L 9257,15861 9479,15861 9470,15847 9248,15847 Z"/>
     <path fill="rgb(26,28,26)" stroke="none" d="M 11294,15998 L 11299,15997 11305,15996 11310,15994 11315,15992 11320,15990 11325,15988 11329,15985 11333,15981 11337,15978 11341,15974 11342,15971 11343,15969 11345,15967 11346,15965 11347,15962 11348,15960 11349,15957 11349,15954 11350,15951 11350,15948 11351,15945 11351,15942 11351,15940 11351,15938 11351,15936 11351,15934 11430,15934 11433,15934 11435,15933 11437,15933 11439,15932 11442,15930 11444,15928 11445,15927 11446,15924 11447,15922 11447,15919 11447,15914 11447,15911 11600,15911 11614,15923 11616,15923 11620,15923 11620,15892 11614,15892 11600,15900 11550,15900 11532,15892 11447,15892 11447,15878 11515,15869 11515,15847 11532,15842 11532,15802 11512,15797 11491,15428 9546,15428 9534,15478 9567,15478 9523,15635 9522,15639 9521,15644 9520,15649 9520,15651 9514,15797 9490,15802 9490,15842 9511,15847 9511,15864 9563,15875 9566,15876 9569,15877 9570,15878 9571,15879 9572,15880 9572,15881 9572,15884 9572,15886 9572,15889 9572,15891 9572,15892 9571,15892 9570,15892 9570,15892 9511,15892 9490,15903 9437,15903 9426,15892 9420,15892 9420,15923 9426,15923 9437,15911 9607,15911 9608,15913 9608,15918 9609,15920 9610,15923 9611,15925 9611,15926 9612,15927 9613,15928 9616,15930 9618,15931 9620,15932 9622,15933 9625,15934 9628,15934 9669,15934 9669,15939 9670,15947 9670,15952 9671,15958 9672,15960 9673,15963 9674,15965 9675,15967 9676,15970 9678,15973 9680,15975 9683,15978 9685,15981 9688,15983 9691,15985 9694,15987 9697,15989 9701,15991 9704,15993 9707,15994 9711,15995 9714,15996 9718,15997 9721,15998 9335,15998 9344,16012 11872,16012 11863,15998 11294,15998 Z"/>
     <path fill="rgb(26,28,26)" stroke="none" d="M 10302,15302 L 11298,15302 11298,15300 11298,15298 11298,15296 11298,15294 11298,15289 11298,15284 11297,15279 11296,15274 11295,15269 11293,15265 11292,15261 11289,15258 11288,15256 11286,15254 11284,15252 11281,15250 11279,15248 11276,15247 11274,15245 11271,15244 11267,15243 11264,15241 11260,15241 11256,15240 11252,15239 11247,15239 11242,15238 11237,15238 10360,15238 10357,15238 10353,15239 10350,15239 10346,15240 10343,15240 10340,15241 10337,15242 10334,15243 10329,15246 10324,15249 10320,15252 10317,15255 10315,15257 10314,15259 10312,15260 10311,15263 10308,15267 10306,15272 10304,15278 10303,15283 10302,15289 10302,15294 10302,15296 10302,15298 10302,15300 10302,15302 Z"/>
     <path fill="rgb(26,28,26)" stroke="none" d="M 11773,15847 L 11559,15847 11550,15861 11781,15861 11773,15847 Z"/>
     <path fill="rgb(26,28,26)" stroke="none" d="M 11363,15314 L 11348,15314 10211,15314 10211,15283 10460,15124 10106,14975 10106,14925 10135,14925 10136,14925 10136,14926 10136,14926 10137,14926 10137,14928 10137,14929 10138,14932 10138,14933 10138,14936 10147,14936 10147,14925 10147,14922 10146,14920 10146,14919 10146,14917 10145,14916 10144,14914 10144,14914 10142,14913 10141,14912 10140,14912 10138,14911 10136,14911 10135,14911 10129,14911 10073,14911 10072,14911 10069,14911 10067,14912 10065,14912 10063,14913 10062,14914 10061,14915 10060,14916 10059,14917 10059,14918 10059,14920 10059,14922 10059,14925 10059,14925 10059,14936 10067,14936 10067,14931 10067,14929 10067,14929 10067,14928 10068,14928 10070,14925 10073,14925 10094,14925 10094,14975 9728,15129 9974,15283 9974,15314 9713,15314 9698,15314 9694,15314 9690,15314 9686,15314 9682,15315 9675,15317 9666,15319 9637,15327 9634,15314 9587,15314 9586,15314 9584,15314 9582,15314 9581,15315 9579,15315 9578,15316 9577,15317 9576,15319 9576,15320 9576,15322 9575,15324 9575,15325 9575,15375 9564,15386 9561,15389 9558,15392 9558,15394 9558,15396 9558,15398 9558,15400 11486,15400 11483,15396 11478,15385 11474,15379 11469,15371 11467,15368 11464,15364 11460,15360 11457,15356 11453,15352 11449,15348 11445,15344 11441,15340 11436,15336 11431,15333 11425,15330 11420,15327 11414,15324 11407,15321 11401,15319 11394,15317 11386,15315 11379,15314 11371,15314 11363,15314 Z"/>
     <path fill="rgb(255,255,255)" stroke="none" d="M 11377,15652 L 11471,15652 11474,15652 11477,15652 11479,15652 11481,15651 11482,15651 11483,15651 11484,15650 11485,15649 11486,15648 11487,15647 11488,15646 11488,15645 11488,15643 11488,15641 11488,15638 11488,15636 11488,15634 11488,15632 11474,15459 11474,15456 11474,15454 11473,15450 11473,15449 11472,15448 11472,15446 11471,15445 11470,15444 11469,15444 11468,15443 11467,15443 11466,15442 11465,15442 11462,15442 11459,15442 11380,15442 11374,15442 11372,15442 11370,15443 11369,15443 11367,15444 11366,15444 11365,15445 11364,15446 11364,15447 11363,15448 11363,15449 11362,15451 11362,15453 11362,15456 11362,15459 11362,15638 11362,15640 11363,15643 11363,15645 11364,15646 11364,15648 11365,15649 11367,15650 11368,15651 11370,15651 11372,15651 11376,15652 11377,15652 Z"/>
     <path fill="rgb(255,255,255)" stroke="none" d="M 11184,15861 L 11327,15861 11327,15442 11184,15442 11184,15861 Z"/>
     <path fill="rgb(255,255,255)" stroke="none" d="M 11011,15861 L 11155,15861 11155,15442 11011,15442 11011,15861 Z"/>
     <path fill="rgb(255,255,255)" stroke="none" d="M 10064,15652 L 10316,15652 10318,15652 10321,15651 10324,15650 10326,15649 10329,15648 10331,15646 10332,15645 10333,15643 10333,15641 10334,15639 10334,15635 10334,15632 10334,15462 10334,15459 10334,15455 10333,15453 10333,15451 10332,15449 10331,15448 10330,15446 10329,15445 10327,15444 10325,15443 10322,15442 10319,15442 10313,15442 10311,15442 10059,15442 10058,15442 10055,15443 10054,15443 10053,15443 10051,15444 10050,15445 10049,15445 10048,15446 10047,15447 10047,15448 10046,15451 10046,15453 10046,15458 10047,15462 10047,15629 10047,15632 10047,15637 10048,15639 10048,15642 10049,15645 10050,15646 10052,15648 10054,15649 10056,15650 10058,15651 10062,15652 10064,15652 Z"/>
     <path fill="rgb(255,255,255)" stroke="none" d="M 9763,15861 L 9965,15861 9965,15442 9763,15442 9763,15861 Z"/>
     <path fill="rgb(255,255,255)" stroke="none" d="M 9567,15652 L 9716,15652 9717,15652 9720,15651 9721,15651 9723,15651 9725,15650 9728,15649 9729,15648 9730,15648 9731,15647 9731,15646 9732,15644 9733,15642 9733,15638 9734,15635 9734,15531 9733,15525 9733,15520 9732,15514 9731,15509 9730,15506 9729,15503 9728,15501 9726,15499 9725,15496 9723,15494 9721,15492 9719,15490 9717,15488 9714,15486 9711,15484 9709,15483 9706,15482 9703,15480 9700,15479 9697,15478 9690,15477 9684,15476 9678,15476 9672,15476 9611,15476 9607,15476 9603,15476 9600,15477 9598,15478 9595,15479 9593,15481 9591,15483 9589,15486 9588,15488 9586,15490 9585,15494 9584,15495 9549,15621 9548,15624 9547,15629 9546,15632 9546,15635 9547,15637 9547,15639 9548,15641 9549,15643 9549,15645 9550,15646 9551,15647 9553,15648 9556,15650 9559,15651 9562,15651 9567,15652 Z"/>
     <path fill="rgb(255,255,255)" stroke="none" d="M 10006,15316 L 10182,15316 10182,15283 10006,15283 10006,15316 Z"/>
     <path fill="rgb(255,255,255)" stroke="none" d="M 9775,15129 L 9994,15260 10199,15260 10419,15126 10100,14984 9775,15129 Z"/>
     <path fill="rgb(255,255,255)" stroke="none" d="M 9995,15998 L 9736,15998 9742,15997 9748,15996 9754,15994 9760,15992 9763,15991 9766,15989 9769,15988 9771,15986 9774,15985 9776,15983 9778,15981 9780,15978 9782,15976 9784,15974 9786,15972 9788,15969 9790,15966 9791,15964 9792,15961 9794,15958 9794,15955 9795,15952 9796,15949 9797,15946 9798,15940 9798,15934 9942,15934 9942,15938 9942,15945 9943,15950 9944,15955 9946,15960 9948,15966 9950,15969 9951,15971 9953,15974 9954,15977 9957,15979 9959,15982 9961,15984 9964,15986 9967,15988 9970,15990 9973,15992 9977,15994 9981,15995 9985,15996 9990,15997 9995,15998 Z"/>
     <path fill="rgb(255,255,255)" stroke="none" d="M 11002,15998 L 10012,15998 10018,15997 10023,15996 10028,15995 10033,15994 10037,15992 10041,15990 10044,15988 10048,15986 10051,15984 10054,15982 10056,15979 10058,15977 10060,15974 10063,15971 10064,15969 10066,15966 10068,15960 10070,15955 10071,15950 10072,15945 10073,15938 10073,15934 10120,15934 10123,15934 10128,15931 10133,15928 10135,15927 10136,15925 10137,15924 10138,15923 10139,15921 10140,15920 10141,15918 10142,15916 10143,15913 10144,15911 10897,15911 10897,15917 10897,15923 10898,15925 10899,15926 10900,15927 10901,15928 10901,15928 10902,15928 10903,15929 10903,15930 10903,15930 10904,15931 10906,15932 10908,15934 10910,15934 10913,15934 10915,15934 10917,15934 10946,15934 10946,15939 10947,15945 10948,15950 10949,15955 10951,15961 10953,15966 10955,15968 10956,15970 10958,15973 10959,15975 10961,15977 10963,15979 10965,15981 10967,15983 10969,15985 10971,15987 10974,15988 10976,15990 10979,15991 10982,15993 10985,15994 10988,15995 10992,15996 10995,15997 10999,15997 11002,15998 Z"/>
     <path fill="rgb(255,255,255)" stroke="none" d="M 11277,15998 L 11020,15998 11026,15997 11031,15996 11036,15995 11041,15993 11045,15992 11049,15990 11053,15988 11056,15985 11059,15983 11062,15981 11064,15978 11066,15975 11068,15972 11070,15969 11072,15967 11073,15964 11075,15958 11076,15953 11077,15948 11078,15943 11078,15936 11078,15934 11222,15934 11222,15936 11222,15939 11222,15945 11223,15950 11223,15955 11225,15960 11227,15965 11229,15970 11230,15972 11231,15974 11233,15976 11234,15978 11236,15980 11238,15982 11240,15984 11242,15985 11244,15987 11246,15988 11249,15990 11251,15991 11254,15992 11257,15994 11260,15995 11263,15995 11266,15996 11270,15997 11273,15997 11277,15998 Z"/>
     <path fill="rgb(255,255,255)" stroke="none" d="M 10376,15653 L 10628,15653 10630,15652 10633,15652 10636,15651 10638,15650 10641,15649 10643,15647 10644,15646 10645,15644 10645,15642 10646,15640 10646,15636 10646,15633 10646,15463 10646,15460 10646,15456 10645,15454 10645,15452 10644,15450 10643,15449 10642,15447 10640,15446 10639,15445 10637,15444 10634,15443 10631,15443 10625,15443 10623,15443 10371,15443 10369,15443 10367,15444 10366,15444 10364,15444 10363,15445 10362,15446 10361,15447 10360,15447 10359,15448 10359,15449 10358,15452 10358,15454 10358,15459 10359,15463 10359,15630 10359,15633 10359,15638 10359,15641 10360,15643 10361,15646 10362,15647 10364,15649 10366,15650 10368,15651 10370,15652 10374,15652 10376,15653 Z"/>
     <path fill="rgb(255,255,255)" stroke="none" d="M 10687,15652 L 10939,15652 10941,15652 10944,15651 10947,15651 10949,15650 10951,15648 10954,15646 10955,15645 10955,15643 10956,15641 10956,15639 10957,15635 10957,15632 10957,15462 10957,15459 10956,15455 10956,15453 10955,15451 10955,15449 10954,15448 10953,15447 10951,15445 10950,15444 10948,15444 10945,15443 10941,15442 10936,15442 10933,15442 10681,15442 10680,15443 10678,15443 10677,15443 10675,15444 10674,15444 10673,15445 10672,15446 10671,15447 10670,15448 10670,15449 10669,15451 10669,15454 10669,15458 10670,15462 10670,15630 10670,15632 10670,15637 10670,15640 10671,15643 10671,15644 10672,15645 10672,15646 10673,15646 10675,15648 10677,15650 10679,15651 10681,15651 10684,15652 10687,15652 Z"/>
    </g>
   </g>
  </g>
 </g>
</svg>