<?xml version="1.0" encoding="UTF-8"?>
<!DOCTYPE svg PUBLIC "-//W3C//DTD SVG 1.1//EN" "http://www.w3.org/Graphics/SVG/1.1/DTD/svg11.dtd">
<svg version="1.2" width="42.41mm" height="37.2mm" viewBox="8474 13048 4241 3720" preserveAspectRatio="xMidYMid" fill-rule="evenodd" stroke-width="28.222" stroke-linejoin="round" xmlns="http://www.w3.org/2000/svg" xmlns:ooo="http://xml.openoffice.org/svg/export" xmlns:xlink="http://www.w3.org/1999/xlink" xmlns:presentation="http://sun.com/xmlns/staroffice/presentation" xmlns:smil="http://www.w3.org/2001/SMIL20/" xmlns:anim="urn:oasis:names:tc:opendocument:xmlns:animation:1.0" xml:space="preserve">
 <defs class="ClipPathGroup">
  <clipPath id="presentation_clip_path" clipPathUnits="userSpaceOnUse">
   <rect x="8474" y="13048" width="4241" height="3720"/>
  </clipPath>
  <clipPath id="presentation_clip_path_shrink" clipPathUnits="userSpaceOnUse">
   <rect x="8478" y="13051" width="4233" height="3713"/>
  </clipPath>
 </defs>
 <defs class="TextShapeIndex">
  <g ooo:slide="id1" ooo:id-list="id3"/>
 </defs>
 <defs class="EmbeddedBulletChars">
  <g id="bullet-char-template-57356" transform="scale(0.00048828125,-0.00048828125)">
   <path d="M 580,1141 L 1163,571 580,0 -4,571 580,1141 Z"/>
  </g>
  <g id="bullet-char-template-57354" transform="scale(0.00048828125,-0.00048828125)">
   <path d="M 8,1128 L 1137,1128 1137,0 8,0 8,1128 Z"/>
  </g>
  <g id="bullet-char-template-10146" transform="scale(0.00048828125,-0.00048828125)">
   <path d="M 174,0 L 602,739 174,1481 1456,739 174,0 Z M 1358,739 L 309,1346 659,739 1358,739 Z"/>
  </g>
  <g id="bullet-char-template-10132" transform="scale(0.00048828125,-0.00048828125)">
   <path d="M 2015,739 L 1276,0 717,0 1260,543 174,543 174,936 1260,936 717,1481 1274,1481 2015,739 Z"/>
  </g>
  <g id="bullet-char-template-10007" transform="scale(0.00048828125,-0.00048828125)">
   <path d="M 0,-2 C -7,14 -16,27 -25,37 L 356,567 C 262,823 215,952 215,954 215,979 228,992 255,992 264,992 276,990 289,987 310,991 331,999 354,1012 L 381,999 492,748 772,1049 836,1024 860,1049 C 881,1039 901,1025 922,1006 886,937 835,863 770,784 769,783 710,716 594,584 L 774,223 C 774,196 753,168 711,139 L 727,119 C 717,90 699,76 672,76 641,76 570,178 457,381 L 164,-76 C 142,-110 111,-127 72,-127 30,-127 9,-110 8,-76 1,-67 -2,-52 -2,-32 -2,-23 -1,-13 0,-2 Z"/>
  </g>
  <g id="bullet-char-template-10004" transform="scale(0.00048828125,-0.00048828125)">
   <path d="M 285,-33 C 182,-33 111,30 74,156 52,228 41,333 41,471 41,549 55,616 82,672 116,743 169,778 240,778 293,778 328,747 346,684 L 369,508 C 377,444 397,411 428,410 L 1163,1116 C 1174,1127 1196,1133 1229,1133 1271,1133 1292,1118 1292,1087 L 1292,965 C 1292,929 1282,901 1262,881 L 442,47 C 390,-6 338,-33 285,-33 Z"/>
  </g>
  <g id="bullet-char-template-9679" transform="scale(0.00048828125,-0.00048828125)">
   <path d="M 813,0 C 632,0 489,54 383,161 276,268 223,411 223,592 223,773 276,916 383,1023 489,1130 632,1184 813,1184 992,1184 1136,1130 1245,1023 1353,916 1407,772 1407,592 1407,412 1353,268 1245,161 1136,54 992,0 813,0 Z"/>
  </g>
  <g id="bullet-char-template-8226" transform="scale(0.00048828125,-0.00048828125)">
   <path d="M 346,457 C 273,457 209,483 155,535 101,586 74,649 74,723 74,796 101,859 155,911 209,963 273,989 346,989 419,989 480,963 531,910 582,859 608,796 608,723 608,648 583,586 532,535 482,483 420,457 346,457 Z"/>
  </g>
  <g id="bullet-char-template-8211" transform="scale(0.00048828125,-0.00048828125)">
   <path d="M -4,459 L 1135,459 1135,606 -4,606 -4,459 Z"/>
  </g>
  <g id="bullet-char-template-61548" transform="scale(0.00048828125,-0.00048828125)">
   <path d="M 173,740 C 173,903 231,1043 346,1159 462,1274 601,1332 765,1332 928,1332 1067,1274 1183,1159 1299,1043 1357,903 1357,740 1357,577 1299,437 1183,322 1067,206 928,148 765,148 601,148 462,206 346,322 231,437 173,577 173,740 Z"/>
  </g>
 </defs>
 <defs class="TextEmbeddedBitmaps"/>
 <g class="SlideGroup">
  <g>
   <g id="container-id1">
    <g id="id1" class="Slide" clip-path="url(#presentation_clip_path)">
     <g class="Page">
      <g class="Graphic">
       <g id="id3">
        <rect class="BoundingBox" stroke="none" fill="none" x="8474" y="13048" width="4242" height="3721"/>
        <path fill="rgb(218,68,53)" stroke="none" d="M 8649,16769 L 12541,16769 12553,16768 12565,16767 12577,16765 12589,16763 12600,16759 12610,16755 12621,16750 12631,16744 12640,16738 12649,16732 12658,16724 12666,16717 12673,16709 12680,16700 12687,16691 12692,16681 12697,16672 12702,16662 12706,16652 12709,16641 12712,16630 12714,16619 12715,16608 12716,16597 12716,16585 12715,16574 12713,16563 12711,16551 12707,16540 12703,16529 12698,16518 12692,16506 10746,13136 10740,13125 10733,13115 10725,13106 10717,13097 10708,13089 10699,13082 10690,13076 10680,13070 10670,13065 10660,13060 10649,13056 10639,13054 10628,13051 10617,13049 10606,13048 10595,13048 10584,13048 10573,13049 10562,13051 10551,13054 10541,13056 10530,13060 10520,13065 10510,13070 10500,13076 10491,13082 10482,13089 10473,13097 10465,13106 10457,13115 10450,13125 10444,13136 8498,16506 8492,16518 8487,16529 8482,16540 8479,16551 8477,16563 8475,16574 8474,16585 8474,16597 8475,16608 8476,16619 8478,16630 8481,16641 8484,16652 8488,16662 8493,16672 8498,16681 8503,16691 8510,16700 8517,16709 8524,16717 8532,16724 8541,16732 8550,16738 8559,16744 8569,16750 8580,16755 8590,16759 8601,16763 8613,16765 8625,16767 8637,16768 8649,16769 Z"/>
        <path fill="rgb(255,255,255)" stroke="none" d="M 8952,16419 L 12238,16419 10595,13573 8952,16419 Z"/>
        <path fill="rgb(26,28,26)" stroke="none" d="M 10115,14745 L 10328,14748 10330,15730 10491,15691 10493,15691 10495,15691 10496,15691 10498,15691 10502,15691 10505,15693 10508,15694 10511,15696 10513,15697 10514,15699 10515,15700 10516,15702 10517,15703 10518,15705 10519,15706 10519,15708 10520,15712 10520,15715 10520,15719 10519,15722 10519,15724 10518,15725 10517,15727 10516,15729 10243,16133 10241,16135 10238,16138 10236,16140 10233,16141 10230,16143 10227,16143 10224,16144 10220,16144 10217,16144 10214,16143 10211,16142 10209,16141 10206,16139 10204,16137 10202,16135 10200,16133 9928,15730 9927,15728 9926,15727 9925,15725 9924,15723 9924,15720 9923,15716 9923,15713 9924,15709 9925,15706 9927,15702 9928,15701 9929,15699 9931,15697 9932,15696 9934,15695 9935,15694 9937,15693 9939,15692 9941,15691 9943,15691 9945,15690 9947,15690 9949,15690 9951,15690 9953,15690 9955,15691 10114,15730 10115,14745 Z M 10858,16094 L 10859,15110 10699,15149 10698,15149 10695,15149 10693,15150 10692,15150 10689,15149 10688,15149 10686,15149 10684,15148 10682,15147 10680,15146 10679,15145 10677,15144 10675,15143 10674,15141 10673,15140 10672,15139 10670,15137 10669,15135 10668,15133 10668,15131 10667,15129 10667,15127 10667,15125 10667,15123 10667,15121 10667,15119 10667,15117 10668,15115 10668,15113 10669,15112 10670,15110 10671,15108 10945,14706 10947,14704 10949,14702 10951,14699 10954,14698 10957,14696 10960,14695 10963,14695 10966,14695 10969,14695 10972,14695 10975,14696 10978,14698 10981,14699 10984,14701 10986,14704 10988,14706 11263,15109 11264,15111 11264,15112 11265,15114 11266,15116 11266,15118 11267,15120 11267,15122 11267,15124 11267,15126 11267,15128 11266,15130 11266,15132 11265,15134 11264,15135 11263,15137 11262,15139 11261,15140 11260,15142 11258,15143 11257,15145 11255,15146 11253,15147 11252,15148 11250,15148 11248,15149 11246,15149 11244,15150 11242,15150 11240,15150 11238,15150 11236,15150 11234,15149 11074,15110 11070,16094 10858,16094 Z"/>
       </g>
      </g>
     </g>
    </g>
   </g>
  </g>
 </g>
</svg>