<?xml version="1.0" encoding="UTF-8"?>
<!DOCTYPE svg PUBLIC "-//W3C//DTD SVG 1.1//EN" "http://www.w3.org/Graphics/SVG/1.1/DTD/svg11.dtd">
<svg version="1.2" width="42.41mm" height="37.2mm" viewBox="8474 13048 4241 3720" preserveAspectRatio="xMidYMid" fill-rule="evenodd" stroke-width="28.222" stroke-linejoin="round" xmlns="http://www.w3.org/2000/svg" xmlns:ooo="http://xml.openoffice.org/svg/export" xmlns:xlink="http://www.w3.org/1999/xlink" xmlns:presentation="http://sun.com/xmlns/staroffice/presentation" xmlns:smil="http://www.w3.org/2001/SMIL20/" xmlns:anim="urn:oasis:names:tc:opendocument:xmlns:animation:1.0" xml:space="preserve">
 <defs class="ClipPathGroup">
  <clipPath id="presentation_clip_path" clipPathUnits="userSpaceOnUse">
   <rect x="8474" y="13048" width="4241" height="3720"/>
  </clipPath>
  <clipPath id="presentation_clip_path_shrink" clipPathUnits="userSpaceOnUse">
   <rect x="8478" y="13051" width="4233" height="3713"/>
  </clipPath>
 </defs>
 <defs class="TextShapeIndex">
  <g ooo:slide="id1" ooo:id-list="id3"/>
 </defs>
 <defs class="EmbeddedBulletChars">
  <g id="bullet-char-template-57356" transform="scale(0.00048828125,-0.00048828125)">
   <path d="M 580,1141 L 1163,571 580,0 -4,571 580,1141 Z"/>
  </g>
  <g id="bullet-char-template-57354" transform="scale(0.00048828125,-0.00048828125)">
   <path d="M 8,1128 L 1137,1128 1137,0 8,0 8,1128 Z"/>
  </g>
  <g id="bullet-char-template-10146" transform="scale(0.00048828125,-0.00048828125)">
   <path d="M 174,0 L 602,739 174,1481 1456,739 174,0 Z M 1358,739 L 309,1346 659,739 1358,739 Z"/>
  </g>
  <g id="bullet-char-template-10132" transform="scale(0.00048828125,-0.00048828125)">
   <path d="M 2015,739 L 1276,0 717,0 1260,543 174,543 174,936 1260,936 717,1481 1274,1481 2015,739 Z"/>
  </g>
  <g id="bullet-char-template-10007" transform="scale(0.00048828125,-0.00048828125)">
   <path d="M 0,-2 C -7,14 -16,27 -25,37 L 356,567 C 262,823 215,952 215,954 215,979 228,992 255,992 264,992 276,990 289,987 310,991 331,999 354,1012 L 381,999 492,748 772,1049 836,1024 860,1049 C 881,1039 901,1025 922,1006 886,937 835,863 770,784 769,783 710,716 594,584 L 774,223 C 774,196 753,168 711,139 L 727,119 C 717,90 699,76 672,76 641,76 570,178 457,381 L 164,-76 C 142,-110 111,-127 72,-127 30,-127 9,-110 8,-76 1,-67 -2,-52 -2,-32 -2,-23 -1,-13 0,-2 Z"/>
  </g>
  <g id="bullet-char-template-10004" transform="scale(0.00048828125,-0.00048828125)">
   <path d="M 285,-33 C 182,-33 111,30 74,156 52,228 41,333 41,471 41,549 55,616 82,672 116,743 169,778 240,778 293,778 328,747 346,684 L 369,508 C 377,444 397,411 428,410 L 1163,1116 C 1174,1127 1196,1133 1229,1133 1271,1133 1292,1118 1292,1087 L 1292,965 C 1292,929 1282,901 1262,881 L 442,47 C 390,-6 338,-33 285,-33 Z"/>
  </g>
  <g id="bullet-char-template-9679" transform="scale(0.00048828125,-0.00048828125)">
   <path d="M 813,0 C 632,0 489,54 383,161 276,268 223,411 223,592 223,773 276,916 383,1023 489,1130 632,1184 813,1184 992,1184 1136,1130 1245,1023 1353,916 1407,772 1407,592 1407,412 1353,268 1245,161 1136,54 992,0 813,0 Z"/>
  </g>
  <g id="bullet-char-template-8226" transform="scale(0.00048828125,-0.00048828125)">
   <path d="M 346,457 C 273,457 209,483 155,535 101,586 74,649 74,723 74,796 101,859 155,911 209,963 273,989 346,989 419,989 480,963 531,910 582,859 608,796 608,723 608,648 583,586 532,535 482,483 420,457 346,457 Z"/>
  </g>
  <g id="bullet-char-template-8211" transform="scale(0.00048828125,-0.00048828125)">
   <path d="M -4,459 L 1135,459 1135,606 -4,606 -4,459 Z"/>
  </g>
  <g id="bullet-char-template-61548" transform="scale(0.00048828125,-0.00048828125)">
   <path d="M 173,740 C 173,903 231,1043 346,1159 462,1274 601,1332 765,1332 928,1332 1067,1274 1183,1159 1299,1043 1357,903 1357,740 1357,577 1299,437 1183,322 1067,206 928,148 765,148 601,148 462,206 346,322 231,437 173,577 173,740 Z"/>
  </g>
 </defs>
 <defs class="TextEmbeddedBitmaps"/>
 <g class="SlideGroup">
  <g>
   <g id="container-id1">
    <g id="id1" class="Slide" clip-path="url(#presentation_clip_path)">
     <g class="Page">
      <g class="Graphic">
       <g id="id3">
        <rect class="BoundingBox" stroke="none" fill="none" x="8474" y="13048" width="4242" height="3721"/>
        <path fill="rgb(218,68,53)" stroke="none" d="M 8649,16769 L 12541,16769 12553,16768 12565,16767 12577,16765 12589,16763 12600,16759 12610,16755 12621,16750 12631,16744 12640,16738 12649,16732 12658,16724 12666,16717 12673,16709 12680,16700 12687,16691 12692,16681 12697,16672 12702,16662 12706,16652 12709,16641 12712,16630 12714,16619 12715,16608 12716,16597 12716,16585 12715,16574 12713,16563 12711,16551 12707,16540 12703,16529 12698,16518 12692,16506 10746,13136 10740,13125 10733,13115 10725,13106 10717,13097 10708,13089 10699,13082 10690,13076 10680,13070 10670,13065 10660,13060 10649,13056 10639,13054 10628,13051 10617,13049 10606,13048 10595,13048 10584,13048 10573,13049 10562,13051 10551,13054 10541,13056 10530,13060 10520,13065 10510,13070 10500,13076 10491,13082 10482,13089 10473,13097 10465,13106 10457,13115 10450,13125 10444,13136 8498,16506 8492,16518 8487,16529 8482,16540 8479,16551 8477,16563 8475,16574 8474,16585 8474,16597 8475,16608 8476,16619 8478,16630 8481,16641 8484,16652 8488,16662 8493,16672 8498,16681 8503,16691 8510,16700 8517,16709 8524,16717 8532,16724 8541,16732 8550,16738 8559,16744 8569,16750 8580,16755 8590,16759 8601,16763 8613,16765 8625,16767 8637,16768 8649,16769 Z"/>
        <path fill="rgb(255,255,255)" stroke="none" d="M 8952,16419 L 12238,16419 10595,13573 8952,16419 Z"/>
        <path fill="rgb(31,26,23)" stroke="none" d="M 10673,14232 L 10686,14236 10699,14241 10712,14246 10724,14252 10736,14259 10747,14266 10758,14274 10769,14282 10779,14291 10789,14300 10798,14309 10806,14319 10815,14330 10822,14340 10829,14351 10836,14363 10842,14374 10847,14386 10852,14398 10857,14411 10860,14423 10864,14436 10866,14449 10868,14462 10869,14476 10870,14489 10870,14503 10869,14516 10868,14530 10865,14543 10863,14557 10859,14571 10855,14585 10849,14600 10843,14613 10836,14627 10829,14640 10821,14652 10812,14664 10803,14675 10793,14686 10782,14696 10772,14705 10760,14714 10749,14723 10737,14730 10724,14737 10712,14744 10698,14750 10685,14755 10671,14759 10658,14763 10644,14765 10629,14768 10615,14769 10601,14770 10586,14769 10571,14769 10557,14767 10542,14764 10527,14761 10513,14757 10498,14752 10484,14746 10478,14743 10472,14740 10466,14737 10460,14734 10454,14731 10449,14728 10444,14724 10438,14721 10433,14717 10428,14713 10423,14709 10418,14705 10413,14701 10408,14697 10404,14692 10399,14688 10395,14683 10391,14679 10386,14674 10382,14669 10378,14664 10374,14659 10371,14654 10367,14648 10364,14643 10360,14637 10357,14632 10354,14626 10351,14620 10348,14614 10345,14608 10343,14602 10340,14596 10338,14590 10335,14583 10333,14577 10331,14571 10330,14565 10328,14559 10326,14552 10325,14546 10324,14540 10323,14533 10322,14527 10321,14521 10321,14514 10321,14508 10320,14502 10320,14495 10320,14489 10321,14483 10321,14476 10321,14470 10322,14464 10323,14457 10324,14451 10325,14445 10326,14438 10328,14432 10330,14426 10331,14419 10333,14413 10335,14407 10338,14400 10340,14394 10342,14388 10345,14382 10348,14376 10351,14370 10353,14364 10357,14359 10360,14353 10363,14347 10367,14342 10370,14337 10374,14332 10378,14327 10382,14321 10386,14317 10390,14312 10394,14307 10399,14303 10403,14298 10408,14294 10412,14289 10417,14285 10422,14281 10427,14277 10432,14273 10438,14270 10443,14266 10449,14263 10454,14259 10460,14256 10466,14253 10472,14250 10478,14247 10484,14244 10490,14241 10496,14239 10502,14236 10508,14234 10514,14232 10520,14230 10527,14229 10533,14227 10539,14226 10545,14224 10552,14223 10558,14222 10564,14222 10571,14221 10577,14220 10583,14220 10589,14220 10596,14220 10602,14220 10609,14220 10615,14221 10622,14221 10628,14222 10634,14223 10641,14224 10647,14225 10654,14227 10660,14228 10666,14230 10673,14232 Z"/>
        <path fill="rgb(31,26,23)" stroke="none" d="M 10676,14906 L 10690,14910 10703,14916 10715,14921 10728,14927 10739,14934 10751,14941 10762,14949 10772,14957 10782,14965 10792,14974 10801,14984 10810,14994 10818,15004 10826,15015 10833,15026 10839,15037 10846,15049 10851,15061 10856,15073 10860,15086 10864,15098 10867,15111 10870,15124 10872,15137 10873,15150 10874,15164 10873,15177 10873,15191 10871,15205 10869,15218 10866,15232 10863,15245 10858,15260 10853,15274 10847,15288 10840,15302 10832,15314 10824,15327 10816,15339 10806,15350 10796,15361 10786,15371 10775,15380 10764,15389 10752,15397 10741,15405 10728,15412 10715,15418 10702,15424 10689,15429 10675,15433 10661,15437 10647,15440 10633,15442 10619,15444 10604,15444 10590,15444 10575,15443 10560,15442 10546,15439 10531,15436 10517,15432 10502,15427 10488,15421 10482,15418 10476,15415 10470,15412 10464,15409 10458,15406 10453,15402 10447,15399 10442,15395 10437,15392 10431,15388 10426,15384 10422,15380 10417,15376 10412,15372 10407,15367 10403,15363 10399,15358 10394,15353 10390,15349 10386,15344 10382,15339 10378,15334 10374,15328 10371,15323 10367,15318 10364,15312 10361,15307 10357,15301 10355,15295 10352,15289 10349,15283 10346,15277 10344,15271 10341,15265 10339,15258 10337,15252 10335,15246 10333,15240 10331,15233 10330,15227 10329,15221 10328,15214 10327,15208 10326,15202 10325,15196 10325,15189 10324,15183 10324,15176 10324,15170 10324,15164 10324,15157 10325,15151 10325,15145 10326,15139 10327,15132 10328,15126 10329,15119 10330,15113 10331,15107 10333,15100 10335,15094 10337,15088 10339,15082 10341,15075 10344,15069 10346,15063 10349,15057 10351,15051 10354,15045 10357,15039 10360,15033 10364,15028 10367,15022 10370,15017 10374,15012 10378,15006 10382,15001 10385,14996 10390,14991 10394,14987 10398,14982 10402,14977 10407,14973 10411,14969 10416,14964 10421,14960 10426,14956 10431,14952 10436,14948 10441,14945 10447,14941 10452,14938 10458,14934 10464,14931 10470,14927 10475,14925 10482,14922 10488,14919 10494,14916 10500,14914 10506,14911 10512,14909 10518,14907 10524,14905 10530,14904 10537,14902 10543,14900 10549,14899 10555,14898 10562,14897 10568,14896 10574,14896 10580,14895 10587,14895 10593,14895 10600,14895 10606,14895 10612,14895 10619,14895 10625,14896 10632,14897 10638,14898 10644,14899 10651,14900 10657,14901 10664,14903 10670,14904 10676,14906 Z"/>
        <path fill="rgb(31,26,23)" stroke="none" d="M 10676,15581 L 10690,15585 10703,15590 10715,15596 10728,15602 10739,15608 10751,15616 10762,15623 10772,15632 10782,15640 10792,15649 10801,15659 10810,15669 10818,15679 10826,15690 10833,15701 10839,15712 10846,15724 10851,15736 10856,15748 10860,15760 10864,15773 10867,15786 10870,15799 10872,15812 10873,15825 10874,15839 10873,15852 10873,15866 10871,15879 10869,15893 10866,15907 10863,15920 10858,15935 10853,15949 10847,15963 10840,15976 10832,15989 10824,16002 10816,16013 10806,16025 10796,16035 10786,16046 10775,16055 10764,16064 10752,16072 10741,16080 10728,16087 10715,16093 10702,16099 10689,16104 10675,16108 10661,16112 10647,16115 10633,16117 10619,16118 10604,16119 10590,16119 10575,16118 10560,16117 10546,16114 10531,16111 10517,16107 10502,16101 10488,16095 10482,16093 10476,16090 10470,16087 10464,16084 10458,16081 10453,16077 10447,16074 10442,16070 10437,16066 10431,16063 10426,16059 10422,16055 10417,16051 10412,16046 10407,16042 10403,16038 10399,16033 10394,16028 10390,16024 10386,16018 10382,16014 10378,16008 10374,16003 10371,15998 10367,15992 10364,15987 10361,15981 10357,15976 10355,15970 10352,15964 10349,15958 10346,15952 10344,15946 10341,15939 10339,15933 10337,15927 10335,15921 10333,15914 10331,15908 10330,15902 10329,15895 10328,15889 10327,15883 10326,15877 10325,15870 10325,15864 10324,15858 10324,15851 10324,15845 10324,15839 10324,15832 10325,15826 10325,15820 10326,15813 10327,15807 10328,15800 10329,15794 10330,15788 10331,15781 10333,15775 10335,15769 10337,15763 10339,15756 10341,15750 10344,15744 10346,15738 10349,15732 10351,15725 10354,15720 10357,15714 10360,15708 10364,15703 10367,15697 10370,15692 10374,15686 10378,15681 10382,15676 10385,15671 10390,15666 10394,15662 10398,15657 10402,15652 10407,15648 10411,15643 10416,15639 10421,15635 10426,15631 10431,15627 10436,15623 10441,15619 10447,15616 10452,15612 10458,15609 10464,15606 10470,15602 10475,15599 10482,15596 10488,15594 10494,15591 10500,15588 10506,15586 10512,15584 10518,15582 10524,15580 10530,15578 10537,15577 10543,15575 10549,15574 10555,15573 10562,15572 10568,15571 10574,15571 10580,15570 10587,15570 10593,15570 10600,15570 10606,15570 10612,15570 10619,15570 10625,15571 10632,15572 10638,15572 10644,15573 10651,15575 10657,15576 10664,15577 10670,15579 10676,15581 Z"/>
        <path fill="rgb(218,68,53)" stroke="none" d="M 10595,14280 L 10606,14280 10617,14281 10628,14282 10638,14284 10649,14287 10659,14290 10669,14293 10678,14297 10688,14301 10697,14306 10706,14311 10715,14317 10723,14323 10731,14329 10739,14336 10747,14343 10754,14350 10760,14358 10767,14366 10773,14375 10778,14383 10784,14392 10788,14402 10793,14411 10796,14421 10800,14431 10803,14441 10805,14451 10807,14462 10808,14473 10809,14484 10809,14495 10809,14506 10808,14517 10807,14527 10805,14538 10803,14548 10800,14558 10796,14568 10793,14578 10788,14588 10784,14597 10778,14606 10773,14615 10767,14623 10760,14631 10754,14639 10747,14646 10739,14654 10731,14660 10723,14667 10715,14673 10706,14678 10697,14683 10688,14688 10678,14692 10669,14696 10659,14700 10649,14703 10638,14705 10628,14707 10617,14708 10606,14709 10595,14709 10584,14709 10573,14708 10562,14707 10552,14705 10541,14703 10531,14700 10521,14696 10511,14692 10502,14688 10493,14683 10484,14678 10475,14673 10466,14667 10458,14660 10451,14654 10443,14646 10436,14639 10429,14631 10423,14623 10417,14615 10411,14606 10406,14597 10401,14588 10397,14578 10393,14568 10390,14558 10387,14548 10384,14538 10383,14527 10381,14517 10381,14506 10380,14495 10381,14484 10381,14473 10383,14462 10384,14451 10387,14441 10390,14431 10393,14421 10397,14411 10401,14402 10406,14392 10411,14383 10417,14375 10423,14366 10429,14358 10436,14350 10443,14343 10451,14336 10458,14329 10466,14323 10475,14317 10484,14311 10493,14306 10502,14301 10511,14297 10521,14293 10531,14290 10541,14287 10552,14284 10562,14282 10573,14281 10584,14280 10595,14280 Z"/>
        <path fill="rgb(246,210,3)" stroke="none" d="M 10598,14955 L 10610,14955 10620,14956 10631,14957 10642,14959 10652,14962 10662,14965 10672,14968 10682,14972 10692,14976 10701,14981 10710,14986 10719,14992 10727,14997 10735,15004 10743,15011 10750,15018 10757,15025 10764,15033 10771,15041 10777,15049 10782,15058 10787,15067 10792,15077 10796,15086 10800,15096 10803,15106 10806,15116 10809,15126 10811,15137 10812,15148 10813,15158 10813,15170 10813,15181 10812,15192 10811,15202 10809,15213 10806,15223 10803,15233 10800,15243 10796,15253 10792,15263 10787,15272 10782,15281 10777,15289 10771,15298 10764,15306 10757,15314 10750,15321 10743,15328 10735,15335 10727,15341 10719,15348 10710,15353 10701,15358 10692,15363 10682,15367 10672,15371 10662,15375 10652,15378 10642,15380 10631,15382 10620,15383 10610,15384 10598,15384 10588,15384 10577,15383 10566,15382 10555,15380 10545,15378 10535,15375 10525,15371 10515,15367 10506,15363 10496,15358 10487,15353 10479,15348 10470,15341 10462,15335 10454,15328 10447,15321 10440,15314 10433,15306 10427,15298 10421,15289 10415,15281 10410,15272 10405,15263 10401,15253 10397,15243 10394,15233 10391,15223 10388,15213 10386,15202 10385,15192 10384,15181 10384,15170 10384,15158 10385,15148 10386,15137 10388,15126 10391,15116 10394,15106 10397,15096 10401,15086 10405,15077 10410,15067 10415,15058 10421,15049 10427,15041 10433,15033 10440,15025 10447,15018 10454,15011 10462,15004 10470,14997 10479,14992 10487,14986 10496,14981 10506,14976 10515,14972 10525,14968 10535,14965 10545,14962 10555,14959 10566,14957 10577,14956 10588,14955 10598,14955 Z"/>
        <path fill="rgb(2,115,60)" stroke="none" d="M 10598,15630 L 10610,15630 10620,15631 10631,15632 10642,15634 10652,15636 10662,15639 10672,15643 10682,15646 10692,15651 10701,15656 10710,15661 10719,15666 10727,15672 10735,15679 10743,15685 10750,15693 10757,15700 10764,15708 10771,15716 10777,15724 10782,15733 10787,15742 10792,15751 10796,15761 10800,15771 10803,15781 10806,15791 10809,15801 10811,15812 10812,15823 10813,15833 10813,15844 10813,15855 10812,15866 10811,15877 10809,15887 10806,15898 10803,15908 10800,15918 10796,15928 10792,15937 10787,15947 10782,15956 10777,15964 10771,15973 10764,15981 10757,15989 10750,15996 10743,16003 10735,16010 10727,16016 10719,16022 10710,16028 10701,16033 10692,16038 10682,16042 10672,16046 10662,16050 10652,16052 10642,16055 10631,16057 10620,16058 10610,16059 10598,16059 10588,16059 10577,16058 10566,16057 10555,16055 10545,16052 10535,16050 10525,16046 10515,16042 10506,16038 10496,16033 10487,16028 10479,16022 10470,16016 10462,16010 10454,16003 10447,15996 10440,15989 10433,15981 10427,15973 10421,15964 10415,15956 10410,15947 10405,15937 10401,15928 10397,15918 10394,15908 10391,15898 10388,15887 10386,15877 10385,15866 10384,15855 10384,15844 10384,15833 10385,15823 10386,15812 10388,15801 10391,15791 10394,15781 10397,15771 10401,15761 10405,15751 10410,15742 10415,15733 10421,15724 10427,15716 10433,15708 10440,15700 10447,15693 10454,15685 10462,15679 10470,15672 10479,15666 10487,15661 10496,15656 10506,15651 10515,15646 10525,15643 10535,15639 10545,15636 10555,15634 10566,15632 10577,15631 10588,15630 10598,15630 Z"/>
       </g>
      </g>
     </g>
    </g>
   </g>
  </g>
 </g>
</svg>