<?xml version="1.0" encoding="UTF-8"?>
<!DOCTYPE svg PUBLIC "-//W3C//DTD SVG 1.1//EN" "http://www.w3.org/Graphics/SVG/1.1/DTD/svg11.dtd">
<svg version="1.2" width="42.41mm" height="37.2mm" viewBox="8474 13048 4241 3720" preserveAspectRatio="xMidYMid" fill-rule="evenodd" stroke-width="28.222" stroke-linejoin="round" xmlns="http://www.w3.org/2000/svg" xmlns:ooo="http://xml.openoffice.org/svg/export" xmlns:xlink="http://www.w3.org/1999/xlink" xmlns:presentation="http://sun.com/xmlns/staroffice/presentation" xmlns:smil="http://www.w3.org/2001/SMIL20/" xmlns:anim="urn:oasis:names:tc:opendocument:xmlns:animation:1.0" xml:space="preserve">
 <defs class="ClipPathGroup">
  <clipPath id="presentation_clip_path" clipPathUnits="userSpaceOnUse">
   <rect x="8474" y="13048" width="4241" height="3720"/>
  </clipPath>
  <clipPath id="presentation_clip_path_shrink" clipPathUnits="userSpaceOnUse">
   <rect x="8478" y="13051" width="4233" height="3713"/>
  </clipPath>
 </defs>
 <defs class="TextShapeIndex">
  <g ooo:slide="id1" ooo:id-list="id3"/>
 </defs>
 <defs class="EmbeddedBulletChars">
  <g id="bullet-char-template-57356" transform="scale(0.00048828125,-0.00048828125)">
   <path d="M 580,1141 L 1163,571 580,0 -4,571 580,1141 Z"/>
  </g>
  <g id="bullet-char-template-57354" transform="scale(0.00048828125,-0.00048828125)">
   <path d="M 8,1128 L 1137,1128 1137,0 8,0 8,1128 Z"/>
  </g>
  <g id="bullet-char-template-10146" transform="scale(0.00048828125,-0.00048828125)">
   <path d="M 174,0 L 602,739 174,1481 1456,739 174,0 Z M 1358,739 L 309,1346 659,739 1358,739 Z"/>
  </g>
  <g id="bullet-char-template-10132" transform="scale(0.00048828125,-0.00048828125)">
   <path d="M 2015,739 L 1276,0 717,0 1260,543 174,543 174,936 1260,936 717,1481 1274,1481 2015,739 Z"/>
  </g>
  <g id="bullet-char-template-10007" transform="scale(0.00048828125,-0.00048828125)">
   <path d="M 0,-2 C -7,14 -16,27 -25,37 L 356,567 C 262,823 215,952 215,954 215,979 228,992 255,992 264,992 276,990 289,987 310,991 331,999 354,1012 L 381,999 492,748 772,1049 836,1024 860,1049 C 881,1039 901,1025 922,1006 886,937 835,863 770,784 769,783 710,716 594,584 L 774,223 C 774,196 753,168 711,139 L 727,119 C 717,90 699,76 672,76 641,76 570,178 457,381 L 164,-76 C 142,-110 111,-127 72,-127 30,-127 9,-110 8,-76 1,-67 -2,-52 -2,-32 -2,-23 -1,-13 0,-2 Z"/>
  </g>
  <g id="bullet-char-template-10004" transform="scale(0.00048828125,-0.00048828125)">
   <path d="M 285,-33 C 182,-33 111,30 74,156 52,228 41,333 41,471 41,549 55,616 82,672 116,743 169,778 240,778 293,778 328,747 346,684 L 369,508 C 377,444 397,411 428,410 L 1163,1116 C 1174,1127 1196,1133 1229,1133 1271,1133 1292,1118 1292,1087 L 1292,965 C 1292,929 1282,901 1262,881 L 442,47 C 390,-6 338,-33 285,-33 Z"/>
  </g>
  <g id="bullet-char-template-9679" transform="scale(0.00048828125,-0.00048828125)">
   <path d="M 813,0 C 632,0 489,54 383,161 276,268 223,411 223,592 223,773 276,916 383,1023 489,1130 632,1184 813,1184 992,1184 1136,1130 1245,1023 1353,916 1407,772 1407,592 1407,412 1353,268 1245,161 1136,54 992,0 813,0 Z"/>
  </g>
  <g id="bullet-char-template-8226" transform="scale(0.00048828125,-0.00048828125)">
   <path d="M 346,457 C 273,457 209,483 155,535 101,586 74,649 74,723 74,796 101,859 155,911 209,963 273,989 346,989 419,989 480,963 531,910 582,859 608,796 608,723 608,648 583,586 532,535 482,483 420,457 346,457 Z"/>
  </g>
  <g id="bullet-char-template-8211" transform="scale(0.00048828125,-0.00048828125)">
   <path d="M -4,459 L 1135,459 1135,606 -4,606 -4,459 Z"/>
  </g>
  <g id="bullet-char-template-61548" transform="scale(0.00048828125,-0.00048828125)">
   <path d="M 173,740 C 173,903 231,1043 346,1159 462,1274 601,1332 765,1332 928,1332 1067,1274 1183,1159 1299,1043 1357,903 1357,740 1357,577 1299,437 1183,322 1067,206 928,148 765,148 601,148 462,206 346,322 231,437 173,577 173,740 Z"/>
  </g>
 </defs>
 <defs class="TextEmbeddedBitmaps"/>
 <g class="SlideGroup">
  <g>
   <g id="container-id1">
    <g id="id1" class="Slide" clip-path="url(#presentation_clip_path)">
     <g class="Page">
      <g class="Graphic">
       <g id="id3">
        <rect class="BoundingBox" stroke="none" fill="none" x="8474" y="13048" width="4242" height="3721"/>
        <path fill="rgb(218,68,53)" stroke="none" d="M 8649,16769 L 12541,16769 12553,16768 12565,16767 12577,16765 12589,16763 12600,16759 12610,16755 12621,16750 12631,16744 12640,16738 12649,16732 12658,16724 12666,16717 12673,16709 12680,16700 12687,16691 12692,16681 12697,16672 12702,16662 12706,16652 12709,16641 12712,16630 12714,16619 12715,16608 12716,16597 12716,16585 12715,16574 12713,16563 12711,16551 12707,16540 12703,16529 12698,16518 12692,16506 10746,13136 10740,13125 10733,13115 10725,13106 10717,13097 10708,13089 10699,13082 10690,13076 10680,13070 10670,13065 10660,13060 10649,13056 10639,13054 10628,13051 10617,13049 10606,13048 10595,13048 10584,13048 10573,13049 10562,13051 10551,13054 10541,13056 10530,13060 10520,13065 10510,13070 10500,13076 10491,13082 10482,13089 10473,13097 10465,13106 10457,13115 10450,13125 10444,13136 8498,16506 8492,16518 8487,16529 8482,16540 8479,16551 8477,16563 8475,16574 8474,16585 8474,16597 8475,16608 8476,16619 8478,16630 8481,16641 8484,16652 8488,16662 8493,16672 8498,16681 8503,16691 8510,16700 8517,16709 8524,16717 8532,16724 8541,16732 8550,16738 8559,16744 8569,16750 8580,16755 8590,16759 8601,16763 8613,16765 8625,16767 8637,16768 8649,16769 Z"/>
        <path fill="rgb(255,255,255)" stroke="none" d="M 8952,16419 L 12238,16419 10595,13573 8952,16419 Z"/>
        <path fill="rgb(26,28,26)" stroke="none" d="M 10795,14511 L 10695,15647 10694,15652 10692,15657 10690,15662 10688,15666 10685,15671 10682,15675 10679,15680 10675,15684 10672,15688 10668,15692 10664,15696 10660,15699 10655,15703 10651,15706 10646,15708 10642,15711 10635,15713 10629,15715 10622,15717 10614,15718 10607,15719 10600,15719 10592,15719 10585,15718 10577,15717 10570,15715 10567,15715 10563,15714 10560,15712 10557,15711 10553,15709 10550,15708 10547,15706 10544,15704 10541,15702 10539,15700 10536,15698 10533,15695 10530,15690 10526,15685 10523,15680 10520,15675 10517,15670 10515,15664 10513,15659 10511,15653 10509,15647 10507,15642 10506,15636 10505,15630 10503,15618 10501,15606 10500,15593 10499,15580 10498,15568 10497,15555 10497,15542 10496,15529 10494,15516 10493,15504 10395,14498 10396,14491 10396,14485 10398,14478 10399,14471 10401,14464 10403,14458 10405,14451 10407,14445 10410,14439 10413,14432 10416,14426 10419,14420 10423,14414 10426,14408 10430,14403 10434,14397 10439,14392 10443,14386 10448,14381 10453,14376 10458,14372 10463,14367 10468,14363 10474,14358 10479,14354 10485,14351 10491,14347 10497,14344 10503,14341 10510,14338 10516,14335 10523,14333 10535,14329 10547,14325 10560,14322 10572,14320 10584,14319 10597,14319 10609,14319 10622,14320 10633,14322 10645,14325 10657,14328 10668,14332 10680,14336 10690,14341 10701,14347 10711,14353 10721,14360 10730,14367 10739,14375 10747,14383 10755,14391 10762,14401 10768,14410 10774,14420 10780,14430 10784,14441 10788,14452 10791,14463 10793,14475 10795,14487 10795,14499 10795,14511 Z"/>
        <path fill="rgb(26,28,26)" stroke="none" d="M 10595,15819 L 10605,15820 10615,15820 10625,15821 10635,15823 10645,15825 10654,15828 10664,15831 10673,15835 10682,15839 10690,15843 10699,15848 10707,15853 10715,15859 10722,15865 10729,15871 10736,15878 10743,15885 10749,15892 10755,15900 10761,15907 10766,15916 10771,15924 10775,15933 10779,15941 10783,15951 10786,15960 10789,15969 10791,15979 10793,15989 10794,15999 10795,16009 10795,16019 10795,16029 10794,16040 10793,16050 10791,16059 10789,16069 10786,16079 10783,16088 10779,16097 10775,16106 10771,16114 10766,16123 10761,16131 10755,16139 10749,16146 10743,16153 10736,16161 10729,16167 10722,16173 10715,16179 10707,16185 10699,16190 10690,16195 10682,16199 10673,16203 10664,16207 10654,16210 10645,16213 10635,16215 10625,16217 10615,16218 10605,16219 10595,16219 10585,16219 10575,16218 10565,16217 10555,16215 10545,16213 10536,16210 10526,16207 10517,16203 10508,16199 10500,16195 10491,16190 10483,16185 10475,16179 10468,16173 10461,16167 10454,16161 10447,16153 10441,16146 10435,16139 10429,16131 10424,16123 10419,16114 10415,16106 10411,16097 10407,16088 10404,16079 10401,16069 10399,16059 10397,16050 10396,16040 10395,16029 10395,16019 10395,16009 10396,15999 10397,15989 10399,15979 10401,15969 10404,15960 10407,15951 10411,15941 10415,15933 10419,15924 10424,15916 10429,15907 10435,15900 10441,15892 10447,15885 10454,15878 10461,15871 10468,15865 10475,15859 10483,15853 10491,15848 10500,15843 10508,15839 10517,15835 10526,15831 10536,15828 10545,15825 10555,15823 10565,15821 10575,15820 10585,15820 10595,15819 Z"/>
       </g>
      </g>
     </g>
    </g>
   </g>
  </g>
 </g>
</svg>